
<svg width="1440" height="599" viewBox="0 0 1440 599" fill="none" xmlns="http://www.w3.org/2000/svg">
<rect width="1440" height="599" fill="#E9F0FF"/>
<path d="M965.581 337.572C1151.15 308.01 1440 260 1440 260V599H0C0 599 147.209 451.204 326.113 400.033C526.731 342.651 752.044 371.59 965.581 337.572Z" fill="white"/>
<g clip-path="url(#clip0)">
<path d="M1093.89 168.444V207.876L1163.18 247.919V208.334L1093.89 168.444Z" fill="#AEC6F7"/>
<path d="M1204.63 184.186L1163.18 208.334L1093.89 168.444L1135.34 144.143L1204.63 184.186Z" fill="#AEC6F7"/>
<path d="M1204.94 191.675L1163.49 215.823L1094.2 175.78L1135.65 151.632L1204.94 191.675Z" fill="white"/>
<path d="M1135.34 142.92L1092.82 167.68V208.334L1163.03 248.836L1205.55 224.076V183.422L1135.34 142.92ZM1162.11 246.085L1094.96 207.264V170.125L1115.61 182.046L1162.11 208.946V246.085ZM1117.29 180.671L1096.03 168.291L1135.5 145.213L1202.64 184.033L1163.18 207.112L1117.29 180.671Z" fill="#16110D"/>
<path d="M1171.44 202.221L1108.42 165.999L1121.58 158.51L1184.29 194.579L1171.44 202.221Z" fill="#AEC6F7"/>
<path d="M1177.71 201.151L1106.43 160.038L1121.58 151.326L1192.85 192.439L1177.71 201.151ZM1110.41 160.038L1177.56 198.706L1188.57 192.286L1121.42 153.619L1110.41 160.038Z" fill="#16110D"/>
<path d="M1175.57 219.644V200.081L1177.71 198.858V215.976L1188.72 209.557V192.439L1190.71 191.369V210.627L1175.57 219.644Z" fill="#AEC6F7"/>
<path d="M797.918 241.653V264.273L841.205 289.338V266.718L797.918 241.653Z" fill="#AEC6F7"/>
<path d="M928.237 216.435L841.205 266.718L797.918 241.653L884.951 191.369L928.237 216.435Z" fill="#AEC6F7"/>
<path d="M928.237 224.229L841.205 274.513L797.918 249.447L884.951 199.317L928.237 224.229Z" fill="white"/>
<path d="M884.95 190.452L797 241.194V264.884L841.205 290.408L929.155 239.666V215.976L884.95 190.452ZM840.44 287.809L798.835 263.814V243.181L840.44 267.176V287.809ZM799.753 241.653L884.95 192.439L926.555 216.435L841.358 265.648L799.753 241.653Z" fill="#16110D"/>
<path d="M841.205 289.338L841.511 301.718L800.213 277.875V265.648L841.205 289.338Z" fill="#AEC6F7"/>
<path d="M841.205 288.268L799.295 264.12V278.486L841.358 302.787L924.873 254.644V239.971L841.205 288.268ZM801.13 277.416V267.176L840.44 289.796L840.593 300.189L801.13 277.416Z" fill="#16110D"/>
<path d="M840.746 289.643V287.657L924.567 239.36V241.347L840.746 289.643Z" fill="#AEC6F7"/>
<path d="M828.204 295.146L826.062 281.237V257.701L913.554 207.417L914.319 208.946L827.745 258.77V281.085L830.039 294.84L828.204 295.146Z" fill="#16110D"/>
<path d="M853.442 258.618L811.379 234.316L812.297 232.788L855.125 257.548L853.442 258.618Z" fill="#16110D"/>
<path d="M852.218 296.521L850.076 297.744L853.441 280.473V258.618L855.124 257.548V280.626L852.218 296.521Z" fill="#AEC6F7"/>
<path d="M854.205 243.64C853.9 242.417 852.829 241.041 850.229 240.43C846.864 239.819 843.651 243.181 841.663 245.932C841.663 245.168 841.663 244.251 841.663 243.334C841.357 240.736 837.686 236.609 834.627 236.303C833.556 236.151 831.721 236.303 830.803 239.054C828.968 244.404 836.615 248.989 839.063 250.364L838.91 250.67L839.98 250.823L840.898 251.281V250.976C842.122 251.129 843.957 251.281 845.793 251.281C848.546 251.281 851.299 250.976 852.37 249.906C853.9 248.53 854.97 245.779 854.205 243.64ZM832.638 239.666C833.097 238.443 833.709 238.137 834.321 238.137C834.474 238.137 834.474 238.137 834.627 238.137C836.921 238.443 839.98 241.806 840.133 243.487C840.286 245.321 840.133 247.308 839.98 248.53C836.615 246.849 831.415 243.181 832.638 239.666ZM851.299 248.53C850.534 249.295 845.946 249.447 841.816 249.142C843.498 246.238 847.016 241.653 849.923 242.264C851.299 242.57 852.217 243.181 852.523 244.098C852.982 245.626 852.217 247.613 851.299 248.53Z" fill="#16110D"/>
<path d="M833.71 220.867L866.901 240.43L902.846 219.491L869.655 199.928C869.655 199.928 862.16 195.954 862.16 191.828C862.313 187.701 862.313 187.701 862.313 187.701L826.368 208.64C826.368 208.64 826.368 208.64 826.215 212.767C826.215 216.893 833.71 220.867 833.71 220.867Z" fill="#AEC6F7"/>
<path d="M827.591 220.867L860.782 240.43L896.727 219.491L863.536 199.928C863.536 199.928 856.041 195.954 856.041 191.828C856.194 187.701 856.194 187.701 856.194 187.701L820.249 208.64C820.249 208.64 820.249 208.64 820.096 212.767C820.096 216.893 827.591 220.867 827.591 220.867Z" fill="white"/>
<path d="M825.602 208.181L862.923 186.479L862.771 191.675C862.771 194.732 867.818 198.247 869.96 199.317L904.222 219.491L866.9 241.194L833.403 221.478C832.944 221.173 825.449 217.199 825.602 212.767V208.181ZM861.7 188.771L826.979 208.946V212.767C826.979 215.823 832.026 219.339 834.168 220.408L867.053 239.819L901.775 219.644L869.501 200.692C869.195 200.54 861.7 196.413 861.7 191.981V188.771Z" fill="#16110D"/>
<path d="M888.774 235.998L880.82 235.081L893.669 209.863L901.622 210.627L888.774 235.998Z" fill="#AEC6F7"/>
<path d="M887.244 237.832L882.809 237.373L895.657 212.002L903.611 212.919L892.292 235.081C891.221 236.915 889.233 237.985 887.244 237.832Z" fill="white"/>
<path d="M889.08 236.609L879.902 235.539L893.363 209.099L902.54 210.168L889.08 236.609ZM881.738 234.622L888.468 235.386L900.705 211.238L893.974 210.474L881.738 234.622Z" fill="#15100C"/>
<path d="M878.22 211.544L853.288 225.911L852.064 225.299L876.996 210.932L878.22 211.544Z" fill="#15100C"/>
<path d="M882.197 213.836L857.265 228.203L856.041 227.592L880.82 213.072L882.197 213.836Z" fill="#15100C"/>
<path d="M876.385 221.784L861.242 230.496L859.865 229.731L875.008 221.02L876.385 221.784Z" fill="#15100C"/>
<path d="M870.265 207.112L845.333 221.478L844.109 220.714L869.041 206.347L870.265 207.112Z" fill="#15100C"/>
<path d="M874.244 209.251L849.312 223.771L848.088 223.007L873.02 208.64L874.244 209.251Z" fill="#15100C"/>
<path d="M862.465 202.527L837.533 216.893L836.156 216.129L861.088 201.762L862.465 202.527Z" fill="#15100C"/>
<path d="M866.441 204.819L841.509 219.186L840.133 218.422L865.065 204.055L866.441 204.819Z" fill="#15100C"/>
<path d="M908.812 147.964V280.932L1023.53 347.11C1023.84 347.263 1024.14 347.11 1024.14 346.804V214.448L908.812 147.964Z" fill="#AEC6F7"/>
<path d="M1023.68 348.026C1023.38 348.026 1023.22 348.026 1023.07 347.874L907.895 281.39V146.282L1025.06 213.836V346.651C1025.06 347.109 1024.75 347.568 1024.45 347.874C1024.29 348.026 1023.99 348.026 1023.68 348.026ZM909.883 280.32L1023.22 345.734V214.906L909.883 149.644V280.32Z" fill="#16110D"/>
<path d="M1139.47 147.964V280.932L1024.75 347.11C1024.45 347.263 1024.14 347.11 1024.14 346.804V214.448L1139.47 147.964Z" fill="#15100C"/>
<path d="M1024.6 348.027C1024.3 348.027 1024.14 348.027 1023.84 347.874C1023.38 347.569 1023.22 347.11 1023.22 346.652V213.836L1023.68 213.531L1140.39 146.13V281.39L1025.21 347.874C1025.06 348.027 1024.75 348.027 1024.6 348.027ZM1025.06 215.059V345.887L1138.4 280.473V149.645L1025.06 215.059Z" fill="#16110D"/>
<path d="M1147.42 129.318L1024.14 200.387L900.703 129.165C900.55 129.012 900.55 128.859 900.703 128.706L1024.14 57.4844L1147.42 128.553C1147.73 128.706 1147.73 129.165 1147.42 129.318Z" fill="#AEC6F7"/>
<path d="M1148.04 140.016L1024.75 211.085L901.316 139.863C901.163 139.711 901.163 139.558 901.316 139.405L1024.75 68.183L1148.04 139.252C1148.34 139.405 1148.34 139.863 1148.04 140.016Z" fill="white"/>
<path d="M1024.14 201.609L1023.68 201.304L900.245 130.082C899.939 129.929 899.633 129.471 899.633 129.012C899.633 128.553 899.939 128.248 900.245 127.942L1024.14 56.4146L1024.6 56.7202L1147.88 127.789C1148.34 128.095 1148.65 128.553 1148.65 129.012C1148.65 129.471 1148.34 129.929 1147.88 130.235L1024.14 201.609ZM902.233 129.012L1024.14 199.317L1146.05 129.012L1024.14 58.7071L902.233 129.012Z" fill="#16110D"/>
<path d="M900.246 129.47V166.915L1024.14 238.443V200.54L900.705 129.165C900.552 129.165 900.246 129.165 900.246 129.47Z" fill="#AEC6F7"/>
<path d="M1025.06 239.971L899.328 167.374V129.47C899.328 129.012 899.634 128.706 899.94 128.401C900.246 128.248 900.705 128.248 901.164 128.401L1025.06 199.928V239.971V239.971ZM901.317 166.304L1023.22 236.609V200.998L901.317 130.693V166.304Z" fill="#16110D"/>
<path d="M1148.04 129.776V166.916L1024.14 238.443V200.54L1147.42 129.471C1147.73 129.165 1148.04 129.318 1148.04 129.776Z" fill="#15100C"/>
<path d="M1023.22 239.971V199.928L1023.68 199.623L1146.97 128.553C1147.42 128.248 1147.88 128.248 1148.34 128.553C1148.8 128.859 1149.11 129.318 1149.11 129.776V167.527L1148.65 167.833L1023.22 239.971ZM1025.06 200.998V236.609L1146.97 166.304V130.693L1025.06 200.998Z" fill="#16110D"/>
<path d="M978.256 174.404L1102.61 103.03L1073.4 86.2177L949.5 157.745L978.256 174.404Z" fill="#AEC6F7"/>
<path d="M973.972 172.723L943.381 154.841L1069.26 82.2439L1100.31 100.126L973.972 172.723ZM947.205 154.841L973.972 170.431L1096.49 100.126L1069.26 84.3836L947.205 154.841Z" fill="#16110D"/>
<path d="M947.969 303.399V194.426L976.572 210.932V319.905L947.969 303.399Z" fill="#AEC6F7"/>
<path d="M952.1 306.914V197.789L980.856 214.295V323.42L952.1 306.914Z" fill="white"/>
<path d="M977.49 321.586L946.898 304.01V192.745L977.49 210.321V321.586ZM948.887 302.94L975.654 318.377V211.544L948.887 196.107V302.94Z" fill="#16110D"/>
<path d="M951.029 194.579V158.204L979.632 174.863V211.085L951.029 194.579Z" fill="white"/>
<path d="M975.043 211.085L944.451 193.509V155.3C944.451 154.383 945.522 153.772 946.44 154.23L975.043 171.042V211.085ZM946.287 192.286L973.054 207.723V172.112L946.287 156.37V192.286Z" fill="#16110D"/>
<path d="M1069.88 174.71L945.521 103.335L974.583 86.5233L1098.48 158.051L1069.88 174.71Z" fill="#AEC6F7"/>
<path d="M1074.46 172.723L948.121 100.126L979.171 82.2439L979.63 82.5496L1104.9 154.841L1074.46 172.723ZM951.945 100.126L1074.46 170.431L1101.23 154.841L979.324 84.5364L951.945 100.126Z" fill="#16110D"/>
<path d="M907.13 68.4886C907.13 68.4886 905.142 109.449 949.806 114.34C982.691 117.855 1004.11 124.121 1009.92 126.414C1010.84 126.872 1016.95 123.051 1017.11 122.287L1019.1 100.737C1019.1 100.737 988.504 86.6761 987.127 86.6761C985.75 86.6761 960.665 88.663 949.958 82.091C939.251 75.5191 942.311 64.9733 946.899 55.8031C951.488 46.6329 943.381 43.4233 943.381 43.4233L912.79 58.707L911.566 60.0825C909.119 62.6808 907.742 65.4318 907.13 68.4886Z" fill="#15100C"/>
<path d="M921.966 103.488L949.804 82.3967C949.651 82.3967 949.651 82.2439 949.498 82.2439C938.791 75.6719 941.85 65.1262 946.439 55.9559C951.028 46.7857 942.921 43.5762 942.921 43.5762L912.33 58.8598L911.106 60.2354C908.965 62.6808 907.435 65.5847 906.823 68.6414C906.823 68.4886 905.752 89.8857 921.966 103.488Z" fill="#15100C"/>
<path d="M1009.92 127.484C1009.76 127.484 1009.61 127.484 1009.31 127.331C1004.1 125.191 983.149 118.925 949.499 115.257C904.529 110.366 906.059 68.9471 906.059 68.4886V68.3358C906.671 65.1262 908.2 62.0694 910.495 59.4712L912.024 57.9429L943.075 42.5063L943.533 42.6592C943.686 42.6592 947.051 44.0347 948.428 47.55C949.346 49.9953 949.04 53.0521 947.51 56.2617C943.075 65.1262 940.015 75.0606 950.264 81.3269C954.546 83.9251 964.183 86.9818 985.903 85.7591C986.514 85.7591 986.82 85.7591 986.973 85.7591C988.503 85.7591 1010.22 95.6935 1019.4 99.8201L1020.01 100.126L1018.02 122.593C1017.56 123.815 1013.28 126.261 1011.91 126.872C1010.99 127.178 1010.38 127.484 1009.92 127.484ZM908.047 68.6414C907.894 71.0868 907.13 108.837 949.805 113.423C983.302 117.091 1004.41 123.357 1009.92 125.497C1010.99 125.344 1015.27 122.746 1016.04 121.981L1017.87 101.348C1006.4 96.152 988.35 87.8989 986.82 87.746C986.82 87.746 986.361 87.746 985.903 87.746C963.724 88.9687 953.782 85.7591 949.193 83.0081C937.568 75.8248 941.239 64.5148 945.828 55.3446C947.204 52.5936 947.51 50.1482 946.746 48.1613C945.981 46.0216 943.992 44.9517 943.228 44.4932L913.248 59.6241L912.177 60.8468C910.036 63.1393 908.659 65.8904 908.047 68.6414Z" fill="#16110D"/>
<path d="M908.812 63.9035C924.414 35.6287 990.798 94.9293 1001.5 120.147C1001.5 120.147 1001.5 120.147 1001.66 120.3C1004.56 126.108 1013.28 128.553 1020.01 125.344L1031.18 120.147C1031.18 120.147 1023.38 45.1045 969.842 32.8776C929.309 23.8602 908.812 63.9035 908.812 63.9035Z" fill="#AEC6F7"/>
<path d="M969.843 41.1309C947.664 36.0873 931.451 45.8688 921.355 55.8032C946.287 54.8862 992.786 98.7504 1001.66 119.536C1001.66 119.536 1001.66 119.536 1001.81 119.689C1004.72 125.497 1013.44 127.942 1020.17 124.733L1030.11 120.147C1026.13 100.432 1012.52 50.9125 969.843 41.1309Z" fill="white"/>
<path d="M1013.43 127.789C1008.08 127.789 1002.88 125.191 1000.74 120.759L1000.59 120.606C991.715 99.5145 947.51 58.707 923.037 57.3315C916.766 57.0258 912.177 59.3184 909.577 64.362L907.895 63.445C908.047 62.9865 929.309 22.7904 969.995 32.1135C1023.68 44.3404 1032.1 119.383 1032.1 120.147V120.759L1020.17 126.261C1018.18 127.331 1015.73 127.789 1013.43 127.789ZM921.967 55.4975C922.425 55.4975 922.731 55.4975 923.19 55.4975C948.122 56.7202 993.245 98.4446 1002.27 119.842C1005.02 125.344 1013.13 127.484 1019.4 124.58L1029.95 119.689C1029.04 112.2 1019.09 45.2574 969.383 33.9475C941.086 27.5284 922.425 46.1744 914.319 57.1787C916.46 56.1088 919.06 55.4975 921.967 55.4975Z" fill="#16110D"/>
<path d="M1141.15 65.5847C1141.15 65.5847 1142.99 108.532 1100.93 113.728C1069.88 117.396 1049.69 123.968 1044.33 126.414C1043.41 126.872 1037.75 122.898 1037.45 121.981L1035.61 99.5144C1035.61 99.5144 1060.85 90.1914 1062.38 90.1914C1063.91 90.1914 1090.98 86.829 1100.93 79.9513C1110.87 73.0737 1108.11 61.9166 1103.83 52.2879C1099.55 42.6592 1107.2 39.2968 1107.2 39.2968L1136.11 55.3446L1137.18 56.7201C1139.32 59.4712 1140.69 62.5279 1141.15 65.5847Z" fill="#140F0C"/>
<path d="M1100.93 80.1042C1096.18 83.4666 1099.55 82.7024 1091.75 84.3836L1116.83 109.296C1143.6 93.7066 1141.31 65.8903 1141.31 65.8903C1140.69 62.6808 1139.32 59.7769 1137.33 57.0258L1136.26 55.6503L1107.2 39.6024C1107.2 39.6024 1099.55 42.812 1103.83 52.5935C1108.11 62.2223 1111.02 73.2265 1100.93 80.1042Z" fill="#140F0C"/>
<path d="M1044.18 127.484C1043.87 127.484 1043.41 127.331 1042.8 127.025C1041.27 126.261 1036.99 123.663 1036.68 122.287V122.134L1034.85 98.9031L1035.46 98.5974C1041.42 96.4577 1061 89.2744 1062.53 89.2744C1063.91 89.2744 1090.68 86.0648 1100.62 79.1872C1110.26 72.4624 1107.35 62.0695 1103.22 52.7464C1101.69 49.2312 1101.38 46.0216 1102.45 43.4234C1103.83 39.9081 1106.89 38.6854 1107.04 38.5326L1107.5 38.3798L1137.02 54.8861L1138.09 56.2617C1140.24 59.0127 1141.76 62.2223 1142.22 65.4319V65.5847C1142.22 66.0432 1143.6 109.602 1101.23 114.645C1069.57 118.466 1049.84 125.038 1044.79 127.331C1044.48 127.331 1044.33 127.484 1044.18 127.484ZM1038.37 121.829C1038.98 122.593 1042.95 125.344 1044.03 125.497C1049.23 123.204 1069.26 116.632 1100.77 112.811C1140.85 108.073 1140.24 67.5716 1140.08 65.7375C1139.62 62.8336 1138.25 59.9297 1136.26 57.4844L1135.19 56.2617L1107.2 40.5195C1106.43 40.978 1104.9 42.0478 1103.98 44.1876C1103.07 46.3273 1103.37 48.9255 1104.75 51.9822C1109.03 61.4581 1112.4 73.2265 1101.54 80.8684C1091.29 87.8989 1063.91 91.2613 1062.38 91.2613C1061.16 91.4141 1046.17 96.7634 1036.68 100.279L1038.37 121.829Z" fill="#16110D"/>
<path d="M1139.62 60.8467C1124.94 31.0436 1062.23 93.401 1052.13 119.995C1052.13 119.995 1052.13 119.995 1052.13 120.147C1049.38 126.261 1041.12 128.706 1034.85 125.497L1024.29 119.995C1024.29 119.995 1031.64 41.2836 1082.27 28.4454C1120.35 18.6638 1139.62 60.8467 1139.62 60.8467Z" fill="#AEC6F7"/>
<path d="M1082.11 40.8252C1043.87 50.6068 1030.26 97.9862 1025.98 120.453L1034.7 125.038C1041.12 128.401 1049.23 125.802 1051.98 119.689C1051.98 119.536 1051.98 119.536 1051.98 119.536C1059.93 98.7504 1100.16 55.8032 1124.33 52.7465C1115 43.7291 1100.93 36.0873 1082.11 40.8252Z" fill="white"/>
<path d="M1040.81 127.789C1038.52 127.789 1036.38 127.331 1034.24 126.261L1023.07 120.453V119.842C1023.07 119.078 1031.02 40.3667 1081.65 27.3756C1120.2 17.594 1140.08 59.9298 1140.39 60.3883L1138.71 61.1525C1136.11 55.956 1131.98 53.5106 1126.16 53.8163C1103.68 54.8862 1061.16 98.4446 1052.9 120.147L1052.74 120.3C1051.37 123.357 1048.77 125.65 1045.4 126.872C1044.03 127.636 1042.5 127.789 1040.81 127.789ZM1025.21 119.383L1035.31 124.58C1038.37 126.108 1041.88 126.414 1045.1 125.191C1048 124.121 1050.14 122.287 1051.37 119.689C1059.17 99.056 1101.38 53.205 1126.32 51.9823C1129.38 51.8294 1132.13 52.4408 1134.42 53.6635C1126.78 42.2007 1109.19 22.4848 1082.42 29.3624C1035.31 41.2837 1025.98 111.894 1025.21 119.383Z" fill="#16110D"/>
<path d="M1007.77 124.274C1007.47 123.204 1007.32 122.134 1007.47 121.064C1007.93 116.785 1010.37 106.851 1023.53 106.698C1036.22 106.545 1039.59 115.257 1040.66 119.536C1040.97 120.912 1040.97 122.287 1040.51 123.51L1040.35 123.968C1039.13 128.248 1034.85 131.304 1029.95 131.304H1018.02C1013.28 131.304 1009.15 128.401 1007.77 124.274Z" fill="#AEC6F7"/>
<path d="M1029.95 131.304C1034.85 131.304 1039.13 128.248 1040.35 123.968L1040.51 123.51C1040.81 122.134 1040.96 120.759 1040.66 119.536C1040.35 118.008 1039.59 115.715 1038.21 113.575C1036.07 112.811 1033.62 112.2 1030.56 112.353C1017.41 112.506 1014.96 122.44 1014.5 126.719C1014.35 127.789 1014.5 128.859 1014.81 129.929C1014.96 130.235 1015.12 130.54 1015.27 130.999C1016.19 131.304 1017.26 131.457 1018.17 131.457H1029.95V131.304Z" fill="white"/>
<path d="M1029.95 132.222H1018.02C1012.82 132.222 1008.08 129.012 1006.86 124.427C1006.55 123.204 1006.4 121.981 1006.55 120.759C1007.01 116.174 1009.61 105.628 1023.53 105.628C1023.68 105.628 1023.68 105.628 1023.83 105.628C1037.14 105.628 1040.66 115.104 1041.58 119.23C1041.88 120.759 1041.88 122.134 1041.42 123.663L1041.27 124.121C1040.05 129.012 1035.46 132.222 1029.95 132.222ZM1023.83 107.615H1023.68C1011.29 107.768 1009 117.091 1008.54 121.064C1008.39 121.981 1008.54 123.051 1008.84 123.968C1009.92 127.789 1013.89 130.387 1018.17 130.387H1030.11C1034.54 130.387 1038.52 127.636 1039.59 123.816L1039.74 123.357C1040.05 122.134 1040.05 120.912 1039.89 119.842C1038.67 115.104 1035.31 107.615 1023.83 107.615Z" fill="#16110D"/>
<path d="M1007.47 105.781C1007.47 105.781 1018.02 108.838 1018.64 124.733C1018.64 124.733 1017.56 132.222 1024.6 132.68C1024.6 132.68 1009.46 142.614 996.15 132.069C989.726 127.025 983.149 115.715 973.972 118.161C964.641 120.606 982.843 104.405 982.843 104.405H992.479L998.445 107.768L1001.81 105.322L1007.47 105.781Z" fill="#140F0C"/>
<path d="M1009.92 137.877C1005.33 137.877 1000.28 136.654 995.539 132.833C993.856 131.457 992.021 129.623 990.185 127.789C985.291 122.746 980.396 117.549 974.125 119.23C973.36 119.383 971.219 119.995 970.454 118.619C969.077 116.174 976.113 109.143 982.079 103.794L982.384 103.488H992.633L998.292 106.698L1001.5 104.405L1007.62 105.017C1008.08 105.169 1018.79 108.379 1019.55 124.885V125.038V125.191C1019.55 125.191 1019.25 128.248 1020.78 130.235C1021.69 131.305 1022.92 131.916 1024.6 131.916L1027.51 132.069L1025.06 133.597C1025.06 133.597 1018.33 137.877 1009.92 137.877ZM976.572 116.938C982.537 116.938 987.279 121.982 991.562 126.414C993.397 128.248 995.08 130.082 996.61 131.305C1006.4 138.946 1017.26 135.278 1021.85 132.986C1020.78 132.527 1020.01 131.916 1019.25 131.152C1017.26 128.706 1017.56 125.344 1017.56 124.733C1016.8 110.213 1008.08 107.004 1007.16 106.698L1002.12 106.239L998.598 108.838L992.327 105.322H983.302C978.102 110.06 972.748 115.715 972.442 117.396C972.595 117.396 973.054 117.396 973.819 117.244C974.737 117.091 975.654 116.938 976.572 116.938Z" fill="#16110D"/>
<path d="M1007.47 105.781L988.656 97.6804C982.232 94.9294 974.431 96.4577 969.843 101.807C965.407 106.851 961.43 114.951 962.195 127.331C963.571 151.937 956.688 167.68 940.781 169.208C939.251 169.361 938.486 171.042 939.251 172.265L951.182 190.911C952.558 193.051 955.006 194.12 957.3 193.662C966.478 191.981 988.35 185.562 989.727 162.33C991.563 132.833 984.832 116.938 1007.47 105.781Z" fill="#AEC6F7"/>
<path d="M992.328 106.392C985.904 103.641 978.103 105.17 973.514 110.519C969.078 115.562 965.101 123.663 965.866 136.043C967.243 160.649 960.36 176.391 944.452 177.92C943.993 177.92 943.534 178.225 943.229 178.531L951.488 191.522C952.865 193.662 955.312 194.732 957.606 194.273C966.784 192.592 988.657 186.173 990.033 162.942C991.563 136.654 986.515 121.217 1001.05 110.213L992.328 106.392Z" fill="white"/>
<path d="M956.382 194.885C954.088 194.885 951.793 193.662 950.417 191.675L938.486 173.029C937.874 172.112 937.874 171.042 938.333 170.125C938.792 169.208 939.71 168.597 940.627 168.444C955.311 167.068 962.653 152.549 961.124 127.636C960.512 116.938 963.112 108.073 969.077 101.349C973.972 95.6936 981.926 94.0124 988.962 97.0691L1009.61 105.934L1007.78 106.851C990.797 115.257 990.95 126.261 990.95 144.449C990.95 149.798 990.95 155.911 990.644 162.789C989.115 186.784 966.936 193.356 957.453 195.037C957.147 194.885 956.688 194.885 956.382 194.885ZM982.079 97.3748C977.796 97.3748 973.666 99.2088 970.607 102.571C965.1 108.99 962.5 117.396 963.112 127.484C964.642 153.619 956.688 168.902 940.78 170.431C940.321 170.431 940.015 170.889 940.015 171.042C939.863 171.348 939.863 171.806 940.015 172.112L951.946 190.758C953.017 192.439 955.158 193.356 957.147 193.051C966.171 191.369 987.432 185.256 988.809 162.636C989.268 155.911 989.115 149.798 989.115 144.449C988.962 126.719 988.962 114.798 1005.18 106.086L988.35 98.7503C986.361 97.6805 984.22 97.3748 982.079 97.3748Z" fill="#16110D"/>
<path d="M1024.14 132.68C1024.14 132.986 1024.29 133.139 1024.6 133.139C1027.96 132.374 1045.25 129.47 1049.38 152.396C1053.81 177.156 1086.7 189.841 1107.2 169.208C1108.27 168.138 1109.03 166.915 1109.49 165.54L1115.76 145.365C1116.22 143.684 1114.39 142.309 1112.86 143.379C1104.14 149.951 1085.17 161.413 1075.99 146.588C1063.91 127.025 1053.05 116.326 1039.28 119.383C1039.28 119.536 1025.98 121.217 1024.14 132.68Z" fill="#AEC6F7"/>
<path d="M1050.14 152.549C1054.58 177.308 1087.46 189.994 1107.96 169.361C1109.03 168.291 1109.8 167.068 1110.25 165.693L1114.38 152.549C1114.69 151.02 1112.85 149.798 1111.48 150.715C1102.76 157.287 1083.79 168.749 1074.62 153.924C1062.53 134.361 1051.67 123.663 1037.91 126.719C1037.91 126.719 1030.41 127.636 1025.82 133.139C1029.8 132.527 1046.17 130.54 1050.14 152.549Z" fill="white"/>
<path d="M1083.03 180.518C1079.51 180.518 1075.99 179.907 1072.47 178.837C1059.93 174.863 1050.6 164.776 1048.46 152.549C1047.08 144.907 1044.02 139.405 1039.44 136.348C1033.62 132.527 1026.74 133.597 1024.91 134.056C1024.45 134.208 1023.99 134.056 1023.68 133.75C1023.38 133.444 1023.22 132.986 1023.22 132.527C1025.06 120.453 1038.98 118.619 1039.13 118.619C1055.04 114.951 1066.66 129.776 1076.76 146.283C1078.9 149.798 1081.96 152.09 1085.63 152.702C1094.65 154.383 1106.13 147.2 1112.24 142.767C1113.31 142.003 1114.54 142.003 1115.61 142.767C1116.68 143.531 1116.99 144.754 1116.68 145.824L1110.41 165.998C1109.95 167.527 1109.03 168.902 1107.96 170.125C1101.08 176.85 1092.21 180.518 1083.03 180.518ZM1029.65 131.61C1032.86 131.61 1036.84 132.222 1040.51 134.667C1045.55 138.029 1048.92 143.837 1050.45 152.09C1052.59 163.706 1061.16 173.182 1073.09 176.85C1085.02 180.518 1097.56 177.461 1106.58 168.444C1107.5 167.527 1108.27 166.304 1108.57 165.081L1114.84 144.907C1115 144.296 1114.69 143.99 1114.54 143.99C1114.39 143.837 1113.93 143.684 1113.47 143.99C1107.2 148.575 1095.27 156.217 1085.48 154.383C1081.19 153.619 1077.83 151.173 1075.38 147.047C1061.92 125.344 1051.67 117.549 1039.59 120.3C1038.98 120.453 1027.51 121.981 1025.36 131.916C1026.28 131.916 1027.81 131.61 1029.65 131.61Z" fill="#16110D"/>
<path d="M999.974 240.277C995.844 237.832 992.326 238.596 990.949 240.736C990.643 241.041 990.031 240.736 989.878 240.124C988.502 236.609 984.984 231.26 981.007 228.814C978.407 227.286 975.959 226.98 974.124 227.897L973.971 228.05C973.818 228.05 973.053 228.662 972.9 228.662L961.734 235.081C961.734 235.081 970.606 264.731 970.759 265.954C971.065 267.329 981.619 285.058 981.619 285.058L993.244 278.486C993.397 278.486 993.549 278.334 993.702 278.334L1006.7 268.552C1009.15 266.718 1010.37 263.356 1010.37 258.923C1010.22 251.893 1005.63 243.64 999.974 240.277Z" fill="white"/>
<path d="M972.594 227.897C972.594 227.897 973.512 227.286 973.665 227.286L974.43 226.828C976.418 226.063 978.865 226.675 981.466 228.05C985.443 230.496 989.113 235.692 990.643 239.666C990.643 239.666 990.643 239.666 990.643 239.819C992.326 237.679 996.15 236.915 1000.43 239.513C1006.24 243.028 1010.99 251.587 1010.99 258.618C1010.99 263.203 1009.61 266.871 1007.01 268.858L994.008 278.639C993.855 278.792 993.702 278.792 993.396 278.945L981.313 285.975L981.007 285.364C978.559 281.237 970.3 267.329 969.994 266.107C969.841 265.19 964.487 247.155 960.969 235.234L960.816 234.622L972.594 227.897ZM971.523 265.801C971.829 266.871 977.948 277.264 981.925 283.989L992.784 277.722C992.937 277.569 993.09 277.569 993.09 277.569L1006.09 267.788C1008.23 266.107 1009.46 262.897 1009.46 258.923C1009.46 252.351 1005.02 244.404 999.668 241.194C995.997 238.902 992.784 239.666 991.714 241.347C991.561 241.5 991.561 241.653 991.408 241.653L995.997 248.378L988.349 256.631L975.194 259.382C975.194 259.382 970.147 250.059 970.147 248.225C970.147 246.391 972.288 238.443 972.288 238.443L983.301 231.718C982.536 230.954 981.619 230.343 980.854 229.731C978.559 228.356 976.418 228.05 974.736 228.814L974.583 228.967C974.43 228.967 973.665 229.426 973.512 229.579L962.805 235.692C964.181 240.43 971.217 264.578 971.523 265.801Z" fill="#16110D"/>
<path d="M999.974 240.43C997.221 238.749 994.773 238.596 992.938 239.207L992.785 239.36C992.479 239.513 992.173 239.666 991.867 239.971L981.313 246.085L975.807 263.967L981.313 284.294C981.466 284.753 982.078 285.058 982.384 284.753L993.091 278.639C993.244 278.639 993.397 278.486 993.55 278.486L1006.55 268.705C1009 266.871 1010.22 263.508 1010.22 259.076C1010.07 252.046 1005.48 243.792 999.974 240.43Z" fill="white"/>
<path d="M980.7 245.474L991.407 239.207C991.713 239.055 992.019 238.749 992.478 238.596L993.09 238.29L993.243 238.443C995.384 237.832 997.985 238.29 1000.43 239.819C1006.24 243.334 1010.99 251.893 1010.99 258.923C1010.99 263.508 1009.61 267.176 1007.01 269.163L994.008 278.945C993.855 279.098 993.702 279.098 993.396 279.251L982.842 285.364C982.689 285.517 982.383 285.517 982.23 285.517L982.077 285.67C981.924 285.67 981.618 285.67 981.465 285.517C981.006 285.364 980.7 284.906 980.547 284.447L975.041 263.967L980.7 245.474ZM999.514 241.194C997.22 239.819 994.925 239.36 993.09 240.124H992.937C992.631 240.277 992.325 240.43 992.172 240.583L981.771 246.544L976.418 263.814L980.547 279.098L986.513 274.054L994.772 255.102L1006.09 248.378C1004.41 245.321 1002.11 242.723 999.514 241.194Z" fill="#16110D"/>
<path d="M994.62 275.124C997.067 273.29 998.291 269.927 998.291 265.495C998.291 258.618 993.702 250.364 988.043 247.002C983.913 244.557 980.395 245.321 979.018 247.46C978.713 247.766 978.101 247.46 977.948 246.849C976.571 243.334 973.053 237.985 969.076 235.539C963.417 232.177 958.828 234.928 958.828 241.653C958.828 245.932 960.205 250.976 962.499 255.714L975.347 281.085C977.03 284.294 979.936 285.975 981.466 284.753L994.62 275.124Z" fill="#AEC6F7"/>
<path d="M986.819 279.709C988.808 278.181 990.031 275.277 990.031 271.456C990.031 265.648 986.055 258.465 981.313 255.561C977.795 253.421 974.736 254.032 973.665 255.866C973.512 256.172 972.9 255.866 972.747 255.408C971.524 252.351 968.617 247.919 965.099 245.779C960.205 242.875 956.381 245.168 956.381 251.129C956.381 254.797 957.452 259.076 959.593 263.203L970.606 284.905C971.982 287.657 974.43 289.185 975.806 288.115L986.819 279.709Z" fill="white"/>
<path d="M980.396 286.128C980.09 286.128 979.784 286.128 979.631 285.975C977.795 285.517 976.113 283.836 974.889 281.543L962.041 256.172C959.593 251.434 958.217 246.238 958.217 241.806C958.217 238.29 959.44 235.539 961.582 234.164C963.723 232.788 966.629 233.094 969.536 234.928C973.513 237.373 977.183 242.57 978.713 246.543C978.713 246.543 978.713 246.543 978.713 246.696C980.396 244.557 984.22 243.792 988.502 246.391C994.315 249.906 999.056 258.465 999.056 265.495C999.056 270.08 997.68 273.748 995.079 275.735L982.078 285.517C981.619 285.975 981.007 286.128 980.396 286.128ZM964.488 234.928C963.57 234.928 962.806 235.081 962.194 235.539C960.511 236.609 959.593 238.749 959.593 241.806C959.593 246.085 960.817 250.823 963.264 255.408L976.113 280.779C977.031 282.613 978.56 284.141 979.937 284.447C980.396 284.6 980.854 284.447 981.16 284.294L994.162 274.513C996.303 272.831 997.527 269.622 997.527 265.648C997.527 259.076 993.091 251.129 987.738 247.919C984.067 245.626 980.854 246.391 979.784 248.072C979.478 248.378 979.172 248.683 978.713 248.53C978.101 248.53 977.642 247.919 977.336 247.308C975.96 243.64 972.442 238.749 968.771 236.456C967.241 235.386 965.712 234.928 964.488 234.928Z" fill="#16110D"/>
<path d="M936.19 295.604V278.486H925.024C914.776 273.901 900.245 273.901 889.844 278.486H878.678V296.062C878.678 300.342 881.431 304.468 887.09 307.831C898.256 314.25 916.458 314.25 927.777 307.831C933.589 304.316 936.343 299.883 936.19 295.604Z" fill="#AEC6F7"/>
<path d="M907.433 313.486C899.939 313.486 892.444 311.805 886.631 308.595C880.972 305.233 877.76 300.8 877.76 296.062V277.569H889.69C900.244 272.984 914.775 272.984 925.176 277.569H937.107V295.604C937.26 300.495 934.201 305.233 928.236 308.595C922.576 311.805 914.928 313.486 907.433 313.486ZM879.748 279.403V295.91C879.748 300.036 882.501 303.857 887.702 306.761C898.562 313.027 916.458 313.027 927.318 306.761C932.671 303.704 935.425 299.731 935.272 295.451V279.25H924.871L924.718 279.098C914.622 274.512 900.397 274.512 890.302 279.098L890.149 279.25H879.748V279.403Z" fill="#16110D"/>
<path d="M937.873 276.346V262.897H926.095C915.082 258.006 899.787 258.006 888.774 262.897H876.996V276.805C876.996 281.237 879.902 285.822 885.868 289.185C897.798 296.062 917.071 296.062 929.002 289.185C935.12 285.67 938.179 280.932 937.873 276.346Z" fill="#AEC6F7"/>
<path d="M907.434 295.298C899.481 295.298 891.527 293.617 885.409 290.102C879.29 286.587 876.078 281.849 876.078 276.805V261.98H888.621C899.786 257.089 915.235 257.089 926.248 261.98H938.791V276.347C939.096 281.543 935.731 286.434 929.46 290.102C923.342 293.464 915.388 295.298 907.434 295.298ZM877.914 263.814V276.805C877.914 281.084 880.973 285.211 886.326 288.421C897.951 295.145 916.765 295.145 928.389 288.421C934.049 285.211 936.955 280.932 936.802 276.347V263.814H925.789L925.636 263.661C914.929 258.923 899.939 258.77 889.079 263.661L888.927 263.814H877.914Z" fill="#16110D"/>
<path d="M929.002 250.976C940.933 257.853 940.933 269.01 929.002 275.888C917.071 282.766 897.799 282.766 885.868 275.888C873.937 269.01 873.937 257.853 885.868 250.976C897.799 244.098 917.071 244.098 929.002 250.976Z" fill="#AEC6F7"/>
<path d="M928.696 255.408C916.766 248.53 897.493 248.53 885.562 255.408C880.515 258.312 877.761 261.98 876.844 265.648C877.609 269.469 880.515 272.984 885.562 275.888C897.493 282.766 916.766 282.766 928.696 275.888C933.744 272.984 936.497 269.316 937.415 265.648C936.65 261.827 933.744 258.312 928.696 255.408Z" fill="white"/>
<path d="M907.434 281.849C899.481 281.849 891.527 280.167 885.409 276.652C879.29 273.137 876.078 268.399 876.078 263.355C876.078 258.312 879.443 253.574 885.409 250.059C897.492 243.028 917.377 243.028 929.46 250.059C935.578 253.574 938.791 258.312 938.791 263.355C938.791 268.399 935.425 273.137 929.46 276.652C923.342 280.167 915.388 281.849 907.434 281.849ZM907.434 246.849C899.786 246.849 892.139 248.53 886.326 251.893C880.82 255.102 877.914 259.229 877.914 263.508C877.914 267.788 880.973 271.914 886.326 275.124C897.951 281.849 916.918 281.849 928.389 275.124C933.896 271.914 936.802 267.788 936.802 263.508C936.802 259.229 933.743 255.102 928.389 251.893C922.73 248.377 915.082 246.849 907.434 246.849Z" fill="#16110D"/>
<path d="M876.996 265.495V276.652C876.996 280.32 878.985 283.836 882.656 286.892V273.443L883.573 270.386L877.149 265.342L876.996 265.495Z" fill="#AEC6F7"/>
<path d="M883.726 289.032L882.196 287.809C878.22 284.6 876.078 280.779 876.078 276.805V264.884L877.455 264.578L884.797 270.386L883.726 273.901V289.032V289.032ZM877.914 267.176V276.652C877.914 279.556 879.29 282.307 881.738 284.753V273.137L882.502 270.844L877.914 267.176Z" fill="#16110D"/>
<path d="M935.119 270.386L895.044 247.307C891.679 248.225 888.467 249.447 885.561 250.976C884.643 251.434 883.878 252.045 883.113 252.504L925.941 277.111C926.859 276.652 927.777 276.194 928.542 275.735C931.601 274.207 933.742 272.373 935.119 270.386Z" fill="#AEC6F7"/>
<path d="M926.095 278.333L881.584 252.657L882.808 251.74C883.572 251.128 884.49 250.517 885.255 250.059C888.008 248.377 891.22 247.155 894.891 246.238L895.197 246.085L895.503 246.238L936.496 269.927L935.884 270.844C934.201 272.984 932.06 274.818 929.154 276.499C928.389 276.958 927.471 277.416 926.4 277.875L926.095 278.333ZM885.102 252.504L926.247 276.194C927.012 275.888 927.777 275.429 928.389 275.124C930.53 273.901 932.366 272.373 933.742 270.844L895.044 248.53C891.679 249.447 888.773 250.517 886.173 252.045C885.714 252.045 885.408 252.351 885.102 252.504Z" fill="#16110D"/>
<path d="M877.454 265.342L877.301 265.495C877.913 268.399 879.748 271.15 882.807 273.595L925.023 248.989C920.741 247.308 915.846 246.238 910.798 245.932L877.454 265.342Z" fill="#AEC6F7"/>
<path d="M882.655 274.665L882.196 274.207C879.137 271.761 876.995 268.705 876.383 265.648L876.23 265.189L876.995 264.578L910.493 244.862H910.799C915.999 245.168 921.047 246.238 925.33 247.919L926.553 248.989L882.655 274.665ZM878.372 265.954C878.984 268.246 880.513 270.539 882.808 272.373L922.576 249.142C918.906 247.919 914.929 247.155 910.799 246.849L878.372 265.954Z" fill="#16110D"/>
<path d="M916.459 293.464V311.652L925.789 308.748L934.355 302.176L936.343 296.827L936.19 283.224L932.214 287.045L924.566 291.783L916.459 293.464Z" fill="#16110D"/>
<path d="M912.176 280.626V294.076L919.212 293.006L929.001 289.185L935.119 284.6L937.567 279.403V275.888V266.871L935.425 270.692L931.295 274.665L924.565 278.333L915.388 280.473L912.176 280.626Z" fill="#16110D"/>
<path d="M935.578 281.696C934.201 284.141 931.907 286.434 928.542 288.268C925.33 290.102 921.659 291.477 917.682 292.242V294.228C921.964 293.311 926.094 291.936 929.459 289.949C931.907 288.573 934.201 286.587 935.731 284.753L935.578 281.696Z" fill="#AEC6F7"/>
<path d="M926.707 290.713H924.719V278.181L926.707 277.111V290.713Z" fill="#AEC6F7"/>
<path d="M935.732 284.6L933.896 284.905V272.067L935.732 270.997V284.6Z" fill="#AEC6F7"/>
<path d="M1165.17 312.569L1084.71 266.106L1161.34 221.937L1241.8 268.552L1165.17 312.569Z" fill="#AEC6F7"/>
<path d="M1084.71 266.106V344.665L1165.17 391.28V312.569L1084.71 266.106Z" fill="#AEC6F7"/>
<path d="M1165.17 322.35L1084.71 275.888L1161.34 231.718L1241.8 278.181L1165.17 322.35Z" fill="white"/>
<path d="M1161.65 221.172L1161.19 220.867L1083.79 265.495V345.123L1165.02 392.197L1241.95 347.874L1242.41 347.568V267.941L1161.65 221.172ZM1164.4 389.751L1085.63 344.206V267.482L1144.98 301.565L1164.4 313.027V389.751ZM1086.4 266.107L1161.34 222.854L1240.12 268.399L1165.17 311.652L1086.4 266.107Z" fill="#16110D"/>
<path d="M1204.17 289.796L1124.02 243.028L1125.25 241.805L1205.7 288.726L1204.17 289.796Z" fill="#16110D"/>
<path d="M1205.55 368.354L1203.87 369.271V289.643L1205.55 288.726V368.354Z" fill="#AEC6F7"/>
<path d="M1157.98 281.696L1142.68 290.408L1160.73 300.801L1176.03 292.089L1157.98 281.696ZM1160.58 296.521L1150.33 290.713L1158.13 286.281L1168.38 292.089L1160.58 296.521Z" fill="#AEC6F7"/>
<path d="M1160.58 297.438L1148.8 290.56L1158.13 285.211L1169.91 292.089L1160.58 297.438ZM1152.01 290.56L1160.58 295.451L1166.7 291.936L1158.13 287.045L1152.01 290.56Z" fill="#16110D"/>
<path d="M1160.89 301.87L1141.15 290.408L1157.98 280.626L1177.71 291.936L1160.89 301.87ZM1144.37 290.408L1160.89 299.884L1174.5 292.089L1157.98 282.613L1144.37 290.408Z" fill="#16110D"/>
<path d="M1124.79 367.437H1123.11V289.032L1123.56 288.879L1201.27 244.862L1202.03 246.238L1124.79 289.949V367.437Z" fill="#16110D"/>
<path d="M1222.68 252.81C1220.85 246.696 1217.48 242.875 1212.59 241.653C1198.36 237.832 1175.72 255.714 1167.62 262.591C1168.69 259.076 1169.76 252.657 1168.53 241.958C1167.31 230.496 1157.52 221.937 1148.8 220.408C1141.92 219.186 1136.41 222.09 1133.51 228.203C1126.32 243.028 1157.37 262.133 1163.79 265.954C1161.8 268.858 1159.51 268.552 1156.45 268.246C1154.16 267.941 1151.56 267.635 1149.11 269.163C1143.75 272.373 1142.07 278.639 1141.92 278.945L1143.45 279.403C1143.45 279.403 1145.13 273.596 1149.87 270.692C1151.86 269.469 1153.85 269.775 1156.14 270.08C1159.2 270.386 1162.57 270.844 1165.02 267.024L1165.32 267.176L1165.47 267.024H1165.63C1166.24 267.176 1167.16 267.329 1168.38 267.635C1170.52 268.399 1172.82 269.927 1173.58 273.137C1174.35 276.652 1176.49 279.25 1179.55 280.779C1180.92 281.39 1182.45 281.849 1183.98 281.849C1185.67 281.849 1187.5 281.39 1189.03 280.626L1188.27 279.098C1185.67 280.473 1182.76 280.473 1180.16 279.25C1177.56 278.028 1175.88 275.735 1175.11 272.831C1174.65 270.997 1173.89 269.622 1172.82 268.552C1179.7 269.927 1189.79 271.456 1199.28 271.456C1208.15 271.456 1216.26 270.08 1220.54 265.648C1223.6 262.286 1224.21 258.006 1222.68 252.81ZM1134.88 228.814C1137.02 224.229 1141 221.784 1145.9 221.784C1146.81 221.784 1147.58 221.937 1148.5 222.09C1156.6 223.465 1165.63 231.413 1166.85 242.111C1168.38 256.478 1165.93 262.897 1164.86 264.731C1159.82 261.674 1128.31 242.57 1134.88 228.814ZM1219.47 264.272C1210.44 273.748 1178.93 267.941 1168.69 265.648C1168.07 265.495 1167.46 265.342 1167 265.189C1172.82 260.146 1197.75 239.207 1212.13 243.181C1216.41 244.404 1219.47 247.766 1221.15 253.268C1222.53 258.006 1221.92 261.521 1219.47 264.272Z" fill="#16110D"/>
<path d="M1136.41 331.521V311.194L1107.66 294.534V314.862C1107.66 314.862 1108.12 325.102 1103.68 327.547C1099.4 329.992 1099.4 329.992 1099.4 329.992L1128.15 346.652C1128.15 346.652 1128.15 346.652 1132.44 344.206C1136.87 341.761 1136.41 331.521 1136.41 331.521Z" fill="#AEC6F7"/>
<path d="M1140.08 337.787V317.46L1111.33 300.801V321.128C1111.33 321.128 1111.79 331.368 1107.35 333.813C1102.92 336.259 1103.07 336.259 1103.07 336.259L1131.82 352.918C1131.82 352.918 1131.82 352.918 1136.11 350.473C1140.39 348.027 1140.08 337.787 1140.08 337.787Z" fill="white"/>
<path d="M1128.15 347.416L1097.87 329.84L1103.37 326.783C1106.59 324.949 1107.04 317.613 1106.89 314.862V293.159L1137.18 310.735V331.521C1137.18 332.132 1137.48 342.219 1132.89 344.818L1128.15 347.416ZM1100.93 329.992L1128.15 345.735L1132.13 343.595C1135.34 341.761 1135.8 334.425 1135.65 331.674V311.805L1108.42 296.063V314.862C1108.42 315.32 1108.73 325.56 1104.14 328.158L1100.93 329.992Z" fill="#16110D"/>
<path d="M1113.62 318.53C1113.47 312.875 1120.35 315.779 1122.19 321.586C1124.02 317.918 1131.06 322.198 1130.75 328.464C1130.6 332.896 1122.95 336.411 1122.19 336.717C1121.42 335.189 1113.77 323.115 1113.62 318.53Z" fill="#AEC6F7"/>
<path d="M1121.58 332.591H1121.42H1121.12L1120.81 332.132C1119.43 329.992 1112.4 318.53 1112.25 313.792C1112.09 310.735 1113.93 310.124 1114.69 309.971C1116.99 309.512 1120.2 311.805 1121.88 315.32C1122.65 314.709 1123.72 314.556 1124.94 314.861C1128 315.626 1131.21 319.447 1131.06 323.726C1130.91 328.311 1124.02 331.826 1122.19 332.591L1122.03 332.743L1121.58 332.591ZM1113.62 313.639C1113.77 317.154 1118.67 325.866 1121.73 330.909C1124.79 329.534 1129.22 326.63 1129.22 323.573C1129.38 319.752 1126.47 316.848 1124.33 316.237C1123.26 315.931 1122.49 316.237 1122.03 317.154L1121.12 318.835L1120.51 317.001C1119.28 313.333 1116.07 311.193 1114.54 311.499C1113.77 311.499 1113.62 312.722 1113.62 313.639Z" fill="#16110D"/>
<path d="M956.842 327.394V362.088L1017.57 397.088V362.394L956.842 327.394Z" fill="#AEC6F7"/>
<path d="M1053.82 341.149L1017.57 362.394L956.842 327.394L993.246 306.15L1053.82 341.149Z" fill="#AEC6F7"/>
<path d="M1054.12 347.721L1017.87 368.966L957.146 333.966L993.55 312.722L1054.12 347.721Z" fill="white"/>
<path d="M993.245 305.233L956.076 326.936V362.547L1017.56 398.005L1054.73 376.302V340.691L993.245 305.233ZM1016.65 395.406L957.759 361.477V328.922L975.808 339.315L1016.65 362.852V395.406ZM977.337 338.093L958.676 327.241L993.245 307.067L1052.13 340.997L1017.56 361.171L977.337 338.093Z" fill="#16110D"/>
<path d="M1024.75 357.044L969.535 325.407L981.16 318.835L1036.07 350.32L1024.75 357.044Z" fill="#AEC6F7"/>
<path d="M1030.26 356.127L967.854 320.211L981.161 312.569L1043.57 348.486L1030.26 356.127ZM971.372 320.058L1030.26 353.988L1039.9 348.486L981.008 314.556L971.372 320.058Z" fill="#16110D"/>
<path d="M1028.43 372.328V355.058L1030.26 354.14V369.119L1039.9 363.464V348.486L1041.73 347.568V364.381L1028.43 372.328Z" fill="#AEC6F7"/>
<path d="M891.986 344.97V369.271L938.485 396.171V371.869L891.986 344.97Z" fill="#AEC6F7"/>
<path d="M973.513 351.389L938.485 371.87L891.986 344.97L927.014 324.49L973.513 351.389Z" fill="#AEC6F7"/>
<path d="M973.513 359.795L938.485 380.276L891.986 353.376L927.014 332.896L973.513 359.795Z" fill="white"/>
<path d="M927.013 323.42L891.068 344.359V369.883L938.638 397.24L974.583 376.302V350.931L927.013 323.42ZM937.567 394.489L892.904 368.66V346.499L937.567 372.328V394.489ZM893.975 344.97L927.013 325.56L971.677 351.389L938.638 370.647L893.975 344.97Z" fill="#16110D"/>
<path d="M938.485 396.171L938.791 409.467L894.434 383.944V370.647L938.485 396.171Z" fill="#AEC6F7"/>
<path d="M938.485 394.948L893.516 368.966V384.402L938.791 410.537L970.147 392.197V376.455L938.485 394.948ZM895.504 383.332V372.328L937.567 396.629L937.72 407.786L895.504 383.332Z" fill="#16110D"/>
<path d="M938.025 396.476V394.337L969.688 375.843V378.136L938.025 396.476Z" fill="#AEC6F7"/>
<path d="M951.64 363.158L906.518 337.176L907.435 335.494L953.475 362.088L951.64 363.158Z" fill="#16110D"/>
<path d="M950.262 403.965L948.121 405.188L951.639 386.695L951.486 363.158L953.475 362.088V386.847L950.262 403.965Z" fill="#AEC6F7"/>
<path d="M952.403 346.499C951.944 345.276 951.027 343.595 948.12 343.136C944.45 342.525 941.084 346.04 938.943 349.097C938.943 348.18 938.943 347.263 938.943 346.346C938.637 343.595 934.813 339.162 931.448 338.857C930.377 338.704 928.389 338.857 927.318 341.761C925.33 347.416 933.437 352.306 936.19 353.835L936.037 354.293L937.261 354.446L938.178 354.905L938.331 354.599C939.708 354.752 941.543 354.905 943.532 354.905C946.438 354.905 949.497 354.599 950.568 353.529C952.097 351.695 953.168 348.791 952.403 346.499ZM929.154 342.219C929.613 340.844 930.377 340.538 930.989 340.538C931.142 340.538 931.142 340.538 931.295 340.538C933.743 340.844 936.955 344.512 937.108 346.346C937.261 348.333 937.108 350.472 936.802 351.695C933.59 349.861 927.93 345.887 929.154 342.219ZM949.344 351.695C948.426 352.612 943.685 352.765 939.096 352.306C940.931 349.25 944.602 344.359 947.815 344.817C949.344 345.123 950.262 345.734 950.568 346.804C951.18 348.638 950.415 350.778 949.344 351.695Z" fill="#16110D"/>
<path d="M940.626 361.018C939.862 361.018 939.097 360.865 938.179 360.407C935.732 359.184 936.497 357.044 936.802 355.975C936.955 355.363 937.261 354.752 937.108 354.599C936.955 354.446 936.649 354.293 936.191 354.14C934.355 353.529 932.826 353.529 931.755 354.293C930.072 355.21 929.46 357.35 929.46 357.35L927.625 356.892C927.625 356.739 928.39 353.988 930.837 352.612C932.52 351.695 934.508 351.542 936.802 352.306C937.873 352.612 938.485 353.071 938.791 353.835C939.25 354.905 938.944 355.822 938.638 356.739C938.179 358.114 938.179 358.42 938.944 358.726C941.697 359.948 943.533 357.656 943.686 357.503L945.215 358.726C944.45 359.643 942.768 361.018 940.626 361.018Z" fill="#16110D"/>
<path d="M945.982 322.656C945.982 322.656 946.288 328.617 939.71 329.381C934.969 329.839 931.757 330.756 930.992 331.215C930.839 331.215 929.921 330.756 929.921 330.604L929.615 327.547C929.615 327.547 934.051 325.56 934.204 325.56C934.357 325.56 938.028 325.866 939.557 324.949C941.087 324.032 940.628 322.503 940.016 321.128C939.404 319.752 940.475 319.294 940.475 319.294L944.911 321.586L945.064 321.739C945.676 321.892 945.982 322.198 945.982 322.656Z" fill="#AEC6F7"/>
<path d="M931.145 331.979C930.839 331.979 930.686 331.826 930.533 331.826C930.228 331.673 929.463 331.368 929.31 330.756V330.604L929.004 326.936L929.463 326.63C934.051 324.49 934.204 324.49 934.51 324.49H934.663C937.875 324.643 939.099 324.184 939.405 323.879C940.17 323.42 940.476 322.809 939.558 321.128C939.099 320.364 939.252 319.752 939.405 319.294C939.711 318.53 940.476 318.224 940.476 318.224L940.782 318.071L945.829 320.669L945.982 320.822C946.441 321.281 946.747 321.892 946.747 322.35V322.503C946.747 322.503 947.053 329.228 939.864 329.992C935.122 330.451 932.063 331.368 931.298 331.673C931.298 331.826 931.145 331.979 931.145 331.979ZM930.839 330.145C930.992 330.145 930.992 330.298 931.145 330.298C932.216 329.839 935.275 329.075 939.864 328.617C945.217 328.005 945.37 323.42 945.37 322.809C945.37 322.503 945.217 322.198 944.911 322.045V321.892L941.088 319.905C941.088 320.058 941.088 320.211 941.24 320.364C941.699 321.128 942.923 323.726 940.476 325.254C939.405 325.866 937.417 326.171 934.816 326.019C934.357 326.171 932.675 326.936 930.839 327.7V330.145Z" fill="#16110D"/>
<path d="M945.829 322.045C943.535 317.918 933.898 326.63 932.369 330.298C931.91 331.215 930.686 331.521 929.768 331.062L928.086 330.298C928.086 330.298 929.157 319.447 936.957 317.613C942.77 316.237 945.829 322.045 945.829 322.045Z" fill="white"/>
<path d="M930.533 331.979C930.074 331.979 929.615 331.826 929.309 331.673L927.168 330.604V329.992C927.168 329.534 928.392 318.529 936.651 316.543C942.923 315.167 946.135 320.975 946.441 321.433L945.064 322.198C944.911 321.892 944.605 321.433 943.687 321.586C940.475 321.739 934.204 327.547 932.98 330.298C932.674 331.368 931.604 331.979 930.533 331.979ZM928.85 329.687L929.921 330.145C930.533 330.451 931.298 330.145 931.604 329.839C932.98 326.63 939.405 320.669 943.381 320.058C942.005 318.835 940.016 317.612 937.11 318.224C930.992 319.752 929.309 327.547 928.85 329.687Z" fill="#16110D"/>
<path d="M912.024 322.198C912.024 322.198 911.718 328.464 917.836 329.228C922.425 329.839 925.331 330.756 926.096 331.062C926.249 331.062 927.014 330.604 927.167 330.451L927.473 327.241C927.473 327.241 923.802 325.866 923.649 325.866C923.496 325.866 919.519 325.407 917.989 324.337C916.46 323.267 916.919 321.739 917.53 320.363C918.142 318.988 917.072 318.529 917.072 318.529L912.942 320.822L912.789 320.975C912.33 321.28 912.024 321.739 912.024 322.198Z" fill="#AEC6F7"/>
<path d="M926.096 331.826C925.943 331.826 925.943 331.826 925.79 331.826C925.178 331.521 922.272 330.604 917.836 329.992C912.483 329.381 911.106 324.643 911.259 322.198V322.045C911.412 321.433 911.565 320.822 912.024 320.363L912.483 319.905L917.072 317.307L917.378 317.46C917.378 317.46 918.142 317.765 918.448 318.529C918.601 318.988 918.754 319.599 918.295 320.363C917.53 322.198 917.683 322.962 918.448 323.42C919.672 324.184 923.19 324.796 923.649 324.796C923.802 324.796 923.955 324.796 927.779 326.171L928.39 326.324L928.085 330.451C927.932 331.062 926.861 331.521 926.861 331.521C926.555 331.826 926.402 331.826 926.096 331.826ZM912.789 322.35C912.789 322.962 912.789 327.852 917.989 328.464C922.272 328.922 925.025 329.839 926.096 330.298L926.249 330.145L926.402 327.7C924.872 327.241 923.496 326.63 923.19 326.63C923.037 326.63 918.907 326.171 917.225 324.949C914.93 323.42 916.154 320.822 916.46 319.905C916.613 319.752 916.613 319.446 916.613 319.294L912.942 321.281C912.942 321.739 912.942 322.045 912.789 322.35Z" fill="#16110D"/>
<path d="M912.178 321.586C914.319 317.307 923.497 326.324 924.873 330.145C925.332 331.062 926.403 331.368 927.32 330.909L928.85 330.145C928.85 330.145 927.779 318.682 920.437 316.848C915.084 315.473 912.178 321.586 912.178 321.586Z" fill="white"/>
<path d="M926.555 331.979C926.249 331.979 925.943 331.979 925.637 331.826C925.025 331.521 924.413 331.062 924.108 330.451C923.037 327.394 917.072 321.281 914.012 321.128C913.401 321.128 913.095 321.281 912.789 321.892L911.412 321.128C912.483 318.835 915.848 314.709 920.743 315.931C928.543 317.918 929.767 329.534 929.767 329.992V330.604L927.779 331.673C927.473 331.826 927.014 331.979 926.555 331.979ZM914.471 319.599C918.448 320.058 924.566 326.783 925.637 329.839C925.79 329.992 925.943 330.145 926.096 330.298C926.402 330.451 926.708 330.451 927.014 330.298L928.084 329.687C927.779 327.547 926.249 319.141 920.284 317.612C917.683 317.001 915.695 318.224 914.471 319.599Z" fill="#16110D"/>
<path d="M931.449 330.451C931.449 330.298 931.449 330.145 931.449 329.992C931.449 329.381 930.99 327.853 929.154 327.853C927.319 327.853 926.86 329.075 926.707 329.687C926.707 329.839 926.707 330.145 926.707 330.298C926.86 330.909 927.472 331.368 928.237 331.368H929.919C930.531 331.521 931.296 331.062 931.449 330.451Z" fill="#15100C"/>
<path d="M929.92 332.285H928.237C927.166 332.285 926.249 331.673 925.943 330.604C925.79 330.145 925.79 329.839 925.943 329.534C926.249 328.005 927.472 327.088 929.155 327.088C931.296 327.088 932.214 328.617 932.214 329.839C932.214 330.145 932.214 330.298 932.214 330.604C931.908 331.673 930.99 332.285 929.92 332.285ZM929.002 328.77C928.084 328.77 927.472 329.228 927.319 329.992V330.145C927.472 330.451 927.778 330.756 928.084 330.756H929.767C930.073 330.756 930.379 330.604 930.532 330.298V330.145C930.532 328.77 929.461 328.77 929.002 328.77C929.155 328.77 929.155 328.77 929.002 328.77Z" fill="#16110D"/>
</g>
<path d="M1161.02 39.0426C1162.14 39.0426 1163.04 38.1376 1163.04 37.0213C1163.04 35.905 1162.14 35 1161.02 35C1159.9 35 1159 35.905 1159 37.0213C1159 38.1376 1159.9 39.0426 1161.02 39.0426Z" fill="#F2F2F2" stroke="#111111" stroke-width="0.5" stroke-miterlimit="10"/>
<path d="M843.021 111.043C844.138 111.043 845.043 110.138 845.043 109.021C845.043 107.905 844.138 107 843.021 107C841.905 107 841 107.905 841 109.021C841 110.138 841.905 111.043 843.021 111.043Z" fill="#F2F2F2" stroke="#111111" stroke-width="0.5" stroke-miterlimit="10"/>
<path d="M1102.02 415.043C1103.14 415.043 1104.04 414.138 1104.04 413.021C1104.04 411.905 1103.14 411 1102.02 411C1100.9 411 1100 411.905 1100 413.021C1100 414.138 1100.9 415.043 1102.02 415.043Z" fill="#F2F2F2" stroke="#111111" stroke-width="0.5" stroke-miterlimit="10"/>
<path d="M1178.04 112.388V109.283L1175.9 107.331L1177.44 106L1178.94 107.42L1180.62 106L1182.19 107.39L1180.2 109.194V112.388L1182.64 110.791L1183.18 107.952L1185.32 108.543L1184.86 110.969L1186.82 111.353L1186.4 113.423L1183.45 112.595L1180.98 114.044L1183.57 115.553L1186.49 114.784L1187 116.736L1184.83 117.357L1185.35 119.486L1183.42 119.9L1182.64 117.12L1179.96 115.76L1179.93 118.569L1182.01 120.699L1180.65 122L1178.97 120.433L1177.44 122L1175.9 120.492L1177.95 118.658L1177.92 115.553L1175.33 117.15L1174.67 119.93L1172.59 119.397L1173.26 117.15L1171 116.677L1171.54 114.725L1174.4 115.434L1176.89 113.985L1174.4 112.506L1171.69 113.275L1171.15 111.294L1173.29 110.732L1172.74 108.543L1174.82 108.159L1175.6 110.88L1178.04 112.388Z" fill="#F2F2F2" stroke="#111111" stroke-width="0.5" stroke-miterlimit="10"/>
<path d="M758.158 171.59V168.872L756.289 167.165L757.632 166L758.947 167.242L760.421 166L761.789 167.216L760.053 168.795V171.59L762.184 170.192L762.658 167.708L764.526 168.226L764.132 170.348L765.842 170.684L765.474 172.495L762.895 171.771L760.737 173.039L763 174.359L765.553 173.686L766 175.394L764.105 175.937L764.553 177.8L762.868 178.163L762.184 175.73L759.842 174.54L759.816 176.998L761.632 178.861L760.447 180L758.974 178.628L757.632 180L756.289 178.68L758.079 177.076L758.053 174.359L755.789 175.756L755.211 178.189L753.395 177.723L753.974 175.756L752 175.342L752.474 173.634L754.974 174.255L757.158 172.987L754.974 171.693L752.605 172.366L752.132 170.632L754 170.14L753.526 168.226L755.342 167.889L756.026 170.27L758.158 171.59Z" fill="#F2F2F2" stroke="#111111" stroke-width="0.5" stroke-miterlimit="10"/>
<path d="M589.021 168.043C590.138 168.043 591.043 167.138 591.043 166.021C591.043 164.905 590.138 164 589.021 164C587.905 164 587 164.905 587 166.021C587 167.138 587.905 168.043 589.021 168.043Z" fill="#F2F2F2" stroke="#111111" stroke-width="0.5" stroke-miterlimit="10"/>
<path d="M1278.02 398.043C1279.14 398.043 1280.04 397.138 1280.04 396.021C1280.04 394.905 1279.14 394 1278.02 394C1276.9 394 1276 394.905 1276 396.021C1276 397.138 1276.9 398.043 1278.02 398.043Z" fill="#F2F2F2" stroke="#111111" stroke-width="0.5" stroke-miterlimit="10"/>
<path d="M400.021 53.0426C401.138 53.0426 402.043 52.1376 402.043 51.0213C402.043 49.905 401.138 49 400.021 49C398.905 49 398 49.905 398 51.0213C398 52.1376 398.905 53.0426 400.021 53.0426Z" fill="#F2F2F2" stroke="#111111" stroke-width="0.5" stroke-miterlimit="10"/>
<path d="M237.021 413.043C238.138 413.043 239.043 412.138 239.043 411.021C239.043 409.905 238.138 409 237.021 409C235.905 409 235 409.905 235 411.021C235 412.138 235.905 413.043 237.021 413.043Z" fill="#F2F2F2" stroke="#111111" stroke-width="0.5" stroke-miterlimit="10"/>
<path d="M1278.02 138.043C1279.14 138.043 1280.04 137.138 1280.04 136.021C1280.04 134.905 1279.14 134 1278.02 134C1276.9 134 1276 134.905 1276 136.021C1276 137.138 1276.9 138.043 1278.02 138.043Z" fill="#F2F2F2" stroke="#111111" stroke-width="0.5" stroke-miterlimit="10"/>
<path d="M690.852 362.943C690.852 362.943 688.252 370.743 686.652 374.143C685.152 377.643 677.052 377.943 679.152 367.043C679.952 362.943 680.852 359.743 681.752 357.443C682.952 354.243 686.252 352.443 689.552 353.043L690.752 359.043V362.943H690.852Z" fill="#F4B13E"/>
<path d="M683.152 377.243C682.652 377.243 682.152 377.143 681.752 377.043C680.552 376.643 676.852 374.843 678.352 366.943C679.052 363.343 679.952 360.043 681.052 357.243C682.452 353.643 686.152 351.543 689.952 352.243L690.552 352.343L691.852 359.143V363.243C691.752 363.543 689.152 371.043 687.652 374.543C686.752 376.143 684.952 377.243 683.152 377.243Z" fill="black" stroke="#161515" stroke-miterlimit="10"/>
<path d="M681.952 357.543C683.152 354.443 686.352 352.543 689.652 353.143C689.752 353.143 689.752 353.243 689.752 353.243L690.452 357.043C690.452 357.143 690.452 357.243 690.352 357.243C688.952 357.443 684.852 358.243 680.852 361.243C680.752 361.343 680.552 361.243 680.652 361.043C681.252 359.743 681.652 358.543 681.952 357.543Z" fill="#110333"/>
<path d="M680.952 362.143C680.752 362.143 680.552 362.043 680.352 361.943C679.952 361.643 679.852 361.243 679.952 360.843C680.352 359.543 680.752 358.343 681.152 357.243C682.452 353.743 686.152 351.643 689.852 352.243C690.252 352.343 690.652 352.643 690.752 353.043L691.552 357.243L691.352 357.643C691.152 357.843 690.952 358.043 690.652 358.043C689.552 358.243 685.452 358.943 681.552 361.843C681.352 362.043 681.152 362.143 680.952 362.143ZM682.852 357.843C682.652 358.243 682.552 358.743 682.352 359.243C685.252 357.543 688.052 356.743 689.552 356.443L689.052 353.943C686.352 353.743 683.852 355.243 682.852 357.843Z" fill="#110333"/>
<path d="M685.852 370.043C685.352 370.043 684.752 369.943 684.052 369.743C683.252 369.443 682.652 368.943 682.352 368.143C681.252 365.443 683.352 360.243 685.352 356.343C685.852 355.443 686.452 354.643 687.252 354.043C689.152 352.543 693.952 348.843 697.352 345.143C698.152 344.243 699.052 343.143 699.852 342.043C703.052 337.943 706.652 333.343 713.252 332.143C713.852 330.843 714.352 327.143 714.452 324.743V324.443L719.452 318.543L730.752 319.843V320.643C730.752 321.043 730.652 329.843 727.952 336.043C725.152 342.443 720.052 344.443 719.852 344.543C719.652 344.643 698.052 353.143 693.752 359.743C692.452 361.743 691.552 363.543 690.752 365.043C689.252 367.943 688.252 370.043 685.852 370.043Z" fill="white" stroke="#161515" stroke-miterlimit="10"/>
<path d="M746.651 376.843C746.651 376.843 753.851 382.243 756.251 387.143C758.651 392.143 753.651 393.043 748.251 389.143C742.851 385.243 740.151 386.743 737.751 383.243C735.351 379.743 739.351 373.143 739.351 373.143L746.651 376.843Z" fill="#F4B13E"/>
<path d="M754.351 392.443C752.451 392.443 750.151 391.543 747.751 389.843C745.351 388.143 743.551 387.543 741.951 386.943C740.051 386.343 738.451 385.743 737.051 383.643C734.451 379.743 738.451 372.843 738.651 372.543L739.051 371.843L747.251 376.043C747.551 376.243 754.751 381.643 757.151 386.643C758.551 389.543 757.551 390.943 756.851 391.543C756.151 392.243 755.351 392.443 754.351 392.443Z" fill="#110333"/>
<path d="M741.751 385.843C741.851 385.843 741.751 385.943 741.651 385.943C740.051 385.443 738.851 384.843 737.751 383.143C735.551 379.843 738.951 373.643 739.351 373.043C739.351 373.043 739.351 373.043 739.451 373.043L740.851 373.743L742.051 377.443L740.751 380.043C740.751 380.243 739.051 383.843 741.751 385.843Z" fill="#110333"/>
<path d="M742.151 387.043L741.351 386.843C739.751 386.243 738.251 385.643 736.951 383.743C734.451 380.043 737.751 373.843 738.451 372.643L738.851 371.843L739.651 372.243L741.451 373.143L742.851 377.543L742.751 377.943L741.451 380.543C741.451 380.643 740.051 383.543 742.151 385.143L742.751 385.643L742.151 387.043ZM739.751 374.343C738.851 376.043 736.951 380.443 738.551 382.743C738.851 383.143 739.151 383.543 739.451 383.843C739.151 382.343 739.551 380.743 739.951 379.843L741.051 377.543L740.051 374.543L739.751 374.343Z" fill="#110333"/>
<path d="M747.852 334.043C747.852 334.043 746.952 343.243 746.052 353.043C745.452 360.043 745.552 367.143 745.852 371.843C745.952 373.743 746.652 377.743 747.752 379.143C749.052 380.743 750.552 382.943 750.052 383.743C749.352 384.943 744.452 382.943 740.852 380.243C740.052 379.643 739.452 378.843 739.052 377.943C738.552 376.843 738.352 375.643 738.452 374.343C738.752 370.743 738.152 361.343 735.952 353.243C732.952 342.443 733.252 334.243 735.752 330.443C738.052 326.543 747.852 334.043 747.852 334.043Z" fill="white"/>
<path d="M749.052 384.943C746.852 384.943 742.852 382.943 740.152 380.943C739.252 380.243 738.552 379.343 738.052 378.343C737.452 377.143 737.252 375.743 737.352 374.343C737.652 371.143 737.152 361.743 734.852 353.543C731.952 343.243 731.952 334.443 734.752 330.043C735.252 329.243 736.052 328.743 736.952 328.643C740.852 327.943 747.552 332.943 748.352 333.543L748.752 333.843L748.652 334.343C748.652 334.443 747.752 343.643 746.852 353.343C746.352 358.643 746.252 364.743 746.652 372.043C746.752 374.043 747.452 377.743 748.352 378.843C751.252 382.543 751.152 383.743 750.652 384.443C750.452 384.743 750.152 385.043 749.452 385.143C749.452 384.943 749.252 384.943 749.052 384.943Z" fill="white" stroke="#161515" stroke-miterlimit="10"/>
<path d="M711.153 327.743H704.153C704.153 327.743 698.953 323.343 700.853 315.443C702.753 307.543 714.253 320.843 714.253 320.843L711.153 327.743Z" fill="#F4B13E"/>
<path d="M711.752 328.643H703.752L703.452 328.443C703.252 328.243 697.752 323.643 699.852 315.243C700.352 313.043 701.552 312.343 702.452 312.143C706.752 311.143 713.952 319.343 714.752 320.243L715.152 320.643L711.752 328.643Z" fill="#111111" stroke="#161515" stroke-miterlimit="10"/>
<path d="M703.252 320.243L730.052 311.343L751.552 315.043L759.552 322.343" fill="#AEC6F7"/>
<path d="M703.252 320.243L730.052 311.343L751.552 315.043L759.552 322.343" stroke="#161515" stroke-miterlimit="10"/>
<path d="M704.852 320.643C727.752 345.643 756.252 333.443 760.752 331.343L758.852 322.943L751.252 315.943L730.152 312.243L704.852 320.643Z" fill="#16110D" stroke="#161515" stroke-miterlimit="10"/>
<path d="M707.852 322.543C707.852 322.543 713.552 326.143 723.752 322.543C733.952 318.943 712.652 312.943 712.652 312.943L704.152 314.343V319.743L707.852 322.543Z" fill="white"/>
<path d="M715.052 325.043C710.152 325.043 707.552 323.443 707.352 323.343H707.252L703.152 320.243V313.643L712.652 312.043L712.852 312.143C716.252 313.143 727.352 316.543 727.452 320.343C727.552 322.343 724.952 323.243 724.052 323.543C720.552 324.643 717.552 325.043 715.052 325.043Z" fill="#111111" stroke="#161515" stroke-miterlimit="10"/>
<path d="M747.953 263.843C747.953 263.843 750.153 272.543 750.453 277.943C750.453 278.043 750.553 278.143 750.653 278.043C751.653 277.843 756.653 276.843 762.053 278.543C766.353 279.843 773.753 279.543 773.753 279.543C773.753 279.543 776.253 277.143 777.453 276.943C778.553 276.743 778.953 278.443 777.553 280.043C777.453 280.143 777.553 280.343 777.753 280.343L782.453 279.643C783.253 279.543 783.953 279.943 784.353 280.643C784.653 281.343 784.553 282.043 784.053 282.643C782.553 284.243 779.253 286.943 775.053 285.343L772.253 284.943C772.253 284.943 760.153 285.543 749.553 285.843C748.253 285.843 746.953 285.743 745.753 285.343C745.053 285.143 744.453 284.543 744.253 283.843C743.353 281.143 741.153 274.143 739.553 268.043C737.453 260.143 744.753 261.643 744.753 261.643L747.953 263.843Z" fill="white"/>
<path d="M749.253 286.743C747.953 286.743 746.653 286.543 745.453 286.143C744.453 285.843 743.653 285.043 743.353 284.043C742.453 281.343 740.253 274.343 738.653 268.143C737.953 265.443 738.253 263.343 739.453 262.043C741.353 260.043 744.853 260.743 744.953 260.743L745.253 260.843L748.753 263.243L748.853 263.543C748.953 263.843 750.853 271.543 751.253 276.943C753.153 276.643 757.553 276.243 762.253 277.643C765.853 278.743 771.853 278.643 773.253 278.643C774.053 277.843 775.953 276.243 777.153 276.043C777.853 275.943 778.553 276.243 778.853 276.843C779.253 277.543 779.253 278.343 778.853 279.243L782.153 278.743C783.353 278.543 784.453 279.143 784.953 280.243C785.453 281.243 785.253 282.443 784.453 283.243C783.053 284.743 779.353 287.943 774.553 286.243L771.953 285.843C770.853 285.943 759.353 286.443 749.253 286.743C749.453 286.743 749.353 286.743 749.253 286.743Z" fill="white" stroke="#161515" stroke-miterlimit="10"/>
<path d="M743.752 237.843C744.052 237.543 744.652 237.843 744.652 238.243C744.552 240.243 744.652 244.043 747.052 245.743C750.352 248.043 754.252 254.143 750.652 262.043C747.052 269.943 743.052 255.343 743.052 255.343L738.652 242.043L743.752 237.843Z" fill="black" stroke="#161515" stroke-miterlimit="10"/>
<path d="M746.353 255.943C746.353 255.943 751.553 261.343 747.853 267.043L745.253 267.643C745.253 267.643 743.653 287.943 749.153 295.243C757.953 306.843 763.253 320.943 763.253 320.943C763.253 320.943 751.253 341.243 720.053 328.643C720.053 328.643 714.553 325.443 714.053 320.643C713.553 315.843 706.753 313.643 706.653 319.343L707.753 322.443C707.753 322.443 702.053 322.043 700.653 315.243C699.253 308.543 719.553 303.343 722.653 296.043C725.753 288.743 718.453 273.443 718.453 273.443L712.453 257.943L719.153 250.343L731.853 247.143L741.353 248.743L746.353 255.943Z" fill="#AEC6F7" stroke="#161515" stroke-miterlimit="10"/>
<path d="M739.053 333.743C733.653 333.743 727.253 332.543 719.753 329.543C719.353 329.343 713.753 326.043 713.153 320.843C712.853 318.343 710.753 316.843 709.253 316.943C707.953 317.043 707.553 318.243 707.553 319.243L709.053 323.543L707.653 323.443C707.553 323.443 701.253 322.843 699.753 315.543C698.853 311.243 704.653 307.943 710.753 304.443C715.553 301.743 720.553 298.843 721.853 295.843C724.753 289.043 717.753 274.143 717.653 273.943L711.453 257.843L718.753 249.643L731.953 246.343L742.053 248.043L747.053 255.443C747.653 256.143 752.353 261.643 748.653 267.643L748.453 267.843L746.053 268.443C745.853 271.943 745.053 288.543 749.853 294.843C758.653 306.343 764.153 320.643 764.153 320.743L764.353 321.143L764.153 321.543C764.053 321.643 756.653 333.743 739.053 333.743Z" fill="#AEC6F7" stroke="#161515" stroke-miterlimit="10"/>
<path d="M750.452 280.443L748.852 279.543C749.652 278.143 750.452 277.043 750.552 277.043L751.952 278.143C752.052 278.143 751.252 279.143 750.452 280.443Z" fill="#110333"/>
<path d="M731.553 249.343C735.153 251.943 738.253 251.643 738.253 251.643C744.553 243.843 741.153 234.643 741.153 234.643C741.153 234.643 732.153 231.243 727.753 236.143L722.753 239.643C722.753 239.643 727.753 249.243 723.453 252.543C719.153 255.843 735.453 264.043 736.853 264.043C738.253 264.043 739.353 257.443 736.453 251.843L731.553 249.343Z" fill="white"/>
<path d="M736.853 264.943C735.553 264.943 723.453 259.143 722.053 254.843C721.653 253.643 721.953 252.643 722.953 251.843C725.953 249.543 723.253 242.543 721.953 240.043L721.553 239.343L727.153 235.543C731.953 230.343 741.153 233.743 741.453 233.843L741.853 233.943L741.953 234.343C742.053 234.743 745.453 244.143 738.853 252.243L738.653 252.543H738.253C738.253 252.543 738.053 252.543 737.753 252.543C739.653 257.043 739.353 262.043 738.253 263.943C737.853 264.843 737.253 264.943 736.853 264.943Z" fill="white" stroke="#161515" stroke-miterlimit="10"/>
<path d="M718.453 269.143C718.453 269.143 717.753 278.043 716.253 283.243C716.253 283.343 716.253 283.443 716.353 283.443C717.353 283.543 722.353 284.243 727.053 287.643C730.753 290.243 740.753 293.143 740.753 293.143C740.753 293.143 743.853 291.743 745.053 291.943C746.153 292.143 745.953 293.843 744.153 294.943C744.053 295.043 744.053 295.243 744.253 295.243L749.053 296.043C749.853 296.143 750.453 296.843 750.453 297.543C750.553 298.243 750.153 298.943 749.553 299.343C747.653 300.343 743.653 301.843 740.153 299.043L737.653 297.743C737.653 297.743 723.053 293.643 712.853 290.443C711.653 290.043 710.453 289.443 709.453 288.743C708.853 288.343 708.453 287.543 708.453 286.843C708.453 284.043 708.653 276.743 709.053 270.343C709.653 262.243 716.053 266.043 716.053 266.043L718.453 269.143Z" fill="white"/>
<path d="M744.752 301.543C743.152 301.543 741.352 301.143 739.752 299.743L737.352 298.643C736.152 298.343 722.352 294.443 712.652 291.443C711.352 291.043 710.052 290.443 708.952 289.543C708.152 288.943 707.652 287.943 707.652 286.843C707.652 284.043 707.852 276.743 708.252 270.343C708.452 267.543 709.352 265.643 710.952 264.843C713.452 263.543 716.452 265.343 716.652 265.443L716.952 265.643L719.452 268.943V269.243C719.452 269.543 718.852 277.443 717.452 282.743C719.352 283.043 723.652 284.043 727.652 286.943C730.752 289.243 739.052 291.643 740.752 292.143C741.752 291.743 744.052 290.743 745.252 290.943C745.952 291.043 746.452 291.543 746.652 292.243C746.752 292.943 746.552 293.843 745.952 294.543L749.252 295.143C750.452 295.343 751.352 296.343 751.452 297.443C751.552 298.543 751.052 299.543 750.052 300.143C748.952 300.743 746.952 301.543 744.752 301.543Z" fill="white" stroke="#161515" stroke-miterlimit="10"/>
<path d="M719.851 262.943C719.851 262.943 720.451 265.143 719.151 272.043C719.051 272.543 718.651 272.843 718.251 272.843C716.051 272.943 709.751 272.843 709.251 270.343C708.651 267.343 711.651 257.743 714.751 257.443C719.551 257.043 719.851 262.943 719.851 262.943Z" fill="#AEC6F7" stroke="#161515" stroke-miterlimit="10"/>
<path d="M717.052 273.743C713.152 273.743 708.852 273.143 708.252 270.543C707.652 267.843 709.452 261.543 711.652 258.543C712.552 257.343 713.552 256.643 714.452 256.543C716.052 256.443 717.352 256.843 718.352 257.743C720.252 259.443 720.552 262.243 720.552 262.743C720.652 263.343 721.052 265.843 719.852 272.143C719.652 273.043 718.952 273.643 718.052 273.643C717.752 273.743 717.352 273.743 717.052 273.743Z" fill="#AEC6F7" stroke="#161515" stroke-miterlimit="10"/>
<path d="M712.352 247.543L713.152 248.943C713.252 249.043 715.152 252.643 712.252 256.143C710.952 257.743 711.352 259.643 712.352 260.543C713.052 261.243 713.952 261.343 714.752 260.943C714.252 260.443 713.852 259.843 713.752 259.043C713.552 257.743 714.152 256.343 715.652 254.943C716.752 253.843 717.852 253.443 718.952 253.743C720.152 254.043 720.952 255.143 721.352 255.943C722.352 255.543 724.252 254.343 724.252 250.943V250.343L724.752 250.143C725.052 249.943 727.852 248.543 726.852 245.543C726.352 244.043 726.452 242.843 727.052 241.943C727.852 240.743 729.252 240.643 729.352 240.643H730.052L730.252 241.343C730.352 241.543 730.452 241.643 730.552 241.743C730.752 241.843 730.952 241.843 731.052 241.743C732.252 241.243 733.852 240.243 734.552 238.043L734.752 237.443L741.452 236.843L741.752 237.343C742.052 237.943 742.552 238.743 742.852 239.643C743.052 239.243 743.152 238.943 743.252 238.843C744.152 236.143 744.052 233.843 743.052 231.943C741.552 229.243 738.352 228.443 738.352 228.443L738.052 228.343L737.852 228.143C737.652 227.943 732.452 222.943 726.252 228.943C719.152 235.743 714.252 238.943 708.452 236.843C706.052 235.943 703.252 236.543 701.352 238.243C699.852 239.643 699.352 241.543 699.952 243.543C700.552 245.343 701.752 245.543 702.352 245.443C702.952 245.343 703.552 245.043 703.852 244.743C703.252 244.743 702.352 244.443 701.552 243.443C701.052 242.843 700.952 242.143 701.252 241.543C701.752 240.543 703.152 239.743 704.652 239.743C706.452 239.643 707.952 240.543 708.752 242.143C709.652 243.843 709.652 245.743 708.852 247.443C707.752 249.643 705.352 251.243 702.552 251.643C700.652 251.943 698.952 251.443 697.652 250.343C698.152 252.743 699.652 254.043 702.152 254.143C707.952 254.543 711.152 249.143 711.252 248.943L712.352 247.543ZM741.052 249.143C741.052 249.743 740.952 252.443 742.652 253.743C743.852 254.743 744.652 256.243 745.052 257.643C746.152 254.543 745.752 251.643 744.052 249.043C743.252 247.843 742.752 246.743 742.552 245.643C741.852 247.443 741.252 248.743 741.052 249.143Z" fill="black" stroke="#161515" stroke-miterlimit="10"/>
<path d="M749.352 295.943L771.352 283.243L778.652 287.543L756.752 300.143L749.352 295.943Z" fill="black" stroke="#161515" stroke-miterlimit="10"/>
<path d="M756.752 297.643V294.243L742.952 286.243C742.552 286.043 742.152 286.343 742.152 286.743V291.743L754.652 298.943C755.552 299.443 756.752 298.743 756.752 297.643Z" fill="#111111" stroke="#161515" stroke-miterlimit="10"/>
<path d="M756.752 294.443L777.152 282.643C777.752 282.243 778.652 282.743 778.652 283.443V287.443L758.452 299.143C757.652 299.543 756.652 299.043 756.652 298.143L756.752 294.443Z" fill="#AEC6F7" stroke="#161515" stroke-miterlimit="10"/>
<path d="M742.853 285.443L762.953 273.843C763.653 273.443 764.453 273.443 765.053 273.843L777.253 280.943C777.853 281.243 777.853 282.143 777.253 282.443L758.353 293.343C757.353 293.943 756.053 293.943 755.053 293.343L742.953 286.343C742.553 286.143 742.553 285.643 742.853 285.443Z" fill="white" stroke="#161515" stroke-miterlimit="10"/>
<path d="M771.352 286.143V291.743L767.652 293.843V288.243L771.352 286.143Z" fill="white" stroke="#161515" stroke-miterlimit="10"/>
<path d="M751.854 286.443L769.854 276.043L775.854 279.543L757.854 289.943L751.854 286.443Z" fill="black" stroke="#161515" stroke-miterlimit="10"/>
<path d="M757.854 287.843V285.043L746.454 278.443C746.154 278.243 745.754 278.443 745.754 278.843V282.943L756.054 288.843C756.854 289.343 757.854 288.743 757.854 287.843Z" fill="#111111" stroke="#161515" stroke-miterlimit="10"/>
<path d="M757.854 285.243L774.754 275.543C775.254 275.243 775.954 275.643 775.954 276.243V279.543L759.354 289.143C758.754 289.543 757.954 289.043 757.954 288.343L757.854 285.243Z" fill="#AEC6F7" stroke="#161515" stroke-miterlimit="10"/>
<path d="M746.454 277.743L762.954 268.243C763.454 267.943 764.154 267.943 764.654 268.243L774.754 274.043C775.254 274.343 775.254 275.043 774.754 275.243L759.154 284.243C758.254 284.743 757.254 284.743 756.354 284.243L746.354 278.443C746.154 278.343 746.154 277.943 746.454 277.743Z" fill="white" stroke="#161515" stroke-miterlimit="10"/>
<path d="M769.854 278.343V282.943L766.854 284.743V280.143L769.854 278.343Z" fill="white" stroke="#161515" stroke-miterlimit="10"/>
<path d="M613.038 47.3882V44.2828L610.902 42.3309L612.436 41L613.94 42.4196L615.624 41L617.188 42.39L615.203 44.1941V47.3882L617.639 45.7911L618.18 42.9519L620.316 43.5434L619.865 45.9686L621.82 46.353L621.398 48.4233L618.451 47.5952L615.985 49.0444L618.571 50.5527L621.489 49.7837L622 51.7357L619.835 52.3567L620.346 54.4861L618.421 54.9002L617.639 52.1201L614.962 50.7597L614.932 53.5693L617.008 55.6987L615.654 57L613.97 55.4325L612.436 57L610.902 55.4917L612.947 53.658L612.917 50.5527L610.331 52.1497L609.669 54.9298L607.594 54.3974L608.256 52.1497L606 51.6765L606.541 49.7246L609.398 50.4344L611.895 48.9852L609.398 47.5065L606.692 48.2754L606.15 46.2939L608.286 45.732L607.744 43.5434L609.82 43.159L610.602 45.8799L613.038 47.3882Z" fill="#F2F2F2" stroke="#111111" stroke-width="0.5" stroke-miterlimit="10"/>
<path d="M159.838 137.392V135.257L158.37 133.915L159.425 133L160.459 133.976L161.617 133L162.692 133.956L161.327 135.196V137.392L163.002 136.294L163.374 134.342L164.842 134.749L164.532 136.416L165.876 136.68L165.586 138.104L163.56 137.534L161.865 138.53L163.643 139.567L165.648 139.039L166 140.381L164.511 140.808L164.863 142.272L163.539 142.556L163.002 140.645L161.162 139.71L161.141 141.641L162.568 143.105L161.637 144L160.479 142.922L159.425 144L158.37 142.963L159.776 141.702L159.756 139.567L157.977 140.665L157.523 142.577L156.096 142.211L156.551 140.665L155 140.34L155.372 138.998L157.336 139.486L159.053 138.49L157.336 137.473L155.476 138.002L155.103 136.64L156.571 136.253L156.199 134.749L157.626 134.484L158.164 136.355L159.838 137.392Z" fill="#F2F2F2" stroke="#111111" stroke-width="0.5" stroke-miterlimit="10"/>
<path d="M438.117 305.183V300.719L435.047 297.913L437.252 296L439.414 298.041L441.835 296L444.083 297.998L441.229 300.591V305.183L444.731 302.887L445.509 298.806L448.579 299.656L447.93 303.142L450.741 303.695L450.135 306.671L445.898 305.481L442.353 307.564L446.071 309.732L450.265 308.627L451 311.433L447.887 312.325L448.622 315.386L445.855 315.982L444.731 311.985L440.883 310.03L440.84 314.068L443.823 317.129L441.878 319L439.457 316.747L437.252 319L435.047 316.832L437.987 314.196L437.944 309.732L434.226 312.028L433.274 316.024L430.291 315.259L431.242 312.028L428 311.348L428.778 308.542L432.885 309.562L436.474 307.479L432.885 305.353L428.994 306.458L428.216 303.61L431.286 302.802L430.508 299.656L433.491 299.104L434.615 303.015L438.117 305.183Z" fill="#F2F2F2" stroke="#111111" stroke-width="0.5" stroke-miterlimit="10"/>
<defs>
<clipPath id="clip0">
<rect width="450" height="396" fill="white" transform="translate(797 26)"/>
</clipPath>
</defs>
</svg>
