<svg width="316" height="154" viewBox="0 0 316 154" fill="none" xmlns="http://www.w3.org/2000/svg">
<g filter="url(#filter0_d)">
<rect x="14" y="14" width="280" height="118" fill="white"/>
</g>
<path d="M51.4526 69.04H53.8046V80.384H56.9566V82H51.4526V69.04ZM58.1869 69.04H63.6269V70.704H60.5389V74.432H62.9709V76.08H60.5389V80.384H63.6589V82H58.1869V69.04ZM68.2947 82.176C67.1214 82.176 66.2414 81.8453 65.6547 81.184C65.0787 80.5227 64.764 79.536 64.7107 78.224L66.7427 77.824C66.7747 78.6453 66.9027 79.2747 67.1267 79.712C67.3614 80.1387 67.724 80.352 68.2147 80.352C68.5774 80.352 68.844 80.2453 69.0147 80.032C69.196 79.808 69.2867 79.5093 69.2867 79.136C69.2867 78.624 69.1694 78.192 68.9347 77.84C68.7107 77.4773 68.3534 77.0827 67.8627 76.656L66.2307 75.232C65.7294 74.8053 65.3507 74.3467 65.0947 73.856C64.8494 73.3653 64.7267 72.7787 64.7267 72.096C64.7267 71.0827 65.02 70.2987 65.6067 69.744C66.204 69.1787 67.0254 68.896 68.0707 68.896C69.1907 68.896 69.9907 69.216 70.4707 69.856C70.9614 70.4853 71.244 71.3387 71.3187 72.416L69.2867 72.768C69.2547 72.064 69.1534 71.536 68.9827 71.184C68.8227 70.8213 68.5027 70.64 68.0227 70.64C67.6814 70.64 67.4147 70.7573 67.2227 70.992C67.0307 71.216 66.9347 71.504 66.9347 71.856C66.9347 72.272 67.0147 72.624 67.1747 72.912C67.3454 73.1893 67.6174 73.488 67.9907 73.808L69.6067 75.232C70.2147 75.7547 70.6894 76.3147 71.0307 76.912C71.372 77.5093 71.5427 78.2027 71.5427 78.992C71.5427 79.6107 71.404 80.16 71.1267 80.64C70.86 81.12 70.4814 81.4987 69.9907 81.776C69.5 82.0427 68.9347 82.176 68.2947 82.176ZM76.8276 69.04H80.0276C81.2542 69.04 82.1929 69.2907 82.8436 69.792C83.4942 70.2933 83.8196 71.152 83.8196 72.368C83.8196 73.1573 83.6596 73.776 83.3396 74.224C83.0196 74.6613 82.5556 74.928 81.9476 75.024C83.4409 75.312 84.1876 76.3787 84.1876 78.224C84.1876 79.472 83.8836 80.416 83.2756 81.056C82.6676 81.6853 81.7662 82 80.5716 82H76.8276V69.04ZM79.9956 74.336C80.6782 74.336 81.1422 74.1867 81.3876 73.888C81.6436 73.5787 81.7716 73.0827 81.7716 72.4C81.7716 71.7387 81.6062 71.2907 81.2756 71.056C80.9556 70.8107 80.4169 70.688 79.6596 70.688H79.1796V74.336H79.9956ZM80.0916 80.336C80.7849 80.336 81.2649 80.1707 81.5316 79.84C81.7982 79.5093 81.9316 78.9653 81.9316 78.208C81.9316 77.4293 81.7822 76.864 81.4836 76.512C81.1956 76.1493 80.7049 75.968 80.0116 75.968H79.1796V80.336H80.0916ZM87.6542 69.04H90.1822L92.7742 82H90.5822L90.0702 79.008H87.8142L87.2862 82H85.0622L87.6542 69.04ZM89.8142 77.504L88.9342 72.064L88.0542 77.504H89.8142ZM94.0776 69.04H95.7256L98.8776 76.432V69.04H100.83V82H99.2616L96.0936 74.256V82H94.0776V69.04ZM102.796 69.04H105.852C106.898 69.04 107.719 69.184 108.316 69.472C108.914 69.7493 109.335 70.1813 109.58 70.768C109.836 71.344 109.964 72.112 109.964 73.072V77.792C109.964 78.7733 109.836 79.568 109.58 80.176C109.335 80.784 108.919 81.2427 108.332 81.552C107.746 81.8507 106.951 82 105.948 82H102.796V69.04ZM105.884 80.352C106.407 80.352 106.786 80.2613 107.02 80.08C107.255 79.8987 107.404 79.648 107.468 79.328C107.532 78.9973 107.564 78.512 107.564 77.872V72.912C107.564 72.336 107.527 71.8987 107.452 71.6C107.378 71.3013 107.218 71.0827 106.972 70.944C106.738 70.7947 106.364 70.72 105.852 70.72H105.148V80.352H105.884ZM111.703 69.04H117.143V70.704H114.055V74.432H116.487V76.08H114.055V80.384H117.175V82H111.703V69.04ZM121.81 82.176C120.637 82.176 119.757 81.8453 119.17 81.184C118.594 80.5227 118.28 79.536 118.226 78.224L120.258 77.824C120.29 78.6453 120.418 79.2747 120.642 79.712C120.877 80.1387 121.24 80.352 121.73 80.352C122.093 80.352 122.36 80.2453 122.53 80.032C122.712 79.808 122.802 79.5093 122.802 79.136C122.802 78.624 122.685 78.192 122.45 77.84C122.226 77.4773 121.869 77.0827 121.378 76.656L119.746 75.232C119.245 74.8053 118.866 74.3467 118.61 73.856C118.365 73.3653 118.242 72.7787 118.242 72.096C118.242 71.0827 118.536 70.2987 119.122 69.744C119.72 69.1787 120.541 68.896 121.586 68.896C122.706 68.896 123.506 69.216 123.986 69.856C124.477 70.4853 124.76 71.3387 124.834 72.416L122.802 72.768C122.77 72.064 122.669 71.536 122.498 71.184C122.338 70.8213 122.018 70.64 121.538 70.64C121.197 70.64 120.93 70.7573 120.738 70.992C120.546 71.216 120.45 71.504 120.45 71.856C120.45 72.272 120.53 72.624 120.69 72.912C120.861 73.1893 121.133 73.488 121.506 73.808L123.122 75.232C123.73 75.7547 124.205 76.3147 124.546 76.912C124.888 77.5093 125.058 78.2027 125.058 78.992C125.058 79.6107 124.92 80.16 124.642 80.64C124.376 81.12 123.997 81.4987 123.506 81.776C123.016 82.0427 122.45 82.176 121.81 82.176ZM130.343 69.04H133.399C134.445 69.04 135.266 69.184 135.863 69.472C136.461 69.7493 136.882 70.1813 137.127 70.768C137.383 71.344 137.511 72.112 137.511 73.072V77.792C137.511 78.7733 137.383 79.568 137.127 80.176C136.882 80.784 136.466 81.2427 135.879 81.552C135.293 81.8507 134.498 82 133.495 82H130.343V69.04ZM133.431 80.352C133.954 80.352 134.333 80.2613 134.567 80.08C134.802 79.8987 134.951 79.648 135.015 79.328C135.079 78.9973 135.111 78.512 135.111 77.872V72.912C135.111 72.336 135.074 71.8987 134.999 71.6C134.925 71.3013 134.765 71.0827 134.519 70.944C134.285 70.7947 133.911 70.72 133.399 70.72H132.695V80.352H133.431ZM139.249 69.04H144.689V70.704H141.601V74.432H144.033V76.08H141.601V80.384H144.721V82H139.249V69.04ZM149.357 82.176C148.184 82.176 147.304 81.8453 146.717 81.184C146.141 80.5227 145.827 79.536 145.773 78.224L147.805 77.824C147.837 78.6453 147.965 79.2747 148.189 79.712C148.424 80.1387 148.787 80.352 149.277 80.352C149.64 80.352 149.907 80.2453 150.077 80.032C150.259 79.808 150.349 79.5093 150.349 79.136C150.349 78.624 150.232 78.192 149.997 77.84C149.773 77.4773 149.416 77.0827 148.925 76.656L147.293 75.232C146.792 74.8053 146.413 74.3467 146.157 73.856C145.912 73.3653 145.789 72.7787 145.789 72.096C145.789 71.0827 146.083 70.2987 146.669 69.744C147.267 69.1787 148.088 68.896 149.133 68.896C150.253 68.896 151.053 69.216 151.533 69.856C152.024 70.4853 152.307 71.3387 152.381 72.416L150.349 72.768C150.317 72.064 150.216 71.536 150.045 71.184C149.885 70.8213 149.565 70.64 149.085 70.64C148.744 70.64 148.477 70.7573 148.285 70.992C148.093 71.216 147.997 71.504 147.997 71.856C147.997 72.272 148.077 72.624 148.237 72.912C148.408 73.1893 148.68 73.488 149.053 73.808L150.669 75.232C151.277 75.7547 151.752 76.3147 152.093 76.912C152.435 77.5093 152.605 78.2027 152.605 78.992C152.605 79.6107 152.467 80.16 152.189 80.64C151.923 81.12 151.544 81.4987 151.053 81.776C150.563 82.0427 149.997 82.176 149.357 82.176ZM157.138 82.176C155.965 82.176 155.085 81.8453 154.498 81.184C153.922 80.5227 153.608 79.536 153.554 78.224L155.586 77.824C155.618 78.6453 155.746 79.2747 155.97 79.712C156.205 80.1387 156.568 80.352 157.058 80.352C157.421 80.352 157.688 80.2453 157.858 80.032C158.04 79.808 158.13 79.5093 158.13 79.136C158.13 78.624 158.013 78.192 157.778 77.84C157.554 77.4773 157.197 77.0827 156.706 76.656L155.074 75.232C154.573 74.8053 154.194 74.3467 153.938 73.856C153.693 73.3653 153.57 72.7787 153.57 72.096C153.57 71.0827 153.864 70.2987 154.45 69.744C155.048 69.1787 155.869 68.896 156.914 68.896C158.034 68.896 158.834 69.216 159.314 69.856C159.805 70.4853 160.088 71.3387 160.162 72.416L158.13 72.768C158.098 72.064 157.997 71.536 157.826 71.184C157.666 70.8213 157.346 70.64 156.866 70.64C156.525 70.64 156.258 70.7573 156.066 70.992C155.874 71.216 155.778 71.504 155.778 71.856C155.778 72.272 155.858 72.624 156.018 72.912C156.189 73.1893 156.461 73.488 156.834 73.808L158.45 75.232C159.058 75.7547 159.533 76.3147 159.874 76.912C160.216 77.5093 160.386 78.2027 160.386 78.992C160.386 79.6107 160.248 80.16 159.97 80.64C159.704 81.12 159.325 81.4987 158.834 81.776C158.344 82.0427 157.778 82.176 157.138 82.176ZM161.845 69.04H164.181V82H161.845V69.04ZM166.187 69.04H167.835L170.987 76.432V69.04H172.939V82H171.371L168.203 74.256V82H166.187V69.04ZM174.906 69.04H180.346V70.704H177.258V74.432H179.69V76.08H177.258V80.384H180.378V82H174.906V69.04ZM177.978 64.944H180.186L178.282 68.144H177.018L177.978 64.944ZM181.749 69.04H187.189V70.704H184.101V74.432H186.533V76.08H184.101V80.384H187.221V82H181.749V69.04ZM191.857 82.176C190.684 82.176 189.804 81.8453 189.217 81.184C188.641 80.5227 188.327 79.536 188.273 78.224L190.305 77.824C190.337 78.6453 190.465 79.2747 190.689 79.712C190.924 80.1387 191.287 80.352 191.777 80.352C192.14 80.352 192.407 80.2453 192.577 80.032C192.759 79.808 192.849 79.5093 192.849 79.136C192.849 78.624 192.732 78.192 192.497 77.84C192.273 77.4773 191.916 77.0827 191.425 76.656L189.793 75.232C189.292 74.8053 188.913 74.3467 188.657 73.856C188.412 73.3653 188.289 72.7787 188.289 72.096C188.289 71.0827 188.583 70.2987 189.169 69.744C189.767 69.1787 190.588 68.896 191.633 68.896C192.753 68.896 193.553 69.216 194.033 69.856C194.524 70.4853 194.807 71.3387 194.881 72.416L192.849 72.768C192.817 72.064 192.716 71.536 192.545 71.184C192.385 70.8213 192.065 70.64 191.585 70.64C191.244 70.64 190.977 70.7573 190.785 70.992C190.593 71.216 190.497 71.504 190.497 71.856C190.497 72.272 190.577 72.624 190.737 72.912C190.908 73.1893 191.18 73.488 191.553 73.808L193.169 75.232C193.777 75.7547 194.252 76.3147 194.593 76.912C194.935 77.5093 195.105 78.2027 195.105 78.992C195.105 79.6107 194.967 80.16 194.689 80.64C194.423 81.12 194.044 81.4987 193.553 81.776C193.063 82.0427 192.497 82.176 191.857 82.176Z" fill="black"/>
<path d="M224.4 65.6904V75.3904L243 86.0904V76.3904L224.4 65.6904Z" fill="#AEC6F7" stroke="#111111" stroke-miterlimit="10"/>
<path d="M256.9 68.1902L243 76.3903L224.4 65.6902L238.4 57.4902L256.9 68.1902Z" fill="#AEC6F7" stroke="#111111" stroke-miterlimit="10"/>
<path d="M256.9 71.5904L243 79.7904L224.4 68.9904L238.4 60.8904L256.9 71.5904Z" fill="white"/>
<path d="M238.4 57.0903L224 65.4903V75.6903L243 86.6903L257.4 78.2903V68.0903L238.4 57.0903ZM242.6 85.3904L224.8 75.0903V66.2903L242.6 76.5903V85.3904ZM225.1 65.6903L238.3 57.9903L256.1 68.2903L242.9 75.9903L225.1 65.6903Z" fill="#15110E"/>
<path d="M243 86.0902V91.3903L225.4 81.1902V75.9902L243 86.0902Z" fill="#AEC6F7" stroke="#111111" stroke-miterlimit="10"/>
<path d="M243 85.6903L225 75.2903V81.4903L243.1 91.8903L255.6 84.5903V78.2903L243 85.6903ZM225.8 80.9903V76.5903L242.6 86.2903L242.7 90.6903L225.8 80.9903Z" fill="#15110E"/>
<path d="M242.801 86.2903V85.3903L255.401 77.9902V78.8903L242.801 86.2903Z" fill="#AEC6F7"/>
<path d="M248.2 72.9904L230.1 62.5904L230.5 61.8904L248.9 72.4904L248.2 72.9904Z" fill="#15110E"/>
<path d="M247.601 89.1902L246.801 89.6902L248.201 82.2903V72.9902L248.901 72.4902V82.3903L247.601 89.1902Z" fill="#AEC6F7"/>
<path d="M248.501 66.2903C248.301 65.7903 247.901 65.1903 246.801 64.9903C245.401 64.6903 244.001 66.1903 243.101 67.3903C243.101 66.9903 243.101 66.6903 243.101 66.2903C243.001 65.1903 241.401 63.3903 240.101 63.2903C239.701 63.1903 238.901 63.2903 238.501 64.4903C237.701 66.7903 241.001 68.6903 242.101 69.2903L242.001 69.4903L242.501 69.5903L242.901 69.7903V69.6903C243.401 69.6903 244.201 69.7903 245.001 69.7903C246.201 69.7903 247.401 69.6903 247.801 69.1903C248.401 68.2903 248.801 67.1903 248.501 66.2903ZM239.201 64.5903C239.401 63.9903 239.701 63.8903 239.901 63.8903H240.001C241.001 63.9903 242.301 65.4903 242.301 66.1903C242.401 66.9903 242.301 67.7903 242.201 68.3903C241.001 67.6903 238.701 65.9903 239.201 64.5903ZM247.301 68.3903C246.901 68.7903 245.001 68.7903 243.201 68.6903C243.901 67.4903 245.401 65.4903 246.701 65.6903C247.301 65.7903 247.701 66.0903 247.801 66.4903C248.001 67.0903 247.701 67.9903 247.301 68.3903Z" fill="#15110E"/>
<path d="M243.799 72.0902C243.499 72.0902 243.199 71.9902 242.799 71.8902C241.799 71.3902 242.099 70.5902 242.299 70.0902C242.399 69.8902 242.499 69.5902 242.399 69.4902C242.399 69.3902 242.199 69.3902 242.099 69.2902C241.399 69.0902 240.799 69.0902 240.299 69.2902C239.599 69.6902 239.399 70.4902 239.399 70.4902L238.699 70.2902C238.699 70.2902 238.999 69.0902 239.999 68.5902C240.699 68.1902 241.499 68.1902 242.399 68.4902C242.799 68.5902 243.099 68.7902 243.199 69.0902C243.399 69.4902 243.299 69.8902 243.099 70.2902C242.899 70.8902 242.899 70.9902 243.199 71.0902C244.299 71.5902 244.999 70.6902 245.099 70.5902L245.699 71.0902C245.299 71.5902 244.699 72.0902 243.799 72.0902Z" fill="#15110E"/>
<path d="M249.914 65.7903C249.914 65.7903 250.014 68.1902 247.414 68.4902C245.514 68.6902 244.214 69.0902 243.914 69.1902C243.814 69.1902 243.514 68.9902 243.514 68.9902L243.414 67.7903C243.414 67.7903 245.214 66.9902 245.314 66.9902C245.414 66.9902 246.814 67.0902 247.514 66.6902C248.114 66.2902 247.914 65.6902 247.714 65.1902C247.414 64.6902 247.914 64.4902 247.914 64.4902L249.714 65.3903L249.814 65.4902C249.714 65.3902 249.814 65.5903 249.914 65.7903Z" fill="#AEC6F7"/>
<path d="M243.913 69.4902C243.813 69.4902 243.713 69.4903 243.713 69.3903C243.613 69.3903 243.313 69.1902 243.213 68.9902V68.8903L243.113 67.3903L243.313 67.2903C245.113 66.4903 245.213 66.4902 245.313 66.4902H245.413C246.713 66.5902 247.213 66.3903 247.313 66.2903C247.613 66.0903 247.713 65.8902 247.413 65.1902C247.213 64.8902 247.313 64.5902 247.313 64.4902C247.413 64.1902 247.713 64.0902 247.713 64.0902L247.813 63.9902L249.813 64.9902L249.913 65.0902C250.113 65.2902 250.213 65.4902 250.213 65.6902C250.213 65.6902 250.313 68.3902 247.413 68.6902C245.513 68.8902 244.313 69.2903 244.013 69.3903L243.913 69.4902ZM243.813 68.6902C243.813 68.6902 243.913 68.6903 243.913 68.7903C244.313 68.5903 245.613 68.2902 247.413 68.0902C249.513 67.8902 249.613 65.9903 249.613 65.7903C249.613 65.6903 249.513 65.5902 249.413 65.4902L247.913 64.6902C247.913 64.6902 247.913 64.7903 247.913 64.8903C248.113 65.1903 248.613 66.1903 247.613 66.7903C247.213 67.0903 246.413 67.1902 245.313 67.0902C245.113 67.1902 244.413 67.4903 243.713 67.7903L243.813 68.6902Z" fill="#15110E"/>
<path d="M249.813 65.4903C248.913 63.8903 245.013 67.2903 244.413 68.7903C244.213 69.0903 243.713 69.2903 243.313 69.0903L242.613 68.7903C242.613 68.7903 243.113 64.3903 246.213 63.6903C248.613 63.1903 249.813 65.4903 249.813 65.4903Z" fill="white"/>
<path d="M243.713 69.4903C243.513 69.4903 243.413 69.4903 243.213 69.3903L242.312 68.9903V68.7903C242.312 68.5903 242.812 64.1903 246.112 63.4903C248.612 62.8903 249.913 65.2903 250.013 65.4903L249.412 65.7903C249.312 65.6903 249.212 65.4903 248.912 65.4903C247.612 65.5903 245.112 67.8903 244.612 68.9903C244.512 69.2903 244.113 69.4903 243.713 69.4903ZM243.013 68.5903L243.412 68.7903C243.712 68.8903 244.013 68.7903 244.013 68.6903C244.513 67.3903 247.113 64.9903 248.713 64.7903C248.213 64.2903 247.313 63.7903 246.213 64.0903C243.813 64.5903 243.113 67.6903 243.013 68.5903Z" fill="#15110E"/>
<path d="M236.311 65.5902C236.311 65.5902 236.211 68.0903 238.611 68.3903C240.411 68.5903 241.611 68.9902 241.911 69.0902C242.011 69.0902 242.311 68.8903 242.311 68.7903L242.411 67.4902C242.411 67.4902 240.911 66.9902 240.811 66.9902C240.711 66.9902 239.111 66.7903 238.611 66.3903C238.011 65.9903 238.211 65.3903 238.411 64.7903C238.711 64.1903 238.211 63.9902 238.211 63.9902L236.511 64.8903L236.411 64.9902C236.411 65.1902 236.311 65.3902 236.311 65.5902Z" fill="#AEC6F7"/>
<path d="M241.912 69.4903H241.812C241.512 69.3903 240.412 68.9903 238.612 68.7903C236.412 68.4903 235.912 66.5903 236.012 65.6903C236.012 65.4903 236.112 65.1903 236.312 64.9903L236.512 64.7903L238.312 63.7903L238.412 63.8903C238.412 63.8903 238.712 63.9903 238.812 64.2903C238.912 64.4903 238.912 64.6903 238.812 64.9903C238.512 65.6903 238.612 65.9903 238.912 66.1903C239.412 66.4903 240.812 66.6903 241.012 66.6903C241.112 66.6903 241.112 66.6903 242.712 67.2903L242.912 67.3903L242.812 68.9903C242.712 69.1903 242.312 69.3903 242.312 69.3903C242.112 69.3903 242.012 69.4903 241.912 69.4903ZM236.612 65.5903C236.612 65.7903 236.612 67.7903 238.712 67.9903C240.412 68.1903 241.512 68.4903 242.012 68.6903C242.012 68.6903 242.112 68.6903 242.112 68.5903L242.212 67.6903C241.612 67.4903 241.012 67.2903 240.912 67.2903C240.912 67.2903 239.212 67.0903 238.512 66.6903C237.612 66.0903 238.112 64.9903 238.212 64.6903C238.212 64.5903 238.312 64.4903 238.212 64.4903L236.812 65.2903C236.712 65.3903 236.612 65.4903 236.612 65.5903Z" fill="#15110E"/>
<path d="M236.412 65.2903C237.312 63.5903 240.912 67.1903 241.512 68.6903C241.712 69.0903 242.112 69.1903 242.512 68.9903L243.112 68.6903C243.112 68.6903 242.712 64.0903 239.712 63.3903C237.512 62.8903 236.412 65.2903 236.412 65.2903Z" fill="white"/>
<path d="M242.112 69.4902C242.012 69.4902 241.912 69.4903 241.712 69.3903C241.412 69.2903 241.212 69.0903 241.112 68.8903C240.612 67.6903 238.312 65.1902 237.112 65.1902C236.912 65.1902 236.712 65.2902 236.612 65.4902L236.012 65.1902C236.412 64.2902 237.812 62.5902 239.712 63.0902C242.812 63.8902 243.312 68.4902 243.312 68.6902V68.8903L242.512 69.2903C242.412 69.3903 242.312 69.4902 242.112 69.4902ZM237.312 64.5902C238.912 64.7902 241.312 67.4902 241.812 68.6902C241.812 68.7902 241.912 68.7903 242.012 68.8903C242.112 68.8903 242.212 68.8903 242.412 68.8903L242.812 68.6902C242.712 67.7902 242.012 64.4903 239.712 63.8903C238.512 63.4903 237.812 63.9902 237.312 64.5902Z" fill="#15110E"/>
<path d="M244.013 68.8901C244.013 68.7901 244.013 68.7901 244.013 68.6901C244.013 68.4901 243.813 67.8901 243.113 67.8901C242.413 67.8901 242.213 68.3901 242.113 68.5901C242.113 68.6901 242.113 68.7901 242.113 68.7901C242.213 68.9901 242.413 69.1901 242.713 69.1901H243.413C243.713 69.2901 243.913 69.0901 244.013 68.8901Z" fill="#14100D"/>
<path d="M243.412 69.5902H242.713C242.313 69.5902 241.913 69.2903 241.812 68.8903C241.812 68.6903 241.812 68.5902 241.812 68.4902C241.913 67.8902 242.412 67.4902 243.112 67.4902C243.912 67.4902 244.312 68.0902 244.312 68.5902C244.312 68.6902 244.312 68.7903 244.312 68.8903C244.212 69.3903 243.812 69.5902 243.412 69.5902ZM243.112 68.1902C242.712 68.1902 242.512 68.3902 242.412 68.6902V68.7903C242.412 68.8903 242.613 68.9902 242.713 68.9902H243.412C243.512 68.9902 243.713 68.8903 243.713 68.7903C243.713 68.7903 243.713 68.7902 243.713 68.6902C243.713 68.1902 243.212 68.1902 243.112 68.1902Z" fill="#15110E"/>
<defs>
<filter id="filter0_d" x="0" y="0" width="316" height="154" filterUnits="userSpaceOnUse" color-interpolation-filters="sRGB">
<feFlood flood-opacity="0" result="BackgroundImageFix"/>
<feColorMatrix in="SourceAlpha" type="matrix" values="0 0 0 0 0 0 0 0 0 0 0 0 0 0 0 0 0 0 127 0"/>
<feMorphology radius="4" operator="dilate" in="SourceAlpha" result="effect1_dropShadow"/>
<feOffset dx="4" dy="4"/>
<feGaussianBlur stdDeviation="7"/>
<feColorMatrix type="matrix" values="0 0 0 0 0 0 0 0 0 0 0 0 0 0 0 0 0 0 0.07 0"/>
<feBlend mode="normal" in2="BackgroundImageFix" result="effect1_dropShadow"/>
<feBlend mode="normal" in="SourceGraphic" in2="effect1_dropShadow" result="shape"/>
</filter>
</defs>
</svg>
