<svg width="316" height="154" viewBox="0 0 316 154" fill="none" xmlns="http://www.w3.org/2000/svg">
<g filter="url(#filter0_d)">
<rect x="14" y="14" width="280" height="118" fill="white"/>
</g>
<path d="M58.3198 67.04H60.6718V78.384H63.8238V80H58.3198V67.04ZM65.0541 67.04H70.4941V68.704H67.4061V72.432H69.8381V74.08H67.4061V78.384H70.5261V80H65.0541V67.04ZM75.1619 80.176C73.9885 80.176 73.1085 79.8453 72.5219 79.184C71.9459 78.5227 71.6312 77.536 71.5779 76.224L73.6099 75.824C73.6419 76.6453 73.7699 77.2747 73.9939 77.712C74.2285 78.1387 74.5912 78.352 75.0819 78.352C75.4445 78.352 75.7112 78.2453 75.8819 78.032C76.0632 77.808 76.1539 77.5093 76.1539 77.136C76.1539 76.624 76.0365 76.192 75.8019 75.84C75.5779 75.4773 75.2205 75.0827 74.7299 74.656L73.0979 73.232C72.5965 72.8053 72.2179 72.3467 71.9619 71.856C71.7165 71.3653 71.5939 70.7787 71.5939 70.096C71.5939 69.0827 71.8872 68.2987 72.4739 67.744C73.0712 67.1787 73.8925 66.896 74.9379 66.896C76.0579 66.896 76.8579 67.216 77.3379 67.856C77.8285 68.4853 78.1112 69.3387 78.1859 70.416L76.1539 70.768C76.1219 70.064 76.0205 69.536 75.8499 69.184C75.6899 68.8213 75.3699 68.64 74.8899 68.64C74.5485 68.64 74.2819 68.7573 74.0899 68.992C73.8979 69.216 73.8019 69.504 73.8019 69.856C73.8019 70.272 73.8819 70.624 74.0419 70.912C74.2125 71.1893 74.4845 71.488 74.8579 71.808L76.4739 73.232C77.0819 73.7547 77.5565 74.3147 77.8979 74.912C78.2392 75.5093 78.4099 76.2027 78.4099 76.992C78.4099 77.6107 78.2712 78.16 77.9939 78.64C77.7272 79.12 77.3485 79.4987 76.8579 79.776C76.3672 80.0427 75.8019 80.176 75.1619 80.176ZM83.7588 67.04H86.0948V80H83.7588V67.04ZM88.101 67.04H89.749L92.901 74.432V67.04H94.853V80H93.285L90.117 72.256V80H88.101V67.04ZM96.8198 67.04H99.8758C100.921 67.04 101.742 67.184 102.34 67.472C102.937 67.7493 103.358 68.1813 103.604 68.768C103.86 69.344 103.988 70.112 103.988 71.072V75.792C103.988 76.7733 103.86 77.568 103.604 78.176C103.358 78.784 102.942 79.2427 102.356 79.552C101.769 79.8507 100.974 80 99.9718 80H96.8198V67.04ZM99.9078 78.352C100.43 78.352 100.809 78.2613 101.044 78.08C101.278 77.8987 101.428 77.648 101.492 77.328C101.556 76.9973 101.588 76.512 101.588 75.872V70.912C101.588 70.336 101.55 69.8987 101.476 69.6C101.401 69.3013 101.241 69.0827 100.996 68.944C100.761 68.7947 100.388 68.72 99.8758 68.72H99.1718V78.352H99.9078ZM105.79 67.04H108.126V80H105.79V67.04ZM113.396 80.176C112.223 80.176 111.343 79.8453 110.756 79.184C110.18 78.5227 109.866 77.536 109.812 76.224L111.844 75.824C111.876 76.6453 112.004 77.2747 112.228 77.712C112.463 78.1387 112.826 78.352 113.316 78.352C113.679 78.352 113.946 78.2453 114.116 78.032C114.298 77.808 114.388 77.5093 114.388 77.136C114.388 76.624 114.271 76.192 114.036 75.84C113.812 75.4773 113.455 75.0827 112.964 74.656L111.332 73.232C110.831 72.8053 110.452 72.3467 110.196 71.856C109.951 71.3653 109.828 70.7787 109.828 70.096C109.828 69.0827 110.122 68.2987 110.708 67.744C111.306 67.1787 112.127 66.896 113.172 66.896C114.292 66.896 115.092 67.216 115.572 67.856C116.063 68.4853 116.346 69.3387 116.42 70.416L114.388 70.768C114.356 70.064 114.255 69.536 114.084 69.184C113.924 68.8213 113.604 68.64 113.124 68.64C112.783 68.64 112.516 68.7573 112.324 68.992C112.132 69.216 112.036 69.504 112.036 69.856C112.036 70.272 112.116 70.624 112.276 70.912C112.447 71.1893 112.719 71.488 113.092 71.808L114.708 73.232C115.316 73.7547 115.791 74.3147 116.132 74.912C116.474 75.5093 116.644 76.2027 116.644 76.992C116.644 77.6107 116.506 78.16 116.228 78.64C115.962 79.12 115.583 79.4987 115.092 79.776C114.602 80.0427 114.036 80.176 113.396 80.176ZM118.039 67.04H121.847C124.055 67.04 125.159 68.2667 125.159 70.72C125.159 73.0667 124.001 74.24 121.687 74.24H120.391V80H118.039V67.04ZM121.303 72.576C121.943 72.576 122.375 72.4427 122.599 72.176C122.823 71.8987 122.935 71.408 122.935 70.704C122.935 70.192 122.897 69.8027 122.823 69.536C122.748 69.2587 122.593 69.0507 122.359 68.912C122.135 68.7733 121.783 68.704 121.303 68.704H120.391V72.576H121.303ZM126.476 67.04H131.916V68.704H128.828V72.432H131.26V74.08H128.828V78.384H131.948V80H126.476V67.04ZM133.32 67.04H134.968L138.12 74.432V67.04H140.072V80H138.504L135.336 72.256V80H133.32V67.04ZM145.303 80.176C144.129 80.176 143.249 79.8453 142.663 79.184C142.087 78.5227 141.772 77.536 141.719 76.224L143.751 75.824C143.783 76.6453 143.911 77.2747 144.135 77.712C144.369 78.1387 144.732 78.352 145.223 78.352C145.585 78.352 145.852 78.2453 146.023 78.032C146.204 77.808 146.295 77.5093 146.295 77.136C146.295 76.624 146.177 76.192 145.943 75.84C145.719 75.4773 145.361 75.0827 144.871 74.656L143.239 73.232C142.737 72.8053 142.359 72.3467 142.103 71.856C141.857 71.3653 141.735 70.7787 141.735 70.096C141.735 69.0827 142.028 68.2987 142.615 67.744C143.212 67.1787 144.033 66.896 145.079 66.896C146.199 66.896 146.999 67.216 147.479 67.856C147.969 68.4853 148.252 69.3387 148.327 70.416L146.295 70.768C146.263 70.064 146.161 69.536 145.991 69.184C145.831 68.8213 145.511 68.64 145.031 68.64C144.689 68.64 144.423 68.7573 144.231 68.992C144.039 69.216 143.943 69.504 143.943 69.856C143.943 70.272 144.023 70.624 144.183 70.912C144.353 71.1893 144.625 71.488 144.999 71.808L146.615 73.232C147.223 73.7547 147.697 74.3147 148.039 74.912C148.38 75.5093 148.551 76.2027 148.551 76.992C148.551 77.6107 148.412 78.16 148.135 78.64C147.868 79.12 147.489 79.4987 146.999 79.776C146.508 80.0427 145.943 80.176 145.303 80.176ZM151.818 67.04H154.346L156.938 80H154.746L154.234 77.008H151.978L151.45 80H149.226L151.818 67.04ZM153.978 75.504L153.098 70.064L152.218 75.504H153.978ZM158.242 67.04H161.442C162.668 67.04 163.607 67.2907 164.258 67.792C164.908 68.2933 165.234 69.152 165.234 70.368C165.234 71.1573 165.074 71.776 164.754 72.224C164.434 72.6613 163.97 72.928 163.362 73.024C164.855 73.312 165.602 74.3787 165.602 76.224C165.602 77.472 165.298 78.416 164.69 79.056C164.082 79.6853 163.18 80 161.986 80H158.242V67.04ZM161.41 72.336C162.092 72.336 162.556 72.1867 162.802 71.888C163.058 71.5787 163.186 71.0827 163.186 70.4C163.186 69.7387 163.02 69.2907 162.69 69.056C162.37 68.8107 161.831 68.688 161.074 68.688H160.594V72.336H161.41ZM161.506 78.336C162.199 78.336 162.679 78.1707 162.946 77.84C163.212 77.5093 163.346 76.9653 163.346 76.208C163.346 75.4293 163.196 74.864 162.898 74.512C162.61 74.1493 162.119 73.968 161.426 73.968H160.594V78.336H161.506ZM167.148 67.04H169.5V78.384H172.652V80H167.148V67.04ZM173.882 67.04H179.322V68.704H176.234V72.432H178.666V74.08H176.234V78.384H179.354V80H173.882V67.04ZM183.99 80.176C182.817 80.176 181.937 79.8453 181.35 79.184C180.774 78.5227 180.459 77.536 180.406 76.224L182.438 75.824C182.47 76.6453 182.598 77.2747 182.822 77.712C183.057 78.1387 183.419 78.352 183.91 78.352C184.273 78.352 184.539 78.2453 184.71 78.032C184.891 77.808 184.982 77.5093 184.982 77.136C184.982 76.624 184.865 76.192 184.63 75.84C184.406 75.4773 184.049 75.0827 183.558 74.656L181.926 73.232C181.425 72.8053 181.046 72.3467 180.79 71.856C180.545 71.3653 180.422 70.7787 180.422 70.096C180.422 69.0827 180.715 68.2987 181.302 67.744C181.899 67.1787 182.721 66.896 183.766 66.896C184.886 66.896 185.686 67.216 186.166 67.856C186.657 68.4853 186.939 69.3387 187.014 70.416L184.982 70.768C184.95 70.064 184.849 69.536 184.678 69.184C184.518 68.8213 184.198 68.64 183.718 68.64C183.377 68.64 183.11 68.7573 182.918 68.992C182.726 69.216 182.63 69.504 182.63 69.856C182.63 70.272 182.71 70.624 182.87 70.912C183.041 71.1893 183.313 71.488 183.686 71.808L185.302 73.232C185.91 73.7547 186.385 74.3147 186.726 74.912C187.067 75.5093 187.238 76.2027 187.238 76.992C187.238 77.6107 187.099 78.16 186.822 78.64C186.555 79.12 186.177 79.4987 185.686 79.776C185.195 80.0427 184.63 80.176 183.99 80.176Z" fill="black"/>
<path d="M228.329 74.5941L205.258 61.1648L227.21 48.5103L250.366 61.9396L228.329 74.5941Z" fill="white" stroke="#0A0A0A" stroke-miterlimit="10"/>
<path d="M205.258 61.1648V83.8052L228.329 97.1484V74.5941L205.258 61.1648Z" fill="#AEC6F7" stroke="#111111" stroke-miterlimit="10"/>
<path d="M227.382 48.338L227.296 48.252L205 61.0787V83.9773L228.329 97.4927L250.453 84.7521L250.539 84.666V61.7673L227.382 48.338ZM228.157 96.804L205.517 83.633V61.5952L222.561 71.4089L228.157 74.6801V96.804ZM205.689 61.1647L227.21 48.7685L249.85 61.8534L228.329 74.2497L205.689 61.1647Z" fill="#15110E"/>
<path d="M239.52 67.9655L216.535 54.5362L216.879 54.1919L240.036 67.7073L239.52 67.9655Z" fill="#15110E"/>
<path d="M239.95 90.6057L239.434 90.8639V67.9653L239.95 67.707V90.6057Z" fill="#AEC6F7"/>
<path d="M216.794 90.3478H216.277V67.7935L216.363 67.7074L238.659 55.1389L238.918 55.4833L216.794 68.0517V90.3478Z" fill="#15110E"/>
<path d="M244.857 57.377C244.341 55.6553 243.394 54.5362 241.931 54.1918C237.885 53.0727 231.342 58.2378 229.018 60.2178C229.362 59.1848 229.62 57.377 229.276 54.2779C228.932 50.9206 226.091 48.5102 223.594 48.0798C221.614 47.7354 220.065 48.5102 219.204 50.318C217.138 54.6223 226.091 60.0456 227.899 61.1647C227.382 61.9395 226.693 61.9395 225.833 61.8534C225.144 61.7673 224.455 61.6812 223.767 62.1117C222.217 63.0586 221.701 64.8664 221.701 64.9525L222.131 65.0385C222.131 65.0385 222.561 63.3168 224.025 62.5421C224.541 62.1977 225.144 62.2838 225.833 62.3699C226.693 62.456 227.64 62.5421 228.415 61.5091H228.501L228.587 61.423C228.76 61.423 229.018 61.5091 229.362 61.5951C229.965 61.8534 230.653 62.2838 230.826 63.2308C231.084 64.2638 231.686 65.0386 232.547 65.3829C232.978 65.5551 233.408 65.6412 233.839 65.6412C234.355 65.6412 234.785 65.5551 235.302 65.2968L235.13 64.8664C234.355 65.2107 233.494 65.2968 232.806 64.9525C232.117 64.6081 231.6 63.9194 231.342 63.0586C231.256 62.5421 230.998 62.1117 230.653 61.8534C232.633 62.1978 235.56 62.7143 238.229 62.7143C240.811 62.7143 243.136 62.2838 244.341 61.0786C245.116 60.1317 245.288 58.9265 244.857 57.377ZM219.634 50.4902C220.237 49.1989 221.356 48.4241 222.82 48.4241C223.078 48.4241 223.336 48.4241 223.594 48.5102C225.919 48.9406 228.501 51.1788 228.846 54.2779C229.276 58.41 228.587 60.2178 228.329 60.7343C226.78 59.9595 217.741 54.4501 219.634 50.4902ZM243.911 60.6482C241.328 63.4029 232.289 61.6812 229.362 61.0786C229.19 60.9926 229.018 60.9926 228.846 60.9926C230.481 59.5291 237.626 53.5032 241.758 54.6223C242.964 54.9666 243.824 55.9135 244.341 57.5492C244.771 58.8404 244.685 59.8735 243.911 60.6482Z" fill="#15110E"/>
<path d="M218.344 81.9973V76.1435L210.08 71.3228V77.1765C210.08 77.1765 210.166 80.1034 208.961 80.7921C207.756 81.4808 207.756 81.4808 207.756 81.4808L216.02 86.3016C216.02 86.3016 216.02 86.3016 217.225 85.6129C218.43 84.9242 218.344 81.9973 218.344 81.9973Z" fill="#AEC6F7" stroke="#111111" stroke-miterlimit="10"/>
<path d="M219.376 83.8052V77.9514L211.111 73.1306V78.9844C211.111 78.9844 211.197 81.9113 209.992 82.6C208.787 83.2887 208.787 83.2887 208.787 83.2887L217.051 88.1094C217.051 88.1094 217.051 88.1094 218.256 87.4207C219.462 86.7321 219.376 83.8052 219.376 83.8052Z" fill="white"/>
<path d="M215.933 86.5599L207.238 81.4809L208.788 80.62C209.735 80.1035 209.821 77.9514 209.821 77.1766V70.9785L218.515 76.0575V81.9974C218.515 82.1696 218.602 85.0965 217.31 85.7852L215.933 86.5599ZM208.185 81.4809L216.019 86.0434L217.138 85.4408C218.085 84.9243 218.171 82.7722 218.171 81.9974V76.3158L210.337 71.7533V77.1766C210.337 77.2627 210.423 80.2757 209.132 80.9644L208.185 81.4809Z" fill="#15110E"/>
<path d="M211.799 78.2097C211.713 76.5741 213.779 77.4349 214.296 79.0706C214.812 78.0375 216.879 79.2427 216.792 81.0505C216.706 82.3418 214.554 83.2887 214.296 83.4609C214.038 83.0305 211.886 79.5871 211.799 78.2097Z" fill="#AEC6F7"/>
<path d="M214.04 82.2554H213.954L213.868 82.0833C213.437 81.4807 211.457 78.2094 211.371 76.8321C211.371 75.9712 211.888 75.7991 212.06 75.713C212.748 75.6269 213.695 76.2295 214.126 77.2625C214.384 77.0903 214.642 77.0042 214.987 77.0903C215.848 77.3486 216.794 78.3816 216.708 79.6729C216.622 80.9641 214.642 81.9972 214.126 82.2554V82.3415L214.04 82.2554ZM211.802 76.8321C211.802 77.8651 213.265 80.3616 214.126 81.7389C214.987 81.3085 216.278 80.5337 216.278 79.6729C216.278 78.5538 215.503 77.6929 214.901 77.6068C214.556 77.5207 214.384 77.6068 214.298 77.8651L214.04 78.3816L213.868 77.8651C213.523 76.8321 212.576 76.2295 212.146 76.3155C211.888 76.2295 211.802 76.5738 211.802 76.8321Z" fill="#15110E"/>
<defs>
<filter id="filter0_d" x="0" y="0" width="316" height="154" filterUnits="userSpaceOnUse" color-interpolation-filters="sRGB">
<feFlood flood-opacity="0" result="BackgroundImageFix"/>
<feColorMatrix in="SourceAlpha" type="matrix" values="0 0 0 0 0 0 0 0 0 0 0 0 0 0 0 0 0 0 127 0"/>
<feMorphology radius="4" operator="dilate" in="SourceAlpha" result="effect1_dropShadow"/>
<feOffset dx="4" dy="4"/>
<feGaussianBlur stdDeviation="7"/>
<feColorMatrix type="matrix" values="0 0 0 0 0 0 0 0 0 0 0 0 0 0 0 0 0 0 0.07 0"/>
<feBlend mode="normal" in2="BackgroundImageFix" result="effect1_dropShadow"/>
<feBlend mode="normal" in="SourceGraphic" in2="effect1_dropShadow" result="shape"/>
</filter>
</defs>
</svg>
