<svg width="1231" height="154" viewBox="0 0 1231 154" fill="none" xmlns="http://www.w3.org/2000/svg">
<g filter="url(#filter0_d)">
<rect x="14" y="14" width="280" height="118" fill="white"/>
</g>
<path d="M96.0932 67.04H98.4452V78.384H101.597V80H96.0932V67.04ZM102.828 67.04H108.268V68.704H105.18V72.432H107.612V74.08H105.18V78.384H108.3V80H102.828V67.04ZM112.935 80.176C111.762 80.176 110.882 79.8453 110.295 79.184C109.719 78.5227 109.405 77.536 109.351 76.224L111.383 75.824C111.415 76.6453 111.543 77.2747 111.767 77.712C112.002 78.1387 112.365 78.352 112.855 78.352C113.218 78.352 113.485 78.2453 113.655 78.032C113.837 77.808 113.927 77.5093 113.927 77.136C113.927 76.624 113.81 76.192 113.575 75.84C113.351 75.4773 112.994 75.0827 112.503 74.656L110.871 73.232C110.37 72.8053 109.991 72.3467 109.735 71.856C109.49 71.3653 109.367 70.7787 109.367 70.096C109.367 69.0827 109.661 68.2987 110.247 67.744C110.845 67.1787 111.666 66.896 112.711 66.896C113.831 66.896 114.631 67.216 115.111 67.856C115.602 68.4853 115.885 69.3387 115.959 70.416L113.927 70.768C113.895 70.064 113.794 69.536 113.623 69.184C113.463 68.8213 113.143 68.64 112.663 68.64C112.322 68.64 112.055 68.7573 111.863 68.992C111.671 69.216 111.575 69.504 111.575 69.856C111.575 70.272 111.655 70.624 111.815 70.912C111.986 71.1893 112.258 71.488 112.631 71.808L114.247 73.232C114.855 73.7547 115.33 74.3147 115.671 74.912C116.013 75.5093 116.183 76.2027 116.183 76.992C116.183 77.6107 116.045 78.16 115.767 78.64C115.501 79.12 115.122 79.4987 114.631 79.776C114.141 80.0427 113.575 80.176 112.935 80.176ZM121.468 67.04H125.276C127.484 67.04 128.588 68.2667 128.588 70.72C128.588 73.0667 127.431 74.24 125.116 74.24H123.82V80H121.468V67.04ZM124.732 72.576C125.372 72.576 125.804 72.4427 126.028 72.176C126.252 71.8987 126.364 71.408 126.364 70.704C126.364 70.192 126.327 69.8027 126.252 69.536C126.178 69.2587 126.023 69.0507 125.788 68.912C125.564 68.7733 125.212 68.704 124.732 68.704H123.82V72.576H124.732ZM133.442 80.176C132.098 80.176 131.138 79.8187 130.562 79.104C129.986 78.3787 129.698 77.3227 129.698 75.936V71.072C129.698 69.696 129.986 68.656 130.562 67.952C131.138 67.248 132.098 66.896 133.442 66.896C134.775 66.896 135.73 67.248 136.306 67.952C136.882 68.656 137.17 69.696 137.17 71.072V75.936C137.17 77.312 136.876 78.3627 136.29 79.088C135.714 79.8133 134.764 80.176 133.442 80.176ZM133.442 78.432C133.964 78.432 134.316 78.2667 134.498 77.936C134.679 77.6053 134.77 77.1253 134.77 76.496V70.528C134.77 69.8987 134.679 69.424 134.498 69.104C134.327 68.784 133.975 68.624 133.442 68.624C132.908 68.624 132.551 68.7893 132.37 69.12C132.188 69.44 132.098 69.9093 132.098 70.528V76.496C132.098 77.1253 132.188 77.6053 132.37 77.936C132.551 78.2667 132.908 78.432 133.442 78.432ZM138.921 67.04H141.273V78.384H144.425V80H138.921V67.04ZM147.592 67.04H150.12L152.712 80H150.52L150.008 77.008H147.752L147.224 80H145L147.592 67.04ZM149.752 75.504L148.872 70.064L147.992 75.504H149.752ZM154.015 67.04H157.135C158.5 67.04 159.519 67.3013 160.191 67.824C160.863 68.336 161.199 69.2213 161.199 70.48C161.199 71.3013 161.076 71.9733 160.831 72.496C160.596 73.008 160.186 73.3813 159.599 73.616L161.407 80H159.039L157.487 74.064H156.367V80H154.015V67.04ZM157.119 72.592C157.791 72.592 158.266 72.4373 158.543 72.128C158.831 71.8187 158.975 71.312 158.975 70.608C158.975 69.9253 158.847 69.4293 158.591 69.12C158.346 68.8107 157.898 68.656 157.247 68.656H156.367V72.592H157.119ZM166.217 80.176C165.043 80.176 164.163 79.8453 163.577 79.184C163.001 78.5227 162.686 77.536 162.633 76.224L164.665 75.824C164.697 76.6453 164.825 77.2747 165.049 77.712C165.283 78.1387 165.646 78.352 166.137 78.352C166.499 78.352 166.766 78.2453 166.937 78.032C167.118 77.808 167.209 77.5093 167.209 77.136C167.209 76.624 167.091 76.192 166.857 75.84C166.633 75.4773 166.275 75.0827 165.785 74.656L164.153 73.232C163.651 72.8053 163.273 72.3467 163.017 71.856C162.771 71.3653 162.649 70.7787 162.649 70.096C162.649 69.0827 162.942 68.2987 163.529 67.744C164.126 67.1787 164.947 66.896 165.993 66.896C167.113 66.896 167.913 67.216 168.393 67.856C168.883 68.4853 169.166 69.3387 169.241 70.416L167.209 70.768C167.177 70.064 167.075 69.536 166.905 69.184C166.745 68.8213 166.425 68.64 165.945 68.64C165.603 68.64 165.337 68.7573 165.145 68.992C164.953 69.216 164.857 69.504 164.857 69.856C164.857 70.272 164.937 70.624 165.097 70.912C165.267 71.1893 165.539 71.488 165.913 71.808L167.529 73.232C168.137 73.7547 168.611 74.3147 168.953 74.912C169.294 75.5093 169.465 76.2027 169.465 76.992C169.465 77.6107 169.326 78.16 169.049 78.64C168.782 79.12 168.403 79.4987 167.913 79.776C167.422 80.0427 166.857 80.176 166.217 80.176Z" fill="black"/>
<path d="M221.329 74.5941L198.258 61.1648L220.21 48.5103L243.366 61.9396L221.329 74.5941Z" fill="white" stroke="#0A0A0A" stroke-miterlimit="10"/>
<path d="M198.258 61.1646V83.805L221.329 97.1482V74.5938L198.258 61.1646Z" fill="#AEC6F7" stroke="#111111" stroke-miterlimit="10"/>
<path d="M220.382 48.338L220.296 48.252L198 61.0787V83.9773L221.329 97.4927L243.453 84.7521L243.539 84.666V61.7673L220.382 48.338ZM221.157 96.804L198.517 83.633V61.5952L215.561 71.4089L221.157 74.6801V96.804ZM198.689 61.1647L220.21 48.7685L242.85 61.8534L221.329 74.2497L198.689 61.1647Z" fill="#15110E"/>
<path d="M232.52 67.9655L209.535 54.5362L209.879 54.1919L233.036 67.7073L232.52 67.9655Z" fill="#15110E"/>
<path d="M232.95 90.6057L232.434 90.8639V67.9653L232.95 67.707V90.6057Z" fill="#AEC6F7"/>
<path d="M209.794 90.3475H209.277V67.7932L209.363 67.7071L231.659 55.1387L231.918 55.483L209.794 68.0515V90.3475Z" fill="#15110E"/>
<path d="M237.857 57.377C237.341 55.6553 236.394 54.5362 234.931 54.1918C230.885 53.0727 224.342 58.2378 222.018 60.2178C222.362 59.1848 222.62 57.377 222.276 54.2779C221.932 50.9206 219.091 48.5102 216.594 48.0798C214.614 47.7354 213.065 48.5102 212.204 50.318C210.138 54.6223 219.091 60.0456 220.899 61.1647C220.382 61.9395 219.693 61.9395 218.833 61.8534C218.144 61.7673 217.455 61.6812 216.767 62.1117C215.217 63.0586 214.701 64.8664 214.701 64.9525L215.131 65.0385C215.131 65.0385 215.561 63.3168 217.025 62.5421C217.541 62.1977 218.144 62.2838 218.833 62.3699C219.693 62.456 220.64 62.5421 221.415 61.5091H221.501L221.587 61.423C221.76 61.423 222.018 61.5091 222.362 61.5951C222.965 61.8534 223.653 62.2838 223.826 63.2308C224.084 64.2638 224.686 65.0386 225.547 65.3829C225.978 65.5551 226.408 65.6412 226.839 65.6412C227.355 65.6412 227.785 65.5551 228.302 65.2968L228.13 64.8664C227.355 65.2107 226.494 65.2968 225.806 64.9525C225.117 64.6081 224.6 63.9194 224.342 63.0586C224.256 62.5421 223.998 62.1117 223.653 61.8534C225.633 62.1978 228.56 62.7143 231.229 62.7143C233.811 62.7143 236.136 62.2838 237.341 61.0786C238.116 60.1317 238.288 58.9265 237.857 57.377ZM212.634 50.4902C213.237 49.1989 214.356 48.4241 215.82 48.4241C216.078 48.4241 216.336 48.4241 216.594 48.5102C218.919 48.9406 221.501 51.1788 221.846 54.2779C222.276 58.41 221.587 60.2178 221.329 60.7343C219.78 59.9595 210.741 54.4501 212.634 50.4902ZM236.911 60.6482C234.328 63.4029 225.289 61.6812 222.362 61.0786C222.19 60.9926 222.018 60.9926 221.846 60.9926C223.481 59.5291 230.626 53.5032 234.758 54.6223C235.964 54.9666 236.824 55.9135 237.341 57.5492C237.771 58.8404 237.685 59.8735 236.911 60.6482Z" fill="#15110E"/>
<path d="M211.344 81.9973V76.1435L203.08 71.3228V77.1765C203.08 77.1765 203.166 80.1034 201.961 80.7921C200.756 81.4808 200.756 81.4808 200.756 81.4808L209.02 86.3016C209.02 86.3016 209.02 86.3016 210.225 85.6129C211.43 84.9242 211.344 81.9973 211.344 81.9973Z" fill="#AEC6F7" stroke="#111111" stroke-miterlimit="10"/>
<path d="M212.376 83.8049V77.9511L204.111 73.1304V78.9842C204.111 78.9842 204.197 81.9111 202.992 82.5997C201.787 83.2884 201.787 83.2884 201.787 83.2884L210.051 88.1092C210.051 88.1092 210.051 88.1092 211.256 87.4205C212.462 86.7318 212.376 83.8049 212.376 83.8049Z" fill="white"/>
<path d="M208.933 86.5599L200.238 81.4809L201.788 80.62C202.735 80.1035 202.821 77.9514 202.821 77.1766V70.9785L211.515 76.0575V81.9974C211.515 82.1696 211.602 85.0965 210.31 85.7852L208.933 86.5599ZM201.185 81.4809L209.019 86.0434L210.138 85.4408C211.085 84.9243 211.171 82.7722 211.171 81.9974V76.3158L203.337 71.7533V77.1766C203.337 77.2627 203.423 80.2757 202.132 80.9644L201.185 81.4809Z" fill="#15110E"/>
<path d="M204.799 78.2097C204.713 76.5741 206.779 77.4349 207.296 79.0706C207.812 78.0375 209.879 79.2427 209.792 81.0505C209.706 82.3418 207.554 83.2887 207.296 83.4609C207.038 83.0305 204.886 79.5871 204.799 78.2097Z" fill="#AEC6F7"/>
<path d="M207.04 82.2557H206.954L206.868 82.0835C206.437 81.4809 204.457 78.2097 204.371 76.8323C204.371 75.9715 204.888 75.7993 205.06 75.7132C205.748 75.6271 206.695 76.2297 207.126 77.2627C207.384 77.0906 207.642 77.0045 207.987 77.0906C208.848 77.3488 209.794 78.3818 209.708 79.6731C209.622 80.9644 207.642 81.9974 207.126 82.2557V82.3418L207.04 82.2557ZM204.802 76.8323C204.802 77.8653 206.265 80.3618 207.126 81.7392C207.987 81.3088 209.278 80.534 209.278 79.6731C209.278 78.554 208.503 77.6932 207.901 77.6071C207.556 77.521 207.384 77.6071 207.298 77.8653L207.04 78.3818L206.868 77.8653C206.523 76.8323 205.576 76.2297 205.146 76.3158C204.888 76.2297 204.802 76.5741 204.802 76.8323Z" fill="#15110E"/>
<g filter="url(#filter1_d)">
<rect x="929" y="14" width="280" height="118" fill="white"/>
</g>
<path d="M986.343 82V69.04H988.711V80.368H991.847V82H986.343ZM993.015 82V69.04H998.455V70.704H995.383V74.432H997.799V76.08H995.383V80.368H998.487V82H993.015ZM1003.12 82.176C1002.34 82.176 1001.69 82.0267 1001.17 81.728C1000.65 81.4187 1000.25 80.9707 999.987 80.384C999.72 79.7973 999.571 79.0773 999.539 78.224L1001.57 77.824C1001.59 78.3253 1001.65 78.768 1001.75 79.152C1001.85 79.536 1002.01 79.8347 1002.21 80.048C1002.42 80.2507 1002.7 80.352 1003.04 80.352C1003.43 80.352 1003.7 80.24 1003.86 80.016C1004.02 79.7813 1004.1 79.488 1004.1 79.136C1004.1 78.5707 1003.97 78.1067 1003.71 77.744C1003.46 77.3813 1003.12 77.0187 1002.69 76.656L1001.06 75.216C1000.6 74.8213 1000.23 74.384 999.955 73.904C999.688 73.4133 999.555 72.8107 999.555 72.096C999.555 71.072 999.853 70.2827 1000.45 69.728C1001.05 69.1733 1001.86 68.896 1002.9 68.896C1003.51 68.896 1004.01 68.992 1004.42 69.184C1004.82 69.3653 1005.14 69.6213 1005.38 69.952C1005.62 70.2827 1005.81 70.6613 1005.92 71.088C1006.04 71.504 1006.11 71.9467 1006.15 72.416L1004.13 72.768C1004.11 72.3627 1004.06 72 1003.99 71.68C1003.92 71.36 1003.8 71.1093 1003.62 70.928C1003.45 70.7467 1003.19 70.656 1002.85 70.656C1002.5 70.656 1002.23 70.7733 1002.03 71.008C1001.85 71.232 1001.76 71.5147 1001.76 71.856C1001.76 72.2933 1001.85 72.656 1002.03 72.944C1002.22 73.2213 1002.48 73.5093 1002.82 73.808L1004.43 75.232C1004.97 75.68 1005.42 76.208 1005.79 76.816C1006.18 77.4133 1006.37 78.1387 1006.37 78.992C1006.37 79.6107 1006.23 80.16 1005.95 80.64C1005.69 81.12 1005.31 81.4987 1004.82 81.776C1004.34 82.0427 1003.77 82.176 1003.12 82.176ZM1011.5 82L1011.72 69.04H1014.17L1016.01 78.016L1017.93 69.04H1020.3L1020.54 82H1018.78L1018.59 72.992L1016.75 82H1015.32L1013.45 72.96L1013.27 82H1011.5ZM1021.8 82L1024.39 69.04H1026.92L1029.51 82H1027.32L1026.8 79.008H1024.55L1024.02 82H1021.8ZM1024.79 77.504H1026.55L1025.67 72.064L1024.79 77.504ZM1030.75 82V69.04H1032.4L1035.55 76.432V69.04H1037.5V82H1035.93L1032.77 74.256V82H1030.75ZM1042.72 82.176C1041.86 82.176 1041.19 81.9947 1040.68 81.632C1040.18 81.2693 1039.82 80.7573 1039.6 80.096C1039.38 79.424 1039.28 78.6347 1039.28 77.728V73.376C1039.28 72.448 1039.38 71.648 1039.6 70.976C1039.81 70.304 1040.18 69.792 1040.72 69.44C1041.26 69.0773 1042.01 68.896 1042.96 68.896C1043.84 68.896 1044.55 69.0453 1045.07 69.344C1045.59 69.6427 1045.96 70.0747 1046.19 70.64C1046.42 71.1947 1046.54 71.872 1046.54 72.672V73.344H1044.28V72.608C1044.28 72.192 1044.25 71.8347 1044.19 71.536C1044.13 71.2373 1044.02 71.0133 1043.84 70.864C1043.67 70.704 1043.38 70.624 1042.99 70.624C1042.57 70.624 1042.27 70.7253 1042.08 70.928C1041.89 71.1307 1041.78 71.3973 1041.72 71.728C1041.68 72.0587 1041.66 72.4213 1041.66 72.816V78.24C1041.66 78.688 1041.7 79.0773 1041.77 79.408C1041.85 79.7387 1041.99 79.9947 1042.19 80.176C1042.39 80.3467 1042.68 80.432 1043.05 80.432C1043.44 80.432 1043.73 80.336 1043.93 80.144C1044.13 79.952 1044.27 79.6853 1044.35 79.344C1044.43 79.0027 1044.48 78.5973 1044.48 78.128V76.912H1043.08V75.424H1046.6V82H1045.08L1044.91 80.72C1044.74 81.1467 1044.48 81.4987 1044.12 81.776C1043.78 82.0427 1043.31 82.176 1042.72 82.176ZM1047.75 82L1050.34 69.04H1052.87L1055.46 82H1053.27L1052.76 79.008H1050.5L1049.97 82H1047.75ZM1050.74 77.504H1052.5L1051.62 72.064L1050.74 77.504ZM1059.97 82.176C1059.19 82.176 1058.54 82.0267 1058.01 81.728C1057.49 81.4187 1057.1 80.9707 1056.83 80.384C1056.56 79.7973 1056.41 79.0773 1056.38 78.224L1058.41 77.824C1058.44 78.3253 1058.49 78.768 1058.59 79.152C1058.7 79.536 1058.85 79.8347 1059.05 80.048C1059.27 80.2507 1059.55 80.352 1059.89 80.352C1060.27 80.352 1060.54 80.24 1060.7 80.016C1060.86 79.7813 1060.94 79.488 1060.94 79.136C1060.94 78.5707 1060.81 78.1067 1060.56 77.744C1060.3 77.3813 1059.96 77.0187 1059.53 76.656L1057.9 75.216C1057.44 74.8213 1057.08 74.384 1056.8 73.904C1056.53 73.4133 1056.4 72.8107 1056.4 72.096C1056.4 71.072 1056.7 70.2827 1057.29 69.728C1057.89 69.1733 1058.71 68.896 1059.74 68.896C1060.35 68.896 1060.86 68.992 1061.26 69.184C1061.67 69.3653 1061.99 69.6213 1062.22 69.952C1062.47 70.2827 1062.65 70.6613 1062.77 71.088C1062.88 71.504 1062.96 71.9467 1062.99 72.416L1060.97 72.768C1060.95 72.3627 1060.91 72 1060.83 71.68C1060.77 71.36 1060.64 71.1093 1060.46 70.928C1060.29 70.7467 1060.04 70.656 1059.69 70.656C1059.34 70.656 1059.07 70.7733 1058.88 71.008C1058.7 71.232 1058.61 71.5147 1058.61 71.856C1058.61 72.2933 1058.7 72.656 1058.88 72.944C1059.06 73.2213 1059.32 73.5093 1059.66 73.808L1061.28 75.232C1061.81 75.68 1062.27 76.208 1062.64 76.816C1063.02 77.4133 1063.21 78.1387 1063.21 78.992C1063.21 79.6107 1063.08 80.16 1062.8 80.64C1062.53 81.12 1062.15 81.4987 1061.66 81.776C1061.18 82.0427 1060.62 82.176 1059.97 82.176Z" fill="black"/>
<g clip-path="url(#clip0)">
<path d="M1149.33 98.3167C1147.47 98.3167 1145.84 98.7043 1144.68 99.3245C1143.52 98.6268 1141.58 98.0841 1139.18 97.6964C1137.47 97.4639 1137.39 96.0684 1128.63 96.0684C1119.87 96.0684 1125.69 97.3863 1123.13 97.4639C1117.7 97.5414 1115.22 97.6964 1113.28 97.6964C1106.46 97.6964 1100.88 98.9369 1100.88 99.7122C1100.88 99.9448 1099.17 103.744 1100.02 103.976C1101.11 104.209 1107.16 100.953 1107.16 100.953C1108.94 101.108 1111.03 101.108 1113.28 101.108C1116.38 101.108 1120.65 101.03 1122.04 101.03C1123.44 101.03 1124.68 101.728 1122.82 101.883C1120.96 101.96 1120.96 101.96 1120.1 102.038C1116.61 102.271 1112.51 105.217 1112.51 105.682C1112.51 105.992 1119.33 104.441 1119.33 104.441C1124.14 105.217 1131.42 105.914 1136.77 105.914C1144.84 105.914 1144.84 104.131 1145.69 103.356C1146.7 103.744 1147.94 103.976 1149.33 103.976C1152.67 103.976 1155.38 102.736 1155.38 101.108C1155.38 99.6347 1152.74 98.3167 1149.33 98.3167Z" fill="#BABCBE"/>
<path d="M1098.09 103.589C1099.09 104.131 1101.42 104.441 1104.06 102.426C1106.07 100.875 1106.38 100.177 1106.38 99.092C1106.38 96.9987 1102.66 96.6111 1101.42 98.8594C1100.26 101.03 1096.15 102.503 1098.09 103.589Z" fill="white"/>
<path d="M1099.95 104.442C1099.02 104.442 1098.32 104.209 1097.85 103.976C1097.39 103.744 1097.16 103.434 1097.16 103.046C1097.08 102.348 1097.93 101.651 1098.94 100.875C1099.71 100.255 1100.64 99.5573 1101.11 98.782C1101.96 97.2315 1103.75 96.7663 1105.06 97.154C1106.15 97.4641 1106.85 98.2394 1106.85 99.1697C1106.85 100.41 1106.46 101.185 1104.37 102.814C1102.66 104.054 1101.11 104.442 1099.95 104.442ZM1098.24 103.279C1099.02 103.744 1101.26 104.131 1103.75 102.116C1105.68 100.565 1105.92 100.022 1105.92 99.0922C1105.92 98.2393 1105.14 97.9292 1104.75 97.8517C1103.75 97.6191 1102.35 97.9292 1101.73 99.0922C1101.26 100.022 1100.26 100.798 1099.4 101.496C1098.78 102.038 1097.93 102.658 1097.93 102.969C1098.01 103.046 1098.09 103.124 1098.24 103.279Z" fill="black"/>
<path d="M1112.2 105.604C1113.05 106.302 1114.99 106.147 1117.08 104.752C1118.71 103.666 1120.26 100.488 1119.48 99.7123C1117.24 97.1539 1114.99 98.7044 1114.37 101.185C1113.59 104.131 1110.49 104.209 1112.2 105.604Z" fill="white"/>
<path d="M1113.59 106.38C1112.89 106.38 1112.35 106.225 1111.96 105.915C1111.65 105.682 1111.27 105.372 1111.27 104.907C1111.27 104.364 1111.65 104.054 1112.2 103.589C1112.82 103.046 1113.67 102.348 1114.06 101.03C1114.44 99.4799 1115.45 98.317 1116.69 98.0069C1117.47 97.8518 1118.63 97.9294 1119.95 99.4024C1120.18 99.7125 1120.26 100.1 1120.18 100.643C1120.03 101.961 1118.79 104.132 1117.39 105.062C1115.92 105.992 1114.6 106.38 1113.59 106.38ZM1117.24 98.7046C1117.08 98.7046 1117 98.7046 1116.85 98.7822C1115.92 99.0148 1115.14 99.9451 1114.83 101.186C1114.44 102.736 1113.44 103.589 1112.74 104.132C1112.43 104.364 1112.12 104.674 1112.12 104.829C1112.12 104.829 1112.12 104.984 1112.51 105.217C1113.2 105.76 1114.99 105.605 1116.93 104.287C1118.09 103.511 1119.17 101.573 1119.33 100.41C1119.41 100.023 1119.33 99.8676 1119.25 99.79C1118.63 99.1698 1117.93 98.7046 1117.24 98.7046Z" fill="black"/>
<path d="M1106.85 51.8776L1115.61 68.5461C1115.61 68.5461 1116.93 67.8484 1118.55 65.445C1120.18 63.0416 1120.34 53.9709 1118.32 52.6529C1116.31 51.3349 1110.65 48.1562 1110.65 48.1562L1106.85 51.8776Z" fill="#DF846A"/>
<path d="M1115.45 69.1662L1106.38 51.7999L1110.64 47.6909L1110.88 47.846C1111.11 48.001 1116.54 51.0246 1118.55 52.3426C1120.03 53.3505 1120.18 57.4595 1120.18 58.6999C1120.18 61.0258 1119.87 64.2819 1118.86 65.755C1117.16 68.2359 1115.84 68.9336 1115.76 69.0111L1115.45 69.1662Z" fill="#AEC6F7" stroke="#111111" stroke-miterlimit="10"/>
<path d="M1111.96 52.265C1111.96 52.265 1110.49 48.6211 1110.65 47.1481C1110.8 45.5975 1110.65 40.1706 1109.17 39.2402C1106.46 37.5346 1102.74 39.4728 1102.74 41.8762C1102.74 44.7447 1103.44 48.6987 1104.75 49.1638C1106.07 49.629 1107.08 56.529 1107.08 56.529L1111.96 52.265Z" fill="#DF846A"/>
<path d="M1099.17 63.5843C1096.85 63.5843 1093.51 63.1967 1090.02 61.5686C1089.25 61.1809 1088.86 60.2506 1089.25 59.4753C1089.64 58.7 1090.57 58.3124 1091.34 58.7C1095.14 60.4832 1098.86 60.4832 1100.64 60.3281L1101.81 49.6293C1101.88 48.7764 1102.74 47.6911 1103.67 47.7686C1103.67 47.7686 1105.06 49.0866 1104.99 50.0169L1103.67 61.9562C1103.59 62.654 1103.05 63.1967 1102.43 63.3517C1102.27 63.3517 1101.03 63.5843 1099.17 63.5843Z" fill="black"/>
<path d="M1111.96 52.2653C1111.96 52.2653 1114.91 54.9788 1114.99 55.8316C1115.07 56.6844 1116.62 72.035 1114.68 73.1979C1112.74 74.2833 1108.17 72.1901 1105.53 70.4845C1103.51 69.0889 1103.13 66.763 1103.59 64.9799C1105.22 57.6923 1102.74 48.7766 1102.74 48.7766C1102.74 48.7766 1103.05 48.2339 1103.82 48.2339C1104.37 48.2339 1103.67 48.544 1104.75 49.1642C1104.75 49.1642 1106.07 49.1642 1106.07 49.5519C1106.07 50.3271 1106.23 51.6451 1107.55 52.4979C1109.48 53.7384 1111.96 52.2653 1111.96 52.2653Z" fill="white"/>
<path d="M1113.2 73.8956C1110.8 73.8956 1107.31 72.1899 1105.22 70.7944C1102.97 69.3214 1102.66 66.6854 1103.05 64.9023C1104.68 57.7697 1102.27 48.9315 1102.19 48.854L1102.12 48.6989L1102.19 48.5439C1102.19 48.4663 1102.5 48.0787 1103.13 47.8461C1103.28 47.8461 1103.36 47.7686 1103.51 47.7686C1103.9 47.6911 1103.82 48.4663 1104.44 48.9315C1104.99 49.3191 1106.3 49.4742 1106.3 49.6293C1106.3 50.327 1106.46 51.4124 1107.62 52.1102C1109.4 53.1956 1111.65 51.9551 1111.65 51.9551L1111.89 51.8L1112.12 52.0326C1112.82 52.6529 1115.14 54.9012 1115.22 55.8315V56.2191C1116.69 72.4225 1115.14 73.2753 1114.68 73.5079C1114.37 73.818 1113.82 73.8956 1113.2 73.8956ZM1103.51 50.6371C1104.13 53.7382 1105.06 59.7079 1103.9 65.0574C1103.51 66.6854 1103.82 68.8562 1105.68 70.0967C1108.71 72.1124 1112.89 73.7405 1114.44 72.8102C1114.68 72.6551 1115.92 71.1821 1114.6 56.2191V55.8315C1114.6 55.4439 1113.2 53.9708 1111.96 52.7304C1111.27 53.0405 1109.17 53.8933 1107.39 52.7304C1105.99 51.8776 1105.68 50.4045 1105.76 49.3967C1105.76 49.2416 1104.91 49.3191 1104.91 49.2416C1103.98 48.854 1103.36 49.7843 1103.51 50.6371Z" fill="black"/>
<path d="M1118.17 98.1614C1118.09 98.0838 1114.29 91.7265 1113.98 86.067C1113.67 79.9423 1115.76 77.849 1115.61 73.8175C1115.45 70.4063 1110.1 72.267 1106.46 70.1737C1105.3 69.5535 1103.67 68.0029 1103.67 68.0029C1103.2 70.2512 1100.88 81.7254 1101.19 85.0591C1101.42 87.54 1101.26 94.9827 1101.19 97.6187C1101.19 98.9366 1102.19 100.022 1103.51 100.1H1103.59C1104.91 100.1 1105.92 99.0917 1105.99 97.7737C1105.99 97.3861 1106.3 87.8501 1105.99 84.5939C1105.84 83.3535 1106.77 77.3838 1107.08 76.0659C1107.39 74.7479 1109.25 75.7557 1109.25 76.9962C1109.25 78.2366 1109.17 82.5007 1109.33 86.1445C1109.64 93.0445 1114.06 100.177 1114.21 100.487C1114.68 101.185 1115.45 101.65 1116.23 101.65C1116.69 101.65 1117.08 101.573 1117.47 101.262C1118.55 100.797 1118.86 99.3243 1118.17 98.1614Z" fill="#AEC6F7" stroke="#111111" stroke-miterlimit="10"/>
<path d="M1116.15 102.193C1115.14 102.193 1114.29 101.728 1113.75 100.875C1113.59 100.565 1109.17 93.2776 1108.78 86.3776C1108.71 83.354 1108.71 80.0203 1108.71 78.2371C1108.71 77.772 1108.71 77.4618 1108.71 77.1517C1108.71 76.5315 1108.09 75.9888 1107.7 75.9888C1107.54 75.9888 1107.39 75.9888 1107.39 76.2989C1107.08 77.6169 1106.23 83.509 1106.3 84.672C1106.61 87.8506 1106.38 96.8439 1106.3 97.9293C1106.23 99.4798 1105.06 100.643 1103.51 100.643C1101.88 100.565 1100.64 99.3248 1100.72 97.7742C1100.8 95.1382 1100.95 87.618 1100.72 85.2146C1100.41 81.9585 1102.58 71.2596 1103.2 68.0034L1103.36 67.3057L1103.9 67.7708C1103.9 67.7708 1105.53 69.2439 1106.61 69.8641C1108.09 70.6394 1109.79 70.872 1111.42 71.027C1113.75 71.2596 1115.92 71.4922 1115.99 73.818C1116.07 75.6787 1115.68 77.0742 1115.3 78.6248C1114.83 80.4854 1114.21 82.6562 1114.37 85.9899C1114.6 91.4944 1118.48 97.7742 1118.48 97.8517C1119.25 99.1697 1118.86 100.875 1117.55 101.651C1117.16 102.038 1116.69 102.193 1116.15 102.193ZM1107.62 75.2135C1107.7 75.2135 1107.7 75.2135 1107.78 75.2135C1108.63 75.2911 1109.56 76.1439 1109.56 77.1517C1109.56 77.3843 1109.56 77.772 1109.56 78.2371C1109.56 80.0203 1109.48 83.354 1109.64 86.3C1109.95 93.045 1114.29 100.178 1114.44 100.488C1114.83 101.108 1115.45 101.418 1116.15 101.418C1116.54 101.418 1116.85 101.34 1117.16 101.108C1118.09 100.565 1118.4 99.3248 1117.78 98.3944C1117.62 98.1618 1113.82 91.8045 1113.51 86.145C1113.36 82.6562 1113.9 80.4854 1114.44 78.5472C1114.83 76.9967 1115.22 75.6787 1115.14 73.9731C1115.06 72.4225 1113.67 72.1899 1111.27 71.9573C1109.64 71.8023 1107.78 71.5697 1106.23 70.7169C1105.45 70.2517 1104.44 69.4764 1103.9 68.9338C1103.2 72.1899 1101.26 82.1911 1101.57 85.2146C1101.81 87.6955 1101.65 95.2158 1101.57 97.8517C1101.57 98.9371 1102.43 99.8675 1103.51 99.8675C1104.68 99.8675 1105.53 99.0146 1105.53 97.9293C1105.53 96.9214 1105.76 87.9281 1105.53 84.827C1105.37 83.4315 1106.38 77.3843 1106.61 76.2214C1106.69 75.5236 1107.08 75.2135 1107.62 75.2135Z" fill="black"/>
<path d="M1094.29 62.5765L1089.95 60.0956L1087 52.7304C1086.92 52.4979 1087.15 52.2653 1087.39 52.4203L1090.72 54.281C1090.95 54.4361 1091.11 54.5911 1091.26 54.9012L1094.29 62.5765Z" fill="black"/>
<path d="M1090.1 60.7934C1089.87 60.7934 1089.56 60.7158 1089.32 60.5608C1088.08 59.5529 1087.46 57.8473 1087.62 55.8316C1087.7 55.2113 1088.24 54.6686 1088.94 54.7462C1089.56 54.8237 1090.1 55.3664 1090.02 56.0642C1089.94 56.917 1090.02 58.0799 1090.88 58.7001C1091.42 59.0878 1091.5 59.863 1091.03 60.4057C1090.72 60.6383 1090.41 60.7934 1090.1 60.7934Z" fill="#DF846A"/>
<path d="M1090.1 61.1808C1089.71 61.1808 1089.4 61.0257 1089.09 60.7932C1087.7 59.7078 1087 57.9246 1087.23 55.7538C1087.31 54.901 1088.08 54.2033 1088.94 54.2808C1089.79 54.3583 1090.49 55.1336 1090.41 55.9864C1090.33 56.7617 1090.41 57.7696 1091.11 58.3123C1091.42 58.5448 1091.65 58.9325 1091.73 59.3977C1091.81 59.7853 1091.65 60.2505 1091.42 60.5606C1091.03 60.9482 1090.57 61.1808 1090.1 61.1808ZM1088.78 55.1336C1088.39 55.1336 1088.01 55.4437 1088.01 55.8314C1087.85 57.692 1088.39 59.2426 1089.56 60.1729C1089.87 60.4055 1090.41 60.4055 1090.64 60.0179C1090.95 59.7078 1090.88 59.2426 1090.57 58.9325C1089.79 58.3123 1089.48 57.3044 1089.63 55.9864C1089.63 55.7538 1089.56 55.5988 1089.48 55.3662C1089.25 55.2111 1089.09 55.1336 1088.78 55.1336C1088.86 55.1336 1088.86 55.1336 1088.78 55.1336Z" fill="black"/>
<path d="M1112.74 80.4851C1112.51 80.4851 1112.35 80.4075 1112.12 80.33C1111.27 80.0199 1110.88 79.0896 1111.27 78.2368C1111.27 78.1592 1113.44 72.8873 1113.67 69.3986C1113.82 67.3053 1113.2 63.1188 1112.58 60.0177C1112.35 58.7772 1113.28 56.5289 1113.98 54.7457C1114.29 53.8929 1114.91 55.4435 1115.14 56.2963C1115.22 56.684 1117.16 65.6772 1116.85 69.6311C1116.54 73.6626 1114.29 79.2446 1114.21 79.4772C1113.98 80.0974 1113.36 80.4851 1112.74 80.4851Z" fill="black"/>
<path d="M1112.35 81.1055C1112.2 81.1055 1112.12 81.1055 1111.96 81.028C1111.34 80.7954 1111.03 80.1752 1111.19 79.4774L1111.5 78.4696C1111.73 77.8494 1112.35 77.5392 1113.05 77.6943C1113.67 77.9269 1113.98 78.5471 1113.82 79.2449L1113.51 80.2527C1113.36 80.7954 1112.89 81.1055 1112.35 81.1055Z" fill="#DF846A"/>
<path d="M1112.35 81.4933C1112.2 81.4933 1112.04 81.4933 1111.81 81.4158C1111.42 81.2607 1111.11 81.0281 1110.88 80.6405C1110.72 80.2529 1110.65 79.8652 1110.8 79.4001L1111.19 78.3922C1111.34 78.0045 1111.58 77.6944 1111.96 77.4619C1112.35 77.3068 1112.82 77.2293 1113.2 77.3843C1114.06 77.6944 1114.52 78.5472 1114.21 79.4001L1113.82 80.4079C1113.67 81.1057 1113.05 81.4933 1112.35 81.4933ZM1112.74 78.0821C1112.58 78.0821 1112.51 78.0821 1112.35 78.1596C1112.2 78.2371 1112.04 78.3922 1111.96 78.6248L1111.58 79.7102C1111.5 79.9427 1111.5 80.0978 1111.65 80.3304C1111.73 80.4854 1111.89 80.6405 1112.12 80.718C1112.51 80.8731 1112.97 80.6405 1113.13 80.2529L1113.51 79.1675C1113.59 78.9349 1113.59 78.7798 1113.44 78.5472C1113.36 78.3922 1113.2 78.2371 1112.97 78.1596C1112.89 78.0821 1112.82 78.0821 1112.74 78.0821Z" fill="black"/>
<path d="M1102.66 41.7988C1102.66 41.7988 1103.82 39.4729 1105.99 42.8842C1106.85 44.2021 1106.77 44.4347 1107.31 44.5898C1107.85 44.6673 1108.71 42.3415 1109.09 44.3572C1109.41 46.0628 1109.02 47.6134 1110.18 47.7684C1111.34 47.9235 1112.74 45.4426 1112.51 43.8145C1112.2 42.1864 1110.72 38.4651 1108.47 38.1549C1105.99 37.7673 1103.51 37.7673 1102.66 41.7988Z" fill="black"/>
<path d="M1113.51 66.375C1113.28 66.375 1113.05 66.2975 1112.89 66.1425C1111.03 64.1267 1109.71 60.8705 1109.71 58.0795C1109.71 54.9784 1111.81 52.575 1113.75 51.9548C1114.13 51.7998 1114.6 52.0323 1114.75 52.42C1114.91 52.8076 1114.68 53.2728 1114.29 53.4279C1112.82 53.893 1111.34 55.7537 1111.34 58.0795C1111.34 60.4829 1112.43 63.2739 1114.06 65.0571C1114.37 65.3672 1114.37 65.9099 1113.98 66.22C1113.9 66.2975 1113.67 66.375 1113.51 66.375Z" fill="#AEC6F7" stroke="#111111" stroke-miterlimit="10"/>
<path d="M1113.51 66.7628C1113.2 66.7628 1112.89 66.6077 1112.66 66.3751C1110.72 64.2819 1109.4 60.9481 1109.4 58.0796C1109.4 54.7459 1111.65 52.265 1113.67 51.5672C1114.29 51.3347 1114.99 51.7223 1115.22 52.3425C1115.3 52.6526 1115.3 52.9628 1115.14 53.2729C1114.99 53.583 1114.75 53.738 1114.44 53.8931C1113.13 54.3583 1111.81 56.0639 1111.81 58.1571C1111.81 60.483 1112.89 63.1189 1114.44 64.8246C1114.68 65.0571 1114.75 65.3673 1114.75 65.6774C1114.75 65.9875 1114.6 66.2976 1114.37 66.5302C1114.06 66.6852 1113.82 66.7628 1113.51 66.7628ZM1114.06 52.265C1113.98 52.265 1113.98 52.265 1113.9 52.265C1112.12 52.8852 1110.18 55.1335 1110.18 58.0021C1110.18 60.638 1111.42 63.8167 1113.2 65.7549C1113.36 65.9099 1113.59 65.9099 1113.75 65.7549C1113.82 65.6774 1113.9 65.5998 1113.9 65.4448C1113.9 65.3672 1113.9 65.2122 1113.82 65.1347C1112.12 63.274 1110.95 60.4055 1110.95 57.9246C1110.95 55.4437 1112.58 53.4279 1114.13 52.9628C1114.21 52.9628 1114.29 52.8852 1114.37 52.7302C1114.44 52.6526 1114.44 52.4976 1114.37 52.4201C1114.37 52.4201 1114.21 52.265 1114.06 52.265Z" fill="black"/>
<path d="M1104.13 60.4054C1102.89 58.4672 1102.12 56.0638 1102.12 53.893C1102.12 50.7919 1104.21 48.3885 1106.15 47.7683C1106.54 47.6132 1107 47.8458 1107.16 48.2335C1107.31 48.6211 1107.08 49.0863 1106.69 49.2413C1105.22 49.7065 1103.75 51.5672 1103.75 53.893C1103.75 54.7458 1103.9 55.5986 1104.13 56.4514V60.4054Z" fill="#AEC6F7" stroke="#111111" stroke-miterlimit="10"/>
<path d="M1103.98 60.9482C1102.58 58.9324 1101.73 56.219 1101.73 53.8931C1101.73 51.7223 1102.66 49.8617 1103.98 48.6987L1106.77 49.7066C1105.45 50.1718 1104.13 51.8774 1104.13 53.9706C1104.13 56.219 1104.29 61.4133 1103.98 60.9482ZM1104.68 49.0864C1103.51 50.0942 1102.51 51.8774 1102.51 53.8931C1102.51 55.4437 1102.89 57.1493 1103.59 58.6999C1103.75 59.01 1103.59 56.374 1103.44 55.5987C1103.36 55.056 1103.28 54.4358 1103.28 53.8931C1103.28 51.8774 1104.44 50.0942 1105.68 49.2414L1104.68 49.0864Z" fill="black"/>
<path d="M1111.96 52.7301C1111.81 52.7301 1111.65 52.6526 1111.58 52.4975C1111.5 52.3425 1110.03 48.7762 1110.26 47.1481C1110.49 45.2874 1110.18 40.3256 1108.94 39.5504C1107.47 38.62 1105.76 38.9301 1104.75 39.5504C1103.75 40.0931 1103.13 40.9459 1103.13 41.8762C1103.13 45.2099 1103.98 48.4661 1104.91 48.7762C1106.23 49.2413 1107.31 49.4739 1107.31 49.4739C1107.55 49.5515 1107.7 49.7065 1107.62 49.9391C1107.55 50.1717 1107.39 50.3267 1107.16 50.2492C1107.08 50.2492 1105.99 49.9391 1104.6 49.4739C1102.89 48.8537 1102.27 44.4346 1102.27 41.7987C1102.27 40.6358 1103.05 39.4728 1104.29 38.7751C1105.53 38.0773 1107.55 37.6897 1109.33 38.8526C1111.27 40.0155 1111.11 46.2953 1111.03 47.1481C1110.88 48.311 1111.96 51.102 1112.35 52.1099C1112.43 52.3425 1112.35 52.575 1112.12 52.6526C1112.04 52.6526 1112.04 52.7301 1111.96 52.7301Z" fill="black"/>
<path d="M1114.83 57.0717C1114.6 57.0717 1114.44 56.8391 1114.44 56.684C1114.6 53.893 1116.07 52.8076 1116.69 52.4975C1117.39 52.1099 1118.16 52.1099 1118.55 52.42C1118.71 52.575 1118.78 52.8076 1118.71 52.9627C1118.55 53.1177 1118.32 53.1953 1118.16 53.1177C1118.01 53.0402 1117.62 52.9627 1117.08 53.2728C1116.61 53.5054 1115.45 54.3582 1115.3 56.7616C1115.22 56.8391 1115.06 57.0717 1114.83 57.0717Z" fill="black"/>
</g>
<g filter="url(#filter2_d)">
<rect x="624" y="14" width="280" height="118" fill="white"/>
</g>
<path d="M662.203 82V69.04H664.571V80.368H667.707V82H662.203ZM668.874 82V69.04H674.314V70.704H671.242V74.432H673.658V76.08H671.242V80.368H674.346V82H668.874ZM678.982 82.176C678.204 82.176 677.553 82.0267 677.03 81.728C676.508 81.4187 676.113 80.9707 675.846 80.384C675.58 79.7973 675.43 79.0773 675.398 78.224L677.43 77.824C677.452 78.3253 677.51 78.768 677.606 79.152C677.713 79.536 677.868 79.8347 678.07 80.048C678.284 80.2507 678.561 80.352 678.902 80.352C679.286 80.352 679.558 80.24 679.718 80.016C679.878 79.7813 679.958 79.488 679.958 79.136C679.958 78.5707 679.83 78.1067 679.574 77.744C679.318 77.3813 678.977 77.0187 678.55 76.656L676.918 75.216C676.46 74.8213 676.092 74.384 675.814 73.904C675.548 73.4133 675.414 72.8107 675.414 72.096C675.414 71.072 675.713 70.2827 676.31 69.728C676.908 69.1733 677.724 68.896 678.758 68.896C679.366 68.896 679.873 68.992 680.278 69.184C680.684 69.3653 681.004 69.6213 681.238 69.952C681.484 70.2827 681.665 70.6613 681.782 71.088C681.9 71.504 681.974 71.9467 682.006 72.416L679.99 72.768C679.969 72.3627 679.921 72 679.846 71.68C679.782 71.36 679.66 71.1093 679.478 70.928C679.308 70.7467 679.052 70.656 678.71 70.656C678.358 70.656 678.086 70.7733 677.894 71.008C677.713 71.232 677.622 71.5147 677.622 71.856C677.622 72.2933 677.713 72.656 677.894 72.944C678.076 73.2213 678.337 73.5093 678.678 73.808L680.294 75.232C680.828 75.68 681.281 76.208 681.654 76.816C682.038 77.4133 682.23 78.1387 682.23 78.992C682.23 79.6107 682.092 80.16 681.814 80.64C681.548 81.12 681.169 81.4987 680.678 81.776C680.198 82.0427 679.633 82.176 678.982 82.176ZM687.39 82V69.04H690.574C691.15 69.04 691.667 69.0933 692.126 69.2C692.595 69.3067 692.995 69.488 693.326 69.744C693.667 69.9893 693.929 70.3253 694.11 70.752C694.291 71.1787 694.382 71.7173 694.382 72.368C694.382 72.8907 694.307 73.3387 694.158 73.712C694.019 74.0853 693.811 74.384 693.534 74.608C693.257 74.8213 692.91 74.9653 692.494 75.04C693.006 75.1253 693.427 75.3067 693.758 75.584C694.099 75.8507 694.35 76.2027 694.51 76.64C694.681 77.0773 694.766 77.6053 694.766 78.224C694.766 78.8427 694.686 79.392 694.526 79.872C694.377 80.3413 694.147 80.736 693.838 81.056C693.539 81.3653 693.161 81.6 692.702 81.76C692.254 81.92 691.726 82 691.118 82H687.39ZM689.758 80.336H690.654C691.369 80.336 691.854 80.1653 692.11 79.824C692.366 79.472 692.494 78.9333 692.494 78.208C692.494 77.6853 692.43 77.264 692.302 76.944C692.185 76.6133 691.982 76.368 691.694 76.208C691.417 76.048 691.043 75.968 690.574 75.968H689.758V80.336ZM689.758 74.336H690.558C691.027 74.336 691.39 74.2667 691.646 74.128C691.902 73.9893 692.078 73.776 692.174 73.488C692.281 73.2 692.334 72.8373 692.334 72.4C692.334 71.9413 692.254 71.5893 692.094 71.344C691.945 71.088 691.715 70.9173 691.406 70.832C691.097 70.736 690.702 70.688 690.222 70.688H689.758V74.336ZM695.625 82L698.217 69.04H700.745L703.337 82H701.145L700.633 79.008H698.377L697.849 82H695.625ZM698.617 77.504H700.377L699.497 72.064L698.617 77.504ZM704.578 82V69.04H706.226L709.378 76.432V69.04H711.33V82H709.762L706.594 74.256V82H704.578ZM713.296 82V69.04H716.352C717.408 69.04 718.23 69.184 718.816 69.472C719.414 69.76 719.835 70.2027 720.08 70.8C720.336 71.3973 720.464 72.1547 720.464 73.072V77.808C720.464 78.7467 720.336 79.5307 720.08 80.16C719.835 80.7787 719.419 81.2427 718.832 81.552C718.256 81.8507 717.462 82 716.448 82H713.296ZM715.664 80.352H716.384C716.928 80.352 717.318 80.256 717.552 80.064C717.787 79.872 717.931 79.5947 717.984 79.232C718.038 78.8587 718.064 78.4053 718.064 77.872V72.912C718.064 72.3893 718.027 71.968 717.952 71.648C717.878 71.328 717.723 71.0933 717.488 70.944C717.254 70.7947 716.875 70.72 716.352 70.72H715.664V80.352ZM722.203 82V69.04H727.643V70.704H724.571V74.432H726.987V76.08H724.571V80.368H727.675V82H722.203ZM732.31 82.176C731.532 82.176 730.881 82.0267 730.358 81.728C729.836 81.4187 729.441 80.9707 729.174 80.384C728.908 79.7973 728.758 79.0773 728.726 78.224L730.758 77.824C730.78 78.3253 730.838 78.768 730.934 79.152C731.041 79.536 731.196 79.8347 731.398 80.048C731.612 80.2507 731.889 80.352 732.23 80.352C732.614 80.352 732.886 80.24 733.046 80.016C733.206 79.7813 733.286 79.488 733.286 79.136C733.286 78.5707 733.158 78.1067 732.902 77.744C732.646 77.3813 732.305 77.0187 731.878 76.656L730.246 75.216C729.788 74.8213 729.42 74.384 729.142 73.904C728.876 73.4133 728.742 72.8107 728.742 72.096C728.742 71.072 729.041 70.2827 729.638 69.728C730.236 69.1733 731.052 68.896 732.086 68.896C732.694 68.896 733.201 68.992 733.606 69.184C734.012 69.3653 734.332 69.6213 734.566 69.952C734.812 70.2827 734.993 70.6613 735.11 71.088C735.228 71.504 735.302 71.9467 735.334 72.416L733.318 72.768C733.297 72.3627 733.249 72 733.174 71.68C733.11 71.36 732.988 71.1093 732.806 70.928C732.636 70.7467 732.38 70.656 732.038 70.656C731.686 70.656 731.414 70.7733 731.222 71.008C731.041 71.232 730.95 71.5147 730.95 71.856C730.95 72.2933 731.041 72.656 731.222 72.944C731.404 73.2213 731.665 73.5093 732.006 73.808L733.622 75.232C734.156 75.68 734.609 76.208 734.982 76.816C735.366 77.4133 735.558 78.1387 735.558 78.992C735.558 79.6107 735.42 80.16 735.142 80.64C734.876 81.12 734.497 81.4987 734.006 81.776C733.526 82.0427 732.961 82.176 732.31 82.176ZM740.718 82V69.04H743.774C744.83 69.04 745.652 69.184 746.238 69.472C746.836 69.76 747.257 70.2027 747.502 70.8C747.758 71.3973 747.886 72.1547 747.886 73.072V77.808C747.886 78.7467 747.758 79.5307 747.502 80.16C747.257 80.7787 746.841 81.2427 746.254 81.552C745.678 81.8507 744.884 82 743.87 82H740.718ZM743.086 80.352H743.806C744.35 80.352 744.74 80.256 744.974 80.064C745.209 79.872 745.353 79.5947 745.406 79.232C745.46 78.8587 745.486 78.4053 745.486 77.872V72.912C745.486 72.3893 745.449 71.968 745.374 71.648C745.3 71.328 745.145 71.0933 744.91 70.944C744.676 70.7947 744.297 70.72 743.774 70.72H743.086V80.352ZM749.624 82V69.04H755.064V70.704H751.992V74.432H754.408V76.08H751.992V80.368H755.096V82H749.624ZM759.732 82.176C758.954 82.176 758.303 82.0267 757.78 81.728C757.258 81.4187 756.863 80.9707 756.596 80.384C756.33 79.7973 756.18 79.0773 756.148 78.224L758.18 77.824C758.202 78.3253 758.26 78.768 758.356 79.152C758.463 79.536 758.618 79.8347 758.82 80.048C759.034 80.2507 759.311 80.352 759.652 80.352C760.036 80.352 760.308 80.24 760.468 80.016C760.628 79.7813 760.708 79.488 760.708 79.136C760.708 78.5707 760.58 78.1067 760.324 77.744C760.068 77.3813 759.727 77.0187 759.3 76.656L757.668 75.216C757.21 74.8213 756.842 74.384 756.564 73.904C756.298 73.4133 756.164 72.8107 756.164 72.096C756.164 71.072 756.463 70.2827 757.06 69.728C757.658 69.1733 758.474 68.896 759.508 68.896C760.116 68.896 760.623 68.992 761.028 69.184C761.434 69.3653 761.754 69.6213 761.988 69.952C762.234 70.2827 762.415 70.6613 762.532 71.088C762.65 71.504 762.724 71.9467 762.756 72.416L760.74 72.768C760.719 72.3627 760.671 72 760.596 71.68C760.532 71.36 760.41 71.1093 760.228 70.928C760.058 70.7467 759.802 70.656 759.46 70.656C759.108 70.656 758.836 70.7733 758.644 71.008C758.463 71.232 758.372 71.5147 758.372 71.856C758.372 72.2933 758.463 72.656 758.644 72.944C758.826 73.2213 759.087 73.5093 759.428 73.808L761.044 75.232C761.578 75.68 762.031 76.208 762.404 76.816C762.788 77.4133 762.98 78.1387 762.98 78.992C762.98 79.6107 762.842 80.16 762.564 80.64C762.298 81.12 761.919 81.4987 761.428 81.776C760.948 82.0427 760.383 82.176 759.732 82.176ZM767.513 82.176C766.735 82.176 766.084 82.0267 765.561 81.728C765.039 81.4187 764.644 80.9707 764.377 80.384C764.111 79.7973 763.961 79.0773 763.929 78.224L765.961 77.824C765.983 78.3253 766.041 78.768 766.137 79.152C766.244 79.536 766.399 79.8347 766.601 80.048C766.815 80.2507 767.092 80.352 767.433 80.352C767.817 80.352 768.089 80.24 768.249 80.016C768.409 79.7813 768.489 79.488 768.489 79.136C768.489 78.5707 768.361 78.1067 768.105 77.744C767.849 77.3813 767.508 77.0187 767.081 76.656L765.449 75.216C764.991 74.8213 764.623 74.384 764.345 73.904C764.079 73.4133 763.945 72.8107 763.945 72.096C763.945 71.072 764.244 70.2827 764.841 69.728C765.439 69.1733 766.255 68.896 767.289 68.896C767.897 68.896 768.404 68.992 768.809 69.184C769.215 69.3653 769.535 69.6213 769.769 69.952C770.015 70.2827 770.196 70.6613 770.313 71.088C770.431 71.504 770.505 71.9467 770.537 72.416L768.521 72.768C768.5 72.3627 768.452 72 768.377 71.68C768.313 71.36 768.191 71.1093 768.009 70.928C767.839 70.7467 767.583 70.656 767.241 70.656C766.889 70.656 766.617 70.7733 766.425 71.008C766.244 71.232 766.153 71.5147 766.153 71.856C766.153 72.2933 766.244 72.656 766.425 72.944C766.607 73.2213 766.868 73.5093 767.209 73.808L768.825 75.232C769.359 75.68 769.812 76.208 770.185 76.816C770.569 77.4133 770.761 78.1387 770.761 78.992C770.761 79.6107 770.623 80.16 770.345 80.64C770.079 81.12 769.7 81.4987 769.209 81.776C768.729 82.0427 768.164 82.176 767.513 82.176ZM772.095 82V69.04H774.431V82H772.095ZM776.437 82V69.04H778.085L781.237 76.432V69.04H783.189V82H781.621L778.453 74.256V82H776.437ZM785.156 82V69.04H790.596V70.704H787.524V74.432H789.94V76.08H787.524V80.368H790.628V82H785.156ZM787.268 68.144L788.244 64.944H790.436L788.532 68.144H787.268ZM791.999 82V69.04H797.439V70.704H794.367V74.432H796.783V76.08H794.367V80.368H797.471V82H791.999ZM802.107 82.176C801.329 82.176 800.678 82.0267 800.155 81.728C799.633 81.4187 799.238 80.9707 798.971 80.384C798.705 79.7973 798.555 79.0773 798.523 78.224L800.555 77.824C800.577 78.3253 800.635 78.768 800.731 79.152C800.838 79.536 800.993 79.8347 801.195 80.048C801.409 80.2507 801.686 80.352 802.027 80.352C802.411 80.352 802.683 80.24 802.843 80.016C803.003 79.7813 803.083 79.488 803.083 79.136C803.083 78.5707 802.955 78.1067 802.699 77.744C802.443 77.3813 802.102 77.0187 801.675 76.656L800.043 75.216C799.585 74.8213 799.217 74.384 798.939 73.904C798.673 73.4133 798.539 72.8107 798.539 72.096C798.539 71.072 798.838 70.2827 799.435 69.728C800.033 69.1733 800.849 68.896 801.883 68.896C802.491 68.896 802.998 68.992 803.403 69.184C803.809 69.3653 804.129 69.6213 804.363 69.952C804.609 70.2827 804.79 70.6613 804.907 71.088C805.025 71.504 805.099 71.9467 805.131 72.416L803.115 72.768C803.094 72.3627 803.046 72 802.971 71.68C802.907 71.36 802.785 71.1093 802.603 70.928C802.433 70.7467 802.177 70.656 801.835 70.656C801.483 70.656 801.211 70.7733 801.019 71.008C800.838 71.232 800.747 71.5147 800.747 71.856C800.747 72.2933 800.838 72.656 801.019 72.944C801.201 73.2213 801.462 73.5093 801.803 73.808L803.419 75.232C803.953 75.68 804.406 76.208 804.779 76.816C805.163 77.4133 805.355 78.1387 805.355 78.992C805.355 79.6107 805.217 80.16 804.939 80.64C804.673 81.12 804.294 81.4987 803.803 81.776C803.323 82.0427 802.758 82.176 802.107 82.176Z" fill="black"/>
<path d="M834.4 65.6904V75.3904L853 86.0904V76.3904L834.4 65.6904Z" fill="#AEC6F7" stroke="#111111" stroke-miterlimit="10"/>
<path d="M866.9 68.1902L853 76.3903L834.4 65.6902L848.4 57.4902L866.9 68.1902Z" fill="#AEC6F7" stroke="#111111" stroke-miterlimit="10"/>
<path d="M866.9 71.5901L853 79.7901L834.4 68.9901L848.4 60.8901L866.9 71.5901Z" fill="white"/>
<path d="M848.4 57.0903L834 65.4903V75.6903L853 86.6903L867.4 78.2903V68.0903L848.4 57.0903ZM852.6 85.3904L834.8 75.0903V66.2903L852.6 76.5903V85.3904ZM835.1 65.6903L848.3 57.9903L866.1 68.2903L852.9 75.9903L835.1 65.6903Z" fill="#15110E"/>
<path d="M853 86.0902V91.3903L835.4 81.1902V75.9902L853 86.0902Z" fill="#AEC6F7" stroke="#111111" stroke-miterlimit="10"/>
<path d="M853 85.6905L835 75.2905V81.4905L853.1 91.8905L865.6 84.5905V78.2905L853 85.6905ZM835.8 80.9905V76.5905L852.6 86.2905L852.7 90.6905L835.8 80.9905Z" fill="#15110E"/>
<path d="M852.801 86.2903V85.3903L865.401 77.9902V78.8903L852.801 86.2903Z" fill="#AEC6F7"/>
<path d="M858.2 72.9901L840.1 62.5901L840.5 61.8901L858.9 72.4901L858.2 72.9901Z" fill="#15110E"/>
<path d="M857.601 89.1902L856.801 89.6902L858.201 82.2903V72.9902L858.901 72.4902V82.3903L857.601 89.1902Z" fill="#AEC6F7"/>
<path d="M858.501 66.2905C858.301 65.7905 857.901 65.1905 856.801 64.9905C855.401 64.6905 854.001 66.1906 853.101 67.3906C853.101 66.9906 853.101 66.6905 853.101 66.2905C853.001 65.1905 851.401 63.3905 850.101 63.2905C849.701 63.1905 848.901 63.2905 848.501 64.4905C847.701 66.7905 851.001 68.6905 852.101 69.2905L852.001 69.4905L852.501 69.5905L852.901 69.7905V69.6905C853.401 69.6905 854.201 69.7905 855.001 69.7905C856.201 69.7905 857.401 69.6905 857.801 69.1905C858.401 68.2905 858.801 67.1905 858.501 66.2905ZM849.201 64.5905C849.401 63.9905 849.701 63.8906 849.901 63.8906H850.001C851.001 63.9906 852.301 65.4905 852.301 66.1905C852.401 66.9905 852.301 67.7906 852.201 68.3906C851.001 67.6906 848.701 65.9905 849.201 64.5905ZM857.301 68.3906C856.901 68.7906 855.001 68.7905 853.201 68.6905C853.901 67.4905 855.401 65.4905 856.701 65.6905C857.301 65.7905 857.701 66.0905 857.801 66.4905C858.001 67.0905 857.701 67.9906 857.301 68.3906Z" fill="#15110E"/>
<path d="M853.799 72.0902C853.499 72.0902 853.199 71.9902 852.799 71.8902C851.799 71.3902 852.099 70.5902 852.299 70.0902C852.399 69.8902 852.499 69.5902 852.399 69.4902C852.399 69.3902 852.199 69.3902 852.099 69.2902C851.399 69.0902 850.799 69.0902 850.299 69.2902C849.599 69.6902 849.399 70.4902 849.399 70.4902L848.699 70.2902C848.699 70.2902 848.999 69.0902 849.999 68.5902C850.699 68.1902 851.499 68.1902 852.399 68.4902C852.799 68.5902 853.099 68.7902 853.199 69.0902C853.399 69.4902 853.299 69.8902 853.099 70.2902C852.899 70.8902 852.899 70.9902 853.199 71.0902C854.299 71.5902 854.999 70.6902 855.099 70.5902L855.699 71.0902C855.299 71.5902 854.699 72.0902 853.799 72.0902Z" fill="#15110E"/>
<path d="M859.914 65.7903C859.914 65.7903 860.014 68.1902 857.414 68.4902C855.514 68.6902 854.214 69.0902 853.914 69.1902C853.814 69.1902 853.514 68.9902 853.514 68.9902L853.414 67.7903C853.414 67.7903 855.214 66.9902 855.314 66.9902C855.414 66.9902 856.814 67.0902 857.514 66.6902C858.114 66.2902 857.914 65.6902 857.714 65.1902C857.414 64.6902 857.914 64.4902 857.914 64.4902L859.714 65.3903L859.814 65.4902C859.714 65.3902 859.814 65.5903 859.914 65.7903Z" fill="#AEC6F7"/>
<path d="M853.913 69.4902C853.813 69.4902 853.713 69.4903 853.713 69.3903C853.613 69.3903 853.313 69.1902 853.213 68.9902V68.8903L853.113 67.3903L853.313 67.2903C855.113 66.4903 855.213 66.4902 855.313 66.4902H855.413C856.713 66.5902 857.213 66.3903 857.313 66.2903C857.613 66.0903 857.713 65.8902 857.413 65.1902C857.213 64.8902 857.313 64.5902 857.313 64.4902C857.413 64.1902 857.713 64.0902 857.713 64.0902L857.813 63.9902L859.813 64.9902L859.913 65.0902C860.113 65.2902 860.213 65.4902 860.213 65.6902C860.213 65.6902 860.313 68.3902 857.413 68.6902C855.513 68.8902 854.313 69.2903 854.013 69.3903L853.913 69.4902ZM853.813 68.6902C853.813 68.6902 853.913 68.6903 853.913 68.7903C854.313 68.5903 855.613 68.2902 857.413 68.0902C859.513 67.8902 859.613 65.9903 859.613 65.7903C859.613 65.6903 859.513 65.5902 859.413 65.4902L857.913 64.6902C857.913 64.6902 857.913 64.7903 857.913 64.8903C858.113 65.1903 858.613 66.1903 857.613 66.7903C857.213 67.0903 856.413 67.1902 855.313 67.0902C855.113 67.1902 854.413 67.4903 853.713 67.7903L853.813 68.6902Z" fill="#15110E"/>
<path d="M859.813 65.4903C858.913 63.8903 855.013 67.2903 854.413 68.7903C854.213 69.0903 853.713 69.2903 853.313 69.0903L852.613 68.7903C852.613 68.7903 853.113 64.3903 856.213 63.6903C858.613 63.1903 859.813 65.4903 859.813 65.4903Z" fill="white"/>
<path d="M853.713 69.4901C853.513 69.4901 853.413 69.4901 853.213 69.3901L852.312 68.9901V68.7901C852.312 68.5901 852.812 64.1901 856.112 63.4901C858.612 62.8901 859.913 65.2901 860.013 65.4901L859.412 65.7901C859.312 65.6901 859.212 65.4901 858.912 65.4901C857.612 65.5901 855.112 67.8901 854.612 68.9901C854.512 69.2901 854.113 69.4901 853.713 69.4901ZM853.013 68.5901L853.412 68.7901C853.712 68.8901 854.013 68.7901 854.013 68.6901C854.513 67.3901 857.113 64.9901 858.713 64.7901C858.213 64.2901 857.313 63.7901 856.213 64.0901C853.813 64.5901 853.113 67.6901 853.013 68.5901Z" fill="#15110E"/>
<path d="M846.311 65.5902C846.311 65.5902 846.211 68.0903 848.611 68.3903C850.411 68.5903 851.611 68.9902 851.911 69.0902C852.011 69.0902 852.311 68.8903 852.311 68.7903L852.411 67.4902C852.411 67.4902 850.911 66.9902 850.811 66.9902C850.711 66.9902 849.111 66.7903 848.611 66.3903C848.011 65.9903 848.211 65.3903 848.411 64.7903C848.711 64.1903 848.211 63.9902 848.211 63.9902L846.511 64.8903L846.411 64.9902C846.411 65.1902 846.311 65.3902 846.311 65.5902Z" fill="#AEC6F7"/>
<path d="M851.912 69.49H851.812C851.512 69.39 850.412 68.99 848.612 68.79C846.412 68.49 845.912 66.59 846.012 65.69C846.012 65.49 846.112 65.19 846.312 64.99L846.512 64.79L848.312 63.79L848.412 63.89C848.412 63.89 848.712 63.99 848.812 64.29C848.912 64.49 848.912 64.69 848.812 64.99C848.512 65.69 848.612 65.99 848.912 66.19C849.412 66.49 850.812 66.69 851.012 66.69C851.112 66.69 851.112 66.69 852.712 67.29L852.912 67.39L852.812 68.99C852.712 69.19 852.312 69.39 852.312 69.39C852.112 69.39 852.012 69.49 851.912 69.49ZM846.612 65.59C846.612 65.79 846.612 67.79 848.712 67.99C850.412 68.19 851.512 68.49 852.012 68.69C852.012 68.69 852.112 68.69 852.112 68.59L852.212 67.69C851.612 67.49 851.012 67.29 850.912 67.29C850.912 67.29 849.212 67.09 848.512 66.69C847.612 66.09 848.112 64.99 848.212 64.69C848.212 64.59 848.312 64.49 848.212 64.49L846.812 65.29C846.712 65.39 846.612 65.49 846.612 65.59Z" fill="#15110E"/>
<path d="M846.412 65.2903C847.312 63.5903 850.912 67.1903 851.512 68.6903C851.712 69.0903 852.112 69.1903 852.512 68.9903L853.112 68.6903C853.112 68.6903 852.712 64.0903 849.712 63.3903C847.512 62.8903 846.412 65.2903 846.412 65.2903Z" fill="white"/>
<path d="M852.112 69.4902C852.012 69.4902 851.912 69.4903 851.712 69.3903C851.412 69.2903 851.212 69.0903 851.112 68.8903C850.612 67.6903 848.312 65.1902 847.112 65.1902C846.912 65.1902 846.712 65.2902 846.612 65.4902L846.012 65.1902C846.412 64.2902 847.812 62.5902 849.712 63.0902C852.812 63.8902 853.312 68.4902 853.312 68.6902V68.8903L852.512 69.2903C852.412 69.3903 852.312 69.4902 852.112 69.4902ZM847.312 64.5902C848.912 64.7902 851.312 67.4902 851.812 68.6902C851.812 68.7902 851.912 68.7903 852.012 68.8903C852.112 68.8903 852.212 68.8903 852.412 68.8903L852.812 68.6902C852.712 67.7902 852.012 64.4903 849.712 63.8903C848.512 63.4903 847.812 63.9902 847.312 64.5902Z" fill="#15110E"/>
<path d="M854.013 68.8901C854.013 68.7901 854.013 68.7901 854.013 68.6901C854.013 68.4901 853.813 67.8901 853.113 67.8901C852.413 67.8901 852.213 68.3901 852.113 68.5901C852.113 68.6901 852.113 68.7901 852.113 68.7901C852.213 68.9901 852.413 69.1901 852.713 69.1901H853.413C853.713 69.2901 853.913 69.0901 854.013 68.8901Z" fill="#14100D"/>
<path d="M853.412 69.5902H852.713C852.313 69.5902 851.913 69.2903 851.812 68.8903C851.812 68.6903 851.812 68.5902 851.812 68.4902C851.913 67.8902 852.412 67.4902 853.112 67.4902C853.912 67.4902 854.312 68.0902 854.312 68.5902C854.312 68.6902 854.312 68.7903 854.312 68.8903C854.213 69.3903 853.812 69.5902 853.412 69.5902ZM853.112 68.1902C852.712 68.1902 852.512 68.3902 852.412 68.6902V68.7903C852.412 68.8903 852.613 68.9902 852.713 68.9902H853.412C853.512 68.9902 853.713 68.8903 853.713 68.7903C853.713 68.7903 853.713 68.7902 853.713 68.6902C853.713 68.1902 853.212 68.1902 853.112 68.1902Z" fill="#15110E"/>
<g filter="url(#filter3_d)">
<rect x="319" y="14" width="280" height="118" fill="white"/>
</g>
<path d="M368.506 82.176C367.332 82.176 366.452 81.8453 365.866 81.184C365.29 80.5227 364.975 79.536 364.922 78.224L366.954 77.824C366.986 78.6453 367.114 79.2747 367.338 79.712C367.572 80.1387 367.935 80.352 368.426 80.352C368.788 80.352 369.055 80.2453 369.226 80.032C369.407 79.808 369.498 79.5093 369.498 79.136C369.498 78.624 369.38 78.192 369.146 77.84C368.922 77.4773 368.564 77.0827 368.074 76.656L366.442 75.232C365.94 74.8053 365.562 74.3467 365.306 73.856C365.06 73.3653 364.938 72.7787 364.938 72.096C364.938 71.0827 365.231 70.2987 365.818 69.744C366.415 69.1787 367.236 68.896 368.282 68.896C369.402 68.896 370.202 69.216 370.682 69.856C371.172 70.4853 371.455 71.3387 371.53 72.416L369.498 72.768C369.466 72.064 369.364 71.536 369.194 71.184C369.034 70.8213 368.714 70.64 368.234 70.64C367.892 70.64 367.626 70.7573 367.434 70.992C367.242 71.216 367.146 71.504 367.146 71.856C367.146 72.272 367.226 72.624 367.386 72.912C367.556 73.1893 367.828 73.488 368.202 73.808L369.818 75.232C370.426 75.7547 370.9 76.3147 371.242 76.912C371.583 77.5093 371.754 78.2027 371.754 78.992C371.754 79.6107 371.615 80.16 371.338 80.64C371.071 81.12 370.692 81.4987 370.202 81.776C369.711 82.0427 369.146 82.176 368.506 82.176ZM376.636 82.176C375.292 82.176 374.337 81.8027 373.772 81.056C373.217 80.2987 372.94 79.232 372.94 77.856V73.232C372.94 71.8133 373.217 70.736 373.772 70C374.327 69.264 375.281 68.896 376.636 68.896C377.905 68.896 378.807 69.216 379.34 69.856C379.873 70.496 380.14 71.4187 380.14 72.624V73.712H377.868V72.592C377.868 72.1333 377.847 71.776 377.804 71.52C377.761 71.2533 377.649 71.04 377.468 70.88C377.297 70.7093 377.025 70.624 376.652 70.624C376.268 70.624 375.98 70.7147 375.788 70.896C375.596 71.0667 375.468 71.3013 375.404 71.6C375.351 71.888 375.324 72.2667 375.324 72.736V78.352C375.324 79.088 375.42 79.6213 375.612 79.952C375.804 80.272 376.151 80.432 376.652 80.432C377.015 80.432 377.281 80.3467 377.452 80.176C377.633 80.0053 377.745 79.7813 377.788 79.504C377.841 79.216 377.868 78.8373 377.868 78.368V77.2H380.14V78.24C380.14 79.488 379.879 80.4587 379.356 81.152C378.833 81.8347 377.927 82.176 376.636 82.176ZM381.853 69.04H384.189V82H381.853V69.04ZM386.195 69.04H391.635V70.704H388.547V74.432H390.979V76.08H388.547V80.384H391.667V82H386.195V69.04ZM393.039 69.04H394.687L397.839 76.432V69.04H399.791V82H398.223L395.055 74.256V82H393.039V69.04ZM405.245 82.176C403.901 82.176 402.947 81.8027 402.381 81.056C401.827 80.2987 401.549 79.232 401.549 77.856V73.232C401.549 71.8133 401.827 70.736 402.381 70C402.936 69.264 403.891 68.896 405.245 68.896C406.515 68.896 407.416 69.216 407.949 69.856C408.483 70.496 408.749 71.4187 408.749 72.624V73.712H406.477V72.592C406.477 72.1333 406.456 71.776 406.413 71.52C406.371 71.2533 406.259 71.04 406.077 70.88C405.907 70.7093 405.635 70.624 405.261 70.624C404.877 70.624 404.589 70.7147 404.397 70.896C404.205 71.0667 404.077 71.3013 404.013 71.6C403.96 71.888 403.933 72.2667 403.933 72.736V78.352C403.933 79.088 404.029 79.6213 404.221 79.952C404.413 80.272 404.76 80.432 405.261 80.432C405.624 80.432 405.891 80.3467 406.061 80.176C406.243 80.0053 406.355 79.7813 406.397 79.504C406.451 79.216 406.477 78.8373 406.477 78.368V77.2H408.749V78.24C408.749 79.488 408.488 80.4587 407.965 81.152C407.443 81.8347 406.536 82.176 405.245 82.176ZM410.398 69.04H415.838V70.704H412.75V74.432H415.182V76.08H412.75V80.384H415.87V82H410.398V69.04ZM420.506 82.176C419.332 82.176 418.452 81.8453 417.866 81.184C417.29 80.5227 416.975 79.536 416.922 78.224L418.954 77.824C418.986 78.6453 419.114 79.2747 419.338 79.712C419.572 80.1387 419.935 80.352 420.426 80.352C420.788 80.352 421.055 80.2453 421.226 80.032C421.407 79.808 421.498 79.5093 421.498 79.136C421.498 78.624 421.38 78.192 421.146 77.84C420.922 77.4773 420.564 77.0827 420.074 76.656L418.442 75.232C417.94 74.8053 417.562 74.3467 417.306 73.856C417.06 73.3653 416.938 72.7787 416.938 72.096C416.938 71.0827 417.231 70.2987 417.818 69.744C418.415 69.1787 419.236 68.896 420.282 68.896C421.402 68.896 422.202 69.216 422.682 69.856C423.172 70.4853 423.455 71.3387 423.53 72.416L421.498 72.768C421.466 72.064 421.364 71.536 421.194 71.184C421.034 70.8213 420.714 70.64 420.234 70.64C419.892 70.64 419.626 70.7573 419.434 70.992C419.242 71.216 419.146 71.504 419.146 71.856C419.146 72.272 419.226 72.624 419.386 72.912C419.556 73.1893 419.828 73.488 420.202 73.808L421.818 75.232C422.426 75.7547 422.9 76.3147 423.242 76.912C423.583 77.5093 423.754 78.2027 423.754 78.992C423.754 79.6107 423.615 80.16 423.338 80.64C423.071 81.12 422.692 81.4987 422.202 81.776C421.711 82.0427 421.146 82.176 420.506 82.176ZM428.975 76.016H432.831V77.504H428.975V76.016ZM441.881 82.176C440.707 82.176 439.827 81.8453 439.241 81.184C438.665 80.5227 438.35 79.536 438.297 78.224L440.329 77.824C440.361 78.6453 440.489 79.2747 440.713 79.712C440.947 80.1387 441.31 80.352 441.801 80.352C442.163 80.352 442.43 80.2453 442.601 80.032C442.782 79.808 442.873 79.5093 442.873 79.136C442.873 78.624 442.755 78.192 442.521 77.84C442.297 77.4773 441.939 77.0827 441.449 76.656L439.817 75.232C439.315 74.8053 438.937 74.3467 438.681 73.856C438.435 73.3653 438.313 72.7787 438.313 72.096C438.313 71.0827 438.606 70.2987 439.193 69.744C439.79 69.1787 440.611 68.896 441.657 68.896C442.777 68.896 443.577 69.216 444.057 69.856C444.547 70.4853 444.83 71.3387 444.905 72.416L442.873 72.768C442.841 72.064 442.739 71.536 442.569 71.184C442.409 70.8213 442.089 70.64 441.609 70.64C441.267 70.64 441.001 70.7573 440.809 70.992C440.617 71.216 440.521 71.504 440.521 71.856C440.521 72.272 440.601 72.624 440.761 72.912C440.931 73.1893 441.203 73.488 441.577 73.808L443.193 75.232C443.801 75.7547 444.275 76.3147 444.617 76.912C444.958 77.5093 445.129 78.2027 445.129 78.992C445.129 79.6107 444.99 80.16 444.713 80.64C444.446 81.12 444.067 81.4987 443.577 81.776C443.086 82.0427 442.521 82.176 441.881 82.176ZM448.396 69.04H450.924L453.516 82H451.324L450.812 79.008H448.556L448.028 82H445.804L448.396 69.04ZM450.556 77.504L449.676 72.064L448.796 77.504H450.556ZM453.727 69.04H455.807L457.519 78.208L459.135 69.04H461.263L458.655 82H456.335L453.727 69.04ZM465.981 82.176C464.637 82.176 463.677 81.8187 463.101 81.104C462.525 80.3787 462.237 79.3227 462.237 77.936V73.072C462.237 71.696 462.525 70.656 463.101 69.952C463.677 69.248 464.637 68.896 465.981 68.896C467.314 68.896 468.269 69.248 468.845 69.952C469.421 70.656 469.709 71.696 469.709 73.072V77.936C469.709 79.312 469.415 80.3627 468.829 81.088C468.253 81.8133 467.303 82.176 465.981 82.176ZM465.981 80.432C466.503 80.432 466.855 80.2667 467.037 79.936C467.218 79.6053 467.309 79.1253 467.309 78.496V72.528C467.309 71.8987 467.218 71.424 467.037 71.104C466.866 70.784 466.514 70.624 465.981 70.624C465.447 70.624 465.09 70.7893 464.909 71.12C464.727 71.44 464.637 71.9093 464.637 72.528V78.496C464.637 79.1253 464.727 79.6053 464.909 79.936C465.09 80.2667 465.447 80.432 465.981 80.432ZM471.524 69.04H473.86V82H471.524V69.04ZM475.867 69.04H478.987C480.352 69.04 481.371 69.3013 482.043 69.824C482.715 70.336 483.051 71.2213 483.051 72.48C483.051 73.3013 482.928 73.9733 482.683 74.496C482.448 75.008 482.037 75.3813 481.451 75.616L483.259 82H480.891L479.339 76.064H478.219V82H475.867V69.04ZM478.971 74.592C479.643 74.592 480.117 74.4373 480.395 74.128C480.683 73.8187 480.827 73.312 480.827 72.608C480.827 71.9253 480.699 71.4293 480.443 71.12C480.197 70.8107 479.749 70.656 479.099 70.656H478.219V74.592H478.971ZM488.068 82.176C486.895 82.176 486.015 81.8453 485.428 81.184C484.852 80.5227 484.537 79.536 484.484 78.224L486.516 77.824C486.548 78.6453 486.676 79.2747 486.9 79.712C487.135 80.1387 487.497 80.352 487.988 80.352C488.351 80.352 488.617 80.2453 488.788 80.032C488.969 79.808 489.06 79.5093 489.06 79.136C489.06 78.624 488.943 78.192 488.708 77.84C488.484 77.4773 488.127 77.0827 487.636 76.656L486.004 75.232C485.503 74.8053 485.124 74.3467 484.868 73.856C484.623 73.3653 484.5 72.7787 484.5 72.096C484.5 71.0827 484.793 70.2987 485.38 69.744C485.977 69.1787 486.799 68.896 487.844 68.896C488.964 68.896 489.764 69.216 490.244 69.856C490.735 70.4853 491.017 71.3387 491.092 72.416L489.06 72.768C489.028 72.064 488.927 71.536 488.756 71.184C488.596 70.8213 488.276 70.64 487.796 70.64C487.455 70.64 487.188 70.7573 486.996 70.992C486.804 71.216 486.708 71.504 486.708 71.856C486.708 72.272 486.788 72.624 486.948 72.912C487.119 73.1893 487.391 73.488 487.764 73.808L489.38 75.232C489.988 75.7547 490.463 76.3147 490.804 76.912C491.145 77.5093 491.316 78.2027 491.316 78.992C491.316 79.6107 491.177 80.16 490.9 80.64C490.633 81.12 490.255 81.4987 489.764 81.776C489.273 82.0427 488.708 82.176 488.068 82.176Z" fill="black"/>
<g clip-path="url(#clip1)">
<path d="M522.226 99.8033L522.24 99.8151L522.249 99.83C522.253 99.8358 522.272 99.8544 522.347 99.8735C522.406 99.8881 522.478 99.8983 522.567 99.9109C522.587 99.9135 522.608 99.9167 522.63 99.9198C522.858 99.9525 523.156 100.004 523.439 100.18C523.663 100.295 523.839 100.513 523.976 100.698C524.009 100.744 524.039 100.786 524.067 100.825C524.101 100.872 524.132 100.916 524.165 100.959C524.221 101.033 524.261 101.077 524.289 101.097C525.891 101.998 526.811 101.976 527.467 101.617C527.589 101.543 527.641 101.443 527.64 101.317C527.639 101.181 527.575 101.002 527.432 100.792C527.147 100.374 526.581 99.8803 525.779 99.4286L525.771 99.4244L525.764 99.4191C525.729 99.3927 525.703 99.3566 525.682 99.3239C525.661 99.2893 525.641 99.2493 525.623 99.2058C525.585 99.1195 525.549 99.0106 525.513 98.8899C525.443 98.6575 525.372 98.3678 525.302 98.0823C525.299 98.0708 525.297 98.0595 525.294 98.048C525.22 97.7491 525.148 97.4573 525.079 97.2322C525.044 97.1194 525.011 97.0275 524.98 96.9621C524.965 96.9291 524.952 96.9064 524.941 96.8917C524.938 96.8875 524.936 96.8846 524.934 96.8828C524.265 96.596 523.599 96.4054 523.032 96.3264C522.467 96.2476 522.025 96.2822 521.769 96.4149C521.769 96.4151 521.768 96.4151 521.768 96.4154C521.762 96.4287 521.754 96.4507 521.744 96.4829C521.726 96.5468 521.709 96.636 521.692 96.7457C521.659 96.9639 521.634 97.2477 521.613 97.5363C521.573 98.1137 521.557 98.6981 521.557 98.7923C521.557 98.8868 521.607 99.0415 521.724 99.2294C521.838 99.4131 522.008 99.6154 522.226 99.8033ZM521.773 96.4067C521.773 96.4062 521.774 96.406 521.774 96.406C521.774 96.406 521.773 96.4062 521.773 96.4067Z" fill="white" stroke="black"/>
<path d="M520.641 94.8881L520.646 94.8902L520.65 94.8928C522.26 95.8635 523.374 95.9012 524.028 95.5431C524.172 95.4641 524.23 95.3631 524.237 95.2448C524.244 95.115 524.189 94.943 524.053 94.7329C523.784 94.3149 523.234 93.8056 522.463 93.2879C521.657 92.8328 521.026 92.0393 520.521 91.4043C520.502 91.3797 520.482 91.3556 520.463 91.3316C520.201 91.0021 519.978 90.7278 519.779 90.5582C519.575 90.3847 519.447 90.3627 519.346 90.4182L519.336 90.4237L519.325 90.4276C519.325 90.4273 519.325 90.4276 519.324 90.4284C519.318 90.4315 519.298 90.4438 519.26 90.4768C519.218 90.5129 519.165 90.5647 519.105 90.6304C518.985 90.7615 518.841 90.9434 518.703 91.1578C518.424 91.5899 518.18 92.1358 518.18 92.654C518.18 92.7715 518.194 92.8982 518.265 93.0471C518.336 93.1981 518.47 93.3803 518.72 93.6007L518.723 93.6035L518.726 93.6067C518.835 93.7158 518.99 93.7894 519.183 93.8621C519.231 93.8802 519.281 93.898 519.333 93.9168C519.483 93.9702 519.646 94.0286 519.797 94.1045L519.809 94.1108L519.82 94.1194C519.969 94.239 520.105 94.3845 520.226 94.5146C520.244 94.5342 520.262 94.5536 520.28 94.5724C520.421 94.7229 520.536 94.8349 520.641 94.8881Z" fill="white" stroke="black"/>
<path d="M528.378 69.3428H528.378H528.379H528.379H528.379H528.38H528.38H528.381H528.381H528.382H528.382H528.382H528.383H528.383H528.383H528.384H528.384H528.385H528.385H528.385H528.386H528.386H528.387H528.387H528.388H528.388H528.388H528.389H528.389H528.39H528.39H528.39H528.391H528.391H528.392H528.392H528.393H528.393H528.393H528.394H528.394H528.395H528.395H528.396H528.396H528.396H528.397H528.397H528.398H528.398H528.399H528.399H528.4H528.4H528.4H528.401H528.401H528.402H528.402H528.403H528.403H528.404H528.404H528.405H528.405H528.406H528.406H528.406H528.407H528.407H528.408H528.408H528.409H528.409H528.41H528.41H528.411H528.411H528.412H528.412H528.413H528.413H528.414H528.414H528.415H528.415H528.416H528.416H528.416H528.417H528.417H528.418H528.418H528.419H528.42H528.42H528.42H528.421H528.421H528.422H528.422H528.423H528.423H528.424H528.425H528.425H528.426H528.426H528.426H528.427H528.427H528.428H528.428H528.429H528.43H528.43H528.431H528.431H528.432H528.432H528.433H528.433H528.434H528.434H528.435H528.435H528.436H528.436H528.437H528.437H528.438H528.438H528.439H528.439H528.44H528.441H528.441H528.442H528.442H528.443H528.443H528.444H528.444H528.445H528.445H528.446H528.446H528.447H528.447H528.448H528.448H528.449H528.449H528.45H528.451H528.451H528.452H528.452H528.453H528.453H528.454H528.454H528.455H528.455H528.456H528.457H528.457H528.458H528.458H528.459H528.459H528.46H528.46H528.461H528.462H528.462H528.463H528.463H528.464H528.464H528.465H528.465H528.466H528.467H528.467H528.468H528.468H528.469H528.469H528.47H528.47H528.471H528.471H528.472H528.473H528.473H528.474H528.474H528.475H528.475H528.476H528.477H528.477H528.478H528.478H528.479H528.479H528.48H528.481H528.481H528.482H528.482H528.483H528.483H528.484H528.485H528.485H528.486H528.486H528.487H528.487H528.488H528.489H528.489H528.49H528.49H528.491H528.491H528.492H528.492H528.493H528.494H528.494H528.495H528.495H528.496H528.496H528.497H528.497H528.498H528.499H528.499H528.5H528.5H528.501H528.502H528.502H528.503H528.503H528.504H528.505H528.505H528.506H528.506H528.507H528.507H528.508H528.508H528.509H528.51H528.51H528.511H528.511H528.512H528.512H528.513H528.513H528.514H528.515H528.515H528.516H528.516H528.517H528.518H528.518H528.519H528.519H528.52H528.52H528.521H528.522H528.522H528.523H528.523H528.524H528.524H528.525H528.526H528.526H528.527H528.527H528.528H528.528H528.529H528.529H528.53H528.531H528.531H528.532H528.532H528.533H528.533H528.534H528.535H528.535H528.536H528.536H528.537H528.537H528.538H528.539H528.539H528.54H528.54H528.541H528.541H528.542H528.543H528.543H528.544H528.544H528.545H528.545H528.546H528.547H528.547H528.548H528.548H528.549H528.549H528.55H528.55H528.551H528.552H528.552H528.553H528.553H528.554H528.554H528.555H528.555H528.556H528.556H528.557H528.558H528.558H528.559H528.559H528.56H528.56H528.561H528.561H528.562H528.562H528.563H528.564H528.564H528.565H528.565H528.566H528.566H528.567H528.567H528.568H528.568H528.569H528.569H528.57H528.57H528.571H528.571H528.572H528.572H528.573H528.574H528.574H528.575H528.575H528.576H528.576H528.577H528.577H528.578H528.579H528.579H528.58H528.58H528.58H528.581H528.581H528.582H528.582H528.583H528.584H528.584H528.585H528.585H528.586H528.586H528.587H528.587H528.588H528.588H528.589H528.589H528.59H528.59H528.591H528.591H528.592H528.592H528.593H528.593H528.594H528.594H528.595H528.595H528.596H528.596H528.597H528.597H528.598H528.598H528.599H528.599H528.6H528.6H528.601H528.601H528.602H528.602H528.603H528.603H528.603H528.604H528.604H528.605H528.606H528.606H528.606H528.607H528.607H528.608H528.608H528.609H528.609H528.61H528.61H528.611H528.611H528.612H528.612H528.612H528.613H528.613H528.614H528.614H528.615H528.615H528.616H528.616H528.617H528.617H528.617H528.618H528.618H528.619H528.619H528.62H528.62H528.62H528.621H528.622H528.622H528.622H528.623H528.623H528.624H528.624H528.624H528.625H528.625H528.625C529.261 69.2203 529.73 68.5754 529.613 67.8654C529.459 67.1221 528.93 65.7583 528.418 64.435C528.399 64.3863 528.38 64.3377 528.361 64.289C528.097 63.6079 527.843 62.9466 527.654 62.4022C527.56 62.1301 527.481 61.8852 527.426 61.6806C527.372 61.4805 527.338 61.3078 527.337 61.1832C527.297 59.9432 527.136 55.736 527.016 52.6331C526.941 50.6724 526.883 49.1527 526.883 49.1011C526.883 48.4488 526.348 47.8539 525.702 47.7949C525.072 47.7373 524.478 48.2571 524.416 48.9758C524.417 49.1115 524.451 50.0399 524.499 51.3382C524.532 52.2326 524.571 53.3026 524.611 54.41C524.708 57.143 524.806 60.1007 524.806 61.181C524.806 61.5013 524.929 62.0222 525.129 62.6592C525.327 63.2909 525.593 64.0205 525.869 64.7506C525.976 65.0317 526.083 65.3133 526.189 65.5892C526.357 66.0281 526.519 66.4526 526.662 66.8381C526.892 67.4639 527.075 67.9999 527.142 68.3383C527.259 68.9279 527.789 69.3428 528.378 69.3428Z" fill="white" stroke="black"/>
<path d="M529.223 69.4741C529.288 69.4741 529.352 69.4741 529.418 69.4087C529.807 69.2781 530.002 68.8863 529.872 68.56L529.418 67.1885C529.352 66.8622 528.963 66.6662 528.573 66.7968C528.183 66.9274 527.988 67.3191 528.118 67.6458L528.573 69.0169C528.638 69.2781 528.963 69.4741 529.223 69.4741Z" fill="#DF846A"/>
<path d="M529.223 69.8657C529.353 69.8657 529.418 69.8657 529.548 69.8002C530.067 69.6045 530.392 69.0166 530.197 68.4942L529.743 67.1231C529.548 66.6007 528.963 66.2741 528.443 66.4701C527.923 66.6659 527.599 67.2537 527.794 67.7761L528.248 69.1472C528.378 69.539 528.768 69.8657 529.223 69.8657ZM528.768 67.1231C528.833 67.1231 528.898 67.1231 528.898 67.1883C528.963 67.2537 529.028 67.3189 529.093 67.3843L529.548 68.7554C529.613 68.9515 529.483 69.1472 529.353 69.1472C529.158 69.2127 528.963 69.0821 528.963 68.9515L528.508 67.5801C528.443 67.3843 528.573 67.1883 528.703 67.1883C528.703 67.1231 528.768 67.1231 528.768 67.1231Z" fill="black"/>
<path d="M519.348 51.3214C519.348 52.4314 522.141 52.6926 523.181 52.6926C524.22 52.6926 525.78 49.2319 525.78 48.1218C525.78 47.0118 524.61 47.3382 523.571 47.3382C522.531 47.3382 519.348 50.2113 519.348 51.3214Z" fill="#DF846A"/>
<path d="M520.712 92.9809C521.297 92.9809 521.882 92.6543 522.206 92.1319C522.336 91.9361 524.87 87.6918 525.715 85.994C526.429 84.5575 526.819 81.358 527.404 76.1995C527.534 75.0895 527.664 73.9793 527.794 72.9348C527.924 72.0206 527.274 71.1064 526.3 71.041C525.39 70.9104 524.48 71.5634 524.415 72.543C524.285 73.5878 524.155 74.6977 524.026 75.8077C523.636 79.0072 523.116 83.4475 522.661 84.4923C521.882 86.0595 519.348 90.3038 519.348 90.3689C518.828 91.1525 519.088 92.2625 519.932 92.7197C520.062 92.9155 520.387 92.9809 520.712 92.9809Z" fill="#111111"/>
<path d="M523.246 98.1392C523.246 98.1392 523.246 98.0738 523.246 98.1392C524.221 98.4004 525 97.9432 524.935 97.0293C524.935 96.6375 524.74 88.0183 524.091 84.2962C523.441 80.5091 520.777 73.3916 520.712 73.0653C520.387 72.1511 519.413 71.6939 518.503 72.0857C517.594 72.4123 517.139 73.3916 517.529 74.3058C517.529 74.3713 520.193 81.4233 520.777 84.884C521.362 88.4098 521.557 96.5721 521.557 96.6375C521.557 97.4863 522.272 97.8126 523.246 98.1392Z" fill="#111111"/>
<path d="M518.307 64.9034C515.774 68.1029 515.514 75.2204 515.514 82.9254C515.514 85.1455 520.127 83.3823 523.83 80.9012C527.013 78.8117 529.287 76.6569 529.287 74.7631C529.287 66.6012 525.974 65.034 525.974 60.9202C525.974 56.8718 527.858 56.2842 527.858 53.3458C527.858 51.7134 527.468 49.8198 527.208 48.5138C527.013 47.665 526.039 47.2079 525.259 47.665C525.259 47.665 525.779 50.538 523.57 51.844C521.296 53.1499 519.022 51.4522 519.022 51.4522C517.788 51.9746 517.008 53.4111 517.008 53.4111C517.658 56.1536 519.997 62.8139 518.307 64.9034Z" fill="#AEC6F7" stroke="#111111" stroke-miterlimit="10"/>
<path d="M524.652 66.5674L524.652 66.5668C524.452 66.3855 524.256 66.2086 524.064 66.0353C523.29 65.337 522.584 64.6995 521.983 64.0885C521.232 63.3261 520.636 62.5958 520.269 61.8258C520.082 61.4489 519.941 60.9032 519.835 60.271C519.729 59.6356 519.655 58.9024 519.606 58.1449C519.509 56.6297 519.509 55.0094 519.541 53.864V53.8604L519.541 53.8569C519.601 53.1466 519.073 52.562 518.373 52.562C517.711 52.562 517.075 53.0443 517.075 53.7371V53.7436L517.074 53.75C517.042 54.069 516.961 55.7439 517.05 57.657C517.095 58.6129 517.182 59.6256 517.338 60.5564C517.494 61.489 517.719 62.3308 518.035 62.9499L518.036 62.9511C518.643 64.1713 519.734 65.3993 520.755 66.3925C521.519 67.1366 522.233 67.7391 522.67 68.1078C522.817 68.2316 522.933 68.3293 523.008 68.3968L523.017 68.4041L523.023 68.4127C523.248 68.6951 523.525 68.7551 523.83 68.7551C524.182 68.7551 524.473 68.641 524.774 68.3395C525.242 67.8077 525.184 67.0426 524.652 66.5674Z" fill="white" stroke="black"/>
<path d="M519.088 51.3216C519.088 51.3216 520.582 49.2974 520.712 47.665C520.907 46.0325 520.452 43.7471 520.322 42.5065C520.192 41.2659 519.932 39.1763 522.791 38.8499C525.78 38.5887 526.949 40.0905 527.014 42.1147C527.014 44.1389 526.169 46.4896 525.39 47.4038C524.61 48.3179 523.116 48.3832 523.116 48.3832L519.088 51.3216Z" fill="#DF846A"/>
<path d="M527.209 42.0492C525.844 43.9428 523.505 42.9633 523.505 42.9633C522.791 45.0528 521.946 52.3008 520.452 53.215C518.308 54.4556 516.684 51.6478 516.684 51.6478C516.684 51.6478 519.152 50.5378 519.347 46.4894C519.542 42.4409 518.438 41.2003 520.387 38.9149C521.361 37.8049 523.311 37.9355 524.22 38.1314C527.274 38.719 527.729 41.3309 527.209 42.0492Z" fill="black"/>
<path d="M518.243 73.6052L514.216 71.2547C514.215 71.2547 514.215 71.2544 514.215 71.2544C513.48 70.8234 513.059 69.9668 513.301 69.1178L513.302 69.1136L513.303 69.1091L513.952 66.0402L518.243 73.6052ZM518.243 73.6052L518.245 73.6062L518.243 73.6052ZM518.243 73.6052L518.245 73.6062L518.243 73.6052ZM518.245 73.6062C519.138 74.1449 520.342 73.6075 520.583 72.579L518.245 73.6062ZM518.245 73.6062L520.583 72.579L518.245 73.6062ZM520.583 72.579C520.583 72.5787 520.583 72.5785 520.583 72.5785V72.579ZM520.583 72.579V72.5785V72.579ZM520.583 72.5785L521.167 69.9691C521.167 69.9689 521.167 69.9686 521.168 69.9683C521.351 69.1078 520.984 68.1855 520.189 67.6927L515.839 65.2132C515.068 64.7968 514.128 65.2168 513.953 66.0402L520.583 72.5785Z" fill="white" stroke="black"/>
<path d="M517.528 70.3227C517.788 70.3227 518.113 70.2573 518.373 70.1921C519.282 69.8655 520.127 68.8862 520.517 67.7108L519.867 67.515C519.542 68.4944 518.892 69.2779 518.113 69.5391C517.593 69.7349 517.073 69.6697 516.488 69.3434C515.124 68.5598 514.929 67.319 515.774 65.0991L515.124 64.8379C514.474 66.5354 513.955 68.6904 516.099 69.9961C516.618 70.2573 517.073 70.3227 517.528 70.3227Z" fill="black"/>
<path d="M515.125 58.8958C515.71 55.3698 516.165 52.3008 517.334 51.5826C517.659 51.3867 517.984 51.3867 518.309 51.5173C520.258 52.3008 521.232 58.5041 521.557 63.5972C521.557 63.9237 520.843 63.2055 520.778 62.7484C520.388 57.9817 519.413 52.6926 518.049 52.1703C517.919 52.105 517.789 52.105 517.659 52.1703C516.749 52.6926 516.23 56.0228 515.775 58.9611C515.385 61.4424 514.995 64.0543 514.281 65.6213L513.631 65.3601C514.346 63.8584 514.735 61.3771 515.125 58.8958Z" fill="black"/>
<path d="M521.102 67.058C521.102 66.6662 521.752 67.4497 521.752 67.8415C521.752 68.4945 521.687 69.0824 521.687 69.5393L521.037 69.4741C521.102 68.8212 521.102 68.0376 521.102 67.058Z" fill="black"/>
<path d="M525.845 70.1922C526.04 70.1922 526.235 70.127 526.365 69.931C526.625 69.6046 526.56 69.2128 526.235 68.9516L525.39 67.972C525.39 67.972 526.43 67.8414 526.235 67.4496C526.04 67.0578 524.611 66.7315 523.701 67.7762C523.442 68.0374 523.311 68.6904 523.571 68.9516L525.39 69.9964C525.521 70.127 525.715 70.1922 525.845 70.1922Z" fill="#DF846A"/>
<path d="M525.846 70.5187C526.171 70.5187 526.496 70.3881 526.691 70.1269C526.885 69.9311 526.95 69.6045 526.885 69.3436C526.885 69.0824 526.691 68.8212 526.496 68.6252L526.106 68.1682C526.366 68.1028 526.561 67.9722 526.626 67.7764C526.691 67.6458 526.691 67.4498 526.626 67.254C526.496 66.9928 526.106 66.7968 525.586 66.7316C525.196 66.6662 524.287 66.6662 523.507 67.4498C523.247 67.711 523.117 68.1028 523.117 68.4946C523.117 68.7557 523.247 68.9518 523.442 69.1475L525.261 70.2575C525.326 70.4535 525.586 70.5187 525.846 70.5187ZM525.716 67.5804C525.586 67.6458 525.456 67.6458 525.326 67.6458C525.196 67.6458 525.066 67.7764 525.066 67.907C525.001 68.0376 525.066 68.1682 525.131 68.2334L525.976 69.213C526.106 69.2781 526.106 69.4087 526.171 69.4742C526.171 69.5393 526.171 69.6699 526.106 69.7351C526.041 69.8005 525.976 69.8657 525.846 69.8657C525.781 69.8657 525.716 69.8657 525.651 69.8005L523.767 68.6252C523.767 68.6252 523.767 68.6252 523.767 68.56C523.767 68.364 523.832 68.1682 523.962 68.0376C524.417 67.5152 525.001 67.4498 525.326 67.5152C525.456 67.5152 525.651 67.5152 525.716 67.5804Z" fill="black"/>
<path d="M530.261 66.4577L529.207 73.6076L524.051 71.7971L525.105 64.6587L530.261 66.4577Z" fill="#AEC6F7" stroke="#161515" stroke-width="0.5" stroke-miterlimit="10"/>
<path d="M530.263 66.458L531.398 65.4839L530.389 72.588L529.209 73.6079L530.263 66.458Z" fill="black" stroke="#161515" stroke-width="0.5" stroke-miterlimit="10"/>
<path d="M525.105 64.6589L526.286 63.6392L531.396 65.4839L530.262 66.458L525.105 64.6589Z" fill="#AEC6F7" stroke="#161515" stroke-width="0.5" stroke-miterlimit="10"/>
<path d="M526.137 63.7769L525.289 64.4987L530.228 66.2519L531.007 65.5414L526.137 63.7769Z" fill="white" stroke="#161515" stroke-width="0.5" stroke-miterlimit="10"/>
<path d="M521.192 69.6833C521.338 68.9549 520.9 73.4708 519.732 74.0535C518.564 74.6362 516.519 73.0338 517.834 73.9078" stroke="black" stroke-linecap="round" stroke-linejoin="round"/>
</g>
<defs>
<filter id="filter0_d" x="0" y="0" width="316" height="154" filterUnits="userSpaceOnUse" color-interpolation-filters="sRGB">
<feFlood flood-opacity="0" result="BackgroundImageFix"/>
<feColorMatrix in="SourceAlpha" type="matrix" values="0 0 0 0 0 0 0 0 0 0 0 0 0 0 0 0 0 0 127 0"/>
<feMorphology radius="4" operator="dilate" in="SourceAlpha" result="effect1_dropShadow"/>
<feOffset dx="4" dy="4"/>
<feGaussianBlur stdDeviation="7"/>
<feColorMatrix type="matrix" values="0 0 0 0 0 0 0 0 0 0 0 0 0 0 0 0 0 0 0.07 0"/>
<feBlend mode="normal" in2="BackgroundImageFix" result="effect1_dropShadow"/>
<feBlend mode="normal" in="SourceGraphic" in2="effect1_dropShadow" result="shape"/>
</filter>
<filter id="filter1_d" x="915" y="0" width="316" height="154" filterUnits="userSpaceOnUse" color-interpolation-filters="sRGB">
<feFlood flood-opacity="0" result="BackgroundImageFix"/>
<feColorMatrix in="SourceAlpha" type="matrix" values="0 0 0 0 0 0 0 0 0 0 0 0 0 0 0 0 0 0 127 0"/>
<feMorphology radius="4" operator="dilate" in="SourceAlpha" result="effect1_dropShadow"/>
<feOffset dx="4" dy="4"/>
<feGaussianBlur stdDeviation="7"/>
<feColorMatrix type="matrix" values="0 0 0 0 0 0 0 0 0 0 0 0 0 0 0 0 0 0 0.07 0"/>
<feBlend mode="normal" in2="BackgroundImageFix" result="effect1_dropShadow"/>
<feBlend mode="normal" in="SourceGraphic" in2="effect1_dropShadow" result="shape"/>
</filter>
<filter id="filter2_d" x="610" y="0" width="316" height="154" filterUnits="userSpaceOnUse" color-interpolation-filters="sRGB">
<feFlood flood-opacity="0" result="BackgroundImageFix"/>
<feColorMatrix in="SourceAlpha" type="matrix" values="0 0 0 0 0 0 0 0 0 0 0 0 0 0 0 0 0 0 127 0"/>
<feMorphology radius="4" operator="dilate" in="SourceAlpha" result="effect1_dropShadow"/>
<feOffset dx="4" dy="4"/>
<feGaussianBlur stdDeviation="7"/>
<feColorMatrix type="matrix" values="0 0 0 0 0 0 0 0 0 0 0 0 0 0 0 0 0 0 0.07 0"/>
<feBlend mode="normal" in2="BackgroundImageFix" result="effect1_dropShadow"/>
<feBlend mode="normal" in="SourceGraphic" in2="effect1_dropShadow" result="shape"/>
</filter>
<filter id="filter3_d" x="305" y="0" width="316" height="154" filterUnits="userSpaceOnUse" color-interpolation-filters="sRGB">
<feFlood flood-opacity="0" result="BackgroundImageFix"/>
<feColorMatrix in="SourceAlpha" type="matrix" values="0 0 0 0 0 0 0 0 0 0 0 0 0 0 0 0 0 0 127 0"/>
<feMorphology radius="4" operator="dilate" in="SourceAlpha" result="effect1_dropShadow"/>
<feOffset dx="4" dy="4"/>
<feGaussianBlur stdDeviation="7"/>
<feColorMatrix type="matrix" values="0 0 0 0 0 0 0 0 0 0 0 0 0 0 0 0 0 0 0.07 0"/>
<feBlend mode="normal" in2="BackgroundImageFix" result="effect1_dropShadow"/>
<feBlend mode="normal" in="SourceGraphic" in2="effect1_dropShadow" result="shape"/>
</filter>
<clipPath id="clip0">
<rect width="69" height="69" fill="white" transform="translate(1087 38)"/>
</clipPath>
<clipPath id="clip1">
<rect width="101" height="67" fill="white" transform="translate(492 38)"/>
</clipPath>
</defs>
</svg>
