<svg width="316" height="154" viewBox="0 0 316 154" fill="none" xmlns="http://www.w3.org/2000/svg">
<g filter="url(#filter0_d)">
<rect x="14" y="14" width="280" height="118" fill="white"/>
</g>
<path d="M68.3901 69.04H70.7421V80.384H73.8941V82H68.3901V69.04ZM75.1244 69.04H80.5644V70.704H77.4764V74.432H79.9084V76.08H77.4764V80.384H80.5964V82H75.1244V69.04ZM85.2322 82.176C84.0589 82.176 83.1789 81.8453 82.5922 81.184C82.0162 80.5227 81.7015 79.536 81.6482 78.224L83.6802 77.824C83.7122 78.6453 83.8402 79.2747 84.0642 79.712C84.2989 80.1387 84.6615 80.352 85.1522 80.352C85.5149 80.352 85.7815 80.2453 85.9522 80.032C86.1335 79.808 86.2242 79.5093 86.2242 79.136C86.2242 78.624 86.1069 78.192 85.8722 77.84C85.6482 77.4773 85.2909 77.0827 84.8002 76.656L83.1682 75.232C82.6669 74.8053 82.2882 74.3467 82.0322 73.856C81.7869 73.3653 81.6642 72.7787 81.6642 72.096C81.6642 71.0827 81.9575 70.2987 82.5442 69.744C83.1415 69.1787 83.9629 68.896 85.0082 68.896C86.1282 68.896 86.9282 69.216 87.4082 69.856C87.8989 70.4853 88.1815 71.3387 88.2562 72.416L86.2242 72.768C86.1922 72.064 86.0909 71.536 85.9202 71.184C85.7602 70.8213 85.4402 70.64 84.9602 70.64C84.6189 70.64 84.3522 70.7573 84.1602 70.992C83.9682 71.216 83.8722 71.504 83.8722 71.856C83.8722 72.272 83.9522 72.624 84.1122 72.912C84.2829 73.1893 84.5549 73.488 84.9282 73.808L86.5442 75.232C87.1522 75.7547 87.6269 76.3147 87.9682 76.912C88.3095 77.5093 88.4802 78.2027 88.4802 78.992C88.4802 79.6107 88.3415 80.16 88.0642 80.64C87.7975 81.12 87.4189 81.4987 86.9282 81.776C86.4375 82.0427 85.8722 82.176 85.2322 82.176ZM97.3011 82.176C95.9571 82.176 94.9971 81.8187 94.4211 81.104C93.8451 80.3787 93.5571 79.3227 93.5571 77.936V73.072C93.5571 71.696 93.8451 70.656 94.4211 69.952C94.9971 69.248 95.9571 68.896 97.3011 68.896C98.6344 68.896 99.5891 69.248 100.165 69.952C100.741 70.656 101.029 71.696 101.029 73.072V77.936C101.029 79.312 100.736 80.3627 100.149 81.088C99.5731 81.8133 98.6237 82.176 97.3011 82.176ZM97.3011 80.432C97.8237 80.432 98.1757 80.2667 98.3571 79.936C98.5384 79.6053 98.6291 79.1253 98.6291 78.496V72.528C98.6291 71.8987 98.5384 71.424 98.3571 71.104C98.1864 70.784 97.8344 70.624 97.3011 70.624C96.7677 70.624 96.4104 70.7893 96.2291 71.12C96.0477 71.44 95.9571 71.9093 95.9571 72.528V78.496C95.9571 79.1253 96.0477 79.6053 96.2291 79.936C96.4104 80.2667 96.7677 80.432 97.3011 80.432ZM102.781 69.04H105.901C107.266 69.04 108.285 69.3013 108.957 69.824C109.629 70.336 109.965 71.2213 109.965 72.48C109.965 73.3013 109.842 73.9733 109.597 74.496C109.362 75.008 108.951 75.3813 108.365 75.616L110.173 82H107.805L106.253 76.064H105.133V82H102.781V69.04ZM105.885 74.592C106.557 74.592 107.031 74.4373 107.309 74.128C107.597 73.8187 107.741 73.312 107.741 72.608C107.741 71.9253 107.613 71.4293 107.357 71.12C107.111 70.8107 106.663 70.656 106.013 70.656H105.133V74.592H105.885ZM111.813 69.04H114.149V82H111.813V69.04ZM119.404 82.176C118.177 82.176 117.292 81.7973 116.748 81.04C116.214 80.272 115.948 79.168 115.948 77.728V73.376C115.948 71.8933 116.225 70.7787 116.78 70.032C117.334 69.2747 118.289 68.896 119.644 68.896C120.924 68.896 121.841 69.216 122.396 69.856C122.95 70.4853 123.228 71.424 123.228 72.672V73.344H120.972V72.608C120.972 72.1387 120.94 71.7653 120.876 71.488C120.822 71.2107 120.7 70.9973 120.508 70.848C120.326 70.6987 120.049 70.624 119.676 70.624C119.281 70.624 118.988 70.72 118.796 70.912C118.604 71.104 118.476 71.3493 118.412 71.648C118.358 71.9467 118.332 72.336 118.332 72.816V78.24C118.332 78.976 118.428 79.5253 118.62 79.888C118.822 80.2507 119.196 80.432 119.74 80.432C120.273 80.432 120.641 80.24 120.844 79.856C121.057 79.472 121.164 78.896 121.164 78.128V76.912H119.772V75.424H123.292V82H121.756L121.596 80.736C121.19 81.696 120.46 82.176 119.404 82.176ZM125.157 69.04H127.493V82H125.157V69.04ZM129.499 69.04H131.147L134.299 76.432V69.04H136.251V82H134.683L131.515 74.256V82H129.499V69.04ZM140.154 69.04H142.682L145.274 82H143.082L142.57 79.008H140.314L139.786 82H137.562L140.154 69.04ZM142.314 77.504L141.434 72.064L140.554 77.504H142.314ZM150.067 82.176C149.128 82.176 148.392 82.0053 147.859 81.664C147.326 81.3227 146.952 80.8373 146.739 80.208C146.526 79.5787 146.419 78.7787 146.419 77.808V69.04H148.723V78.08C148.723 78.8267 148.808 79.4027 148.979 79.808C149.16 80.2133 149.523 80.416 150.067 80.416C150.622 80.416 150.984 80.2133 151.155 79.808C151.336 79.4027 151.427 78.8267 151.427 78.08V69.04H153.715V77.808C153.715 78.768 153.608 79.568 153.395 80.208C153.182 80.8373 152.808 81.3227 152.275 81.664C151.742 82.0053 151.006 82.176 150.067 82.176ZM157.37 75.12L154.842 69.04H157.05L158.73 73.072L160.202 69.04H162.234L159.754 75.568L162.426 82H160.234L158.394 77.632L156.794 82H154.762L157.37 75.12Z" fill="black"/>
<g clip-path="url(#clip0)">
<path d="M201.934 98.3461L201.946 98.3567L201.955 98.37C201.959 98.3752 201.975 98.3918 202.042 98.4089C202.095 98.4221 202.159 98.4312 202.238 98.4424C202.256 98.4448 202.275 98.4476 202.294 98.4504C202.498 98.4797 202.763 98.5256 203.015 98.6836C203.215 98.786 203.372 98.9813 203.493 99.1474C203.523 99.1882 203.55 99.2257 203.575 99.2609C203.605 99.3035 203.633 99.3429 203.662 99.3811C203.712 99.4474 203.748 99.4868 203.773 99.5049C205.2 100.311 206.02 100.291 206.605 99.9706C206.713 99.904 206.759 99.8145 206.759 99.7017C206.758 99.5794 206.701 99.4196 206.574 99.2316C206.32 98.8573 205.815 98.415 205.1 98.0105L205.094 98.0067L205.087 98.0021C205.056 97.9784 205.032 97.946 205.014 97.9167C204.995 97.8858 204.978 97.8499 204.961 97.811C204.928 97.7337 204.895 97.6362 204.863 97.5281C204.801 97.32 204.738 97.0606 204.675 96.8049C204.673 96.7945 204.67 96.7845 204.668 96.7742C204.603 96.5065 204.538 96.2452 204.476 96.0436C204.445 95.9426 204.416 95.8603 204.389 95.8017C204.375 95.7722 204.363 95.7518 204.354 95.7387C204.351 95.7349 204.349 95.7324 204.348 95.7307C203.752 95.4738 203.158 95.3032 202.652 95.2324C202.149 95.1619 201.755 95.1928 201.527 95.3117C201.527 95.3119 201.527 95.3119 201.527 95.3121C201.521 95.3241 201.513 95.3438 201.505 95.3726C201.489 95.4298 201.473 95.5097 201.459 95.6079C201.43 95.8034 201.406 96.0574 201.388 96.316C201.352 96.833 201.338 97.3563 201.338 97.4407C201.338 97.5253 201.383 97.6638 201.487 97.8321C201.589 97.9967 201.74 98.1778 201.934 98.3461ZM201.531 95.3044C201.531 95.3039 201.531 95.3037 201.531 95.3037C201.531 95.3037 201.531 95.3039 201.531 95.3044Z" fill="white" stroke="black"/>
<path d="M200.522 93.9446L200.526 93.9465L200.53 93.9488C201.964 94.8181 202.957 94.8519 203.539 94.5312C203.668 94.4605 203.72 94.37 203.726 94.2641C203.732 94.1478 203.683 93.9938 203.562 93.8056C203.322 93.4313 202.832 92.9752 202.145 92.5116C201.427 92.1041 200.864 91.3934 200.414 90.8248C200.397 90.8028 200.38 90.7812 200.363 90.7597C200.129 90.4646 199.931 90.219 199.753 90.0671C199.571 89.9117 199.457 89.892 199.368 89.9417L199.358 89.9466L199.348 89.9502C199.349 89.9499 199.348 89.9502 199.348 89.9509C199.343 89.9537 199.324 89.9647 199.29 89.9942C199.253 90.0266 199.206 90.073 199.153 90.1318C199.046 90.2492 198.918 90.4121 198.794 90.6041C198.546 90.991 198.328 91.4799 198.328 91.944C198.328 92.0492 198.341 92.1626 198.404 92.296C198.468 92.4312 198.586 92.5944 198.81 92.7917L198.812 92.7943L198.815 92.7971C198.912 92.8948 199.05 92.9607 199.222 93.0259C199.265 93.042 199.31 93.058 199.356 93.0748C199.489 93.1226 199.635 93.1749 199.769 93.2429L199.78 93.2485L199.79 93.2562C199.923 93.3634 200.043 93.4937 200.151 93.6101C200.168 93.6277 200.184 93.6451 200.2 93.6619C200.326 93.7967 200.428 93.897 200.522 93.9446Z" fill="white" stroke="black"/>
<path d="M207.417 71.0683H207.418H207.418H207.418H207.418H207.419H207.419H207.42H207.42H207.42H207.421H207.421H207.421H207.422H207.422H207.422H207.423H207.423H207.423H207.424H207.424H207.425H207.425H207.425H207.426H207.426H207.426H207.427H207.427H207.428H207.428H207.428H207.429H207.429H207.429H207.43H207.43H207.431H207.431H207.431H207.432H207.432H207.432H207.433H207.433H207.434H207.434H207.434H207.435H207.435H207.436H207.436H207.436H207.437H207.437H207.438H207.438H207.439H207.439H207.439H207.44H207.44H207.44H207.441H207.441H207.442H207.442H207.443H207.443H207.443H207.444H207.444H207.445H207.445H207.446H207.446H207.446H207.447H207.447H207.448H207.448H207.449H207.449H207.449H207.45H207.45H207.451H207.451H207.451H207.452H207.452H207.453H207.453H207.454H207.454H207.455H207.455H207.455H207.456H207.456H207.457H207.457H207.458H207.458H207.459H207.459H207.46H207.46H207.46H207.461H207.461H207.462H207.462H207.463H207.463H207.464H207.464H207.465H207.465H207.465H207.466H207.466H207.467H207.467H207.468H207.468H207.469H207.469H207.47H207.47H207.471H207.471H207.472H207.472H207.472H207.473H207.473H207.474H207.474H207.475H207.475H207.476H207.476H207.477H207.477H207.478H207.478H207.479H207.479H207.479H207.48H207.48H207.481H207.481H207.482H207.483H207.483H207.483H207.484H207.484H207.485H207.485H207.486H207.486H207.487H207.487H207.488H207.488H207.489H207.489H207.49H207.49H207.491H207.491H207.492H207.492H207.493H207.493H207.494H207.494H207.495H207.495H207.496H207.496H207.497H207.497H207.498H207.498H207.499H207.499H207.5H207.5H207.501H207.501H207.502H207.502H207.503H207.503H207.504H207.504H207.504H207.505H207.506H207.506H207.507H207.507H207.508H207.508H207.509H207.509H207.51H207.51H207.511H207.511H207.512H207.512H207.513H207.513H207.514H207.514H207.515H207.515H207.516H207.516H207.517H207.517H207.518H207.518H207.519H207.519H207.52H207.52H207.521H207.521H207.522H207.522H207.523H207.523H207.524H207.524H207.525H207.525H207.526H207.526H207.527H207.527H207.528H207.528H207.529H207.529H207.53H207.53H207.531H207.531H207.532H207.532H207.533H207.533H207.534H207.534H207.535H207.536H207.536H207.537H207.537H207.537H207.538H207.539H207.539H207.54H207.54H207.54H207.541H207.542H207.542H207.543H207.543H207.544H207.544H207.545H207.545H207.546H207.546H207.547H207.547H207.548H207.548H207.549H207.549H207.55H207.55H207.551H207.551H207.552H207.552H207.553H207.553H207.554H207.554H207.555H207.555H207.556H207.556H207.557H207.557H207.558H207.558H207.559H207.559H207.56H207.56H207.561H207.561H207.562H207.562H207.563H207.563H207.564H207.564H207.565H207.565H207.566H207.566H207.567H207.567H207.568H207.568H207.569H207.569H207.57H207.57H207.571H207.571H207.572H207.572H207.573H207.573H207.574H207.574H207.575H207.575H207.576H207.576H207.577H207.577H207.578H207.578H207.579H207.579H207.58H207.58H207.58H207.581H207.581H207.582H207.583H207.583H207.583H207.584H207.584H207.585H207.585H207.586H207.586H207.587H207.587H207.588H207.588H207.589H207.589H207.59H207.59H207.591H207.591H207.591H207.592H207.592H207.593H207.594H207.594H207.594H207.595H207.595H207.596H207.596H207.597H207.597H207.598H207.598H207.598H207.599H207.599H207.6H207.6H207.601H207.601H207.602H207.602H207.603H207.603H207.604H207.604H207.605H207.605H207.605H207.606H207.606H207.607H207.607H207.608H207.608H207.609H207.609H207.609H207.61H207.61H207.611H207.611H207.612H207.612H207.612H207.613H207.613H207.614H207.614H207.615H207.615H207.616H207.616H207.616H207.617H207.617H207.618H207.618H207.619H207.619H207.619H207.62H207.62H207.621H207.621H207.622H207.622H207.623H207.623H207.623H207.624H207.624H207.624H207.625H207.625H207.626H207.626H207.627H207.627H207.627H207.628H207.628H207.629H207.629H207.629H207.63H207.63H207.63H207.631H207.631H207.632H207.632H207.633H207.633H207.633H207.634H207.634H207.634H207.635H207.635H207.636H207.636H207.636H207.637H207.637H207.637H207.638C208.204 70.9586 208.622 70.3811 208.518 69.7453C208.38 69.0797 207.909 67.8583 207.453 66.6733C207.436 66.6297 207.419 66.5861 207.402 66.5426C207.167 65.9327 206.94 65.3404 206.772 64.8529C206.688 64.6092 206.618 64.3899 206.569 64.2067C206.521 64.0275 206.49 63.8728 206.49 63.7613C206.454 62.6508 206.31 58.8832 206.204 56.1044C206.136 54.3486 206.085 52.9876 206.085 52.9415C206.085 52.3573 205.608 51.8245 205.033 51.7717C204.471 51.7201 203.942 52.1857 203.887 52.8292C203.888 52.9508 203.918 53.7822 203.961 54.9449C203.99 55.7458 204.025 56.704 204.06 57.6957C204.147 60.1432 204.234 62.7918 204.234 63.7593C204.234 64.0462 204.344 64.5126 204.522 65.083C204.698 65.6488 204.936 66.3021 205.182 66.956C205.276 67.2077 205.373 67.4599 205.467 67.7069C205.616 68.1 205.761 68.4801 205.888 68.8254C206.093 69.3858 206.256 69.8658 206.316 70.1688C206.421 70.6968 206.892 71.0683 207.417 71.0683Z" fill="white" stroke="black"/>
<path d="M208.168 71.1857C208.226 71.1857 208.284 71.1857 208.342 71.1271C208.689 71.0102 208.863 70.6593 208.747 70.3671L208.342 69.1389C208.284 68.8467 207.937 68.6711 207.589 68.7881C207.242 68.905 207.068 69.2559 207.184 69.5484L207.589 70.7763C207.647 71.0102 207.937 71.1857 208.168 71.1857Z" fill="#DF846A"/>
<path d="M208.168 71.5366C208.284 71.5366 208.342 71.5366 208.458 71.478C208.921 71.3027 209.21 70.7763 209.037 70.3085L208.632 69.0806C208.458 68.6128 207.937 68.3203 207.474 68.4958C207.01 68.6712 206.721 69.1976 206.895 69.6654L207.3 70.8933C207.416 71.2441 207.763 71.5366 208.168 71.5366ZM207.763 69.0806C207.821 69.0806 207.879 69.0806 207.879 69.139C207.937 69.1976 207.995 69.2559 208.053 69.3145L208.458 70.5424C208.516 70.7179 208.4 70.8933 208.284 70.8933C208.111 70.9519 207.937 70.8349 207.937 70.7179L207.531 69.4898C207.474 69.3145 207.589 69.139 207.705 69.139C207.705 69.0806 207.763 69.0806 207.763 69.0806Z" fill="black"/>
<path d="M199.369 54.9296C199.369 55.9237 201.859 56.1576 202.785 56.1576C203.711 56.1576 205.101 53.0584 205.101 52.0643C205.101 51.0702 204.058 51.3626 203.132 51.3626C202.206 51.3626 199.369 53.9355 199.369 54.9296Z" fill="#DF846A"/>
<path d="M200.585 92.2365C201.106 92.2365 201.627 91.944 201.917 91.4762C202.033 91.3009 204.29 87.5 205.043 85.9796C205.68 84.6931 206.027 81.8279 206.548 77.2084C206.664 76.2144 206.78 75.2202 206.896 74.2848C207.011 73.4661 206.432 72.6474 205.564 72.5888C204.754 72.4719 203.943 73.0567 203.885 73.9339C203.769 74.8695 203.653 75.8635 203.538 76.8575C203.19 79.7227 202.727 83.6992 202.322 84.6348C201.627 86.0382 199.369 89.8391 199.369 89.8974C198.906 90.5991 199.138 91.5931 199.89 92.0026C200.006 92.1779 200.296 92.2365 200.585 92.2365Z" fill="#111111"/>
<path d="M202.843 96.8561C202.843 96.8561 202.843 96.7975 202.843 96.8561C203.711 97.09 204.406 96.6806 204.348 95.8621C204.348 95.5113 204.174 87.7926 203.595 84.4593C203.016 81.0679 200.643 74.6941 200.585 74.4018C200.295 73.5832 199.427 73.1737 198.616 73.5246C197.806 73.8171 197.401 74.6941 197.748 75.5128C197.748 75.5714 200.122 81.8866 200.643 84.9857C201.164 88.1432 201.337 95.4527 201.337 95.5113C201.337 96.2714 201.974 96.5636 202.843 96.8561Z" fill="#111111"/>
<path d="M198.443 67.0923C196.185 69.9575 195.953 76.3314 195.953 83.2314C195.953 85.2196 200.064 83.6406 203.363 81.4187C206.2 79.5475 208.227 77.6178 208.227 75.9219C208.227 68.6127 205.274 67.2093 205.274 63.5253C205.274 59.8999 206.953 59.3736 206.953 56.7422C206.953 55.2803 206.606 53.5846 206.374 52.4151C206.2 51.6549 205.332 51.2456 204.637 51.6549C204.637 51.6549 205.1 54.2278 203.132 55.3973C201.106 56.5668 199.079 55.0464 199.079 55.0464C197.979 55.5142 197.285 56.8007 197.285 56.8007C197.864 59.2566 199.948 65.2211 198.443 67.0923Z" fill="#AEC6F7" stroke="#111111" stroke-miterlimit="10"/>
<path d="M204.097 68.5829L204.097 68.5824C203.919 68.42 203.744 68.2616 203.573 68.1064C202.884 67.4811 202.254 66.9101 201.718 66.363C201.049 65.6802 200.518 65.0263 200.191 64.3367C200.024 63.9992 199.899 63.5105 199.805 62.9444C199.71 62.3753 199.645 61.7187 199.601 61.0404C199.514 59.6835 199.514 58.2325 199.543 57.2067V57.2035L199.543 57.2004C199.596 56.5643 199.126 56.0408 198.502 56.0408C197.912 56.0408 197.345 56.4727 197.345 57.0931V57.0989L197.344 57.1046C197.316 57.3903 197.244 58.8902 197.323 60.6034C197.363 61.4595 197.44 62.3664 197.579 63.1999C197.719 64.0351 197.919 64.7889 198.201 65.3434L198.201 65.3444C198.742 66.4372 199.715 67.5369 200.624 68.4263C201.305 69.0926 201.942 69.6322 202.331 69.9624C202.462 70.0733 202.565 70.1607 202.632 70.2212L202.64 70.2277L202.646 70.2355C202.846 70.4884 203.093 70.542 203.365 70.542C203.678 70.542 203.937 70.4398 204.206 70.1698C204.623 69.6936 204.571 69.0085 204.097 68.5829Z" fill="white" stroke="black"/>
<path d="M199.139 54.9296C199.139 54.9296 200.47 53.1168 200.586 51.655C200.76 50.1931 200.354 48.1465 200.239 47.0354C200.123 45.9244 199.891 44.0532 202.439 43.7608C205.102 43.5269 206.144 44.8719 206.202 46.6846C206.202 48.4973 205.449 50.6024 204.754 51.4211C204.059 52.2397 202.728 52.2982 202.728 52.2982L199.139 54.9296Z" fill="#DF846A"/>
<path d="M206.375 46.6261C205.159 48.3219 203.075 47.4448 203.075 47.4448C202.438 49.316 201.685 55.8067 200.354 56.6253C198.443 57.7364 196.996 55.2219 196.996 55.2219C196.996 55.2219 199.196 54.2279 199.37 50.6024C199.543 46.977 198.559 45.866 200.296 43.8193C201.164 42.8253 202.901 42.9422 203.712 43.1176C206.433 43.6439 206.838 45.9829 206.375 46.6261Z" fill="black"/>
<path d="M198.385 74.8852L194.796 72.7803C194.796 72.7803 194.796 72.7801 194.796 72.7801C194.14 72.394 193.766 71.6269 193.981 70.8666L193.982 70.8629L193.983 70.8589L194.562 68.1106L198.385 74.8852ZM198.385 74.8852L198.387 74.8862L198.385 74.8852ZM198.385 74.8852L198.387 74.8862L198.385 74.8852ZM198.387 74.8862C199.183 75.3685 200.255 74.8873 200.47 73.9662L198.387 74.8862ZM198.387 74.8862L200.47 73.9662L198.387 74.8862ZM200.47 73.9662C200.47 73.966 200.47 73.9658 200.47 73.9658V73.9662ZM200.47 73.9662V73.9658V73.9662ZM200.47 73.9658L200.991 71.629C200.991 71.6288 200.991 71.6286 200.991 71.6283C201.154 70.8577 200.827 70.0318 200.119 69.5905L196.243 67.37C195.555 66.9971 194.718 67.3733 194.562 68.1106L200.47 73.9658Z" fill="white" stroke="black"/>
<path d="M197.749 71.9457C197.981 71.9457 198.27 71.8871 198.502 71.8288C199.313 71.5363 200.065 70.6592 200.412 69.6067L199.834 69.4314C199.544 70.3084 198.965 71.0101 198.27 71.244C197.807 71.4193 197.344 71.361 196.823 71.0687C195.607 70.367 195.434 69.2558 196.186 67.2678L195.607 67.0339C195.028 68.5541 194.565 70.4839 196.476 71.6532C196.939 71.8871 197.344 71.9457 197.749 71.9457Z" fill="black"/>
<path d="M195.605 61.7126C196.126 58.555 196.531 55.8066 197.573 55.1634C197.863 54.988 198.152 54.988 198.442 55.1049C200.179 55.8066 201.047 61.3618 201.337 65.9228C201.337 66.2152 200.7 65.572 200.642 65.1626C200.294 60.894 199.426 56.1575 198.21 55.6897C198.094 55.6312 197.979 55.6312 197.863 55.6897C197.052 56.1575 196.589 59.1397 196.184 61.7711C195.837 63.9932 195.489 66.3321 194.852 67.7354L194.273 67.5015C194.91 66.1567 195.258 63.9347 195.605 61.7126Z" fill="black"/>
<path d="M200.933 69.0219C200.933 68.671 201.512 69.3728 201.512 69.7236C201.512 70.3084 201.454 70.8348 201.454 71.244L200.875 71.1856C200.933 70.6009 200.933 69.8992 200.933 69.0219Z" fill="black"/>
<path d="M205.158 71.8288C205.332 71.8288 205.506 71.7705 205.621 71.5949C205.853 71.3026 205.795 70.9518 205.506 70.7179L204.753 69.8406C204.753 69.8406 205.679 69.7237 205.506 69.3728C205.332 69.0219 204.058 68.7297 203.248 69.6653C203.016 69.8992 202.9 70.484 203.132 70.7179L204.753 71.6535C204.869 71.7705 205.043 71.8288 205.158 71.8288Z" fill="#DF846A"/>
<path d="M205.158 72.121C205.448 72.121 205.737 72.0041 205.911 71.7702C206.084 71.5949 206.142 71.3024 206.084 71.0687C206.084 70.8348 205.911 70.6009 205.737 70.4253L205.39 70.0161C205.621 69.9575 205.795 69.8406 205.853 69.6653C205.911 69.5483 205.911 69.3728 205.853 69.1974C205.737 68.9635 205.39 68.788 204.927 68.7296C204.579 68.671 203.769 68.671 203.074 69.3728C202.843 69.6067 202.727 69.9575 202.727 70.3084C202.727 70.5423 202.843 70.7178 203.016 70.8931L204.637 71.8871C204.695 72.0627 204.927 72.121 205.158 72.121ZM205.042 69.4897C204.927 69.5483 204.811 69.5483 204.695 69.5483C204.579 69.5483 204.463 69.6653 204.463 69.7822C204.405 69.8992 204.463 70.0161 204.521 70.0745L205.274 70.9517C205.39 71.0101 205.39 71.1271 205.448 71.1856C205.448 71.244 205.448 71.361 205.39 71.4193C205.332 71.4779 205.274 71.5363 205.158 71.5363C205.1 71.5363 205.042 71.5363 204.985 71.4779L203.306 70.4253C203.306 70.4253 203.306 70.4253 203.306 70.367C203.306 70.1914 203.364 70.0161 203.479 69.8992C203.885 69.4313 204.405 69.3728 204.695 69.4313C204.811 69.4313 204.985 69.4313 205.042 69.4897Z" fill="black"/>
<path d="M209.095 68.4849L208.155 74.8878L203.561 73.2664L204.5 66.8738L209.095 68.4849Z" fill="#AEC6F7" stroke="#161515" stroke-width="0.5" stroke-miterlimit="10"/>
<path d="M209.096 68.4849L210.107 67.6125L209.208 73.9744L208.156 74.8878L209.096 68.4849Z" fill="black" stroke="#161515" stroke-width="0.5" stroke-miterlimit="10"/>
<path d="M204.5 66.8737L205.552 65.9604L210.106 67.6124L209.095 68.4848L204.5 66.8737Z" fill="#AEC6F7" stroke="#161515" stroke-width="0.5" stroke-miterlimit="10"/>
<path d="M205.42 66.0835L204.664 66.7299L209.065 68.3L209.759 67.6637L205.42 66.0835Z" fill="white" stroke="#161515" stroke-width="0.5" stroke-miterlimit="10"/>
<path d="M201.012 71.373C201.142 70.7207 200.752 74.7648 199.711 75.2866C198.67 75.8084 196.849 74.3734 198.02 75.1562" stroke="black" stroke-linecap="round" stroke-linejoin="round"/>
</g>
<defs>
<filter id="filter0_d" x="0" y="0" width="316" height="154" filterUnits="userSpaceOnUse" color-interpolation-filters="sRGB">
<feFlood flood-opacity="0" result="BackgroundImageFix"/>
<feColorMatrix in="SourceAlpha" type="matrix" values="0 0 0 0 0 0 0 0 0 0 0 0 0 0 0 0 0 0 127 0"/>
<feMorphology radius="4" operator="dilate" in="SourceAlpha" result="effect1_dropShadow"/>
<feOffset dx="4" dy="4"/>
<feGaussianBlur stdDeviation="7"/>
<feColorMatrix type="matrix" values="0 0 0 0 0 0 0 0 0 0 0 0 0 0 0 0 0 0 0.07 0"/>
<feBlend mode="normal" in2="BackgroundImageFix" result="effect1_dropShadow"/>
<feBlend mode="normal" in="SourceGraphic" in2="effect1_dropShadow" result="shape"/>
</filter>
<clipPath id="clip0">
<rect width="90" height="60" fill="white" transform="translate(175 43)"/>
</clipPath>
</defs>
</svg>
