<svg width="11" height="15" viewBox="0 0 11 15" fill="none" xmlns="http://www.w3.org/2000/svg">
<path d="M5.5 0.300049C8.52498 0.300049 11 2.68065 11 5.61061C11 6.77038 10.6028 7.86912 9.9 8.78473L5.74446 14.2174C5.65277 14.3395 5.43888 14.37 5.31667 14.2784C5.2861 14.2479 5.2861 14.2479 5.25554 14.2174L1.1 8.78473C0.397228 7.86912 0 6.77038 0 5.61061C0 2.68065 2.47502 0.300049 5.5 0.300049ZM5.92779 7.68599C7.08888 7.44184 7.85277 6.34311 7.60831 5.18334C7.3639 4.02353 6.2639 3.26054 5.10277 3.5047C4.24723 3.68782 3.57502 4.32875 3.42221 5.18334C3.20835 6.34311 3.97221 7.47238 5.10277 7.68599C5.37779 7.74706 5.65277 7.74706 5.92779 7.68599Z" fill="#051583"/>
</svg>
