<svg width="205" height="183" viewBox="0 0 205 183" fill="none" xmlns="http://www.w3.org/2000/svg">
<g clip-path="url(#clip0)">
<path d="M73.2144 168.396L145.731 126.472L73.2144 84.4777L0.697418 126.472L73.2144 168.396Z" fill="white" stroke="#161515" stroke-miterlimit="10"/>
<path d="M145.731 126.472V42.5533L73.2144 0.628906V84.4777L145.731 126.472Z" fill="black" stroke="#161515" stroke-miterlimit="10"/>
<path d="M0.69783 126.472V42.5533L73.2148 0.628906V84.4777L0.69783 126.472Z" fill="#AEC6F7" stroke="#161515" stroke-miterlimit="10"/>
<path d="M77.5371 44.37V106.837L50.2038 122.629V59.6025L77.5371 44.37Z" fill="#AEC6F7" stroke="#161515" stroke-miterlimit="10"/>
<path d="M77.5371 44.3701L63.8704 36.0551L36.5371 51.7767V114.733L50.2038 122.629V59.6026L77.5371 44.3701Z" fill="#AEC6F7" stroke="#161515" stroke-miterlimit="10"/>
<path d="M50.2038 59.6026L36.5371 51.7767L63.8704 36.0551L77.5371 44.3701L50.2038 59.6026Z" fill="white" stroke="#161515" stroke-miterlimit="10"/>
<path d="M49.7857 75.1844L36.5374 67.4983V75.1844L50.2041 83.4994L49.7857 75.1844Z" fill="black" stroke="#161515" stroke-miterlimit="10"/>
<path d="M65.6836 37.3826L39.0475 52.9645L36.9557 51.7767L63.8707 36.2646L65.6836 37.3826Z" fill="#AEC6F7"/>
<path d="M91.1348 66.3804V116.829L63.8014 129.616V78.6782L91.1348 66.3804Z" fill="black" stroke="#161515" stroke-miterlimit="10"/>
<path d="M91.1348 66.3803L77.4681 59.6025L50.2045 72.3196V123.258L63.8014 129.616V78.6781L91.1348 66.3803Z" fill="black" stroke="#161515" stroke-miterlimit="10"/>
<path d="M63.8014 78.6781L50.2045 72.3196L77.4681 59.6025L91.1348 66.3803L63.8014 78.6781Z" fill="white" stroke="#161515" stroke-miterlimit="10"/>
<path d="M63.3834 91.2554L50.2048 85.0366V91.2554L63.8018 97.9633L63.3834 91.2554Z" fill="#AEC6F7" stroke="#161515" stroke-miterlimit="10"/>
<path d="M79.2812 60.7205L52.6452 73.2978L50.5534 72.3196L77.4683 59.8121L79.2812 60.7205Z" fill="black" stroke="#161515" stroke-miterlimit="10"/>
<path d="M9.48288 97.2647L15.8978 140.866L47.2754 129.826L40.8604 86.2944L9.48288 97.2647Z" fill="#AEC6F7" stroke="#161515" stroke-miterlimit="10"/>
<path d="M9.48251 97.2647L2.57945 91.3254L8.7155 134.647L15.8975 140.866L9.48251 97.2647Z" fill="#AEC6F7" stroke="#161515" stroke-miterlimit="10"/>
<path d="M40.8604 86.2945L33.6784 80.0757L2.57973 91.3254L9.48279 97.2647L40.8604 86.2945Z" fill="#AEC6F7" stroke="#161515" stroke-miterlimit="10"/>
<path d="M34.5853 80.9142L39.7451 85.3162L9.6924 96.007L4.95091 91.6748L34.5853 80.9142Z" fill="white" stroke="#161515" stroke-miterlimit="10"/>
<path d="M80.4658 158.754L42.4641 136.743L29.8434 144.08L67.8451 166.09L80.4658 158.754Z" fill="black" stroke="#161515" stroke-miterlimit="10"/>
<path d="M67.845 166.091V156.308L93.1562 141.705V151.417L67.845 166.091Z" fill="black" stroke="#161515" stroke-miterlimit="10"/>
<path d="M67.8447 155.959L29.843 133.948V144.08L67.8447 166.091V155.959Z" fill="#AEC6F7" stroke="#161515" stroke-miterlimit="10"/>
<path d="M93.1562 141.006L55.1545 118.995L29.8433 133.669L67.845 155.679L93.1562 141.006Z" fill="white" stroke="#161515" stroke-miterlimit="10"/>
<path d="M42.4643 141.146V151.417L48.8096 155.05V144.849L42.4643 141.146Z" fill="white" stroke="#161515" stroke-miterlimit="10"/>
<path d="M69.1006 141.704L43.6499 126.961L35.1431 131.852L60.6635 146.596L69.1006 141.704Z" fill="black" stroke="#161515" stroke-miterlimit="10"/>
<path d="M60.6635 146.596V139.678L77.6074 129.896V136.813L60.6635 146.596Z" fill="#AEC6F7" stroke="#161515" stroke-miterlimit="10"/>
<path d="M60.6631 139.958L35.1427 125.214V131.852L60.6631 146.596V139.958Z" fill="#AEC6F7" stroke="#161515" stroke-miterlimit="10"/>
<path d="M77.6074 130.036L52.1567 115.292L35.1431 125.074L60.6635 139.818L77.6074 130.036Z" fill="white" stroke="#161515" stroke-miterlimit="10"/>
<path d="M43.6499 130.315V136.813L47.9033 139.259V132.761L43.6499 130.315Z" fill="white" stroke="#161515" stroke-miterlimit="10"/>
<path d="M145.731 42.5533V126.472L73.2144 168.396V84.4777L145.731 42.5533Z" fill="#AEC6F7" stroke="#161515" stroke-miterlimit="10"/>
<path d="M156.145 52.3588L204.501 136.287L131.979 178.247L83.6231 94.3181L156.145 52.3588Z" fill="#AEC6F7" stroke="#161515" stroke-miterlimit="10"/>
<path d="M131.995 178.179L124.534 182.511L78.1652 96.9852L83.6737 94.33L131.995 178.179Z" fill="black" stroke="#161515" stroke-miterlimit="10"/>
<path d="M179.479 135.975C179.479 135.975 169.229 144.43 159.328 133.739C152.006 125.843 146.289 121.511 144.545 120.463C144.266 120.253 144.057 118.017 144.197 117.738L149.426 113.056C149.426 113.056 158.979 118.297 159.258 118.716C159.537 119.135 163.86 126.053 167.625 127.52C171.391 128.987 173.552 126.192 175.086 123.188C176.62 120.183 178.991 121.721 178.991 121.721L180.943 132.691L180.804 133.25C180.595 134.298 180.107 135.206 179.479 135.975Z" fill="#14100D"/>
<path d="M167.486 138.91L167.626 127.52C167.696 127.52 167.696 127.59 167.765 127.59C171.531 129.057 173.692 126.262 175.226 123.258C176.76 120.253 179.131 121.79 179.131 121.79L181.014 132.761L180.874 133.32C180.665 134.368 180.177 135.346 179.549 136.045C179.549 136.045 174.18 140.447 167.486 138.91Z" fill="#14100D"/>
<path d="M144.197 120.603C144.267 120.672 144.267 120.672 144.337 120.742C145.871 121.721 151.588 125.913 159.049 133.948C169.02 144.709 179.549 136.254 179.619 136.184C180.316 135.416 180.804 134.438 181.083 133.32L181.223 132.621L179.27 121.511L179.131 121.441C179.061 121.441 178.085 120.812 176.9 121.092C176.063 121.301 175.366 122 174.808 123.048C173.343 125.913 171.391 128.638 167.765 127.241C166.231 126.612 163.581 124.725 159.677 118.856C159.607 118.716 159.537 118.576 159.468 118.576C159.189 118.157 152.425 114.454 149.496 112.847L149.287 112.707L143.849 117.598C143.639 117.947 143.779 119.554 143.918 120.044C144.058 120.323 144.127 120.463 144.197 120.603ZM179.27 135.765C178.643 136.254 169.02 143.801 159.537 133.599C152.076 125.564 146.359 121.301 144.755 120.253C144.616 119.974 144.406 118.367 144.476 117.947L149.496 113.475C153.053 115.432 158.701 118.576 159.049 118.926C159.049 118.926 159.119 119.065 159.189 119.205C163.163 125.214 165.952 127.241 167.556 127.869C171.67 129.477 173.901 126.332 175.366 123.398C175.854 122.489 176.411 121.93 177.039 121.79C177.736 121.581 178.434 121.86 178.643 122L180.595 132.691L180.525 133.18C180.316 134.158 179.898 135.066 179.27 135.765Z" fill="#15110E"/>
<path d="M180.316 134.647C184.709 125.074 156.329 119.275 147.753 121.441C147.753 121.441 147.753 121.441 147.683 121.441C145.591 121.79 143.29 119.974 142.802 117.668L141.965 113.755C141.965 113.755 162.953 101.247 176.55 112.777C186.8 121.511 180.316 134.647 180.316 134.647Z" fill="#AEC6F7" stroke="#161515" stroke-miterlimit="10"/>
<path d="M174.459 114.314C180.107 119.135 180.665 125.284 180.037 129.826C175.435 123.188 155.005 119.554 147.893 121.301C147.893 121.301 147.893 121.301 147.823 121.301C145.731 121.651 143.43 119.834 142.942 117.528L142.245 114.034C148.102 111.17 163.651 105.091 174.459 114.314Z" fill="white"/>
<path d="M143.43 119.834C144.476 121.231 146.149 122.07 147.753 121.79H147.823C155.005 120.044 174.18 123.607 179.27 129.686C180.525 131.223 180.804 132.9 180.037 134.577L180.595 134.857C180.665 134.717 187.08 121.371 176.76 112.567C163.163 100.968 142.035 113.336 141.826 113.475L141.617 113.615L142.454 117.738C142.663 118.506 143.012 119.205 143.43 119.834ZM179.967 129.616C179.898 129.477 179.828 129.407 179.688 129.267C174.529 122.978 154.935 119.345 147.614 121.162C145.661 121.511 143.5 119.834 143.081 117.598L142.314 113.895C144.476 112.707 163.791 102.296 176.342 113.056C183.524 119.205 182.268 127.66 181.013 131.922C180.874 131.084 180.525 130.315 179.967 129.616Z" fill="#15110E"/>
<path d="M134.922 74.4856C134.922 74.4856 123.348 82.3115 130.181 94.26C135.201 103.064 137.433 109.562 137.851 111.519C137.921 111.868 140.013 112.567 140.291 112.427L146.497 108.514C146.497 108.514 143.987 100.129 143.708 99.78C143.429 99.4306 139.036 91.6746 138.897 87.7617C138.757 83.7789 142.174 82.3814 145.521 81.6128C148.868 80.8442 148.24 78.2588 148.24 78.2588L138.479 73.8568H137.921C136.875 73.717 135.829 73.9965 134.922 74.4856Z" fill="#130F0C"/>
<path d="M138.897 87.7618C138.967 89.6484 138.479 88.6003 139.594 90.976L128.298 89.299C127.183 79.307 134.853 74.4857 134.853 74.4857C135.759 73.9966 136.805 73.787 137.921 73.787H138.479L148.24 78.1891C148.24 78.1891 148.868 80.7744 145.521 81.543C142.174 82.3815 138.757 83.779 138.897 87.7618Z" fill="#14100D"/>
<path d="M137.642 111.729C137.712 111.798 137.851 111.938 137.991 112.008C138.479 112.288 140.013 112.847 140.431 112.707H140.501L146.916 108.654L146.846 108.444C146.288 106.488 144.336 99.9897 144.057 99.5704C143.778 99.2211 139.455 91.6048 139.316 87.6919C139.176 83.8488 142.453 82.5911 145.731 81.8923C146.986 81.6128 147.822 81.0538 148.31 80.2852C148.938 79.2371 148.729 78.189 148.659 78.1191L148.589 77.9794L138.549 73.5075H137.991C136.875 73.4376 135.759 73.7171 134.783 74.2062C134.644 74.2761 123.069 82.3815 129.972 94.3998C135.132 103.414 137.224 109.842 137.572 111.519C137.572 111.589 137.572 111.659 137.642 111.729ZM140.222 112.148C139.943 112.148 138.409 111.659 138.2 111.379C137.782 109.562 135.62 103.064 130.53 94.1203C124.045 82.7308 134.644 75.0447 135.132 74.7652C136.038 74.3459 137.015 74.1363 137.991 74.1363H138.479L148.032 78.4685C148.032 78.748 148.101 79.3769 147.683 80.0057C147.265 80.6346 146.567 81.1237 145.521 81.3333C142.244 82.102 138.479 83.4994 138.618 87.7617C138.758 91.8144 143.22 99.6403 143.499 99.9897C143.708 100.339 145.242 105.23 146.149 108.444L140.222 112.148Z" fill="#15110E"/>
<path d="M136.457 73.9267C147.055 71.9702 142.941 100.409 137.991 108.165C137.991 108.165 137.991 108.165 137.991 108.235C136.945 110.121 137.851 112.777 139.943 113.755L143.429 115.432C143.429 115.432 162.465 98.2428 156.05 82.591C151.169 70.7823 136.457 73.9267 136.457 73.9267Z" fill="#AEC6F7" stroke="#161515" stroke-miterlimit="10"/>
<path d="M152.773 85.0367C157.654 96.9153 147.892 109.632 142.872 115.152L140.013 113.755C137.921 112.707 136.945 110.121 138.061 108.235V108.165C141.965 102.086 145.312 83.22 141.408 76.3723C145.661 77.0012 150.402 79.2371 152.773 85.0367Z" fill="white"/>
<path d="M138.13 112.637C138.549 113.196 139.107 113.685 139.804 114.034L143.499 115.851L143.639 115.711C143.848 115.572 162.814 98.173 156.329 82.5212C151.448 70.5727 136.527 73.5773 136.387 73.6472L136.527 74.2761C138.34 73.9267 139.804 74.5556 140.85 76.0928C144.964 82.1718 141.826 101.667 137.782 108.025L137.712 108.095C137.154 109.073 137.084 110.191 137.433 111.309C137.573 111.798 137.851 112.218 138.13 112.637ZM143.36 115.082L140.083 113.475C139.107 112.986 138.34 112.148 137.991 111.03C137.712 110.052 137.782 109.143 138.2 108.305C142.035 102.296 145.8 82.3814 141.268 75.6037C140.71 74.7652 140.013 74.1363 139.246 73.7869C143.709 73.5773 152.215 74.2761 155.632 82.5911C161.768 97.2646 145.173 113.406 143.36 115.082Z" fill="#15110E"/>
<path d="M142.663 120.114L148.938 122.14C151.1 122.839 152.634 124.865 152.634 127.171C152.634 129.337 151.867 132.202 149.008 135.067C143.36 140.796 141.687 146.107 145.243 149.88C145.591 150.229 145.382 150.788 144.964 150.928L138.061 152.954C137.294 153.164 136.457 152.884 135.969 152.325C134.086 149.95 130.181 143.731 134.783 137.722C140.71 130.175 145.8 127.73 142.663 120.114Z" fill="#AEC6F7" stroke="#161515" stroke-miterlimit="10"/>
<path d="M146.219 123.537C148.381 124.236 149.915 126.262 149.915 128.568C149.915 130.734 149.148 133.599 146.289 136.464C140.641 142.194 138.968 147.504 142.524 151.277C142.663 151.417 142.663 151.557 142.663 151.627L137.852 153.024C137.085 153.234 136.248 152.954 135.76 152.395C133.878 150.02 129.973 143.801 134.575 137.792C139.804 131.014 144.337 128.359 143.151 122.559L146.219 123.537Z" fill="white"/>
<path d="M136.039 152.884C136.597 153.373 137.434 153.583 138.201 153.373L145.104 151.347C145.452 151.277 145.662 150.998 145.801 150.648C145.871 150.299 145.801 150.02 145.592 149.74C142.315 146.246 143.639 141.146 149.357 135.346C151.798 132.9 153.053 130.175 153.053 127.241C153.053 124.795 151.519 122.699 149.148 121.93L142.245 119.694L142.524 120.323C144.895 125.983 142.524 128.708 138.549 133.11C137.364 134.438 136.039 135.905 134.714 137.652C129.973 143.801 133.947 150.159 135.9 152.605C135.83 152.675 135.969 152.745 136.039 152.884ZM150.682 123.537C151.728 124.446 152.355 125.773 152.355 127.241C152.355 129.966 151.17 132.551 148.869 134.927C142.872 141.006 141.548 146.386 145.104 150.159C145.243 150.299 145.173 150.439 145.173 150.439C145.173 150.579 145.034 150.648 144.895 150.718L137.992 152.745C137.364 152.954 136.667 152.745 136.248 152.186C134.366 149.88 130.6 143.801 135.063 138.001C136.388 136.254 137.713 134.787 138.898 133.529C142.733 129.267 145.243 126.332 143.221 120.742L148.869 122.559C149.566 122.699 150.194 123.048 150.682 123.537Z" fill="#15110E"/>
<path d="M140.152 117.947C140.082 118.017 139.943 118.017 139.943 117.877C139.524 116.829 136.875 111.798 130.181 115.152C122.929 118.786 113.237 112.707 114.631 103.344C114.701 102.855 114.91 102.435 115.189 102.016L119.234 96.496C119.582 96.0069 120.349 96.2864 120.349 96.8454C120.349 100.409 121.046 107.536 126.625 107.047C134.016 106.418 138.967 107.117 140.779 111.379C140.64 111.449 142.732 115.222 140.152 117.947Z" fill="#AEC6F7" stroke="#161515" stroke-miterlimit="10"/>
<path d="M129.902 115.082C122.65 118.716 112.958 112.637 114.353 103.274C114.422 102.785 114.632 102.365 114.911 101.946L117.56 98.3126C117.909 97.9633 118.606 98.1729 118.606 98.7319C118.606 102.295 119.303 109.423 124.882 108.933C132.273 108.305 137.223 109.003 139.036 113.266C139.036 113.266 140.222 115.432 139.734 117.668C139.106 116.41 136.456 111.798 129.902 115.082Z" fill="white"/>
<path d="M116.305 111.868C117.003 112.777 117.839 113.615 118.746 114.314C122.232 116.829 126.625 117.249 130.251 115.432C132.552 114.314 134.504 114.034 136.248 114.663C138.409 115.432 139.385 117.458 139.664 118.017C139.734 118.157 139.873 118.227 140.013 118.297C140.152 118.297 140.292 118.297 140.431 118.157C143.22 115.292 140.989 111.309 140.989 111.309C138.827 106.488 132.761 106.278 126.486 106.837C125.091 106.977 123.975 106.628 123.069 105.789C120.838 103.763 120.559 99.3608 120.559 96.9152C120.559 96.496 120.28 96.1466 119.931 96.0767C119.583 95.937 119.164 96.0767 118.885 96.4261L114.841 101.946C114.562 102.365 114.353 102.855 114.283 103.414C113.725 106.488 114.492 109.493 116.305 111.868ZM139.316 116.34C138.688 115.502 137.782 114.593 136.387 114.104C134.504 113.405 132.343 113.685 129.902 114.943C126.486 116.62 122.302 116.2 119.025 113.825C115.748 111.449 114.144 107.536 114.771 103.483C114.841 103.064 114.981 102.645 115.259 102.296L119.304 96.7755C119.443 96.6357 119.583 96.6357 119.652 96.7056C119.722 96.7056 119.861 96.7755 119.861 96.9851C119.861 99.5006 120.21 104.112 122.581 106.278C123.627 107.257 124.952 107.606 126.486 107.536C134.713 106.837 138.758 108.025 140.361 111.659C140.431 111.798 142.244 115.152 140.083 117.598C139.943 117.249 139.664 116.759 139.316 116.34Z" fill="#15110E"/>
</g>
<defs>
<clipPath id="clip0">
<rect width="205" height="183" fill="white" transform="matrix(-1 0 0 1 205 0)"/>
</clipPath>
</defs>
</svg>
