<svg width="69" height="124" viewBox="0 0 69 124" fill="none" xmlns="http://www.w3.org/2000/svg">
<g clip-path="url(#clip0)">
<path d="M9.73038 56.1029L26.0097 59.7209C26.8517 59.9089 27.647 59.392 27.8341 58.5463C28.0212 57.7005 27.5066 56.9017 26.6646 56.7137L10.4321 53.0957C10.1046 53.0017 9.82394 52.7198 9.82394 52.3909L8.84156 43.1813C8.74801 42.3356 9.12224 41.4898 9.82394 41.0199C11.6483 39.7513 12.5839 37.6368 12.8646 36.2272C13.005 35.6633 12.6775 35.0525 12.1161 34.8646C11.508 34.6766 10.8531 35.0995 10.7128 35.7103C10.7128 35.8043 10.2917 37.5898 9.07546 38.7645C8.79478 38.9995 8.37377 38.8585 8.32699 38.4826L7.57851 31.8104C7.48495 31.0116 6.83004 30.3538 6.03478 30.3538C5.70733 30.3538 5.37987 30.4477 5.14597 30.6357C4.67817 30.9646 4.44428 31.4815 4.49106 32.0923L5.19275 38.7175C5.23953 39.0934 4.81851 39.3754 4.49106 39.1404C2.80699 38.0127 2.15207 35.6633 2.15207 35.5224C2.01173 34.9115 1.4036 34.5826 0.795462 34.7236C0.655123 34.7706 0.561564 34.8176 0.421225 34.9115C0.0469877 35.1465 -0.140131 35.6164 0.000208043 36.0862C0.0469877 36.2742 1.07614 40.2211 4.30394 41.5838C5.09919 41.9127 5.61377 42.6175 5.70733 43.4633L6.73648 52.7198C6.9236 54.4114 8.13987 55.774 9.73038 56.1029Z" fill="#111111"/>
<path d="M40.1839 123.765C55.9695 123.765 68.7663 111.879 68.7663 97.2171C68.7663 82.5551 55.9695 70.6692 40.1839 70.6692C24.3983 70.6692 11.6016 82.5551 11.6016 97.2171C11.6016 111.879 24.3983 123.765 40.1839 123.765Z" fill="white" stroke="#0A0A0A" stroke-miterlimit="10"/>
<path d="M40.184 70.7161C32.1846 70.7161 24.466 73.6293 19.0396 78.9389C20.4897 85.799 31.4362 91.2496 40.184 91.2496C48.885 91.2496 59.7846 85.799 61.3284 78.9389C55.9019 73.6293 48.1833 70.7161 40.184 70.7161Z" fill="#E1E1E1"/>
<path d="M40.184 88.1954C52.9209 88.1954 63.2463 78.6235 63.2463 66.8161C63.2463 55.0086 52.9209 45.4368 40.184 45.4368C27.447 45.4368 17.1216 55.0086 17.1216 66.8161C17.1216 78.6235 27.447 88.1954 40.184 88.1954Z" fill="white" stroke="#0A0A0A" stroke-miterlimit="10"/>
<path d="M54.5454 49.8066C50.9901 53.6126 45.704 55.7271 40.184 55.7271C34.664 55.7271 29.3779 53.6126 25.8227 49.8066C24.3725 50.8404 23.0627 52.0151 21.94 53.3307C22.1271 54.5994 22.7352 55.7741 23.7176 56.5259C24.1386 56.8548 24.6064 57.1837 25.0274 57.5126C24.1854 58.4054 22.9223 59.9089 22.0335 61.9764C20.6769 65.0306 20.443 67.5209 21.0044 68.4137C21.5657 69.2595 25.2145 70.6221 25.963 69.6354C26.6647 68.6956 27.0857 64.3258 29.7054 60.1439C30.2668 60.4258 30.8749 60.6608 31.483 60.8487C31.4362 62.4933 31.2959 65.5005 31.0152 67.9438C30.5942 71.5149 29.8925 73.8642 30.0329 74.804C30.1264 75.7437 32.2315 76.4486 33.8688 76.4486C35.5061 76.4486 36.9562 76.1666 37.1901 74.4751C37.3773 72.8775 37.8451 66.8161 37.5644 62.3053C38.4532 62.3993 39.342 62.4463 40.2308 62.4463C46.3122 62.4463 52.2064 60.0969 56.6973 56.5728C57.6329 55.821 58.241 54.6464 58.4281 53.3777C57.2586 52.0151 55.9488 50.8404 54.5454 49.8066Z" fill="#E1E1E1"/>
<path d="M23.1562 49.2429C22.1739 51.0754 22.7352 53.4248 24.4193 54.6935C28.7698 58.0766 34.3834 59.9091 40.184 59.9091C45.9847 59.9091 51.5983 58.0766 55.9488 54.6935C57.5861 53.4248 58.1474 51.1694 57.2586 49.3369C57.2118 49.1959 57.1183 49.1019 57.0715 48.961C56.0891 47.2694 54.9664 47.4574 54.9664 47.4574C51.6451 51.8742 46.0315 54.3645 40.2308 54.3645C34.3834 54.3645 28.8166 51.8742 25.4952 47.4574C25.4952 47.4574 24.3257 47.5514 23.3901 48.914C23.2966 49.055 23.203 49.1489 23.1562 49.2429Z" fill="#AEC6F7" stroke="#111111" stroke-miterlimit="10"/>
<path d="M25.1207 55.2573C25.1207 55.2573 22.6882 57.2777 21.1912 60.5668C19.8346 63.621 19.6007 66.1114 20.1621 67.0041C20.7235 67.8499 24.3723 69.2125 25.1207 68.2258C25.8692 67.2391 26.2902 62.2584 29.4245 57.8416C29.4245 57.8416 29.8923 56.197 27.8807 55.2103C25.8692 54.2705 25.1207 55.2573 25.1207 55.2573Z" fill="#AEC6F7" stroke="#111111" stroke-miterlimit="10"/>
<path d="M30.6876 58.2176C30.6876 58.2176 30.594 63.0103 30.173 66.5813C29.752 70.1524 29.0503 72.5018 29.1906 73.4415C29.2842 74.3813 31.3893 75.0861 33.0265 75.0861C34.6638 75.0861 36.114 74.8042 36.3479 73.1126C36.5818 71.3741 37.0964 64.3259 36.5818 59.7681C36.5818 59.7681 35.7398 58.4995 34.0557 57.9356C31.6699 57.0899 30.6876 58.2176 30.6876 58.2176Z" fill="#AEC6F7" stroke="#111111" stroke-miterlimit="10"/>
<path d="M40.1842 54.4114C50.0793 54.4114 58.1008 46.9643 58.1008 37.7779C58.1008 28.5914 50.0793 21.1443 40.1842 21.1443C30.2891 21.1443 22.2676 28.5914 22.2676 37.7779C22.2676 46.9643 30.2891 54.4114 40.1842 54.4114Z" fill="white" stroke="#0A0A0A" stroke-miterlimit="10"/>
<path d="M22.9224 33.1261C23.5305 33.643 24.2322 34.1128 25.0274 34.5357C33.401 39.3754 46.9671 39.3754 55.3407 34.5357C56.1359 34.0658 56.8376 33.596 57.4458 33.1261C55.2939 25.5611 47.9495 21.1443 40.1841 21.1443C32.4186 21.1443 25.0742 25.5611 22.9224 33.1261Z" fill="#E1E1E1"/>
<path d="M25.8693 36.4153C26.6178 36.8382 27.2259 37.8719 27.2259 38.7647C27.2259 39.6104 26.6178 39.9863 25.8693 39.5635C25.1208 39.1406 24.5127 38.1068 24.5127 37.2141C24.5595 36.3683 25.1208 35.9924 25.8693 36.4153Z" fill="#111111"/>
<path d="M34.8044 40.738C35.5528 41.1609 36.161 42.1946 36.161 43.0874C36.161 43.9331 35.5528 44.309 34.8044 43.8862C34.0559 43.4633 33.4478 42.4296 33.4478 41.5368C33.4945 40.644 34.1027 40.3151 34.8044 40.738Z" fill="#111111"/>
<path d="M31.9509 45.2018C31.9509 43.6042 30.8282 41.6777 29.4716 40.879C28.7699 40.4561 28.115 40.4561 27.6472 40.738L16.4668 48.115C16.1861 48.303 15.999 48.5849 15.999 48.9608C15.999 49.5246 16.4668 49.9475 16.9814 49.9475C17.0282 49.9475 17.1217 49.9475 17.1685 49.9475L30.875 46.9873H30.9217C31.5299 46.7994 31.9509 46.1885 31.9509 45.2018Z" fill="#AEC6F7" stroke="#111111" stroke-miterlimit="10"/>
<path opacity="0.3" d="M31.9509 45.2018C31.9509 43.6042 30.8282 41.6777 29.4716 40.879C28.7699 40.4561 28.115 40.4561 27.6472 40.738L16.4668 48.115C16.1861 48.303 15.999 48.5849 15.999 48.9608C15.999 49.5246 16.4668 49.9475 16.9814 49.9475C17.0282 49.9475 17.1217 49.9475 17.1685 49.9475L30.875 46.9873H30.9217C31.5299 46.7994 31.9509 46.1885 31.9509 45.2018Z" fill="#AEC6F7" stroke="#111111" stroke-miterlimit="10"/>
<path d="M66.5207 74.2872L56.8841 60.6138C56.3696 59.909 55.434 59.7681 54.7323 60.2379C54.0306 60.7548 53.8902 61.6945 54.358 62.3994L63.9946 76.0727C64.1818 76.3546 64.1818 76.7305 63.9946 77.0125L58.615 84.5305C58.1004 85.2353 57.3051 85.5642 56.4631 85.4702C54.2645 85.1883 52.1594 86.128 51.0367 86.9738C50.5689 87.3027 50.3818 88.0075 50.7092 88.4774C51.0367 89.0413 51.7851 89.1822 52.2997 88.8063C52.3933 88.7593 53.8902 87.6786 55.5743 87.6316C55.9485 87.6316 56.1357 88.0545 55.9485 88.3365L52.019 93.787C51.5512 94.4448 51.598 95.3846 52.2062 95.9014C52.4401 96.1364 52.7675 96.2304 53.0482 96.2773C53.6096 96.3243 54.1709 96.1364 54.4984 95.6665L58.3811 90.2629C58.615 89.934 59.0828 90.028 59.1763 90.4039C59.6909 92.4244 58.5682 94.5388 58.5214 94.6798C58.2407 95.1966 58.4279 95.9014 58.9892 96.1834C59.1296 96.2304 59.2231 96.2773 59.3635 96.3243C59.7845 96.3713 60.2523 96.1834 60.4862 95.7605C60.5797 95.5725 62.4509 91.9545 60.954 88.8063C60.5797 88.0545 60.6733 87.1618 61.1879 86.457L66.6143 78.892C67.4563 77.4823 67.4563 75.6498 66.5207 74.2872Z" fill="#111111"/>
<path d="M40.1841 36.6032C50.4926 36.6032 58.8492 31.7437 58.8492 25.7491C58.8492 19.7546 50.4926 14.895 40.1841 14.895C29.8757 14.895 21.519 19.7546 21.519 25.7491C21.519 31.7437 29.8757 36.6032 40.1841 36.6032Z" fill="#00DABF"/>
<path d="M40.1841 36.6032C50.4926 36.6032 58.8492 31.7437 58.8492 25.7491C58.8492 19.7546 50.4926 14.895 40.1841 14.895C29.8757 14.895 21.519 19.7546 21.519 25.7491C21.519 31.7437 29.8757 36.6032 40.1841 36.6032Z" fill="#AEC6F7" stroke="#111111" stroke-miterlimit="10"/>
<path d="M54.3581 9.16235H25.9629L28.3954 25.2791C28.6293 26.8297 29.752 28.3802 31.8103 29.6019C36.4415 32.2802 43.9263 32.2802 48.5575 29.6019C50.6158 28.3802 51.7853 26.8766 51.9724 25.2791L54.3581 9.16235Z" fill="#AEC6F7" stroke="#111111" stroke-miterlimit="10"/>
<path opacity="0.4" d="M54.3581 9.16235H25.9629L28.3954 25.2791C28.6293 26.8297 29.752 28.3802 31.8103 29.6019C36.4415 32.2802 43.9263 32.2802 48.5575 29.6019C50.6158 28.3802 51.7853 26.8766 51.9724 25.2791L54.3581 9.16235Z" fill="#AEC6F7" stroke="#111111" stroke-miterlimit="10"/>
<path d="M30.1263 14.3311C24.5595 11.0889 24.5595 5.87333 30.1263 2.67818C35.693 -0.563952 44.6747 -0.563952 50.2415 2.67818C55.8083 5.92032 55.8083 11.1359 50.2415 14.3311C44.6747 17.5262 35.693 17.5262 30.1263 14.3311Z" fill="#AEC6F7" stroke="#111111" stroke-miterlimit="10"/>
<path opacity="0.4" d="M30.1263 14.3311C24.5595 11.0889 24.5595 5.87333 30.1263 2.67818C35.693 -0.563952 44.6747 -0.563952 50.2415 2.67818C55.8083 5.92032 55.8083 11.1359 50.2415 14.3311C44.6747 17.5262 35.693 17.5262 30.1263 14.3311Z" fill="#AEC6F7" stroke="#111111" stroke-miterlimit="10"/>
</g>
<defs>
<clipPath id="clip0">
<rect width="69" height="124" fill="white"/>
</clipPath>
</defs>
</svg>
