<svg width="550" height="616" viewBox="0 0 550 616" fill="none" xmlns="http://www.w3.org/2000/svg">
<g clip-path="url(#clip0)">
<path d="M548.914 490.817V136.141L277.454 108.453L137.548 103.741V458.442C137.522 458.783 137.522 459.137 137.548 459.478C137.75 463.306 140.618 467.297 146.064 470.43L351.299 589C361.635 594.962 377.278 595.619 386.225 590.453L542.899 500.025C547.144 497.574 549.103 494.265 548.914 490.817Z" fill="#AEC6F7" stroke="#111111" stroke-miterlimit="10"/>
<path d="M386.224 590.453L536.58 502.362C540.826 499.911 544.288 494.328 544.099 490.88V136.217L508.49 132.591L367.333 230.737V593.952C372.603 593.8 382.434 592.651 386.224 590.453Z" fill="#14100D"/>
<path d="M371.061 595C363.998 595 356.555 593.282 350.755 589.947L145.521 471.377C139.923 468.143 136.714 463.937 136.474 459.541C136.448 459.15 136.448 458.758 136.474 458.367V102.63L277.492 107.367L549.987 135.156V490.779C550.202 494.795 547.877 498.408 543.442 500.96L386.768 591.4C382.573 593.813 376.95 595 371.061 595ZM138.634 104.866V458.442C138.609 458.821 138.609 459.125 138.634 459.428C138.836 463.028 141.743 466.703 146.608 469.507L351.842 588.078C361.862 593.863 377.051 594.507 385.694 589.518L542.368 499.09C546.07 496.955 548.004 494.038 547.827 490.867V490.804V137.113L277.353 109.526L138.634 104.866Z" fill="#14100D"/>
<path d="M542.899 144.288L386.225 234.716C377.266 239.882 361.635 239.238 351.299 233.263L146.064 114.705C135.728 108.743 134.603 99.712 143.55 94.5457L300.236 4.11786C309.195 -1.04836 324.826 -0.404165 335.162 5.57047L540.397 124.141C550.733 130.103 551.858 139.122 542.899 144.288Z" fill="#AEC6F7" stroke="#111111" stroke-miterlimit="10"/>
<path d="M505.307 140.701L382.156 211.84C375.396 215.744 363.594 215.251 355.785 210.741L183.038 111.042C175.229 106.533 174.382 99.7245 181.142 95.8214L304.293 24.6816C311.053 20.7785 322.855 21.2712 330.664 25.7806L503.399 125.48C511.22 129.989 512.067 136.798 505.307 140.701Z" fill="white"/>
<path d="M370.695 215.529C365.312 215.529 359.651 214.228 355.241 211.676L182.507 111.977C178.059 109.413 175.506 105.927 175.506 102.428C175.506 99.4593 177.326 96.7814 180.611 94.8867L303.762 23.7595C310.813 19.6922 323.12 20.1849 331.22 24.8585L503.954 124.545C508.402 127.109 510.955 130.596 510.955 134.094C510.955 137.063 509.135 139.741 505.85 141.648L382.699 212.775C379.49 214.619 375.193 215.529 370.695 215.529ZM315.754 23.128C311.659 23.128 307.755 23.949 304.849 25.629L181.698 96.7561C179.108 98.2593 177.68 100.268 177.68 102.428C177.68 105.131 179.841 107.935 183.593 110.095L356.328 209.794C363.821 214.114 375.168 214.607 381.613 210.88L504.763 139.753C507.354 138.25 508.781 136.242 508.781 134.082C508.781 131.379 506.621 128.575 502.868 126.415L330.133 26.7153C326.014 24.3406 320.745 23.128 315.754 23.128Z" fill="#14100D"/>
<path d="M183.037 111.042L201.473 121.69L304.293 62.2979C311.053 58.3948 322.855 58.8874 330.664 63.3842L484.963 152.435L505.294 140.688C512.054 136.785 511.208 129.977 503.399 125.467L330.664 25.768C322.855 21.2586 311.053 20.7786 304.293 24.669L181.155 95.8215C174.394 99.7246 175.241 106.533 183.037 111.042Z" fill="#14100D"/>
<path d="M427.292 426.826L396.409 444.649V385.913L427.292 368.091V426.826Z" fill="white"/>
<path d="M395.55 446.139V385.408L395.979 385.155L428.163 366.587V427.319L427.734 427.571L395.55 446.139ZM397.281 386.418V443.146L426.432 426.321V369.593L397.281 386.418Z" fill="#14100D"/>
<path d="M420.696 371.905V422.342L396.409 436.363V444.649L427.292 426.826V368.09L420.696 371.905Z" fill="white"/>
<path d="M395.55 446.14V435.858L419.824 421.837V371.387L428.151 366.575V427.306L427.721 427.559L395.55 446.14ZM397.281 436.856V443.146L426.432 426.321V369.594L421.567 372.41V422.86L397.281 436.856Z" fill="#14100D"/>
<path d="M522.542 372.094L491.66 389.917V331.194L522.542 313.371V372.094Z" fill="white"/>
<path d="M490.8 391.42V330.689L491.23 330.436L523.414 311.868V372.6L522.984 372.852L490.8 391.42ZM492.531 331.687V388.414L521.683 371.589V314.862L492.531 331.687Z" fill="#14100D"/>
<path d="M515.946 317.173V367.623L491.66 381.631V389.917L522.542 372.094V313.371L515.946 317.173Z" fill="white"/>
<path d="M490.8 391.42V381.139L515.087 367.13V316.681L523.414 311.868V372.6L522.984 372.852L490.8 391.42ZM492.531 382.136V388.427L521.683 371.602V314.874L516.818 317.691V368.141L492.531 382.136Z" fill="#14100D"/>
<path d="M474.917 400.01L444.034 417.833V359.097L474.917 341.274V400.01Z" fill="white"/>
<path d="M443.175 419.323V358.604L443.604 358.351L475.788 339.783V400.515L475.359 400.767L443.175 419.323ZM444.906 359.602V416.329L474.057 399.504V342.777L444.906 359.602Z" fill="#14100D"/>
<path d="M468.321 345.089V395.526L444.034 409.546V417.833L474.917 400.01V341.274L468.321 345.089Z" fill="white"/>
<path d="M443.175 419.323V409.041L467.461 395.02V344.583L475.788 339.771V400.502L475.359 400.755L443.175 419.323ZM444.906 410.039V416.329L474.057 399.504V342.777L469.192 345.581V396.031L444.906 410.039Z" fill="#14100D"/>
<path d="M166.812 342.891L197.771 360.714V301.978L166.812 284.155V342.891Z" fill="white"/>
<path d="M198.643 362.204L165.953 343.383V282.652L198.643 301.473V362.204ZM167.672 342.386L196.911 359.21V302.483L167.672 285.658V342.386Z" fill="#14100D"/>
<path d="M173.434 290.85V341.299L197.771 355.307V363.594L166.812 345.771V287.048L173.434 290.85Z" fill="white"/>
<path d="M198.643 362.204L165.953 343.383V282.652L174.306 287.452V337.901L198.655 351.91V362.204H198.643ZM167.672 342.386L196.911 359.21V352.92L172.562 338.899V288.45L167.672 285.633V342.386Z" fill="#14100D"/>
<path d="M214.564 370.793L245.523 388.616V329.893L214.564 312.07V370.793Z" fill="white"/>
<path d="M246.394 390.119L213.705 371.299V310.567L246.394 329.388V390.119ZM215.424 370.301L244.663 387.126V330.398L215.424 313.573V370.301Z" fill="#14100D"/>
<path d="M221.186 318.765V369.202L245.523 383.223V391.509L214.564 373.686V314.95L221.186 318.765Z" fill="white"/>
<path d="M246.394 390.119L213.705 371.299V310.567L222.057 315.367V365.817L246.407 379.825V390.119H246.394ZM215.424 370.301L244.663 387.126V380.835L220.314 366.827V316.378L215.424 313.561V370.301Z" fill="#14100D"/>
<path d="M166.812 433.672L197.771 451.495V392.759L166.812 374.937V433.672Z" fill="white"/>
<path d="M198.643 452.986L165.953 434.165V373.433L198.643 392.254V452.986ZM167.672 433.167L196.911 449.992V393.252L167.672 376.427V433.167Z" fill="#14100D"/>
<path d="M173.434 381.631V432.081L197.771 446.089V454.375L166.812 436.552V377.829L173.434 381.631Z" fill="#FAEBCE"/>
<path d="M198.643 452.986L165.953 434.165V373.433L174.306 378.233V428.683L198.655 442.691V452.986H198.643ZM167.672 433.167L196.911 449.992V443.702L172.562 429.681V379.231L167.672 376.414V433.167Z" fill="#14100D"/>
<path d="M310.067 424.211L341.026 442.034V383.298L310.067 365.476V424.211Z" fill="white"/>
<path d="M341.897 443.525L309.208 424.704V363.972L341.897 382.793V443.525ZM310.927 423.706L340.166 440.531V383.804L310.927 366.979V423.706Z" fill="#14100D"/>
<path d="M316.676 372.17V422.62L341.026 436.628V444.914L310.067 427.091V368.368L316.676 372.17Z" fill="white"/>
<path d="M341.897 443.525L309.208 424.704V363.972L317.56 368.772V419.222L341.91 433.243V443.525H341.897ZM310.927 423.706L340.166 440.531V434.241L315.817 420.22V369.77L310.927 366.953V423.706V423.706Z" fill="#14100D"/>
<path d="M310.067 514.463L341.026 532.285V473.55L310.067 455.727V514.463Z" fill="white"/>
<path d="M341.897 533.776L309.208 514.955V454.224L341.897 473.044V533.776ZM310.927 513.957L340.166 530.782V474.055L310.927 457.23V513.957Z" fill="#14100D"/>
<path d="M316.676 462.421V512.871L341.026 526.879V535.165L310.067 517.343V458.607L316.676 462.421Z" fill="#FAEBCE"/>
<path d="M341.897 533.776L309.208 514.955V454.224L317.56 459.024V509.473L341.91 523.494V533.776H341.897ZM310.927 513.957L340.166 530.782V524.492L315.817 510.471V460.034L310.927 457.217V513.957V513.957Z" fill="#14100D"/>
<path d="M262.568 397.61L293.527 415.433V356.71L262.568 338.887V397.61Z" fill="white"/>
<path d="M294.398 416.936L261.709 398.115V337.384L294.398 356.204V416.936ZM263.44 397.117L292.68 413.942V357.215L263.44 340.39V397.117V397.117Z" fill="#14100D"/>
<path d="M269.19 345.581V396.031L293.527 410.039V418.325L262.568 400.502V341.767L269.19 345.581Z" fill="white"/>
<path d="M294.398 416.936L261.709 398.115V337.384L270.061 342.183V392.633L294.411 406.641V416.936H294.398ZM263.44 397.117L292.68 413.942V407.652L268.33 393.644V343.194L263.44 340.377V397.117V397.117Z" fill="#14100D"/>
<path d="M269.362 370.879L268.498 372.378L292.841 386.39L293.705 384.89L269.362 370.879Z" fill="#14100D"/>
<path d="M281.965 378.65H280.233V387.1H281.965V378.65Z" fill="#14100D"/>
<path d="M282.331 393.909C281.901 393.909 281.447 393.782 281.017 393.53L280.322 393.138C278.831 392.279 277.656 390.081 277.656 388.136C277.656 386.961 278.098 386.027 278.856 385.585C279.539 385.206 280.373 385.243 281.181 385.698L281.864 386.09C283.355 386.949 284.517 389.147 284.517 391.092C284.517 392.267 284.075 393.201 283.317 393.643C283.026 393.82 282.685 393.909 282.331 393.909ZM279.88 387.05C279.829 387.05 279.779 387.062 279.741 387.088C279.576 387.189 279.4 387.542 279.4 388.136C279.4 389.45 280.234 391.092 281.194 391.648L281.889 392.039C282.003 392.102 282.293 392.254 282.47 392.153C282.634 392.052 282.811 391.686 282.811 391.104C282.811 389.791 281.977 388.149 281.017 387.606L280.335 387.214C280.234 387.151 280.044 387.05 279.88 387.05Z" fill="#14100D"/>
<path d="M173.87 389.488L173.006 390.987L197.349 404.999L198.213 403.499L173.87 389.488Z" fill="#14100D"/>
<path d="M173.868 295.072L173.004 296.572L197.347 310.583L198.211 309.084L173.868 295.072Z" fill="#14100D"/>
<path d="M444.464 460.64L443.604 459.15L467.878 445.129L468.75 446.632L444.464 460.64Z" fill="#14100D"/>
<path d="M457.037 452.885H455.306V461.335H457.037V452.885Z" fill="#14100D"/>
<path d="M454.952 468.156C454.598 468.156 454.257 468.067 453.953 467.891C453.195 467.449 452.753 466.526 452.753 465.339C452.753 463.394 453.915 461.196 455.407 460.337L456.089 459.933C456.898 459.478 457.732 459.428 458.414 459.819C459.172 460.261 459.614 461.196 459.614 462.371C459.614 464.316 458.452 466.514 456.961 467.373L456.278 467.764C455.823 468.03 455.381 468.156 454.952 468.156ZM457.39 461.284C457.226 461.284 457.037 461.385 456.948 461.436L456.266 461.84C455.305 462.383 454.471 464.025 454.471 465.339C454.471 465.933 454.636 466.286 454.813 466.387C454.977 466.476 455.28 466.337 455.394 466.274L456.076 465.882C457.024 465.339 457.871 463.697 457.871 462.383C457.871 461.79 457.694 461.436 457.529 461.335C457.491 461.297 457.441 461.284 457.39 461.284Z" fill="#14100D"/>
<path d="M396.839 402.687L395.979 401.184L420.253 387.164L421.125 388.667L396.839 402.687Z" fill="#14100D"/>
<path d="M491.445 368.469L490.573 366.966L514.859 352.958L515.731 354.461L491.445 368.469Z" fill="#14100D"/>
<path d="M427.418 337.106L396.536 354.929V296.205L427.418 278.383V337.106Z" fill="white"/>
<path d="M395.676 356.431V295.7L396.106 295.447L428.29 276.879V337.611L427.86 337.863L395.676 356.431ZM397.407 296.698V353.425L426.559 336.6V279.873L397.407 296.698Z" fill="#14100D"/>
<path d="M420.822 282.184V332.634L396.536 346.642V354.928L427.418 337.105V278.382L420.822 282.184Z" fill="white"/>
<path d="M395.676 356.432V346.15L419.963 332.129V281.679L428.29 276.867V337.598L427.86 337.851L395.676 356.432ZM397.407 347.148V353.438L426.559 336.613V279.873L421.694 282.69V333.139L397.407 347.148Z" fill="#14100D"/>
<path d="M522.669 282.387L491.786 300.21V241.474L522.669 223.651V282.387Z" fill="white"/>
<path d="M490.927 301.7V240.968L491.356 240.716L523.54 222.148V282.879L523.111 283.132L490.927 301.7ZM492.658 241.979V298.706L521.809 281.881V225.154L492.658 241.979Z" fill="#14100D"/>
<path d="M516.073 227.466V277.903L491.786 291.923V300.21L522.669 282.387V223.651L516.073 227.466Z" fill="white"/>
<path d="M490.927 301.7V291.418L515.213 277.41V226.96L523.54 222.148V282.879L523.111 283.132L490.927 301.7ZM492.658 292.416V298.706L521.809 281.881V225.154L516.944 227.971V278.42L492.658 292.416Z" fill="#14100D"/>
<path d="M475.043 310.289L444.161 328.112V269.376L475.043 251.553V310.289Z" fill="white"/>
<path d="M443.301 329.615V268.884L443.731 268.631L475.915 250.063V310.795L475.485 311.047L443.301 329.615ZM445.032 269.882V326.609L474.184 309.784V253.057L445.032 269.882Z" fill="#14100D"/>
<path d="M468.447 255.368V305.818L444.161 319.826V328.112L475.043 310.289V251.553L468.447 255.368Z" fill="white"/>
<path d="M443.301 329.615V319.333L467.588 305.325V254.876L475.915 250.063V310.795L475.485 311.047L443.301 329.615ZM445.032 320.331V326.622L474.184 309.797V253.069L469.319 255.873V306.323L445.032 320.331Z" fill="#14100D"/>
<path d="M396.978 312.967L396.106 311.464L420.392 297.456L421.252 298.946L396.978 312.967Z" fill="#14100D"/>
<path d="M491.571 278.749L490.699 277.258L514.986 263.237L515.858 264.74L491.571 278.749Z" fill="#14100D"/>
<path d="M218.355 469.116C218.216 469.053 218.077 468.99 217.963 468.927L217.116 468.434C214.842 467.12 212.845 463.887 212.15 460.691C211.974 459.908 211.835 460.666 211.835 460.666L211.746 464.733C212.858 466.969 214.438 468.889 216.245 469.937L217.091 470.43C217.521 470.67 217.938 470.846 218.355 470.985V469.116Z" fill="#F3BC54"/>
<path d="M282.003 549.237L211.721 508.639V441.605L282.003 482.202V549.237Z" fill="white"/>
<path d="M282.862 550.727L210.862 509.145V440.114L282.862 481.697V550.727ZM212.593 508.147L281.131 547.733V482.695L212.593 443.108V508.147Z" fill="#14100D"/>
<path d="M218.38 504.307V445.457L211.721 441.605V508.639L282.003 549.237V541.051L218.38 504.307Z" fill="#AEC6F7" stroke="#111111" stroke-miterlimit="10"/>
<path d="M282.862 550.727L210.862 509.145V440.114L219.252 444.965V503.814L282.862 540.559V550.727V550.727ZM212.593 508.147L281.131 547.733V541.557L217.521 504.812V445.963L212.593 443.121V508.147Z" fill="#14100D"/>
<path d="M272.172 496.059L298.569 481.709V445.331L267.219 459.731L272.172 496.059Z" fill="#120E0C"/>
<path d="M271.49 497.423L266.271 459.225L299.441 444.927V482.24L271.49 497.423ZM268.154 460.249L272.854 494.694L297.697 481.191V446.67L268.154 460.249Z" fill="#14100D"/>
<path d="M272.02 493.507V491.322C272.02 474.383 282.319 454.716 295.03 447.377L298.581 445.331L201.233 389.551L197.683 391.597C184.983 398.923 174.672 418.603 174.672 435.542V437.121V437.74V438.51C174.672 442.679 177.212 447.516 180.333 449.323L181.18 449.815C184.301 451.621 186.841 449.702 186.841 445.533C186.841 449.702 189.381 454.539 192.502 456.346L193.348 456.838C196.47 458.645 199.009 456.725 199.009 452.556C199.009 456.725 201.549 461.562 204.67 463.369L205.517 463.861C208.638 465.668 211.178 463.748 211.178 459.579C211.178 463.748 213.718 468.585 216.839 470.392L217.685 470.884C220.806 472.691 223.346 470.771 223.346 466.602C223.346 470.771 225.886 475.608 229.007 477.415L229.854 477.907C232.975 479.714 235.515 477.794 235.515 473.625C235.515 477.794 238.055 482.631 241.176 484.438L242.022 484.93C245.156 486.737 247.683 484.817 247.683 480.648C247.683 484.817 250.223 489.655 253.344 491.461L254.191 491.953C257.325 493.76 259.852 491.84 259.852 487.671C259.852 491.84 262.392 496.678 265.513 498.484L266.359 498.976C269.48 500.783 272.02 498.863 272.02 494.694V493.494V493.507Z" fill="#AEC6F7" stroke="#111111" stroke-miterlimit="10"/>
<path d="M273.208 482.733C275.761 468.876 283.987 454.88 293.931 448.312L203.419 396.448L199.869 398.494C190.303 404.014 182.102 416.532 178.64 429.618L273.208 482.733Z" fill="white"/>
<path d="M268.621 500.517C267.762 500.517 266.852 500.252 265.942 499.722L265.096 499.229C262.695 497.84 260.66 494.922 259.662 491.739C259.308 492.257 258.866 492.686 258.348 492.989C257.047 493.747 255.416 493.633 253.774 492.686L252.927 492.193C250.526 490.804 248.492 487.886 247.494 484.703C247.14 485.234 246.685 485.65 246.18 485.954C244.865 486.711 243.248 486.598 241.605 485.65L240.759 485.158C238.358 483.781 236.323 480.85 235.325 477.667C234.971 478.198 234.529 478.615 234.011 478.918C232.71 479.676 231.08 479.562 229.437 478.615L228.59 478.122C226.189 476.733 224.155 473.815 223.157 470.632C222.803 471.162 222.361 471.579 221.843 471.882C220.541 472.64 218.911 472.526 217.268 471.579L216.422 471.15C214.021 469.76 211.986 466.842 210.988 463.659C210.634 464.19 210.192 464.607 209.674 464.91C208.373 465.668 206.743 465.554 205.1 464.607L204.253 464.114C201.852 462.724 199.818 459.807 198.82 456.623C198.466 457.154 198.024 457.571 197.506 457.874C196.204 458.632 194.574 458.518 192.931 457.571L192.085 457.078C189.684 455.689 187.649 452.771 186.651 449.588C186.297 450.106 185.855 450.535 185.337 450.838C184.036 451.596 182.406 451.483 180.763 450.535L179.916 450.043C176.505 448.072 173.826 442.994 173.826 438.485V435.516C173.826 418.338 184.339 398.292 197.266 390.827L201.258 388.528L201.688 388.768L299.453 444.889L295.473 448.097C283.026 455.285 272.905 474.661 272.905 491.284V492.08L272.917 492.067V494.669C272.917 497.17 272.045 499.115 270.529 500C269.935 500.353 269.291 500.517 268.621 500.517ZM258.992 487.671H260.724C260.724 491.562 263.074 496.071 265.955 497.739L266.802 498.231C267.572 498.673 268.672 499.077 269.645 498.522C270.592 497.979 271.148 496.627 271.161 494.821L271.148 491.309C271.148 474.131 281.662 454.085 294.588 446.619L296.837 445.318L201.233 390.536L198.112 392.342C185.666 399.542 175.544 418.919 175.544 435.542V438.51C175.544 442.401 177.894 446.91 180.775 448.577L181.622 449.07C182.38 449.512 183.505 449.916 184.465 449.373C185.438 448.817 185.994 447.415 185.994 445.546H187.725C187.725 449.436 190.076 453.946 192.957 455.613L193.803 456.106C194.574 456.548 195.673 456.952 196.646 456.396C197.619 455.84 198.175 454.438 198.175 452.569H199.906C199.906 456.459 202.257 460.969 205.138 462.636L205.984 463.129C206.743 463.571 207.854 463.975 208.827 463.419C209.8 462.863 210.356 461.461 210.356 459.592H212.088C212.088 463.407 214.488 468.017 217.319 469.659L218.165 470.152C218.936 470.594 220.048 471.011 221.009 470.455C221.982 469.899 222.538 468.497 222.538 466.628H224.269C224.269 470.518 226.619 475.027 229.5 476.695L230.347 477.187C231.105 477.629 232.217 478.046 233.19 477.49C234.163 476.935 234.719 475.533 234.719 473.663H236.45C236.45 477.554 238.8 482.063 241.681 483.73L242.528 484.223C243.299 484.665 244.398 485.069 245.371 484.526C246.344 483.97 246.9 482.568 246.9 480.699H248.631C248.631 484.514 251.032 489.124 253.862 490.766L254.709 491.259C255.48 491.701 256.592 492.105 257.552 491.562C258.437 490.943 258.992 489.541 258.992 487.671Z" fill="#14100D"/>
<path d="M198.896 452.657V451.887V451.268V449.689C198.896 432.75 209.194 413.083 221.906 405.744L225.457 403.698L213.25 396.511L209.7 398.557C197 405.896 186.689 425.563 186.689 442.502V444.08V444.699V445.47C186.689 449.638 189.229 454.476 192.35 456.282L193.197 456.775C196.318 458.581 198.858 456.661 198.858 452.493C198.858 453.541 198.896 453.655 198.896 452.657Z" fill="#120E0C"/>
<path d="M195.459 458.316C194.599 458.316 193.69 458.051 192.767 457.52L191.921 457.028C188.509 455.057 185.83 449.979 185.83 445.47V442.502C185.83 425.323 196.343 405.277 209.27 397.812L213.263 395.513L227.188 403.711L222.348 406.502C209.902 413.689 199.768 433.066 199.768 449.689L199.742 454.047L199.603 454.072C199.313 455.815 198.517 457.141 197.341 457.823C196.76 458.152 196.128 458.316 195.459 458.316ZM213.25 397.509L210.142 399.302C197.695 406.49 187.574 425.866 187.574 442.489V445.457C187.574 449.348 189.924 453.857 192.805 455.525L193.652 456.017C194.423 456.459 195.535 456.876 196.495 456.32C197.468 455.765 198.024 454.362 198.024 452.493H198.062V449.689C198.062 432.51 208.575 412.464 221.502 404.999L223.776 403.685L213.25 397.509Z" fill="#14100D"/>
<path d="M223.258 466.501V465.731V465.112V463.533C223.258 446.594 233.557 426.927 246.268 419.588L249.819 417.542L237.613 410.355L234.062 412.401C221.363 419.727 211.052 439.407 211.052 456.346V457.924V458.543V459.314C211.052 463.482 213.592 468.32 216.713 470.126L217.559 470.619C220.693 472.425 223.22 470.505 223.22 466.337C223.22 467.385 223.258 467.499 223.258 466.501Z" fill="#120E0C"/>
<path d="M219.808 472.16C218.949 472.16 218.039 471.895 217.117 471.364L216.27 470.872C212.846 468.901 210.18 463.823 210.18 459.314V456.346C210.18 439.167 220.693 419.121 233.62 411.656L237.612 409.357L251.537 417.555L246.698 420.346C234.251 427.533 224.117 446.91 224.117 463.533L224.092 467.891L223.953 467.916C223.662 469.659 222.879 470.985 221.691 471.667C221.11 471.983 220.478 472.16 219.808 472.16ZM237.6 411.353L234.491 413.146C222.045 420.334 211.923 439.71 211.923 456.333V459.301C211.923 463.116 214.324 467.726 217.155 469.369L218.001 469.861C218.772 470.303 219.884 470.707 220.844 470.164C221.817 469.609 222.373 468.206 222.373 466.337H222.411V463.533C222.411 446.354 232.925 426.308 245.851 418.843L248.126 417.529L237.6 411.353Z" fill="#14100D"/>
<path d="M272.02 494.366V493.595V492.976V491.397C272.02 474.459 282.319 454.792 295.031 447.453L298.581 445.407L286.375 438.219L282.824 440.266C270.125 447.592 259.814 467.272 259.814 484.21V485.789V486.408V487.179C259.814 491.347 262.354 496.185 265.475 497.991L266.322 498.484C269.443 500.29 271.982 498.37 271.982 494.202C271.97 495.263 272.02 495.376 272.02 494.366Z" fill="#120E0C"/>
<path d="M268.571 500.037C267.711 500.037 266.801 499.772 265.879 499.242L265.032 498.749C261.621 496.779 258.942 491.701 258.942 487.179V484.21C258.942 467.032 269.455 446.986 282.382 439.521L286.375 437.222L299.44 444.914L295.46 448.211C283.014 455.398 272.892 474.775 272.892 491.398L272.867 495.755L272.728 495.781C272.437 497.524 271.641 498.85 270.466 499.532C269.872 499.861 269.24 500.037 268.571 500.037ZM286.362 439.23L283.254 441.024C270.807 448.211 260.673 467.587 260.673 484.21V487.179C260.673 491.069 263.023 495.579 265.904 497.246L266.751 497.738C267.509 498.181 268.621 498.585 269.594 498.042C270.567 497.486 271.123 496.084 271.123 494.214H271.161V491.41C271.161 474.232 281.674 454.186 294.601 446.72L296.875 445.407L286.362 439.23Z" fill="#14100D"/>
<path d="M247.608 480.56V479.789V479.17V477.592C247.608 460.653 257.906 440.986 270.618 433.647L274.169 431.601L261.962 424.414L258.412 426.46C245.712 433.799 235.401 453.466 235.401 470.404V471.983V472.602V473.373C235.401 477.541 237.941 482.379 241.062 484.185L241.909 484.678C245.03 486.484 247.57 484.564 247.57 480.396C247.57 481.457 247.608 481.57 247.608 480.56Z" fill="#120E0C"/>
<path d="M244.158 486.219C243.299 486.219 242.389 485.953 241.479 485.423L240.633 484.93C237.208 482.96 234.542 477.882 234.542 473.373V470.404C234.542 453.226 245.055 433.18 257.982 425.714L261.975 423.416L275.9 431.613L271.06 434.405C258.614 441.592 248.492 460.956 248.492 477.591L248.467 481.949L248.328 481.975C248.037 483.705 247.254 485.031 246.066 485.713C245.472 486.054 244.828 486.219 244.158 486.219ZM261.95 425.424L258.841 427.218C246.395 434.405 236.26 453.781 236.26 470.404V473.373C236.26 477.187 238.661 481.798 241.492 483.44L242.338 483.932C243.109 484.374 244.221 484.779 245.182 484.223C246.154 483.667 246.71 482.265 246.71 480.396H246.748V477.591C246.748 460.413 257.262 440.354 270.188 432.902L272.463 431.588L261.95 425.424Z" fill="#14100D"/>
<path d="M249.3 484.741H247.569V521.662H249.3V484.741Z" fill="#14100D"/>
<path d="M211.721 508.639L218.38 504.307V470.985L211.911 465.983L211.721 508.639Z" fill="#14100D"/>
<path d="M242.666 490.509L226.668 501.291L227.636 502.726L243.634 491.944L242.666 490.509Z" fill="#120E0C"/>
<path d="M281.553 511.399L257.005 526.134L257.897 527.617L282.444 512.882L281.553 511.399Z" fill="#120E0C"/>
<path d="M269.269 507.889L258.489 515.043L259.447 516.484L270.226 509.33L269.269 507.889Z" fill="#120E0C"/>
<path d="M272.942 491.486C272.942 474.851 283.064 455.474 295.51 448.299L298.568 446.607L296.85 445.533L294.638 446.809C281.712 454.274 271.199 474.32 271.199 491.499V494.303H271.161C271.161 494.77 271.123 495.212 271.06 495.617L272.904 494.795L272.942 491.486Z" fill="#AEC6F7" stroke="#111111" stroke-miterlimit="10"/>
<path d="M315.02 22.0543V59.6705H309.486L201.486 121.69L179.461 108.364L176.58 103.981L177.642 99.0045L181.154 95.8214L306.403 23.6838L310.711 22.0543H315.02Z" fill="#15110E"/>
<path d="M166.812 343.169L173.434 338.697V288.248L166.812 284.446V343.169Z" fill="#14100D"/>
<path d="M310.067 514.715L316.676 510.244V459.794L310.067 455.992V514.715Z" fill="#14100D"/>
<path d="M166.812 434.392L173.434 429.908V379.471L166.812 375.656V434.392Z" fill="#14100D"/>
<path d="M214.564 371.084L221.185 366.6V316.163L214.564 312.348V371.084Z" fill="#14100D"/>
<path d="M262.315 397.736L268.937 393.265V342.828L262.315 339.013V397.736Z" fill="#14100D"/>
<path d="M310.067 424.35L316.676 419.879V369.429L310.067 365.627V424.35Z" fill="#14100D"/>
<path d="M128.146 174.06L152.306 160.153C152.306 160.153 152.331 160.178 152.344 160.178C153.355 159.635 154.644 159.673 156.072 160.494L349.15 272.256C352.385 274.126 355.001 279.153 355.001 283.473V324.588C355.001 326.723 354.356 328.276 353.32 329.085C353.194 329.186 353.055 329.236 352.916 329.312L329.375 342.853L314.047 309.215L305.947 304.011L156.084 217.272C152.849 215.402 150.234 210.375 150.234 206.055V204.009L139.379 197.036L128.146 174.06Z" fill="#AEC6F7" stroke="black" stroke-miterlimit="10"/>
<path d="M152.521 170.043L152.559 170.069C153.57 169.525 154.859 169.563 156.286 170.384L349.365 282.147C352.6 284.016 355.215 289.043 355.215 293.363L320.492 312.967L314.275 319.131L306.175 313.927L156.286 227.162C153.052 225.293 150.436 220.266 150.436 215.946V213.899L139.582 206.927L128.361 183.95L152.521 170.043Z" fill="white"/>
<path d="M328.768 344.798L353.611 330.512C353.838 330.398 354.002 330.297 354.167 330.184C355.595 329.059 356.378 327.076 356.378 324.601V283.485C356.378 278.648 353.51 273.204 349.845 271.081L156.767 159.319C155.074 158.334 153.33 158.182 151.864 158.902L151.649 158.978L128.209 172.443C127.173 173.037 126.782 174.351 127.3 175.424L138.318 197.984L148.869 204.754V206.055C148.869 210.893 151.738 216.337 155.402 218.459L305.291 305.224L312.999 310.176L328.768 344.798ZM153.823 161.176C154.391 161.176 154.96 161.416 155.402 161.669L348.481 273.431C351.286 275.06 353.649 279.646 353.649 283.473V324.588C353.649 326.192 353.232 327.443 352.499 328.011L330.007 340.933L315.134 308.293L306.706 302.875L156.767 216.085C153.962 214.455 151.599 209.87 151.599 206.055V203.264L140.441 196.102L129.928 174.603L152.104 161.846L152.205 161.947L153.001 161.378C153.254 161.239 153.532 161.176 153.823 161.176Z" fill="#14100D"/>
<path d="M132.215 230.977L325.294 342.739C328.528 344.609 331.144 342.625 331.144 338.306V297.19C331.144 292.871 328.528 287.843 325.294 285.974L132.215 174.199C128.98 172.33 126.365 174.313 126.365 178.633V219.748C126.365 224.08 128.98 229.107 132.215 230.977Z" fill="white"/>
<path d="M327.619 344.811C328.389 344.811 329.135 344.621 329.805 344.23C331.523 343.232 332.509 341.072 332.509 338.305V297.19C332.509 292.353 329.64 286.909 325.976 284.786L132.898 173.024C131.053 171.963 129.208 171.849 127.704 172.708C125.986 173.706 125 175.866 125 178.645V219.76C125 224.598 127.868 230.042 131.533 232.164L324.611 343.926C325.635 344.52 326.658 344.811 327.619 344.811ZM129.903 174.856C130.484 174.856 131.078 175.108 131.545 175.374L324.624 287.136C327.429 288.765 329.792 293.351 329.792 297.178V338.293C329.792 340.036 329.287 341.375 328.453 341.855C327.657 342.31 326.671 341.943 325.989 341.552L132.898 229.79C130.092 228.16 127.729 223.575 127.729 219.748V178.633C127.729 176.889 128.235 175.55 129.069 175.071C129.334 174.919 129.612 174.856 129.903 174.856Z" fill="#14100D"/>
<path d="M330.942 295.094L355.216 281.427L355.014 324.601L353.333 329.097L329.388 342.865L331.89 339.468L330.942 295.094Z" fill="#14100D"/>
<path d="M438.689 559.241L508.971 518.656V451.622L438.689 492.206V559.241Z" fill="white"/>
<path d="M437.83 560.744L509.83 519.161V450.131L437.83 491.714V560.744V560.744ZM508.099 518.164L439.561 557.75V492.711L508.099 453.125V518.164Z" fill="#14100D"/>
<path d="M502.312 514.324V455.474L508.971 451.622V518.656L438.689 559.241V551.068L502.312 514.324Z" fill="#AEC6F7" stroke="#111111" stroke-miterlimit="10"/>
<path d="M437.83 560.744L509.83 519.161V450.131L501.44 454.982V513.831L437.83 550.576V560.744V560.744ZM508.099 518.164L439.561 557.75V551.574L503.171 514.829V455.979L508.099 453.137V518.164V518.164Z" fill="#14100D"/>
<path d="M448.52 506.075L422.124 491.726V455.348L453.474 469.747L448.52 506.075Z" fill="#120E0C"/>
<path d="M449.202 507.427L454.421 469.23L421.251 454.931V492.244L449.202 507.427ZM452.526 470.265L447.825 504.711L422.983 491.208V456.687L452.526 470.265Z" fill="#14100D"/>
<path d="M448.672 503.524V501.338C448.672 484.4 438.373 464.733 425.662 457.394L422.111 455.348L519.446 399.58L522.997 401.627C535.696 408.953 546.007 428.632 546.007 445.571V447.15V447.769V448.539C546.007 452.708 543.467 457.546 540.346 459.352L539.5 459.844C536.378 461.651 533.839 459.731 533.839 455.562C533.839 459.731 531.299 464.569 528.178 466.375L527.331 466.868C524.21 468.674 521.67 466.754 521.67 462.586C521.67 466.754 519.13 471.592 516.009 473.398L515.163 473.891C512.041 475.697 509.502 473.777 509.502 469.609C509.502 473.777 506.962 478.615 503.841 480.421L502.994 480.914C499.873 482.72 497.333 480.8 497.333 476.632C497.333 480.8 494.793 485.638 491.672 487.444L490.826 487.937C487.704 489.743 485.165 487.823 485.165 483.655C485.165 487.823 482.625 492.661 479.504 494.467L478.657 494.96C475.523 496.766 472.996 494.846 472.996 490.678C472.996 494.846 470.456 499.684 467.335 501.49L466.489 501.983C463.355 503.789 460.828 501.869 460.828 497.701C460.828 501.869 458.288 506.707 455.167 508.513L454.32 509.006C451.199 510.812 448.659 508.892 448.659 504.724V503.524H448.672Z" fill="#AEC6F7" stroke="#111111" stroke-miterlimit="10"/>
<path d="M447.484 492.749C444.931 478.893 436.705 464.897 426.761 458.329L517.273 406.464L520.823 408.511C530.389 414.031 538.59 426.548 542.052 439.634L447.484 492.749Z" fill="white"/>
<path d="M452.071 510.534C452.93 510.534 453.84 510.269 454.749 509.738L455.596 509.246C457.997 507.856 460.031 504.939 461.03 501.755C461.383 502.273 461.826 502.703 462.344 503.006C463.645 503.764 465.275 503.65 466.918 502.703L467.765 502.21C470.165 500.821 472.2 497.903 473.198 494.72C473.552 495.25 474.007 495.667 474.512 495.97C475.826 496.728 477.444 496.614 479.086 495.667L479.933 495.174C482.334 493.798 484.368 490.867 485.367 487.684C485.72 488.215 486.163 488.631 486.681 488.935C487.982 489.692 489.612 489.579 491.255 488.631L492.102 488.139C494.502 486.749 496.537 483.832 497.535 480.648C497.889 481.179 498.331 481.596 498.849 481.899C500.151 482.657 501.781 482.543 503.423 481.596L504.27 481.103C506.671 479.714 508.705 476.796 509.704 473.613C510.057 474.143 510.5 474.56 511.018 474.863C512.319 475.621 513.949 475.507 515.592 474.56L516.439 474.067C518.839 472.678 520.874 469.76 521.872 466.577C522.226 467.108 522.668 467.524 523.186 467.828C524.488 468.585 526.118 468.472 527.76 467.524L528.607 467.032C531.008 465.642 533.042 462.725 534.041 459.541C534.394 460.059 534.837 460.489 535.355 460.792C536.656 461.55 538.286 461.436 539.929 460.489L540.776 459.996C544.187 458.026 546.866 452.948 546.866 448.438V445.47C546.866 428.291 536.353 408.245 523.426 400.78L519.433 398.481L519.004 398.721L421.239 454.843L425.219 458.051C437.666 465.238 447.787 484.615 447.787 501.238V502.033L447.774 502.021V504.623C447.774 507.124 448.646 509.069 450.163 509.953C450.756 510.37 451.401 510.534 452.071 510.534ZM461.699 497.688H459.968C459.968 501.579 457.618 506.088 454.737 507.755L453.89 508.248C453.119 508.69 452.02 509.094 451.047 508.538C450.099 507.995 449.543 506.644 449.531 504.837L449.543 501.326C449.543 484.147 439.03 464.101 426.104 456.636L423.854 455.335L519.459 400.553L522.58 402.359C535.026 409.547 545.148 428.923 545.148 445.546V448.514C545.148 452.405 542.797 456.914 539.916 458.581L539.07 459.074C538.312 459.516 537.187 459.92 536.227 459.377C535.254 458.821 534.698 457.419 534.698 455.55H532.966C532.966 459.44 530.616 463.95 527.735 465.617L526.889 466.11C526.118 466.552 525.018 466.956 524.045 466.4C523.072 465.844 522.516 464.442 522.516 462.573H520.785C520.785 466.463 518.435 470.973 515.554 472.64L514.707 473.133C513.949 473.575 512.837 473.979 511.864 473.423C510.891 472.867 510.335 471.465 510.335 469.596H508.604C508.604 473.411 506.203 478.021 503.373 479.663L502.526 480.156C501.755 480.598 500.644 481.015 499.683 480.459C498.71 479.903 498.154 478.501 498.154 476.632H496.423C496.423 480.522 494.073 485.032 491.192 486.699L490.345 487.191C489.587 487.634 488.475 488.05 487.502 487.495C486.529 486.939 485.973 485.537 485.973 483.667H484.242C484.242 487.558 481.892 492.067 479.011 493.735L478.164 494.227C477.393 494.669 476.294 495.073 475.321 494.53C474.348 493.975 473.792 492.572 473.792 490.703H472.061C472.061 494.518 469.66 499.128 466.83 500.77L465.983 501.263C465.212 501.705 464.1 502.109 463.14 501.566C462.255 500.96 461.699 499.558 461.699 497.688Z" fill="#14100D"/>
<path d="M521.796 462.674V461.903V461.285V459.706C521.796 442.767 511.498 423.1 498.786 415.761L495.235 413.715L507.442 406.528L510.992 408.574C523.692 415.913 534.003 435.58 534.003 452.518V454.097V454.716V455.487C534.003 459.655 531.463 464.493 528.342 466.299L527.495 466.792C524.374 468.598 521.834 466.678 521.834 462.51C521.834 463.558 521.796 463.672 521.796 462.674Z" fill="#120E0C"/>
<path d="M525.233 468.333C526.093 468.333 527.002 468.068 527.925 467.537L528.772 467.045C532.183 465.074 534.862 459.996 534.862 455.487V452.518C534.862 435.34 524.349 415.294 511.422 407.829L507.429 405.53L493.504 413.728L498.344 416.519C510.79 423.706 520.925 443.083 520.925 459.706L520.95 464.064L521.089 464.089C521.379 465.832 522.176 467.158 523.351 467.84C523.932 468.156 524.564 468.333 525.233 468.333ZM507.442 407.526L510.55 409.319C522.997 416.506 533.118 435.883 533.118 452.506V455.474C533.118 459.365 530.768 463.874 527.887 465.541L527.04 466.034C526.27 466.476 525.158 466.893 524.197 466.337C523.224 465.781 522.668 464.379 522.668 462.51H522.63V459.706C522.63 442.527 512.117 422.481 499.191 415.016L496.916 413.702L507.442 407.526Z" fill="#14100D"/>
<path d="M497.434 476.505V475.735V475.116V473.537C497.434 456.598 487.136 436.931 474.424 429.592L470.873 427.546L483.079 420.359L486.63 422.405C499.329 429.731 509.64 449.411 509.64 466.35V467.929V468.547V469.318C509.64 473.486 507.101 478.324 503.979 480.13L503.133 480.623C499.999 482.429 497.472 480.509 497.472 476.341C497.472 477.402 497.434 477.516 497.434 476.505Z" fill="#120E0C"/>
<path d="M500.883 482.164C501.743 482.164 502.652 481.899 503.575 481.368L504.421 480.876C507.846 478.905 510.512 473.827 510.512 469.318V466.35C510.512 449.171 499.999 429.125 487.072 421.66L483.079 419.361L469.154 427.559L473.994 430.35C486.44 437.538 496.574 456.914 496.574 473.537L496.6 477.895L496.739 477.92C497.029 479.663 497.813 480.989 499.001 481.672C499.582 482 500.214 482.164 500.883 482.164ZM483.092 421.369L486.2 423.163C498.647 430.35 508.768 449.727 508.768 466.35V469.318C508.768 473.133 506.367 477.743 503.537 479.385L502.69 479.878C501.92 480.32 500.808 480.724 499.847 480.181C498.874 479.625 498.318 478.223 498.318 476.354H498.28V473.55C498.28 456.371 487.767 436.325 474.841 428.86L472.566 427.546L483.092 421.369Z" fill="#14100D"/>
<path d="M448.672 504.383V503.612V502.993V501.414C448.672 484.476 438.373 464.809 425.662 457.47L422.111 455.424L434.317 448.236L437.868 450.283C450.567 457.609 460.878 477.288 460.878 494.227V495.806V496.425V497.195C460.878 501.364 458.338 506.202 455.217 508.008L454.371 508.501C451.25 510.307 448.71 508.387 448.71 504.219C448.722 505.28 448.672 505.393 448.672 504.383Z" fill="#120E0C"/>
<path d="M452.121 510.042C452.98 510.042 453.89 509.776 454.813 509.246L455.659 508.753C459.071 506.783 461.75 501.705 461.75 497.196V494.227C461.75 477.049 451.237 457.003 438.31 449.537L434.317 447.239L421.251 454.931L425.232 458.228C437.678 465.415 447.8 484.792 447.8 501.414L447.825 505.772L447.964 505.797C448.255 507.541 449.051 508.867 450.226 509.549C450.82 509.877 451.452 510.042 452.121 510.042ZM434.33 449.247L437.438 451.041C449.885 458.228 460.019 477.604 460.019 494.227V497.196C460.019 501.086 457.668 505.595 454.787 507.263L453.941 507.755C453.183 508.197 452.071 508.602 451.098 508.058C450.125 507.503 449.569 506.101 449.569 504.231H449.531V501.427C449.531 484.248 439.018 464.202 426.091 456.737L423.817 455.424L434.33 449.247Z" fill="#14100D"/>
<path d="M473.084 490.577V489.806V489.187V487.608C473.084 470.67 462.786 451.003 450.074 443.664L446.523 441.617L458.73 434.43L462.281 436.476C474.98 443.815 485.291 463.482 485.291 480.421V482V482.619V483.389C485.291 487.558 482.751 492.395 479.63 494.202L478.783 494.694C475.662 496.501 473.122 494.581 473.122 490.412C473.122 491.461 473.084 491.574 473.084 490.577Z" fill="#120E0C"/>
<path d="M476.534 496.235C477.393 496.235 478.303 495.97 479.213 495.44L480.06 494.947C483.484 492.977 486.15 487.899 486.15 483.389V480.421C486.15 463.242 475.637 443.196 462.71 435.731L458.717 433.432L444.792 441.63L449.632 444.422C462.079 451.609 472.2 470.973 472.2 487.608L472.225 491.966L472.364 491.991C472.655 493.722 473.438 495.048 474.626 495.73C475.22 496.071 475.864 496.235 476.534 496.235ZM458.743 435.428L461.851 437.222C474.298 444.409 484.432 463.785 484.432 480.408V483.377C484.432 487.191 482.031 491.802 479.2 493.444L478.354 493.937C477.583 494.379 476.471 494.783 475.511 494.227C474.538 493.671 473.982 492.269 473.982 490.4H473.944V487.596C473.944 470.417 463.431 450.358 450.504 442.906L448.229 441.592L458.743 435.428Z" fill="#14100D"/>
<path d="M473.122 494.758H471.391V531.679H473.122V494.758Z" fill="#14100D"/>
<path d="M508.971 518.656L502.312 514.324V481.002L508.781 475.988L508.971 518.656Z" fill="#14100D"/>
<path d="M477.97 500.547L477.002 501.982L493 512.764L493.967 511.329L477.97 500.547Z" fill="#120E0C"/>
<path d="M439.129 521.4L438.238 522.884L462.786 537.619L463.677 536.135L439.129 521.4Z" fill="#120E0C"/>
<path d="M451.442 517.971L450.484 519.412L461.264 526.566L462.222 525.125L451.442 517.971Z" fill="#120E0C"/>
<path d="M210.774 239.402L206.818 237.116L203.761 243.128L200.753 233.617L196.798 231.331L196.748 247.057L199.982 248.926L200.02 238.505L202.484 246.665L204.822 248.017L207.337 242.724L207.311 253.158L210.736 255.128L210.774 239.402Z" fill="black"/>
<path d="M217.989 257.023C217.673 256.846 217.382 256.619 217.129 256.341C216.877 256.063 216.649 255.747 216.485 255.368C216.321 255.002 216.194 254.572 216.081 254.055C215.979 253.549 215.916 252.93 215.929 252.21C215.929 251.478 215.992 250.909 216.106 250.505C216.207 250.088 216.371 249.798 216.548 249.621C216.75 249.444 216.965 249.381 217.193 249.406C217.433 249.444 217.685 249.533 217.976 249.697C218.279 249.874 218.557 250.088 218.785 250.341C219.025 250.594 219.24 250.935 219.429 251.339C219.606 251.718 219.745 252.173 219.846 252.703C219.947 253.221 219.998 253.852 219.998 254.547C219.998 255.292 219.947 255.861 219.846 256.227C219.745 256.594 219.606 256.884 219.404 257.073C219.24 257.238 219.037 257.301 218.759 257.276C218.507 257.263 218.241 257.162 217.989 257.023ZM217.989 247.057C216.308 246.084 214.994 245.882 214.059 246.463C213.124 247.032 212.644 248.307 212.644 250.278C212.644 252.236 213.098 254.042 214.034 255.697C214.969 257.364 216.27 258.665 217.963 259.638C219.657 260.61 220.971 260.812 221.906 260.231C222.841 259.65 223.308 258.375 223.308 256.417C223.308 254.459 222.853 252.653 221.931 250.998C220.983 249.356 219.682 248.042 217.989 247.057Z" fill="black"/>
<path d="M228.262 248.787L225.04 246.93L224.989 263.364L228.211 265.221L228.262 248.787Z" fill="black"/>
<path d="M233.935 252.059L230.726 250.202L230.675 266.635L233.897 268.492L233.935 252.059Z" fill="black"/>
<path d="M240.38 269.983C239.874 269.692 239.483 269.364 239.23 268.997C238.977 268.644 238.838 268.189 238.851 267.633C238.851 267.254 238.927 266.989 239.091 266.85C239.243 266.711 239.457 266.661 239.748 266.711C240.076 266.762 240.405 266.863 240.746 267.014C241.087 267.166 241.53 267.368 242.073 267.608L242.06 270.084C241.82 270.223 241.555 270.273 241.264 270.248C240.961 270.248 240.67 270.147 240.38 269.983ZM240.178 259.903C239.457 259.486 238.737 259.145 238.029 258.88C237.322 258.614 236.804 258.438 236.475 258.362L236.463 261.229L236.741 261.393C237.221 261.431 237.714 261.507 238.232 261.646C238.737 261.785 239.179 261.949 239.558 262.176C240.392 262.656 241.024 263.149 241.441 263.642C241.858 264.122 242.073 264.703 242.073 265.36V265.423C241.138 264.943 240.266 264.551 239.457 264.21C238.649 263.869 237.954 263.692 237.36 263.68C236.791 263.667 236.336 263.831 236.033 264.21C235.73 264.576 235.565 265.195 235.565 266.08C235.565 267.141 235.869 268.214 236.463 269.263C237.069 270.311 237.827 271.107 238.737 271.637C239.23 271.915 239.622 272.105 239.887 272.168C240.165 272.244 240.443 272.282 240.734 272.282C241.024 272.282 241.264 272.256 241.441 272.181C241.605 272.105 241.808 272.029 242.035 271.941V273.204L245.232 275.048L245.257 266.976C245.257 265.587 244.853 264.311 244.044 263.174C243.248 262.012 241.959 260.926 240.178 259.903Z" fill="black"/>
<path d="M251.082 263.136L247.86 261.28L247.848 264.677L246.609 263.97L246.597 266.547L247.835 267.254L247.822 272.799C247.822 274.214 248.113 275.401 248.707 276.361C249.301 277.321 250.248 278.193 251.563 278.951C252.131 279.279 252.611 279.519 253.003 279.696C253.395 279.86 253.761 279.999 254.115 280.088L254.128 277.486L253.85 277.321C253.749 277.321 253.546 277.296 253.268 277.22C252.991 277.145 252.763 277.043 252.586 276.955C252.169 276.715 251.853 276.462 251.638 276.197C251.424 275.932 251.272 275.654 251.184 275.351C251.095 275.048 251.045 274.745 251.045 274.429C251.032 274.113 251.045 273.747 251.045 273.342L251.057 269.136L254.153 270.93L254.166 268.353L251.07 266.522L251.082 263.136Z" fill="black"/>
<path d="M178.1 493.893L151.3 478.293L176.8 463.593L203.7 479.193L178.1 493.893Z" fill="white" stroke="#0A0A0A" stroke-miterlimit="10"/>
<path d="M151.3 478.293V504.593L178.1 520.093V493.893L151.3 478.293Z" fill="#AEC6F7" stroke="#111111" stroke-miterlimit="10"/>
<path d="M177 463.393L176.9 463.293L151 478.193V504.793L178.1 520.493L203.8 505.693L203.9 505.593V478.993L177 463.393ZM177.9 519.693L151.6 504.393V478.793L171.4 490.193L177.9 493.993V519.693ZM151.8 478.293L176.8 463.893L203.1 479.093L178.1 493.493L151.8 478.293Z" fill="#15110E"/>
<path d="M191.1 486.193L164.4 470.593L164.8 470.193L191.7 485.893L191.1 486.193Z" fill="#15110E"/>
<path d="M191.6 512.493L191 512.793V486.193L191.6 485.893V512.493Z" fill="#AEC6F7"/>
<path d="M164.7 512.193H164.1V485.993L164.2 485.893L190.1 471.293L190.4 471.693L164.7 486.293V512.193Z" fill="#15110E"/>
<path d="M197.3 473.893C196.7 471.893 195.6 470.593 193.9 470.193C189.2 468.893 181.6 474.893 178.9 477.193C179.3 475.993 179.6 473.893 179.2 470.293C178.8 466.393 175.5 463.593 172.6 463.093C170.3 462.693 168.5 463.593 167.5 465.693C165.1 470.693 175.5 476.993 177.6 478.293C177 479.193 176.2 479.193 175.2 479.093C174.4 478.993 173.6 478.893 172.8 479.393C171 480.493 170.4 482.593 170.4 482.693L170.9 482.793C170.9 482.793 171.4 480.793 173.1 479.893C173.7 479.493 174.4 479.593 175.2 479.693C176.2 479.793 177.3 479.893 178.2 478.693H178.3L178.4 478.593C178.6 478.593 178.9 478.693 179.3 478.793C180 479.093 180.8 479.593 181 480.693C181.3 481.893 182 482.793 183 483.193C183.5 483.393 184 483.493 184.5 483.493C185.1 483.493 185.6 483.393 186.2 483.093L186 482.593C185.1 482.993 184.1 483.093 183.3 482.693C182.5 482.293 181.9 481.493 181.6 480.493C181.5 479.893 181.2 479.393 180.8 479.093C183.1 479.493 186.5 480.093 189.6 480.093C192.6 480.093 195.3 479.593 196.7 478.193C197.6 477.093 197.8 475.693 197.3 473.893ZM168 465.893C168.7 464.393 170 463.493 171.7 463.493C172 463.493 172.3 463.493 172.6 463.593C175.3 464.093 178.3 466.693 178.7 470.293C179.2 475.093 178.4 477.193 178.1 477.793C176.3 476.893 165.8 470.493 168 465.893ZM196.2 477.693C193.2 480.893 182.7 478.893 179.3 478.193C179.1 478.093 178.9 478.093 178.7 478.093C180.6 476.393 188.9 469.393 193.7 470.693C195.1 471.093 196.1 472.193 196.7 474.093C197.2 475.593 197.1 476.793 196.2 477.693Z" fill="#15110E"/>
<path d="M284.5 551.868L306 539.368L285.5 527.468L263.9 539.968L284.5 551.868Z" fill="white" stroke="#0A0A0A" stroke-miterlimit="10"/>
<path d="M306 539.367V560.467L284.5 572.967V551.867L306 539.367Z" fill="#AEC6F7" stroke="#111111" stroke-miterlimit="10"/>
<path d="M285.4 527.267L285.5 527.167L306.2 539.167V560.567L284.4 573.167L263.8 561.267L263.7 561.167V539.767L285.4 527.267ZM284.7 572.567L305.8 560.367V539.767L289.9 548.967L284.7 552.067V572.567ZM305.6 539.367L285.5 527.767L264.4 539.967L284.5 551.567L305.6 539.367Z" fill="#15110E"/>
<path d="M274 545.667L295.5 533.167L295.2 532.867L273.6 545.467L274 545.667Z" fill="#15110E"/>
<path d="M273.6 566.767L274.1 567.067V545.667L273.6 545.367V566.767Z" fill="#AEC6F7"/>
<path d="M295.3 566.567H295.7V545.467H295.6L274.8 533.667L274.6 534.067L295.3 545.767V566.567Z" fill="#15110E"/>
<path d="M269.1 535.768C269.6 534.168 270.5 533.068 271.8 532.768C275.6 531.768 281.7 536.567 283.9 538.367C283.6 537.367 283.3 535.667 283.6 532.867C283.9 529.767 286.6 527.467 288.9 527.067C290.7 526.767 292.2 527.468 293 529.168C294.9 533.168 286.6 538.268 284.9 539.268C285.4 540.068 286.1 539.967 286.9 539.867C287.5 539.767 288.2 539.667 288.9 540.067C290.3 540.967 290.8 542.568 290.8 542.668L290.4 542.768C290.4 542.768 290 541.167 288.7 540.367C288.2 540.067 287.6 540.168 287 540.168C286.2 540.268 285.3 540.367 284.6 539.367H284.5C284.3 539.367 284.1 539.467 283.7 539.567C283.1 539.767 282.5 540.167 282.3 541.067C282.1 541.967 281.5 542.767 280.7 543.067C280.3 543.267 279.9 543.367 279.5 543.367C279 543.367 278.6 543.267 278.1 543.067L278.3 542.668C279 543.068 279.8 543.068 280.5 542.768C281.2 542.468 281.7 541.867 281.8 541.067C281.9 540.567 282.1 540.167 282.4 539.867C280.6 540.267 277.8 540.668 275.3 540.668C272.9 540.668 270.7 540.268 269.6 539.168C268.8 538.368 268.6 537.168 269.1 535.768ZM292.6 529.367C292 528.167 291 527.467 289.7 527.467C289.5 527.467 289.2 527.467 289 527.567C286.8 527.967 284.4 530.067 284.1 532.967C283.7 536.867 284.4 538.567 284.6 539.067C285.9 538.167 294.4 533.067 292.6 529.367ZM269.9 538.867C272.3 541.367 280.8 539.868 283.5 539.268C283.7 539.168 283.8 539.168 284 539.168C282.5 537.768 275.8 532.168 271.9 533.268C270.7 533.568 269.9 534.467 269.5 535.967C269.1 537.167 269.2 538.167 269.9 538.867Z" fill="#15110E"/>
<path d="M293.8 558.768V553.268L301.5 548.768V554.268C301.5 554.268 301.4 556.968 302.6 557.668C303.8 558.368 303.8 558.268 303.8 558.268L296.1 562.768C296.1 562.768 296.1 562.768 294.9 562.168C293.7 561.468 293.8 558.768 293.8 558.768Z" fill="#AEC6F7" stroke="#111111" stroke-miterlimit="10"/>
<path d="M292.8 560.367V554.867L300.5 550.367V555.867C300.5 555.867 300.4 558.567 301.6 559.267C302.8 559.867 302.8 559.867 302.8 559.867L295.1 564.367C295.1 564.367 295.1 564.367 293.9 563.767C292.7 563.167 292.8 560.367 292.8 560.367Z" fill="white"/>
<path d="M296 562.968L304.1 558.268L302.6 557.468C301.7 556.968 301.6 554.968 301.7 554.268V548.468L293.6 553.168V558.768C293.6 558.968 293.5 561.668 294.8 562.368L296 562.968ZM303.3 558.268L296 562.468L294.9 561.868C294 561.368 293.9 559.368 294 558.668V553.368L301.3 549.168V554.268C301.3 554.368 301.2 557.168 302.5 557.868L303.3 558.268Z" fill="#15110E"/>
<path d="M299.9 555.268C300 553.768 298.1 554.468 297.6 556.068C297.1 555.068 295.2 556.268 295.3 557.868C295.3 559.068 297.4 559.968 297.6 560.068C297.8 559.768 299.9 556.468 299.9 555.268Z" fill="#AEC6F7"/>
<path d="M297.8 559.068H297.9L298 558.967C298.4 558.367 300.3 555.268 300.3 554.068C300.3 553.268 299.9 553.068 299.7 553.068C299.1 552.968 298.2 553.567 297.8 554.467C297.6 554.267 297.3 554.267 297 554.367C296.2 554.567 295.3 555.568 295.4 556.768C295.4 557.968 297.3 558.968 297.8 559.168V559.068ZM299.9 553.967C299.9 554.867 298.6 557.268 297.7 558.568C296.9 558.168 295.7 557.368 295.7 556.568C295.7 555.568 296.5 554.768 297 554.568C297.3 554.468 297.5 554.568 297.6 554.768L297.8 555.268L298 554.768C298.3 553.768 299.2 553.168 299.6 553.268C299.9 553.368 299.9 553.667 299.9 553.967Z" fill="#15110E"/>
<path d="M255.4 563.568V573.268L274 583.968V574.268L255.4 563.568Z" fill="#AEC6F7" stroke="#111111" stroke-miterlimit="10"/>
<path d="M287.9 566.068L274 574.268L255.4 563.568L269.4 555.368L287.9 566.068Z" fill="#AEC6F7" stroke="#111111" stroke-miterlimit="10"/>
<path d="M287.9 569.468L274 577.668L255.4 566.868L269.4 558.768L287.9 569.468Z" fill="white"/>
<path d="M269.4 554.968L255 563.368V573.568L274 584.568L288.4 576.168V565.968L269.4 554.968ZM273.6 583.268L255.8 572.968V564.168L273.6 574.468V583.268ZM256.1 563.568L269.3 555.868L287.1 566.168L273.9 573.868L256.1 563.568Z" fill="#15110E"/>
<path d="M274 583.968V589.268L256.4 579.068V573.868L274 583.968Z" fill="#AEC6F7" stroke="#111111" stroke-miterlimit="10"/>
<path d="M274 583.568L256 573.168V579.368L274.1 589.768L286.6 582.468V576.168L274 583.568ZM256.8 578.868V574.468L273.6 584.168L273.7 588.568L256.8 578.868Z" fill="#15110E"/>
<path d="M273.8 584.168V583.268L286.4 575.868V576.768L273.8 584.168Z" fill="#AEC6F7"/>
<path d="M279.2 570.868L261.1 560.468L261.5 559.768L279.9 570.368L279.2 570.868Z" fill="#15110E"/>
<path d="M278.6 587.068L277.8 587.568L279.2 580.168V570.868L279.9 570.368V580.268L278.6 587.068Z" fill="#AEC6F7"/>
<path d="M279.5 564.168C279.3 563.668 278.9 563.068 277.8 562.868C276.4 562.568 275 564.068 274.1 565.268C274.1 564.868 274.1 564.568 274.1 564.168C274 563.068 272.4 561.268 271.1 561.168C270.7 561.068 269.9 561.168 269.5 562.368C268.7 564.668 272 566.568 273.1 567.168L273 567.368L273.5 567.468L273.9 567.668V567.568C274.4 567.568 275.2 567.668 276 567.668C277.2 567.668 278.4 567.568 278.8 567.068C279.4 566.168 279.8 565.068 279.5 564.168ZM270.2 562.468C270.4 561.868 270.7 561.768 270.9 561.768H271C272 561.868 273.3 563.368 273.3 564.068C273.4 564.868 273.3 565.668 273.2 566.268C272 565.568 269.7 563.868 270.2 562.468ZM278.3 566.268C277.9 566.668 276 566.668 274.2 566.568C274.9 565.368 276.4 563.368 277.7 563.568C278.3 563.668 278.7 563.968 278.8 564.368C279 564.968 278.7 565.868 278.3 566.268Z" fill="#15110E"/>
<path d="M274.8 569.968C274.5 569.968 274.2 569.868 273.8 569.768C272.8 569.268 273.1 568.468 273.3 567.968C273.4 567.768 273.5 567.468 273.4 567.368C273.4 567.268 273.2 567.268 273.1 567.168C272.4 566.968 271.8 566.968 271.3 567.168C270.6 567.568 270.4 568.368 270.4 568.368L269.7 568.168C269.7 568.168 270 566.968 271 566.468C271.7 566.068 272.5 566.068 273.4 566.368C273.8 566.468 274.1 566.668 274.2 566.968C274.4 567.368 274.3 567.768 274.1 568.168C273.9 568.768 273.9 568.868 274.2 568.968C275.3 569.468 276 568.568 276.1 568.468L276.7 568.968C276.3 569.468 275.7 569.968 274.8 569.968Z" fill="#15110E"/>
<path d="M277 554.668C277 554.668 277.1 557.068 274.5 557.368C272.6 557.568 271.3 557.968 271 558.068C270.9 558.068 270.6 557.868 270.6 557.868L270.5 556.668C270.5 556.668 272.3 555.868 272.4 555.868C272.5 555.868 273.9 555.968 274.6 555.568C275.2 555.168 275 554.568 274.8 554.068C274.5 553.568 275 553.368 275 553.368L276.8 554.268L276.9 554.368C276.8 554.268 276.9 554.468 277 554.668Z" fill="#AEC6F7"/>
<path d="M271 558.368C270.9 558.368 270.8 558.368 270.8 558.268C270.7 558.268 270.4 558.068 270.3 557.868V557.768L270.2 556.268L270.4 556.168C272.2 555.368 272.3 555.368 272.4 555.368H272.5C273.8 555.468 274.3 555.268 274.4 555.168C274.7 554.968 274.8 554.768 274.5 554.068C274.3 553.768 274.4 553.468 274.4 553.368C274.5 553.068 274.8 552.968 274.8 552.968L274.9 552.868L276.9 553.868L277 553.968C277.2 554.168 277.3 554.368 277.3 554.568C277.3 554.568 277.4 557.268 274.5 557.568C272.6 557.768 271.4 558.168 271.1 558.268L271 558.368ZM270.9 557.568C270.9 557.568 271 557.568 271 557.668C271.4 557.468 272.7 557.168 274.5 556.968C276.6 556.768 276.7 554.868 276.7 554.668C276.7 554.568 276.6 554.468 276.5 554.368L275 553.568C275 553.568 275 553.668 275 553.768C275.2 554.068 275.7 555.068 274.7 555.668C274.3 555.968 273.5 556.068 272.4 555.968C272.2 556.068 271.5 556.368 270.8 556.668L270.9 557.568Z" fill="#15110E"/>
<path d="M276.9 554.368C276 552.768 272.1 556.168 271.5 557.668C271.3 557.968 270.8 558.168 270.4 557.968L269.7 557.668C269.7 557.668 270.2 553.268 273.3 552.568C275.7 552.068 276.9 554.368 276.9 554.368Z" fill="white"/>
<path d="M270.8 558.368C270.6 558.368 270.5 558.368 270.3 558.268L269.4 557.868V557.668C269.4 557.468 269.9 553.068 273.2 552.368C275.7 551.768 277 554.168 277.1 554.368L276.5 554.668C276.4 554.568 276.3 554.368 276 554.368C274.7 554.468 272.2 556.768 271.7 557.868C271.6 558.168 271.2 558.368 270.8 558.368ZM270.1 557.468L270.5 557.668C270.8 557.768 271.1 557.668 271.1 557.568C271.6 556.268 274.2 553.868 275.8 553.668C275.3 553.168 274.4 552.668 273.3 552.968C270.9 553.468 270.2 556.568 270.1 557.468Z" fill="#15110E"/>
<path d="M263.4 554.468C263.4 554.468 263.3 556.968 265.7 557.268C267.5 557.468 268.7 557.868 269 557.968C269.1 557.968 269.4 557.768 269.4 557.668L269.5 556.368C269.5 556.368 268 555.868 267.9 555.868C267.8 555.868 266.2 555.668 265.7 555.268C265.1 554.868 265.3 554.268 265.5 553.668C265.8 553.068 265.3 552.868 265.3 552.868L263.6 553.768L263.5 553.868C263.5 554.068 263.4 554.268 263.4 554.468Z" fill="#AEC6F7"/>
<path d="M269 558.368H268.9C268.6 558.268 267.5 557.868 265.7 557.668C263.5 557.368 263 555.468 263.1 554.568C263.1 554.368 263.2 554.068 263.4 553.868L263.6 553.668L265.4 552.668L265.5 552.768C265.5 552.768 265.8 552.868 265.9 553.168C266 553.368 266 553.568 265.9 553.868C265.6 554.568 265.7 554.868 266 555.068C266.5 555.368 267.9 555.568 268.1 555.568C268.2 555.568 268.2 555.568 269.8 556.168L270 556.268L269.9 557.868C269.8 558.068 269.4 558.268 269.4 558.268C269.2 558.268 269.1 558.368 269 558.368ZM263.7 554.468C263.7 554.668 263.7 556.668 265.8 556.868C267.5 557.068 268.6 557.368 269.1 557.568C269.1 557.568 269.2 557.568 269.2 557.468L269.3 556.568C268.7 556.368 268.1 556.168 268 556.168C268 556.168 266.3 555.968 265.6 555.568C264.7 554.968 265.2 553.868 265.3 553.568C265.3 553.468 265.4 553.368 265.3 553.368L263.9 554.168C263.8 554.268 263.7 554.368 263.7 554.468Z" fill="#15110E"/>
<path d="M263.5 554.168C264.4 552.468 268 556.068 268.6 557.568C268.8 557.968 269.2 558.068 269.6 557.868L270.2 557.568C270.2 557.568 269.8 552.968 266.8 552.268C264.6 551.768 263.5 554.168 263.5 554.168Z" fill="white"/>
<path d="M269.2 558.368C269.1 558.368 269 558.368 268.8 558.268C268.5 558.168 268.3 557.968 268.2 557.768C267.7 556.568 265.4 554.068 264.2 554.068C264 554.068 263.8 554.168 263.7 554.368L263.1 554.068C263.5 553.168 264.9 551.468 266.8 551.968C269.9 552.768 270.4 557.368 270.4 557.568V557.768L269.6 558.168C269.5 558.268 269.4 558.368 269.2 558.368ZM264.4 553.468C266 553.668 268.4 556.368 268.9 557.568C268.9 557.668 269 557.668 269.1 557.768C269.2 557.768 269.3 557.768 269.5 557.768L269.9 557.568C269.8 556.668 269.1 553.368 266.8 552.768C265.6 552.368 264.9 552.868 264.4 553.468Z" fill="#15110E"/>
<path d="M271.1 557.768C271.1 557.668 271.1 557.668 271.1 557.568C271.1 557.368 270.9 556.768 270.2 556.768C269.5 556.768 269.3 557.268 269.2 557.468C269.2 557.568 269.2 557.668 269.2 557.668C269.3 557.868 269.5 558.068 269.8 558.068H270.5C270.8 558.168 271 557.968 271.1 557.768Z" fill="#14100D"/>
<path d="M270.5 558.468H269.8C269.4 558.468 269 558.168 268.9 557.768C268.9 557.568 268.9 557.468 268.9 557.368C269 556.768 269.5 556.368 270.2 556.368C271 556.368 271.4 556.968 271.4 557.468C271.4 557.568 271.4 557.668 271.4 557.768C271.3 558.268 270.9 558.468 270.5 558.468ZM270.2 557.068C269.8 557.068 269.6 557.268 269.5 557.568V557.668C269.5 557.768 269.7 557.868 269.8 557.868H270.5C270.6 557.868 270.8 557.768 270.8 557.668C270.8 557.668 270.8 557.668 270.8 557.568C270.8 557.068 270.3 557.068 270.2 557.068Z" fill="#15110E"/>
</g>
<g clip-path="url(#clip1)">
<path d="M24.3662 444.024V461.374C26.0387 462.726 31.5719 466.85 39.7398 467C48.4919 467.162 54.4489 462.668 56.0527 461.374C56.0527 455.714 56.0527 450.054 56.0527 444.382L24.3662 444.024Z" fill="#111111"/>
<path d="M14.9039 394.294L3.00139 412.753C-0.927924 418.841 -0.0229226 426.904 5.20088 431.906C12.4982 438.906 24.5839 447.015 41.2749 446.842C56.786 446.68 68.1615 439.449 75.4817 432.599C81.9312 426.569 83.2372 416.762 78.884 409.057L68.8259 391.244L14.9039 394.294Z" fill="#AEC6F7" stroke="#111111" stroke-miterlimit="10"/>
<path d="M24.1372 354.822L11.6849 377.682C8.63766 383.285 9.95507 390.308 14.9039 394.294C20.8609 399.088 30.0828 404.113 42.1342 403.523C54.5865 402.923 63.4532 396.65 68.826 391.267C72.8698 387.224 73.603 380.882 70.7964 375.88L59.4667 355.723L24.1372 354.822Z" fill="#111111"/>
<path d="M41.2518 290.398L21.0783 336.951C18.4664 342.993 19.5317 350.143 24.1369 354.821C28.6276 359.396 34.7106 362.226 41.2518 362.492C48.0679 362.769 54.5748 360.216 59.4778 355.723C64.7704 350.859 66.019 342.923 62.9489 336.408L41.2518 290.398Z" fill="#AEC6F7" stroke="#111111" stroke-miterlimit="10"/>
</g>
<g clip-path="url(#clip2)">
<path d="M315.3 595.2V610.2C316.8 611.4 321.6 614.9 328.7 615.1C336.3 615.2 341.5 611.4 342.9 610.2C342.9 605.3 342.9 600.4 342.9 595.5L315.3 595.2Z" fill="#111111"/>
<path d="M307 552.2L296.6 568.2C293.2 573.5 294 580.4 298.5 584.8C304.9 590.9 315.4 597.9 330 597.7C343.5 597.6 353.5 591.3 359.9 585.4C365.5 580.2 366.7 571.7 362.9 565L354.1 549.6L307 552.2Z" fill="white" stroke="#111111" stroke-miterlimit="10"/>
<path d="M315.1 518L304.2 537.8C301.5 542.6 302.7 548.7 307 552.2C312.2 556.4 320.2 560.7 330.8 560.2C341.7 559.7 349.4 554.3 354.1 549.6C357.6 546.1 358.3 540.6 355.8 536.3L345.9 518.8L315.1 518Z" fill="#111111"/>
<path d="M330 462.2L312.4 502.5C310.1 507.7 311.1 513.9 315.1 518C319 522 324.3 524.4 330 524.6C336 524.8 341.6 522.6 345.9 518.7C350.5 514.5 351.6 507.6 348.9 502L330 462.2Z" fill="white" stroke="#111111" stroke-miterlimit="10"/>
<path d="M348 501.27C346.541 502.295 348.04 506.041 332.344 505.923C316.017 505.805 315.623 500.56 314.4 499.534" stroke="#111111" stroke-miterlimit="10"/>
<path d="M343.82 501.94L344.411 504.424L341.414 505.055L340.901 502.492L343.82 501.94Z" fill="#111111" stroke="#020202" stroke-miterlimit="10"/>
<path d="M342.045 502.808C343.308 502.808 344.332 501.783 344.332 500.52C344.332 499.257 343.308 498.233 342.045 498.233C340.782 498.233 339.758 499.257 339.758 500.52C339.758 501.783 340.782 502.808 342.045 502.808Z" fill="#F2F2F2" stroke="#111111" stroke-miterlimit="10"/>
<path d="M335.341 508.487L335.026 505.963L338.102 505.687L338.299 508.289L335.341 508.487Z" fill="#111111" stroke="#020202" stroke-miterlimit="10"/>
<path d="M336.919 512.391C338.182 512.391 339.206 511.367 339.206 510.103C339.206 508.84 338.182 507.816 336.919 507.816C335.655 507.816 334.631 508.84 334.631 510.103C334.631 511.367 335.655 512.391 336.919 512.391Z" fill="#C61109" stroke="#111111" stroke-miterlimit="10"/>
<path d="M330.609 503.32L330.53 505.884L327.454 505.687L327.611 503.084L330.609 503.32Z" fill="#111111" stroke="#020202" stroke-miterlimit="10"/>
<path d="M329.268 503.754C330.531 503.754 331.555 502.73 331.555 501.467C331.555 500.204 330.531 499.179 329.268 499.179C328.005 499.179 326.98 500.204 326.98 501.467C326.98 502.73 328.005 503.754 329.268 503.754Z" fill="#AEC6F7" stroke="#111111" stroke-miterlimit="10"/>
<path d="M318.896 506.751L319.369 504.227L322.406 504.937L321.775 507.461L318.896 506.751Z" fill="#111111" stroke="#020202" stroke-miterlimit="10"/>
<path d="M319.922 511.089C321.185 511.089 322.209 510.065 322.209 508.802C322.209 507.539 321.185 506.515 319.922 506.515C318.658 506.515 317.634 507.539 317.634 508.802C317.634 510.065 318.658 511.089 319.922 511.089Z" fill="#F2F2F2" stroke="#111111" stroke-miterlimit="10"/>
<path d="M318.936 501.191L317.122 502.965L314.992 500.718L316.964 498.943L318.936 501.191Z" fill="#111111" stroke="#020202" stroke-miterlimit="10"/>
<path d="M319.251 501.23C320.514 501.23 321.539 500.206 321.539 498.943C321.539 497.68 320.514 496.656 319.251 496.656C317.988 496.656 316.964 497.68 316.964 498.943C316.964 500.206 317.988 501.23 319.251 501.23Z" fill="#FFB24D" stroke="#111111" stroke-miterlimit="10"/>
<path d="M362.375 564.537C359.745 566.535 362.775 573.365 333.719 574.222C303.496 575.123 302.407 565.443 300.074 563.629" stroke="#111111" stroke-miterlimit="10"/>
<path d="M354.685 566.064L355.95 570.622L350.447 571.995L349.322 567.286L354.685 566.064Z" fill="#111111" stroke="#020202" stroke-miterlimit="10"/>
<path d="M351.46 567.792C353.798 567.705 355.623 565.74 355.537 563.402C355.45 561.064 353.485 559.239 351.147 559.325C348.809 559.412 346.984 561.377 347.07 563.715C347.157 566.053 349.122 567.878 351.46 567.792Z" fill="#F2F2F2" stroke="#111111" stroke-miterlimit="10"/>
<path d="M339.442 578.761L338.685 574.111L344.359 573.39L344.903 578.193L339.442 578.761Z" fill="#111111" stroke="#020202" stroke-miterlimit="10"/>
<path d="M342.629 585.878C344.967 585.792 346.792 583.826 346.705 581.488C346.619 579.15 344.653 577.325 342.316 577.412C339.978 577.499 338.153 579.464 338.239 581.802C338.326 584.14 340.291 585.965 342.629 585.878Z" fill="#C61109" stroke="#111111" stroke-miterlimit="10"/>
<path d="M330.33 569.524L330.36 574.273L324.654 574.119L324.767 569.292L330.33 569.524Z" fill="#111111" stroke="#020202" stroke-miterlimit="10"/>
<path d="M327.878 570.419C330.216 570.332 332.041 568.367 331.954 566.029C331.868 563.691 329.902 561.866 327.565 561.953C325.227 562.039 323.402 564.005 323.488 566.343C323.575 568.681 325.54 570.506 327.878 570.419Z" fill="#AEC6F7" stroke="#111111" stroke-miterlimit="10"/>
<path d="M308.889 576.677L309.592 571.973L315.26 573.079L314.265 577.793L308.889 576.677Z" fill="#111111" stroke="#020202" stroke-miterlimit="10"/>
<path d="M311.084 584.635C313.422 584.548 315.247 582.583 315.16 580.245C315.073 577.907 313.108 576.082 310.77 576.169C308.432 576.255 306.607 578.221 306.694 580.559C306.78 582.896 308.746 584.721 311.084 584.635Z" fill="#F2F2F2" stroke="#111111" stroke-miterlimit="10"/>
<path d="M308.58 566.383L305.345 569.792L301.25 565.778L304.777 562.358L308.58 566.383Z" fill="#111111" stroke="#020202" stroke-miterlimit="10"/>
<path d="M309.167 566.435C311.505 566.348 313.33 564.383 313.244 562.045C313.157 559.707 311.192 557.882 308.854 557.968C306.516 558.055 304.691 560.02 304.777 562.358C304.864 564.696 306.829 566.521 309.167 566.435Z" fill="#FFB24D" stroke="#111111" stroke-miterlimit="10"/>
</g>
<defs>
<clipPath id="clip0">
<rect width="425" height="595" fill="white" transform="translate(125)"/>
</clipPath>
<clipPath id="clip1">
<rect width="82" height="178" fill="white" transform="translate(0 289)"/>
</clipPath>
<clipPath id="clip2">
<rect width="71.6" height="154.1" fill="white" transform="translate(294 461)"/>
</clipPath>
</defs>
</svg>
