<svg width="902" height="1089" viewBox="0 0 902 1089" fill="none" xmlns="http://www.w3.org/2000/svg">
<path d="M831.1 0L591.1 137.2C570 149.3 556.9 171.5 556.5 195.8L556 228.6C555.6 257.8 539.9 284.7 514.6 299.4L60.1004 564.2C23.1004 585.8 0.300439 625.3 0.200439 668.2L0.000438759 750.8C-0.0995612 782.6 16.9004 812.1 44.5004 828L470.9 1074.2C503.5 1093 543.7 1092.9 576.2 1073.7L883.5 892.7C907.4 878.6 907.1 843.9 882.9 830.3L694.9 724.8C677.9 715.2 677.7 690.8 694.6 681L770.8 636.9C797.9 621.2 798.3 582.2 771.5 566L554.5 434.8C526.6 417.9 526.5 377.4 554.4 360.5L655.1 299.3C675.8 286.7 688.5 264.4 688.7 240.1L689 204C689.2 177.4 703.6 152.9 726.8 139.9L898.9 42.9L831.1 0Z" fill="#F4F4F4"/>
</svg>
