<svg width="444" height="440" viewBox="0 0 444 440" fill="none" xmlns="http://www.w3.org/2000/svg">
<path d="M1.16797 268.765L183.036 183.466L442.832 332.579L258.841 409.795L1.16797 268.765Z" fill="white" stroke="#0A0A0A" stroke-miterlimit="10"/>
<path d="M258.841 439.043L1.16797 291.844V268.765L258.841 409.794V439.043Z" fill="#AEC6F7" stroke="#111111" stroke-miterlimit="10"/>
<path d="M258.841 409.794L442.832 332.579V357.786L258.841 439.043V409.794Z" fill="#111111"/>
<path d="M7.75049 267.807L9.7677 53.923L19.0044 51.7959V273.551L7.75049 267.807Z" fill="#AEC6F7" stroke="#111111" stroke-miterlimit="10"/>
<path d="M19.0044 76.4709L33.9743 71.3657L33.1249 267.808L19.0044 273.551V76.4709Z" fill="#111111"/>
<path d="M272.006 380.759V182.083L284.64 187.189L283.154 387.247L272.006 380.759Z" fill="#AEC6F7" stroke="#111111" stroke-miterlimit="10"/>
<path d="M284.64 187.189L297.274 182.083V380.759L283.154 387.247L284.64 187.189Z" fill="#111111"/>
<path d="M284.64 163.258V187.189L398.029 142.093V116.887L284.64 163.258Z" fill="#111111"/>
<path d="M132.393 222.18V30.7373L143.647 38.076V227.817L132.393 222.18Z" fill="#AEC6F7" stroke="#111111" stroke-miterlimit="10"/>
<path d="M143.647 38.076L158.617 33.1836L157.768 222.18L143.647 227.817V38.076Z" fill="#111111"/>
<path d="M371.805 334.6V143.157L383.059 146.986V340.13L371.805 334.6Z" fill="#AEC6F7" stroke="#111111" stroke-miterlimit="10"/>
<path d="M383.059 146.986L398.029 142.093L397.18 334.6L383.059 340.13V146.986Z" fill="#111111"/>
<path d="M284.64 163.258L167.217 57.1139L19.0044 51.796L206.606 0.638184H309.271L429.136 108.484L284.64 163.258Z" fill="white" stroke="#0A0A0A" stroke-miterlimit="10"/>
<path d="M284.64 187.189V163.258L19.0044 51.7959V76.4708L284.64 187.189Z" fill="#AEC6F7" stroke="#111111" stroke-miterlimit="10"/>
<path d="M167.217 57.1139L309.271 0.638184L429.136 108.484L284.64 163.258L167.217 57.1139Z" fill="white" stroke="#0A0A0A" stroke-miterlimit="10"/>
<path d="M188.026 259.193L155.326 245.047V194.847L188.026 209.63V259.193Z" fill="#AEC6F7" stroke="#111111" stroke-miterlimit="10"/>
<path d="M155.326 194.847L179.214 185.274L208.835 198.888L188.026 209.63L155.326 194.847Z" fill="#AEC6F7" stroke="#111111" stroke-miterlimit="10"/>
<path d="M208.835 198.888V250.046L188.026 259.193V209.63L208.835 198.888Z" fill="#AEC6F7" stroke="#111111" stroke-miterlimit="10"/>
<path d="M173.408 246.4C177.629 244.638 179.314 239.034 177.171 233.883C175.028 228.732 169.869 225.986 165.647 227.749C161.426 229.511 159.741 235.115 161.884 240.266C164.027 245.416 169.186 248.163 173.408 246.4Z" fill="#050505" stroke="#111111" stroke-miterlimit="10"/>
<path d="M171.676 219.734C173.963 219.734 175.816 217.496 175.816 214.735C175.816 211.974 173.963 209.736 171.676 209.736C169.389 209.736 167.535 211.974 167.535 214.735C167.535 217.496 169.389 219.734 171.676 219.734Z" fill="#050505" stroke="#111111" stroke-miterlimit="10"/>
<path d="M340.379 332.367L307.573 318.221V268.021L340.379 282.804V332.367Z" fill="#AEC6F7" stroke="#111111" stroke-miterlimit="10"/>
<path d="M307.573 268.02L331.567 258.448L361.082 272.062L340.379 282.804L307.573 268.02Z" fill="#AEC6F7" stroke="#111111" stroke-miterlimit="10"/>
<path d="M361.082 272.062V323.22L340.379 332.367V282.804L361.082 272.062Z" fill="#AEC6F7" stroke="#111111" stroke-miterlimit="10"/>
<path d="M325.649 319.592C329.871 317.829 331.556 312.225 329.413 307.074C327.27 301.924 322.111 299.177 317.889 300.94C313.668 302.702 311.983 308.307 314.126 313.457C316.269 318.608 321.428 321.354 325.649 319.592Z" fill="#050505" stroke="#111111" stroke-miterlimit="10"/>
<path d="M323.923 292.908C326.21 292.908 328.064 290.67 328.064 287.909C328.064 285.148 326.21 282.91 323.923 282.91C321.636 282.91 319.782 285.148 319.782 287.909C319.782 290.67 321.636 292.908 323.923 292.908Z" fill="#050505" stroke="#111111" stroke-miterlimit="10"/>
<path d="M76.6545 207.29C80.7951 206.546 82.3876 210.8 82.3876 210.8C82.3876 210.8 86.6344 216.118 88.4393 218.351C88.8639 219.415 87.2714 220.797 87.2714 220.797C87.2714 220.797 86.2097 223.244 85.0418 222.393C83.4493 221.436 80.2642 218.351 80.2642 218.351L76.6545 212.395C76.7606 212.502 76.1236 207.396 76.6545 207.29Z" fill="#AEC6F7" stroke="#111111" stroke-width="0.5" stroke-miterlimit="10"/>
<path d="M68.4795 205.27C68.5856 207.078 67.5239 209.099 67.5239 209.099L70.4967 212.289L74.1064 213.566L76.4422 212.289L76.5483 210.268C76.5483 210.268 73.5756 206.014 73.4694 206.014C73.3632 206.014 69.7535 204.844 69.7535 204.844C69.7535 204.844 68.4795 203.993 68.4795 205.27Z" fill="#392518"/>
<path d="M69.541 231.752V236.113L75.9112 236.538L81.432 233.135L83.5553 232.39L83.2368 227.711L78.1407 226.328L69.8595 229.732L69.541 231.752Z" fill="#111111"/>
<path d="M83.237 274.295C83.7678 275.784 86.6344 277.486 87.8022 277.912C88.7578 278.231 88.5454 281.528 87.6961 281.634C86.2097 281.953 85.148 281.209 83.7678 280.464C83.0246 280.039 81.2198 278.337 80.7951 278.124C80.3704 277.805 77.1853 277.593 76.6545 276.529C76.336 275.891 77.1853 273.125 77.1853 273.125C77.1853 273.125 82.9185 273.551 83.237 274.295Z" fill="#AEC6F7" stroke="#111111" stroke-width="0.5" stroke-miterlimit="10"/>
<path d="M75.4863 243.558C75.1678 244.728 79.4146 258.129 79.4146 258.129C79.4146 258.129 76.7603 263.128 76.6542 272.7C77.2912 275.04 81.3256 276.21 83.9798 274.296C83.6613 268.34 86.1032 261.107 85.9971 257.917C85.7847 253.662 86.2094 239.729 83.2367 231.54C82.4935 231.221 75.8048 242.388 75.4863 243.558Z" fill="#111111"/>
<path d="M66.6746 273.976C66.4623 275.997 68.2672 278.231 68.4795 279.294C68.6918 280.464 68.2672 281.209 67.7363 281.421C64.3389 282.485 63.2772 280.783 62.8525 280.145C62.534 279.613 62.2155 277.699 61.897 276.635C61.26 276.21 61.1538 274.296 61.1538 274.296C61.1538 273.338 61.4723 272.062 61.4723 272.062C61.4723 272.062 66.9931 272.807 66.6746 273.976Z" fill="#AEC6F7" stroke="#111111" stroke-width="0.5" stroke-miterlimit="10"/>
<path d="M68.0548 235.475C68.0548 235.475 66.8869 237.39 66.6746 241.112C66.4623 244.941 65.7191 256.534 65.9314 257.491C62.0032 261.745 61.26 270.041 61.1538 271.317C61.1538 276.529 67.524 274.934 67.7363 273.232C68.2671 270.254 70.8152 262.809 72.1954 260.363C73.7879 257.385 76.5483 243.771 76.5483 243.771C76.5483 243.771 83.7679 239.517 83.1308 231.859C82.9185 231.114 77.0792 235.262 77.0792 235.262L68.0548 235.475Z" fill="#111111"/>
<path d="M67.4177 209.205C67.4177 209.205 71.7706 212.077 74.531 211.864C74.9557 211.013 74.2125 208.46 74.2125 208.46L76.8668 209.205L77.3976 213.991L75.9112 215.374L68.9041 213.247L67.3115 210.269V209.205H67.4177Z" fill="#111111"/>
<path d="M74.6372 211.864L75.5927 210.694L76.7606 210.907L74.6372 211.864Z" fill="#111111"/>
<path d="M74.6371 211.864L74.4248 210.056L75.2742 209.63L75.5927 210.694L74.6371 211.864Z" fill="#111111"/>
<path d="M76.4419 214.31C76.4419 214.31 76.9727 210.8 75.0617 207.716C74.7432 207.716 76.6542 207.291 76.6542 207.291C76.6542 207.291 81.8565 211.226 82.7059 214.948C83.4491 218.564 84.2984 229.519 84.2984 229.519C84.2984 229.945 83.4491 230.264 83.4491 230.264L80.6887 228.349L77.0789 219.309L76.4419 214.31Z" fill="#AEC6F7" stroke="#111111" stroke-width="0.5" stroke-miterlimit="10"/>
<path d="M76.7605 210.907L75.5926 210.694L75.168 209.524L76.0173 209.737L76.7605 210.907Z" fill="#111111"/>
<path d="M62.6401 213.884C65.4005 211.651 67.4178 209.205 67.4178 209.205C67.4178 209.205 70.3905 212.821 76.4421 214.31C79.2025 218.032 80.5828 228.349 80.5828 228.349L77.1853 232.71C74.0002 233.56 68.798 232.178 68.798 232.178C68.798 232.178 68.2671 229.838 66.4622 227.285C65.1882 224.733 62.6401 214.522 62.6401 213.884Z" fill="#AEC6F7" stroke="#111111" stroke-width="0.5" stroke-miterlimit="10"/>
<path d="M68.0549 217.394C68.5857 219.947 67.524 222.287 65.7192 222.712C63.9143 223.137 62.0032 221.329 61.4724 218.777C60.9415 216.224 62.0032 213.884 63.8081 213.459C65.7192 213.14 67.524 214.948 68.0549 217.394Z" fill="#111111"/>
<path d="M79.521 226.86C79.521 227.179 79.4149 227.392 79.2025 227.392C78.9902 227.392 78.7778 227.179 78.7778 226.966C78.7778 226.647 78.884 226.435 79.0963 226.435C79.3087 226.435 79.521 226.647 79.521 226.86Z" fill="white"/>
<path d="M78.7778 224.414C78.7778 224.733 78.6717 224.945 78.4593 224.945C78.247 224.945 78.0347 224.733 78.0347 224.52C78.0347 224.201 78.1408 223.988 78.3532 223.988C78.5655 223.988 78.7778 224.201 78.7778 224.414Z" fill="white"/>
<path d="M78.1406 221.967C78.1406 222.286 78.0345 222.499 77.8221 222.499C77.6098 222.499 77.3975 222.286 77.3975 222.074C77.3975 221.755 77.5036 221.542 77.716 221.542C77.9283 221.542 78.1406 221.648 78.1406 221.967Z" fill="white"/>
<path d="M77.3975 219.521C77.3975 219.84 77.2913 220.053 77.079 220.053C76.8666 220.053 76.6543 219.841 76.6543 219.628C76.6543 219.309 76.7605 219.096 76.9728 219.096C77.1851 218.99 77.2913 219.202 77.3975 219.521Z" fill="white"/>
<path d="M76.6543 216.969C76.6543 217.288 76.5482 217.501 76.3358 217.501C76.1235 217.501 75.9111 217.288 75.9111 217.075C75.9111 216.756 76.0173 216.543 76.2296 216.543C76.3358 216.543 76.5481 216.756 76.6543 216.969Z" fill="white"/>
<path d="M76.4419 214.31C80.0516 219.096 80.5825 228.349 80.5825 228.349C80.5825 228.349 79.2023 219.521 76.4419 214.31Z" fill="white"/>
<path d="M77.5037 199.952C78.0345 200.803 78.0345 202.504 78.0345 202.824C78.0345 203.143 77.716 203.355 77.716 203.355C77.716 203.355 77.3975 209.099 76.8667 209.949C76.5482 210.481 76.0173 210.907 75.0618 210.8C73.6816 210.481 70.9212 208.673 70.2842 208.035C69.6472 207.397 69.6472 206.227 69.6472 206.227C69.6472 206.227 68.7978 206.227 68.3731 205.27C68.267 205.057 67.8423 203.781 67.8423 203.781L68.0546 202.292L69.3287 199.633L72.5137 198.463H75.2741C75.4865 198.463 76.9728 198.995 77.5037 199.952Z" fill="#5B3A1B"/>
<path d="M68.9039 202.823C70.0718 202.823 70.2841 204.1 70.2841 204.1C70.4965 202.823 71.9829 202.398 72.726 201.122C73.1507 201.334 75.4864 201.441 76.6543 200.802C78.0345 200.058 77.5037 199.101 77.5037 199.101C77.5037 199.101 73.8939 193.145 68.9039 197.505C66.7806 199.313 67.5237 203.142 67.7361 203.887C68.0546 204.738 68.3731 205.376 68.3731 205.376C68.3731 205.376 67.7361 202.823 68.9039 202.823Z" fill="#121214"/>
<path d="M77.2911 209.949L76.3356 208.566L76.0171 208.673L76.9726 210.162L77.2911 209.949Z" fill="#121214"/>
<path d="M76.9728 209.949L76.0173 208.673L75.9111 208.779L76.7605 210.268L76.9728 209.949Z" fill="#333333"/>
<path d="M78.1407 211.013L77.5037 211.545L76.6543 210.481C76.5482 210.375 76.6543 210.268 76.7605 210.162C76.8667 210.056 77.079 209.949 77.1852 209.949C77.1852 209.949 77.1852 209.949 77.2914 209.949L78.1407 211.013Z" fill="#121214"/>
<path d="M78.4592 211.226L77.8222 211.757L77.6099 211.545C77.5037 211.438 77.6099 211.332 77.7161 211.119C77.8222 210.906 78.1407 210.8 78.2469 210.906H78.3531L78.4592 211.226Z" fill="#303033"/>
<path d="M77.8223 211.864C77.9285 211.864 78.247 211.757 78.3532 211.651C78.4593 211.438 78.4593 211.226 78.3532 211.226C78.247 211.226 77.9285 211.332 77.8223 211.438C77.7161 211.545 77.7161 211.757 77.8223 211.864Z" fill="#121214"/>
<path d="M84.723 230.157C84.723 230.157 85.36 230.901 85.4662 231.54L86.634 239.623C86.7402 240.58 86.2094 241.112 85.4662 240.793C84.6168 240.367 83.7675 239.836 83.6613 238.878L83.5551 238.027V217.926C83.5551 217.394 83.2366 216.65 82.9181 216.118L78.3528 211.332C78.3528 211.332 78.2467 211.225 78.0343 211.438C77.822 211.651 78.0343 211.864 78.0343 211.864L81.3256 216.65C81.6441 217.181 81.7502 217.713 81.7502 218.245V239.41L81.8564 240.474C82.0687 243.345 83.9798 244.515 86.2093 245.047C89.3944 245.791 91.7302 243.026 91.4116 240.261C91.4116 240.261 91.0931 233.88 92.0487 231.433C92.261 230.689 92.7918 229.944 92.7918 229.944L84.723 230.157Z" fill="#F29F45"/>
<path d="M93.1104 228.455C92.7919 228.03 92.4734 227.498 91.8364 227.179C90.1377 226.222 87.2711 226.222 85.5724 227.179C84.9354 227.498 84.5107 228.03 84.4045 228.455H84.2983V228.987C84.2983 229.625 84.723 230.263 85.5724 230.795C87.2711 231.752 90.1377 231.752 91.8364 230.795C92.6857 230.263 93.1104 229.625 93.1104 228.987V228.455V228.455Z" fill="#EF8934"/>
<path d="M91.9429 230.263C92.2614 229.625 91.9429 228.881 91.0936 228.455C89.8195 227.711 87.6962 227.711 86.316 228.455C85.4666 228.987 85.1481 229.625 85.4666 230.263C83.8741 229.306 83.8741 227.711 85.5728 226.754C87.2715 225.796 90.138 225.796 91.8368 226.754C93.5355 227.711 93.5355 229.306 91.9429 230.263Z" fill="#AE6423"/>
<path d="M81.6443 234.837L81.432 235.262L80.6888 234.837C80.6888 234.837 80.5826 234.73 80.6888 234.624C80.6888 234.518 80.795 234.411 80.9011 234.411L81.6443 234.837Z" fill="#AE6423"/>
<path d="M81.4319 235.156C81.538 235.156 81.6442 235.05 81.6442 234.943C81.6442 234.837 81.6442 234.73 81.538 234.73C81.4319 234.73 81.3257 234.837 81.3257 234.943C81.3257 235.156 81.4319 235.156 81.4319 235.156Z" fill="#8B521B"/>
<path d="M83.6616 235.581L83.0246 236.645L81.1135 235.475C81.0074 235.368 80.9012 235.156 81.0074 234.943C81.1135 234.624 81.3259 234.411 81.6444 234.411H81.7505L83.6616 235.581Z" fill="#EF8934"/>
<path d="M83.1308 236.645C83.3431 236.645 83.6617 236.432 83.6617 236.113C83.7678 235.794 83.6616 235.581 83.4493 235.581C83.237 235.581 82.9185 235.794 82.9185 236.113C82.9185 236.432 82.9185 236.645 83.1308 236.645Z" fill="#AE6423"/>
<path d="M83.9802 235.687L83.3432 236.751L83.0247 236.538C82.9185 236.432 82.8123 236.219 82.9185 236.006C83.0247 235.687 83.237 235.475 83.4493 235.475H83.5555L83.9802 235.687Z" fill="#AE6423"/>
<path d="M83.4493 236.858C83.6616 236.858 83.9801 236.645 84.0863 236.326C84.1925 236.007 84.0863 235.794 83.874 235.794C83.6616 235.794 83.3431 236.007 83.237 236.326C83.1308 236.538 83.237 236.858 83.4493 236.858Z" fill="#8B521B"/>
<path d="M79.8394 233.986L80.4764 235.049L80.5825 234.943C80.6887 234.837 80.7949 234.624 80.6887 234.411C80.5825 234.092 80.3702 233.879 80.1579 233.879H80.0517L79.8394 233.986Z" fill="#8B521B"/>
<path d="M80.3703 235.049C80.158 235.049 79.9457 234.837 79.8395 234.518C79.7333 234.199 79.8395 233.986 80.0518 233.986C80.2642 233.986 80.4765 234.199 80.5827 234.518C80.6888 234.837 80.5827 235.049 80.3703 235.049Z" fill="#EF8934"/>
<path d="M81.6443 232.922L81.432 233.347L80.6888 232.922C80.6888 232.922 80.5826 232.816 80.6888 232.709C80.6888 232.603 80.795 232.497 80.9011 232.497L81.6443 232.922Z" fill="#AE6423"/>
<path d="M81.4319 233.347C81.538 233.347 81.6442 233.241 81.6442 233.135C81.6442 233.028 81.6442 232.922 81.538 232.922C81.4319 232.922 81.3257 233.028 81.3257 233.135C81.3257 233.241 81.4319 233.347 81.4319 233.347Z" fill="#8B521B"/>
<path d="M83.6616 233.667L83.0246 234.73L81.1135 233.56C81.0074 233.454 80.9012 233.241 81.0074 233.028C81.1135 232.709 81.3259 232.497 81.6444 232.497H81.7505L83.6616 233.667Z" fill="#EF8934"/>
<path d="M83.1308 234.837C83.3431 234.837 83.6617 234.624 83.6617 234.305C83.7678 233.986 83.6616 233.773 83.4493 233.773C83.237 233.773 82.9185 233.986 82.9185 234.305C82.9185 234.517 82.9185 234.837 83.1308 234.837Z" fill="#AE6423"/>
<path d="M83.9802 233.879L83.3432 234.943L83.0247 234.73C82.9185 234.624 82.8123 234.411 82.9185 234.198C83.0247 233.879 83.237 233.667 83.4493 233.667H83.5555L83.9802 233.879Z" fill="#AE6423"/>
<path d="M83.4493 234.943C83.6616 234.943 83.9801 234.73 84.0863 234.411C84.1925 234.092 84.0863 233.879 83.874 233.879C83.6616 233.879 83.3431 234.092 83.237 234.411C83.1308 234.73 83.237 234.943 83.4493 234.943Z" fill="#8B521B"/>
<path d="M79.8394 232.071L80.4764 233.135L80.5825 233.028C80.6887 232.922 80.7949 232.709 80.6887 232.497C80.5825 232.178 80.3702 231.965 80.1579 231.965H80.0517L79.8394 232.071Z" fill="#8B521B"/>
<path d="M80.3703 233.241C80.158 233.241 79.9457 233.029 79.8395 232.71C79.7333 232.39 79.8395 232.178 80.0518 232.178C80.2642 232.178 80.4765 232.39 80.5827 232.71C80.6888 232.922 80.5827 233.241 80.3703 233.241Z" fill="#EF8934"/>
<path d="M81.6443 231.114L81.432 231.539L80.6888 231.114C80.6888 231.114 80.5826 231.008 80.6888 230.901C80.6888 230.795 80.795 230.688 80.9011 230.688L81.6443 231.114Z" fill="#AE6423"/>
<path d="M81.4319 231.539C81.538 231.539 81.6442 231.433 81.6442 231.326C81.6442 231.22 81.6442 231.114 81.538 231.114C81.4319 231.114 81.3257 231.22 81.3257 231.326C81.3257 231.433 81.4319 231.539 81.4319 231.539Z" fill="#8B521B"/>
<path d="M83.6616 231.858L83.0246 232.922L81.1135 231.752C81.0074 231.646 80.9012 231.433 81.0074 231.22C81.1135 230.901 81.3259 230.688 81.6444 230.688H81.7505L83.6616 231.858Z" fill="#EF8934"/>
<path d="M83.1308 232.922C83.3431 232.922 83.6617 232.709 83.6617 232.39C83.7678 232.071 83.6616 231.858 83.4493 231.858C83.237 231.858 82.9185 232.071 82.9185 232.39C82.9185 232.709 82.9185 232.922 83.1308 232.922Z" fill="#AE6423"/>
<path d="M83.9802 232.071L83.3432 233.135L83.0247 232.922C82.9185 232.816 82.8123 232.603 82.9185 232.39C83.0247 232.071 83.237 231.858 83.4493 231.858H83.5555L83.9802 232.071Z" fill="#AE6423"/>
<path d="M83.4493 233.135C83.6616 233.135 83.9801 232.922 84.0863 232.603C84.1925 232.284 84.0863 232.071 83.874 232.071C83.6616 232.071 83.3431 232.284 83.237 232.603C83.1308 232.922 83.237 233.135 83.4493 233.135Z" fill="#8B521B"/>
<path d="M79.8394 230.263L80.4764 231.327L80.5825 231.22C80.6887 231.114 80.7949 230.901 80.6887 230.689C80.5825 230.369 80.3702 230.157 80.1579 230.157H80.0517L79.8394 230.263Z" fill="#8B521B"/>
<path d="M80.3703 231.433C80.158 231.433 79.9457 231.22 79.8395 230.901C79.7333 230.582 79.8395 230.37 80.0518 230.37C80.2642 230.37 80.4765 230.582 80.5827 230.901C80.6888 231.114 80.5827 231.433 80.3703 231.433Z" fill="#EF8934"/>
<path d="M81.6443 229.306L81.432 229.731L80.6888 229.306C80.6888 229.306 80.5826 229.199 80.6888 229.093C80.6888 228.987 80.795 228.88 80.9011 228.88L81.6443 229.306Z" fill="#AE6423"/>
<path d="M81.4319 229.731C81.538 229.731 81.6442 229.625 81.6442 229.518C81.6442 229.412 81.6442 229.306 81.538 229.306C81.4319 229.306 81.3257 229.412 81.3257 229.518C81.3257 229.625 81.4319 229.731 81.4319 229.731Z" fill="#8B521B"/>
<path d="M83.6616 230.05L83.0246 231.114L81.1135 229.944C81.0074 229.838 80.9012 229.625 81.0074 229.412C81.1135 229.093 81.3259 228.88 81.6444 228.88H81.7505L83.6616 230.05Z" fill="#EF8934"/>
<path d="M83.1308 231.114C83.3431 231.114 83.6617 230.901 83.6617 230.582C83.7678 230.263 83.6616 230.05 83.4493 230.05C83.237 230.05 82.9185 230.263 82.9185 230.582C82.9185 230.901 82.9185 231.114 83.1308 231.114Z" fill="#AE6423"/>
<path d="M83.9802 230.157L83.3432 231.22L83.0247 231.007C82.9185 230.901 82.8123 230.688 82.9185 230.476C83.0247 230.157 83.237 229.944 83.4493 229.944H83.5555L83.9802 230.157Z" fill="#AE6423"/>
<path d="M83.4493 231.327C83.6616 231.327 83.9801 231.114 84.0863 230.795C84.1925 230.476 84.0863 230.263 83.874 230.263C83.6616 230.263 83.3431 230.476 83.237 230.795C83.1308 231.008 83.237 231.327 83.4493 231.327Z" fill="#8B521B"/>
<path d="M79.8394 228.455L80.4764 229.519L80.5825 229.412C80.6887 229.306 80.7949 229.093 80.6887 228.88C80.5825 228.561 80.3702 228.349 80.1579 228.349H80.0517L79.8394 228.455Z" fill="#8B521B"/>
<path d="M80.3703 229.519C80.158 229.519 79.9457 229.306 79.8395 228.987C79.7333 228.668 79.8395 228.455 80.0518 228.455C80.2642 228.455 80.4765 228.668 80.5827 228.987C80.6888 229.306 80.5827 229.519 80.3703 229.519Z" fill="#EF8934"/>
<path d="M81.6443 227.498L81.432 227.924L80.6888 227.498C80.6888 227.498 80.5826 227.392 80.6888 227.285C80.6888 227.179 80.795 227.073 80.9011 227.073L81.6443 227.498Z" fill="#AE6423"/>
<path d="M81.4319 227.818C81.538 227.818 81.6442 227.711 81.6442 227.605C81.6442 227.498 81.6442 227.392 81.538 227.392C81.4319 227.392 81.3257 227.498 81.3257 227.605C81.3257 227.818 81.4319 227.818 81.4319 227.818Z" fill="#8B521B"/>
<path d="M83.6616 228.243L83.0246 229.306L81.1135 228.136C81.0074 228.03 80.9012 227.817 81.0074 227.605C81.1135 227.285 81.3259 227.073 81.6444 227.073H81.7505L83.6616 228.243Z" fill="#EF8934"/>
<path d="M83.1308 229.306C83.3431 229.306 83.6617 229.094 83.6617 228.774C83.7678 228.455 83.6616 228.243 83.4493 228.243C83.237 228.243 82.9185 228.455 82.9185 228.774C82.9185 229.094 82.9185 229.306 83.1308 229.306Z" fill="#AE6423"/>
<path d="M83.9802 228.349L83.3432 229.413L83.0247 229.2C82.9185 229.093 82.8123 228.881 82.9185 228.668C83.0247 228.349 83.237 228.136 83.4493 228.136H83.5555L83.9802 228.349Z" fill="#AE6423"/>
<path d="M83.4493 229.519C83.6616 229.519 83.9801 229.306 84.0863 228.987C84.1925 228.668 84.0863 228.456 83.874 228.456C83.6616 228.456 83.3431 228.668 83.237 228.987C83.1308 229.2 83.237 229.519 83.4493 229.519Z" fill="#8B521B"/>
<path d="M79.8394 226.647L80.4764 227.711L80.5825 227.605C80.6887 227.498 80.7949 227.286 80.6887 227.073C80.5825 226.754 80.3702 226.541 80.1579 226.541H80.0517L79.8394 226.647Z" fill="#8B521B"/>
<path d="M80.3703 227.711C80.158 227.711 79.9457 227.498 79.8395 227.179C79.7333 226.86 79.8395 226.647 80.0518 226.647C80.2642 226.647 80.4765 226.86 80.5827 227.179C80.6888 227.498 80.5827 227.711 80.3703 227.711Z" fill="#EF8934"/>
<path d="M81.6443 225.584L81.432 226.009L80.6888 225.584C80.6888 225.584 80.5826 225.477 80.6888 225.371C80.6888 225.265 80.795 225.158 80.9011 225.158L81.6443 225.584Z" fill="#AE6423"/>
<path d="M81.4319 226.009C81.538 226.009 81.6442 225.903 81.6442 225.796C81.6442 225.69 81.6442 225.583 81.538 225.583C81.4319 225.583 81.3257 225.69 81.3257 225.796C81.3257 225.903 81.4319 226.009 81.4319 226.009Z" fill="#8B521B"/>
<path d="M83.6616 226.328L83.0246 227.392L81.1135 226.222C81.0074 226.115 80.9012 225.903 81.0074 225.69C81.1135 225.371 81.3259 225.158 81.6444 225.158H81.7505L83.6616 226.328Z" fill="#EF8934"/>
<path d="M83.1308 227.498C83.3431 227.498 83.6617 227.285 83.6617 226.966C83.7678 226.647 83.6616 226.435 83.4493 226.435C83.237 226.435 82.9185 226.647 82.9185 226.966C82.9185 227.179 82.9185 227.498 83.1308 227.498Z" fill="#AE6423"/>
<path d="M83.9802 226.541L83.3432 227.604L83.0247 227.392C82.9185 227.285 82.8123 227.073 82.9185 226.86C83.0247 226.541 83.237 226.328 83.4493 226.328H83.5555L83.9802 226.541Z" fill="#AE6423"/>
<path d="M83.4493 227.605C83.6616 227.605 83.9801 227.392 84.0863 227.073C84.1925 226.754 84.0863 226.541 83.874 226.541C83.6616 226.541 83.3431 226.754 83.237 227.073C83.1308 227.392 83.237 227.605 83.4493 227.605Z" fill="#8B521B"/>
<path d="M79.8394 224.733L80.4764 225.796L80.5825 225.69C80.6887 225.584 80.7949 225.371 80.6887 225.158C80.5825 224.839 80.3702 224.626 80.1579 224.626H80.0517L79.8394 224.733Z" fill="#8B521B"/>
<path d="M80.3703 225.903C80.158 225.903 79.9457 225.69 79.8395 225.371C79.7333 225.052 79.8395 224.839 80.0518 224.839C80.2642 224.839 80.4765 225.052 80.5827 225.371C80.6888 225.584 80.5827 225.903 80.3703 225.903Z" fill="#EF8934"/>
<path d="M81.6443 223.776L81.432 224.201L80.6888 223.776C80.6888 223.776 80.5826 223.669 80.6888 223.563C80.6888 223.456 80.795 223.35 80.9011 223.35L81.6443 223.776Z" fill="#AE6423"/>
<path d="M81.4319 224.201C81.538 224.201 81.6442 224.094 81.6442 223.988C81.6442 223.882 81.6442 223.775 81.538 223.775C81.4319 223.775 81.3257 223.882 81.3257 223.988C81.3257 224.094 81.4319 224.201 81.4319 224.201Z" fill="#8B521B"/>
<path d="M83.6616 224.52L83.0246 225.584L81.1135 224.414C81.0074 224.307 80.9012 224.095 81.0074 223.882C81.1135 223.563 81.3259 223.35 81.6444 223.35H81.7505L83.6616 224.52Z" fill="#EF8934"/>
<path d="M83.1308 225.584C83.3431 225.584 83.6617 225.371 83.6617 225.052C83.7678 224.733 83.6616 224.52 83.4493 224.52C83.237 224.52 82.9185 224.733 82.9185 225.052C82.9185 225.371 82.9185 225.584 83.1308 225.584Z" fill="#AE6423"/>
<path d="M83.9802 224.733L83.3432 225.796L83.0247 225.584C82.9185 225.477 82.8123 225.265 82.9185 225.052C83.0247 224.733 83.237 224.52 83.4493 224.52H83.5555L83.9802 224.733Z" fill="#AE6423"/>
<path d="M83.4493 225.797C83.6616 225.797 83.9801 225.584 84.0863 225.265C84.1925 224.946 84.0863 224.733 83.874 224.733C83.6616 224.733 83.3431 224.946 83.237 225.265C83.1308 225.584 83.237 225.797 83.4493 225.797Z" fill="#8B521B"/>
<path d="M79.8394 222.925L80.4764 223.988L80.5825 223.882C80.6887 223.776 80.7949 223.563 80.6887 223.35C80.5825 223.031 80.3702 222.818 80.1579 222.818H80.0517L79.8394 222.925Z" fill="#8B521B"/>
<path d="M80.3703 224.095C80.158 224.095 79.9457 223.882 79.8395 223.563C79.7333 223.244 79.8395 223.031 80.0518 223.031C80.2642 223.031 80.4765 223.244 80.5827 223.563C80.6888 223.776 80.5827 224.095 80.3703 224.095Z" fill="#EF8934"/>
<path d="M70.8149 231.646C70.8149 231.646 74.3185 233.135 77.3974 233.667C77.6097 233.348 78.0344 232.603 79.3084 231.646C80.0516 231.008 80.4763 228.987 81.1133 229.2C81.7503 229.412 80.901 231.646 80.901 231.646L82.9182 232.497C82.9182 232.497 83.8737 230.582 84.5107 230.795C85.1477 230.901 85.1477 232.39 85.1477 233.454C85.0416 235.156 83.6614 235.9 82.7058 236.326C81.7503 236.751 77.6097 237.07 77.6097 237.07C75.8048 236.645 69.9655 236.538 69.9655 236.538L68.2668 235.475L68.1606 233.135L69.01 232.284L70.8149 231.646Z" fill="#5B3A1B"/>
<path d="M64.2325 213.565C60.3043 213.353 60.4104 219.521 60.4104 219.521C60.4104 219.521 60.8351 231.965 61.2598 233.454C62.3215 236.858 69.9657 236.539 69.9657 236.539C69.9657 236.539 68.5855 233.986 70.815 231.646C69.0101 230.902 66.9929 230.583 66.9929 230.583L67.5238 219.947C67.4176 219.947 68.1608 213.778 64.2325 213.565Z" fill="#AEC6F7" stroke="#111111" stroke-width="0.5" stroke-miterlimit="10"/>
<path d="M70.1778 231.114C68.0544 232.603 68.2668 236.113 69.1161 236.858C70.6025 237.283 71.2395 236.964 71.8765 236.645C71.2395 235.9 71.2395 233.029 72.5136 232.284C72.8321 232.497 71.7704 231.008 70.1778 231.114Z" fill="#111111"/>
<path d="M85.8911 223.137C85.8911 223.137 87.4836 226.115 89.9255 224.095C92.3674 222.18 89.607 219.734 89.607 219.734L85.8911 223.137Z" fill="#111111"/>
<path d="M86.9527 218.245C86.9527 218.245 87.9082 217.926 88.9699 218.671C89.8193 219.202 90.9871 220.798 88.8637 222.606C87.0588 224.095 85.1478 223.563 84.7231 222.18C84.2985 220.904 84.9355 220.372 84.9355 220.372L86.9527 218.245Z" fill="#111111"/>
<path d="M82.7059 216.331C82.7059 216.331 79.7332 217.82 79.3085 219.521C79.0961 220.585 81.4319 222.287 82.5997 221.861C83.7676 221.436 84.6169 220.266 84.6169 220.266C84.6169 220.266 84.8293 221.117 85.0416 221.755C86.3156 223.882 90.4563 220.372 87.5897 218.777C86.4218 218.032 84.9354 216.969 84.5108 216.331C83.8738 215.374 81.9627 215.374 81.9627 215.374C81.9627 215.374 82.9182 216.118 82.7059 216.331Z" fill="#5B3A1B"/>
<path d="M73.6816 211.544L74.6371 211.864L72.9384 211.97L72.7261 211.544H73.6816Z" fill="#9D293D"/>
<path d="M74.6371 211.864L72.7261 213.459L73.6816 211.544L74.6371 211.864Z" fill="#111111"/>
<path d="M72.726 213.459L73.6815 211.545L67.6298 207.822L66.6743 209.418L72.726 213.459Z" fill="#111111"/>
<path d="M154.901 262.49C155.963 262.277 156.918 262.064 157.449 261.852C158.617 261.32 159.572 247.919 159.572 247.919L157.98 244.303C157.98 244.303 155.644 244.728 155.219 247.919C154.901 250.791 155.007 256.853 155.007 256.853C155.007 256.853 154.476 256.959 153.415 257.385L154.901 262.49Z" fill="#AEC6F7" stroke="#111111" stroke-width="0.5" stroke-miterlimit="10"/>
<path d="M153.521 257.385C153.521 257.385 149.911 259.406 147.044 260.044C146.195 260.788 148.849 262.384 149.911 262.596C150.866 262.49 153.308 262.49 154.901 262.49C154.901 262.49 156.281 259.193 153.521 257.385Z" fill="#E9C6B6"/>
<path d="M160.846 289.93L162.226 290.781L163.607 289.93V247.919H160.846V289.93Z" fill="#AE6423"/>
<path d="M160.846 289.93L162.226 290.781V248.663L160.846 247.919V289.93Z" fill="#EF8934"/>
<path d="M160.846 247.919L162.226 248.663L163.607 247.919L162.226 247.174L160.846 247.919Z" fill="#F29F45"/>
<path d="M162.545 249.514V251.11L176.453 259.193L176.984 257.278L163.076 249.195L162.545 249.514Z" fill="#AE6423"/>
<path d="M162.545 249.514L176.453 257.598L176.984 257.278L163.076 249.195L162.545 249.514Z" fill="#EF8934"/>
<path d="M176.453 259.193L176.984 258.874V257.278L176.453 257.597V259.193Z" fill="#F29F45"/>
<path d="M162.545 252.492V253.981L176.453 262.064L176.984 260.15L163.076 252.067L162.545 252.492Z" fill="#111111"/>
<path d="M162.545 252.492L176.453 260.469L176.984 260.15L163.076 252.067L162.545 252.492Z" fill="#EF8934"/>
<path d="M176.453 262.064L176.984 261.745V260.15L176.453 260.469V262.064Z" fill="#F29F45"/>
<path d="M162.545 255.364V256.853L176.453 264.936L176.984 263.022L163.076 255.045L162.545 255.364Z" fill="#111111"/>
<path d="M162.545 255.364L176.453 263.341L176.984 263.022L163.076 255.045L162.545 255.364Z" fill="#AEC6F7" stroke="#111111" stroke-width="0.5" stroke-miterlimit="10"/>
<path d="M176.453 264.936L176.984 264.617V263.021L176.453 263.341V264.936Z" fill="#F29F45"/>
<path d="M162.545 258.236V259.831L176.453 267.808L176.984 265.893L163.076 257.917L162.545 258.236Z" fill="#AE6423"/>
<path d="M162.545 258.236L176.453 266.212L176.984 265.893L163.076 257.917L162.545 258.236Z" fill="#AEC6F7" stroke="#111111" stroke-width="0.5" stroke-miterlimit="10"/>
<path d="M176.453 267.807L176.984 267.488V265.893L176.453 266.212V267.807Z" fill="#F29F45"/>
<path d="M174.754 298.013L176.135 298.757L177.515 298.013V255.896H174.754V298.013Z" fill="#111111"/>
<path d="M174.754 298.013L176.135 298.757V256.746L174.754 255.896V298.013Z" fill="#AEC6F7" stroke="#111111" stroke-width="0.5" stroke-miterlimit="10"/>
<path d="M174.754 255.895L176.135 256.746L177.515 255.895L176.135 255.151L174.754 255.895Z" fill="#F29F45"/>
<path d="M147.788 297.588L149.168 298.332L150.442 297.588V281.528H147.788V297.588Z" fill="#111111"/>
<path d="M147.788 297.588L149.168 298.332V282.272L147.788 281.528V297.588Z" fill="#AEC6F7" stroke="#111111" stroke-width="0.5" stroke-miterlimit="10"/>
<path d="M147.788 281.528L149.168 282.272L150.442 281.528L149.168 280.677L147.788 281.528Z" fill="#F29F45"/>
<path d="M161.696 305.671L163.076 306.415L164.35 305.671V289.504H161.696V305.671Z" fill="#111111"/>
<path d="M161.696 305.671L163.076 306.415V290.355L161.696 289.504V305.671Z" fill="#AEC6F7" stroke="#111111" stroke-width="0.5" stroke-miterlimit="10"/>
<path d="M161.696 289.504L163.076 290.355L164.35 289.504L163.076 288.76L161.696 289.504Z" fill="#F29F45"/>
<path d="M147.788 281.527L163.076 290.355L176.135 282.697V280.57L147.788 279.294V281.527Z" fill="#111111"/>
<path d="M147.788 279.294L163.076 288.122L176.135 280.57L160.846 271.743L147.788 279.294Z" fill="#AEC6F7" stroke="#111111" stroke-width="0.5" stroke-miterlimit="10"/>
<path d="M151.291 279.72L163.394 286.633L173.693 280.677V278.975L151.291 277.912V279.72Z" fill="#234663"/>
<path d="M151.291 277.912L163.394 284.931L173.693 278.975L161.589 271.956L151.291 277.912Z" fill="#4476A6"/>
<path d="M144.921 302.055C144.815 302.906 140.144 305.671 139.931 306.416C139.719 307.16 139.931 308.862 140.25 309.074C142.479 309.713 144.39 308.224 144.39 308.224L147.575 305.671C147.575 305.671 151.397 304.714 151.822 304.076C152.247 303.438 151.61 301.098 151.61 301.098C151.61 301.098 145.027 301.204 144.921 302.055Z" fill="#121214"/>
<path d="M159.785 280.358C159.785 280.358 147.788 288.335 146.832 288.441C149.274 291.1 152.247 300.141 152.034 300.885C150.867 303.863 146.195 303.757 144.39 302.161C144.496 299.502 139.719 288.654 139.506 287.271C139.294 285.889 147.575 273.977 157.237 268.127C158.617 268.446 164.881 273.551 164.881 273.551L163.076 280.039L159.785 280.358Z" fill="#111111"/>
<path d="M155.963 307.585C155.538 309.393 153.945 311.308 153.521 312.371C152.884 314.073 153.627 315.136 153.627 315.136C153.627 315.136 156.918 317.264 159.572 314.073C160.422 312.903 160.953 308.861 160.953 308.861C160.953 308.861 156.175 306.628 155.963 307.585Z" fill="#121214"/>
<path d="M171.782 269.616C171.782 269.616 173.481 276.103 171.782 278.656C167.748 284.718 163.076 288.654 162.121 289.185C163.607 295.673 162.651 306.202 162.545 307.16C161.802 311.095 155.644 309.606 154.795 306.522C155.326 302.905 155.644 294.184 155.113 288.76C154.901 286.101 160.422 275.572 160.422 275.572C160.422 275.572 157.768 272.381 157.237 268.02C157.874 266.957 164.244 266 164.244 266L171.782 269.616Z" fill="#111111"/>
<path d="M166.898 242.601C166.792 243.345 167.747 244.622 167.747 244.622L168.49 246.217L167.641 249.408L164.456 252.173H161.271L160.103 250.259L159.678 247.281L162.863 243.239L165.942 242.601C165.942 242.601 166.685 241.856 166.898 242.601Z" fill="#C1A497"/>
<path d="M171.251 268.02L171.676 269.616C171.676 269.616 166.898 276.103 157.024 268.02C157.024 267.488 157.131 266.425 157.131 266.425L171.251 268.02Z" fill="#392518"/>
<path d="M174.967 259.086C170.614 266.106 171.782 268.233 170.933 268.446C166.686 273.87 157.768 266.957 157.131 266.531C156.6 265.999 155.326 256.215 155.326 252.173C155.432 249.195 159.042 245.047 159.042 245.047L160.634 246.323C160.634 246.323 160.103 250.684 161.483 251.109C162.864 251.429 167.217 246.962 167.641 246.323C168.066 245.685 167.535 244.728 167.535 244.728C167.535 244.728 171.782 248.663 174.33 250.365C174.861 251.216 174.542 257.81 174.967 259.086Z" fill="#AEC6F7" stroke="#111111" stroke-width="0.5" stroke-miterlimit="10"/>
<path d="M159.997 248.025C156.387 251.535 157.873 263.979 158.723 267.595C158.616 267.701 157.555 266.744 157.555 266.744C157.342 265.255 154.582 251.216 158.829 247.493C159.36 247.174 160.103 247.6 159.997 248.025Z" fill="white"/>
<path d="M172.419 248.663C163.607 253.024 164.456 269.935 164.456 269.935L162.97 269.615C162.97 269.615 162.333 252.173 170.932 247.493C171.569 247.493 171.675 248.131 172.419 248.663Z" fill="white"/>
<path d="M156.493 240.367C156.069 242.175 157.13 243.133 157.13 243.133C157.13 243.133 156.918 243.771 157.13 244.728C157.343 245.579 158.298 247.919 158.617 248.557C158.935 249.195 159.785 249.514 160.74 249.408C161.696 249.301 164.881 246.642 165.199 246.111C165.412 245.685 165.199 244.834 165.199 244.834C165.199 244.834 166.686 244.303 166.792 242.92C166.898 242.601 167.004 242.175 167.004 242.175L166.579 240.155L164.244 238.028L160.528 237.708L157.555 238.347C157.449 238.453 156.6 239.729 156.493 240.367Z" fill="#E9C6B6"/>
<path d="M166.686 242.92C166.686 242.92 166.792 241.218 165.943 241.112C165.093 241.006 164.456 242.495 164.244 242.814C163.713 241.431 162.439 242.069 161.483 240.793C161.165 241.112 160.422 242.388 157.131 241.75C157.874 241.112 157.661 240.58 157.661 240.58C157.661 240.58 155.857 241.112 155.326 240.58C156.281 239.729 157.024 233.348 163.076 234.305C168.384 235.9 167.11 241.75 167.004 242.282C167.11 242.814 166.686 242.92 166.686 242.92Z" fill="#111111"/>
<path d="M144.39 258.554C144.39 258.554 144.815 257.491 144.178 257.065C143.541 256.64 143.116 257.81 143.116 257.81L144.39 258.554Z" fill="#E9C6B6"/>
<path d="M134.092 252.173L134.729 251.854C135.047 251.748 135.366 251.748 135.791 252.067L140.037 255.364L139.931 258.767L135.684 256.321C135.047 256.002 134.516 255.258 134.41 254.407L134.198 253.13L134.41 252.386L134.092 252.173Z" fill="#704D2F"/>
<path d="M157.024 261.958L155.856 261.426L158.511 259.831C159.148 259.511 159.891 259.299 160.953 259.618C163.182 260.469 164.244 262.808 165.518 263.659C167.217 264.723 169.021 262.17 173.481 265.148C179.957 269.296 179.532 278.23 179.426 279.081C179.426 279.719 179.32 284.186 177.09 285.675L174.011 287.377L173.268 285.675L173.481 285.463C173.162 285.356 172.95 285.144 172.631 285.037C168.066 282.272 166.58 277.699 164.881 276.635C163.607 275.89 162.439 276.635 160.209 274.827C155.75 270.36 156.387 264.723 156.387 264.723C156.387 264.723 156.493 263.234 157.024 261.958Z" fill="#8B521B"/>
<path d="M162.333 277.911C161.059 277.167 159.891 278.018 157.661 276.21C153.202 271.743 153.839 266.425 153.839 266.425C153.839 266.425 153.521 260.362 157.98 261.532C160.209 262.383 161.165 264.829 162.439 265.574C164.137 266.637 165.942 263.978 170.508 266.85C176.984 270.998 176.347 279.719 176.347 280.464C176.347 281.315 176.453 290.355 169.977 286.314C165.518 283.655 164.031 278.975 162.333 277.911Z" fill="#E3D9B4"/>
<path d="M157.024 261.107C157.343 261.107 157.661 261.107 158.086 261.213C160.315 262.064 161.377 264.404 162.651 265.255C162.97 265.468 163.394 265.574 163.713 265.574C164.456 265.574 165.305 265.255 166.367 265.255C167.429 265.255 168.809 265.574 170.614 266.744C177.09 270.892 176.665 279.826 176.559 280.677C176.559 281.421 176.453 287.696 172.737 287.696C171.994 287.696 170.932 287.377 169.871 286.739C165.305 283.974 163.819 279.4 162.12 278.337C160.846 277.592 159.678 278.337 157.449 276.529C152.99 272.062 153.627 266.425 153.627 266.425C153.627 266.425 153.627 261.107 157.024 261.107Z" fill="#734314"/>
<path d="M135.259 257.81V257.385L135.472 257.278L135.365 256.746L135.578 256.64L135.79 256.746L135.896 257.385C136.109 257.491 136.321 257.81 136.321 258.129C136.321 258.342 136.321 258.448 136.215 258.448H135.896V258.342C135.684 258.235 135.472 258.023 135.472 257.704L135.259 257.81Z" fill="#929497"/>
<path d="M135.153 257.704C135.153 257.385 135.259 257.278 135.472 257.278L135.366 256.64L135.578 256.746L135.684 257.385C135.897 257.491 136.109 257.81 136.109 258.129C136.109 258.448 136.003 258.555 135.684 258.448C135.366 258.342 135.153 258.023 135.153 257.704Z" fill="#BBBDBF"/>
<path d="M158.829 269.403C158.935 267.595 160.209 266.956 161.802 267.914C163.394 268.871 164.562 271.211 164.456 273.019C164.35 274.827 163.076 275.465 161.483 274.508C159.891 273.444 158.723 271.211 158.829 269.403Z" fill="#704D2F"/>
<path d="M160.634 268.339V268.446L160.422 268.552L139.719 256.002L140.25 255.577L154.052 263.873L153.945 264.404L160.634 268.339Z" fill="#704D2F"/>
<path d="M160.421 268.446L160.315 272.487L139.612 258.874L139.718 256.002" fill="#5B3A1B"/>
<path d="M159.572 269.935C159.679 268.658 160.634 268.127 161.696 268.871C162.864 269.616 163.713 271.211 163.607 272.594C163.501 273.87 162.545 274.402 161.483 273.657C160.316 272.806 159.466 271.211 159.572 269.935Z" fill="#1F1F1F"/>
<path d="M135.578 251.216C135.578 251.216 135.684 251.216 135.578 251.216V251.109L135.684 251.003C135.79 250.897 135.897 251.003 136.109 251.109C136.321 251.322 136.534 251.641 136.427 251.96C136.427 252.067 136.321 252.067 136.321 252.173L136.215 252.279V252.173H136.109L136.003 252.705L135.79 252.811L135.897 252.067C135.684 251.748 135.578 251.428 135.578 251.216Z" fill="#929497"/>
<path d="M135.684 252.066C135.472 251.854 135.366 251.535 135.472 251.322C135.578 251.109 135.79 251.003 136.003 251.216C136.215 251.428 136.427 251.747 136.321 252.066C136.321 252.279 136.109 252.385 135.897 252.279L135.79 252.811L135.578 252.705L135.684 252.066Z" fill="#BBBDBF"/>
<path d="M137.171 252.492C137.171 252.386 137.171 252.386 137.171 252.492V252.386L137.277 252.279C137.383 252.173 137.489 252.279 137.702 252.386C137.914 252.598 138.126 252.918 138.02 253.237C138.02 253.343 137.914 253.343 137.914 253.449L137.808 253.556V253.449H137.702L137.596 253.981L137.383 254.087L137.489 253.343C137.277 253.024 137.171 252.705 137.171 252.492Z" fill="#929497"/>
<path d="M137.277 253.343C137.065 253.131 136.958 252.811 137.065 252.599C137.171 252.386 137.383 252.28 137.595 252.492C137.808 252.705 138.02 253.024 137.914 253.343C137.914 253.556 137.702 253.662 137.489 253.556L137.383 254.088L137.171 253.981L137.277 253.343Z" fill="#BBBDBF"/>
<path d="M138.657 253.556V253.449L138.763 253.343C138.869 253.237 138.976 253.343 139.188 253.449C139.4 253.662 139.613 253.981 139.506 254.3C139.506 254.406 139.4 254.406 139.4 254.513L139.294 254.619V254.513H139.188L139.082 255.045L138.869 255.151L138.975 254.406C138.657 254.087 138.551 253.875 138.657 253.556Z" fill="#929497"/>
<path d="M138.657 254.406C138.444 254.194 138.338 253.874 138.444 253.662C138.551 253.449 138.763 253.343 138.975 253.555C139.188 253.768 139.4 254.087 139.294 254.406C139.294 254.619 139.082 254.725 138.869 254.513L138.763 255.044L138.551 254.938L138.657 254.406Z" fill="#BBBDBF"/>
<path d="M136.852 258.554V258.129L137.064 258.022L136.958 257.491L137.171 257.384L137.383 257.491L137.489 258.129C137.701 258.235 137.914 258.554 137.914 258.873C137.914 259.086 137.914 259.192 137.808 259.192L137.595 259.299V259.192C137.383 259.086 137.171 258.873 137.171 258.554H136.852Z" fill="#929497"/>
<path d="M136.746 258.448C136.746 258.129 136.852 258.022 137.065 258.022L136.958 257.384L137.171 257.491L137.277 258.129C137.489 258.235 137.702 258.554 137.702 258.873C137.702 259.192 137.595 259.299 137.277 259.192C136.958 259.086 136.746 258.767 136.746 258.448Z" fill="#BBBDBF"/>
<path d="M138.338 259.299V258.873L138.551 258.767L138.445 258.235L138.657 258.129L138.869 258.235L138.975 258.873C139.188 258.98 139.4 259.299 139.4 259.618C139.4 259.831 139.4 259.937 139.294 259.937L139.082 260.043V259.937C138.869 259.831 138.657 259.618 138.657 259.299H138.338Z" fill="#929497"/>
<path d="M138.232 259.192C138.232 258.873 138.339 258.767 138.551 258.767L138.445 258.129L138.657 258.235L138.763 258.873C138.976 258.98 139.188 259.299 139.188 259.618C139.188 259.937 139.082 260.043 138.763 259.937C138.445 259.831 138.232 259.512 138.232 259.192Z" fill="#BBBDBF"/>
<path d="M138.444 255.257L134.941 252.811L134.304 253.13L134.622 254.087L138.444 256.321V255.257Z" fill="#392518"/>
<path d="M138.338 256.746L134.941 254.726L134.41 255.151L134.729 256.002L138.338 258.023V256.746Z" fill="#392518"/>
<path d="M133.667 254.726L133.455 253.449L133.773 252.492C133.985 251.854 134.516 251.854 135.153 252.279L139.4 255.577L139.294 258.555L135.047 256.534C134.304 256.321 133.773 255.576 133.667 254.726Z" fill="#5B3A1B"/>
<path d="M140.568 256.64L140.462 259.299L140.25 259.193L140.356 256.534L140.568 256.64Z" fill="#B9B9B9"/>
<path d="M144.178 258.874L144.072 261.639L143.965 261.532L144.072 258.874H144.178Z" fill="#B9B9B9"/>
<path d="M147.893 261.213L147.787 263.979L147.681 263.872L147.787 261.107L147.893 261.213Z" fill="#B9B9B9"/>
<path d="M151.61 263.553L151.504 266.212H151.397L151.504 263.447L151.61 263.553Z" fill="#B9B9B9"/>
<path d="M155.325 265.893L155.219 268.552L155.007 268.446L155.113 265.787L155.325 265.893Z" fill="#B9B9B9"/>
<path d="M158.935 268.233L158.829 270.892L158.723 270.785L158.829 268.126L158.935 268.233Z" fill="#B9B9B9"/>
<path d="M139.718 256.002L139.612 258.873L139.188 258.661L139.294 255.683L139.718 256.002Z" fill="#392518"/>
<path d="M139.719 256.002L140.249 255.576L139.931 255.364L139.294 255.683L139.719 256.002Z" fill="#392518"/>
<path d="M170.614 275.571V275.678L139.719 256.214V256.108L170.614 275.571Z" fill="white"/>
<path d="M170.614 276.104V276.21L139.719 256.746V256.64L170.614 276.104Z" fill="white"/>
<path d="M170.614 276.529V276.635L139.612 257.278V257.172L170.614 276.529Z" fill="white"/>
<path d="M170.614 277.06V277.167L139.612 257.704V257.597L170.614 277.06Z" fill="white"/>
<path d="M170.614 277.486V277.592L139.612 258.235V258.129L170.614 277.486Z" fill="white"/>
<path d="M170.614 278.018V278.124L139.612 258.661V258.555L170.614 278.018Z" fill="white"/>
<path d="M170.826 274.827L170.72 279.719L170.295 279.4L170.508 274.614L170.826 274.827Z" fill="#704D2F"/>
<path d="M174.967 263.447C174.967 263.447 169.446 265.999 168.066 266.212C168.066 266.212 166.261 265.893 165.411 266.531C164.562 267.063 162.333 269.722 162.333 270.36C162.333 271.104 162.757 271.743 163.182 272.062C163.607 272.381 165.305 272.913 166.898 272.062C167.535 271.636 169.34 269.084 169.34 269.084C171.994 268.446 175.604 268.552 178.576 267.914C179.107 267.488 178.576 265.574 178.576 265.574L174.967 263.447Z" fill="#E9C6B6"/>
<path d="M171.145 250.897C174.755 247.919 177.94 253.981 177.94 253.981C177.94 253.981 184.841 262.171 184.735 263.766C184.204 266.531 178.577 268.127 178.577 268.127C178.577 268.127 174.755 267.701 174.967 263.553C175.604 263.234 176.878 262.49 176.878 262.49L171.145 256.959C171.145 256.853 167.854 253.556 171.145 250.897Z" fill="#AEC6F7" stroke="#111111" stroke-width="0.5" stroke-miterlimit="10"/>
<path d="M144.815 262.277C144.602 261.426 144.178 261.001 144.178 261.001C144.178 261.001 144.708 260.682 144.708 260.362C144.708 260.043 144.602 259.831 144.39 259.618C144.178 259.299 142.479 258.129 141.948 258.129C140.78 258.023 140.355 259.086 140.355 260.043C140.355 261.001 142.691 262.702 143.434 263.021C144.071 263.447 145.345 263.872 145.876 263.979C146.513 264.085 147.15 263.766 147.15 263.766L144.815 262.277Z" fill="#E9C6B6"/>
<path d="M19.1104 51.7959C20.2782 56.4756 28.8779 87.5319 61.5781 114.334C95.5522 142.2 127.828 142.731 132.181 142.731" stroke="#111111" stroke-miterlimit="10"/>
<path d="M29.0904 58.709L22.7202 61.2616L26.0115 68.9193L32.4878 66.0476L29.0904 58.709Z" fill="#111111" stroke="#020202" stroke-miterlimit="10"/>
<path d="M35.0357 66.5796C38.4366 66.5796 41.1936 63.8178 41.1936 60.4109C41.1936 57.004 38.4366 54.2422 35.0357 54.2422C31.6349 54.2422 28.8779 57.004 28.8779 60.4109C28.8779 63.8178 31.6349 66.5796 35.0357 66.5796Z" fill="#FFB24D" stroke="#111111" stroke-miterlimit="10"/>
<path d="M26.8608 86.1495L32.9125 82.8524L28.7719 75.6201L22.7202 79.2363L26.8608 86.1495Z" fill="#111111" stroke="#020202" stroke-miterlimit="10"/>
<path d="M20.8092 91.2544C24.2101 91.2544 26.967 88.4926 26.967 85.0857C26.967 81.6788 24.2101 78.917 20.8092 78.917C17.4083 78.917 14.6514 81.6788 14.6514 85.0857C14.6514 88.4926 17.4083 91.2544 20.8092 91.2544Z" fill="#AEC6F7" stroke="#111111" stroke-miterlimit="10"/>
<path d="M44.6976 86.2559L39.1768 90.4038L44.3791 96.998L49.7937 92.5309L44.6976 86.2559Z" fill="#111111" stroke="#020202" stroke-miterlimit="10"/>
<path d="M50.8556 92.6372C54.2564 92.6372 57.0134 89.8754 57.0134 86.4685C57.0134 83.0616 54.2564 80.2998 50.8556 80.2998C47.4547 80.2998 44.6978 83.0616 44.6978 86.4685C44.6978 89.8754 47.4547 92.6372 50.8556 92.6372Z" fill="#F2F2F2" stroke="#111111" stroke-miterlimit="10"/>
<path d="M51.0678 114.547L56.0578 109.761L50.1123 103.911L45.2285 109.016L51.0678 114.547Z" fill="#111111" stroke="#020202" stroke-miterlimit="10"/>
<path d="M44.9098 121.354C48.3106 121.354 51.0676 118.592 51.0676 115.185C51.0676 111.778 48.3106 109.016 44.9098 109.016C41.5089 109.016 38.752 111.778 38.752 115.185C38.752 118.592 41.5089 121.354 44.9098 121.354Z" fill="#C61109" stroke="#111111" stroke-miterlimit="10"/>
<path d="M69.6469 111.994L65.5063 117.418L72.195 122.311L76.2295 116.567L69.6469 111.994Z" fill="#111111" stroke="#020202" stroke-miterlimit="10"/>
<path d="M75.6983 116.674C79.0992 116.674 81.8562 113.912 81.8562 110.505C81.8562 107.098 79.0992 104.336 75.6983 104.336C72.2975 104.336 69.5405 107.098 69.5405 110.505C69.5405 113.912 72.2975 116.674 75.6983 116.674Z" fill="#AEC6F7" stroke="#111111" stroke-miterlimit="10"/>
<path d="M88.0144 139.221L91.4119 133.159L83.98 129.437L80.7949 135.712L88.0144 139.221Z" fill="#111111" stroke="#020202" stroke-miterlimit="10"/>
<path d="M82.3873 147.836C85.7882 147.836 88.5451 145.075 88.5451 141.668C88.5451 138.261 85.7882 135.499 82.3873 135.499C78.9864 135.499 76.2295 138.261 76.2295 141.668C76.2295 145.075 78.9864 147.836 82.3873 147.836Z" fill="#F2F2F2" stroke="#111111" stroke-miterlimit="10"/>
<path d="M102.135 129.756L99.9053 136.244L107.762 138.796L109.885 131.989L102.135 129.756Z" fill="#111111" stroke="#020202" stroke-miterlimit="10"/>
<path d="M107.337 132.627C110.738 132.627 113.495 129.866 113.495 126.459C113.495 123.052 110.738 120.29 107.337 120.29C103.936 120.29 101.179 123.052 101.179 126.459C101.179 129.866 103.936 132.627 107.337 132.627Z" fill="#FFB24D" stroke="#111111" stroke-miterlimit="10"/>
<path d="M132.181 142.625C135.79 145.816 160.103 166.981 202.146 171.129C245.888 175.489 273.067 157.94 276.571 155.494" stroke="#111111" stroke-miterlimit="10"/>
<path d="M144.284 142.837L140.462 148.581L147.469 153.048L151.185 147.092L144.284 142.837Z" fill="#111111" stroke="#020202" stroke-miterlimit="10"/>
<path d="M150.123 147.198C153.524 147.198 156.281 144.436 156.281 141.03C156.281 137.623 153.524 134.861 150.123 134.861C146.722 134.861 143.965 137.623 143.965 141.03C143.965 144.436 146.722 147.198 150.123 147.198Z" fill="#FFB24D" stroke="#111111" stroke-miterlimit="10"/>
<path d="M157.661 166.874L160.846 160.812L153.414 157.089L150.335 163.471L157.661 166.874Z" fill="#111111" stroke="#020202" stroke-miterlimit="10"/>
<path d="M152.034 175.596C155.435 175.596 158.192 172.834 158.192 169.427C158.192 166.02 155.435 163.258 152.034 163.258C148.633 163.258 145.876 166.02 145.876 169.427C145.876 172.834 148.633 175.596 152.034 175.596Z" fill="#AEC6F7" stroke="#111111" stroke-miterlimit="10"/>
<path d="M172.631 157.196L170.295 163.577L178.152 166.236L180.275 159.429L172.631 157.196Z" fill="#111111" stroke="#020202" stroke-miterlimit="10"/>
<path d="M177.834 159.961C181.234 159.961 183.991 157.199 183.991 153.792C183.991 150.385 181.234 147.624 177.834 147.624C174.433 147.624 171.676 150.385 171.676 153.792C171.676 157.199 174.433 159.961 177.834 159.961Z" fill="#F2F2F2" stroke="#111111" stroke-miterlimit="10"/>
<path d="M193.44 177.191L195.033 170.384L186.858 168.789L185.583 175.808L193.44 177.191Z" fill="#111111" stroke="#020202" stroke-miterlimit="10"/>
<path d="M188.769 187.189C192.17 187.189 194.926 184.427 194.926 181.02C194.926 177.613 192.17 174.851 188.769 174.851C185.368 174.851 182.611 177.613 182.611 181.02C182.611 184.427 185.368 187.189 188.769 187.189Z" fill="#C61109" stroke="#111111" stroke-miterlimit="10"/>
<path d="M207.561 164.641L207.03 171.554L215.417 171.873L215.63 164.854L207.561 164.641Z" fill="#111111" stroke="#020202" stroke-miterlimit="10"/>
<path d="M211.701 166.236C215.102 166.236 217.859 163.475 217.859 160.068C217.859 156.661 215.102 153.899 211.701 153.899C208.3 153.899 205.543 156.661 205.543 160.068C205.543 163.475 208.3 166.236 211.701 166.236Z" fill="#AEC6F7" stroke="#111111" stroke-miterlimit="10"/>
<path d="M237.925 177.085L237.394 170.278L229.113 171.235L230.069 178.255L237.925 177.085Z" fill="#111111" stroke="#020202" stroke-miterlimit="10"/>
<path d="M234.634 188.465C238.035 188.465 240.792 185.703 240.792 182.296C240.792 178.889 238.035 176.127 234.634 176.127C231.233 176.127 228.476 178.889 228.476 182.296C228.476 185.703 231.233 188.465 234.634 188.465Z" fill="#F2F2F2" stroke="#111111" stroke-miterlimit="10"/>
<path d="M244.402 161.344L246.101 168.044L254.169 165.811L252.152 159.004L244.402 161.344Z" fill="#111111" stroke="#020202" stroke-miterlimit="10"/>
<path d="M246.95 161.876C250.351 161.876 253.108 159.114 253.108 155.707C253.108 152.3 250.351 149.538 246.95 149.538C243.549 149.538 240.792 152.3 240.792 155.707C240.792 159.114 243.549 161.876 246.95 161.876Z" fill="#FFB24D" stroke="#111111" stroke-miterlimit="10"/>
<path d="M411.937 119.226C409.177 123.161 389.854 149.006 349.722 162.194C307.997 175.808 277.633 164.641 273.705 163.045" stroke="#111111" stroke-miterlimit="10"/>
<path d="M400.153 122.098L405.143 126.777L399.303 132.733L394.419 127.628L400.153 122.098Z" fill="#111111" stroke="#020202" stroke-miterlimit="10"/>
<path d="M394.101 127.628C397.502 127.628 400.259 124.867 400.259 121.46C400.259 118.053 397.502 115.291 394.101 115.291C390.7 115.291 387.943 118.053 387.943 121.46C387.943 124.867 390.7 127.628 394.101 127.628Z" fill="#FFB24D" stroke="#111111" stroke-miterlimit="10"/>
<path d="M392.296 148.475L387.836 143.157L394.313 137.945L398.666 143.476L392.296 148.475Z" fill="#111111" stroke="#020202" stroke-miterlimit="10"/>
<path d="M398.347 155.814C401.748 155.814 404.505 153.052 404.505 149.645C404.505 146.238 401.748 143.476 398.347 143.476C394.946 143.476 392.189 146.238 392.189 149.645C392.189 153.052 394.946 155.814 398.347 155.814Z" fill="#AEC6F7" stroke="#111111" stroke-miterlimit="10"/>
<path d="M375.627 142.093L379.237 147.943L372.123 152.197L368.62 146.028L375.627 142.093Z" fill="#111111" stroke="#020202" stroke-miterlimit="10"/>
<path d="M369.788 146.135C373.189 146.135 375.946 143.373 375.946 139.966C375.946 136.559 373.189 133.797 369.788 133.797C366.387 133.797 363.63 136.559 363.63 139.966C363.63 143.373 366.387 146.135 369.788 146.135Z" fill="#F2F2F2" stroke="#111111" stroke-miterlimit="10"/>
<path d="M359.489 166.13L356.623 159.961L364.267 156.558L366.921 163.152L359.489 166.13Z" fill="#111111" stroke="#020202" stroke-miterlimit="10"/>
<path d="M365.01 175.17C368.411 175.17 371.168 172.408 371.168 169.001C371.168 165.594 368.411 162.833 365.01 162.833C361.609 162.833 358.852 165.594 358.852 169.001C358.852 172.408 361.609 175.17 365.01 175.17Z" fill="#C61109" stroke="#111111" stroke-miterlimit="10"/>
<path d="M343.033 156.983L345.05 163.577L336.981 165.811L335.283 158.897L343.033 156.983Z" fill="#111111" stroke="#020202" stroke-miterlimit="10"/>
<path d="M338.043 159.642C341.444 159.642 344.201 156.88 344.201 153.473C344.201 150.067 341.444 147.305 338.043 147.305C334.642 147.305 331.885 150.067 331.885 153.473C331.885 156.88 334.642 159.642 338.043 159.642Z" fill="#AEC6F7" stroke="#111111" stroke-miterlimit="10"/>
<path d="M316.066 175.702L315.217 168.895L323.498 168.044L324.029 175.064L316.066 175.702Z" fill="#111111" stroke="#020202" stroke-miterlimit="10"/>
<path d="M320.419 186.231C323.82 186.231 326.577 183.47 326.577 180.063C326.577 176.656 323.82 173.894 320.419 173.894C317.018 173.894 314.261 176.656 314.261 180.063C314.261 183.47 317.018 186.231 320.419 186.231Z" fill="#F2F2F2" stroke="#111111" stroke-miterlimit="10"/>
<path d="M306.405 161.769L306.193 168.682L297.805 168.15L298.336 161.131L306.405 161.769Z" fill="#111111" stroke="#020202" stroke-miterlimit="10"/>
<path d="M302.795 162.939C306.196 162.939 308.953 160.177 308.953 156.77C308.953 153.363 306.196 150.602 302.795 150.602C299.394 150.602 296.637 153.363 296.637 156.77C296.637 160.177 299.394 162.939 302.795 162.939Z" fill="#FFB24D" stroke="#111111" stroke-miterlimit="10"/>
</svg>
