<svg width="185" height="246" viewBox="0 0 185 246" fill="none" xmlns="http://www.w3.org/2000/svg">
<path d="M115.222 236.144L115.274 236.189L115.312 236.246C115.327 236.268 115.396 236.339 115.683 236.412C115.909 236.468 116.182 236.507 116.523 236.555C116.599 236.565 116.679 236.577 116.762 236.589C117.632 236.714 118.767 236.91 119.847 237.584C120.699 238.021 121.372 238.854 121.892 239.563C122.02 239.737 122.133 239.897 122.24 240.047C122.37 240.229 122.489 240.397 122.612 240.56C122.826 240.843 122.979 241.011 123.086 241.088C129.192 244.528 132.701 244.444 135.201 243.075C135.666 242.791 135.863 242.409 135.86 241.928C135.857 241.406 135.614 240.724 135.068 239.922C133.982 238.325 131.825 236.438 128.766 234.712L128.737 234.696L128.71 234.676C128.577 234.575 128.475 234.437 128.398 234.312C128.317 234.18 128.241 234.027 128.17 233.861C128.028 233.531 127.889 233.115 127.751 232.654C127.486 231.766 127.216 230.659 126.948 229.568C126.938 229.524 126.927 229.481 126.916 229.437C126.637 228.295 126.362 227.18 126.096 226.32C125.963 225.889 125.837 225.538 125.721 225.288C125.663 225.162 125.613 225.075 125.573 225.019C125.562 225.003 125.553 224.992 125.547 224.985C122.996 223.889 120.457 223.161 118.293 222.859C116.142 222.558 114.456 222.69 113.479 223.197C113.479 223.198 113.478 223.198 113.478 223.199C113.453 223.25 113.422 223.334 113.387 223.457C113.318 223.701 113.251 224.042 113.188 224.461C113.063 225.295 112.964 226.379 112.887 227.482C112.732 229.688 112.671 231.921 112.671 232.281C112.671 232.642 112.863 233.233 113.308 233.951C113.744 234.653 114.391 235.426 115.222 236.144ZM113.496 223.166C113.497 223.164 113.498 223.163 113.498 223.163C113.498 223.163 113.497 223.164 113.496 223.166Z" fill="white" stroke="black"/>
<path d="M109.177 217.364L109.194 217.372L109.211 217.382C115.346 221.091 119.595 221.235 122.085 219.867C122.635 219.565 122.858 219.179 122.883 218.727C122.909 218.231 122.7 217.574 122.183 216.771C121.156 215.174 119.061 213.228 116.119 211.25C113.048 209.511 110.643 206.479 108.718 204.053C108.644 203.959 108.571 203.867 108.498 203.775C107.498 202.516 106.648 201.468 105.888 200.82C105.111 200.157 104.624 200.073 104.24 200.285L104.2 200.306L104.158 200.321C104.16 200.32 104.158 200.321 104.154 200.324C104.134 200.336 104.055 200.383 103.91 200.509C103.75 200.647 103.548 200.845 103.32 201.096C102.863 201.597 102.315 202.292 101.788 203.111C100.725 204.762 99.7932 206.848 99.7932 208.828C99.7932 209.277 99.8476 209.761 100.117 210.33C100.39 210.907 100.898 211.603 101.853 212.445L101.865 212.456L101.877 212.468C102.29 212.885 102.882 213.166 103.618 213.444C103.8 213.513 103.992 213.581 104.19 213.653C104.76 213.857 105.383 214.08 105.957 214.37L106.005 214.394L106.046 214.427C106.614 214.884 107.131 215.44 107.593 215.937C107.663 216.012 107.732 216.086 107.8 216.158C108.338 216.733 108.774 217.161 109.177 217.364Z" fill="white" stroke="black"/>
<path d="M138.67 119.758H138.672H138.673H138.675H138.676H138.678H138.679H138.681H138.682H138.684H138.685H138.687H138.688H138.69H138.691H138.693H138.694H138.696H138.697H138.699H138.7H138.702H138.704H138.705H138.707H138.708H138.71H138.712H138.713H138.715H138.716H138.718H138.72H138.721H138.723H138.724H138.726H138.728H138.729H138.731H138.733H138.734H138.736H138.738H138.739H138.741H138.743H138.744H138.746H138.748H138.75H138.751H138.753H138.755H138.756H138.758H138.76H138.762H138.763H138.765H138.767H138.769H138.77H138.772H138.774H138.776H138.777H138.779H138.781H138.783H138.785H138.786H138.788H138.79H138.792H138.794H138.795H138.797H138.799H138.801H138.803H138.805H138.806H138.808H138.81H138.812H138.814H138.816H138.817H138.819H138.821H138.823H138.825H138.827H138.829H138.831H138.832H138.834H138.836H138.838H138.84H138.842H138.844H138.846H138.848H138.85H138.852H138.854H138.855H138.857H138.859H138.861H138.863H138.865H138.867H138.869H138.871H138.873H138.875H138.877H138.879H138.881H138.883H138.885H138.887H138.889H138.891H138.893H138.895H138.897H138.899H138.901H138.903H138.905H138.907H138.909H138.911H138.913H138.915H138.917H138.919H138.921H138.923H138.925H138.927H138.929H138.931H138.933H138.935H138.937H138.939H138.941H138.943H138.945H138.948H138.95H138.952H138.954H138.956H138.958H138.96H138.962H138.964H138.966H138.968H138.97H138.972H138.975H138.977H138.979H138.981H138.983H138.985H138.987H138.989H138.991H138.993H138.996H138.998H139H139.002H139.004H139.006H139.008H139.01H139.012H139.015H139.017H139.019H139.021H139.023H139.025H139.027H139.029H139.032H139.034H139.036H139.038H139.04H139.042H139.044H139.047H139.049H139.051H139.053H139.055H139.057H139.059H139.062H139.064H139.066H139.068H139.07H139.072H139.075H139.077H139.079H139.081H139.083H139.085H139.087H139.09H139.092H139.094H139.096H139.098H139.1H139.103H139.105H139.107H139.109H139.111H139.113H139.116H139.118H139.12H139.122H139.124H139.126H139.129H139.131H139.133H139.135H139.137H139.14H139.142H139.144H139.146H139.148H139.15H139.153H139.155H139.157H139.159H139.161H139.163H139.166H139.168H139.17H139.172H139.174H139.177H139.179H139.181H139.183H139.185H139.187H139.19H139.192H139.194H139.196H139.198H139.2H139.203H139.205H139.207H139.209H139.211H139.213H139.216H139.218H139.22H139.222H139.224H139.227H139.229H139.231H139.233H139.235H139.237H139.24H139.242H139.244H139.246H139.248H139.25H139.252H139.255H139.257H139.259H139.261H139.263H139.265H139.268H139.27H139.272H139.274H139.276H139.278H139.28H139.283H139.285H139.287H139.289H139.291H139.293H139.295H139.298H139.3H139.302H139.304H139.306H139.308H139.31H139.313H139.315H139.317H139.319H139.321H139.323H139.325H139.327H139.329H139.332H139.334H139.336H139.338H139.34H139.342H139.344H139.346H139.348H139.35H139.353H139.355H139.357H139.359H139.361H139.363H139.365H139.367H139.369H139.371H139.373H139.375H139.378H139.38H139.382H139.384H139.386H139.388H139.39H139.392H139.394H139.396H139.398H139.4H139.402H139.404H139.406H139.408H139.41H139.412H139.414H139.416H139.418H139.42H139.422H139.425H139.427H139.429H139.431H139.433H139.435H139.437H139.439H139.441H139.442H139.444H139.446H139.448H139.45H139.452H139.454H139.456H139.458H139.46H139.462H139.464H139.466H139.468H139.47H139.472H139.474H139.476H139.478H139.48H139.482H139.484H139.485H139.487H139.489H139.491H139.493H139.495H139.497H139.499H139.501H139.503H139.504H139.506H139.508H139.51H139.512H139.514H139.516H139.518H139.519H139.521H139.523H139.525H139.527H139.529H139.53H139.532H139.534H139.536H139.538H139.54H139.541H139.543H139.545H139.547H139.549H139.55H139.552H139.554H139.556H139.557H139.559H139.561H139.563H139.564H139.566H139.568H139.57H139.571H139.573H139.575H139.577H139.578H139.58H139.582H139.583H139.585H139.587H139.589H139.59H139.592H139.594H139.595H139.597H139.599H139.6H139.602H139.604H139.605H139.607H139.608H139.61H139.612H139.613H139.614C142.037 119.29 143.823 116.826 143.379 114.113C142.79 111.273 140.776 106.062 138.822 101.006C138.75 100.82 138.678 100.634 138.606 100.448C137.601 97.8458 136.63 95.3189 135.911 93.2389C135.551 92.199 135.252 91.2635 135.042 90.4817C134.837 89.7171 134.705 89.0572 134.703 88.5813C134.551 83.8434 133.935 67.7679 133.48 55.912C133.192 48.4205 132.97 42.6137 132.97 42.4167C132.97 39.9243 130.931 37.6511 128.471 37.4258C126.068 37.2057 123.806 39.1919 123.568 41.9379C123.572 42.4566 123.702 46.0037 123.884 50.9646C124.01 54.382 124.16 58.4701 124.311 62.7014C124.682 73.1439 125.054 84.445 125.054 88.5729C125.054 89.7967 125.525 91.787 126.285 94.2207C127.039 96.6346 128.056 99.4221 129.108 102.212C129.513 103.286 129.924 104.362 130.326 105.416C130.966 107.093 131.586 108.715 132.128 110.188C133.008 112.579 133.703 114.627 133.96 115.92C134.407 118.173 136.425 119.758 138.67 119.758Z" fill="white" stroke="black"/>
<path d="M141.89 120.259C142.138 120.259 142.385 120.259 142.633 120.009C144.119 119.51 144.862 118.013 144.367 116.766L142.633 111.526C142.385 110.279 140.9 109.53 139.414 110.029C137.928 110.528 137.185 112.025 137.68 113.273L139.414 118.512C139.661 119.51 140.9 120.259 141.89 120.259Z" fill="#DF846A"/>
<path d="M141.89 121.756C142.386 121.756 142.633 121.756 143.129 121.506C145.11 120.758 146.348 118.512 145.605 116.516L143.872 111.277C143.129 109.281 140.9 108.033 138.919 108.782C136.937 109.53 135.699 111.776 136.442 113.772L138.176 119.011C138.671 120.508 140.157 121.756 141.89 121.756ZM140.157 111.277C140.405 111.277 140.652 111.277 140.652 111.526C140.9 111.776 141.147 112.025 141.395 112.275L143.129 117.514C143.376 118.263 142.881 119.011 142.386 119.011C141.643 119.261 140.9 118.762 140.9 118.263L139.166 113.023C138.919 112.275 139.414 111.526 139.909 111.526C139.909 111.277 140.157 111.277 140.157 111.277Z" fill="black"/>
<path d="M104.247 50.8995C104.247 55.1409 114.896 56.1388 118.858 56.1388C122.821 56.1388 128.765 42.9157 128.765 38.6743C128.765 34.4329 124.307 35.6804 120.344 35.6804C116.382 35.6804 104.247 46.6581 104.247 50.8995Z" fill="#DF846A"/>
<path d="M109.447 210.076C111.676 210.076 113.905 208.828 115.143 206.832C115.639 206.084 125.297 189.867 128.517 183.38C131.241 177.891 132.727 165.666 134.956 145.956C135.451 141.715 135.947 137.473 136.442 133.482C136.937 129.989 134.461 126.496 130.746 126.246C127.279 125.747 123.811 128.242 123.564 131.985C123.068 135.977 122.573 140.218 122.078 144.459C120.592 156.684 118.611 173.65 116.877 177.642C113.905 183.63 104.246 199.847 104.246 200.096C102.265 203.09 103.256 207.331 106.475 209.078C106.971 209.826 108.209 210.076 109.447 210.076Z" fill="#111111"/>
<path d="M119.107 229.786C119.107 229.786 119.107 229.536 119.107 229.786C122.822 230.784 125.794 229.037 125.546 225.545C125.546 224.048 124.803 191.115 122.327 176.893C119.85 162.423 109.696 135.228 109.448 133.981C108.21 130.488 104.495 128.741 101.028 130.238C97.5608 131.486 95.8272 135.228 97.3132 138.721C97.3132 138.971 107.467 165.916 109.696 179.139C111.925 192.611 112.668 223.798 112.668 224.048C112.668 227.291 115.392 228.538 119.107 229.786Z" fill="#111111"/>
<path d="M100.284 102.794C90.625 115.019 89.6343 142.214 89.6343 171.654C89.6343 180.137 107.218 173.4 121.334 163.92C133.47 155.936 142.138 147.703 142.138 140.467C142.138 109.281 129.507 103.293 129.507 87.5747C129.507 72.1062 136.689 69.8608 136.689 58.6336C136.689 52.3963 135.203 45.161 134.213 40.1711C133.47 36.9277 129.755 35.1812 126.783 36.9277C126.783 36.9277 128.764 47.9054 120.344 52.8952C111.676 57.8851 103.008 51.3983 103.008 51.3983C98.3024 53.3942 95.3305 58.8831 95.3305 58.8831C97.807 69.3618 106.723 94.81 100.284 102.794Z" fill="#AEC6F7" stroke="#111111" stroke-miterlimit="10"/>
<path d="M124.467 109.154L124.464 109.152C123.703 108.459 122.955 107.783 122.224 107.121C119.275 104.453 116.582 102.017 114.29 99.6827C111.429 96.7694 109.156 93.9792 107.758 91.0368C107.044 89.5968 106.509 87.5119 106.105 85.0964C105.699 82.6685 105.419 79.8669 105.232 76.9726C104.86 71.1833 104.86 64.9922 104.984 60.6157L104.984 60.6021L104.985 60.5886C105.21 57.8747 103.199 55.641 100.53 55.641C98.0059 55.641 95.582 57.4838 95.582 60.1308V60.1556L95.5796 60.1802C95.4586 61.3989 95.149 67.7985 95.4886 75.1084C95.6583 78.7609 95.9897 82.6302 96.5851 86.1866C97.1818 89.7501 98.0382 92.9664 99.2425 95.332L99.2448 95.3365C101.559 99.999 105.719 104.691 109.61 108.486C112.524 111.329 115.246 113.631 116.911 115.04C117.471 115.513 117.912 115.886 118.2 116.144L118.232 116.172L118.258 116.205C119.115 117.284 120.171 117.513 121.334 117.513C122.673 117.513 123.783 117.077 124.931 115.925C126.714 113.893 126.495 110.97 124.467 109.154Z" fill="white" stroke="black"/>
<path d="M103.256 50.8995C103.256 50.8995 108.952 43.1652 109.447 36.9279C110.19 30.6905 108.456 21.9583 107.961 17.2179C107.466 12.4776 106.475 4.49378 117.372 3.24631C128.764 2.24834 133.222 7.98668 133.47 15.721C133.47 23.4552 130.25 32.437 127.278 35.9299C124.306 39.4228 118.61 39.6723 118.61 39.6723L103.256 50.8995Z" fill="#DF846A"/>
<path d="M134.212 15.4715C129.012 22.7068 120.096 18.9644 120.096 18.9644C117.372 26.9481 114.152 54.6419 108.456 58.1348C100.283 62.8751 94.0919 52.1469 94.0919 52.1469C94.0919 52.1469 103.503 47.9055 104.246 32.437C104.989 16.9684 100.779 12.2281 108.208 3.49581C111.923 -0.745567 119.353 -0.246581 122.82 0.501898C134.46 2.74733 136.194 12.7271 134.212 15.4715Z" fill="black"/>
<path d="M100.04 136.044L100.04 136.044L84.6862 127.063C84.6859 127.063 84.6856 127.062 84.6853 127.062C81.8822 125.415 80.279 122.142 81.199 118.898L81.2037 118.882L81.2072 118.865L83.6836 107.139L100.04 136.044ZM100.04 136.044L100.046 136.048M100.04 136.044L100.046 136.048M100.046 136.048C103.451 138.106 108.039 136.053 108.959 132.123M100.046 136.048L108.959 132.123M108.959 132.123C108.959 132.122 108.959 132.121 108.959 132.121M108.959 132.123L108.959 132.121M108.959 132.121L111.186 122.151C111.186 122.15 111.186 122.149 111.187 122.148C111.885 118.86 110.487 115.336 107.457 113.453L90.8765 103.979C87.935 102.388 84.3534 103.993 83.6838 107.139L108.959 132.121Z" fill="white" stroke="black"/>
<path d="M99.7899 136.475C103.505 138.721 108.458 136.475 109.449 132.234L111.677 122.254C112.42 118.761 99.7899 136.475 99.7899 136.475Z" fill="white"/>
<path d="M97.3119 123.502C98.3025 123.502 99.5408 123.252 100.531 123.003C103.999 121.755 107.218 118.013 108.704 113.522L106.228 112.774C104.989 116.516 102.513 119.51 99.5408 120.508C97.5595 121.256 95.5783 121.007 93.3493 119.76C88.1485 116.766 87.4056 112.025 90.6251 103.543L88.1485 102.545C85.672 109.031 83.6907 117.265 91.8634 122.254C93.8447 123.252 95.5783 123.502 97.3119 123.502Z" fill="black"/>
<path d="M88.1489 79.8406C90.3778 66.368 92.1114 54.6418 96.5693 51.8974C97.8076 51.1489 99.0458 51.1489 100.284 51.6479C107.714 54.6418 111.429 78.3437 112.667 97.8041C112.667 99.0516 109.943 96.3072 109.695 94.5607C108.209 76.3477 104.494 56.1388 99.2935 54.1429C98.7982 53.8934 98.3029 53.8934 97.8076 54.1429C94.3404 56.1388 92.3591 68.8629 90.6255 80.0901C89.1396 89.5709 87.6536 99.5506 84.9294 105.538L82.4528 104.54C85.177 98.8021 86.663 89.3214 88.1489 79.8406Z" fill="black"/>
<path d="M110.934 111.027C110.934 109.53 113.41 112.524 113.41 114.021C113.41 116.516 113.163 118.762 113.163 120.508L110.686 120.259C110.934 117.764 110.934 114.77 110.934 111.027Z" fill="black"/>
<path d="M129.013 123.003C129.756 123.003 130.499 122.754 130.994 122.005C131.985 120.758 131.737 119.261 130.499 118.263L127.279 114.52C127.279 114.52 131.242 114.021 130.499 112.524C129.756 111.027 124.307 109.78 120.84 113.772C119.85 114.77 119.354 117.265 120.345 118.263L127.279 122.255C127.775 122.754 128.518 123.003 129.013 123.003Z" fill="#DF846A"/>
<path d="M129.013 124.25C130.251 124.25 131.49 123.751 132.233 122.753C132.975 122.005 133.223 120.757 132.975 119.76C132.975 118.762 132.233 117.764 131.49 117.015L130.004 115.269C130.994 115.019 131.737 114.52 131.985 113.772C132.233 113.273 132.233 112.524 131.985 111.776C131.49 110.778 130.004 110.029 128.022 109.78C126.536 109.53 123.069 109.53 120.097 112.524C119.107 113.522 118.611 115.019 118.611 116.516C118.611 117.514 119.107 118.263 119.85 119.011L126.784 123.252C127.032 124.001 128.022 124.25 129.013 124.25ZM128.518 113.023C128.022 113.273 127.527 113.273 127.032 113.273C126.536 113.273 126.041 113.772 126.041 114.271C125.793 114.77 126.041 115.269 126.289 115.518L129.508 119.261C130.004 119.51 130.004 120.009 130.251 120.259C130.251 120.508 130.251 121.007 130.004 121.256C129.756 121.506 129.508 121.755 129.013 121.755C128.765 121.755 128.518 121.755 128.27 121.506L121.088 117.015C121.088 117.015 121.088 117.015 121.088 116.766C121.088 116.017 121.336 115.269 121.831 114.77C123.565 112.774 125.793 112.524 127.032 112.774C127.527 112.774 128.27 112.774 128.518 113.023Z" fill="black"/>
<path d="M145.852 108.735L141.833 136.054L122.178 129.136L126.196 101.861L145.852 108.735Z" fill="#AEC6F7" stroke="#161515" stroke-width="0.5" stroke-miterlimit="10"/>
<path d="M145.852 108.735L150.177 105.013L146.333 132.157L141.834 136.054L145.852 108.735Z" fill="black" stroke="#161515" stroke-width="0.5" stroke-miterlimit="10"/>
<path d="M126.196 101.861L130.695 97.9646L150.176 105.013L145.852 108.735L126.196 101.861Z" fill="#AEC6F7" stroke="#161515" stroke-width="0.5" stroke-miterlimit="10"/>
<path d="M130.127 98.49L126.895 101.248L145.72 107.947L148.69 105.232L130.127 98.49Z" fill="white" stroke="#161515" stroke-width="0.5" stroke-miterlimit="10"/>
<path d="M111 121.5C111.5 119 110 134.5 106 136.5C102 138.5 95.0004 133 99.5004 136" stroke="black" stroke-linecap="round" stroke-linejoin="round"/>
</svg>
