<svg width="385" height="256" viewBox="0 0 385 256" fill="none" xmlns="http://www.w3.org/2000/svg">
<g clip-path="url(#clip0)">
<path d="M253.214 241.396L325.731 199.472L253.214 157.478L180.697 199.472L253.214 241.396Z" fill="white" stroke="#161515" stroke-miterlimit="10"/>
<path d="M325.731 199.472V115.553L253.214 73.6289V157.478L325.731 199.472Z" fill="black" stroke="#161515" stroke-miterlimit="10"/>
<path d="M180.698 199.472V115.553L253.215 73.6289V157.478L180.698 199.472Z" fill="#AEC6F7" stroke="#161515" stroke-miterlimit="10"/>
<path d="M257.537 117.37V179.837L230.204 195.629V132.603L257.537 117.37Z" fill="#AEC6F7" stroke="#161515" stroke-miterlimit="10"/>
<path d="M257.537 117.37L243.87 109.055L216.537 124.777V187.733L230.204 195.629V132.603L257.537 117.37Z" fill="#AEC6F7" stroke="#161515" stroke-miterlimit="10"/>
<path d="M230.204 132.603L216.537 124.777L243.87 109.055L257.537 117.37L230.204 132.603Z" fill="white" stroke="#161515" stroke-miterlimit="10"/>
<path d="M229.786 148.184L216.537 140.498V148.184L230.204 156.499L229.786 148.184Z" fill="black" stroke="#161515" stroke-miterlimit="10"/>
<path d="M245.684 110.383L219.048 125.965L216.956 124.777L243.871 109.265L245.684 110.383Z" fill="#AEC6F7"/>
<path d="M271.135 139.38V189.829L243.801 202.616V151.678L271.135 139.38Z" fill="black" stroke="#161515" stroke-miterlimit="10"/>
<path d="M271.135 139.38L257.468 132.603L230.204 145.32V196.258L243.801 202.616V151.678L271.135 139.38Z" fill="black" stroke="#161515" stroke-miterlimit="10"/>
<path d="M243.801 151.678L230.204 145.32L257.468 132.603L271.135 139.38L243.801 151.678Z" fill="white" stroke="#161515" stroke-miterlimit="10"/>
<path d="M243.383 164.255L230.205 158.037V164.255L243.802 170.963L243.383 164.255Z" fill="#AEC6F7" stroke="#161515" stroke-miterlimit="10"/>
<path d="M259.281 133.72L232.645 146.298L230.553 145.32L257.468 132.812L259.281 133.72Z" fill="black" stroke="#161515" stroke-miterlimit="10"/>
<path d="M189.483 170.265L195.898 213.866L227.275 202.826L220.86 159.294L189.483 170.265Z" fill="#AEC6F7" stroke="#161515" stroke-miterlimit="10"/>
<path d="M189.483 170.265L182.579 164.325L188.715 207.647L195.897 213.866L189.483 170.265Z" fill="#AEC6F7" stroke="#161515" stroke-miterlimit="10"/>
<path d="M220.86 159.294L213.678 153.076L182.58 164.325L189.483 170.265L220.86 159.294Z" fill="#AEC6F7" stroke="#161515" stroke-miterlimit="10"/>
<path d="M214.585 153.914L219.745 158.316L189.692 169.007L184.951 164.675L214.585 153.914Z" fill="white" stroke="#161515" stroke-miterlimit="10"/>
<path d="M260.466 231.754L222.464 209.743L209.843 217.08L247.845 239.09L260.466 231.754Z" fill="black" stroke="#161515" stroke-miterlimit="10"/>
<path d="M247.845 239.091V229.308L273.156 214.705V224.417L247.845 239.091Z" fill="black" stroke="#161515" stroke-miterlimit="10"/>
<path d="M247.845 228.959L209.843 206.948V217.08L247.845 239.091V228.959Z" fill="#AEC6F7" stroke="#161515" stroke-miterlimit="10"/>
<path d="M273.156 214.006L235.155 191.995L209.843 206.669L247.845 228.679L273.156 214.006Z" fill="white" stroke="#161515" stroke-miterlimit="10"/>
<path d="M222.464 214.146V224.417L228.81 228.05V217.849L222.464 214.146Z" fill="white" stroke="#161515" stroke-miterlimit="10"/>
<path d="M249.101 214.704L223.65 199.961L215.143 204.852L240.664 219.596L249.101 214.704Z" fill="black" stroke="#161515" stroke-miterlimit="10"/>
<path d="M240.664 219.596V212.678L257.607 202.896V209.813L240.664 219.596Z" fill="#AEC6F7" stroke="#161515" stroke-miterlimit="10"/>
<path d="M240.663 212.958L215.143 198.214V204.852L240.663 219.596V212.958Z" fill="#AEC6F7" stroke="#161515" stroke-miterlimit="10"/>
<path d="M257.607 203.036L232.157 188.292L215.143 198.074L240.664 212.818L257.607 203.036Z" fill="white" stroke="#161515" stroke-miterlimit="10"/>
<path d="M223.65 203.315V209.813L227.903 212.259V205.761L223.65 203.315Z" fill="white" stroke="#161515" stroke-miterlimit="10"/>
<path d="M325.731 115.553V199.472L253.214 241.396V157.478L325.731 115.553Z" fill="#AEC6F7" stroke="#161515" stroke-miterlimit="10"/>
<path d="M336.145 125.359L384.501 209.287L311.979 251.247L263.623 167.318L336.145 125.359Z" fill="#AEC6F7" stroke="#161515" stroke-miterlimit="10"/>
<path d="M311.995 251.179L304.534 255.511L258.165 169.985L263.674 167.33L311.995 251.179Z" fill="black" stroke="#161515" stroke-miterlimit="10"/>
<path d="M359.479 208.975C359.479 208.975 349.229 217.43 339.328 206.739C332.006 198.843 326.289 194.511 324.545 193.463C324.266 193.253 324.057 191.017 324.197 190.738L329.426 186.056C329.426 186.056 338.979 191.297 339.258 191.716C339.537 192.135 343.86 199.053 347.625 200.52C351.391 201.987 353.552 199.192 355.086 196.188C356.62 193.183 358.991 194.721 358.991 194.721L360.943 205.691L360.804 206.25C360.595 207.298 360.107 208.206 359.479 208.975Z" fill="#14100D"/>
<path d="M347.486 211.91L347.626 200.52C347.696 200.52 347.696 200.59 347.765 200.59C351.531 202.057 353.692 199.262 355.226 196.258C356.76 193.253 359.131 194.79 359.131 194.79L361.014 205.761L360.874 206.32C360.665 207.368 360.177 208.346 359.549 209.045C359.549 209.045 354.18 213.447 347.486 211.91Z" fill="#14100D"/>
<path d="M324.197 193.603C324.267 193.672 324.267 193.672 324.337 193.742C325.871 194.721 331.588 198.913 339.049 206.948C349.02 217.709 359.549 209.254 359.619 209.184C360.316 208.416 360.804 207.438 361.083 206.32L361.223 205.621L359.27 194.511L359.131 194.441C359.061 194.441 358.085 193.812 356.9 194.092C356.063 194.301 355.366 195 354.808 196.048C353.343 198.913 351.391 201.638 347.765 200.241C346.231 199.612 343.581 197.725 339.677 191.856C339.607 191.716 339.537 191.576 339.468 191.576C339.189 191.157 332.425 187.454 329.496 185.847L329.287 185.707L323.849 190.598C323.639 190.947 323.779 192.554 323.918 193.044C324.058 193.323 324.127 193.463 324.197 193.603ZM359.27 208.765C358.643 209.254 349.02 216.801 339.537 206.599C332.076 198.564 326.359 194.301 324.755 193.253C324.616 192.974 324.406 191.367 324.476 190.947L329.496 186.475C333.053 188.432 338.701 191.576 339.049 191.926C339.049 191.926 339.119 192.065 339.189 192.205C343.163 198.214 345.952 200.241 347.556 200.869C351.67 202.477 353.901 199.332 355.366 196.398C355.854 195.489 356.411 194.93 357.039 194.79C357.736 194.581 358.434 194.86 358.643 195L360.595 205.691L360.525 206.18C360.316 207.158 359.898 208.066 359.27 208.765Z" fill="#15110E"/>
<path d="M360.316 207.647C364.709 198.074 336.329 192.275 327.753 194.441C327.753 194.441 327.753 194.441 327.683 194.441C325.591 194.79 323.29 192.974 322.802 190.668L321.965 186.755C321.965 186.755 342.953 174.247 356.55 185.777C366.8 194.511 360.316 207.647 360.316 207.647Z" fill="#AEC6F7" stroke="#161515" stroke-miterlimit="10"/>
<path d="M354.459 187.314C360.107 192.135 360.665 198.284 360.037 202.826C355.435 196.188 335.005 192.554 327.893 194.301C327.893 194.301 327.893 194.301 327.823 194.301C325.731 194.651 323.43 192.834 322.942 190.528L322.245 187.034C328.102 184.17 343.651 178.091 354.459 187.314Z" fill="white"/>
<path d="M323.43 192.834C324.476 194.231 326.149 195.07 327.753 194.79H327.823C335.005 193.044 354.18 196.607 359.27 202.686C360.525 204.223 360.804 205.9 360.037 207.577L360.595 207.857C360.665 207.717 367.08 194.371 356.76 185.567C343.163 173.968 322.035 186.336 321.826 186.475L321.617 186.615L322.454 190.738C322.663 191.506 323.012 192.205 323.43 192.834ZM359.967 202.616C359.898 202.477 359.828 202.407 359.688 202.267C354.529 195.978 334.935 192.345 327.614 194.162C325.661 194.511 323.5 192.834 323.081 190.598L322.314 186.895C324.476 185.707 343.791 175.296 356.342 186.056C363.524 192.205 362.268 200.66 361.013 204.922C360.874 204.084 360.525 203.315 359.967 202.616Z" fill="#15110E"/>
<path d="M314.922 147.486C314.922 147.486 303.348 155.312 310.181 167.26C315.201 176.064 317.433 182.562 317.851 184.519C317.921 184.868 320.013 185.567 320.291 185.427L326.497 181.514C326.497 181.514 323.987 173.129 323.708 172.78C323.429 172.431 319.036 164.675 318.897 160.762C318.757 156.779 322.174 155.381 325.521 154.613C328.868 153.844 328.24 151.259 328.24 151.259L318.479 146.857H317.921C316.875 146.717 315.829 146.997 314.922 147.486Z" fill="#130F0C"/>
<path d="M318.897 160.762C318.967 162.648 318.479 161.6 319.594 163.976L308.298 162.299C307.183 152.307 314.853 147.486 314.853 147.486C315.759 146.997 316.805 146.787 317.921 146.787H318.479L328.24 151.189C328.24 151.189 328.868 153.774 325.521 154.543C322.174 155.381 318.757 156.779 318.897 160.762Z" fill="#14100D"/>
<path d="M317.642 184.729C317.712 184.798 317.851 184.938 317.991 185.008C318.479 185.288 320.013 185.847 320.431 185.707H320.501L326.916 181.654L326.846 181.444C326.288 179.488 324.336 172.99 324.057 172.57C323.778 172.221 319.455 164.605 319.316 160.692C319.176 156.849 322.453 155.591 325.731 154.892C326.986 154.613 327.822 154.054 328.31 153.285C328.938 152.237 328.729 151.189 328.659 151.119L328.589 150.979L318.549 146.507H317.991C316.875 146.438 315.759 146.717 314.783 147.206C314.644 147.276 303.069 155.381 309.972 167.4C315.132 176.414 317.224 182.842 317.572 184.519C317.572 184.589 317.572 184.659 317.642 184.729ZM320.222 185.148C319.943 185.148 318.409 184.659 318.2 184.379C317.782 182.562 315.62 176.064 310.53 167.12C304.045 155.731 314.644 148.045 315.132 147.765C316.038 147.346 317.015 147.136 317.991 147.136H318.479L328.032 151.469C328.032 151.748 328.101 152.377 327.683 153.006C327.265 153.635 326.567 154.124 325.521 154.333C322.244 155.102 318.479 156.499 318.618 160.762C318.758 164.814 323.22 172.64 323.499 172.99C323.708 173.339 325.242 178.23 326.149 181.444L320.222 185.148Z" fill="#15110E"/>
<path d="M316.457 146.927C327.055 144.97 322.941 173.409 317.991 181.165C317.991 181.165 317.991 181.165 317.991 181.235C316.945 183.121 317.851 185.777 319.943 186.755L323.429 188.432C323.429 188.432 342.465 171.243 336.05 155.591C331.169 143.782 316.457 146.927 316.457 146.927Z" fill="#AEC6F7" stroke="#161515" stroke-miterlimit="10"/>
<path d="M332.773 158.037C337.654 169.915 327.892 182.632 322.872 188.152L320.013 186.755C317.921 185.707 316.945 183.121 318.061 181.235V181.165C321.965 175.086 325.312 156.22 321.408 149.372C325.661 150.001 330.402 152.237 332.773 158.037Z" fill="white"/>
<path d="M318.13 185.637C318.549 186.196 319.107 186.685 319.804 187.034L323.499 188.851L323.639 188.711C323.848 188.572 342.814 171.173 336.329 155.521C331.448 143.573 316.527 146.577 316.387 146.647L316.527 147.276C318.34 146.927 319.804 147.556 320.85 149.093C324.964 155.172 321.826 174.667 317.782 181.025L317.712 181.095C317.154 182.073 317.084 183.191 317.433 184.309C317.573 184.798 317.851 185.218 318.13 185.637ZM323.36 188.082L320.083 186.475C319.107 185.986 318.34 185.148 317.991 184.03C317.712 183.052 317.782 182.143 318.2 181.305C322.035 175.296 325.8 155.381 321.268 148.604C320.71 147.765 320.013 147.136 319.246 146.787C323.709 146.577 332.215 147.276 335.632 155.591C341.768 170.265 325.173 186.406 323.36 188.082Z" fill="#15110E"/>
<path d="M322.663 193.114L328.938 195.14C331.1 195.839 332.634 197.865 332.634 200.171C332.634 202.337 331.867 205.202 329.008 208.067C323.36 213.796 321.687 219.107 325.243 222.88C325.591 223.229 325.382 223.788 324.964 223.928L318.061 225.954C317.294 226.164 316.457 225.884 315.969 225.325C314.086 222.95 310.181 216.731 314.783 210.722C320.71 203.175 325.8 200.73 322.663 193.114Z" fill="#AEC6F7" stroke="#161515" stroke-miterlimit="10"/>
<path d="M326.219 196.537C328.381 197.236 329.915 199.262 329.915 201.568C329.915 203.734 329.148 206.599 326.289 209.464C320.641 215.194 318.968 220.504 322.524 224.277C322.663 224.417 322.663 224.557 322.663 224.627L317.852 226.024C317.085 226.234 316.248 225.954 315.76 225.395C313.878 223.02 309.973 216.801 314.575 210.792C319.804 204.014 324.337 201.359 323.151 195.559L326.219 196.537Z" fill="white"/>
<path d="M316.039 225.884C316.597 226.373 317.434 226.583 318.201 226.373L325.104 224.347C325.452 224.277 325.662 223.998 325.801 223.648C325.871 223.299 325.801 223.02 325.592 222.74C322.315 219.246 323.639 214.146 329.357 208.346C331.798 205.9 333.053 203.175 333.053 200.241C333.053 197.795 331.519 195.699 329.148 194.93L322.245 192.694L322.524 193.323C324.895 198.983 322.524 201.708 318.549 206.11C317.364 207.438 316.039 208.905 314.714 210.652C309.973 216.801 313.947 223.159 315.9 225.605C315.83 225.675 315.969 225.745 316.039 225.884ZM330.682 196.537C331.728 197.446 332.355 198.773 332.355 200.241C332.355 202.966 331.17 205.551 328.869 207.927C322.872 214.006 321.548 219.386 325.104 223.159C325.243 223.299 325.173 223.439 325.173 223.439C325.173 223.579 325.034 223.648 324.895 223.718L317.992 225.745C317.364 225.954 316.667 225.745 316.248 225.186C314.366 222.88 310.6 216.801 315.063 211.001C316.388 209.254 317.713 207.787 318.898 206.529C322.733 202.267 325.243 199.332 323.221 193.742L328.869 195.559C329.566 195.699 330.194 196.048 330.682 196.537Z" fill="#15110E"/>
<path d="M320.152 190.947C320.082 191.017 319.943 191.017 319.943 190.877C319.524 189.829 316.875 184.798 310.181 188.152C302.929 191.786 293.237 185.707 294.631 176.344C294.701 175.855 294.91 175.435 295.189 175.016L299.234 169.496C299.582 169.007 300.349 169.286 300.349 169.845C300.349 173.409 301.046 180.536 306.625 180.047C314.016 179.418 318.967 180.117 320.779 184.379C320.64 184.449 322.732 188.222 320.152 190.947Z" fill="#AEC6F7" stroke="#161515" stroke-miterlimit="10"/>
<path d="M309.902 188.082C302.65 191.716 292.958 185.637 294.353 176.274C294.422 175.785 294.632 175.365 294.911 174.946L297.56 171.313C297.909 170.963 298.606 171.173 298.606 171.732C298.606 175.295 299.303 182.423 304.882 181.933C312.273 181.305 317.223 182.003 319.036 186.266C319.036 186.266 320.222 188.432 319.734 190.668C319.106 189.41 316.456 184.798 309.902 188.082Z" fill="white"/>
<path d="M296.305 184.868C297.003 185.777 297.839 186.615 298.746 187.314C302.232 189.829 306.625 190.249 310.251 188.432C312.552 187.314 314.504 187.034 316.248 187.663C318.409 188.432 319.385 190.458 319.664 191.017C319.734 191.157 319.873 191.227 320.013 191.297C320.152 191.297 320.292 191.297 320.431 191.157C323.22 188.292 320.989 184.309 320.989 184.309C318.827 179.488 312.761 179.278 306.486 179.837C305.091 179.977 303.975 179.628 303.069 178.789C300.838 176.763 300.559 172.361 300.559 169.915C300.559 169.496 300.28 169.147 299.931 169.077C299.583 168.937 299.164 169.077 298.885 169.426L294.841 174.946C294.562 175.365 294.353 175.855 294.283 176.414C293.725 179.488 294.492 182.493 296.305 184.868ZM319.316 189.34C318.688 188.502 317.782 187.593 316.387 187.104C314.504 186.405 312.343 186.685 309.902 187.943C306.486 189.62 302.302 189.2 299.025 186.825C295.748 184.449 294.144 180.536 294.771 176.483C294.841 176.064 294.981 175.645 295.259 175.296L299.304 169.775C299.443 169.636 299.583 169.636 299.652 169.706C299.722 169.706 299.861 169.775 299.861 169.985C299.861 172.501 300.21 177.112 302.581 179.278C303.627 180.257 304.952 180.606 306.486 180.536C314.713 179.837 318.758 181.025 320.361 184.659C320.431 184.798 322.244 188.152 320.083 190.598C319.943 190.249 319.664 189.759 319.316 189.34Z" fill="#15110E"/>
</g>
<path d="M115.222 236.144L115.274 236.189L115.312 236.246C115.327 236.268 115.396 236.339 115.683 236.412C115.909 236.468 116.182 236.507 116.523 236.555C116.599 236.565 116.679 236.577 116.762 236.589C117.632 236.714 118.767 236.91 119.847 237.584C120.699 238.021 121.372 238.854 121.892 239.563C122.02 239.737 122.133 239.897 122.24 240.047C122.37 240.229 122.489 240.397 122.612 240.56C122.826 240.843 122.979 241.011 123.086 241.088C129.192 244.528 132.701 244.444 135.201 243.075C135.666 242.791 135.863 242.409 135.86 241.928C135.857 241.406 135.614 240.724 135.068 239.922C133.982 238.325 131.825 236.438 128.766 234.712L128.737 234.696L128.71 234.676C128.577 234.575 128.475 234.437 128.398 234.312C128.317 234.18 128.241 234.027 128.17 233.861C128.028 233.531 127.889 233.115 127.751 232.654C127.486 231.766 127.216 230.659 126.948 229.568C126.938 229.524 126.927 229.481 126.916 229.437C126.637 228.295 126.362 227.18 126.096 226.32C125.963 225.889 125.837 225.538 125.721 225.288C125.663 225.162 125.613 225.075 125.573 225.019C125.562 225.003 125.553 224.992 125.547 224.985C122.996 223.889 120.457 223.161 118.293 222.859C116.142 222.558 114.456 222.69 113.479 223.197C113.479 223.198 113.478 223.198 113.478 223.199C113.453 223.25 113.422 223.334 113.387 223.457C113.318 223.701 113.251 224.042 113.188 224.461C113.063 225.295 112.964 226.379 112.887 227.482C112.732 229.688 112.671 231.921 112.671 232.281C112.671 232.642 112.863 233.233 113.308 233.951C113.744 234.653 114.391 235.426 115.222 236.144ZM113.496 223.166C113.497 223.164 113.498 223.163 113.498 223.163C113.498 223.163 113.497 223.164 113.496 223.166Z" fill="white" stroke="black"/>
<path d="M109.177 217.364L109.194 217.372L109.211 217.382C115.346 221.091 119.595 221.235 122.085 219.867C122.635 219.565 122.858 219.179 122.883 218.727C122.909 218.231 122.7 217.574 122.183 216.771C121.156 215.174 119.061 213.228 116.119 211.25C113.048 209.511 110.643 206.479 108.718 204.053C108.644 203.959 108.571 203.867 108.498 203.775C107.498 202.516 106.648 201.468 105.888 200.82C105.111 200.157 104.624 200.073 104.24 200.285L104.2 200.306L104.158 200.321C104.16 200.32 104.158 200.321 104.154 200.324C104.134 200.336 104.055 200.383 103.91 200.509C103.75 200.647 103.548 200.845 103.32 201.096C102.863 201.597 102.315 202.292 101.788 203.111C100.725 204.762 99.7932 206.848 99.7932 208.828C99.7932 209.277 99.8476 209.761 100.117 210.33C100.39 210.907 100.898 211.603 101.853 212.445L101.865 212.456L101.877 212.468C102.29 212.885 102.882 213.166 103.618 213.444C103.8 213.513 103.992 213.581 104.19 213.653C104.76 213.857 105.383 214.08 105.957 214.37L106.005 214.394L106.046 214.427C106.614 214.884 107.131 215.44 107.593 215.937C107.663 216.012 107.732 216.086 107.8 216.158C108.338 216.733 108.774 217.161 109.177 217.364Z" fill="white" stroke="black"/>
<path d="M138.67 119.758H138.672H138.673H138.675H138.676H138.678H138.679H138.681H138.682H138.684H138.685H138.687H138.688H138.69H138.691H138.693H138.694H138.696H138.697H138.699H138.7H138.702H138.704H138.705H138.707H138.708H138.71H138.712H138.713H138.715H138.716H138.718H138.72H138.721H138.723H138.724H138.726H138.728H138.729H138.731H138.733H138.734H138.736H138.738H138.739H138.741H138.743H138.744H138.746H138.748H138.75H138.751H138.753H138.755H138.756H138.758H138.76H138.762H138.763H138.765H138.767H138.769H138.77H138.772H138.774H138.776H138.777H138.779H138.781H138.783H138.785H138.786H138.788H138.79H138.792H138.794H138.795H138.797H138.799H138.801H138.803H138.805H138.806H138.808H138.81H138.812H138.814H138.816H138.817H138.819H138.821H138.823H138.825H138.827H138.829H138.831H138.832H138.834H138.836H138.838H138.84H138.842H138.844H138.846H138.848H138.85H138.852H138.854H138.855H138.857H138.859H138.861H138.863H138.865H138.867H138.869H138.871H138.873H138.875H138.877H138.879H138.881H138.883H138.885H138.887H138.889H138.891H138.893H138.895H138.897H138.899H138.901H138.903H138.905H138.907H138.909H138.911H138.913H138.915H138.917H138.919H138.921H138.923H138.925H138.927H138.929H138.931H138.933H138.935H138.937H138.939H138.941H138.943H138.945H138.948H138.95H138.952H138.954H138.956H138.958H138.96H138.962H138.964H138.966H138.968H138.97H138.972H138.975H138.977H138.979H138.981H138.983H138.985H138.987H138.989H138.991H138.993H138.996H138.998H139H139.002H139.004H139.006H139.008H139.01H139.012H139.015H139.017H139.019H139.021H139.023H139.025H139.027H139.029H139.032H139.034H139.036H139.038H139.04H139.042H139.044H139.047H139.049H139.051H139.053H139.055H139.057H139.059H139.062H139.064H139.066H139.068H139.07H139.072H139.075H139.077H139.079H139.081H139.083H139.085H139.087H139.09H139.092H139.094H139.096H139.098H139.1H139.103H139.105H139.107H139.109H139.111H139.113H139.116H139.118H139.12H139.122H139.124H139.126H139.129H139.131H139.133H139.135H139.137H139.14H139.142H139.144H139.146H139.148H139.15H139.153H139.155H139.157H139.159H139.161H139.163H139.166H139.168H139.17H139.172H139.174H139.177H139.179H139.181H139.183H139.185H139.187H139.19H139.192H139.194H139.196H139.198H139.2H139.203H139.205H139.207H139.209H139.211H139.213H139.216H139.218H139.22H139.222H139.224H139.227H139.229H139.231H139.233H139.235H139.237H139.24H139.242H139.244H139.246H139.248H139.25H139.252H139.255H139.257H139.259H139.261H139.263H139.265H139.268H139.27H139.272H139.274H139.276H139.278H139.28H139.283H139.285H139.287H139.289H139.291H139.293H139.295H139.298H139.3H139.302H139.304H139.306H139.308H139.31H139.313H139.315H139.317H139.319H139.321H139.323H139.325H139.327H139.329H139.332H139.334H139.336H139.338H139.34H139.342H139.344H139.346H139.348H139.35H139.353H139.355H139.357H139.359H139.361H139.363H139.365H139.367H139.369H139.371H139.373H139.375H139.378H139.38H139.382H139.384H139.386H139.388H139.39H139.392H139.394H139.396H139.398H139.4H139.402H139.404H139.406H139.408H139.41H139.412H139.414H139.416H139.418H139.42H139.422H139.425H139.427H139.429H139.431H139.433H139.435H139.437H139.439H139.441H139.442H139.444H139.446H139.448H139.45H139.452H139.454H139.456H139.458H139.46H139.462H139.464H139.466H139.468H139.47H139.472H139.474H139.476H139.478H139.48H139.482H139.484H139.485H139.487H139.489H139.491H139.493H139.495H139.497H139.499H139.501H139.503H139.504H139.506H139.508H139.51H139.512H139.514H139.516H139.518H139.519H139.521H139.523H139.525H139.527H139.529H139.53H139.532H139.534H139.536H139.538H139.54H139.541H139.543H139.545H139.547H139.549H139.55H139.552H139.554H139.556H139.557H139.559H139.561H139.563H139.564H139.566H139.568H139.57H139.571H139.573H139.575H139.577H139.578H139.58H139.582H139.583H139.585H139.587H139.589H139.59H139.592H139.594H139.595H139.597H139.599H139.6H139.602H139.604H139.605H139.607H139.608H139.61H139.612H139.613H139.614C142.037 119.29 143.823 116.826 143.379 114.113C142.79 111.273 140.776 106.062 138.822 101.006C138.75 100.82 138.678 100.634 138.606 100.448C137.601 97.8458 136.63 95.3189 135.911 93.2389C135.551 92.199 135.252 91.2635 135.042 90.4817C134.837 89.7171 134.705 89.0572 134.703 88.5813C134.551 83.8434 133.935 67.7679 133.48 55.912C133.192 48.4205 132.97 42.6137 132.97 42.4167C132.97 39.9243 130.931 37.6511 128.471 37.4258C126.068 37.2057 123.806 39.1919 123.568 41.9379C123.572 42.4566 123.702 46.0037 123.884 50.9646C124.01 54.382 124.16 58.4701 124.311 62.7014C124.682 73.1439 125.054 84.445 125.054 88.5729C125.054 89.7967 125.525 91.787 126.285 94.2207C127.039 96.6346 128.056 99.4221 129.108 102.212C129.513 103.286 129.924 104.362 130.326 105.416C130.966 107.093 131.586 108.715 132.128 110.188C133.008 112.579 133.703 114.627 133.96 115.92C134.407 118.173 136.425 119.758 138.67 119.758Z" fill="white" stroke="black"/>
<path d="M141.89 120.259C142.138 120.259 142.385 120.259 142.633 120.009C144.119 119.51 144.862 118.013 144.367 116.766L142.633 111.526C142.385 110.279 140.9 109.53 139.414 110.029C137.928 110.528 137.185 112.025 137.68 113.273L139.414 118.512C139.661 119.51 140.9 120.259 141.89 120.259Z" fill="#DF846A"/>
<path d="M141.89 121.756C142.386 121.756 142.633 121.756 143.129 121.506C145.11 120.758 146.348 118.512 145.605 116.516L143.872 111.277C143.129 109.281 140.9 108.033 138.919 108.782C136.937 109.53 135.699 111.776 136.442 113.772L138.176 119.011C138.671 120.508 140.157 121.756 141.89 121.756ZM140.157 111.277C140.405 111.277 140.652 111.277 140.652 111.526C140.9 111.776 141.147 112.025 141.395 112.275L143.129 117.514C143.376 118.263 142.881 119.011 142.386 119.011C141.643 119.261 140.9 118.762 140.9 118.263L139.166 113.023C138.919 112.275 139.414 111.526 139.909 111.526C139.909 111.277 140.157 111.277 140.157 111.277Z" fill="black"/>
<path d="M104.247 50.8995C104.247 55.1409 114.896 56.1388 118.858 56.1388C122.821 56.1388 128.765 42.9157 128.765 38.6743C128.765 34.4329 124.307 35.6804 120.344 35.6804C116.382 35.6804 104.247 46.6581 104.247 50.8995Z" fill="#DF846A"/>
<path d="M109.447 210.076C111.676 210.076 113.905 208.828 115.143 206.832C115.639 206.084 125.297 189.867 128.517 183.38C131.241 177.891 132.727 165.666 134.956 145.956C135.451 141.715 135.947 137.473 136.442 133.482C136.937 129.989 134.461 126.496 130.746 126.246C127.279 125.747 123.811 128.242 123.564 131.985C123.068 135.977 122.573 140.218 122.078 144.459C120.592 156.684 118.611 173.65 116.877 177.642C113.905 183.63 104.246 199.847 104.246 200.096C102.265 203.09 103.256 207.331 106.475 209.078C106.971 209.826 108.209 210.076 109.447 210.076Z" fill="#111111"/>
<path d="M119.107 229.786C119.107 229.786 119.107 229.536 119.107 229.786C122.822 230.784 125.794 229.037 125.546 225.545C125.546 224.048 124.803 191.115 122.327 176.893C119.85 162.423 109.696 135.228 109.448 133.981C108.21 130.488 104.495 128.741 101.028 130.238C97.5608 131.486 95.8272 135.228 97.3132 138.721C97.3132 138.971 107.467 165.916 109.696 179.139C111.925 192.611 112.668 223.798 112.668 224.048C112.668 227.291 115.392 228.538 119.107 229.786Z" fill="#111111"/>
<path d="M100.284 102.794C90.625 115.019 89.6343 142.214 89.6343 171.654C89.6343 180.137 107.218 173.4 121.334 163.92C133.47 155.936 142.138 147.703 142.138 140.467C142.138 109.281 129.507 103.293 129.507 87.5747C129.507 72.1062 136.689 69.8608 136.689 58.6336C136.689 52.3963 135.203 45.161 134.213 40.1711C133.47 36.9277 129.755 35.1812 126.783 36.9277C126.783 36.9277 128.764 47.9054 120.344 52.8952C111.676 57.8851 103.008 51.3983 103.008 51.3983C98.3024 53.3942 95.3305 58.8831 95.3305 58.8831C97.807 69.3618 106.723 94.81 100.284 102.794Z" fill="#AEC6F7" stroke="#111111" stroke-miterlimit="10"/>
<path d="M124.467 109.154L124.464 109.152C123.703 108.459 122.955 107.783 122.224 107.121C119.275 104.453 116.582 102.017 114.29 99.6827C111.429 96.7694 109.156 93.9792 107.758 91.0368C107.044 89.5968 106.509 87.5119 106.105 85.0964C105.699 82.6685 105.419 79.8669 105.232 76.9726C104.86 71.1833 104.86 64.9922 104.984 60.6157L104.984 60.6021L104.985 60.5886C105.21 57.8747 103.199 55.641 100.53 55.641C98.0059 55.641 95.582 57.4838 95.582 60.1308V60.1556L95.5796 60.1802C95.4586 61.3989 95.149 67.7985 95.4886 75.1084C95.6583 78.7609 95.9897 82.6302 96.5851 86.1866C97.1818 89.7501 98.0382 92.9664 99.2425 95.332L99.2448 95.3365C101.559 99.999 105.719 104.691 109.61 108.486C112.524 111.329 115.246 113.631 116.911 115.04C117.471 115.513 117.912 115.886 118.2 116.144L118.232 116.172L118.258 116.205C119.115 117.284 120.171 117.513 121.334 117.513C122.673 117.513 123.783 117.077 124.931 115.925C126.714 113.893 126.495 110.97 124.467 109.154Z" fill="white" stroke="black"/>
<path d="M103.256 50.8995C103.256 50.8995 108.952 43.1652 109.447 36.9279C110.19 30.6905 108.456 21.9583 107.961 17.2179C107.466 12.4776 106.475 4.49378 117.372 3.24631C128.764 2.24834 133.222 7.98668 133.47 15.721C133.47 23.4552 130.25 32.437 127.278 35.9299C124.306 39.4228 118.61 39.6723 118.61 39.6723L103.256 50.8995Z" fill="#DF846A"/>
<path d="M134.212 15.4715C129.012 22.7068 120.096 18.9644 120.096 18.9644C117.372 26.9481 114.152 54.6419 108.456 58.1348C100.283 62.8751 94.0919 52.1469 94.0919 52.1469C94.0919 52.1469 103.503 47.9055 104.246 32.437C104.989 16.9684 100.779 12.2281 108.208 3.49581C111.923 -0.745567 119.353 -0.246581 122.82 0.501898C134.46 2.74733 136.194 12.7271 134.212 15.4715Z" fill="black"/>
<path d="M100.04 136.044L100.04 136.044L84.6862 127.063C84.6859 127.063 84.6856 127.062 84.6853 127.062C81.8822 125.415 80.279 122.142 81.199 118.898L81.2037 118.882L81.2072 118.865L83.6836 107.139L100.04 136.044ZM100.04 136.044L100.046 136.048M100.04 136.044L100.046 136.048M100.046 136.048C103.451 138.106 108.039 136.053 108.959 132.123M100.046 136.048L108.959 132.123M108.959 132.123C108.959 132.122 108.959 132.121 108.959 132.121M108.959 132.123L108.959 132.121M108.959 132.121L111.186 122.151C111.186 122.15 111.186 122.149 111.187 122.148C111.885 118.86 110.487 115.336 107.457 113.453L90.8765 103.979C87.935 102.388 84.3534 103.993 83.6838 107.139L108.959 132.121Z" fill="white" stroke="black"/>
<path d="M99.7899 136.475C103.505 138.721 108.458 136.475 109.449 132.234L111.677 122.254C112.42 118.761 99.7899 136.475 99.7899 136.475Z" fill="white"/>
<path d="M97.3119 123.502C98.3025 123.502 99.5408 123.252 100.531 123.003C103.999 121.755 107.218 118.013 108.704 113.522L106.228 112.774C104.989 116.516 102.513 119.51 99.5408 120.508C97.5595 121.256 95.5783 121.007 93.3493 119.76C88.1485 116.766 87.4056 112.025 90.6251 103.543L88.1485 102.545C85.672 109.031 83.6907 117.265 91.8634 122.254C93.8447 123.252 95.5783 123.502 97.3119 123.502Z" fill="black"/>
<path d="M88.1489 79.8406C90.3778 66.368 92.1114 54.6418 96.5693 51.8974C97.8076 51.1489 99.0458 51.1489 100.284 51.6479C107.714 54.6418 111.429 78.3437 112.667 97.8041C112.667 99.0516 109.943 96.3072 109.695 94.5607C108.209 76.3477 104.494 56.1388 99.2935 54.1429C98.7982 53.8934 98.3029 53.8934 97.8076 54.1429C94.3404 56.1388 92.3591 68.8629 90.6255 80.0901C89.1396 89.5709 87.6536 99.5506 84.9294 105.538L82.4528 104.54C85.177 98.8021 86.663 89.3214 88.1489 79.8406Z" fill="black"/>
<path d="M110.934 111.027C110.934 109.53 113.41 112.524 113.41 114.021C113.41 116.516 113.163 118.762 113.163 120.508L110.686 120.259C110.934 117.764 110.934 114.77 110.934 111.027Z" fill="black"/>
<path d="M129.013 123.003C129.756 123.003 130.499 122.754 130.994 122.005C131.985 120.758 131.737 119.261 130.499 118.263L127.279 114.52C127.279 114.52 131.242 114.021 130.499 112.524C129.756 111.027 124.307 109.78 120.84 113.772C119.85 114.77 119.354 117.265 120.345 118.263L127.279 122.255C127.775 122.754 128.518 123.003 129.013 123.003Z" fill="#DF846A"/>
<path d="M129.013 124.25C130.251 124.25 131.49 123.751 132.233 122.753C132.975 122.005 133.223 120.757 132.975 119.76C132.975 118.762 132.233 117.764 131.49 117.015L130.004 115.269C130.994 115.019 131.737 114.52 131.985 113.772C132.233 113.273 132.233 112.524 131.985 111.776C131.49 110.778 130.004 110.029 128.022 109.78C126.536 109.53 123.069 109.53 120.097 112.524C119.107 113.522 118.611 115.019 118.611 116.516C118.611 117.514 119.107 118.263 119.85 119.011L126.784 123.252C127.032 124.001 128.022 124.25 129.013 124.25ZM128.518 113.023C128.022 113.273 127.527 113.273 127.032 113.273C126.536 113.273 126.041 113.772 126.041 114.271C125.793 114.77 126.041 115.269 126.289 115.518L129.508 119.261C130.004 119.51 130.004 120.009 130.251 120.259C130.251 120.508 130.251 121.007 130.004 121.256C129.756 121.506 129.508 121.755 129.013 121.755C128.765 121.755 128.518 121.755 128.27 121.506L121.088 117.015C121.088 117.015 121.088 117.015 121.088 116.766C121.088 116.017 121.336 115.269 121.831 114.77C123.565 112.774 125.793 112.524 127.032 112.774C127.527 112.774 128.27 112.774 128.518 113.023Z" fill="black"/>
<path d="M145.852 108.735L141.833 136.054L122.178 129.136L126.196 101.861L145.852 108.735Z" fill="#AEC6F7" stroke="#161515" stroke-width="0.5" stroke-miterlimit="10"/>
<path d="M145.852 108.735L150.177 105.013L146.333 132.157L141.834 136.054L145.852 108.735Z" fill="black" stroke="#161515" stroke-width="0.5" stroke-miterlimit="10"/>
<path d="M126.196 101.861L130.695 97.9646L150.176 105.013L145.852 108.735L126.196 101.861Z" fill="#AEC6F7" stroke="#161515" stroke-width="0.5" stroke-miterlimit="10"/>
<path d="M130.127 98.49L126.895 101.248L145.72 107.947L148.69 105.232L130.127 98.49Z" fill="white" stroke="#161515" stroke-width="0.5" stroke-miterlimit="10"/>
<path d="M111 121.5C111.5 119 110 134.5 106 136.5C102 138.5 95.0004 133 99.5004 136" stroke="black" stroke-linecap="round" stroke-linejoin="round"/>
<defs>
<clipPath id="clip0">
<rect width="205" height="183" fill="white" transform="matrix(-1 0 0 1 385 73)"/>
</clipPath>
</defs>
</svg>
