<svg width="301" height="28" viewBox="0 0 301 28" fill="none" xmlns="http://www.w3.org/2000/svg">
<path d="M1.73766 16.5231C0.921999 16.668 0.378232 17.4467 0.523119 18.2623C0.668007 19.078 1.44668 19.6218 2.26234 19.4769L1.73766 16.5231ZM152.761 2.00167L152.766 0.501678L152.761 2.00167ZM299.857 19.2309C300.537 18.7575 300.704 17.8226 300.231 17.1428L292.516 6.06444C292.043 5.38462 291.108 5.2173 290.428 5.69073C289.748 6.16416 289.581 7.09905 290.054 7.77887L296.912 17.6263L287.064 24.484C286.385 24.9574 286.217 25.8923 286.691 26.5722C287.164 27.252 288.099 27.4193 288.779 26.9459L299.857 19.2309ZM2 18C2.26234 19.4769 2.26261 19.4768 2.26322 19.4767C2.26389 19.4766 2.26484 19.4764 2.26618 19.4762C2.26884 19.4757 2.27288 19.475 2.27831 19.474C2.28915 19.4721 2.3055 19.4692 2.32729 19.4654C2.37087 19.4577 2.43623 19.4462 2.5229 19.4309C2.69624 19.4005 2.95481 19.3552 3.29488 19.2961C3.97503 19.1779 4.98113 19.0044 6.28327 18.7836C8.88757 18.3421 12.6758 17.7112 17.4086 16.9546C26.8745 15.4415 40.1166 13.4258 55.2195 11.4162C85.4439 7.39454 123.051 3.40668 152.757 3.50166L152.766 0.501678C122.848 0.406012 85.0741 4.41731 54.8238 8.44245C39.6893 10.4563 26.4206 12.4759 16.9351 13.9923C12.1921 14.7504 8.39443 15.3829 5.78175 15.8259C4.47539 16.0474 3.46525 16.2215 2.78126 16.3404C2.43926 16.3998 2.1788 16.4454 2.00362 16.4762C1.91603 16.4916 1.84976 16.5033 1.80528 16.5111C1.78304 16.5151 1.76624 16.5181 1.75495 16.5201C1.74931 16.5211 1.74504 16.5218 1.74215 16.5223C1.74071 16.5226 1.73959 16.5228 1.73887 16.5229C1.73809 16.523 1.73766 16.5231 2 18ZM152.757 3.50166C181.594 3.59387 218.073 7.5819 247.384 11.5566C262.031 13.5428 274.872 15.5232 284.05 17.0071C288.639 17.749 292.312 18.3666 294.837 18.7987C296.1 19.0147 297.075 19.1843 297.735 19.2999C298.064 19.3576 298.315 19.4019 298.483 19.4316C298.567 19.4465 298.631 19.4578 298.673 19.4653C298.694 19.4691 298.71 19.4719 298.72 19.4738C298.726 19.4747 298.729 19.4754 298.732 19.4759C298.733 19.4761 298.734 19.4763 298.735 19.4764C298.735 19.4765 298.736 19.4765 299 18C299.264 16.5235 299.264 16.5234 299.263 16.5233C299.262 16.5231 299.261 16.5229 299.26 16.5227C299.257 16.5222 299.253 16.5214 299.247 16.5205C299.237 16.5185 299.22 16.5156 299.199 16.5118C299.156 16.5041 299.091 16.4927 299.006 16.4776C298.837 16.4475 298.584 16.403 298.252 16.3449C297.589 16.2287 296.61 16.0584 295.343 15.8417C292.81 15.4082 289.128 14.789 284.529 14.0455C275.332 12.5586 262.465 10.5741 247.788 8.58384C218.45 4.60569 181.81 0.594548 152.766 0.501678L152.757 3.50166Z" fill="black"/>
</svg>
