<svg width="240" height="627" viewBox="0 0 240 627" fill="none" xmlns="http://www.w3.org/2000/svg">
<path d="M74.0635 490.273V540.481C78.9614 544.366 94.9911 556.321 118.59 556.769C143.971 557.217 161.188 544.217 165.789 540.481C165.789 524.044 165.789 507.756 165.789 491.319L74.0635 490.273Z" fill="#111111"/>
<path d="M46.6055 346.374L12.1714 399.869C0.742808 417.502 3.41442 440.813 18.5536 455.307C39.6296 475.48 74.6575 499.09 123.043 498.492C168.016 498.044 200.965 477.124 222.19 457.25C240.891 439.767 244.602 411.525 231.986 389.111L202.895 337.707L46.6055 346.374Z" fill="#AEC6F7" stroke="#111111" stroke-miterlimit="10"/>
<path d="M73.3216 232.211L37.2548 298.258C28.4978 314.397 32.2084 334.719 46.6054 346.374C63.8225 360.271 90.5386 374.765 125.418 373.122C161.485 371.329 187.162 353.248 202.746 337.707C214.472 326.052 216.55 307.672 208.387 293.178L175.585 234.901L73.3216 232.211Z" fill="#111111"/>
<path d="M122.895 45.8744L64.4163 180.509C56.8468 197.992 59.9636 218.613 73.3217 232.211C86.3829 245.361 103.897 253.579 122.895 254.326C142.635 255.074 161.485 247.752 175.734 234.751C191.021 220.705 194.732 197.693 185.826 178.865L122.895 45.8744Z" fill="#AEC6F7" stroke="#111111" stroke-miterlimit="10"/>
<path d="M130.61 15.7611L130.611 15.7629C130.982 16.5115 131.56 16.8921 132.272 17.0714L132.296 17.0774L132.32 17.081L148.35 19.4719L148.362 19.4736L148.374 19.4748C148.884 19.5262 149.259 19.8828 149.414 20.3631C149.569 20.8465 149.477 21.3895 149.11 21.7609C149.109 21.7616 149.109 21.7623 149.108 21.763L137.536 33.1149L137.536 33.1149L137.531 33.1195C136.96 33.6948 136.792 34.4416 136.792 35.1156V35.1571L136.799 35.198L139.471 51.1868L139.472 51.1943L139.473 51.2018C139.688 52.28 138.498 53.1483 137.536 52.6106L137.536 52.6105L137.528 52.606L123.279 44.9852L123.279 44.9851L123.268 44.9795C122.567 44.6265 121.784 44.587 121.155 44.9961L106.926 52.606L106.926 52.606L106.918 52.6106C105.957 53.1483 104.767 52.28 104.981 51.2018L104.983 51.1943L104.984 51.1868L107.652 35.2157C107.849 34.3835 107.423 33.623 106.923 33.1195L106.923 33.1195L106.919 33.1149L95.3463 21.763C95.3456 21.7623 95.345 21.7616 95.3443 21.7609C94.9771 21.3896 94.8855 20.8465 95.0409 20.3631C95.1952 19.8828 95.5701 19.5262 96.0806 19.4748L96.0925 19.4736L96.1043 19.4719L112.134 17.081L112.158 17.0774L112.182 17.0714C112.895 16.8921 113.472 16.5115 113.844 15.7629L113.845 15.7611L120.963 1.27794C121.517 0.290493 122.937 0.290493 123.491 1.27793L130.61 15.7611Z" fill="white" stroke="black"/>
<path d="M129.277 545.263V579.631L158.665 596.666C158.665 596.666 158.814 596.666 158.814 596.517V562.447L129.277 545.263Z" fill="#AEC6F7" stroke="#111111" stroke-miterlimit="10"/>
<path d="M158.665 596.965H158.517L128.98 579.781V544.964L158.962 562.447V596.666C158.962 596.816 158.962 596.965 158.813 596.965C158.665 596.816 158.665 596.965 158.665 596.965ZM129.426 579.482L158.517 596.367V562.597L129.426 545.711V579.482V579.482Z" fill="#15110E"/>
<path d="M188.201 545.263V579.631L158.813 596.666C158.813 596.666 158.665 596.666 158.665 596.517V562.447L188.201 545.263Z" fill="#14100D"/>
<path d="M158.813 596.965H158.665C158.517 596.965 158.517 596.816 158.517 596.666V562.447H158.665L188.498 545.114V579.781L158.962 596.965C158.962 596.816 158.813 596.965 158.813 596.965ZM158.962 562.597V596.367L188.053 579.482V545.711L158.962 562.597Z" fill="#15110E"/>
<path d="M190.279 540.481L158.665 558.861L127.051 540.481V540.332L158.665 521.952L190.131 540.332C190.279 540.332 190.279 540.481 190.279 540.481Z" fill="#AEC6F7" stroke="#111111" stroke-miterlimit="10"/>
<path d="M190.427 543.171L158.813 561.551L127.199 543.171V543.022L158.813 524.642L190.279 543.022C190.427 543.022 190.427 543.171 190.427 543.171Z" fill="white"/>
<path d="M158.665 559.16L126.902 540.78C126.754 540.78 126.754 540.631 126.754 540.481C126.754 540.332 126.754 540.332 126.902 540.182L158.665 521.803H158.813L190.279 540.182C190.427 540.182 190.427 540.332 190.427 540.481C190.427 540.631 190.427 540.78 190.279 540.78L158.665 559.16ZM127.496 540.332L158.665 558.413L189.834 540.332L158.665 522.251L127.496 540.332Z" fill="#15110E"/>
<path d="M127.051 540.481V550.194L158.813 568.574V558.861L127.051 540.481Z" fill="#AEC6F7" stroke="#111111" stroke-miterlimit="10"/>
<path d="M158.962 569.022L126.754 550.344V540.481C126.754 540.332 126.754 540.332 126.902 540.182C127.051 540.182 127.051 540.182 127.199 540.182L158.962 558.562V569.022ZM127.199 550.045L158.368 568.126V558.861L127.199 540.78V550.045Z" fill="#15110E"/>
<path d="M190.428 540.631V550.194L158.665 568.574V558.861L190.131 540.481C190.279 540.481 190.428 540.481 190.428 540.631Z" fill="#14100D"/>
<path d="M158.517 569.022V558.711H158.665L190.131 540.332C190.279 540.332 190.428 540.332 190.428 540.332C190.576 540.332 190.576 540.481 190.576 540.631V550.343H190.428L158.517 569.022ZM158.962 559.01V568.275L190.131 550.194V540.929L158.962 559.01Z" fill="#15110E"/>
<path d="M146.94 552.137L178.851 533.757L171.281 529.424L139.667 547.803L146.94 552.137Z" fill="#AEC6F7" stroke="#111111" stroke-miterlimit="10"/>
<path d="M139.221 557.217L146.493 561.551V589.643L139.221 585.31" fill="#AEC6F7"/>
<path d="M139.221 557.217L146.493 561.551V589.643L139.221 585.31" stroke="#111111" stroke-miterlimit="10"/>
<path d="M140.26 586.206V558.114L147.681 562.447V590.54L140.26 586.206Z" fill="white"/>
<path d="M139.964 557.367V547.953L147.385 552.286V561.551L139.964 557.367Z" fill="white"/>
<path d="M170.39 552.137L138.628 533.757L146.049 529.424L177.812 547.803L170.39 552.137Z" fill="#AEC6F7" stroke="#111111" stroke-miterlimit="10"/>
<path d="M128.831 524.791C128.831 524.791 128.386 535.401 139.666 536.596C148.126 537.493 153.618 539.136 155.102 539.734C155.399 539.884 156.883 538.838 157.032 538.688L157.477 533.159C157.477 533.159 149.611 529.573 149.314 529.573C148.869 529.573 142.486 530.171 139.815 528.378C137.143 526.734 137.885 523.895 139.073 521.653C140.26 519.262 138.182 518.515 138.182 518.515L130.316 522.4L130.019 522.699C129.277 523.297 128.98 524.044 128.831 524.791Z" fill="#AEC6F7" stroke="#111111" stroke-miterlimit="10"/>
<path d="M132.542 533.757L139.667 528.378C139.667 528.378 139.667 528.378 139.518 528.378C136.847 526.734 137.589 523.895 138.776 521.653C139.964 519.262 137.886 518.515 137.886 518.515L130.019 522.4L129.722 522.699C129.129 523.297 128.832 524.044 128.683 524.791C128.683 524.791 128.387 530.32 132.542 533.757Z" fill="#14100D"/>
<path d="M155.102 540.033C155.102 540.033 154.954 540.033 155.102 540.033C153.618 539.435 148.275 537.792 139.666 536.895C128.089 535.7 128.534 524.941 128.534 524.791C128.683 524.044 129.128 523.148 129.722 522.55L130.167 522.102L138.034 518.067H138.182C138.182 518.067 139.073 518.366 139.518 519.263C139.815 519.86 139.666 520.607 139.221 521.504C138.034 523.745 137.291 526.286 139.963 527.929C141.002 528.677 143.525 529.424 149.017 529.125C149.165 529.125 149.314 529.125 149.314 529.125C149.759 529.125 155.251 531.665 157.625 532.711H157.774L157.18 538.539C157.032 538.838 155.993 539.435 155.696 539.585C155.399 539.884 155.251 540.033 155.102 540.033ZM128.98 524.791C128.98 525.389 128.683 535.102 139.666 536.297C148.275 537.194 153.618 538.838 155.102 539.435C155.399 539.435 156.438 538.688 156.586 538.539L157.032 533.159C154.063 531.815 149.462 529.723 149.017 529.573C149.017 529.573 148.868 529.573 148.72 529.573C143.08 529.872 140.408 529.125 139.369 528.378C136.401 526.585 137.291 523.596 138.479 521.205C138.776 520.458 138.924 519.86 138.776 519.412C138.627 518.814 138.034 518.515 137.885 518.515L130.167 522.401L129.87 522.699C129.573 523.447 129.128 524.044 128.98 524.791Z" fill="#15110E"/>
<path d="M129.129 523.596C133.136 516.274 150.057 531.665 152.877 538.091C153.619 539.585 155.845 540.183 157.626 539.435L160.446 538.091C160.446 538.091 158.517 518.815 144.713 515.527C134.472 513.286 129.129 523.596 129.129 523.596Z" fill="#AEC6F7" stroke="#111111" stroke-miterlimit="10"/>
<path d="M144.862 517.768C139.222 516.424 135.066 518.964 132.395 521.504C138.777 521.205 150.651 532.562 152.877 537.941C153.619 539.435 155.845 540.033 157.626 539.286L160.15 538.091C159.259 533.01 155.697 520.309 144.862 517.768Z" fill="white"/>
<path d="M155.993 540.033C154.658 540.033 153.322 539.436 152.728 538.24C150.502 532.861 139.222 522.251 132.839 521.952C131.207 521.803 130.019 522.401 129.426 523.745L128.98 523.447C128.98 523.297 134.472 512.987 144.862 515.377C158.665 518.515 160.743 537.941 160.743 538.091V538.24L157.775 539.585C157.181 540.033 156.587 540.033 155.993 540.033ZM132.543 521.504C132.691 521.504 132.691 521.504 132.839 521.504C139.222 521.803 150.799 532.562 153.025 538.091C153.767 539.436 155.845 540.033 157.478 539.286L160.149 538.091C159.852 536.148 157.329 518.964 144.713 515.975C137.441 514.331 132.691 519.113 130.613 521.952C131.207 521.653 131.801 521.504 132.543 521.504Z" fill="#15110E"/>
<path d="M188.646 524.044C188.646 524.044 189.091 535.102 178.405 536.447C170.39 537.343 165.343 539.136 163.859 539.734C163.562 539.883 162.226 538.837 162.078 538.539L161.633 532.711C161.633 532.711 168.163 530.32 168.46 530.32C168.757 530.32 175.733 529.423 178.405 527.63C180.928 525.837 180.186 522.998 179.147 520.458C178.108 517.918 180.037 517.17 180.037 517.17L187.458 521.354L187.755 521.653C188.201 522.4 188.497 523.297 188.646 524.044Z" fill="#130F0C"/>
<path d="M178.404 527.78C177.217 528.676 178.107 528.378 176.029 528.826L182.411 535.251C189.239 531.217 188.645 524.044 188.645 524.044C188.497 523.297 188.2 522.4 187.606 521.803L187.309 521.504L179.888 517.32C179.888 517.32 177.959 518.216 178.998 520.607C180.185 523.148 180.927 525.987 178.404 527.78Z" fill="#AEC6F7" stroke="#111111" stroke-miterlimit="10"/>
<path d="M163.859 540.035C163.711 540.035 163.711 540.035 163.562 539.885C163.117 539.736 162.078 538.989 161.93 538.69L161.484 532.713H161.633C163.117 532.115 168.163 530.322 168.609 530.322C168.906 530.322 175.881 529.425 178.405 527.782C180.928 525.988 180.186 523.299 178.998 520.908C178.553 520.011 178.553 519.115 178.85 518.517C179.147 517.62 180.037 517.322 180.037 517.322H180.186L187.755 521.655L188.052 521.954C188.646 522.701 188.943 523.448 189.091 524.345C189.091 524.494 189.388 535.701 178.553 537.046C170.241 537.644 165.195 539.437 163.859 540.035ZM162.375 538.54C162.523 538.69 163.562 539.437 163.859 539.437C165.195 538.839 170.241 537.195 178.405 536.149C188.646 534.954 188.497 524.494 188.497 524.046C188.349 523.299 188.052 522.551 187.458 521.954L187.162 521.655L179.889 517.62C179.74 517.77 179.295 518.069 179.147 518.517C178.998 519.115 178.998 519.712 179.295 520.609C180.334 523 181.225 526.138 178.405 528.08C175.733 529.873 168.757 530.77 168.312 530.77C168.015 530.77 164.156 532.115 161.781 533.012L162.375 538.54Z" fill="#15110E"/>
<path d="M188.35 522.849C184.639 515.228 168.461 531.217 165.938 538.09C165.196 539.734 163.118 540.332 161.485 539.435L158.813 538.09C158.813 538.09 160.743 517.768 173.656 514.481C183.303 511.94 188.35 522.849 188.35 522.849Z" fill="#AEC6F7" stroke="#111111" stroke-miterlimit="10"/>
<path d="M173.506 517.619C163.71 520.159 160.297 532.412 159.109 538.24L161.336 539.435C162.968 540.332 165.046 539.585 165.788 538.09C167.866 532.711 178.108 521.653 184.341 520.906C181.967 518.366 178.404 516.423 173.506 517.619Z" fill="white"/>
<path d="M162.969 540.033C162.376 540.033 161.782 539.883 161.337 539.585L158.517 538.09V537.941C158.517 537.791 160.595 517.469 173.507 514.182C183.303 511.642 188.498 522.55 188.498 522.699L188.053 522.849C187.459 521.504 186.272 520.906 184.787 520.906C178.999 521.205 168.164 532.412 166.086 537.941C165.789 538.688 165.047 539.286 164.157 539.585C163.86 540.033 163.415 540.033 162.969 540.033ZM158.962 537.941L161.485 539.286C162.227 539.734 163.118 539.734 164.008 539.435C164.75 539.136 165.344 538.688 165.641 537.941C167.57 532.562 178.405 520.757 184.787 520.458C185.53 520.458 186.272 520.607 186.865 520.906C184.936 517.918 180.483 512.837 173.507 514.63C161.633 517.768 159.259 535.998 158.962 537.941Z" fill="#15110E"/>
<path d="M154.509 539.137C154.36 538.838 154.36 538.539 154.36 538.24C154.509 537.194 155.102 534.504 158.516 534.504C161.781 534.504 162.672 536.746 162.82 537.792C162.969 538.091 162.82 538.539 162.82 538.838V538.987C162.524 540.033 161.485 540.93 160.149 540.93H157.18C155.993 540.93 154.806 540.182 154.509 539.137Z" fill="#AEC6F7" stroke="#111111" stroke-miterlimit="10"/>
<path d="M160.149 540.93C161.336 540.93 162.524 540.182 162.821 538.987V538.838C162.969 538.539 162.969 538.09 162.821 537.792C162.672 537.343 162.524 536.746 162.227 536.297C161.633 536.148 161.04 535.999 160.297 535.999C156.884 535.999 156.29 538.539 156.142 539.734C156.142 540.033 156.142 540.332 156.29 540.631C156.29 540.78 156.29 540.78 156.438 540.93C156.735 540.93 156.884 541.079 157.181 541.079H160.149V540.93Z" fill="white"/>
<path d="M160.149 541.229H157.18C155.845 541.229 154.657 540.332 154.36 539.286C154.212 538.987 154.212 538.688 154.212 538.389C154.36 537.194 154.954 534.504 158.516 534.504C161.93 534.504 162.82 536.895 163.117 538.091C163.266 538.539 163.117 538.838 163.117 539.286V539.435C162.82 540.332 161.633 541.229 160.149 541.229ZM158.665 534.803C155.399 534.803 154.806 537.194 154.806 538.24C154.806 538.539 154.806 538.688 154.806 538.987C155.102 540.033 156.141 540.631 157.18 540.631H160.149C161.336 540.631 162.227 539.884 162.524 538.987V538.838C162.672 538.539 162.672 538.24 162.524 537.941C162.375 536.895 161.633 534.803 158.665 534.803Z" fill="#15110E"/>
<path d="M154.509 534.355C154.509 534.355 157.181 535.102 157.329 539.286C157.329 539.286 157.032 541.228 158.813 541.378C158.813 541.378 154.954 543.918 151.541 541.228C149.908 539.884 148.275 537.044 145.9 537.642C143.526 538.24 148.127 534.056 148.127 534.056H150.65L152.134 534.952L153.025 534.355H154.509Z" fill="#130F0C"/>
<path d="M155.102 542.723C153.915 542.723 152.727 542.424 151.391 541.378C150.946 541.079 150.501 540.481 150.056 540.033C148.868 538.688 147.532 537.343 145.9 537.791C145.751 537.791 145.158 537.941 145.009 537.642C144.712 537.044 146.494 535.251 147.978 533.757H150.649L152.134 534.504L152.876 533.906L154.36 534.056C154.508 534.056 157.18 534.952 157.477 539.136C157.477 539.136 157.328 539.884 157.774 540.481C157.922 540.78 158.367 540.929 158.813 540.929H159.555L158.961 541.378C158.961 541.527 157.18 542.723 155.102 542.723ZM146.494 537.343C147.978 537.343 149.314 538.688 150.353 539.734C150.798 540.182 151.243 540.631 151.688 541.079C154.211 543.022 157.032 542.125 158.07 541.527C157.774 541.378 157.625 541.228 157.477 541.079C157.032 540.481 157.032 539.585 157.032 539.435C156.883 535.7 154.657 534.803 154.36 534.803L153.024 534.653L152.134 535.401L150.501 534.504H148.126C146.79 535.7 145.455 537.194 145.306 537.642C145.306 537.642 145.455 537.642 145.603 537.642C146.048 537.343 146.345 537.343 146.494 537.343Z" fill="#15110E"/>
<path d="M154.509 534.355L149.76 532.263C148.127 531.515 146.197 531.964 145.01 533.309C143.823 534.653 142.784 536.745 143.08 539.883C143.377 546.309 141.745 550.344 137.589 550.642C137.144 550.642 136.995 551.091 137.144 551.39L140.26 556.171C140.557 556.769 141.151 556.918 141.893 556.918C144.268 556.47 149.76 554.826 150.205 548.849C150.353 541.378 148.721 537.343 154.509 534.355Z" fill="#AEC6F7" stroke="#111111" stroke-miterlimit="10"/>
<path d="M150.65 534.504C149.017 533.757 147.088 534.205 145.901 535.55C144.713 536.895 143.674 538.987 143.971 542.125C144.268 548.55 142.635 552.585 138.479 552.884C138.331 552.884 138.331 552.884 138.183 553.033L140.261 556.321C140.557 556.918 141.151 557.068 141.893 557.068C144.268 556.62 149.76 554.976 150.205 548.999C150.65 542.274 149.314 538.24 153.025 535.401L150.65 534.504Z" fill="white"/>
<path d="M141.299 557.367C140.706 557.367 140.112 557.068 139.815 556.47L136.698 551.688C136.55 551.39 136.55 551.24 136.698 550.941C136.847 550.642 136.995 550.493 137.292 550.493C141.003 550.194 142.932 546.458 142.487 539.884C142.338 537.194 143.08 534.803 144.565 533.159C145.752 531.665 147.83 531.217 149.611 532.113L154.954 534.355L154.509 534.654C150.205 536.746 150.205 539.585 150.205 544.366C150.205 545.711 150.205 547.355 150.056 549.148C149.611 555.275 143.971 557.068 141.596 557.516C141.596 557.367 141.448 557.367 141.299 557.367ZM147.978 532.263C146.939 532.263 145.752 532.711 145.01 533.608C143.526 535.251 142.932 537.343 143.08 540.033C143.526 546.757 141.448 550.642 137.44 551.091C137.292 551.091 137.292 551.24 137.292 551.24C137.292 551.389 137.292 551.39 137.292 551.539L140.409 556.321C140.706 556.769 141.151 557.068 141.745 556.918C144.119 556.47 149.463 554.826 149.908 548.999C150.056 547.206 150.056 545.711 150.056 544.366C150.056 539.734 150.056 536.746 154.212 534.504L149.908 532.562C149.017 532.263 148.424 532.263 147.978 532.263Z" fill="#15110E"/>
<path d="M158.665 541.378C158.665 541.378 158.813 541.527 158.665 541.378C159.704 541.228 164.157 540.631 165.196 546.458C166.383 552.884 174.695 556.171 180.038 550.792C180.335 550.493 180.483 550.194 180.632 549.895L182.264 544.665C182.413 544.217 181.967 543.918 181.522 544.217C179.296 545.861 174.398 548.849 172.023 545.114C168.906 540.033 166.086 537.343 162.672 538.09C162.524 537.941 159.259 538.389 158.665 541.378Z" fill="#AEC6F7" stroke="#111111" stroke-miterlimit="10"/>
<path d="M165.343 546.458C166.531 552.884 174.842 556.171 180.185 550.792C180.482 550.493 180.631 550.194 180.779 549.895L181.818 546.458C181.818 546.01 181.373 545.711 181.076 546.01C178.85 547.654 173.952 550.642 171.577 546.907C168.46 541.826 165.64 539.136 162.226 539.883C162.226 539.883 160.297 540.182 159.109 541.527C160.148 541.228 164.304 540.78 165.343 546.458Z" fill="white"/>
<path d="M173.804 553.631C172.914 553.631 172.023 553.481 171.133 553.183C167.867 552.137 165.492 549.596 165.047 546.458C164.75 544.516 163.86 543.022 162.672 542.274C161.188 541.228 159.407 541.527 158.962 541.677C158.813 541.677 158.665 541.677 158.665 541.527C158.517 541.378 158.517 541.378 158.517 541.228C158.962 538.09 162.524 537.642 162.524 537.642C166.531 536.746 169.5 540.481 172.172 544.815C172.765 545.711 173.507 546.309 174.398 546.458C176.773 546.907 179.593 545.113 181.225 543.918C181.522 543.769 181.819 543.769 182.116 543.918C182.413 544.068 182.413 544.366 182.413 544.665L180.78 549.895C180.632 550.343 180.483 550.642 180.186 550.941C178.405 552.734 176.179 553.631 173.804 553.631ZM160.149 541.079C160.891 541.079 161.93 541.228 162.969 541.826C164.305 542.723 165.196 544.217 165.492 546.309C166.086 549.297 168.313 551.688 171.281 552.734C174.398 553.631 177.515 552.884 179.89 550.493C180.186 550.194 180.335 549.895 180.335 549.596L181.967 544.366C181.967 544.217 181.967 544.068 181.819 544.068C181.819 544.068 181.671 543.918 181.522 544.068C179.89 545.263 176.921 547.205 174.398 546.757C173.359 546.608 172.468 545.861 171.726 544.815C168.313 539.286 165.641 537.194 162.524 537.941C162.376 537.941 159.407 538.389 158.813 540.93C159.259 541.079 159.704 541.079 160.149 541.079Z" fill="#15110E"/>
<path d="M173.359 570.965L165.344 577.988L167.125 584.264L174.991 577.39L173.359 570.965Z" fill="#130F0C"/>
<path d="M174.992 567.378L170.094 571.562L171.133 575.448L176.031 571.114L174.992 567.378Z" fill="#130F0C"/>
<path d="M188.053 551.24V551.838L158.962 568.723V568.125" fill="#AEC6F7"/>
<path d="M41.2617 557.964L1.48438 534.654L39.3322 512.688L79.258 535.999L41.2617 557.964Z" fill="white" stroke="#0A0A0A" stroke-miterlimit="10"/>
<path d="M1.48438 534.654V573.953L41.2617 597.114V557.964L1.48438 534.654Z" fill="#AEC6F7" stroke="#111111" stroke-miterlimit="10"/>
<path d="M39.629 512.389L39.4806 512.239L1.03906 534.504V574.252L41.2617 597.712L79.4064 575.597L79.5548 575.447V535.699L39.629 512.389ZM40.9648 596.517L1.9296 573.654V535.401L31.3173 552.435L40.9648 558.114V596.517ZM2.22645 534.653L39.3322 513.136L78.3674 535.849L41.2617 557.367L2.22645 534.653Z" fill="#15110E"/>
<path d="M60.5567 546.458L20.9277 523.148L21.5214 522.55L61.4472 546.01L60.5567 546.458Z" fill="#15110E"/>
<path d="M61.2987 585.758L60.4082 586.206V546.458L61.2987 546.01V585.758Z" fill="#AEC6F7"/>
<path d="M21.373 585.31H20.4824V546.159L20.6308 546.01L59.0724 524.193L59.5177 524.791L21.373 546.608V585.31Z" fill="#15110E"/>
<path d="M69.7594 528.079C68.8688 525.09 67.2362 523.147 64.713 522.55C57.7371 520.607 46.457 529.573 42.4495 533.01C43.0432 531.217 43.4885 528.079 42.8948 522.699C42.3011 516.871 37.4032 512.688 33.0989 511.94C29.6852 511.343 27.0135 512.688 25.5293 515.826C21.9672 523.297 37.4032 532.711 40.52 534.653C39.6295 535.998 38.4421 535.998 36.9579 535.849C35.7705 535.699 34.5831 535.55 33.3957 536.297C30.7241 537.941 29.8336 541.079 29.8336 541.228L30.5757 541.378C30.5757 541.378 31.3178 538.389 33.841 537.044C34.7315 536.447 35.7705 536.596 36.9579 536.745C38.4421 536.895 40.0748 537.044 41.4106 535.251H41.559L41.7074 535.102C42.0043 535.102 42.4495 535.251 43.0432 535.401C44.0822 535.849 45.2696 536.596 45.5664 538.24C46.0117 540.033 47.0507 541.378 48.5349 541.975C49.277 542.274 50.0191 542.424 50.7612 542.424C51.6518 542.424 52.3939 542.274 53.2844 541.826L52.9876 541.079C51.6518 541.677 50.1675 541.826 48.9801 541.228C47.7928 540.631 46.9022 539.435 46.457 537.941C46.3085 537.044 45.8633 536.297 45.2696 535.849C48.6833 536.447 53.7297 537.343 58.3308 537.343C62.7835 537.343 66.7909 536.596 68.8688 534.504C70.2046 532.86 70.5015 530.768 69.7594 528.079ZM26.2714 516.124C27.3104 513.883 29.2399 512.538 31.7631 512.538C32.2083 512.538 32.6536 512.538 33.0989 512.688C37.1063 513.435 41.559 517.32 42.1527 522.699C42.8948 529.872 41.7074 533.01 41.2622 533.906C38.5905 532.561 23.0061 522.998 26.2714 516.124ZM68.1267 533.757C63.674 538.539 48.0896 535.55 43.0432 534.504C42.7464 534.355 42.4495 534.355 42.1527 534.355C44.9727 531.814 57.2918 521.354 64.4161 523.297C66.4941 523.895 67.9783 525.538 68.8688 528.377C69.611 530.619 69.4625 532.412 68.1267 533.757Z" fill="#15110E"/>
<path d="M24.0441 570.815V560.654L9.79551 552.286V562.447C9.79551 562.447 9.94393 567.528 7.86601 568.723C5.78809 569.919 5.78809 569.919 5.78809 569.919L20.0367 578.287C20.0367 578.287 20.0367 578.287 22.1146 577.091C24.1925 575.896 24.0441 570.815 24.0441 570.815Z" fill="#AEC6F7" stroke="#111111" stroke-miterlimit="10"/>
<path d="M25.8254 573.953V563.792L11.5768 555.424V565.585C11.5768 565.585 11.7252 570.666 9.64726 571.861C7.56934 573.057 7.56934 573.057 7.56934 573.057L21.8179 581.424C21.8179 581.424 21.8179 581.424 23.8959 580.229C25.9738 579.034 25.8254 573.953 25.8254 573.953Z" fill="white"/>
<path d="M19.8882 578.735L4.89746 569.919L7.56908 568.424C9.20173 567.528 9.35015 563.792 9.35015 562.447V551.688L24.3409 560.505V570.815C24.3409 571.114 24.4893 576.194 22.263 577.39L19.8882 578.735ZM6.53011 569.919L20.0366 577.838L21.9661 576.792C23.5988 575.896 23.7472 572.16 23.7472 570.815V560.953L10.2407 553.033V562.447C10.2407 562.597 10.3891 567.827 8.16277 569.022L6.53011 569.919Z" fill="#15110E"/>
<path d="M12.7633 564.24C12.6149 561.401 16.177 562.895 17.0676 565.734C17.9581 563.941 21.5202 566.033 21.3718 569.171C21.2234 571.413 17.5128 573.056 17.0676 573.355C16.6223 572.608 12.9117 566.631 12.7633 564.24Z" fill="#AEC6F7"/>
<path d="M16.6226 571.263H16.4742L16.3258 570.965C15.5836 569.918 12.1699 564.24 12.0215 561.849C12.0215 560.355 12.912 560.056 13.2089 559.907C14.3963 559.757 16.0289 560.803 16.771 562.596C17.2163 562.298 17.6616 562.148 18.2553 562.298C19.7395 562.746 21.3721 564.539 21.2237 566.78C21.0753 569.022 17.6616 570.815 16.771 571.263V571.413L16.6226 571.263ZM12.7636 561.849C12.7636 563.642 15.2868 567.976 16.771 570.367C18.2553 569.62 20.4816 568.275 20.4816 566.78C20.4816 564.838 19.1458 563.344 18.1068 563.194C17.5131 563.045 17.2163 563.194 17.0679 563.642L16.6226 564.539L16.3258 563.642C15.7321 561.849 14.0994 560.803 13.3573 560.953C12.912 560.803 12.7636 561.401 12.7636 561.849Z" fill="#15110E"/>
<path d="M99.5917 569.769L131.503 551.091L101.076 533.309L69.0166 551.987L99.5917 569.769Z" fill="white" stroke="#0A0A0A" stroke-miterlimit="10"/>
<path d="M131.503 551.09V582.62L99.5918 601.298V569.769L131.503 551.09Z" fill="#AEC6F7" stroke="#111111" stroke-miterlimit="10"/>
<path d="M100.928 533.01L101.076 532.86L131.799 550.792V582.769L99.4433 601.597L68.8682 583.815L68.7197 583.666V551.688L100.928 533.01ZM99.8886 600.701L131.206 582.47V551.688L107.607 565.436L99.8886 570.068V600.701ZM130.909 551.09L101.076 533.757L69.7587 551.987L99.5917 569.321L130.909 551.09Z" fill="#15110E"/>
<path d="M84.0068 560.504L115.918 541.826L115.472 541.378L83.4131 560.206L84.0068 560.504Z" fill="#15110E"/>
<path d="M83.4131 592.034L84.1552 592.482V560.504L83.4131 560.056V592.034Z" fill="#AEC6F7"/>
<path d="M115.622 591.735H116.216V560.205H116.067L85.1953 542.573L84.8984 543.171L115.622 560.654V591.735Z" fill="#15110E"/>
<path d="M76.7347 545.711C77.4768 543.32 78.8126 541.676 80.7421 541.228C86.3822 539.734 95.436 546.906 98.7013 549.596C98.256 548.102 97.8107 545.562 98.256 541.378C98.7013 536.745 102.709 533.308 106.122 532.711C108.794 532.262 111.02 533.308 112.208 535.849C115.028 541.826 102.709 549.447 100.186 550.941C100.928 552.136 101.967 551.987 103.154 551.838C104.045 551.688 105.083 551.539 106.122 552.136C108.2 553.481 108.942 555.872 108.942 556.022L108.349 556.171C108.349 556.171 107.755 553.78 105.826 552.585C105.083 552.136 104.193 552.286 103.302 552.286C102.115 552.435 100.779 552.585 99.7402 551.09H99.5918C99.295 551.09 98.9981 551.24 98.4044 551.389C97.5139 551.688 96.6234 552.286 96.3265 553.631C96.0297 554.976 95.1391 556.171 93.9517 556.619C93.358 556.918 92.7644 557.068 92.1707 557.068C91.4285 557.068 90.8349 556.918 90.0927 556.619L90.3896 556.022C91.4286 556.619 92.6159 556.619 93.6549 556.171C94.6939 555.723 95.436 554.826 95.5844 553.631C95.7328 552.884 96.0297 552.286 96.4749 551.838C93.8033 552.435 89.6475 553.033 85.9369 553.033C82.3747 553.033 79.1094 552.435 77.4768 550.792C76.2894 549.596 75.9926 547.803 76.7347 545.711ZM111.614 536.148C110.724 534.354 109.239 533.308 107.31 533.308C107.013 533.308 106.568 533.308 106.271 533.458C103.006 534.056 99.4434 537.194 98.9981 541.527C98.4044 547.355 99.4434 549.895 99.7402 550.642C101.67 549.297 114.286 541.676 111.614 536.148ZM77.9221 550.343C81.4842 554.079 94.1002 551.838 98.1076 550.941C98.4044 550.792 98.5529 550.792 98.8497 550.792C96.6234 548.7 86.679 540.332 80.8905 541.975C79.1094 542.424 77.9221 543.768 77.3284 546.01C76.7347 547.803 76.8831 549.297 77.9221 550.343Z" fill="#15110E"/>
<path d="M113.396 580.08V571.861L124.824 565.137V573.355C124.824 573.355 124.676 577.39 126.457 578.436C128.238 579.482 128.238 579.333 128.238 579.333L116.809 586.057C116.809 586.057 116.809 586.057 115.028 585.16C113.247 584.114 113.396 580.08 113.396 580.08Z" fill="#AEC6F7" stroke="#111111" stroke-miterlimit="10"/>
<path d="M111.911 582.47V574.252L123.34 567.527V575.746C123.34 575.746 123.191 579.781 124.972 580.827C126.754 581.723 126.754 581.723 126.754 581.723L115.325 588.447C115.325 588.447 115.325 588.447 113.544 587.551C111.763 586.654 111.911 582.47 111.911 582.47Z" fill="white"/>
<path d="M116.661 586.356L128.683 579.332L126.456 578.137C125.121 577.39 124.972 574.401 125.121 573.355V564.688L113.098 571.712V580.08C113.098 580.378 112.95 584.413 114.879 585.459L116.661 586.356ZM127.495 579.332L116.661 585.608L115.028 584.712C113.692 583.965 113.544 580.976 113.692 579.93V572.01L124.527 565.734V573.355C124.527 573.505 124.379 577.689 126.308 578.735L127.495 579.332Z" fill="#15110E"/>
<path d="M122.449 574.85C122.598 572.608 119.778 573.654 119.036 576.045C118.293 574.551 115.473 576.344 115.622 578.735C115.622 580.528 118.739 581.873 119.036 582.022C119.332 581.574 122.449 576.643 122.449 574.85Z" fill="#AEC6F7"/>
<path d="M119.332 580.528H119.481L119.629 580.379C120.223 579.482 123.043 574.85 123.043 573.057C123.043 571.861 122.449 571.562 122.152 571.562C121.262 571.413 119.926 572.309 119.332 573.654C119.035 573.355 118.59 573.355 118.145 573.505C116.958 573.804 115.622 575.298 115.77 577.091C115.77 578.884 118.59 580.379 119.332 580.677V580.528ZM122.449 572.907C122.449 574.252 120.52 577.838 119.184 579.781C117.996 579.183 116.215 577.988 116.215 576.792C116.215 575.298 117.403 574.103 118.145 573.804C118.59 573.654 118.887 573.804 119.035 574.103L119.332 574.85L119.629 574.103C120.074 572.608 121.41 571.712 122.004 571.861C122.449 572.011 122.449 572.459 122.449 572.907Z" fill="#15110E"/>
<path d="M56.3994 587.252V601.747L84.0061 617.736V603.241L56.3994 587.252Z" fill="#AEC6F7" stroke="#111111" stroke-miterlimit="10"/>
<path d="M104.637 590.988L84.0061 603.241L56.3994 587.252L77.1786 574.999L104.637 590.988Z" fill="#AEC6F7" stroke="#111111" stroke-miterlimit="10"/>
<path d="M104.637 596.069L84.0061 608.322L56.3994 592.183L77.1786 580.08L104.637 596.069Z" fill="white"/>
<path d="M77.1796 574.401L55.8066 586.953V602.195L84.007 618.632L105.38 606.08V590.839L77.1796 574.401ZM83.4133 616.69L56.994 601.299V588.149L83.4133 603.54V616.69ZM57.4393 587.252L77.0311 575.746L103.45 591.137L83.8586 602.643L57.4393 587.252Z" fill="#15110E"/>
<path d="M84.0072 617.736V625.655L57.8848 610.414V602.643L84.0072 617.736Z" fill="#AEC6F7" stroke="#111111" stroke-miterlimit="10"/>
<path d="M84.0072 617.138L57.291 601.597V610.862L84.1556 626.402L102.708 615.494V606.08L84.0072 617.138ZM58.4784 610.115V603.54L83.4135 618.034L83.5619 624.609L58.4784 610.115Z" fill="#15110E"/>
<path d="M83.7109 618.035V616.69L102.412 605.632V606.977L83.7109 618.035Z" fill="#AEC6F7"/>
<path d="M91.7249 598.16L64.8604 582.62L65.454 581.574L92.7639 597.413L91.7249 598.16Z" fill="#15110E"/>
<path d="M90.8348 622.368L89.6475 623.115L91.7254 612.057V598.16L92.7643 597.413V612.207L90.8348 622.368Z" fill="#AEC6F7"/>
<path d="M92.1704 588.149C91.8736 587.402 91.2799 586.505 89.6472 586.206C87.5693 585.758 85.4914 587.999 84.1556 589.793C84.1556 589.195 84.1556 588.747 84.1556 588.149C84.0072 586.505 81.6324 583.816 79.7029 583.666C79.1092 583.517 77.9218 583.666 77.3281 585.459C76.1407 588.896 81.0387 591.735 82.6714 592.632L82.5229 592.931L83.265 593.08L83.8587 593.379V593.229C84.6009 593.229 85.7882 593.379 86.9756 593.379C88.7567 593.379 90.5378 593.229 91.1315 592.482C92.022 591.137 92.6157 589.494 92.1704 588.149ZM78.3671 585.609C78.6639 584.712 79.1092 584.563 79.4061 584.563H79.5545C81.0387 584.712 82.9682 586.953 82.9682 587.999C83.1166 589.195 82.9682 590.39 82.8198 591.287C81.0387 590.241 77.625 587.701 78.3671 585.609ZM90.3894 591.287C89.7957 591.885 86.9756 591.885 84.304 591.735C85.343 589.942 87.5693 586.953 89.4988 587.252C90.3894 587.402 90.983 587.85 91.1315 588.448C91.4283 589.344 90.983 590.689 90.3894 591.287Z" fill="#15110E"/>
<path d="M85.1936 596.816C84.7483 596.816 84.3031 596.666 83.7094 596.517C82.2251 595.77 82.6704 594.574 82.9673 593.827C83.1157 593.528 83.2641 593.08 83.1157 592.931C83.1157 592.781 82.8188 592.781 82.6704 592.632C81.6314 592.333 80.7409 592.333 79.9988 592.632C78.9598 593.229 78.663 594.425 78.663 594.425L77.624 594.126C77.624 594.126 78.0693 592.333 79.5535 591.586C80.5925 590.988 81.7799 590.988 83.1157 591.436C83.7094 591.586 84.1546 591.885 84.3031 592.333C84.5999 592.931 84.4515 593.528 84.1546 594.126C83.8578 595.023 83.8578 595.172 84.3031 595.321C85.9357 596.068 86.9747 594.724 87.1231 594.574L88.0136 595.321C87.4199 596.068 86.5294 596.816 85.1936 596.816Z" fill="#15110E"/>
<path d="M88.46 573.953C88.46 573.953 88.6084 577.539 84.7494 577.988C81.9294 578.286 79.9999 578.884 79.5546 579.034C79.4062 579.034 78.9609 578.735 78.9609 578.735L78.8125 576.942C78.8125 576.942 81.4841 575.746 81.6325 575.746C81.781 575.746 83.8589 575.896 84.8978 575.298C85.7884 574.7 85.4915 573.804 85.1947 573.057C84.7494 572.309 85.4915 572.01 85.4915 572.01L88.1631 573.355L88.3116 573.505C88.1631 573.355 88.3116 573.654 88.46 573.953Z" fill="#AEC6F7"/>
<path d="M79.5546 579.482C79.4061 579.482 79.2577 579.482 79.2577 579.333C79.1093 579.333 78.664 579.034 78.5156 578.735V578.585L78.3672 576.344L78.664 576.195C81.3356 574.999 81.4841 574.999 81.6325 574.999H81.7809C83.7104 575.149 84.4525 574.85 84.601 574.7C85.0462 574.401 85.1946 574.103 84.7494 573.057C84.4525 572.608 84.601 572.16 84.601 572.011C84.7494 571.562 85.1947 571.413 85.1947 571.413L85.3431 571.263L88.3115 572.758L88.46 572.907C88.7568 573.206 88.9052 573.505 88.9052 573.804C88.9052 573.804 89.0536 577.838 84.7494 578.287C81.9293 578.585 80.1483 579.183 79.703 579.333L79.5546 579.482ZM79.4061 578.287C79.4061 578.287 79.5546 578.287 79.5546 578.436C80.1483 578.137 82.0778 577.689 84.7494 577.39C87.8663 577.091 88.0147 574.252 88.0147 573.953C88.0147 573.804 87.8663 573.654 87.7178 573.505L85.4915 572.309C85.4915 572.309 85.4915 572.459 85.4915 572.608C85.7883 573.057 86.5305 574.551 85.0462 575.447C84.4525 575.896 83.2651 576.045 81.6325 575.896C81.3356 576.045 80.2967 576.493 79.2577 576.942L79.4061 578.287Z" fill="#15110E"/>
<path d="M88.3115 573.505C86.9756 571.114 81.1872 576.194 80.2966 578.436C79.9998 578.884 79.2577 579.183 78.664 578.884L77.625 578.436C77.625 578.436 78.3671 571.861 82.9682 570.815C86.5304 570.068 88.3115 573.505 88.3115 573.505Z" fill="white"/>
<path d="M79.2576 579.482C78.9608 579.482 78.8123 579.482 78.5155 579.332L77.1797 578.735V578.436C77.1797 578.137 77.9218 571.562 82.8197 570.516C86.5303 569.62 88.4598 573.206 88.6082 573.505L87.7177 573.953C87.5693 573.804 87.4209 573.505 86.9756 573.505C85.0461 573.654 81.3355 577.091 80.5934 578.735C80.445 579.183 79.8513 579.482 79.2576 579.482ZM78.2186 578.137L78.8123 578.436C79.2576 578.585 79.7029 578.436 79.7029 578.286C80.445 576.344 84.304 572.758 86.6787 572.459C85.9366 571.712 84.6008 570.964 82.9682 571.413C79.406 572.16 78.3671 576.792 78.2186 578.137Z" fill="#15110E"/>
<path d="M68.2743 573.654C68.2743 573.654 68.1259 577.39 71.688 577.838C74.3596 578.137 76.1407 578.735 76.586 578.884C76.7344 578.884 77.1797 578.585 77.1797 578.436L77.3281 576.493C77.3281 576.493 75.1018 575.746 74.9533 575.746C74.8049 575.746 72.4302 575.447 71.688 574.85C70.7975 574.252 71.0943 573.355 71.3912 572.459C71.8365 571.562 71.0944 571.263 71.0944 571.263L68.5712 572.608L68.4227 572.758C68.4227 573.057 68.2743 573.355 68.2743 573.654Z" fill="#AEC6F7"/>
<path d="M76.5862 579.482H76.4378C75.9925 579.333 74.3598 578.735 71.6882 578.436C68.4229 577.988 67.6808 575.149 67.8292 573.804C67.8292 573.505 67.9776 573.057 68.2745 572.758L68.5713 572.459L71.243 570.965L71.3914 571.114C71.3914 571.114 71.8367 571.263 71.9851 571.712C72.1335 572.011 72.1335 572.309 71.9851 572.758C71.5398 573.804 71.6882 574.252 72.1335 574.551C72.8756 574.999 74.9535 575.298 75.2504 575.298C75.3988 575.298 75.3988 575.298 77.7736 576.195L78.0704 576.344L77.922 578.735C77.7736 579.034 77.1799 579.333 77.1799 579.333C76.883 579.333 76.7346 579.482 76.5862 579.482ZM68.7198 573.654C68.7198 573.953 68.7198 576.942 71.8367 577.241C74.3599 577.539 75.9925 577.988 76.7346 578.287C76.7346 578.287 76.883 578.287 76.883 578.137L77.0315 576.792C76.1409 576.493 75.2504 576.195 75.102 576.195C75.102 576.195 72.5788 575.896 71.5398 575.298C70.204 574.401 70.9461 572.758 71.0945 572.309C71.0945 572.16 71.243 572.011 71.0945 572.011L69.0166 573.206C68.8682 573.355 68.7198 573.505 68.7198 573.654Z" fill="#15110E"/>
<path d="M68.4229 573.206C69.7587 570.666 75.1019 576.045 75.9924 578.286C76.2893 578.884 76.883 579.034 77.4767 578.735L78.3672 578.286C78.3672 578.286 77.7735 571.413 73.3208 570.367C70.0555 569.62 68.4229 573.206 68.4229 573.206Z" fill="white"/>
<path d="M76.8849 579.482C76.7364 579.482 76.588 579.482 76.2912 579.333C75.8459 579.183 75.5491 578.884 75.4006 578.585C74.6585 576.792 71.2448 573.057 69.4637 573.057C69.1669 573.057 68.87 573.206 68.7216 573.505L67.8311 573.057C68.4247 571.712 70.5027 569.171 73.3227 569.919C77.9238 571.114 78.6659 577.988 78.6659 578.287V578.585L77.4786 579.183C77.3301 579.333 77.1817 579.482 76.8849 579.482ZM69.7606 572.16C72.1353 572.459 75.6975 576.493 76.4396 578.287C76.4396 578.436 76.588 578.436 76.7364 578.585C76.8849 578.585 77.0333 578.585 77.3301 578.585L77.9238 578.287C77.7754 576.942 76.7364 572.011 73.3227 571.114C71.5416 570.516 70.5027 571.263 69.7606 572.16Z" fill="#15110E"/>
<path d="M79.7038 578.585C79.7038 578.436 79.7038 578.436 79.7038 578.286C79.7038 577.988 79.407 577.091 78.368 577.091C77.3291 577.091 77.0322 577.838 76.8838 578.137C76.8838 578.286 76.8838 578.436 76.8838 578.436C77.0322 578.735 77.3291 579.034 77.7743 579.034H78.8133C79.2585 579.183 79.5554 578.884 79.7038 578.585Z" fill="#14100D"/>
<path d="M78.8132 579.631H77.7743C77.1806 579.631 76.5869 579.183 76.4385 578.585C76.4385 578.287 76.4385 578.137 76.4385 577.988C76.5869 577.091 77.329 576.493 78.368 576.493C79.5554 576.493 80.149 577.39 80.149 578.137C80.149 578.287 80.149 578.436 80.149 578.585C80.0006 579.333 79.4069 579.631 78.8132 579.631ZM78.368 577.539C77.7743 577.539 77.4774 577.838 77.329 578.287V578.436C77.329 578.585 77.6259 578.735 77.7743 578.735H78.8132C78.9617 578.735 79.2585 578.585 79.2585 578.436C79.2585 578.436 79.2585 578.436 79.2585 578.287C79.2585 577.539 78.5164 577.539 78.368 577.539Z" fill="#15110E"/>
<path d="M216.846 367.145C211.355 373.57 169.203 421.835 120.668 415.26C87.1246 410.778 49.5736 380.145 37.9966 370.731C36.0671 369.087 34.4345 367.742 33.3955 366.846" stroke="#111111" stroke-miterlimit="10"/>
<path d="M204.973 365.351L211.949 372.076L203.637 380.294L196.81 373.122L204.973 365.351Z" fill="#111111" stroke="#020202" stroke-miterlimit="10"/>
<path d="M196.364 373.271C201.119 373.271 204.973 369.391 204.973 364.604C204.973 359.818 201.119 355.938 196.364 355.938C191.61 355.938 187.756 359.818 187.756 364.604C187.756 369.391 191.61 373.271 196.364 373.271Z" fill="#FFB24D" stroke="#111111" stroke-miterlimit="10"/>
<path d="M187.904 404.8L182.857 396.432L192.95 390.754L197.848 399.421L187.904 404.8Z" fill="#111111" stroke="#020202" stroke-miterlimit="10"/>
<path d="M195.919 416.456C200.673 416.456 204.528 412.575 204.528 407.789C204.528 403.002 200.673 399.122 195.919 399.122C191.165 399.122 187.311 403.002 187.311 407.789C187.311 412.575 191.165 416.456 195.919 416.456Z" fill="#AEC6F7" stroke="#111111" stroke-miterlimit="10"/>
<path d="M163.858 397.18L167.272 406.295L156.14 410.03L153.172 400.616L163.858 397.18Z" fill="#111111" stroke="#020202" stroke-miterlimit="10"/>
<path d="M156.586 401.214C161.34 401.214 165.195 397.334 165.195 392.547C165.195 387.761 161.34 383.88 156.586 383.88C151.832 383.88 147.978 387.761 147.978 392.547C147.978 397.334 151.832 401.214 156.586 401.214Z" fill="#F2F2F2" stroke="#111111" stroke-miterlimit="10"/>
<path d="M127.644 425.87L126.605 416.157L138.182 415.26L138.925 425.123L127.644 425.87Z" fill="#111111" stroke="#020202" stroke-miterlimit="10"/>
<path d="M133.73 440.663C138.484 440.663 142.338 436.783 142.338 431.996C142.338 427.21 138.484 423.33 133.73 423.33C128.975 423.33 125.121 427.21 125.121 431.996C125.121 436.783 128.975 440.663 133.73 440.663Z" fill="#C61109" stroke="#111111" stroke-miterlimit="10"/>
<path d="M108.349 401.961L104.49 410.927L93.9521 405.846L98.2564 397.03L108.349 401.961Z" fill="#111111" stroke="#020202" stroke-miterlimit="10"/>
<path d="M106.123 402.26C110.878 402.26 114.732 398.38 114.732 393.593C114.732 388.807 110.878 384.927 106.123 384.927C101.369 384.927 97.5146 388.807 97.5146 393.593C97.5146 398.38 101.369 402.26 106.123 402.26Z" fill="#AEC6F7" stroke="#111111" stroke-miterlimit="10"/>
<path d="M71.0938 406.594L75.8433 398.226L85.7876 404.203L80.5928 412.72L71.0938 406.594Z" fill="#111111" stroke="#020202" stroke-miterlimit="10"/>
<path d="M72.2814 423.927C77.0357 423.927 80.8899 420.047 80.8899 415.26C80.8899 410.474 77.0357 406.594 72.2814 406.594C67.527 406.594 63.6729 410.474 63.6729 415.26C63.6729 420.047 67.527 423.927 72.2814 423.927Z" fill="#F2F2F2" stroke="#111111" stroke-miterlimit="10"/>
<path d="M62.6343 376.708L57.4395 384.927L47.792 378.352L53.4321 370.133L62.6343 376.708Z" fill="#111111" stroke="#020202" stroke-miterlimit="10"/>
<path d="M61.8927 376.708C66.6471 376.708 70.5012 372.828 70.5012 368.041C70.5012 363.255 66.6471 359.374 61.8927 359.374C57.1384 359.374 53.2842 363.255 53.2842 368.041C53.2842 372.828 57.1384 376.708 61.8927 376.708Z" fill="#FFB24D" stroke="#111111" stroke-miterlimit="10"/>
<path d="M189.091 193.808C183.6 197.693 189.24 211.889 130.167 211.441C68.7201 210.992 67.2359 191.118 62.6348 187.233" stroke="#111111" stroke-miterlimit="10"/>
<path d="M173.358 196.349L175.585 205.762L164.304 208.153L162.375 198.441L173.358 196.349Z" fill="#111111" stroke="#020202" stroke-miterlimit="10"/>
<path d="M166.679 199.636C171.433 199.636 175.287 195.756 175.287 190.969C175.287 186.183 171.433 182.302 166.679 182.302C161.924 182.302 158.07 186.183 158.07 190.969C158.07 195.756 161.924 199.636 166.679 199.636Z" fill="#F2F2F2" stroke="#111111" stroke-miterlimit="10"/>
<path d="M141.447 221.153L140.26 211.59L151.837 210.544L152.579 220.406L141.447 221.153Z" fill="#111111" stroke="#020202" stroke-miterlimit="10"/>
<path d="M147.384 235.947C152.138 235.947 155.992 232.067 155.992 227.28C155.992 222.493 152.138 218.613 147.384 218.613C142.63 218.613 138.775 222.493 138.775 227.28C138.775 232.067 142.63 235.947 147.384 235.947Z" fill="#C61109" stroke="#111111" stroke-miterlimit="10"/>
<path d="M123.636 201.579L123.339 211.291L111.762 210.544L112.355 200.682L123.636 201.579Z" fill="#111111" stroke="#020202" stroke-miterlimit="10"/>
<path d="M118.59 203.222C123.344 203.222 127.198 199.342 127.198 194.555C127.198 189.769 123.344 185.889 118.59 185.889C113.836 185.889 109.981 189.769 109.981 194.555C109.981 199.342 113.836 203.222 118.59 203.222Z" fill="#AEC6F7" stroke="#111111" stroke-miterlimit="10"/>
<path d="M79.5557 214.579L81.3367 205.015L92.7653 207.705L90.3905 217.268L79.5557 214.579Z" fill="#111111" stroke="#020202" stroke-miterlimit="10"/>
<path d="M83.4142 231.016C88.1686 231.016 92.0227 227.135 92.0227 222.349C92.0227 217.562 88.1686 213.682 83.4142 213.682C78.6598 213.682 74.8057 217.562 74.8057 222.349C74.8057 227.135 78.6598 231.016 83.4142 231.016Z" fill="#F2F2F2" stroke="#111111" stroke-miterlimit="10"/>
<path d="M79.7036 193.509L72.8762 200.234L64.8613 191.716L72.2825 184.992L79.7036 193.509Z" fill="#111111" stroke="#020202" stroke-miterlimit="10"/>
<path d="M80.8908 193.659C85.6451 193.659 89.4993 189.778 89.4993 184.992C89.4993 180.205 85.6451 176.325 80.8908 176.325C76.1364 176.325 72.2822 180.205 72.2822 184.992C72.2822 189.778 76.1364 193.659 80.8908 193.659Z" fill="#FFB24D" stroke="#111111" stroke-miterlimit="10"/>
</svg>
