<svg width="156" height="176" viewBox="0 0 156 176" fill="none" xmlns="http://www.w3.org/2000/svg">
<path d="M1.5105 137.374C7.54034 137.547 47.8442 137.677 91.1903 107.301C136.248 75.7479 147.822 37.0004 149.297 31.7504" stroke="#111111" stroke-miterlimit="10"/>
<path d="M13.2146 127.675L14.1298 136.221L24.4644 134.841L23.2009 126.059L13.2146 127.675Z" fill="#111111" stroke="#020202" stroke-miterlimit="10"/>
<path d="M24.7042 123.165C25.8563 119.063 23.4651 114.804 19.3633 113.652C15.2615 112.5 11.0025 114.891 9.8504 118.993C8.69834 123.095 11.0895 127.354 15.1913 128.506C19.2931 129.658 23.5522 127.267 24.7042 123.165Z" fill="#FFB24D" stroke="#111111" stroke-miterlimit="10"/>
<path d="M45.4964 139.643L43.5769 131.229L33.4668 133.777L35.7705 142.299L45.4964 139.643Z" fill="#111111" stroke="#020202" stroke-miterlimit="10"/>
<path d="M49.5927 148.668C50.7447 144.566 48.3535 140.307 44.2518 139.155C40.15 138.003 35.8909 140.394 34.7388 144.496C33.5868 148.598 35.978 152.857 40.0798 154.009C44.1815 155.161 48.4406 152.77 49.5927 148.668Z" fill="#AEC6F7" stroke="#111111" stroke-miterlimit="10"/>
<path d="M51.6666 118.166L54.7904 126.228L64.4918 122.183L60.9479 114.142L51.6666 118.166Z" fill="#111111" stroke="#020202" stroke-miterlimit="10"/>
<path d="M61.4357 112.897C62.5878 108.795 60.1965 104.536 56.0948 103.384C51.993 102.232 47.7339 104.623 46.5818 108.725C45.4298 112.827 47.821 117.086 51.9228 118.238C56.0246 119.39 60.2836 116.999 61.4357 112.897Z" fill="#F2F2F2" stroke="#111111" stroke-miterlimit="10"/>
<path d="M87.8857 120.05L83.8138 112.413L74.757 117.606L79.249 125.223L87.8857 120.05Z" fill="#111111" stroke="#020202" stroke-miterlimit="10"/>
<path d="M93.995 129.779C95.1471 125.677 92.7559 121.418 88.6541 120.266C84.5523 119.114 80.2932 121.505 79.1412 125.607C77.9891 129.709 80.3803 133.968 84.4821 135.12C88.5839 136.272 92.843 133.881 93.995 129.779Z" fill="#C61109" stroke="#111111" stroke-miterlimit="10"/>
<path d="M91.1068 96.7778L96.2347 103.606L104.391 97.1932L98.8428 90.3852L91.1068 96.7778Z" fill="#111111" stroke="#020202" stroke-miterlimit="10"/>
<path d="M98.7909 91.0615C99.943 86.9597 97.5518 82.7006 93.45 81.5486C89.3482 80.3965 85.0891 82.7877 83.9371 86.8895C82.785 90.9913 85.1762 95.2503 89.278 96.4024C93.3798 97.5545 97.6389 95.1633 98.7909 91.0615Z" fill="#AEC6F7" stroke="#111111" stroke-miterlimit="10"/>
<path d="M130.109 83.8326L123.961 77.685L116.962 85.3897L123.438 91.3532L130.109 83.8326Z" fill="#111111" stroke="#020202" stroke-miterlimit="10"/>
<path d="M138.575 93.5324C139.727 89.4307 137.336 85.1716 133.234 84.0195C129.133 82.8674 124.874 85.2587 123.721 89.3604C122.569 93.4622 124.961 97.7213 129.062 98.8733C133.164 100.025 137.423 97.6342 138.575 93.5324Z" fill="#F2F2F2" stroke="#111111" stroke-miterlimit="10"/>
<path d="M123.496 63.601L130.552 68.4839L136.287 59.8714L128.811 55.0086L123.496 63.601Z" fill="#111111" stroke="#020202" stroke-miterlimit="10"/>
<path d="M128.716 58.2976C129.868 54.1958 127.477 49.9367 123.375 48.7846C119.274 47.6326 115.014 50.0238 113.862 54.1256C112.71 58.2273 115.102 62.4864 119.203 63.6385C123.305 64.7906 127.564 62.3993 128.716 58.2976Z" fill="#FFB24D" stroke="#111111" stroke-miterlimit="10"/>
</svg>
