<svg width="319" height="303" viewBox="0 0 319 303" fill="none" xmlns="http://www.w3.org/2000/svg">
<g clip-path="url(#clip0)">
<path d="M114.42 215.768C112.02 215.768 109.92 216.268 108.42 217.068C106.92 216.168 104.42 215.468 101.32 214.968C99.1197 214.668 99.0197 212.868 87.7197 212.868C76.4197 212.868 83.9197 214.568 80.6197 214.668C73.6197 214.768 70.4197 214.968 67.9197 214.968C59.1197 214.968 51.9197 216.568 51.9197 217.568C51.9197 217.868 49.7197 222.768 50.8197 223.068C52.2197 223.368 60.0197 219.168 60.0197 219.168C62.3197 219.368 65.0197 219.368 67.9197 219.368C71.9197 219.368 77.4197 219.268 79.2197 219.268C81.0197 219.268 82.6197 220.168 80.2197 220.368C77.8197 220.468 77.8197 220.468 76.7197 220.568C72.2197 220.868 66.9197 224.668 66.9197 225.268C66.9197 225.668 75.7197 223.668 75.7197 223.668C81.9197 224.668 91.3197 225.568 98.2197 225.568C108.62 225.568 108.62 223.268 109.72 222.268C111.02 222.768 112.62 223.068 114.42 223.068C118.72 223.068 122.22 221.468 122.22 219.368C122.22 217.468 118.72 215.768 114.42 215.768Z" fill="#BABCBE"/>
<path d="M48.3193 222.568C49.6193 223.268 52.6193 223.668 56.0193 221.068C58.6193 219.068 59.0193 218.167 59.0193 216.767C59.0193 214.067 54.2193 213.567 52.6193 216.467C51.1193 219.267 45.8193 221.168 48.3193 222.568Z" fill="white"/>
<path d="M50.7196 223.668C49.5196 223.668 48.6196 223.368 48.0196 223.068C47.4196 222.768 47.1196 222.368 47.1196 221.868C47.0196 220.968 48.1196 220.068 49.4196 219.068C50.4196 218.268 51.6196 217.368 52.2196 216.368C53.3196 214.368 55.6196 213.768 57.3196 214.268C58.7196 214.668 59.6196 215.668 59.6196 216.868C59.6196 218.468 59.1196 219.468 56.4196 221.568C54.2196 223.168 52.2196 223.668 50.7196 223.668ZM48.5196 222.168C49.5196 222.768 52.4196 223.268 55.6196 220.668C58.1196 218.668 58.4196 217.968 58.4196 216.768C58.4196 215.668 57.4196 215.268 56.9196 215.168C55.6196 214.868 53.8196 215.268 53.0196 216.768C52.4196 217.968 51.1196 218.968 50.0196 219.868C49.2196 220.568 48.1196 221.368 48.1196 221.768C48.2196 221.868 48.3196 221.968 48.5196 222.168Z" fill="black"/>
<path d="M66.5191 225.167C67.6191 226.067 70.1191 225.867 72.8191 224.067C74.9191 222.667 76.9191 218.567 75.9191 217.567C73.0191 214.267 70.1191 216.267 69.3191 219.467C68.3191 223.267 64.3191 223.367 66.5191 225.167Z" fill="white"/>
<path d="M68.3193 226.167C67.4193 226.167 66.7193 225.967 66.2193 225.567C65.8193 225.267 65.3193 224.867 65.3193 224.267C65.3193 223.567 65.8193 223.167 66.5193 222.567C67.3193 221.867 68.4193 220.967 68.9193 219.267C69.4193 217.267 70.7193 215.767 72.3193 215.367C73.3193 215.167 74.8193 215.267 76.5193 217.167C76.8193 217.567 76.9193 218.067 76.8193 218.767C76.6193 220.467 75.0193 223.267 73.2193 224.467C71.3193 225.667 69.6193 226.167 68.3193 226.167ZM73.0193 216.367C72.8193 216.367 72.7193 216.367 72.5193 216.467C71.3193 216.767 70.3193 217.967 69.9193 219.567C69.4193 221.567 68.1193 222.667 67.2193 223.367C66.8193 223.667 66.4193 224.067 66.4193 224.267C66.4193 224.267 66.4193 224.467 66.9193 224.767C67.8193 225.467 70.1193 225.267 72.6193 223.567C74.1193 222.567 75.5193 220.067 75.7193 218.567C75.8193 218.067 75.7193 217.867 75.6193 217.767C74.8193 216.867 73.8193 216.367 73.0193 216.367Z" fill="black"/>
<path d="M59.6191 155.868L70.9191 177.468C70.9191 177.468 72.6191 176.568 74.7191 173.468C76.8191 170.368 77.0191 158.668 74.4191 156.968C71.8191 155.268 64.5191 151.168 64.5191 151.168L59.6191 155.868Z" fill="#DF846A"/>
<path d="M70.7195 178.168L59.0195 155.868L64.5195 150.468L64.8195 150.668C65.1195 150.868 72.1195 154.768 74.7195 156.468C76.6195 157.768 76.8195 163.068 76.8195 164.668C76.8195 167.668 76.4195 171.868 75.1195 173.768C72.9195 176.968 71.2195 177.868 71.1195 177.968L70.7195 178.168Z" fill="#AEC6F7" stroke="#111111" stroke-miterlimit="10"/>
<path d="M66.2193 156.368C66.2193 156.368 64.3193 151.668 64.5193 149.768C64.7193 147.768 64.5193 140.768 62.6193 139.568C59.1193 137.368 54.3193 139.868 54.3193 142.968C54.3193 146.668 55.2193 151.768 56.9193 152.368C58.6193 152.968 59.9193 161.868 59.9193 161.868L66.2193 156.368Z" fill="#DF846A"/>
<path d="M49.7198 170.968C46.7198 170.968 42.4198 170.468 37.9198 168.368C36.9198 167.868 36.4198 166.668 36.9198 165.668C37.4198 164.668 38.6198 164.168 39.6198 164.668C44.5198 166.968 49.3198 166.968 51.6198 166.768L53.1198 152.968C53.2198 151.868 54.3198 150.468 55.5198 150.568C55.5198 150.568 57.3198 152.268 57.2198 153.468L55.5198 168.868C55.4198 169.768 54.7198 170.468 53.9198 170.668C53.7198 170.668 52.1198 170.968 49.7198 170.968Z" fill="black"/>
<path d="M66.2193 156.367C66.2193 156.367 70.0193 159.867 70.1193 160.967C70.2193 162.067 72.2193 181.867 69.7193 183.367C67.2193 184.767 61.3193 182.067 57.9193 179.867C55.3193 178.067 54.8193 175.067 55.4193 172.767C57.5193 163.367 54.3193 151.867 54.3193 151.867C54.3193 151.867 54.7193 151.167 55.7193 151.167C56.4193 151.167 55.5193 151.567 56.9193 152.367C56.9193 152.367 58.6193 152.367 58.6193 152.867C58.6193 153.867 58.8193 155.567 60.5193 156.667C63.0193 158.267 66.2193 156.367 66.2193 156.367Z" fill="white"/>
<path d="M67.8195 184.268C64.7195 184.268 60.2195 182.068 57.5195 180.268C54.6195 178.368 54.2195 174.968 54.7195 172.668C56.8195 163.468 53.7195 152.068 53.6195 151.968L53.5195 151.768L53.6195 151.568C53.6195 151.468 54.0195 150.968 54.8195 150.668C55.0195 150.668 55.1195 150.568 55.3195 150.568C55.8195 150.468 55.7195 151.468 56.5195 152.068C57.2195 152.568 58.9195 152.768 58.9195 152.968C58.9195 153.868 59.1195 155.268 60.6195 156.168C62.9195 157.568 65.8195 155.968 65.8195 155.968L66.1195 155.768L66.4195 156.068C67.3195 156.868 70.3195 159.768 70.4195 160.968V161.468C72.3195 182.368 70.3195 183.468 69.7195 183.768C69.3195 184.168 68.6195 184.268 67.8195 184.268ZM55.3195 154.268C56.1195 158.268 57.3195 165.968 55.8195 172.868C55.3195 174.968 55.7195 177.767 58.1195 179.368C62.0195 181.968 67.4195 184.068 69.4195 182.868C69.7195 182.667 71.3195 180.768 69.6195 161.468V160.968C69.6195 160.468 67.8195 158.568 66.2195 156.968C65.3195 157.368 62.6195 158.468 60.3195 156.968C58.5195 155.868 58.1195 153.968 58.2195 152.668C58.2195 152.468 57.1195 152.568 57.1195 152.468C55.8195 151.968 55.1195 153.168 55.3195 154.268Z" fill="black"/>
<path d="M74.2198 215.567C74.1198 215.467 69.2198 207.267 68.8198 199.967C68.4198 192.067 71.1198 189.367 70.9198 184.167C70.7198 179.767 63.8198 182.167 59.1198 179.467C57.6198 178.667 55.5198 176.667 55.5198 176.667C54.9198 179.567 51.9198 194.367 52.3198 198.667C52.6198 201.867 52.4198 211.467 52.3198 214.867C52.3198 216.567 53.6198 217.967 55.3198 218.067H55.4198C57.1198 218.067 58.4198 216.767 58.5198 215.067C58.5198 214.567 58.9198 202.267 58.5198 198.067C58.3198 196.467 59.5198 188.767 59.9198 187.067C60.3198 185.367 62.7198 186.667 62.7198 188.267C62.7198 189.867 62.6198 195.367 62.8198 200.067C63.2198 208.967 68.9198 218.167 69.1198 218.567C69.7198 219.467 70.7198 220.067 71.7198 220.067C72.3198 220.067 72.8198 219.967 73.3198 219.567C74.6198 218.967 75.1198 217.067 74.2198 215.567Z" fill="#AEC6F7" stroke="#111111" stroke-miterlimit="10"/>
<path d="M71.6195 220.768C70.3195 220.768 69.2195 220.168 68.5195 219.068C68.3195 218.668 62.6195 209.268 62.1195 200.368C61.9195 196.468 62.0195 192.168 62.0195 189.868C62.0195 189.268 62.0195 188.868 62.0195 188.468C62.0195 187.668 61.2195 186.968 60.7195 186.968C60.5195 186.968 60.3195 186.968 60.3195 187.368C59.9195 189.068 58.8195 196.668 58.9195 198.168C59.3195 202.268 59.0195 213.868 58.9195 215.268C58.8195 217.268 57.3195 218.768 55.3195 218.768C53.2195 218.668 51.6195 217.068 51.7195 215.068C51.8195 211.668 52.0195 201.968 51.7195 198.868C51.3195 194.668 54.1195 180.868 54.9195 176.668L55.1195 175.768L55.8195 176.368C55.8195 176.368 57.9195 178.268 59.3195 179.068C61.2195 180.068 63.4195 180.368 65.5195 180.568C68.5195 180.868 71.3195 181.168 71.4195 184.168C71.5195 186.568 71.0195 188.368 70.5195 190.368C69.9195 192.768 69.1195 195.568 69.3195 199.868C69.6195 206.968 74.6195 215.068 74.6195 215.168C75.6195 216.868 75.1195 219.068 73.4195 220.068C72.9195 220.668 72.2195 220.768 71.6195 220.768ZM60.6195 185.968C60.7195 185.968 60.7195 185.968 60.8195 185.968C61.9195 186.068 63.1195 187.168 63.1195 188.468C63.1195 188.768 63.1195 189.268 63.1195 189.868C63.1195 192.168 63.0195 196.468 63.2195 200.268C63.6195 208.968 69.2195 218.168 69.4195 218.568C69.9195 219.368 70.7195 219.768 71.6195 219.768C72.1195 219.768 72.5195 219.668 72.9195 219.368C74.1195 218.668 74.5195 217.068 73.7195 215.868C73.5195 215.568 68.6195 207.368 68.2195 200.068C68.0195 195.568 68.7195 192.768 69.4195 190.268C69.9195 188.268 70.4195 186.568 70.3195 184.368C70.2195 182.368 68.4195 182.068 65.3195 181.768C63.2195 181.568 60.8195 181.268 58.8195 180.168C57.8195 179.568 56.5195 178.568 55.8195 177.868C54.9195 182.068 52.4195 194.968 52.8195 198.868C53.1195 202.068 52.9195 211.768 52.8195 215.168C52.8195 216.568 53.9195 217.768 55.3195 217.768C56.8195 217.768 57.9195 216.668 57.9195 215.268C57.9195 213.968 58.2195 202.368 57.9195 198.368C57.7195 196.568 59.0195 188.768 59.3195 187.268C59.4195 186.368 59.9195 185.968 60.6195 185.968Z" fill="black"/>
<path d="M43.4196 169.668L37.8196 166.468L34.0196 156.968C33.9196 156.668 34.2196 156.368 34.5196 156.568L38.8196 159.068C39.1196 159.268 39.3196 159.468 39.5196 159.868L43.4196 169.668Z" fill="black"/>
<path d="M37.9197 167.368C37.6197 167.368 37.2197 167.268 36.9197 167.068C35.3197 165.768 34.5197 163.568 34.7197 160.968C34.8197 160.168 35.5197 159.468 36.4197 159.568C37.2197 159.668 37.9197 160.368 37.8197 161.268C37.7197 162.368 37.8197 163.868 38.9197 164.668C39.6197 165.168 39.7197 166.168 39.1197 166.868C38.8197 167.168 38.4197 167.368 37.9197 167.368Z" fill="#DF846A"/>
<path d="M37.9195 167.868C37.4195 167.868 37.0195 167.668 36.6195 167.368C34.8195 165.968 34.0195 163.668 34.2195 160.868C34.3195 159.768 35.3195 158.868 36.4195 158.968C37.5195 159.068 38.4195 160.068 38.3195 161.168C38.2195 162.168 38.3195 163.468 39.2195 164.168C39.6195 164.468 39.9195 164.968 40.0195 165.568C40.1195 166.068 39.9195 166.668 39.6195 167.068C39.2195 167.568 38.6195 167.868 37.9195 167.868ZM36.3195 160.068C35.8195 160.068 35.3195 160.468 35.3195 160.968C35.1195 163.368 35.8195 165.368 37.3195 166.568C37.7195 166.868 38.4195 166.868 38.7195 166.368C39.1195 165.968 39.0195 165.268 38.5195 164.968C37.5195 164.168 37.1195 162.868 37.3195 161.168C37.3195 160.868 37.2195 160.668 37.1195 160.368C36.9195 160.268 36.7195 160.068 36.3195 160.068C36.4195 160.068 36.4195 160.068 36.3195 160.068Z" fill="black"/>
<path d="M67.2193 192.768C66.9193 192.768 66.7193 192.668 66.4193 192.568C65.3193 192.168 64.8193 190.968 65.3193 189.868C65.3193 189.768 68.1193 182.968 68.4193 178.468C68.6193 175.768 67.8193 170.368 67.0193 166.368C66.7193 164.768 67.9193 161.868 68.8193 159.568C69.2193 158.468 70.0193 160.468 70.3193 161.568C70.4193 162.068 72.9193 173.668 72.5193 178.768C72.1193 183.968 69.2193 191.168 69.1193 191.468C68.8193 192.268 68.0193 192.768 67.2193 192.768Z" fill="black"/>
<path d="M66.7189 193.568C66.5189 193.568 66.4189 193.568 66.2189 193.468C65.4189 193.168 65.0189 192.368 65.2189 191.468L65.6189 190.168C65.9189 189.368 66.7189 188.968 67.6189 189.168C68.4189 189.468 68.8189 190.268 68.6189 191.168L68.2189 192.468C67.9189 193.168 67.3189 193.568 66.7189 193.568Z" fill="#DF846A"/>
<path d="M66.7194 194.068C66.5194 194.068 66.3194 194.068 66.0194 193.968C65.5194 193.768 65.1194 193.468 64.8194 192.968C64.6194 192.468 64.5194 191.968 64.7194 191.368L65.2194 190.068C65.4194 189.568 65.7194 189.168 66.2194 188.868C66.7194 188.668 67.3194 188.568 67.8194 188.768C68.9194 189.168 69.5194 190.268 69.1194 191.368L68.6194 192.668C68.4194 193.568 67.6194 194.068 66.7194 194.068ZM67.1194 189.668C66.9194 189.668 66.8194 189.668 66.6194 189.768C66.4194 189.868 66.2194 190.068 66.1194 190.368L65.6194 191.768C65.5194 192.068 65.5194 192.268 65.7194 192.568C65.8194 192.768 66.0194 192.968 66.3194 193.068C66.8194 193.268 67.4194 192.968 67.6194 192.468L68.1194 191.068C68.2194 190.768 68.2194 190.568 68.0194 190.268C67.9194 190.068 67.7194 189.868 67.4194 189.768C67.4194 189.668 67.3194 189.668 67.1194 189.668Z" fill="black"/>
<path d="M54.2197 142.868C54.2197 142.868 55.7197 139.868 58.5197 144.268C59.6197 145.968 59.5197 146.268 60.2197 146.468C60.9197 146.568 62.0197 143.568 62.5197 146.168C62.9197 148.368 62.4197 150.368 63.9197 150.568C65.4197 150.768 67.2197 147.568 66.9197 145.468C66.5197 143.368 64.6197 138.568 61.7197 138.168C58.5197 137.768 55.3197 137.668 54.2197 142.868Z" fill="black"/>
<path d="M68.2203 174.567C67.9203 174.567 67.6203 174.467 67.4203 174.267C65.0203 171.667 63.3203 167.467 63.3203 163.867C63.3203 159.867 66.0203 156.767 68.5203 155.967C69.0203 155.767 69.6203 156.067 69.8203 156.567C70.0203 157.067 69.7203 157.667 69.2203 157.867C67.3203 158.467 65.4203 160.867 65.4203 163.867C65.4203 166.967 66.8203 170.567 68.9203 172.867C69.3203 173.267 69.3203 173.967 68.8203 174.367C68.7203 174.467 68.4203 174.567 68.2203 174.567Z" fill="#AEC6F7" stroke="#111111" stroke-miterlimit="10"/>
<path d="M68.2199 175.067C67.8199 175.067 67.4199 174.867 67.1199 174.567C64.6199 171.867 62.9199 167.567 62.9199 163.867C62.9199 159.567 65.8199 156.367 68.4199 155.467C69.2199 155.167 70.1199 155.667 70.4199 156.467C70.5199 156.867 70.5199 157.267 70.3199 157.667C70.1199 158.067 69.8199 158.267 69.4199 158.467C67.7199 159.067 66.0199 161.267 66.0199 163.967C66.0199 166.967 67.4199 170.367 69.4199 172.567C69.7199 172.867 69.8199 173.267 69.8199 173.667C69.8199 174.067 69.6199 174.467 69.3199 174.767C68.9199 174.967 68.6199 175.067 68.2199 175.067ZM68.9199 156.367C68.8199 156.367 68.8199 156.367 68.7199 156.367C66.4199 157.167 63.9199 160.067 63.9199 163.767C63.9199 167.167 65.5199 171.267 67.8199 173.767C68.0199 173.967 68.3199 173.967 68.5199 173.767C68.6199 173.667 68.7199 173.567 68.7199 173.367C68.7199 173.267 68.7199 173.067 68.6199 172.967C66.4199 170.567 64.9199 166.867 64.9199 163.667C64.9199 160.467 67.0199 157.867 69.0199 157.267C69.1199 157.267 69.2199 157.167 69.3199 156.967C69.4199 156.867 69.4199 156.667 69.3199 156.567C69.3199 156.567 69.1199 156.367 68.9199 156.367Z" fill="black"/>
<path d="M56.1195 166.968C54.5195 164.468 53.5195 161.268 53.5195 158.468C53.5195 154.468 56.2195 151.368 58.7195 150.568C59.2195 150.368 59.8195 150.668 60.0195 151.168C60.2195 151.668 59.9195 152.268 59.4195 152.468C57.5195 153.068 55.6195 155.468 55.6195 158.468C55.6195 159.568 55.8195 160.668 56.1195 161.768V166.968Z" fill="#AEC6F7" stroke="#111111" stroke-miterlimit="10"/>
<path d="M55.9195 167.568C54.1195 164.968 53.0195 161.468 53.0195 158.468C53.0195 155.668 54.2195 153.268 55.9195 151.768L59.5195 153.068C57.8195 153.668 56.1195 155.868 56.1195 158.568C56.1195 161.468 56.3195 168.168 55.9195 167.568ZM56.8195 152.268C55.3195 153.568 54.0195 155.868 54.0195 158.468C54.0195 160.468 54.5195 162.668 55.4195 164.668C55.6195 165.068 55.4195 161.668 55.2195 160.668C55.1195 159.968 55.0195 159.168 55.0195 158.468C55.0195 155.868 56.5195 153.568 58.1195 152.468L56.8195 152.268Z" fill="black"/>
<path d="M66.2197 156.967C66.0197 156.967 65.8197 156.867 65.7197 156.667C65.6197 156.467 63.7197 151.867 64.0197 149.767C64.3197 147.367 63.9197 140.967 62.3197 139.967C60.4197 138.767 58.2197 139.167 56.9197 139.967C55.6197 140.667 54.8197 141.767 54.8197 142.967C54.8197 147.267 55.9197 151.467 57.1197 151.867C58.8197 152.467 60.2197 152.767 60.2197 152.767C60.5197 152.867 60.7197 153.067 60.6197 153.367C60.5197 153.667 60.3197 153.867 60.0197 153.767C59.9197 153.767 58.5197 153.367 56.7197 152.767C54.5197 151.967 53.7197 146.267 53.7197 142.867C53.7197 141.367 54.7197 139.867 56.3197 138.967C57.9197 138.067 60.5197 137.567 62.8197 139.067C65.3197 140.567 65.1197 148.667 65.0197 149.767C64.8197 151.267 66.2197 154.867 66.7197 156.167C66.8197 156.467 66.7197 156.767 66.4197 156.867C66.3197 156.967 66.2197 156.967 66.2197 156.967Z" fill="black"/>
<path d="M69.9199 162.567C69.6199 162.567 69.4199 162.267 69.4199 162.067C69.6199 158.467 71.5199 157.067 72.3199 156.667C73.2199 156.167 74.2199 156.167 74.7199 156.567C74.9199 156.767 75.0199 157.067 74.9199 157.267C74.7199 157.467 74.4199 157.567 74.2199 157.467C74.0199 157.367 73.5199 157.267 72.8199 157.667C72.2199 157.967 70.7199 159.067 70.5199 162.167C70.4199 162.367 70.2199 162.567 69.9199 162.567Z" fill="black"/>
<path d="M216.5 302.6L104.8 296.8L77.7998 195L137.8 230.3L188.6 201L204.9 184.8H216.5L318.5 243.7L216.5 302.6Z" fill="#BABCBE"/>
<path d="M33.0002 258.6L14.7002 248C14.7002 216 33.0002 180 33.0002 180C33.0002 180 26.2002 175.3 26.2002 164.9C26.2002 154.5 33.0002 145 33.0002 145C33.0002 145 1.7002 110.4 1.7002 59.6002C1.7002 45.8002 33.0002 77.7002 33.0002 77.7002V258.6Z" fill="#AEC6F7" stroke="#111111" stroke-miterlimit="10"/>
<path d="M32.4 259.6L14.1 249L13.5 248C13.5 218.8 28.8 186 31.5 180.4C29.6 178.7 25 173.8 25 165C25 156 29.9 147.7 31.5 145.2C27.2 140 0.5 106.3 0.5 59.6001C0.5 56.8001 1.7 55.7001 2.8 55.2001C9.5 52.5001 29.8 72.7001 33.8 76.8001L34.1 77.6V258.6L32.4 259.6ZM15.8 247.4L31.8 256.6V185.2C27 195.9 16 222.9 15.8 247.4ZM31.8 149.3C29.9 152.9 27.3 158.9 27.3 165C27.3 171.3 29.9 175.3 31.8 177.4V149.3ZM4.4 57.3001C4.1 57.3001 3.9 57.3001 3.7 57.4001C3.2 57.6001 2.9 58.4001 2.9 59.6001C2.9 101.8 25 133.2 31.9 141.9V78.2C22.8 69 9.1 57.3001 4.4 57.3001Z" fill="#AEC6F7" stroke="#111111" stroke-miterlimit="10"/>
<path d="M33 258.6L51.3 248C51.3 216 33 180 33 180C33 180 39.8 175.3 39.8 164.9C39.8 154.5 33 145 33 145C33 145 64.3 110.2 64.3 59.5002C64.3 45.8002 33 77.7002 33 77.7002V258.6Z" fill="#111111"/>
<path d="M32.9998 259.8C32.7998 259.8 32.5998 259.7 32.3998 259.6C31.9998 259.4 31.7998 259 31.7998 258.6V77.6C31.7998 77.3001 31.8998 77.0001 32.0998 76.8001C36.0998 72.7001 56.3998 52.5001 63.0998 55.2001C64.0998 55.6001 65.3998 56.7001 65.3998 59.6001C65.3998 106.4 38.6998 140.1 34.3998 145.2C35.9998 147.7 40.8998 156 40.8998 165C40.8998 173.8 36.2998 178.7 34.3998 180.4C37.0998 186 52.3998 218.9 52.3998 248C52.3998 248.4 52.1998 248.8 51.7998 249L33.4998 259.6C33.3998 259.8 33.1998 259.8 32.9998 259.8ZM34.0998 185.3V256.7L50.0998 247.5C49.8998 222.9 38.8998 195.9 34.0998 185.3ZM34.0998 149.3V177.5C35.9998 175.4 38.5998 171.4 38.5998 165.1C38.5998 158.9 35.9998 152.9 34.0998 149.3ZM34.0998 78.2V142C40.9998 133.3 63.0998 101.9 63.0998 59.7001C63.0998 58.4001 62.7998 57.7001 62.2998 57.5001C58.4998 55.9001 43.6998 68.5 34.0998 78.2Z" fill="#111111"/>
<path d="M103.3 52.1001L204.9 57.1001V240L103.3 181.2V52.1001Z" fill="#AEC6F7" stroke="#111111" stroke-miterlimit="10"/>
<path d="M204.9 241.1C204.7 241.1 204.5 241 204.3 240.9L102.7 182.1C102.3 181.9 102.1 181.5 102.1 181.1V52.1002C102.1 51.8002 102.2 51.5002 102.5 51.3002C102.7 51.1002 103 50.9002 103.4 51.0002L205 56.0002C205.6 56.0002 206.1 56.5002 206.1 57.2002V240C206.1 240.4 205.9 240.8 205.5 241C205.3 241.1 205.1 241.1 204.9 241.1ZM104.4 180.6L203.7 238V58.2002L104.4 53.3002V180.6Z" fill="black"/>
<path d="M204.9 83.7999L103.3 24.9999V16.3999L204.9 75.0999V83.7999Z" fill="white"/>
<path d="M204.9 84.9C204.7 84.9 204.5 84.8 204.3 84.7L102.7 26C102.3 25.8 102.1 25.4 102.1 25V16.4C102.1 16 102.3 15.6 102.7 15.4C103.1 15.2 103.5 15.2 103.9 15.4L205.5 74.1C205.9 74.3 206.1 74.7 206.1 75.1V83.7C206.1 84.1 205.9 84.5 205.5 84.7C205.3 84.9 205.1 84.9 204.9 84.9ZM104.4 24.4L203.7 81.8V75.8L104.4 18.4V24.4Z" fill="black"/>
<path d="M204.9 101.1L103.3 42.3997V33.6997L204.9 92.4997V101.1Z" fill="white"/>
<path d="M204.9 102.3C204.7 102.3 204.5 102.2 204.3 102.1L102.7 43.3999C102.3 43.1999 102.1 42.7999 102.1 42.3999V33.7999C102.1 33.3999 102.3 32.9999 102.7 32.7999C103.1 32.5999 103.5 32.5999 103.9 32.7999L205.5 91.4999C205.9 91.6999 206.1 92.0999 206.1 92.4999V101.1C206.1 101.5 205.9 101.9 205.5 102.1C205.3 102.2 205.1 102.3 204.9 102.3ZM104.4 41.6999L203.7 99.0999V93.0999L104.4 35.6999V41.6999Z" fill="black"/>
<path d="M204.9 118.4L103.3 59.7V51L204.9 109.7V118.4Z" fill="white"/>
<path d="M204.9 119.6C204.7 119.6 204.5 119.5 204.3 119.4L102.7 60.7001C102.3 60.5001 102.1 60.1001 102.1 59.7001V51.0001C102.1 50.6001 102.3 50.2001 102.7 50.0001C103.1 49.8001 103.5 49.8001 103.9 50.0001L205.5 108.7C205.9 108.9 206.1 109.3 206.1 109.7V118.3C206.1 118.7 205.9 119.1 205.5 119.3C205.3 119.5 205.1 119.6 204.9 119.6ZM104.4 59.0001L203.7 116.4V110.4L104.4 53.0001V59.0001Z" fill="black"/>
<path d="M204.9 135.9L103.3 77.2V68.5L204.9 127.2V135.9Z" fill="white"/>
<path d="M204.9 137C204.7 137 204.5 136.9 204.3 136.8L102.7 78.1001C102.3 77.9001 102.1 77.5001 102.1 77.1001V68.5001C102.1 68.1001 102.3 67.7001 102.7 67.5001C103.1 67.3001 103.5 67.3001 103.9 67.5001L205.5 126.2C205.9 126.4 206.1 126.8 206.1 127.2V135.8C206.1 136.2 205.9 136.6 205.5 136.8C205.3 137 205.1 137 204.9 137ZM104.4 76.5001L203.7 133.9V127.9L104.4 70.5001V76.5001Z" fill="black"/>
<path d="M204.9 153.2L103.3 94.4999V85.8999L204.9 144.6V153.2Z" fill="white"/>
<path d="M204.9 154.4C204.7 154.4 204.5 154.3 204.3 154.2L102.7 95.5C102.3 95.3 102.1 94.9 102.1 94.5V85.9C102.1 85.5 102.3 85.1 102.7 84.9C103.1 84.7 103.5 84.7 103.9 84.9L205.5 143.6C205.9 143.8 206.1 144.2 206.1 144.6V153.2C206.1 153.6 205.9 154 205.5 154.2C205.3 154.3 205.1 154.4 204.9 154.4ZM104.4 93.8L203.7 151.2V145.2L104.4 87.8V93.8Z" fill="black"/>
<path d="M204.9 170.5L103.3 111.8V103.1L204.9 161.9V170.5Z" fill="white"/>
<path d="M204.9 171.7C204.7 171.7 204.5 171.6 204.3 171.5L102.7 112.8C102.3 112.6 102.1 112.2 102.1 111.8V103.2C102.1 102.8 102.3 102.4 102.7 102.2C103.1 102 103.5 102 103.9 102.2L205.5 160.9C205.9 161.1 206.1 161.5 206.1 161.9V170.5C206.1 170.9 205.9 171.3 205.5 171.5C205.3 171.6 205.1 171.7 204.9 171.7ZM104.4 111.1L203.7 168.5V162.5L104.4 105.1V111.1Z" fill="black"/>
<path d="M204.9 187.8L103.3 129.1V120.4L204.9 179.1V187.8Z" fill="white"/>
<path d="M204.9 188.9C204.7 188.9 204.5 188.8 204.3 188.7L102.7 130C102.3 129.8 102.1 129.4 102.1 129V120.4C102.1 120 102.3 119.6 102.7 119.4C103.1 119.2 103.5 119.2 103.9 119.4L205.5 178.1C205.9 178.3 206.1 178.7 206.1 179.1V187.7C206.1 188.1 205.9 188.5 205.5 188.7C205.3 188.9 205.1 188.9 204.9 188.9ZM104.4 128.4L203.7 185.8V179.8L104.4 122.4V128.4Z" fill="black"/>
<path d="M204.9 205.1L103.3 146.4V137.8L204.9 196.5V205.1Z" fill="white"/>
<path d="M204.9 206.3C204.7 206.3 204.5 206.2 204.3 206.1L102.7 147.4C102.3 147.2 102.1 146.8 102.1 146.4V137.8C102.1 137.4 102.3 137 102.7 136.8C103.1 136.6 103.5 136.6 103.9 136.8L205.5 195.5C205.9 195.7 206.1 196.1 206.1 196.5V205.1C206.1 205.5 205.9 205.9 205.5 206.1C205.3 206.2 205.1 206.3 204.9 206.3ZM104.4 145.8L203.7 203.2V197.2L104.4 139.8V145.8Z" fill="black"/>
<path d="M204.9 222.4L103.3 163.7V155.1L204.9 213.8V222.4Z" fill="white"/>
<path d="M204.9 223.6C204.7 223.6 204.5 223.5 204.3 223.4L102.7 164.7C102.3 164.5 102.1 164.1 102.1 163.7V155.1C102.1 154.7 102.3 154.3 102.7 154.1C103.1 153.9 103.5 153.9 103.9 154.1L205.5 212.8C205.9 213 206.1 213.4 206.1 213.8V222.4C206.1 222.8 205.9 223.2 205.5 223.4C205.3 223.5 205.1 223.6 204.9 223.6ZM104.4 163L203.7 220.4V214.4L104.4 157V163Z" fill="black"/>
<path d="M204.9 239.9L103.3 181.2V172.5L204.9 231.3V239.9Z" fill="white"/>
<path d="M204.9 241.1C204.7 241.1 204.5 241 204.3 240.9L102.7 182.2C102.3 182 102.1 181.6 102.1 181.2V172.6C102.1 172.2 102.3 171.8 102.7 171.6C103.1 171.4 103.5 171.4 103.9 171.6L205.5 230.3C205.9 230.5 206.1 230.9 206.1 231.3V239.9C206.1 240.3 205.9 240.7 205.5 240.9C205.3 241 205.1 241.1 204.9 241.1ZM104.4 180.5L203.7 237.9V231.9L104.4 174.5V180.5Z" fill="black"/>
<path d="M206.3 240.8C205.6 241.2 204.3 241.2 203.6 240.8C202.9 240.4 202.9 239.7 203.6 239.2C204.3 238.8 205.6 238.8 206.3 239.2C207 239.6 207 240.3 206.3 240.8Z" fill="black"/>
<path d="M204.9 241.2C204.3 241.2 203.7 240.7 203.7 240V53.7C203.7 53.1 204.2 52.5 204.9 52.5C205.6 52.5 206.1 53 206.1 53.7V240C206.1 240.7 205.6 241.2 204.9 241.2Z" fill="black"/>
<path d="M103.3 299.9C102.7 299.9 102.1 299.4 102.1 298.7V112.4C102.1 111.8 102.6 111.2 103.3 111.2C103.9 111.2 104.5 111.7 104.5 112.4V298.7C104.4 299.4 103.9 299.9 103.3 299.9Z" fill="black"/>
<path d="M103.3 298.7L85 288.2C85 256.2 103.3 220.2 103.3 220.2C103.3 220.2 96.5 215.5 96.5 205.1C96.5 194.7 103.3 185.2 103.3 185.2C103.3 185.2 72 150.5 72 99.6998C72 85.8998 103.3 117.8 103.3 117.8V298.7Z" fill="#AEC6F7" stroke="#111111" stroke-miterlimit="10"/>
<path d="M86.1002 287.5L102.1 296.7V225.3C97.3002 236 86.3002 263 86.1002 287.5ZM102.1 189.4C100.2 193 97.6002 199 97.6002 205.1C97.6002 211.4 100.2 215.4 102.1 217.5V189.4ZM74.7002 97.3999C74.4002 97.3999 74.2002 97.3999 74.0002 97.4999C73.5002 97.6999 73.2002 98.4999 73.2002 99.6999C73.2002 141.9 95.3002 173.3 102.2 182V118.2C93.1002 109.1 79.4002 97.3999 74.7002 97.3999Z" fill="#AEC6F7" stroke="#111111" stroke-miterlimit="10"/>
<path d="M103.3 298.7L121.6 288.1C121.6 256.1 103.3 220.1 103.3 220.1C103.3 220.1 110.1 215.4 110.1 205C110.1 194.6 103.3 185.1 103.3 185.1C103.3 185.1 134.6 150.3 134.6 99.6002C134.6 85.8002 103.3 117.7 103.3 117.7V298.7Z" fill="#111111"/>
<path d="M103.3 299.9C103.1 299.9 102.9 299.8 102.7 299.7C102.3 299.5 102.1 299.1 102.1 298.7V117.7C102.1 117.4 102.2 117.1 102.4 116.9C106.4 112.8 126.7 92.6002 133.4 95.3002C134.4 95.7002 135.7 96.8001 135.7 99.7001C135.7 146.5 109 180.2 104.7 185.3C106.3 187.8 111.2 196.1 111.2 205.1C111.2 213.9 106.6 218.8 104.7 220.5C107.4 226.1 122.7 259 122.7 288.1C122.7 288.5 122.5 288.9 122.1 289.1L103.8 299.7C103.7 299.8 103.5 299.9 103.3 299.9ZM104.4 225.4V296.8L120.4 287.6C120.2 263 109.2 236 104.4 225.4ZM104.4 189.4V217.6C106.3 215.5 108.9 211.5 108.9 205.2C108.9 199 106.3 193 104.4 189.4ZM104.4 118.2V182C111.3 173.3 133.4 141.9 133.4 99.7001C133.4 98.4001 133.1 97.7001 132.6 97.5001C128.8 95.9001 114 108.6 104.4 118.2Z" fill="#111111"/>
<path d="M103.3 118L1.7002 59.3002V53.7002L103.3 112.4V118Z" fill="#AEC6F7" stroke="#111111" stroke-miterlimit="10"/>
<path d="M103.3 112.4L204.9 53.6999C204.9 53.6999 141.8 48.7999 103.3 1.3999C64.8002 48.7999 1.7002 53.6999 1.7002 53.6999L103.3 112.4Z" fill="#AEC6F7" stroke="#111111" stroke-miterlimit="10"/>
<path d="M5.2002 54.4998L103.2 111.1L201.2 54.4998C187.4 52.5998 136.3 43.1998 103.2 3.2998C70.1002 43.0998 19.0002 52.5998 5.2002 54.4998Z" fill="#AEC6F7" stroke="#111111" stroke-miterlimit="10"/>
<path d="M96.4998 62.8002L90.9998 59.7002L14.2998 15.4002L8.7998 12.2002C15.4998 29.4002 8.7998 49.8002 8.7998 49.8002L14.2998 53.0002L90.9998 97.3002L96.4998 100.5C96.4998 100.4 89.7998 72.3002 96.4998 62.8002Z" fill="white"/>
<path d="M95.8998 101.4L8.2998 50.8002L7.7998 49.4002C7.8998 49.2002 14.2998 29.2002 7.7998 12.6002L9.4998 11.2002L97.0998 61.8002L97.4998 63.5002C91.1998 72.4002 97.5998 99.9002 97.6998 100.2L95.8998 101.4ZM10.1998 49.3002L94.7998 98.1002C93.3998 91.1002 89.9998 71.9002 94.8998 63.2002L10.8998 14.8002C15.3998 29.5002 11.3998 45.4002 10.1998 49.3002Z" fill="black"/>
<path d="M110.701 123C109.601 123 108.601 122.4 107.601 121.6C106.401 120.8 105.101 119.8 103.301 119.8C101.501 119.8 100.201 120.7 99.0006 121.6C97.9006 122.3 97.0006 123 95.9006 123C95.2006 123 94.4006 122.7 93.5006 122.2C91.2006 120.8 90.0006 118.9 88.7006 116.8C87.3006 114.6 85.9006 112.3 83.1006 110.6C81.8006 109.9 80.7006 109.5 79.7006 109.5C78.5006 109.5 77.6006 109.9 76.8006 110.3C76.1006 110.6 75.6006 110.9 75.0006 110.9C74.4006 110.9 73.6006 110.6 72.7006 110.1C70.4006 108.7 69.2006 106.8 67.9006 104.7C66.5006 102.5 65.1006 100.2 62.3006 98.4999C61.0006 97.7999 59.9006 97.3999 58.9006 97.3999C57.7006 97.3999 56.8006 97.7999 56.0006 98.1999C55.3006 98.4999 54.8006 98.7999 54.2006 98.7999C53.6006 98.7999 52.8006 98.4999 51.9006 97.9999C49.6006 96.5999 48.4006 94.6999 47.1006 92.5999C45.7006 90.3999 44.3006 88.0999 41.5006 86.3999C40.2006 85.6999 39.1006 85.2999 38.1006 85.2999C36.9006 85.2999 36.0006 85.6999 35.2006 86.0999C34.5006 86.3999 34.0006 86.6999 33.4006 86.6999C32.8006 86.6999 32.0006 86.3999 31.1006 85.8999C28.8006 84.4999 27.6006 82.5999 26.3006 80.4999C24.9006 78.2999 23.5006 75.9999 20.7006 74.2999C19.4006 73.5999 18.3006 73.1999 17.3006 73.1999C16.1006 73.1999 15.2006 73.5999 14.4006 73.9999C13.7006 74.2999 13.2006 74.5999 12.6006 74.5999C12.0006 74.5999 11.2006 74.2999 10.3006 73.7999C7.80059 72.3999 6.80059 70.6999 5.60059 68.7999C4.90059 67.6999 4.20059 66.4999 3.10059 65.2999V60.9999L103.001 118.2C103.201 118.3 103.401 118.4 103.601 118.4C103.801 118.4 104.001 118.4 104.201 118.2L204.101 60.8999V65.5999C203.001 66.7999 202.301 67.9999 201.601 69.0999C200.401 70.9999 199.301 72.6999 196.801 74.0999C195.901 74.5999 195.201 74.8999 194.501 74.8999C193.801 74.8999 193.301 74.5999 192.701 74.2999C191.901 73.8999 191.001 73.4999 189.801 73.4999C188.701 73.4999 187.601 73.8999 186.401 74.5999C183.501 76.2999 182.101 78.5999 180.801 80.7999C179.501 82.8999 178.401 84.7999 176.001 86.1999C175.101 86.6999 174.401 86.9999 173.701 86.9999C173.001 86.9999 172.501 86.6999 171.901 86.3999C171.101 85.9999 170.201 85.5999 169.001 85.5999C167.901 85.5999 166.801 85.9999 165.601 86.6999C162.701 88.3999 161.301 90.6999 160.001 92.8999C158.701 94.9999 157.501 96.8999 155.201 98.2999C154.301 98.7999 153.601 99.0999 152.901 99.0999C152.201 99.0999 151.701 98.7999 151.101 98.4999C150.301 98.0999 149.401 97.6999 148.201 97.6999C147.101 97.6999 146.001 98.0999 144.801 98.7999C141.901 100.5 140.501 102.8 139.201 105C137.901 107.1 136.701 109 134.401 110.4C133.501 110.9 132.801 111.2 132.101 111.2C131.401 111.2 130.901 110.9 130.301 110.6C129.501 110.2 128.601 109.8 127.401 109.8C126.301 109.8 125.201 110.2 124.001 110.9C121.101 112.6 119.701 114.9 118.401 117.1C117.101 119.2 115.901 121.1 113.601 122.5C112.201 122.8 111.401 123 110.701 123Z" fill="#111111"/>
<path d="M202.6 62.8999V65.0999C201.6 66.1999 200.9 67.3999 200.3 68.3999C199.1 70.2999 198.2 71.7999 195.9 72.9999C195.2 73.3999 194.6 73.5999 194.2 73.5999C193.8 73.5999 193.5 73.3999 192.9 73.0999C192.1 72.6999 191 72.1999 189.5 72.1999C188.2 72.1999 186.9 72.5999 185.5 73.3999C182.4 75.1999 180.8 77.6999 179.5 79.9999C178.3 81.9999 177.2 83.7999 175.1 84.9999C174.4 85.3999 173.8 85.5999 173.4 85.5999C173 85.5999 172.7 85.3999 172.1 85.0999C171.3 84.6999 170.2 84.1999 168.7 84.1999C167.4 84.1999 166.1 84.5999 164.7 85.3999C161.6 87.1999 160 89.6999 158.7 91.9999C157.5 93.9999 156.4 95.7999 154.3 96.9999C153.6 97.3999 153 97.5999 152.6 97.5999C152.2 97.5999 151.9 97.3999 151.3 97.0999C150.5 96.6999 149.4 96.1999 147.9 96.1999C146.6 96.1999 145.3 96.5999 143.9 97.3999C140.8 99.1999 139.2 101.7 137.9 104C136.7 106 135.6 107.8 133.5 109C132.8 109.4 132.2 109.6 131.8 109.6C131.4 109.6 131.1 109.4 130.5 109.1C129.7 108.7 128.6 108.2 127.1 108.2C125.8 108.2 124.5 108.6 123.1 109.4C120 111.2 118.4 113.7 117.1 116C115.9 118 114.8 119.8 112.7 121C112 121.4 111.4 121.6 110.8 121.6C110.1 121.6 109.4 121.2 108.4 120.4C107.5 119.8 106.4 119 105 118.6L202.6 62.8999ZM4.0002 62.9999L101.7 118.9C100.3 119.3 99.3002 120 98.3002 120.7C97.3002 121.4 96.6002 121.9 95.9002 121.9C95.4002 121.9 94.8002 121.7 94.0002 121.3C91.9002 120.1 90.8002 118.3 89.6002 116.3C88.2002 114.1 86.7002 111.5 83.6002 109.7C82.2002 108.9 80.8002 108.5 79.6002 108.5C78.1002 108.5 77.0002 109 76.2002 109.4C75.6002 109.7 75.2002 109.9 74.9002 109.9C74.5002 109.9 73.9002 109.7 73.2002 109.3C71.1002 108.1 70.0002 106.3 68.8002 104.3C67.4002 102.1 65.9002 99.4999 62.8002 97.6999C61.4002 96.8999 60.0002 96.4999 58.8002 96.4999C57.3002 96.4999 56.2002 96.9999 55.4002 97.3999C54.8002 97.6999 54.4002 97.8999 54.1002 97.8999C53.7002 97.8999 53.1002 97.6999 52.4002 97.2999C50.3002 96.0999 49.2002 94.2999 48.0002 92.2999C46.6002 90.0999 45.1002 87.4999 42.0002 85.6999C40.6002 84.8999 39.2002 84.4999 38.0002 84.4999C36.5002 84.4999 35.4002 84.9999 34.6002 85.3999C34.0002 85.6999 33.6002 85.8999 33.3002 85.8999C32.9002 85.8999 32.3002 85.6999 31.6002 85.2999C29.5002 84.0999 28.4002 82.2999 27.2002 80.2999C25.8002 78.0999 24.3002 75.4999 21.2002 73.6999C19.8002 72.8999 18.4002 72.4999 17.2002 72.4999C15.7002 72.4999 14.6002 72.9999 13.8002 73.3999C13.2002 73.6999 12.8002 73.8999 12.5002 73.8999C12.1002 73.8999 11.5002 73.6999 10.8002 73.2999C8.6002 71.9999 7.7002 70.5999 6.5002 68.6999C5.9002 67.6999 5.10019 66.5999 4.2002 65.3999L4.0002 62.9999ZM204.9 58.8999L103.2 117.2L1.7002 58.9999V66.0999C4.8002 69.3999 5.1002 72.5999 9.5002 75.0999C10.7002 75.7999 11.6002 75.9999 12.4002 75.9999C14.2002 75.9999 15.2002 74.5999 17.1002 74.5999C17.9002 74.5999 18.8002 74.7999 20.0002 75.4999C25.2002 78.4999 25.2002 84.0999 30.4002 87.0999C31.6002 87.7999 32.5002 87.9999 33.3002 87.9999C35.1002 87.9999 36.1002 86.5999 38.0002 86.5999C38.8002 86.5999 39.7002 86.7999 40.9002 87.4999C46.1002 90.4999 46.1002 96.0999 51.3002 99.0999C52.5002 99.7999 53.4002 99.9999 54.2002 99.9999C56.0002 99.9999 57.0002 98.5999 58.9002 98.5999C59.7002 98.5999 60.6002 98.7999 61.8002 99.4999C67.0002 102.5 67.0002 108.1 72.2002 111.1C73.4002 111.8 74.3002 112 75.1002 112C76.9002 112 77.9002 110.6 79.8002 110.6C80.6002 110.6 81.5002 110.8 82.7002 111.5C87.9002 114.5 87.9002 120.1 93.1002 123.1C94.3002 123.8 95.3002 124 96.1002 124C99.1002 124 100.6 120.9 103.5 120.9C106.4 120.9 107.9 124 110.9 124C111.8 124 112.7 123.7 113.9 123.1C119.1 120.1 119.1 114.5 124.3 111.5C125.5 110.8 126.4 110.6 127.2 110.6C129 110.6 130 112 131.9 112C132.7 112 133.6 111.8 134.8 111.1C140 108.1 140 102.5 145.2 99.4999C146.4 98.7999 147.3 98.5999 148.1 98.5999C149.9 98.5999 150.9 99.9999 152.8 99.9999C153.6 99.9999 154.5 99.7999 155.7 99.0999C160.9 96.0999 160.9 90.4999 166.1 87.4999C167.3 86.7999 168.2 86.5999 169 86.5999C170.8 86.5999 171.8 87.9999 173.7 87.9999C174.5 87.9999 175.4 87.7999 176.6 87.0999C181.8 84.0999 181.8 78.4999 187 75.4999C188.2 74.7999 189.1 74.5999 189.9 74.5999C191.7 74.5999 192.7 75.9999 194.6 75.9999C195.4 75.9999 196.3 75.7999 197.5 75.0999C201.8 72.5999 202.3 69.2999 205.4 66.0999L204.9 58.8999Z" fill="#AEC6F7" stroke="#111111" stroke-miterlimit="10"/>
<path d="M103.3 118L204.9 59.3002V53.7002L103.3 112.4V118Z" fill="#AEC6F7" stroke="#111111" stroke-miterlimit="10"/>
<path d="M95.9 123C95.1 123 94.3 122.7 93.4 122.2C91.1 120.8 89.9 118.9 88.6 116.8C87.2 114.6 85.8 112.3 83 110.6C81.7 109.9 80.6 109.5 79.6 109.5C78.4 109.5 77.5 109.9 76.7 110.3C76 110.6 75.5 110.9 74.9 110.9C74.3 110.9 73.5 110.6 72.6 110.1C70.3 108.7 69.1 106.8 67.8 104.7C66.4 102.5 65 100.2 62.2 98.5001C60.9 97.8001 59.8 97.4001 58.8 97.4001C57.6 97.4001 56.7 97.8001 55.9 98.2001C55.2 98.5001 54.7 98.8001 54.1 98.8001C53.5 98.8001 52.7 98.5001 51.8 98.0001C49.5 96.6001 48.3 94.7001 47 92.6001C45.6 90.4001 44.2 88.1001 41.4 86.4001C40.1 85.7001 39 85.3001 38 85.3001C36.8 85.3001 35.9 85.7001 35.1 86.1001C34.4 86.4001 33.9 86.7001 33.3 86.7001C32.7 86.7001 31.9 86.4001 31 85.9001C28.7 84.5001 27.5 82.6001 26.2 80.5001C24.8 78.3001 23.4 76.0001 20.6 74.3001C19.3 73.6001 18.2 73.2001 17.2 73.2001C16 73.2001 15.1 73.6001 14.3 74.0001C13.6 74.3001 13.1 74.6001 12.5 74.6001C11.9 74.6001 11.1 74.3001 10.2 73.8001C7.8 72.4001 6.7 70.7001 5.5 68.8001C4.8 67.7001 4 66.5001 3 65.3001V60.6001L102.7 117.8V119.6C101.5 119.9 100.4 120.6 99.4 121.2C98.1 122.3 97.1 123 95.9 123Z" fill="#111111"/>
<path d="M4.0002 62.8999L101.4 118.7V119C100.3 119.4 99.4002 120 98.7002 120.5C97.5002 121.3 96.8002 121.8 95.9002 121.8C95.4002 121.8 94.7002 121.6 94.0002 121.2C91.9002 120 90.8002 118.2 89.6002 116.2C88.2002 114 86.7002 111.4 83.6002 109.6C82.2002 108.8 80.8002 108.4 79.6002 108.4C78.1002 108.4 77.0002 108.9 76.2002 109.3C75.6002 109.6 75.2002 109.8 74.9002 109.8C74.5002 109.8 73.9002 109.6 73.2002 109.2C71.1002 108 70.0002 106.2 68.8002 104.2C67.4002 102 65.9002 99.3999 62.8002 97.5999C61.4002 96.7999 60.0002 96.3999 58.8002 96.3999C57.3002 96.3999 56.2002 96.8999 55.4002 97.2999C54.8002 97.5999 54.4002 97.7999 54.1002 97.7999C53.7002 97.7999 53.1002 97.5999 52.4002 97.1999C50.3002 95.9999 49.2002 94.1999 48.0002 92.1999C46.6002 89.9999 45.1002 87.3999 42.0002 85.5999C40.6002 84.7999 39.2002 84.3999 38.0002 84.3999C36.5002 84.3999 35.4002 84.8999 34.6002 85.2999C34.0002 85.5999 33.6002 85.7999 33.3002 85.7999C32.9002 85.7999 32.3002 85.5999 31.6002 85.1999C29.5002 83.9999 28.4002 82.1999 27.2002 80.1999C25.8002 77.9999 24.3002 75.3999 21.2002 73.5999C19.8002 72.7999 18.4002 72.3999 17.2002 72.3999C15.7002 72.3999 14.6002 72.8999 13.8002 73.2999C13.2002 73.5999 12.8002 73.7999 12.5002 73.7999C12.1002 73.7999 11.5002 73.5999 10.8002 73.1999C8.6002 71.8999 7.7002 70.4999 6.5002 68.5999C5.9002 67.5999 5.10019 66.3999 4.2002 65.2999L4.0002 62.8999ZM1.7002 58.8999V65.9999C4.8002 69.2999 5.1002 72.4999 9.5002 75.0999C10.7002 75.7999 11.6002 75.9999 12.4002 75.9999C14.2002 75.9999 15.2002 74.5999 17.1002 74.5999C17.9002 74.5999 18.8002 74.7999 20.0002 75.4999C25.2002 78.4999 25.2002 84.0999 30.4002 87.0999C31.6002 87.7999 32.5002 87.9999 33.3002 87.9999C35.1002 87.9999 36.1002 86.5999 38.0002 86.5999C38.8002 86.5999 39.7002 86.7999 40.9002 87.4999C46.1002 90.4999 46.1002 96.0999 51.3002 99.0999C52.5002 99.7999 53.4002 99.9999 54.2002 99.9999C56.0002 99.9999 57.0002 98.5999 58.9002 98.5999C59.7002 98.5999 60.6002 98.7999 61.8002 99.4999C67.0002 102.5 67.0002 108.1 72.2002 111.1C73.4002 111.8 74.3002 112 75.1002 112C76.9002 112 77.9002 110.6 79.8002 110.6C80.6002 110.6 81.5002 110.8 82.7002 111.5C87.9002 114.5 87.9002 120.1 93.1002 123.1C94.3002 123.8 95.2002 124 96.1002 124C99.2002 124 101 120.8 103.9 120.8V117.3L1.7002 58.8999Z" fill="#111111"/>
<path d="M24.9002 36.0999L22.9002 34.8999L21.3002 37.9999L19.8002 33.0999L17.7002 31.8999V39.9999L19.4002 40.9999V35.5999L20.6002 39.7999L21.9002 40.4999L23.1002 37.7999V43.0999L24.9002 44.0999V36.0999Z" fill="black"/>
<path d="M28.6004 45.1C28.4004 45 28.3004 44.9 28.2004 44.8C28.1004 44.7 28.0004 44.5 27.9004 44.3C27.8004 44.1 27.7004 43.9 27.7004 43.6C27.6004 43.3 27.6004 43 27.6004 42.6C27.6004 42.2 27.6004 41.9 27.7004 41.7C27.8004 41.5 27.8004 41.3 27.9004 41.3C28.0004 41.2 28.1004 41.2 28.2004 41.2C28.3004 41.2 28.4004 41.3 28.6004 41.4C28.8004 41.5 28.9004 41.6 29.0004 41.7C29.1004 41.8 29.2004 42 29.3004 42.2C29.4004 42.4 29.5004 42.6 29.5004 42.9C29.6004 43.2 29.6004 43.5 29.6004 43.8C29.6004 44.2 29.6004 44.5 29.5004 44.7C29.4004 44.9 29.4004 45 29.3004 45.1C29.2004 45.2 29.1004 45.2 29.0004 45.2C28.9004 45.2 28.8004 45.2 28.6004 45.1ZM28.6004 40C27.7004 39.5 27.1004 39.4 26.6004 39.7C26.1004 40 25.9004 40.7 25.9004 41.7C25.9004 42.7 26.1004 43.6 26.6004 44.5C27.1004 45.4 27.8004 46 28.6004 46.5C29.5004 47 30.1004 47.1 30.6004 46.8C31.1004 46.5 31.3004 45.8 31.3004 44.8C31.3004 43.8 31.1004 42.9 30.6004 42C30.2004 41.2 29.5004 40.5 28.6004 40Z" fill="black"/>
<path d="M33.9002 40.8999L32.3002 39.8999L32.2002 48.3999L33.9002 49.2999V40.8999Z" fill="black"/>
<path d="M36.8006 42.6001L35.2006 41.6001L35.1006 50.1001L36.8006 51.0001V42.6001Z" fill="black"/>
<path d="M40.1002 51.7998C39.8002 51.5998 39.6002 51.4998 39.5002 51.2998C39.4002 51.0998 39.3002 50.8998 39.3002 50.5998C39.3002 50.3998 39.3002 50.2998 39.4002 50.1998C39.5002 50.0998 39.6002 50.0998 39.7002 50.0998C39.9002 50.0998 40.0002 50.1998 40.2002 50.2998C40.4002 50.3998 40.6002 50.4998 40.9002 50.5998V51.8998C40.8002 51.9998 40.6002 51.9998 40.5002 51.9998C40.4002 51.8998 40.3002 51.8998 40.1002 51.7998ZM40.0002 46.5998C39.6002 46.3998 39.3002 46.1998 38.9002 46.0998C38.5002 45.9998 38.3002 45.8998 38.1002 45.7998V47.2998L38.2002 47.3998C38.4002 47.3998 38.7002 47.4998 39.0002 47.4998C39.3002 47.5998 39.5002 47.6998 39.7002 47.7998C40.1002 48.0998 40.5002 48.2998 40.7002 48.5998C40.9002 48.8998 41.0002 49.1998 41.0002 49.4998C40.5002 49.2998 40.1002 49.0998 39.7002 48.8998C39.3002 48.6998 38.9002 48.5998 38.6002 48.5998C38.3002 48.5998 38.1002 48.6998 37.9002 48.8998C37.7002 49.0998 37.7002 49.3998 37.7002 49.8998C37.7002 50.4998 37.9002 50.9998 38.2002 51.4998C38.5002 51.9998 38.9002 52.3998 39.4002 52.6998C39.7002 52.7998 39.8002 52.8998 40.0002 52.9998C40.2002 53.0998 40.3002 53.0998 40.4002 53.0998C40.6002 53.0998 40.7002 53.0998 40.8002 52.9998C40.9002 52.9998 41.0002 52.8998 41.1002 52.8998V53.4998L42.7002 54.4998V50.3998C42.7002 49.6998 42.5002 48.9998 42.1002 48.3998C41.6002 47.6998 40.9002 47.0998 40.0002 46.5998Z" fill="black"/>
<path d="M45.5998 48.2998L43.8998 47.2998V48.9998L43.2998 48.5998V49.8998L43.8998 50.2998V53.1998C43.8998 53.8998 43.9998 54.4998 44.3998 54.9998C44.6998 55.4998 45.1998 55.8998 45.8998 56.2998C46.1998 56.4998 46.3998 56.5998 46.5998 56.6998C46.7998 56.7998 46.9998 56.8998 47.1998 56.8998V55.5998L47.0998 55.4998C46.9998 55.4998 46.8998 55.4998 46.7998 55.3998C46.6998 55.3998 46.4998 55.2998 46.4998 55.2998C46.2998 55.1998 46.0998 54.9998 45.9998 54.8998C45.8998 54.7998 45.7998 54.5998 45.7998 54.4998C45.6998 54.2998 45.6998 54.1998 45.6998 53.9998C45.6998 53.7998 45.6998 53.6998 45.6998 53.3998V51.1998L47.2998 52.0998V50.7998L45.5998 49.9998V48.2998Z" fill="black"/>
<path d="M53.5002 59.4C53.4002 59.3 53.2002 59.2 53.1002 59.1C53.0002 59 52.8002 58.8 52.7002 58.6C52.6002 58.4 52.5002 58.2 52.4002 58C52.3002 57.8 52.3002 57.6 52.3002 57.3C52.3002 57.1 52.3002 56.9 52.4002 56.8C52.5002 56.6 52.5002 56.5 52.6002 56.5L54.5002 59.7C54.4002 59.7 54.2002 59.8 54.1002 59.7C53.8002 59.6 53.7002 59.5 53.5002 59.4ZM53.3002 55.4C53.1002 55.1 52.9002 54.8 52.8002 54.5C52.7002 54.2 52.6002 54 52.6002 53.8C52.6002 53.6 52.6002 53.5 52.7002 53.5C52.7002 53.4 52.8002 53.4 52.8002 53.3C52.9002 53.3 52.9002 53.3 53.0002 53.3L53.2002 53.4C53.2002 53.4 53.3002 53.5 53.4002 53.5C53.5002 53.6 53.5002 53.6 53.6002 53.7C53.7002 53.8 53.7002 53.9 53.8002 54C53.8002 54.1 53.9002 54.3 53.9002 54.5C53.9002 54.7 53.9002 54.9 53.8002 55C53.5002 55.2 53.4002 55.3 53.3002 55.4ZM53.2002 52.2C52.8002 52 52.4002 51.8 52.1002 51.7C51.8002 51.6 51.5002 51.6 51.4002 51.7C51.2002 51.9 51.0002 52 51.0002 52.2C50.9002 52.4 50.9002 52.6 50.9002 52.8C50.9002 53 50.9002 53.2 51.0002 53.4C51.0002 53.6 51.1002 53.8 51.2002 54C51.3002 54.2 51.4002 54.4 51.5002 54.6C51.6002 54.8 51.7002 55 51.9002 55.2C51.8002 55.2 51.6002 55.2 51.5002 55.3C51.4002 55.3 51.2002 55.4 51.1002 55.5C51.0002 55.6 50.9002 55.8 50.8002 55.9C50.7002 56.1 50.7002 56.3 50.7002 56.6C50.7002 57.3 50.9002 58.1 51.4002 58.8C51.9002 59.5 52.5002 60.1 53.3002 60.6C53.7002 60.8 54.0002 61 54.4002 61C54.7002 61.1 55.1002 61 55.4002 60.9L56.0002 61.9L58.1002 63.1V63L56.4002 60.2C56.5002 60.1 56.6002 60 56.7002 59.8C56.8002 59.7 56.8002 59.5 56.9002 59.4C56.9002 59.3 57.0002 59.1 57.0002 58.9C57.0002 58.7 57.0002 58.5 57.0002 58.4V57.8L55.3002 56.8V58.5L54.0002 56.2C54.3002 56.3 54.5002 56.3 54.7002 56.2C54.9002 56.2 55.1002 56.1 55.2002 55.9C55.3002 55.8 55.4002 55.7 55.4002 55.5C55.4002 55.3 55.5002 55.2 55.5002 55C55.5002 54.8 55.5002 54.5 55.4002 54.2C55.3002 53.9 55.2002 53.7 55.0002 53.4C54.8002 53.1 54.6002 52.9 54.3002 52.6C53.9002 52.7 53.6002 52.4 53.2002 52.2Z" fill="black"/>
<path d="M67.1004 60.4001L65.3004 59.4001L63.8004 64.0001L62.3004 57.6001L60.4004 56.6001L62.8004 66.0001L64.7004 67.1001L67.1004 60.4001Z" fill="black"/>
<path d="M69.9998 68.9999C69.7998 68.8999 69.6998 68.7999 69.5998 68.6999C69.4998 68.5999 69.3998 68.3999 69.2998 68.1999C69.1998 67.9999 69.0998 67.7999 69.0998 67.4999C68.9998 67.1999 68.9998 66.8999 68.9998 66.4999C68.9998 66.0999 68.9998 65.7999 69.0998 65.5999C69.1998 65.3999 69.1998 65.1999 69.2998 65.0999C69.3998 64.9999 69.4998 64.9999 69.5998 64.9999C69.6998 64.9999 69.8998 65.0999 69.9998 65.1999C70.1998 65.2999 70.2998 65.3999 70.3998 65.4999C70.4998 65.5999 70.5998 65.7999 70.6998 65.9999C70.7998 66.1999 70.8998 66.3999 70.8998 66.6999C70.9998 66.9999 70.9998 67.2999 70.9998 67.6999C70.9998 68.0999 70.9998 68.3999 70.8998 68.5999C70.7998 68.7999 70.7998 68.8999 70.6998 68.9999C70.5998 69.0999 70.4998 69.0999 70.3998 69.0999C70.2998 69.0999 70.0998 69.0999 69.9998 68.9999ZM69.9998 63.8999C69.0998 63.3999 68.4998 63.2999 67.9998 63.5999C67.4998 63.8999 67.2998 64.5999 67.2998 65.5999C67.2998 66.5999 67.4998 67.4999 67.9998 68.3999C68.4998 69.2999 69.0998 69.8999 69.9998 70.3999C70.8998 70.8999 71.4998 70.9999 71.9998 70.6999C72.4998 70.3999 72.6998 69.6999 72.6998 68.6999C72.6998 67.6999 72.4998 66.7999 71.9998 65.8999C71.5998 65.0999 70.8998 64.3999 69.9998 63.8999Z" fill="black"/>
<path d="M78.6002 69L76.9002 68V72.3C76.8002 72.3 76.6002 72.3 76.5002 72.3C76.3002 72.3 76.2002 72.2 76.1002 72.2C75.9002 72.1 75.8002 72 75.7002 71.8C75.6002 71.7 75.5002 71.5 75.5002 71.4C75.4002 71.2 75.4002 71 75.4002 70.8C75.4002 70.6 75.4002 70.3 75.4002 70V67L73.7002 66V70C73.7002 70.8 73.8002 71.4 74.1002 72C74.4002 72.6 74.8002 73 75.3002 73.3C75.6002 73.5 75.9002 73.6 76.2002 73.6C76.4002 73.6 76.7002 73.5 77.0002 73.4V74.1L78.7002 75.1L78.6002 69Z" fill="black"/>
<path d="M82 70.7997C81.6 70.5997 81.3 70.3997 81 70.3997C80.7 70.2997 80.4 70.2997 80.2 70.3997C80 70.4997 79.8 70.5997 79.7 70.7997C79.6 70.9997 79.5 71.1997 79.5 71.4997C79.5 71.9997 79.6 72.3997 79.8 72.7997C80 73.1997 80.3 73.5997 80.7 73.9997C80.8 74.0997 81 74.2997 81.2 74.3997C81.4 74.5997 81.6 74.6997 81.7 74.7997C81.9 74.9997 82.1 75.1997 82.2 75.2997C82.3 75.3997 82.3 75.4997 82.3 75.6997C82.3 75.8997 82.2 75.9997 82 75.8997C81.8 75.8997 81.6 75.7997 81.4 75.6997C81.2 75.5997 81 75.3997 80.8 75.1997C80.6 74.9997 80.4 74.8997 80.3 74.6997C80.1 74.4997 80 74.2997 79.9 74.1997C79.8 74.0997 79.7 73.8997 79.6 73.7997L79.5 73.6997V75.2997C79.7 75.5997 80 75.7997 80.4 76.0997C80.7 76.3997 81.1 76.6997 81.5 76.8997C81.9 77.1997 82.3 77.2997 82.6 77.3997C82.9 77.4997 83.2 77.4997 83.4 77.3997C83.6 77.2997 83.8 77.1997 83.9 76.9997C84 76.7997 84.1 76.5997 84.1 76.2997C84.1 75.8997 84 75.3997 83.8 74.9997C83.6 74.5997 83.3 74.1997 82.9 73.8997C82.7 73.6997 82.5 73.5997 82.4 73.3997C82.2 73.2997 82.1 73.0997 81.9 72.9997C81.6 72.7997 81.4 72.5997 81.4 72.4997C81.3 72.3997 81.3 72.1997 81.3 72.0997C81.3 71.8997 81.4 71.8997 81.5 71.8997C81.7 71.8997 81.9 71.9997 82.1 72.0997C82.3 72.1997 82.5 72.2997 82.6 72.4997C82.8 72.6997 82.9 72.7997 83.1 72.9997C83.2 73.0997 83.3 73.2997 83.5 73.3997C83.6 73.5997 83.7 73.6997 83.8 73.7997L83.9 73.8997V72.3997C83.7 72.1997 83.4 71.8997 83.1 71.5997C82.7 71.2997 82.3 70.9997 82 70.7997Z" fill="black"/>
</g>
<path d="M148.5 3.7666C140.869 3.7666 134.625 9.7466 134.625 17.1066C134.625 20.0199 135.627 22.7799 137.4 25.0799L147.883 38.7266C148.115 39.0333 148.654 39.1099 148.962 38.8799C149.04 38.8033 149.04 38.8033 149.117 38.7266L159.6 25.0799C161.373 22.7799 162.375 20.0199 162.375 17.1066C162.375 9.7466 156.131 3.7666 148.5 3.7666ZM147.421 22.3199C144.492 21.7066 142.565 18.9466 143.181 16.0333C143.798 13.1199 146.573 11.2033 149.502 11.8166C151.66 12.2766 153.356 13.8866 153.742 16.0333C154.281 18.9466 152.354 21.7833 149.502 22.3199C148.808 22.4733 148.115 22.4733 147.421 22.3199Z" fill="#F3BC54"/>
<rect x="130" y="51" width="147" height="35" fill="#F3BC54"/>
<path d="M154.85 61.4C154.04 61.238 153.23 61.274 152.546 61.4L148.496 67.772L144.356 61.4C143.456 61.238 142.52 61.238 141.548 61.4C141.638 65.594 141.638 69.806 141.548 74C142.232 74.162 142.844 74.162 143.51 74C143.276 71.084 143.006 67.106 142.916 64.064L147.614 71.174L147.794 71.03L152.042 64.46C152.024 67.124 151.934 71.264 151.79 74C152.816 74.162 153.842 74.162 154.85 74C154.76 69.806 154.76 65.594 154.85 61.4ZM162.034 74.234C165.04 74.234 166.966 72.2 166.966 69.23C166.966 66.368 165.04 64.388 162.016 64.388C158.992 64.388 157.066 66.368 157.066 69.23C157.066 72.2 158.992 74.234 162.034 74.234ZM162.034 73.568C160.864 73.568 160.18 72.236 160.18 69.23C160.18 66.332 160.864 65.054 162.016 65.054C163.168 65.054 163.852 66.296 163.852 69.14C163.852 72.218 163.168 73.568 162.034 73.568ZM171.683 74.252C173.231 74.252 174.167 73.352 174.167 71.858C173.897 71.858 173.537 71.768 173.285 71.678C173.321 71.84 173.339 72.002 173.339 72.164C173.339 72.74 173.087 73.172 172.619 73.172C172.007 73.172 171.809 72.506 171.809 71.228C171.809 67.898 171.845 63.488 171.899 60.86C170.891 60.68 169.865 60.68 168.875 60.86C168.965 63.488 168.947 67.88 168.929 71.228C168.911 73.586 170.297 74.252 171.683 74.252ZM178.433 74.252C179.981 74.252 180.917 73.352 180.917 71.858C180.647 71.858 180.287 71.768 180.035 71.678C180.071 71.84 180.089 72.002 180.089 72.164C180.089 72.74 179.837 73.172 179.369 73.172C178.757 73.172 178.559 72.506 178.559 71.228C178.559 67.898 178.595 63.488 178.649 60.86C177.641 60.68 176.615 60.68 175.625 60.86C175.715 63.488 175.697 67.88 175.679 71.228C175.661 73.586 177.047 74.252 178.433 74.252ZM186.533 64.388C184.085 64.388 182.465 65.54 182.123 67.07L185.093 67.934L185.399 67.754C185.129 67.412 185.003 67.016 185.003 66.602C185.003 65.774 185.507 65 186.443 65C187.811 65 187.955 66.674 187.973 68.348C184.463 68.51 181.853 69.788 181.853 71.966C181.853 73.37 182.915 74.27 184.625 74.27C186.947 74.27 187.919 72.362 188.207 71.264L189.575 74H190.817V68.402C190.817 65.648 189.143 64.388 186.533 64.388ZM185.903 72.884C185.273 72.866 184.823 72.434 184.823 71.552C184.823 70.274 185.777 69.158 187.973 68.96C187.901 71.21 187.109 72.884 185.903 72.884ZM197.85 71.75C197.886 71.876 197.922 72.02 197.922 72.164C197.922 72.704 197.652 73.208 197.202 73.208C196.572 73.208 196.428 72.452 196.392 71.264C196.374 69.968 196.32 67.754 196.356 65.504L198.75 65.558C198.714 65.198 198.732 65.036 198.768 64.658L196.356 64.712C196.374 63.83 196.41 62.966 196.446 62.156C195.636 62.246 194.934 62.228 194.178 62.138L193.602 64.694C193.242 64.676 192.864 64.676 192.468 64.658C192.504 65.036 192.504 65.198 192.468 65.558C192.81 65.54 193.134 65.54 193.44 65.522C193.53 67.682 193.494 69.788 193.494 71.246C193.476 73.514 194.718 74.234 196.266 74.234C197.868 74.234 198.804 73.478 198.804 71.912C198.48 71.93 198.156 71.876 197.85 71.75ZM217.648 72.452C216.982 72.056 216.298 71.624 215.614 71.156C216.19 70.31 216.496 69.356 216.496 68.402C216.496 67.16 216.28 65.918 214.966 65.108L212.698 66.872L212.824 67.25C214.606 67.088 215.47 67.988 215.47 69.338C215.47 69.788 215.308 70.274 215.038 70.76C213.598 69.752 212.176 68.618 210.988 67.484C209.332 65.9 208.144 64.316 208.144 63.092C208.144 62.048 208.792 61.346 209.89 61.382C211.51 61.436 212.05 63.2 211.942 64.352L212.212 64.424L214.318 62.966C214.048 61.85 212.68 60.68 210.322 60.68C207.496 60.68 205.624 62.318 205.624 64.334C205.624 65.18 206.074 66.17 206.83 67.214C205.102 67.97 203.878 69.266 203.878 70.922C203.878 72.992 205.912 74.27 209.224 74.27C210.79 74.27 212.194 73.874 213.328 73.244C213.958 73.676 214.588 74.09 215.164 74.432C216.082 74.162 217.198 73.406 217.702 72.686L217.648 72.452ZM210.214 73.406C207.676 73.406 206.686 72.11 206.686 70.49C206.686 69.572 207.01 68.798 207.568 68.168C208.018 68.708 208.54 69.248 209.098 69.788C210.196 70.868 211.474 71.912 212.734 72.812C211.978 73.172 211.132 73.406 210.214 73.406ZM232.089 61.4C231.189 64.946 230.073 68.384 228.795 72.164C227.697 68.978 226.347 64.55 225.447 61.4C223.971 61.22 223.143 61.22 221.883 61.4C223.719 65.828 225.123 69.788 226.527 74C227.625 74.18 228.273 74.18 229.371 74C231.009 69.806 232.827 65 234.339 61.4C233.601 61.22 232.827 61.22 232.089 61.4ZM239.361 74.234C242.367 74.234 244.293 72.2 244.293 69.23C244.293 66.368 242.367 64.388 239.343 64.388C236.319 64.388 234.393 66.368 234.393 69.23C234.393 72.2 236.319 74.234 239.361 74.234ZM239.361 73.568C238.191 73.568 237.507 72.236 237.507 69.23C237.507 66.332 238.191 65.054 239.343 65.054C240.495 65.054 241.179 66.296 241.179 69.14C241.179 72.218 240.495 73.568 239.361 73.568ZM255.093 74C254.967 70.85 254.985 67.808 255.075 64.658C254.067 64.748 253.059 64.748 252.051 64.658C252.087 66.368 252.087 66.044 252.087 69.518C252.087 71.678 251.385 72.92 250.323 72.938C249.549 72.956 249.171 72.308 249.153 70.49C249.135 68.204 249.117 69.032 249.135 64.658C248.127 64.748 247.119 64.748 246.129 64.658C246.165 66.512 246.147 68.24 246.165 70.328C246.165 73.316 247.587 74.234 249.333 74.234C250.917 74.234 252.105 73.118 252.483 71.606L254.067 74H255.093ZM261.069 74.234C263.751 74.234 265.299 73.028 265.299 71.462C265.299 69.968 263.895 69.158 262.257 68.276C261.033 67.61 259.899 66.98 259.899 66.008C259.899 65.486 260.223 65.054 261.249 65.054C262.797 65.054 263.301 66.134 263.769 67.502L264.003 67.556L265.191 65.45C264.651 65 263.085 64.388 261.303 64.388C258.801 64.388 257.199 65.45 257.199 66.962C257.199 68.618 258.945 69.536 260.385 70.31C261.483 70.886 262.509 71.516 262.509 72.488C262.509 73.028 262.059 73.568 261.015 73.568C259.431 73.568 258.333 72.344 258.063 70.544L257.811 70.472L256.785 72.92C257.811 73.676 259.395 74.234 261.069 74.234Z" fill="black"/>
<defs>
<clipPath id="clip0">
<rect width="318.5" height="302.6" fill="white"/>
</clipPath>
</defs>
</svg>
