<svg width="319" height="303" viewBox="0 0 319 303" fill="none" xmlns="http://www.w3.org/2000/svg">
<g clip-path="url(#clip0)">
<path d="M114.42 215.768C112.02 215.768 109.92 216.268 108.42 217.068C106.92 216.168 104.42 215.468 101.32 214.968C99.1197 214.668 99.0197 212.868 87.7197 212.868C76.4197 212.868 83.9197 214.568 80.6197 214.668C73.6197 214.768 70.4197 214.968 67.9197 214.968C59.1197 214.968 51.9197 216.568 51.9197 217.568C51.9197 217.868 49.7197 222.768 50.8197 223.068C52.2197 223.368 60.0197 219.168 60.0197 219.168C62.3197 219.368 65.0197 219.368 67.9197 219.368C71.9197 219.368 77.4197 219.268 79.2197 219.268C81.0197 219.268 82.6197 220.168 80.2197 220.368C77.8197 220.468 77.8197 220.468 76.7197 220.568C72.2197 220.868 66.9197 224.668 66.9197 225.268C66.9197 225.668 75.7197 223.668 75.7197 223.668C81.9197 224.668 91.3197 225.568 98.2197 225.568C108.62 225.568 108.62 223.268 109.72 222.268C111.02 222.768 112.62 223.068 114.42 223.068C118.72 223.068 122.22 221.468 122.22 219.368C122.22 217.468 118.72 215.768 114.42 215.768Z" fill="#BABCBE"/>
<path d="M48.3195 222.568C49.6195 223.268 52.6195 223.668 56.0195 221.068C58.6195 219.068 59.0195 218.168 59.0195 216.768C59.0195 214.068 54.2195 213.568 52.6195 216.468C51.1195 219.268 45.8195 221.168 48.3195 222.568Z" fill="white"/>
<path d="M50.7196 223.668C49.5196 223.668 48.6196 223.368 48.0196 223.068C47.4196 222.768 47.1196 222.368 47.1196 221.868C47.0196 220.968 48.1196 220.068 49.4196 219.068C50.4196 218.268 51.6196 217.368 52.2196 216.368C53.3196 214.368 55.6196 213.768 57.3196 214.268C58.7196 214.668 59.6196 215.668 59.6196 216.868C59.6196 218.468 59.1196 219.468 56.4196 221.568C54.2196 223.168 52.2196 223.668 50.7196 223.668ZM48.5196 222.168C49.5196 222.768 52.4196 223.268 55.6196 220.668C58.1196 218.668 58.4196 217.968 58.4196 216.768C58.4196 215.668 57.4196 215.268 56.9196 215.168C55.6196 214.868 53.8196 215.268 53.0196 216.768C52.4196 217.968 51.1196 218.968 50.0196 219.868C49.2196 220.568 48.1196 221.368 48.1196 221.768C48.2196 221.868 48.3196 221.968 48.5196 222.168Z" fill="black"/>
<path d="M66.5196 225.168C67.6196 226.068 70.1196 225.868 72.8196 224.068C74.9196 222.668 76.9196 218.568 75.9196 217.568C73.0196 214.268 70.1196 216.268 69.3196 219.468C68.3196 223.268 64.3196 223.368 66.5196 225.168Z" fill="white"/>
<path d="M68.3196 226.168C67.4196 226.168 66.7196 225.968 66.2196 225.568C65.8196 225.268 65.3196 224.868 65.3196 224.268C65.3196 223.568 65.8196 223.168 66.5196 222.568C67.3196 221.868 68.4196 220.968 68.9196 219.268C69.4196 217.268 70.7196 215.768 72.3196 215.368C73.3196 215.168 74.8196 215.268 76.5196 217.168C76.8196 217.568 76.9196 218.068 76.8196 218.768C76.6196 220.468 75.0196 223.268 73.2196 224.468C71.3196 225.668 69.6196 226.168 68.3196 226.168ZM73.0196 216.368C72.8196 216.368 72.7196 216.368 72.5196 216.468C71.3196 216.768 70.3196 217.968 69.9196 219.568C69.4196 221.568 68.1196 222.668 67.2196 223.368C66.8196 223.668 66.4196 224.068 66.4196 224.268C66.4196 224.268 66.4196 224.468 66.9196 224.768C67.8196 225.468 70.1196 225.268 72.6196 223.568C74.1196 222.568 75.5196 220.068 75.7196 218.568C75.8196 218.068 75.7196 217.868 75.6196 217.768C74.8196 216.868 73.8196 216.368 73.0196 216.368Z" fill="black"/>
<path d="M59.6196 155.867L70.9196 177.467C70.9196 177.467 72.6196 176.567 74.7196 173.467C76.8196 170.367 77.0196 158.667 74.4196 156.967C71.8196 155.267 64.5196 151.167 64.5196 151.167L59.6196 155.867Z" fill="#DF846A"/>
<path d="M70.7195 178.168L59.0195 155.868L64.5195 150.468L64.8195 150.668C65.1195 150.868 72.1195 154.768 74.7195 156.468C76.6195 157.768 76.8195 163.068 76.8195 164.668C76.8195 167.668 76.4195 171.868 75.1195 173.768C72.9195 176.968 71.2195 177.868 71.1195 177.968L70.7195 178.168Z" fill="#AEC6F7" stroke="#111111" stroke-miterlimit="10"/>
<path d="M66.2196 156.368C66.2196 156.368 64.3196 151.668 64.5196 149.768C64.7196 147.768 64.5196 140.768 62.6196 139.568C59.1196 137.368 54.3196 139.868 54.3196 142.968C54.3196 146.668 55.2196 151.768 56.9196 152.368C58.6196 152.968 59.9196 161.868 59.9196 161.868L66.2196 156.368Z" fill="#DF846A"/>
<path d="M49.7195 170.968C46.7195 170.968 42.4195 170.468 37.9195 168.368C36.9195 167.868 36.4195 166.668 36.9195 165.668C37.4195 164.668 38.6195 164.168 39.6195 164.668C44.5195 166.968 49.3195 166.968 51.6195 166.768L53.1195 152.968C53.2195 151.868 54.3195 150.468 55.5195 150.568C55.5195 150.568 57.3195 152.268 57.2195 153.468L55.5195 168.868C55.4195 169.768 54.7195 170.468 53.9195 170.668C53.7195 170.668 52.1195 170.968 49.7195 170.968Z" fill="black"/>
<path d="M66.2196 156.367C66.2196 156.367 70.0196 159.867 70.1196 160.967C70.2196 162.067 72.2196 181.867 69.7196 183.367C67.2196 184.767 61.3196 182.067 57.9196 179.867C55.3196 178.067 54.8196 175.067 55.4196 172.767C57.5196 163.367 54.3196 151.867 54.3196 151.867C54.3196 151.867 54.7196 151.167 55.7196 151.167C56.4196 151.167 55.5196 151.567 56.9196 152.367C56.9196 152.367 58.6196 152.367 58.6196 152.867C58.6196 153.867 58.8196 155.567 60.5196 156.667C63.0196 158.267 66.2196 156.367 66.2196 156.367Z" fill="white"/>
<path d="M67.8195 184.268C64.7195 184.268 60.2195 182.068 57.5195 180.268C54.6195 178.368 54.2195 174.968 54.7195 172.668C56.8195 163.468 53.7195 152.068 53.6195 151.968L53.5195 151.768L53.6195 151.568C53.6195 151.468 54.0195 150.968 54.8195 150.668C55.0195 150.668 55.1195 150.568 55.3195 150.568C55.8195 150.468 55.7195 151.468 56.5195 152.068C57.2195 152.568 58.9195 152.768 58.9195 152.968C58.9195 153.868 59.1195 155.268 60.6195 156.168C62.9195 157.568 65.8195 155.968 65.8195 155.968L66.1195 155.768L66.4195 156.068C67.3195 156.868 70.3195 159.768 70.4195 160.968V161.468C72.3195 182.368 70.3195 183.468 69.7195 183.768C69.3195 184.168 68.6195 184.268 67.8195 184.268ZM55.3195 154.268C56.1195 158.268 57.3195 165.968 55.8195 172.868C55.3195 174.968 55.7195 177.768 58.1195 179.368C62.0195 181.968 67.4195 184.068 69.4195 182.868C69.7195 182.668 71.3195 180.768 69.6195 161.468V160.968C69.6195 160.468 67.8195 158.568 66.2195 156.968C65.3195 157.368 62.6195 158.468 60.3195 156.968C58.5195 155.868 58.1195 153.968 58.2195 152.668C58.2195 152.468 57.1195 152.568 57.1195 152.468C55.8195 151.968 55.1195 153.168 55.3195 154.268Z" fill="black"/>
<path d="M74.2195 215.567C74.1195 215.467 69.2195 207.267 68.8195 199.967C68.4195 192.067 71.1195 189.367 70.9195 184.167C70.7195 179.767 63.8195 182.167 59.1195 179.467C57.6195 178.667 55.5195 176.667 55.5195 176.667C54.9195 179.567 51.9195 194.367 52.3195 198.667C52.6195 201.867 52.4195 211.467 52.3195 214.867C52.3195 216.567 53.6195 217.967 55.3195 218.067H55.4195C57.1195 218.067 58.4195 216.767 58.5195 215.067C58.5195 214.567 58.9195 202.267 58.5195 198.067C58.3195 196.467 59.5195 188.767 59.9195 187.067C60.3195 185.367 62.7195 186.667 62.7195 188.267C62.7195 189.867 62.6195 195.367 62.8195 200.067C63.2195 208.967 68.9195 218.167 69.1195 218.567C69.7195 219.467 70.7195 220.067 71.7195 220.067C72.3195 220.067 72.8195 219.967 73.3195 219.567C74.6195 218.967 75.1195 217.067 74.2195 215.567Z" fill="#AEC6F7" stroke="#111111" stroke-miterlimit="10"/>
<path d="M71.6195 220.768C70.3195 220.768 69.2195 220.168 68.5195 219.068C68.3195 218.668 62.6195 209.268 62.1195 200.368C61.9195 196.468 62.0195 192.168 62.0195 189.868C62.0195 189.268 62.0195 188.868 62.0195 188.468C62.0195 187.668 61.2195 186.968 60.7195 186.968C60.5195 186.968 60.3195 186.968 60.3195 187.368C59.9195 189.068 58.8195 196.668 58.9195 198.168C59.3195 202.268 59.0195 213.868 58.9195 215.268C58.8195 217.268 57.3195 218.768 55.3195 218.768C53.2195 218.668 51.6195 217.068 51.7195 215.068C51.8195 211.668 52.0195 201.968 51.7195 198.868C51.3195 194.668 54.1195 180.868 54.9195 176.668L55.1195 175.768L55.8195 176.368C55.8195 176.368 57.9195 178.268 59.3195 179.068C61.2195 180.068 63.4195 180.368 65.5195 180.568C68.5195 180.868 71.3195 181.168 71.4195 184.168C71.5195 186.568 71.0195 188.368 70.5195 190.368C69.9195 192.768 69.1195 195.568 69.3195 199.868C69.6195 206.968 74.6195 215.068 74.6195 215.168C75.6195 216.868 75.1195 219.068 73.4195 220.068C72.9195 220.668 72.2195 220.768 71.6195 220.768ZM60.6195 185.968C60.7195 185.968 60.7195 185.968 60.8195 185.968C61.9195 186.068 63.1195 187.168 63.1195 188.468C63.1195 188.768 63.1195 189.268 63.1195 189.868C63.1195 192.168 63.0195 196.468 63.2195 200.268C63.6195 208.968 69.2195 218.168 69.4195 218.568C69.9195 219.368 70.7195 219.768 71.6195 219.768C72.1195 219.768 72.5195 219.668 72.9195 219.368C74.1195 218.668 74.5195 217.068 73.7195 215.868C73.5195 215.568 68.6195 207.368 68.2195 200.068C68.0195 195.568 68.7195 192.768 69.4195 190.268C69.9195 188.268 70.4195 186.568 70.3195 184.368C70.2195 182.368 68.4195 182.068 65.3195 181.768C63.2195 181.568 60.8195 181.268 58.8195 180.168C57.8195 179.568 56.5195 178.568 55.8195 177.868C54.9195 182.068 52.4195 194.968 52.8195 198.868C53.1195 202.068 52.9195 211.768 52.8195 215.168C52.8195 216.568 53.9195 217.768 55.3195 217.768C56.8195 217.768 57.9195 216.668 57.9195 215.268C57.9195 213.968 58.2195 202.368 57.9195 198.368C57.7195 196.568 59.0195 188.768 59.3195 187.268C59.4195 186.368 59.9195 185.968 60.6195 185.968Z" fill="black"/>
<path d="M43.4196 169.668L37.8196 166.468L34.0196 156.968C33.9196 156.668 34.2196 156.368 34.5196 156.568L38.8196 159.068C39.1196 159.268 39.3196 159.468 39.5196 159.868L43.4196 169.668Z" fill="black"/>
<path d="M37.9197 167.368C37.6197 167.368 37.2197 167.268 36.9197 167.068C35.3197 165.768 34.5197 163.568 34.7197 160.968C34.8197 160.168 35.5197 159.468 36.4197 159.568C37.2197 159.668 37.9197 160.368 37.8197 161.268C37.7197 162.368 37.8197 163.868 38.9197 164.668C39.6197 165.168 39.7197 166.168 39.1197 166.868C38.8197 167.168 38.4197 167.368 37.9197 167.368Z" fill="#DF846A"/>
<path d="M37.9197 167.868C37.4197 167.868 37.0197 167.668 36.6197 167.368C34.8197 165.968 34.0197 163.668 34.2197 160.868C34.3197 159.768 35.3197 158.868 36.4197 158.968C37.5197 159.068 38.4197 160.068 38.3197 161.168C38.2197 162.168 38.3197 163.468 39.2197 164.168C39.6197 164.468 39.9197 164.968 40.0197 165.568C40.1197 166.068 39.9197 166.668 39.6197 167.068C39.2197 167.568 38.6197 167.868 37.9197 167.868ZM36.3197 160.068C35.8197 160.068 35.3197 160.468 35.3197 160.968C35.1197 163.368 35.8197 165.368 37.3197 166.568C37.7197 166.868 38.4197 166.868 38.7197 166.368C39.1197 165.968 39.0197 165.268 38.5197 164.968C37.5197 164.168 37.1197 162.868 37.3197 161.168C37.3197 160.868 37.2197 160.668 37.1197 160.368C36.9197 160.268 36.7197 160.068 36.3197 160.068C36.4197 160.068 36.4197 160.068 36.3197 160.068Z" fill="black"/>
<path d="M67.2195 192.768C66.9195 192.768 66.7195 192.668 66.4195 192.568C65.3195 192.168 64.8195 190.968 65.3195 189.868C65.3195 189.768 68.1195 182.968 68.4195 178.468C68.6195 175.768 67.8195 170.368 67.0195 166.368C66.7195 164.768 67.9195 161.868 68.8195 159.568C69.2195 158.468 70.0195 160.468 70.3195 161.568C70.4195 162.068 72.9195 173.668 72.5195 178.768C72.1195 183.968 69.2195 191.168 69.1195 191.468C68.8195 192.268 68.0195 192.768 67.2195 192.768Z" fill="black"/>
<path d="M66.7197 193.567C66.5197 193.567 66.4197 193.567 66.2197 193.467C65.4197 193.167 65.0197 192.367 65.2197 191.467L65.6197 190.167C65.9197 189.367 66.7197 188.967 67.6197 189.167C68.4197 189.467 68.8197 190.267 68.6197 191.167L68.2197 192.467C67.9197 193.167 67.3197 193.567 66.7197 193.567Z" fill="#DF846A"/>
<path d="M66.7196 194.067C66.5196 194.067 66.3196 194.067 66.0196 193.967C65.5196 193.767 65.1196 193.467 64.8196 192.967C64.6196 192.467 64.5196 191.967 64.7196 191.367L65.2196 190.067C65.4196 189.567 65.7196 189.167 66.2196 188.867C66.7196 188.667 67.3196 188.567 67.8196 188.767C68.9196 189.167 69.5196 190.267 69.1196 191.367L68.6196 192.667C68.4196 193.567 67.6196 194.067 66.7196 194.067ZM67.1196 189.667C66.9196 189.667 66.8196 189.667 66.6196 189.767C66.4196 189.867 66.2196 190.067 66.1196 190.367L65.6196 191.767C65.5196 192.067 65.5196 192.267 65.7196 192.567C65.8196 192.767 66.0196 192.967 66.3196 193.067C66.8196 193.267 67.4196 192.967 67.6196 192.467L68.1196 191.067C68.2196 190.767 68.2196 190.567 68.0196 190.267C67.9196 190.067 67.7196 189.867 67.4196 189.767C67.4196 189.667 67.3196 189.667 67.1196 189.667Z" fill="black"/>
<path d="M54.2197 142.868C54.2197 142.868 55.7197 139.868 58.5197 144.268C59.6197 145.968 59.5197 146.268 60.2197 146.468C60.9197 146.568 62.0197 143.568 62.5197 146.168C62.9197 148.368 62.4197 150.368 63.9197 150.568C65.4197 150.768 67.2197 147.568 66.9197 145.468C66.5197 143.368 64.6197 138.568 61.7197 138.168C58.5197 137.768 55.3197 137.668 54.2197 142.868Z" fill="black"/>
<path d="M68.2196 174.568C67.9196 174.568 67.6196 174.468 67.4196 174.268C65.0196 171.668 63.3196 167.468 63.3196 163.868C63.3196 159.868 66.0196 156.768 68.5196 155.968C69.0196 155.768 69.6196 156.068 69.8196 156.568C70.0196 157.068 69.7196 157.668 69.2196 157.868C67.3196 158.468 65.4196 160.868 65.4196 163.868C65.4196 166.968 66.8196 170.568 68.9196 172.868C69.3196 173.268 69.3196 173.968 68.8196 174.368C68.7196 174.468 68.4196 174.568 68.2196 174.568Z" fill="#AEC6F7" stroke="#111111" stroke-miterlimit="10"/>
<path d="M68.2197 175.068C67.8197 175.068 67.4197 174.868 67.1197 174.568C64.6197 171.868 62.9197 167.568 62.9197 163.868C62.9197 159.568 65.8197 156.368 68.4197 155.468C69.2197 155.168 70.1197 155.668 70.4197 156.468C70.5197 156.868 70.5197 157.268 70.3197 157.668C70.1197 158.068 69.8197 158.268 69.4197 158.468C67.7197 159.068 66.0197 161.268 66.0197 163.968C66.0197 166.968 67.4197 170.368 69.4197 172.568C69.7197 172.868 69.8197 173.268 69.8197 173.668C69.8197 174.068 69.6197 174.468 69.3197 174.768C68.9197 174.968 68.6197 175.068 68.2197 175.068ZM68.9197 156.368C68.8197 156.368 68.8197 156.368 68.7197 156.368C66.4197 157.168 63.9197 160.068 63.9197 163.768C63.9197 167.168 65.5197 171.268 67.8197 173.768C68.0197 173.968 68.3197 173.968 68.5197 173.768C68.6197 173.668 68.7197 173.568 68.7197 173.368C68.7197 173.268 68.7197 173.068 68.6197 172.968C66.4197 170.568 64.9197 166.868 64.9197 163.668C64.9197 160.468 67.0197 157.868 69.0197 157.268C69.1197 157.268 69.2197 157.168 69.3197 156.968C69.4197 156.868 69.4197 156.668 69.3197 156.568C69.3197 156.568 69.1197 156.368 68.9197 156.368Z" fill="black"/>
<path d="M56.1195 166.968C54.5195 164.468 53.5195 161.268 53.5195 158.468C53.5195 154.468 56.2195 151.368 58.7195 150.568C59.2195 150.368 59.8195 150.668 60.0195 151.168C60.2195 151.668 59.9195 152.268 59.4195 152.468C57.5195 153.068 55.6195 155.468 55.6195 158.468C55.6195 159.568 55.8195 160.668 56.1195 161.768V166.968Z" fill="#AEC6F7" stroke="#111111" stroke-miterlimit="10"/>
<path d="M55.9195 167.568C54.1195 164.968 53.0195 161.468 53.0195 158.468C53.0195 155.668 54.2195 153.268 55.9195 151.768L59.5195 153.068C57.8195 153.668 56.1195 155.868 56.1195 158.568C56.1195 161.468 56.3195 168.168 55.9195 167.568ZM56.8195 152.268C55.3195 153.568 54.0195 155.868 54.0195 158.468C54.0195 160.468 54.5195 162.668 55.4195 164.668C55.6195 165.068 55.4195 161.668 55.2195 160.668C55.1195 159.968 55.0195 159.168 55.0195 158.468C55.0195 155.868 56.5195 153.568 58.1195 152.468L56.8195 152.268Z" fill="black"/>
<path d="M66.2197 156.967C66.0197 156.967 65.8197 156.867 65.7197 156.667C65.6197 156.467 63.7197 151.867 64.0197 149.767C64.3197 147.367 63.9197 140.967 62.3197 139.967C60.4197 138.767 58.2197 139.167 56.9197 139.967C55.6197 140.667 54.8197 141.767 54.8197 142.967C54.8197 147.267 55.9197 151.467 57.1197 151.867C58.8197 152.467 60.2197 152.767 60.2197 152.767C60.5197 152.867 60.7197 153.067 60.6197 153.367C60.5197 153.667 60.3197 153.867 60.0197 153.767C59.9197 153.767 58.5197 153.367 56.7197 152.767C54.5197 151.967 53.7197 146.267 53.7197 142.867C53.7197 141.367 54.7197 139.867 56.3197 138.967C57.9197 138.067 60.5197 137.567 62.8197 139.067C65.3197 140.567 65.1197 148.667 65.0197 149.767C64.8197 151.267 66.2197 154.867 66.7197 156.167C66.8197 156.467 66.7197 156.767 66.4197 156.867C66.3197 156.967 66.2197 156.967 66.2197 156.967Z" fill="black"/>
<path d="M69.9197 162.568C69.6197 162.568 69.4197 162.268 69.4197 162.068C69.6197 158.468 71.5197 157.068 72.3197 156.668C73.2197 156.168 74.2197 156.168 74.7197 156.568C74.9197 156.768 75.0197 157.068 74.9197 157.268C74.7197 157.468 74.4197 157.568 74.2197 157.468C74.0197 157.368 73.5197 157.268 72.8197 157.668C72.2197 157.968 70.7197 159.068 70.5197 162.168C70.4197 162.368 70.2197 162.568 69.9197 162.568Z" fill="black"/>
<path d="M216.5 302.6L104.8 296.8L77.8 195L137.8 230.3L188.6 201L204.9 184.8H216.5L318.5 243.7L216.5 302.6Z" fill="#BABCBE"/>
<path d="M33 258.6L14.7 248C14.7 216 33 180 33 180C33 180 26.2 175.3 26.2 164.9C26.2 154.5 33 145 33 145C33 145 1.69995 110.4 1.69995 59.5999C1.69995 45.7999 33 77.6999 33 77.6999V258.6Z" fill="#AEC6F7" stroke="#111111" stroke-miterlimit="10"/>
<path d="M32.4 259.6L14.1 249L13.5 248C13.5 218.8 28.8 186 31.5 180.4C29.6 178.7 25 173.8 25 165C25 156 29.9 147.7 31.5 145.2C27.2 140 0.5 106.3 0.5 59.6001C0.5 56.8001 1.7 55.7001 2.8 55.2001C9.5 52.5001 29.8 72.7001 33.8 76.8001L34.1 77.6V258.6L32.4 259.6ZM15.8 247.4L31.8 256.6V185.2C27 195.9 16 222.9 15.8 247.4ZM31.8 149.3C29.9 152.9 27.3 158.9 27.3 165C27.3 171.3 29.9 175.3 31.8 177.4V149.3ZM4.4 57.3001C4.1 57.3001 3.9 57.3001 3.7 57.4001C3.2 57.6001 2.9 58.4001 2.9 59.6001C2.9 101.8 25 133.2 31.9 141.9V78.2C22.8 69 9.1 57.3001 4.4 57.3001Z" fill="#AEC6F7" stroke="#111111" stroke-miterlimit="10"/>
<path d="M33 258.6L51.3 248C51.3 216 33 180 33 180C33 180 39.8 175.3 39.8 164.9C39.8 154.5 33 145 33 145C33 145 64.3 110.2 64.3 59.5C64.3 45.8 33 77.6999 33 77.6999V258.6Z" fill="#111111"/>
<path d="M33 259.8C32.8 259.8 32.6001 259.7 32.4001 259.6C32.0001 259.4 31.8 259 31.8 258.6V77.6C31.8 77.3 31.9 77.0001 32.1 76.8001C36.1 72.7001 56.4 52.5001 63.1 55.2001C64.1 55.6001 65.4001 56.7001 65.4001 59.6001C65.4001 106.4 38.7001 140.1 34.4001 145.2C36.0001 147.7 40.9001 156 40.9001 165C40.9001 173.8 36.3001 178.7 34.4001 180.4C37.1001 186 52.4001 218.9 52.4001 248C52.4001 248.4 52.2 248.8 51.8 249L33.5 259.6C33.4 259.8 33.2 259.8 33 259.8ZM34.1 185.3V256.7L50.1 247.5C49.9 222.9 38.9 195.9 34.1 185.3ZM34.1 149.3V177.5C36 175.4 38.6 171.4 38.6 165.1C38.6 158.9 36 152.9 34.1 149.3ZM34.1 78.2V142C41 133.3 63.1 101.9 63.1 59.7001C63.1 58.4001 62.8 57.7001 62.3 57.5001C58.5 55.9001 43.7 68.5 34.1 78.2Z" fill="#111111"/>
<path d="M103.3 52.1001L204.9 57.1001V240L103.3 181.2V52.1001Z" fill="#AEC6F7" stroke="#111111" stroke-miterlimit="10"/>
<path d="M204.9 241.1C204.7 241.1 204.5 241 204.3 240.9L102.7 182.1C102.3 181.9 102.1 181.5 102.1 181.1V52.1C102.1 51.8 102.2 51.5 102.5 51.3C102.7 51.1 103 50.9 103.4 51L205 56C205.6 56 206.1 56.5 206.1 57.2V240C206.1 240.4 205.9 240.8 205.5 241C205.3 241.1 205.1 241.1 204.9 241.1ZM104.4 180.6L203.7 238V58.2L104.4 53.3V180.6V180.6Z" fill="black"/>
<path d="M204.9 83.7999L103.3 24.9999V16.3999L204.9 75.0999V83.7999Z" fill="white"/>
<path d="M204.9 84.9C204.7 84.9 204.5 84.8 204.3 84.7L102.7 26C102.3 25.8 102.1 25.4 102.1 25V16.4C102.1 16 102.3 15.6 102.7 15.4C103.1 15.2 103.5 15.2 103.9 15.4L205.5 74.1C205.9 74.3 206.1 74.7 206.1 75.1V83.7C206.1 84.1 205.9 84.5 205.5 84.7C205.3 84.9 205.1 84.9 204.9 84.9ZM104.4 24.4L203.7 81.8V75.8L104.4 18.4V24.4V24.4Z" fill="black"/>
<path d="M204.9 101.1L103.3 42.4V33.7L204.9 92.5V101.1Z" fill="white"/>
<path d="M204.9 102.3C204.7 102.3 204.5 102.2 204.3 102.1L102.7 43.3999C102.3 43.1999 102.1 42.7999 102.1 42.3999V33.7999C102.1 33.3999 102.3 32.9999 102.7 32.7999C103.1 32.5999 103.5 32.5999 103.9 32.7999L205.5 91.4999C205.9 91.6999 206.1 92.0999 206.1 92.4999V101.1C206.1 101.5 205.9 101.9 205.5 102.1C205.3 102.2 205.1 102.3 204.9 102.3ZM104.4 41.6999L203.7 99.0999V93.0999L104.4 35.6999V41.6999V41.6999Z" fill="black"/>
<path d="M204.9 118.4L103.3 59.7V51L204.9 109.7V118.4Z" fill="white"/>
<path d="M204.9 119.6C204.7 119.6 204.5 119.5 204.3 119.4L102.7 60.7001C102.3 60.5001 102.1 60.1001 102.1 59.7001V51.0001C102.1 50.6001 102.3 50.2001 102.7 50.0001C103.1 49.8001 103.5 49.8001 103.9 50.0001L205.5 108.7C205.9 108.9 206.1 109.3 206.1 109.7V118.3C206.1 118.7 205.9 119.1 205.5 119.3C205.3 119.5 205.1 119.6 204.9 119.6ZM104.4 59.0001L203.7 116.4V110.4L104.4 53.0001V59.0001Z" fill="black"/>
<path d="M204.9 135.9L103.3 77.2V68.5L204.9 127.2V135.9Z" fill="white"/>
<path d="M204.9 137C204.7 137 204.5 136.9 204.3 136.8L102.7 78.1001C102.3 77.9001 102.1 77.5001 102.1 77.1001V68.5001C102.1 68.1001 102.3 67.7001 102.7 67.5001C103.1 67.3001 103.5 67.3001 103.9 67.5001L205.5 126.2C205.9 126.4 206.1 126.8 206.1 127.2V135.8C206.1 136.2 205.9 136.6 205.5 136.8C205.3 137 205.1 137 204.9 137ZM104.4 76.5001L203.7 133.9V127.9L104.4 70.5001V76.5001V76.5001Z" fill="black"/>
<path d="M204.9 153.2L103.3 94.4999V85.8999L204.9 144.6V153.2Z" fill="white"/>
<path d="M204.9 154.4C204.7 154.4 204.5 154.3 204.3 154.2L102.7 95.5C102.3 95.3 102.1 94.9 102.1 94.5V85.9C102.1 85.5 102.3 85.1 102.7 84.9C103.1 84.7 103.5 84.7 103.9 84.9L205.5 143.6C205.9 143.8 206.1 144.2 206.1 144.6V153.2C206.1 153.6 205.9 154 205.5 154.2C205.3 154.3 205.1 154.4 204.9 154.4ZM104.4 93.8L203.7 151.2V145.2L104.4 87.8V93.8V93.8Z" fill="black"/>
<path d="M204.9 170.5L103.3 111.8V103.1L204.9 161.9V170.5Z" fill="white"/>
<path d="M204.9 171.7C204.7 171.7 204.5 171.6 204.3 171.5L102.7 112.8C102.3 112.6 102.1 112.2 102.1 111.8V103.2C102.1 102.8 102.3 102.4 102.7 102.2C103.1 102 103.5 102 103.9 102.2L205.5 160.9C205.9 161.1 206.1 161.5 206.1 161.9V170.5C206.1 170.9 205.9 171.3 205.5 171.5C205.3 171.6 205.1 171.7 204.9 171.7ZM104.4 111.1L203.7 168.5V162.5L104.4 105.1V111.1V111.1Z" fill="black"/>
<path d="M204.9 187.8L103.3 129.1V120.4L204.9 179.1V187.8Z" fill="white"/>
<path d="M204.9 188.9C204.7 188.9 204.5 188.8 204.3 188.7L102.7 130C102.3 129.8 102.1 129.4 102.1 129V120.4C102.1 120 102.3 119.6 102.7 119.4C103.1 119.2 103.5 119.2 103.9 119.4L205.5 178.1C205.9 178.3 206.1 178.7 206.1 179.1V187.7C206.1 188.1 205.9 188.5 205.5 188.7C205.3 188.9 205.1 188.9 204.9 188.9ZM104.4 128.4L203.7 185.8V179.8L104.4 122.4V128.4V128.4Z" fill="black"/>
<path d="M204.9 205.1L103.3 146.4V137.8L204.9 196.5V205.1Z" fill="white"/>
<path d="M204.9 206.3C204.7 206.3 204.5 206.2 204.3 206.1L102.7 147.4C102.3 147.2 102.1 146.8 102.1 146.4V137.8C102.1 137.4 102.3 137 102.7 136.8C103.1 136.6 103.5 136.6 103.9 136.8L205.5 195.5C205.9 195.7 206.1 196.1 206.1 196.5V205.1C206.1 205.5 205.9 205.9 205.5 206.1C205.3 206.2 205.1 206.3 204.9 206.3ZM104.4 145.8L203.7 203.2V197.2L104.4 139.8V145.8V145.8Z" fill="black"/>
<path d="M204.9 222.4L103.3 163.7V155.1L204.9 213.8V222.4Z" fill="white"/>
<path d="M204.9 223.6C204.7 223.6 204.5 223.5 204.3 223.4L102.7 164.7C102.3 164.5 102.1 164.1 102.1 163.7V155.1C102.1 154.7 102.3 154.3 102.7 154.1C103.1 153.9 103.5 153.9 103.9 154.1L205.5 212.8C205.9 213 206.1 213.4 206.1 213.8V222.4C206.1 222.8 205.9 223.2 205.5 223.4C205.3 223.5 205.1 223.6 204.9 223.6ZM104.4 163L203.7 220.4V214.4L104.4 157V163V163Z" fill="black"/>
<path d="M204.9 239.9L103.3 181.2V172.5L204.9 231.3V239.9Z" fill="white"/>
<path d="M204.9 241.1C204.7 241.1 204.5 241 204.3 240.9L102.7 182.2C102.3 182 102.1 181.6 102.1 181.2V172.6C102.1 172.2 102.3 171.8 102.7 171.6C103.1 171.4 103.5 171.4 103.9 171.6L205.5 230.3C205.9 230.5 206.1 230.9 206.1 231.3V239.9C206.1 240.3 205.9 240.7 205.5 240.9C205.3 241 205.1 241.1 204.9 241.1ZM104.4 180.5L203.7 237.9V231.9L104.4 174.5V180.5V180.5Z" fill="black"/>
<path d="M206.3 240.8C205.6 241.2 204.3 241.2 203.6 240.8C202.9 240.4 202.9 239.7 203.6 239.2C204.3 238.8 205.6 238.8 206.3 239.2C207 239.6 207 240.3 206.3 240.8Z" fill="black"/>
<path d="M204.9 241.2C204.3 241.2 203.7 240.7 203.7 240V53.7C203.7 53.1 204.2 52.5 204.9 52.5C205.6 52.5 206.1 53 206.1 53.7V240C206.1 240.7 205.6 241.2 204.9 241.2Z" fill="black"/>
<path d="M103.3 299.9C102.7 299.9 102.1 299.4 102.1 298.7V112.4C102.1 111.8 102.6 111.2 103.3 111.2C103.9 111.2 104.5 111.7 104.5 112.4V298.7C104.4 299.4 103.9 299.9 103.3 299.9Z" fill="black"/>
<path d="M103.3 298.7L85 288.2C85 256.2 103.3 220.2 103.3 220.2C103.3 220.2 96.5 215.5 96.5 205.1C96.5 194.7 103.3 185.2 103.3 185.2C103.3 185.2 72 150.5 72 99.7C72 85.9 103.3 117.8 103.3 117.8V298.7Z" fill="#AEC6F7" stroke="#111111" stroke-miterlimit="10"/>
<path d="M86.1 287.5L102.1 296.7V225.3C97.3 236 86.3 263 86.1 287.5ZM102.1 189.4C100.2 193 97.6 199 97.6 205.1C97.6 211.4 100.2 215.4 102.1 217.5V189.4ZM74.7 97.4001C74.4 97.4001 74.2 97.4001 74 97.5001C73.5 97.7001 73.2 98.5001 73.2 99.7001C73.2 141.9 95.3 173.3 102.2 182V118.2C93.1 109.1 79.4 97.4001 74.7 97.4001Z" fill="#AEC6F7" stroke="#111111" stroke-miterlimit="10"/>
<path d="M103.3 298.7L121.6 288.1C121.6 256.1 103.3 220.1 103.3 220.1C103.3 220.1 110.1 215.4 110.1 205C110.1 194.6 103.3 185.1 103.3 185.1C103.3 185.1 134.6 150.3 134.6 99.5999C134.6 85.7999 103.3 117.7 103.3 117.7V298.7Z" fill="#111111"/>
<path d="M103.3 299.9C103.1 299.9 102.9 299.8 102.7 299.7C102.3 299.5 102.1 299.1 102.1 298.7V117.7C102.1 117.4 102.2 117.1 102.4 116.9C106.4 112.8 126.7 92.5999 133.4 95.2999C134.4 95.6999 135.7 96.7999 135.7 99.6999C135.7 146.5 109 180.2 104.7 185.3C106.3 187.8 111.2 196.1 111.2 205.1C111.2 213.9 106.6 218.8 104.7 220.5C107.4 226.1 122.7 259 122.7 288.1C122.7 288.5 122.5 288.9 122.1 289.1L103.8 299.7C103.7 299.8 103.5 299.9 103.3 299.9ZM104.4 225.4V296.8L120.4 287.6C120.2 263 109.2 236 104.4 225.4ZM104.4 189.4V217.6C106.3 215.5 108.9 211.5 108.9 205.2C108.9 199 106.3 193 104.4 189.4ZM104.4 118.2V182C111.3 173.3 133.4 141.9 133.4 99.6999C133.4 98.3999 133.1 97.6999 132.6 97.4999C128.8 95.8999 114 108.6 104.4 118.2Z" fill="#111111"/>
<path d="M103.3 118L1.69995 59.2999V53.7L103.3 112.4V118Z" fill="#AEC6F7" stroke="#111111" stroke-miterlimit="10"/>
<path d="M103.3 112.4L204.9 53.6999C204.9 53.6999 141.8 48.7999 103.3 1.3999C64.8 48.7999 1.69995 53.6999 1.69995 53.6999L103.3 112.4Z" fill="#AEC6F7" stroke="#111111" stroke-miterlimit="10"/>
<path d="M5.19995 54.4998L103.2 111.1L201.2 54.4998C187.4 52.5998 136.3 43.1998 103.2 3.2998C70.1 43.0998 19 52.5998 5.19995 54.4998Z" fill="#AEC6F7" stroke="#111111" stroke-miterlimit="10"/>
<path d="M96.5 62.7999L91 59.7L14.3 15.4L8.80005 12.2C15.5 29.4 8.80005 49.7999 8.80005 49.7999L14.3 53L91 97.3L96.5 100.5C96.5 100.4 89.8 72.2999 96.5 62.7999Z" fill="white"/>
<path d="M95.9 101.4L8.30005 50.7999L7.80005 49.4C7.90005 49.2 14.3 29.2 7.80005 12.6L9.50005 11.2L97.1 61.7999L97.5 63.5C91.2 72.4 97.6 99.9 97.7 100.2L95.9 101.4ZM10.2 49.2999L94.8 98.1C93.4 91.1 90 71.9 94.9 63.2L10.9 14.8C15.4 29.5 11.4 45.3999 10.2 49.2999Z" fill="black"/>
<path d="M110.7 123C109.6 123 108.6 122.4 107.6 121.6C106.4 120.8 105.1 119.8 103.3 119.8C101.5 119.8 100.2 120.7 98.9999 121.6C97.8999 122.3 96.9999 123 95.8999 123C95.1999 123 94.3999 122.7 93.4999 122.2C91.1999 120.8 89.9999 118.9 88.6999 116.8C87.2999 114.6 85.8999 112.3 83.0999 110.6C81.7999 109.9 80.6999 109.5 79.6999 109.5C78.4999 109.5 77.5999 109.9 76.7999 110.3C76.0999 110.6 75.5999 110.9 74.9999 110.9C74.3999 110.9 73.5999 110.6 72.6999 110.1C70.3999 108.7 69.1999 106.8 67.8999 104.7C66.4999 102.5 65.0999 100.2 62.2999 98.4999C60.9999 97.7999 59.8999 97.3999 58.8999 97.3999C57.6999 97.3999 56.7999 97.7999 55.9999 98.1999C55.2999 98.4999 54.7999 98.7999 54.1999 98.7999C53.5999 98.7999 52.7999 98.4999 51.8999 97.9999C49.5999 96.5999 48.3999 94.6999 47.0999 92.5999C45.6999 90.3999 44.2999 88.0999 41.4999 86.3999C40.1999 85.6999 39.0999 85.2999 38.0999 85.2999C36.8999 85.2999 35.9999 85.6999 35.1999 86.0999C34.4999 86.3999 33.9999 86.6999 33.3999 86.6999C32.7999 86.6999 31.9999 86.3999 31.0999 85.8999C28.7999 84.4999 27.5999 82.5999 26.2999 80.4999C24.8999 78.2999 23.4999 75.9999 20.6999 74.2999C19.3999 73.5999 18.2999 73.1999 17.2999 73.1999C16.0999 73.1999 15.1999 73.5999 14.3999 73.9999C13.6999 74.2999 13.1999 74.5999 12.5999 74.5999C11.9999 74.5999 11.1999 74.2999 10.2999 73.7999C7.79985 72.3999 6.79985 70.6999 5.59985 68.7999C4.89985 67.6999 4.19985 66.4999 3.09985 65.2999V60.9999L103 118.2C103.2 118.3 103.4 118.4 103.6 118.4C103.8 118.4 104 118.4 104.2 118.2L204.1 60.8999V65.5999C203 66.7999 202.3 67.9999 201.6 69.0999C200.4 70.9999 199.3 72.6999 196.8 74.0999C195.9 74.5999 195.2 74.8999 194.5 74.8999C193.8 74.8999 193.3 74.5999 192.7 74.2999C191.9 73.8999 191 73.4999 189.8 73.4999C188.7 73.4999 187.6 73.8999 186.4 74.5999C183.5 76.2999 182.1 78.5999 180.8 80.7999C179.5 82.8999 178.4 84.7999 176 86.1999C175.1 86.6999 174.4 86.9999 173.7 86.9999C173 86.9999 172.5 86.6999 171.9 86.3999C171.1 85.9999 170.2 85.5999 169 85.5999C167.9 85.5999 166.8 85.9999 165.6 86.6999C162.7 88.3999 161.3 90.6999 160 92.8999C158.7 94.9999 157.5 96.8999 155.2 98.2999C154.3 98.7999 153.6 99.0999 152.9 99.0999C152.2 99.0999 151.7 98.7999 151.1 98.4999C150.3 98.0999 149.4 97.6999 148.2 97.6999C147.1 97.6999 146 98.0999 144.8 98.7999C141.9 100.5 140.5 102.8 139.2 105C137.9 107.1 136.7 109 134.4 110.4C133.5 110.9 132.8 111.2 132.1 111.2C131.4 111.2 130.9 110.9 130.3 110.6C129.5 110.2 128.6 109.8 127.4 109.8C126.3 109.8 125.2 110.2 124 110.9C121.1 112.6 119.7 114.9 118.4 117.1C117.1 119.2 115.9 121.1 113.6 122.5C112.2 122.8 111.4 123 110.7 123Z" fill="#111111"/>
<path d="M202.6 62.8999V65.0999C201.6 66.1999 200.9 67.3999 200.3 68.3999C199.1 70.2999 198.2 71.7999 195.9 72.9999C195.2 73.3999 194.6 73.5999 194.2 73.5999C193.8 73.5999 193.5 73.3999 192.9 73.0999C192.1 72.6999 191 72.1999 189.5 72.1999C188.2 72.1999 186.9 72.5999 185.5 73.3999C182.4 75.1999 180.8 77.6999 179.5 79.9999C178.3 81.9999 177.2 83.7999 175.1 84.9999C174.4 85.3999 173.8 85.5999 173.4 85.5999C173 85.5999 172.7 85.3999 172.1 85.0999C171.3 84.6999 170.2 84.1999 168.7 84.1999C167.4 84.1999 166.1 84.5999 164.7 85.3999C161.6 87.1999 160 89.6999 158.7 91.9999C157.5 93.9999 156.4 95.7999 154.3 96.9999C153.6 97.3999 153 97.5999 152.6 97.5999C152.2 97.5999 151.9 97.3999 151.3 97.0999C150.5 96.6999 149.4 96.1999 147.9 96.1999C146.6 96.1999 145.3 96.5999 143.9 97.3999C140.8 99.1999 139.2 101.7 137.9 104C136.7 106 135.6 107.8 133.5 109C132.8 109.4 132.2 109.6 131.8 109.6C131.4 109.6 131.1 109.4 130.5 109.1C129.7 108.7 128.6 108.2 127.1 108.2C125.8 108.2 124.5 108.6 123.1 109.4C120 111.2 118.4 113.7 117.1 116C115.9 118 114.8 119.8 112.7 121C112 121.4 111.4 121.6 110.8 121.6C110.1 121.6 109.4 121.2 108.4 120.4C107.5 119.8 106.4 119 105 118.6L202.6 62.8999ZM3.99995 62.9999L101.7 118.9C100.3 119.3 99.3 120 98.3 120.7C97.3 121.4 96.6 121.9 95.9 121.9C95.4 121.9 94.8 121.7 94 121.3C91.9 120.1 90.8 118.3 89.6 116.3C88.2 114.1 86.7 111.5 83.6 109.7C82.2 108.9 80.8 108.5 79.6 108.5C78.1 108.5 77 109 76.2 109.4C75.6 109.7 75.2 109.9 74.9 109.9C74.5 109.9 73.9 109.7 73.2 109.3C71.1 108.1 70 106.3 68.8 104.3C67.4 102.1 65.8999 99.4999 62.7999 97.6999C61.3999 96.8999 59.9999 96.4999 58.7999 96.4999C57.2999 96.4999 56.2 96.9999 55.4 97.3999C54.8 97.6999 54.3999 97.8999 54.0999 97.8999C53.6999 97.8999 53.1 97.6999 52.4 97.2999C50.3 96.0999 49.2 94.2999 48 92.2999C46.6 90.0999 45.1 87.4999 42 85.6999C40.6 84.8999 39.2 84.4999 38 84.4999C36.5 84.4999 35.3999 84.9999 34.5999 85.3999C33.9999 85.6999 33.5999 85.8999 33.2999 85.8999C32.8999 85.8999 32.3 85.6999 31.6 85.2999C29.5 84.0999 28.4 82.2999 27.2 80.2999C25.8 78.0999 24.3 75.4999 21.2 73.6999C19.8 72.8999 18.4 72.4999 17.2 72.4999C15.7 72.4999 14.6 72.9999 13.8 73.3999C13.2 73.6999 12.8 73.8999 12.5 73.8999C12.1 73.8999 11.5 73.6999 10.8 73.2999C8.59995 71.9999 7.69995 70.5999 6.49995 68.6999C5.89995 67.6999 5.09995 66.5999 4.19995 65.3999L3.99995 62.9999ZM204.9 58.8999L103.2 117.2L1.69995 58.9999V66.0999C4.79995 69.3999 5.09995 72.5999 9.49995 75.0999C10.7 75.7999 11.6 75.9999 12.4 75.9999C14.2 75.9999 15.2 74.5999 17.1 74.5999C17.9 74.5999 18.8 74.7999 20 75.4999C25.2 78.4999 25.2 84.0999 30.4 87.0999C31.6 87.7999 32.4999 87.9999 33.2999 87.9999C35.0999 87.9999 36.1 86.5999 38 86.5999C38.8 86.5999 39.7 86.7999 40.9 87.4999C46.1 90.4999 46.0999 96.0999 51.2999 99.0999C52.4999 99.7999 53.4 99.9999 54.2 99.9999C56 99.9999 57 98.5999 58.9 98.5999C59.7 98.5999 60.5999 98.7999 61.7999 99.4999C66.9999 102.5 67 108.1 72.2 111.1C73.4 111.8 74.3 112 75.1 112C76.9 112 77.9 110.6 79.8 110.6C80.6 110.6 81.5 110.8 82.7 111.5C87.9 114.5 87.9 120.1 93.1 123.1C94.3 123.8 95.3 124 96.1 124C99.1 124 100.6 120.9 103.5 120.9C106.4 120.9 107.9 124 110.9 124C111.8 124 112.7 123.7 113.9 123.1C119.1 120.1 119.1 114.5 124.3 111.5C125.5 110.8 126.4 110.6 127.2 110.6C129 110.6 130 112 131.9 112C132.7 112 133.6 111.8 134.8 111.1C140 108.1 140 102.5 145.2 99.4999C146.4 98.7999 147.3 98.5999 148.1 98.5999C149.9 98.5999 150.9 99.9999 152.8 99.9999C153.6 99.9999 154.5 99.7999 155.7 99.0999C160.9 96.0999 160.9 90.4999 166.1 87.4999C167.3 86.7999 168.2 86.5999 169 86.5999C170.8 86.5999 171.8 87.9999 173.7 87.9999C174.5 87.9999 175.4 87.7999 176.6 87.0999C181.8 84.0999 181.8 78.4999 187 75.4999C188.2 74.7999 189.1 74.5999 189.9 74.5999C191.7 74.5999 192.7 75.9999 194.6 75.9999C195.4 75.9999 196.3 75.7999 197.5 75.0999C201.8 72.5999 202.3 69.2999 205.4 66.0999L204.9 58.8999Z" fill="#AEC6F7" stroke="#111111" stroke-miterlimit="10"/>
<path d="M103.3 118L204.9 59.2999V53.7L103.3 112.4V118Z" fill="#AEC6F7" stroke="#111111" stroke-miterlimit="10"/>
<path d="M95.9 123C95.1 123 94.3 122.7 93.4 122.2C91.1 120.8 89.9 118.9 88.6 116.8C87.2 114.6 85.8 112.3 83 110.6C81.7 109.9 80.6 109.5 79.6 109.5C78.4 109.5 77.5 109.9 76.7 110.3C76 110.6 75.5 110.9 74.9 110.9C74.3 110.9 73.5 110.6 72.6 110.1C70.3 108.7 69.1 106.8 67.8 104.7C66.4 102.5 65 100.2 62.2 98.4999C60.9 97.7999 59.8 97.3999 58.8 97.3999C57.6 97.3999 56.7 97.7999 55.9 98.1999C55.2 98.4999 54.7 98.7999 54.1 98.7999C53.5 98.7999 52.7 98.4999 51.8 97.9999C49.5 96.5999 48.3 94.6999 47 92.5999C45.6 90.3999 44.2 88.0999 41.4 86.3999C40.1 85.6999 39 85.2999 38 85.2999C36.8 85.2999 35.9 85.6999 35.1 86.0999C34.4 86.3999 33.9 86.6999 33.3 86.6999C32.7 86.6999 31.9 86.3999 31 85.8999C28.7 84.4999 27.5 82.5999 26.2 80.4999C24.8 78.2999 23.4 75.9999 20.6 74.2999C19.3 73.5999 18.2 73.1999 17.2 73.1999C16 73.1999 15.1 73.5999 14.3 73.9999C13.6 74.2999 13.1 74.5999 12.5 74.5999C11.9 74.5999 11.1 74.2999 10.2 73.7999C7.8 72.3999 6.7 70.6999 5.5 68.7999C4.8 67.6999 4 66.4999 3 65.2999V60.5999L102.7 117.8V119.6C101.5 119.9 100.4 120.6 99.4 121.2C98.1 122.3 97.1 123 95.9 123Z" fill="#111111"/>
<path d="M3.99995 62.8999L101.4 118.7V119C100.3 119.4 99.4 120 98.7 120.5C97.5 121.3 96.8 121.8 95.9 121.8C95.4 121.8 94.7 121.6 94 121.2C91.9 120 90.8 118.2 89.6 116.2C88.2 114 86.7 111.4 83.6 109.6C82.2 108.8 80.8 108.4 79.6 108.4C78.1 108.4 77 108.9 76.2 109.3C75.6 109.6 75.2 109.8 74.9 109.8C74.5 109.8 73.9 109.6 73.2 109.2C71.1 108 70 106.2 68.8 104.2C67.4 102 65.8999 99.3999 62.7999 97.5999C61.3999 96.7999 59.9999 96.3999 58.7999 96.3999C57.2999 96.3999 56.2 96.8999 55.4 97.2999C54.8 97.5999 54.3999 97.7999 54.0999 97.7999C53.6999 97.7999 53.1 97.5999 52.4 97.1999C50.3 95.9999 49.2 94.1999 48 92.1999C46.6 89.9999 45.1 87.3999 42 85.5999C40.6 84.7999 39.2 84.3999 38 84.3999C36.5 84.3999 35.3999 84.8999 34.5999 85.2999C33.9999 85.5999 33.5999 85.7999 33.2999 85.7999C32.8999 85.7999 32.3 85.5999 31.6 85.1999C29.5 83.9999 28.4 82.1999 27.2 80.1999C25.8 77.9999 24.3 75.3999 21.2 73.5999C19.8 72.7999 18.4 72.3999 17.2 72.3999C15.7 72.3999 14.6 72.8999 13.8 73.2999C13.2 73.5999 12.8 73.7999 12.5 73.7999C12.1 73.7999 11.5 73.5999 10.8 73.1999C8.59995 71.8999 7.69995 70.4999 6.49995 68.5999C5.89995 67.5999 5.09995 66.3999 4.19995 65.2999L3.99995 62.8999ZM1.69995 58.8999V65.9999C4.79995 69.2999 5.09995 72.4999 9.49995 75.0999C10.7 75.7999 11.6 75.9999 12.4 75.9999C14.2 75.9999 15.2 74.5999 17.1 74.5999C17.9 74.5999 18.8 74.7999 20 75.4999C25.2 78.4999 25.2 84.0999 30.4 87.0999C31.6 87.7999 32.4999 87.9999 33.2999 87.9999C35.0999 87.9999 36.1 86.5999 38 86.5999C38.8 86.5999 39.7 86.7999 40.9 87.4999C46.1 90.4999 46.0999 96.0999 51.2999 99.0999C52.4999 99.7999 53.4 99.9999 54.2 99.9999C56 99.9999 57 98.5999 58.9 98.5999C59.7 98.5999 60.5999 98.7999 61.7999 99.4999C66.9999 102.5 67 108.1 72.2 111.1C73.4 111.8 74.3 112 75.1 112C76.9 112 77.9 110.6 79.8 110.6C80.6 110.6 81.5 110.8 82.7 111.5C87.9 114.5 87.9 120.1 93.1 123.1C94.3 123.8 95.2 124 96.1 124C99.2 124 101 120.8 103.9 120.8V117.3L1.69995 58.8999Z" fill="#111111"/>
<path d="M24.9 36.0999L22.9 34.8999L21.2999 37.9999L19.7999 33.0999L17.7 31.8999V39.9999L19.4 40.9999V35.5999L20.6 39.7999L21.9 40.4999L23.1 37.7999V43.0999L24.9 44.0999V36.0999Z" fill="black"/>
<path d="M28.5999 45.1C28.3999 45 28.2999 44.9 28.1999 44.8C28.0999 44.7 27.9999 44.5 27.8999 44.3C27.7999 44.1 27.6999 43.9 27.6999 43.6C27.5999 43.3 27.5999 43 27.5999 42.6C27.5999 42.2 27.5999 41.9 27.6999 41.7C27.7999 41.5 27.7999 41.3 27.8999 41.3C27.9999 41.2 28.0999 41.2 28.1999 41.2C28.2999 41.2 28.3999 41.3 28.5999 41.4C28.7999 41.5 28.8999 41.6 28.9999 41.7C29.0999 41.8 29.1999 42 29.2999 42.2C29.3999 42.4 29.4999 42.6 29.4999 42.9C29.5999 43.2 29.5999 43.5 29.5999 43.8C29.5999 44.2 29.5999 44.5 29.4999 44.7C29.3999 44.9 29.3999 45 29.2999 45.1C29.1999 45.2 29.0999 45.2 28.9999 45.2C28.8999 45.2 28.7999 45.2 28.5999 45.1ZM28.5999 40C27.6999 39.5 27.0999 39.4 26.5999 39.7C26.0999 40 25.8999 40.7 25.8999 41.7C25.8999 42.7 26.0999 43.6 26.5999 44.5C27.0999 45.4 27.7999 46 28.5999 46.5C29.4999 47 30.0999 47.1 30.5999 46.8C31.0999 46.5 31.2999 45.8 31.2999 44.8C31.2999 43.8 31.0999 42.9 30.5999 42C30.1999 41.2 29.4999 40.5 28.5999 40Z" fill="black"/>
<path d="M33.9 40.8999L32.2999 39.8999L32.2 48.3999L33.9 49.2999V40.8999Z" fill="black"/>
<path d="M36.7999 42.5999L35.1999 41.5999L35.0999 50.0999L36.7999 50.9999V42.5999Z" fill="black"/>
<path d="M40.0999 51.7998C39.7999 51.5998 39.6 51.4998 39.5 51.2998C39.4 51.0998 39.2999 50.8998 39.2999 50.5998C39.2999 50.3998 39.3 50.2998 39.4 50.1998C39.5 50.0998 39.6 50.0998 39.7 50.0998C39.9 50.0998 40 50.1998 40.2 50.2998C40.4 50.3998 40.6 50.4998 40.9 50.5998V51.8998C40.8 51.9998 40.6 51.9998 40.5 51.9998C40.4 51.8998 40.2999 51.8998 40.0999 51.7998ZM40 46.5998C39.6 46.3998 39.3 46.1998 38.9 46.0998C38.5 45.9998 38.2999 45.8998 38.0999 45.7998V47.2998L38.2 47.3998C38.4 47.3998 38.7 47.4998 39 47.4998C39.3 47.5998 39.5 47.6998 39.7 47.7998C40.1 48.0998 40.5 48.2998 40.7 48.5998C40.9 48.8998 41 49.1998 41 49.4998C40.5 49.2998 40.1 49.0998 39.7 48.8998C39.3 48.6998 38.8999 48.5998 38.5999 48.5998C38.2999 48.5998 38.1 48.6998 37.9 48.8998C37.7 49.0998 37.7 49.3998 37.7 49.8998C37.7 50.4998 37.9 50.9998 38.2 51.4998C38.5 51.9998 38.9 52.3998 39.4 52.6998C39.7 52.7998 39.8 52.8998 40 52.9998C40.2 53.0998 40.3 53.0998 40.4 53.0998C40.6 53.0998 40.6999 53.0998 40.7999 52.9998C40.8999 52.9998 40.9999 52.8998 41.0999 52.8998V53.4998L42.7 54.4998V50.3998C42.7 49.6998 42.4999 48.9998 42.0999 48.3998C41.5999 47.6998 40.9 47.0998 40 46.5998Z" fill="black"/>
<path d="M45.6 48.2998L43.9001 47.2998V48.9998L43.3 48.5998V49.8998L43.9001 50.2998V53.1998C43.9001 53.8998 44.0001 54.4998 44.4001 54.9998C44.7001 55.4998 45.2001 55.8998 45.9001 56.2998C46.2001 56.4998 46.4 56.5998 46.6 56.6998C46.8 56.7998 47.0001 56.8998 47.2001 56.8998V55.5998L47.1 55.4998C47 55.4998 46.9 55.4998 46.8 55.3998C46.7 55.3998 46.5 55.2998 46.5 55.2998C46.3 55.1998 46.1 54.9998 46 54.8998C45.9 54.7998 45.8 54.5998 45.8 54.4998C45.7 54.2998 45.7001 54.1998 45.7001 53.9998C45.7001 53.7998 45.7001 53.6998 45.7001 53.3998V51.1998L47.3 52.0998V50.7998L45.6 49.9998V48.2998Z" fill="black"/>
<path d="M53.5 59.4C53.4 59.3 53.1999 59.2 53.0999 59.1C52.9999 59 52.8 58.8 52.7 58.6C52.6 58.4 52.5 58.2 52.4 58C52.3 57.8 52.2999 57.6 52.2999 57.3C52.2999 57.1 52.3 56.9 52.4 56.8C52.5 56.6 52.4999 56.5 52.5999 56.5L54.5 59.7C54.4 59.7 54.1999 59.8 54.0999 59.7C53.7999 59.6 53.7 59.5 53.5 59.4ZM53.2999 55.4C53.0999 55.1 52.8999 54.8 52.7999 54.5C52.6999 54.2 52.5999 54 52.5999 53.8C52.5999 53.6 52.6 53.5 52.7 53.5C52.7 53.4 52.7999 53.4 52.7999 53.3C52.8999 53.3 52.9 53.3 53 53.3L53.2 53.4C53.2 53.4 53.3 53.5 53.4 53.5C53.5 53.6 53.4999 53.6 53.5999 53.7C53.6999 53.8 53.6999 53.9 53.7999 54C53.7999 54.1 53.9 54.3 53.9 54.5C53.9 54.7 53.8999 54.9 53.7999 55C53.4999 55.2 53.3999 55.3 53.2999 55.4ZM53.2 52.2C52.8 52 52.3999 51.8 52.0999 51.7C51.7999 51.6 51.5 51.6 51.4 51.7C51.2 51.9 51 52 51 52.2C50.9 52.4 50.9 52.6 50.9 52.8C50.9 53 50.9 53.2 51 53.4C51 53.6 51.1 53.8 51.2 54C51.3 54.2 51.4 54.4 51.5 54.6C51.6 54.8 51.7 55 51.9 55.2C51.8 55.2 51.6 55.2 51.5 55.3C51.4 55.3 51.1999 55.4 51.0999 55.5C50.9999 55.6 50.8999 55.8 50.7999 55.9C50.6999 56.1 50.7 56.3 50.7 56.6C50.7 57.3 50.9 58.1 51.4 58.8C51.9 59.5 52.4999 60.1 53.2999 60.6C53.6999 60.8 54 61 54.4 61C54.7 61.1 55.1 61 55.4 60.9L56 61.9L58.0999 63.1V63L56.4 60.2C56.5 60.1 56.6 60 56.7 59.8C56.8 59.7 56.8 59.5 56.9 59.4C56.9 59.3 57 59.1 57 58.9C57 58.7 57 58.5 57 58.4V57.8L55.2999 56.8V58.5L54 56.2C54.3 56.3 54.5 56.3 54.7 56.2C54.9 56.2 55.1 56.1 55.2 55.9C55.3 55.8 55.4 55.7 55.4 55.5C55.4 55.3 55.5 55.2 55.5 55C55.5 54.8 55.5 54.5 55.4 54.2C55.3 53.9 55.2 53.7 55 53.4C54.8 53.1 54.5999 52.9 54.2999 52.6C53.8999 52.7 53.6 52.4 53.2 52.2Z" fill="black"/>
<path d="M67.0999 60.3999L65.2999 59.3999L63.7999 63.9999L62.2999 57.5999L60.3999 56.5999L62.7999 65.9999L64.6999 67.0999L67.0999 60.3999Z" fill="black"/>
<path d="M70 68.9999C69.8 68.8999 69.7 68.7999 69.6 68.6999C69.5 68.5999 69.4 68.3999 69.3 68.1999C69.2 67.9999 69.1 67.7999 69.1 67.4999C69 67.1999 69 66.8999 69 66.4999C69 66.0999 69 65.7999 69.1 65.5999C69.2 65.3999 69.2 65.1999 69.3 65.0999C69.4 64.9999 69.5 64.9999 69.6 64.9999C69.7 64.9999 69.9 65.0999 70 65.1999C70.2 65.2999 70.3 65.3999 70.4 65.4999C70.5 65.5999 70.6 65.7999 70.7 65.9999C70.8 66.1999 70.9 66.3999 70.9 66.6999C71 66.9999 71 67.2999 71 67.6999C71 68.0999 71 68.3999 70.9 68.5999C70.8 68.7999 70.8 68.8999 70.7 68.9999C70.6 69.0999 70.5 69.0999 70.4 69.0999C70.3 69.0999 70.1 69.0999 70 68.9999ZM70 63.8999C69.1 63.3999 68.5 63.2999 68 63.5999C67.5 63.8999 67.3 64.5999 67.3 65.5999C67.3 66.5999 67.5 67.4999 68 68.3999C68.5 69.2999 69.1 69.8999 70 70.3999C70.9 70.8999 71.5 70.9999 72 70.6999C72.5 70.3999 72.7 69.6999 72.7 68.6999C72.7 67.6999 72.5 66.7999 72 65.8999C71.6 65.0999 70.9 64.3999 70 63.8999Z" fill="black"/>
<path d="M78.6 69L76.9 68V72.3C76.8 72.3 76.6 72.3 76.5 72.3C76.3 72.3 76.2 72.2 76.1 72.2C75.9 72.1 75.8 72 75.7 71.8C75.6 71.7 75.5 71.5 75.5 71.4C75.4 71.2 75.4 71 75.4 70.8C75.4 70.6 75.4 70.3 75.4 70V67L73.7 66V70C73.7 70.8 73.8 71.4 74.1 72C74.4 72.6 74.8 73 75.3 73.3C75.6 73.5 75.9 73.6 76.2 73.6C76.4 73.6 76.7 73.5 77 73.4V74.1L78.7 75.1L78.6 69Z" fill="black"/>
<path d="M82 70.8C81.6 70.6 81.3 70.4 81 70.4C80.7 70.3 80.4 70.3 80.2 70.4C80 70.5 79.8 70.6 79.7 70.8C79.6 71 79.5 71.1999 79.5 71.4999C79.5 71.9999 79.6 72.4 79.8 72.8C80 73.2 80.3 73.5999 80.7 73.9999C80.8 74.0999 81 74.3 81.2 74.4C81.4 74.6 81.6 74.7 81.7 74.8C81.9 75 82.1 75.2 82.2 75.3C82.3 75.4 82.3 75.4999 82.3 75.6999C82.3 75.8999 82.2 76 82 75.9C81.8 75.9 81.6 75.7999 81.4 75.6999C81.2 75.5999 81 75.3999 80.8 75.1999C80.6 74.9999 80.4 74.8999 80.3 74.6999C80.1 74.4999 80 74.2999 79.9 74.1999C79.8 74.0999 79.7 73.9 79.6 73.8L79.5 73.6999V75.3C79.7 75.6 80 75.7999 80.4 76.0999C80.7 76.3999 81.1 76.7 81.5 76.9C81.9 77.2 82.3 77.3 82.6 77.4C82.9 77.5 83.2 77.5 83.4 77.4C83.6 77.3 83.8 77.1999 83.9 76.9999C84 76.7999 84.1 76.6 84.1 76.3C84.1 75.9 84 75.3999 83.8 74.9999C83.6 74.5999 83.3 74.2 82.9 73.9C82.7 73.7 82.5 73.6 82.4 73.4C82.2 73.3 82.1 73.0999 81.9 72.9999C81.6 72.7999 81.4 72.5999 81.4 72.4999C81.3 72.3999 81.3 72.1999 81.3 72.0999C81.3 71.8999 81.4 71.9 81.5 71.9C81.7 71.9 81.9 71.9999 82.1 72.0999C82.3 72.1999 82.5 72.2999 82.6 72.4999C82.8 72.6999 82.9 72.7999 83.1 72.9999C83.2 73.0999 83.3 73.3 83.5 73.4C83.6 73.6 83.7 73.7 83.8 73.8L83.9 73.9V72.4C83.7 72.2 83.4 71.8999 83.1 71.5999C82.7 71.2999 82.3 71 82 70.8Z" fill="black"/>
</g>
<defs>
<clipPath id="clip0">
<rect width="318.5" height="302.6" fill="white"/>
</clipPath>
</defs>
</svg>
