<svg width="89" height="89" viewBox="0 0 89 89" fill="none" xmlns="http://www.w3.org/2000/svg">
<g clip-path="url(#clip0)">
<path d="M80.4002 77.7999C78.0002 77.7999 75.9002 78.2999 74.4002 79.0999C72.9002 78.1999 70.4002 77.4999 67.3002 76.9999C65.1002 76.6999 65.0002 74.8999 53.7002 74.8999C42.4002 74.8999 49.9002 76.5999 46.6002 76.6999C39.6002 76.7999 36.4002 76.9999 33.9002 76.9999C25.1002 76.9999 17.9002 78.5999 17.9002 79.5999C17.9002 79.8999 15.7002 84.7999 16.8002 85.0999C18.2002 85.3999 26.0002 81.1999 26.0002 81.1999C28.3002 81.3999 31.0002 81.3999 33.9002 81.3999C37.9002 81.3999 43.4002 81.2999 45.2002 81.2999C47.0002 81.2999 48.6002 82.1999 46.2002 82.3999C43.8002 82.4999 43.8002 82.4999 42.7002 82.5999C38.2002 82.8999 32.9002 86.6999 32.9002 87.2999C32.9002 87.6999 41.7002 85.6999 41.7002 85.6999C47.9002 86.6999 57.3002 87.5999 64.2002 87.5999C74.6002 87.5999 74.6002 85.2999 75.7002 84.2999C77.0002 84.7999 78.6002 85.0999 80.4002 85.0999C84.7002 85.0999 88.2002 83.4999 88.2002 81.3999C88.2002 79.4999 84.8002 77.7999 80.4002 77.7999Z" fill="#BABCBE"/>
<path d="M14.3002 84.6C15.6002 85.3 18.6002 85.7 22.0002 83.1C24.6002 81.1 25.0002 80.2 25.0002 78.8C25.0002 76.1 20.2002 75.6 18.6002 78.5C17.1002 81.3 11.8002 83.2 14.3002 84.6Z" fill="white"/>
<path d="M16.7001 85.6999C15.5001 85.6999 14.6001 85.3999 14.0001 85.0999C13.4001 84.7999 13.1001 84.3999 13.1001 83.8999C13.0001 82.9999 14.1001 82.0999 15.4001 81.0999C16.4001 80.2999 17.6001 79.3999 18.2001 78.3999C19.3001 76.3999 21.6001 75.7999 23.3001 76.2999C24.7001 76.6999 25.6001 77.6999 25.6001 78.8999C25.6001 80.4999 25.1001 81.4999 22.4001 83.5999C20.2001 85.1999 18.2001 85.6999 16.7001 85.6999ZM14.5001 84.1999C15.5001 84.7999 18.4001 85.2999 21.6001 82.6999C24.1001 80.6999 24.4001 79.9999 24.4001 78.7999C24.4001 77.6999 23.4001 77.2999 22.9001 77.1999C21.6001 76.8999 19.8001 77.2999 19.0001 78.7999C18.4001 79.9999 17.1001 80.9999 16.0001 81.8999C15.2001 82.5999 14.1001 83.3999 14.1001 83.7999C14.2001 83.8999 14.3001 83.9999 14.5001 84.1999Z" fill="black"/>
<path d="M32.5001 87.2C33.6001 88.1 36.1001 87.9 38.8001 86.1C40.9001 84.7 42.9001 80.6 41.9001 79.6C39.0001 76.3 36.1001 78.3 35.3001 81.5C34.3001 85.3 30.3001 85.4 32.5001 87.2Z" fill="white"/>
<path d="M34.3003 88.1999C33.4003 88.1999 32.7003 87.9999 32.2003 87.5999C31.8003 87.2999 31.3003 86.8999 31.3003 86.2999C31.3003 85.5999 31.8003 85.1999 32.5003 84.5999C33.3003 83.8999 34.4003 82.9999 34.9003 81.2999C35.4003 79.2999 36.7003 77.7999 38.3003 77.3999C39.3003 77.1999 40.8003 77.2999 42.5003 79.1999C42.8003 79.5999 42.9003 80.0999 42.8003 80.7999C42.6003 82.4999 41.0003 85.2999 39.2003 86.4999C37.3003 87.6999 35.6003 88.1999 34.3003 88.1999ZM39.0003 78.2999C38.8003 78.2999 38.7003 78.2999 38.5003 78.3999C37.3003 78.6999 36.3003 79.8999 35.9003 81.4999C35.4003 83.4999 34.1003 84.5999 33.2003 85.2999C32.8003 85.5999 32.4003 85.9999 32.4003 86.1999C32.4003 86.1999 32.4003 86.3999 32.9003 86.6999C33.8003 87.3999 36.1003 87.1999 38.6003 85.4999C40.1003 84.4999 41.5003 81.9999 41.7003 80.4999C41.8003 79.9999 41.7003 79.7999 41.6003 79.6999C40.8003 78.8999 39.9003 78.2999 39.0003 78.2999Z" fill="black"/>
<path d="M25.6001 17.9001L36.9001 39.4001C36.9001 39.4001 38.6001 38.5001 40.7001 35.4001C42.8001 32.3001 43.0001 20.6001 40.4001 18.9001C37.8001 17.2001 30.5001 13.1001 30.5001 13.1001L25.6001 17.9001Z" fill="#DF846A"/>
<path d="M36.7 40.2L25 17.8L30.5 12.5L30.8 12.7C31.1 12.9 38.1 16.8 40.7 18.5C42.6 19.8 42.8 25.1 42.8 26.7C42.8 29.7 42.4 33.9 41.1 35.8C38.9 39 37.2 39.9 37.1 40L36.7 40.2Z" fill="#AEC6F7" stroke="#111111" stroke-miterlimit="10"/>
<path d="M32.2003 18.3998C32.2003 18.3998 30.3003 13.6998 30.5003 11.7998C30.7003 9.79978 30.5003 2.79978 28.6003 1.59978C25.1003 -0.600223 20.3003 1.89978 20.3003 4.99978C20.3003 8.69978 21.2003 13.7998 22.9003 14.3998C24.6003 14.9998 25.9003 23.8998 25.9003 23.8998L32.2003 18.3998Z" fill="#DF846A"/>
<path d="M15.7003 32.9998C12.7003 32.9998 8.40025 32.4998 3.90025 30.3998C2.90025 29.8998 2.40025 28.6998 2.90025 27.6998C3.40025 26.6998 4.60025 26.1998 5.60025 26.6998C10.5003 28.9998 15.3003 28.9998 17.6003 28.7998L19.1003 14.9998C19.2003 13.8998 20.3003 12.4998 21.5003 12.5998C21.5003 12.5998 23.3003 14.2998 23.2003 15.4998L21.5003 30.8998C21.4003 31.7998 20.7003 32.4998 19.9003 32.6998C19.7003 32.6998 18.1003 32.9998 15.7003 32.9998Z" fill="black"/>
<path d="M32.1998 18.4C32.1998 18.4 35.9998 21.9 36.0998 23C36.1998 24.1 38.1998 43.9 35.6998 45.4C33.1998 46.8 27.2998 44.1 23.8998 41.9C21.2998 40.1 20.7998 37.0999 21.3998 34.7999C23.4998 25.4 20.2998 13.9 20.2998 13.9C20.2998 13.9 20.6998 13.2 21.6998 13.2C22.3998 13.2 21.4998 13.6 22.8998 14.4C22.8998 14.4 24.5998 14.4 24.5998 14.9C24.5998 15.9 24.7998 17.6 26.4998 18.7C28.9998 20.3 32.1998 18.4 32.1998 18.4Z" fill="white"/>
<path d="M33.8 46.3C30.7 46.3 26.2 44.1 23.5 42.3C20.6 40.4 20.2 37 20.7 34.7C22.8 25.5 19.7 14.1 19.6 14L19.5 13.8L19.6 13.6C19.6 13.5 20 13 20.8 12.7C21 12.7 21.1 12.6 21.3 12.6C21.8 12.5 21.7 13.5 22.5 14.1C23.2 14.6 24.9 14.8 24.9 15C24.9 15.9 25.1 17.3 26.6 18.2C28.9 19.6 31.8 18 31.8 18L32.1 17.8L32.4 18.1C33.3 18.9 36.3 21.8 36.4 23V23.5C38.3 44.4 36.3 45.5 35.7 45.8C35.3 46.2 34.6 46.3 33.8 46.3ZM21.3 16.3C22.1 20.3 23.3 28 21.8 34.9C21.3 37 21.7 39.8 24.1 41.4C28 44 33.4 46.1 35.4 44.9C35.7 44.7 37.3 42.8 35.6 23.5V23C35.6 22.5 33.8 20.6 32.2 19C31.3 19.4 28.6 20.5 26.3 19C24.5 17.9 24.1 16 24.2 14.7C24.2 14.5 23.1 14.6 23.1 14.5C21.9 14 21.1 15.2 21.3 16.3Z" fill="black"/>
<path d="M40.2002 77.5997C40.1002 77.4997 35.2002 69.2997 34.8002 61.9997C34.4002 54.0997 37.1002 51.3997 36.9002 46.1997C36.7002 41.7997 29.8002 44.1997 25.1002 41.4997C23.6002 40.6997 21.5002 38.6997 21.5002 38.6997C20.9002 41.5997 17.9002 56.3997 18.3002 60.6997C18.6002 63.8997 18.4002 73.4997 18.3002 76.8997C18.3002 78.5997 19.6002 79.9997 21.3002 80.0997H21.4002C23.1002 80.0997 24.4002 78.7997 24.5002 77.0997C24.5002 76.5997 24.9002 64.2997 24.5002 60.0997C24.3002 58.4997 25.5002 50.7997 25.9002 49.0997C26.3002 47.3997 28.7002 48.6997 28.7002 50.2997C28.7002 51.8997 28.6002 57.3997 28.8002 62.0997C29.2002 70.9997 34.9002 80.1997 35.1002 80.5997C35.7002 81.4997 36.7002 82.0997 37.7002 82.0997C38.3002 82.0997 38.8002 81.9997 39.3002 81.5997C40.7002 80.9997 41.1002 79.0997 40.2002 77.5997Z" fill="#AEC6F7" stroke="#111111" stroke-miterlimit="10"/>
<path d="M37.6 82.7998C36.3 82.7998 35.2 82.1998 34.5 81.0998C34.3 80.6998 28.6 71.2998 28.1 62.3998C28 58.4998 28 54.1998 28 51.8998C28 51.2998 28 50.8998 28 50.4998C28 49.6998 27.2 48.9998 26.7 48.9998C26.5 48.9998 26.3 48.9998 26.3 49.3998C25.9 51.0998 24.8 58.6998 24.9 60.1998C25.3 64.2998 25 75.8998 24.9 77.2998C24.8 79.2998 23.3 80.7998 21.3 80.7998C19.2 80.6998 17.6 79.0998 17.7 77.0998C17.8 73.6998 18 63.9998 17.7 60.8998C17.3 56.6998 20.1 42.8998 20.9 38.6998L21.1 37.7998L21.8 38.3998C21.8 38.3998 23.9 40.2998 25.3 41.0998C27.2 42.0998 29.4 42.3998 31.5 42.5998C34.5 42.8998 37.3 43.1998 37.4 46.1998C37.5 48.5998 37 50.3998 36.5 52.3998C35.9 54.7998 35.1 57.5998 35.3 61.8998C35.6 68.9998 40.6 77.0998 40.6 77.1998C41.6 78.8998 41.1 81.0998 39.4 82.0998C38.9 82.5998 38.3 82.7998 37.6 82.7998ZM26.6 47.9998C26.7 47.9998 26.7 47.9998 26.8 47.9998C27.9 48.0998 29.1 49.1998 29.1 50.4998C29.1 50.7998 29.1 51.2998 29.1 51.8998C29.1 54.1998 29 58.4998 29.2 62.2998C29.6 70.9998 35.2 80.1998 35.4 80.5998C35.9 81.3998 36.7 81.7998 37.6 81.7998C38.1 81.7998 38.5 81.6998 38.9 81.3998C40.1 80.6998 40.5 79.0998 39.7 77.8998C39.5 77.5998 34.6 69.3998 34.2 62.0998C34 57.5998 34.7 54.7998 35.4 52.2998C35.9 50.2998 36.4 48.5998 36.3 46.3998C36.2 44.3998 34.4 44.0998 31.3 43.7998C29.2 43.5998 26.8 43.2998 24.8 42.1998C23.8 41.5998 22.5 40.5998 21.8 39.8998C20.9 44.0998 18.4 56.9998 18.8 60.8998C19.1 64.0998 18.9 73.7998 18.8 77.1998C18.8 78.5998 19.9 79.7998 21.3 79.7998C22.8 79.7998 23.9 78.6998 23.9 77.2998C23.9 75.9998 24.2 64.3998 23.9 60.3998C23.7 58.5998 25 50.7998 25.3 49.2998C25.4 48.3998 25.9 47.9998 26.6 47.9998Z" fill="black"/>
<path d="M9.40008 31.6999L3.80008 28.4999L8.39941e-05 18.9999C-0.099916 18.6999 0.200084 18.3999 0.500084 18.5999L4.80008 20.9999C5.10008 21.1999 5.30008 21.3999 5.50008 21.7999L9.40008 31.6999Z" fill="black"/>
<path d="M4.00022 29.3999C3.70022 29.3999 3.30022 29.2999 3.00022 29.0999C1.40022 27.7999 0.600223 25.5999 0.800223 22.9999C0.900223 22.1999 1.60022 21.4999 2.50022 21.5999C3.30022 21.6999 4.00022 22.3999 3.90022 23.2999C3.80022 24.3999 3.90022 25.8999 5.00022 26.6999C5.70022 27.1999 5.80022 28.1999 5.20022 28.8999C4.80022 29.1999 4.40022 29.3999 4.00022 29.3999Z" fill="#DF846A"/>
<path d="M4.00001 29.8998C3.50001 29.8998 3.10001 29.6998 2.70001 29.3998C0.900014 27.9998 1.41673e-05 25.6998 0.300014 22.8998C0.400014 21.7998 1.40001 20.8998 2.50001 20.9998C3.60001 21.0998 4.50001 22.0998 4.40001 23.1998C4.30001 24.1998 4.40001 25.4998 5.30001 26.1998C5.70001 26.4998 6.00001 26.9998 6.10001 27.5998C6.20001 28.0998 6.00001 28.6998 5.70001 29.0998C5.20001 29.5998 4.60001 29.8998 4.00001 29.8998ZM2.30001 22.0998C1.80001 22.0998 1.30001 22.4998 1.30001 22.9998C1.10001 25.3998 1.80001 27.3998 3.30001 28.5998C3.70001 28.8998 4.40001 28.8998 4.70001 28.3998C5.10001 27.9998 5.00001 27.3998 4.60001 26.9998C3.60001 26.1998 3.20001 24.8998 3.40001 23.1998C3.40001 22.8998 3.30001 22.6998 3.20001 22.3998C2.90001 22.1998 2.70001 22.0998 2.30001 22.0998C2.40001 22.0998 2.40001 22.0998 2.30001 22.0998Z" fill="black"/>
<path d="M33.2002 54.7999C32.9002 54.7999 32.7002 54.6999 32.4002 54.5999C31.3002 54.1999 30.8002 52.9999 31.3002 51.8999C31.3002 51.7999 34.1002 44.9999 34.4002 40.4999C34.6002 37.7999 33.8002 32.3999 33.0002 28.3999C32.7002 26.7999 33.9002 23.8999 34.8002 21.5999C35.2002 20.4999 36.0002 22.4999 36.3002 23.5999C36.4002 24.0999 38.9002 35.6999 38.5002 40.7999C38.1002 45.9999 35.2002 53.1999 35.1002 53.4999C34.8002 54.2999 34.0002 54.7999 33.2002 54.7999Z" fill="black"/>
<path d="M32.7004 55.5999C32.5004 55.5999 32.4004 55.5999 32.2004 55.4999C31.4004 55.1999 31.0004 54.3999 31.2004 53.4999L31.6004 52.1999C31.9004 51.3999 32.7004 50.9999 33.6004 51.1999C34.4004 51.4999 34.8004 52.2999 34.6004 53.1999L34.2004 54.4999C34.0004 55.1999 33.4004 55.5999 32.7004 55.5999Z" fill="#DF846A"/>
<path d="M32.7003 56.0999C32.5003 56.0999 32.3003 56.0999 32.0003 55.9999C31.5003 55.7999 31.1003 55.4999 30.8003 54.9999C30.6003 54.4999 30.5003 53.9999 30.7003 53.3999L31.2003 52.0999C31.4003 51.5999 31.7003 51.1999 32.2003 50.8999C32.7003 50.6999 33.3003 50.5999 33.8003 50.7999C34.9003 51.1999 35.5003 52.2999 35.1003 53.3999L34.6003 54.6999C34.4003 55.5999 33.6003 56.0999 32.7003 56.0999ZM33.2003 51.6999C33.0003 51.6999 32.9003 51.6999 32.7003 51.7999C32.5003 51.8999 32.3003 52.0999 32.2003 52.3999L31.7003 53.7999C31.6003 54.0999 31.6003 54.2999 31.8003 54.5999C31.9003 54.7999 32.1003 54.9999 32.4003 55.0999C32.9003 55.2999 33.5003 54.9999 33.7003 54.4999L34.2003 53.0999C34.3003 52.7999 34.3003 52.5999 34.1003 52.2999C34.0003 52.0999 33.8003 51.8999 33.5003 51.7999C33.4003 51.6999 33.3003 51.6999 33.2003 51.6999Z" fill="black"/>
<path d="M20.2002 4.89989C20.2002 4.89989 21.7002 1.89989 24.5002 6.29989C25.6002 7.99989 25.5002 8.29989 26.2002 8.49989C26.9002 8.59989 28.0002 5.59989 28.5002 8.19989C28.9002 10.3999 28.4002 12.3999 29.9002 12.5999C31.4002 12.7999 33.2002 9.59989 32.9002 7.49989C32.5002 5.39989 30.6002 0.599891 27.7002 0.199891C24.5002 -0.300109 21.3002 -0.300108 20.2002 4.89989Z" fill="black"/>
<path d="M34.1998 36.5999C33.8998 36.5999 33.5998 36.4999 33.3998 36.2999C30.9998 33.6999 29.2998 29.4999 29.2998 25.8999C29.2998 21.8999 31.9998 18.7999 34.4998 17.9999C34.9998 17.7999 35.5998 18.0999 35.7998 18.5999C35.9998 19.0999 35.6998 19.6999 35.1998 19.8999C33.2998 20.4999 31.3998 22.8999 31.3998 25.8999C31.3998 28.9999 32.7998 32.5999 34.8998 34.8999C35.2998 35.2999 35.2998 35.9999 34.7998 36.3999C34.6998 36.4999 34.3998 36.5999 34.1998 36.5999Z" fill="#AEC6F7" stroke="#111111" stroke-miterlimit="10"/>
<path d="M34.1999 37.0999C33.7999 37.0999 33.3999 36.8999 33.0999 36.5999C30.5999 33.8999 28.8999 29.5999 28.8999 25.8999C28.8999 21.5999 31.7999 18.3999 34.3999 17.4999C35.1999 17.1999 36.0999 17.6999 36.3999 18.4999C36.4999 18.8999 36.4999 19.2999 36.2999 19.6999C36.0999 20.0999 35.7999 20.2999 35.3999 20.4999C33.6999 21.0999 31.9999 23.2999 31.9999 25.9999C31.9999 28.9999 33.3999 32.3999 35.3999 34.5999C35.6999 34.8999 35.7999 35.2999 35.7999 35.6999C35.7999 36.0999 35.5999 36.4999 35.2999 36.7999C34.8999 36.9999 34.5999 37.0999 34.1999 37.0999ZM34.8999 18.3999C34.7999 18.3999 34.7999 18.3999 34.6999 18.3999C32.3999 19.1999 29.8999 22.0999 29.8999 25.7999C29.8999 29.1999 31.4999 33.2999 33.7999 35.7999C33.9999 35.9999 34.2999 35.9999 34.4999 35.7999C34.5999 35.6999 34.6999 35.5999 34.6999 35.3999C34.6999 35.2999 34.6999 35.0999 34.5999 34.9999C32.3999 32.5999 30.8999 28.8999 30.8999 25.6999C30.8999 22.4999 32.9999 19.8999 34.9999 19.2999C35.0999 19.2999 35.1999 19.1999 35.2999 18.9999C35.3999 18.8999 35.3999 18.6999 35.2999 18.5999C35.2999 18.5999 35.0999 18.3999 34.8999 18.3999Z" fill="black"/>
<path d="M22.1 28.9C20.5 26.4 19.5 23.3 19.5 20.5C19.5 16.5 22.2 13.4 24.7 12.6C25.2 12.4 25.8 12.7 26 13.2C26.2 13.7 25.9 14.3 25.4 14.5C23.5 15.1 21.6 17.5 21.6 20.5C21.6 21.6 21.8 22.7 22.1 23.8V28.9Z" fill="#AEC6F7" stroke="#111111" stroke-miterlimit="10"/>
<path d="M21.9 29.5998C20.1 26.9998 19 23.4998 19 20.4998C19 17.6998 20.2 15.2998 21.9 13.7998L25.5 15.0998C23.8 15.6998 22.1 17.8998 22.1 20.5998C22.1 23.4998 22.3 30.1998 21.9 29.5998ZM22.8 14.2998C21.3 15.5998 20 17.8998 20 20.4998C20 22.4998 20.5 24.6998 21.4 26.6998C21.6 27.0998 21.4 23.6998 21.2 22.6998C21.1 21.9998 21 21.1998 21 20.4998C21 17.8998 22.5 15.5998 24.1 14.4998L22.8 14.2998Z" fill="black"/>
<path d="M32.2002 18.9999C32.0002 18.9999 31.8002 18.8999 31.7002 18.6999C31.6002 18.4999 29.7002 13.8999 30.0002 11.7999C30.3002 9.39994 29.9002 2.99994 28.3002 1.99994C26.4002 0.799938 24.2002 1.19994 22.9002 1.99994C21.6002 2.69994 20.8002 3.79994 20.8002 4.99994C20.8002 9.29994 21.9002 13.4999 23.1002 13.8999C24.8002 14.4999 26.2002 14.7999 26.2002 14.7999C26.5002 14.8999 26.7002 15.0999 26.6002 15.3999C26.5002 15.6999 26.3002 15.8999 26.0002 15.7999C25.9002 15.7999 24.5002 15.3999 22.7002 14.7999C20.5002 13.9999 19.7002 8.29994 19.7002 4.89994C19.7002 3.39994 20.7002 1.89994 22.3002 0.999938C23.9002 0.0999377 26.5002 -0.400062 28.8002 1.09994C31.3002 2.59994 31.1002 10.6999 31.0002 11.7999C30.8002 13.2999 32.2002 16.8999 32.7002 18.1999C32.8002 18.4999 32.7002 18.7999 32.4002 18.8999C32.3002 18.8999 32.3002 18.9999 32.2002 18.9999Z" fill="black"/>
<path d="M35.8999 24.5998C35.5999 24.5998 35.3999 24.2998 35.3999 24.0998C35.5999 20.4998 37.4999 19.0998 38.2999 18.6998C39.1999 18.1998 40.1999 18.1998 40.6999 18.5998C40.8999 18.7998 40.9999 19.0998 40.8999 19.2998C40.6999 19.4998 40.3999 19.5998 40.1999 19.4998C39.9999 19.3998 39.4999 19.2998 38.7999 19.6998C38.1999 19.9998 36.6999 21.0998 36.4999 24.1998C36.3999 24.2998 36.1999 24.5998 35.8999 24.5998Z" fill="black"/>
</g>
<defs>
<clipPath id="clip0">
<rect width="88.2" height="88.2" fill="white"/>
</clipPath>
</defs>
</svg>
