<svg width="75" height="99" viewBox="0 0 75 99" fill="none" xmlns="http://www.w3.org/2000/svg">
<g clip-path="url(#clip0)">
<path d="M66.6999 83.3001C64.1999 83.3001 56.4999 83.0001 53.2999 82.5001C50.9999 82.2001 50.9999 80.4001 39.3999 80.4001C27.7999 80.4001 35.4999 82.2001 32.0999 82.2001C24.8999 82.3001 21.5999 82.5001 19.0999 82.5001C9.99985 82.5001 13.4999 89.1001 13.4999 89.1001C13.6999 89.3001 16.8999 87.1001 19.7999 87.1001C23.8999 87.1001 24.7999 87.0001 26.6999 87.0001L27.6999 90.4001C25.1999 90.5001 17.2999 92.2001 16.1999 92.3001C11.5999 92.7001 6.59985 97.4001 6.59985 98.0001C6.59985 98.4001 15.0999 95.4001 15.0999 95.4001C18.8999 96.0001 28.3999 95.1001 36.8999 94.3001C38.2999 94.2001 36.9999 95.6001 38.2999 95.5001C42.0999 95.2001 47.9999 93.3001 50.0999 93.3001C60.7999 93.3001 64.8999 90.7001 66.6999 90.7001C71.0999 90.7001 74.6999 89.0001 74.6999 86.9001C74.6999 84.9001 71.0999 83.3001 66.6999 83.3001Z" fill="#BABCBE"/>
<path d="M4.19997 97.7C5.29997 98.3 6.79997 98.3 9.29997 96.9C9.59997 96.7 9.99997 95.8 10.6 95.5C11.4 95 12.3 95.2 12.5 94.9C13.2 94.3 13.6 93.6 13.6 93.2C13.6 92.9 13.5 89.6 13.2 89.4C12.3 88.9 10.2 89.2 8.09997 90.1C7.69997 90.3 7.19997 93.7 6.79997 94C4.29997 95.4 3.19997 97.1 4.19997 97.7Z" fill="white"/>
<path d="M5.80005 98.6C5.10005 98.6 4.50005 98.4 4.00005 98.1C3.60005 97.9 3.30005 97.5 3.30005 97C3.30005 96 4.50005 94.7 6.50005 93.5C6.60005 93.3 6.80005 92.4 7.00005 91.9C7.40005 90.3 7.60005 89.8 8.00005 89.6C9.90005 88.7 12.4 88.2 13.6 88.9C14.1 89.2 14.3 91.4 14.3 93.1C14.3 93.9 13.6 94.7 13 95.2C12.8 95.4 12.4 95.5 12 95.5C11.7 95.6 11.3 95.6 10.9 95.8C10.7 95.9 10.4 96.3 10.3 96.5C10.1 96.8 9.90005 97.1 9.70005 97.2C8.10005 98.2 6.90005 98.6 5.80005 98.6ZM4.50005 97.2C5.60005 97.8 7.00005 97.5 9.00005 96.4C9.10005 96.4 9.20005 96.1 9.30005 96C9.60005 95.7 9.90005 95.2 10.3 95C10.8 94.7 11.4 94.6 11.8 94.5C12 94.5 12.2 94.4 12.2 94.4C12.9 93.8 13.1 93.3 13.1 93.1C13.1 92.6 13 90.4 12.8 89.8C12.1 89.5 10.3 89.7 8.40005 90.6C8.30005 90.9 8.10005 91.7 7.90005 92.2C7.50005 93.7 7.40005 94.2 7.00005 94.5C5.00005 95.6 4.30005 96.7 4.30005 97.1C4.40005 97.1 4.40005 97.1 4.50005 97.2Z" fill="black"/>
<path d="M9.50003 88.4001C10.6 89.0001 12.4 88.9001 14.9 87.4001C15.3 87.2001 15.7 86.6001 16.2 86.2001C16.8 85.9001 17.5 85.8001 17.9 85.4001C18.7 84.7001 18.8 84.2001 18.8 83.8001C18.8 82.1001 17.2 80.3001 16.9 80.2001C15.8 79.6001 14.4 83.2001 11.9 84.6001C9.50003 86.2001 8.40003 87.8001 9.50003 88.4001Z" fill="white"/>
<path d="M10.9 89.3001C10.2 89.3001 9.7 89.2001 9.2 88.9001C8.8 88.7001 8.5 88.3001 8.5 87.8001C8.5 86.8001 9.7 85.4001 11.8 84.3001C12.9 83.7001 13.8 82.5001 14.6 81.6001C15.5 80.4001 16.4 79.4001 17.3 79.9001C17.7 80.2001 19.4 82.0001 19.4 84.0001C19.4 84.7001 19 85.4001 18.3 86.0001C18 86.3001 17.6 86.4001 17.3 86.5001C17 86.6001 16.8 86.7001 16.6 86.8001C16.4 86.9001 16.2 87.1001 16 87.3001C15.8 87.5001 15.5 87.8001 15.3 87.9001C13.6 88.8001 12.1 89.3001 10.9 89.3001ZM16.7 80.8001C16.5 80.8001 15.8 81.7001 15.4 82.2001C14.6 83.2001 13.6 84.5001 12.3 85.2001C10.3 86.3001 9.6 87.4001 9.6 87.8001C9.6 87.8001 9.6 87.9001 9.7 88.0001C10.7 88.6001 12.5 88.2001 14.6 87.0001C14.7 86.9001 14.9 86.7001 15.1 86.6001C15.3 86.4001 15.6 86.1001 15.9 85.9001C16.2 85.7001 16.6 85.6001 16.9 85.5001C17.2 85.4001 17.4 85.3001 17.6 85.2001C18.1 84.8001 18.3 84.4001 18.3 84.0001C18.3 82.5001 16.9 80.9001 16.7 80.8001Z" fill="black"/>
<path d="M2.90003 48.3002C2.80003 48.3002 2.60003 48.3002 2.50003 48.3002C1.40003 48.1002 0.600027 47.0002 0.800027 45.8002C1.30003 43.4002 4.30003 36.9002 4.30003 35.6002C4.40003 32.5002 5.00003 17.3002 5.00003 17.1002C5.00003 16.0002 5.90003 15.0002 7.00003 14.9002C8.10003 14.8002 9.10003 15.7002 9.20003 16.9002C9.20003 17.5002 8.60003 32.3002 8.60003 35.6002C8.60003 37.7002 5.40003 44.6002 5.00003 46.6002C4.80003 47.6002 3.90003 48.3002 2.90003 48.3002Z" fill="white"/>
<path d="M2.89998 48.9001C2.69998 48.9001 2.49998 48.9001 2.39998 48.8001C1.69998 48.7001 1.09998 48.3001 0.699984 47.7001C0.299984 47.1001 0.199984 46.4001 0.299984 45.7001C0.499984 44.5001 1.39998 42.3001 2.19998 40.2001C2.89998 38.3001 3.79998 36.1001 3.79998 35.6001C3.79998 33.2001 4.19998 24.0001 4.29998 19.6001C4.39998 18.2001 4.39998 17.3001 4.39998 17.2001C4.29998 15.8001 5.49998 14.5001 6.89998 14.4001C8.29998 14.3001 9.59998 15.5001 9.69998 16.9001C9.69998 17.2001 9.59998 19.1001 9.49998 22.8001C9.29998 27.4001 9.09998 33.7001 9.09998 35.6001C9.09998 37.0001 7.99998 39.8001 6.89998 42.6001C6.19998 44.3001 5.59998 46.0001 5.49998 46.7001C5.29998 48.0001 4.19998 48.9001 2.89998 48.9001ZM7.09998 15.5001C6.19998 15.5001 5.49998 16.3001 5.49998 17.1001C5.49998 17.2001 5.49998 17.2001 5.39998 19.6001C5.19998 24.0001 4.89998 33.2001 4.89998 35.6001C4.89998 36.3001 4.29998 38.0001 3.19998 40.6001C2.39998 42.6001 1.59998 44.7001 1.29998 45.9001C1.19998 46.3001 1.29998 46.7001 1.49998 47.1001C1.69998 47.4001 2.09998 47.7001 2.49998 47.8001C3.39998 48.0001 4.19998 47.4001 4.29998 46.6001C4.59998 45.6001 5.19998 44.0001 5.99998 42.2001C6.89998 39.8001 7.99998 36.7001 7.99998 35.6001C7.99998 33.6001 8.19998 27.6001 8.39998 22.7001C8.49998 19.9001 8.59998 17.2001 8.59998 16.9001C8.59998 16.1001 7.89998 15.5001 7.09998 15.5001Z" fill="black"/>
<path d="M1.60003 48.3001C1.50003 48.3001 1.40003 48.3001 1.30003 48.2001C0.700034 48.0001 0.400035 47.4001 0.600035 46.9001L1.30003 44.8001C1.40003 44.3001 2.00003 44.0001 2.60003 44.2001C3.20003 44.4001 3.50003 45.0001 3.30003 45.5001L2.60003 47.6001C2.50003 48.0001 2.00003 48.3001 1.60003 48.3001Z" fill="#DF846A"/>
<path d="M1.59996 48.9001C1.39996 48.9001 1.29996 48.9001 1.09996 48.8001C0.299963 48.5001 -0.200037 47.6001 0.0999629 46.8001L0.799963 44.7001C1.09996 43.9001 1.99996 43.4001 2.79996 43.7001C3.59996 44.0001 4.09996 44.9001 3.79996 45.7001L3.09996 47.8001C2.89996 48.4001 2.29996 48.9001 1.59996 48.9001ZM2.29996 44.7001C2.19996 44.7001 2.09996 44.7001 2.09996 44.8001C1.99996 44.9001 1.89996 45.0001 1.79996 45.1001L1.09996 47.2001C0.999963 47.5001 1.19996 47.8001 1.39996 47.8001C1.69996 47.9001 1.99996 47.7001 1.99996 47.5001L2.69996 45.4001C2.79996 45.1001 2.59996 44.8001 2.39996 44.8001C2.39996 44.7001 2.29996 44.7001 2.29996 44.7001Z" fill="black"/>
<path d="M16.7999 20.5001C16.7999 22.2001 12.4999 22.6001 10.8999 22.6001C9.2999 22.6001 6.8999 17.3001 6.8999 15.6001C6.8999 13.9001 8.6999 14.4001 10.2999 14.4001C11.8999 14.4001 16.7999 18.8001 16.7999 20.5001Z" fill="#DF846A"/>
<path d="M14.6998 84.3002C13.7998 84.3002 12.8998 83.8002 12.3998 83.0002C12.1998 82.7002 8.29983 76.2002 6.99983 73.6002C5.89983 71.4002 5.29983 66.5002 4.39983 58.6002C4.19983 56.9002 3.99983 55.2002 3.79983 53.6002C3.59983 52.2002 4.59983 50.8002 6.09983 50.7002C7.49983 50.5002 8.89983 51.5002 8.99983 53.0002C9.19983 54.6002 9.39983 56.3002 9.59983 58.0002C10.1998 62.9002 10.9998 69.7002 11.6998 71.3002C12.8998 73.7002 16.7998 80.2002 16.7998 80.3002C17.5998 81.5002 17.1998 83.2002 15.8998 83.9002C15.6998 84.2002 15.1998 84.3002 14.6998 84.3002Z" fill="#111111"/>
<path d="M14.6999 84.9002C13.5999 84.9002 12.5999 84.3002 11.9999 83.4002C11.9999 83.3002 7.8999 76.6001 6.5999 73.9001C5.4999 71.6001 4.7999 66.6001 3.8999 58.8001L3.7999 58.3001C3.5999 56.8001 3.3999 55.3001 3.2999 53.8001C3.1999 53.0001 3.3999 52.1001 3.8999 51.5001C4.3999 50.8001 5.1999 50.4001 5.9999 50.3001C6.7999 50.2001 7.6999 50.4001 8.2999 50.9001C8.9999 51.4001 9.3999 52.2001 9.4999 53.0001C9.6999 54.6001 9.8999 56.3001 10.0999 58.0001C10.5999 62.6001 11.4999 69.6001 12.1999 71.1001C13.2999 73.5001 17.1999 79.8001 17.2999 80.0001C17.6999 80.7001 17.8999 81.6002 17.6999 82.4002C17.4999 83.2002 16.9999 83.9002 16.2999 84.4002C15.8999 84.7002 15.2999 84.9002 14.6999 84.9002ZM6.4999 51.2001C6.3999 51.2001 6.2999 51.2001 6.1999 51.2001C5.0999 51.3001 4.1999 52.4001 4.3999 53.5001C4.5999 54.9001 4.7999 56.5001 4.8999 58.0001L4.9999 58.6001C5.8999 66.4001 6.4999 71.2001 7.5999 73.4001C8.8999 76.1001 12.8999 82.7002 12.9999 82.8002C13.5999 83.8002 14.8999 84.1001 15.8999 83.5001C16.3999 83.2001 16.6999 82.8001 16.7999 82.2001C16.8999 81.7001 16.7999 81.1001 16.5999 80.6001C16.3999 80.3001 12.5999 74.0001 11.3999 71.6001C10.6999 70.1001 9.9999 64.6001 9.1999 58.2001C8.9999 56.4001 8.7999 54.7001 8.5999 53.1001C8.4999 52.5001 8.1999 52.1001 7.7999 51.7001C7.3999 51.4001 6.9999 51.2001 6.4999 51.2001Z" fill="black"/>
<path d="M10.7999 92.2002C10.7999 92.2002 10.7999 92.1002 10.7999 92.2002C9.29992 92.6002 8.09992 91.9002 8.19992 90.5002C8.19992 89.9002 8.49992 76.7002 9.49992 71.0002C10.4999 65.2002 14.5999 54.3002 14.6999 53.8002C15.1999 52.4002 16.6999 51.7002 18.0999 52.3002C19.4999 52.8002 20.1999 54.3002 19.5999 55.7002C19.5999 55.8002 15.4999 66.6002 14.5999 71.9002C13.6999 77.3002 13.3999 89.8002 13.3999 89.9002C13.3999 91.2002 12.2999 91.7002 10.7999 92.2002Z" fill="#111111"/>
<path d="M9.89985 92.8001C9.29985 92.8001 8.79985 92.6001 8.39985 92.3001C7.99985 92.0001 7.59985 91.4001 7.59985 90.4001C7.59985 89.0001 7.89985 76.4001 8.89985 70.8001C9.89985 64.9001 13.9999 54.0001 14.1999 53.5001C14.4999 52.7001 15.0999 52.1001 15.8999 51.7001C16.6999 51.3001 17.4999 51.3001 18.2999 51.6001C19.8999 52.2001 20.7999 54.1001 20.1999 55.7001C20.1999 55.8001 16.0999 66.6001 15.1999 71.8001C14.2999 77.0001 13.9999 88.5001 13.9999 89.8001C13.9999 91.7001 12.4999 92.3001 10.9999 92.7001H10.8999C10.4999 92.8001 10.1999 92.8001 9.89985 92.8001ZM17.0999 52.5001C16.7999 52.5001 16.4999 52.6001 16.1999 52.7001C15.6999 52.9001 15.2999 53.3001 15.0999 53.9001C15.0999 54.0001 10.8999 65.2001 9.89985 71.0001C8.99985 76.5001 8.69985 89.0001 8.69985 90.4001C8.69985 90.9001 8.79985 91.2001 9.09985 91.4001C9.39985 91.7001 9.99985 91.7001 10.5999 91.6001H10.6999C12.2999 91.1001 12.8999 90.7001 12.8999 89.8001C12.8999 88.5001 13.1999 76.9001 14.0999 71.7001C14.9999 66.3001 19.0999 55.5001 19.0999 55.4001C19.4999 54.3001 18.9999 53.1001 17.8999 52.7001C17.5999 52.6001 17.3999 52.5001 17.0999 52.5001Z" fill="black"/>
<path d="M18.4 41.3001C22.3 46.2001 22.7 57.1001 22.7 68.9001C22.7 72.3001 15.6 69.6001 9.9 65.8001C5 62.6001 1.5 59.3001 1.5 56.4001C1.5 43.9001 6.6 41.5001 6.6 35.2001C6.6 29.0001 3.7 28.1001 3.7 23.6001C3.7 21.1001 4.3 18.2001 4.7 16.2001C5 14.9001 6.5 14.2001 7.7 14.9001C7.7 14.9001 6.9 19.3001 10.3 21.3001C13.8 23.3001 17.3 20.7001 17.3 20.7001C19.2 21.5001 20.4 23.7001 20.4 23.7001C19.4 27.9001 15.8 38.1001 18.4 41.3001Z" fill="#AEC6F7" stroke="#111111" stroke-miterlimit="10"/>
<path d="M20.7001 71C17.9001 71 13.2 68.7 9.50005 66.2C3.70005 62.3 0.800049 59.1 0.800049 56.3C0.800049 48.9 2.60005 44.9 4.10005 41.7C5.10005 39.5 6.00005 37.6 6.00005 35.1C6.00005 31.8 5.20005 30.1 4.40005 28.5C3.70005 27 3.10005 25.7 3.10005 23.5C3.10005 20.9 3.70005 18 4.10005 15.9C4.30005 15.1 4.80005 14.4 5.60005 14.1C6.40005 13.8 7.20005 13.8 7.90005 14.3L8.20005 14.5L8.10005 14.9C8.10005 15.1 7.40005 19 10.5 20.7C13.6 22.5 16.8 20.1 16.9 20.1L17.1 19.9L17.4 20C19.4 20.8 20.8 23.1 20.8 23.2L20.9 23.4V23.6C20.7 24.5 20.4 25.5 20.1 26.8C18.8001 31.5 16.9 38.6 18.8 40.9C22.9 46 23.2001 57 23.2001 68.8C23.2001 69.8 22.7001 70.3 22.2001 70.6C21.8001 70.9 21.3001 71 20.7001 71ZM6.60005 15C6.40005 15 6.20005 15 6.00005 15.1C5.60005 15.3 5.20005 15.7 5.10005 16.1C4.60005 18.1 4.10005 20.9 4.10005 23.4C4.10005 25.4 4.70005 26.6 5.30005 28C6.10005 29.7 7.00005 31.6 7.00005 35.1C7.00005 37.8 6.10005 39.8 5.00005 42.1C3.60005 45.2 1.80005 49.1 1.80005 56.3C1.80005 58.6 4.50005 61.7 10 65.3C14.9 68.5 20.1 70.5 21.6 69.7C21.8 69.6 22 69.4 22 68.9C22 57.3 21.7 46.5 17.8 41.6C15.6 38.8 17.5 31.7 18.9 26.5C19.2 25.4 19.5001 24.4 19.7001 23.6C19.4001 23.1 18.5001 21.8 17.2001 21.1C16.3001 21.7 13.1 23.4 9.90005 21.6C6.80005 19.8 6.80005 16.3 6.90005 15.1C6.90005 15 6.70005 15 6.60005 15Z" fill="black"/>
<path d="M9.90002 47.4C9.30002 47.4 8.80002 47.2 8.30002 46.7C7.50002 45.8 7.60002 44.5 8.50002 43.7C11.6 40.9 14.1 38.8 15.2 36.5C16.3 34.3 16.4 27.9 16.3 24.4C16.2 23.1999 17.1 22.2 18.3 22.2C19.4 22.2 20.5 23 20.5 24.2C20.6 25.2 21 34.5 19 38.4C17.1 42.2 12.2 45.9999 11.3 46.7999C10.9 47.2999 10.4 47.4 9.90002 47.4Z" fill="white"/>
<path d="M9.89995 48C9.19995 48 8.39995 47.7 7.89995 47.1C7.39995 46.6 7.19995 45.9001 7.19995 45.2001C7.19995 44.5001 7.49995 43.8001 8.09995 43.4001L9.09995 42.5C11.7 40.2 13.7 38.4001 14.7 36.4001C15.7 34.4001 15.9 28.3001 15.7 24.6C15.6 23.1 16.8 21.9 18.2 21.8C19.7 21.8 20.9 22.9 21 24.3C21.1 25.4 21.5 34.7 19.4 38.8C17.7 42.2 13.8 45.5001 12.1 46.9001C11.9 47.1001 11.7 47.2 11.6 47.3C11.2 47.8 10.6 48 9.89995 48ZM18.4 22.8C17.5 22.8 16.8 23.6 16.9 24.4C17 27 17 34.3 15.8 36.8C14.7 38.9 12.6 40.8001 9.99995 43.2001L8.99995 44.1C8.69995 44.4 8.49995 44.8001 8.49995 45.2001C8.49995 45.6001 8.59995 46 8.89995 46.3C9.49995 46.9 10.5 47.0001 11.1 46.4001C11.2 46.3001 11.4 46.1001 11.6 45.9001C13.1 44.6001 17 41.3 18.6 38.1C20.5 34.3 20.1 25.2001 20.1 24.2001C20 23.5001 19.3 22.8 18.4 22.8Z" fill="black"/>
<path d="M17.2 20.5002C17.2 20.5002 14.9 17.4002 14.7 14.9002C14.4 12.4002 15.1 8.90023 15.3 7.00023C15.5 5.10023 15.9 1.90023 11.5 1.40023C6.9 1.00023 5.1 3.30023 5 6.40023C5 9.50023 6.3 13.1002 7.5 14.5002C8.7 15.9002 11 16.0002 11 16.0002L17.2 20.5002Z" fill="#DF846A"/>
<path d="M17.1999 21.0001C16.9999 21.0001 16.8999 20.9001 16.7999 20.8001C16.6999 20.7001 14.3999 17.5001 14.1999 14.9001C13.9999 13.0001 14.2999 10.7001 14.5999 8.70013C14.6999 8.00013 14.7999 7.40013 14.7999 6.80013V6.70013C14.9999 4.70013 15.1999 2.20013 11.4999 1.90013C9.4999 1.70013 7.9999 2.00013 6.9999 2.90013C5.9999 3.80013 5.5999 4.90013 5.5999 6.40013C5.4999 9.50013 6.8999 12.9001 7.8999 14.1001C8.6999 15.1001 10.3999 15.4001 10.9999 15.4001C11.2999 15.4001 11.4999 15.7001 11.4999 16.0001C11.4999 16.3001 11.1999 16.5001 10.8999 16.5001C10.7999 16.5001 8.2999 16.4001 6.9999 14.8001C5.6999 13.2001 4.3999 9.40013 4.3999 6.40013C4.3999 4.60013 4.9999 3.20013 6.0999 2.20013C7.2999 1.10013 9.0999 0.700132 11.3999 0.900132C16.1999 1.40013 15.8999 5.00013 15.6999 6.90013V7.00013C15.6999 7.50013 15.5999 8.20013 15.4999 8.90013C15.1999 10.8001 14.8999 13.1001 15.0999 14.8001C15.2999 17.1001 17.4999 20.1001 17.4999 20.1001C17.6999 20.3001 17.5999 20.7001 17.3999 20.9001C17.3999 21.0001 17.2999 21.0001 17.1999 21.0001Z" fill="black"/>
<path d="M4.69997 6.30004C6.79997 9.20004 10.4 7.70004 10.4 7.70004C11.5 10.9 12.8 22 15.1 23.4C18.4 25.3 20.9 21 20.9 21C20.9 21 17.1 19.3 16.8 13.1C16.5 6.90004 18.2 5.00004 15.2 1.50004C13.7 -0.199956 10.7 4.41968e-05 9.29997 0.300044C4.59997 1.20004 3.89997 5.20004 4.69997 6.30004Z" fill="black"/>
<path d="M24.8001 51.2001L18.6001 54.8001C17.1001 55.7001 15.1001 54.8001 14.7001 53.1001L13.8001 49.1001C13.5001 47.7001 14.1001 46.2001 15.4001 45.4001L22.1001 41.6001C23.4001 40.9001 25.0001 41.6001 25.3001 43.0001L26.3001 47.7001C26.7001 49.1001 26.0001 50.5001 24.8001 51.2001Z" fill="white"/>
<path d="M17.3 55.7C16.9 55.7 16.4 55.6 16 55.4C15.1 55 14.4 54.2 14.2 53.2L13.3 49.2C12.9 47.5 13.7 45.8 15.2 44.9L21.9 41.1C22.7 40.7 23.6 40.6 24.4 41C25.2 41.4 25.8 42.1 26 42.9L27 47.6C27.4 49.2 26.6 50.9 25.2 51.8L19 55.4C18.3 55.6 17.8 55.7 17.3 55.7ZM23.2 41.8C22.9 41.8 22.6 41.9 22.4 42L15.7 45.8C14.6 46.4 14.1 47.7 14.3 48.9L15.2 52.9C15.3 53.6 15.8 54.1 16.4 54.4C17 54.7 17.7 54.6 18.3 54.3L24.5 50.7C25.5 50.1 26.1 48.9 25.8 47.7L24.8 43C24.7 42.5 24.3 42.1 23.9 41.8C23.6 41.9 23.4 41.8 23.2 41.8Z" fill="black"/>
<path d="M18.5998 54.8001C17.0998 55.7001 15.0998 54.8001 14.6998 53.1001L13.7998 49.1001C13.4998 47.7001 18.5998 54.8001 18.5998 54.8001Z" fill="white"/>
<path d="M17.2999 55.7002C16.8999 55.7002 16.3999 55.6002 15.9999 55.4002C15.0999 55.0002 14.3999 54.2002 14.1999 53.2002L13.2999 49.2002C13.1999 48.6002 13.4999 48.4002 13.5999 48.4002C14.0999 48.2002 14.3999 48.0002 18.9999 54.5002L19.2999 55.0002L18.7999 55.3002C18.2999 55.6002 17.7999 55.7002 17.2999 55.7002ZM14.6999 50.5002L15.1999 53.0002C15.2999 53.7002 15.7999 54.2002 16.3999 54.5002C16.7999 54.7002 17.2999 54.7002 17.6999 54.6002C16.5999 53.1002 15.4999 51.5002 14.6999 50.5002Z" fill="black"/>
<path d="M19.6 49.5999C19.2 49.5999 18.7 49.5 18.3 49.4C16.9 48.9 15.6 47.3999 15 45.5999L16 45.2999C16.5 46.7999 17.5 48 18.7 48.4C19.5 48.7 20.3 48.5999 21.2 48.0999C23.3 46.8999 23.6 44.9999 22.3 41.5999L23.3 41.2C24.3 43.8 25.1 47.0999 21.8 49.0999C21 49.4999 20.3 49.5999 19.6 49.5999Z" fill="black"/>
<path d="M23.2999 32.1C22.3999 26.7 21.6999 22 19.8999 20.9C19.3999 20.6 18.8999 20.6 18.3999 20.8C15.3999 22 13.8999 31.5 13.3999 39.3C13.3999 39.8 14.4999 38.7 14.5999 38C15.1999 30.7 16.6999 22.6 18.7999 21.8C18.9999 21.7 19.1999 21.7 19.3999 21.8C20.7999 22.6 21.5999 27.7 22.2999 32.2C22.8999 36 23.4999 40 24.5999 42.4L25.5999 42C24.4999 39.7 23.8999 35.9 23.2999 32.1Z" fill="black"/>
<path d="M14.0999 44.6C14.0999 44 13.0999 45.2 13.0999 45.8C13.0999 46.8 13.1999 47.7001 13.1999 48.4001L14.1999 48.3C14.0999 47.3 14.0999 46.1 14.0999 44.6Z" fill="black"/>
<path d="M6.79975 49.4C6.49975 49.4 6.19975 49.3 5.99975 49C5.59975 48.5 5.69975 47.9 6.19975 47.5L7.49975 46C7.49975 46 5.89975 45.8 6.19975 45.2C6.49975 44.6 8.69975 44.1 10.0997 45.7C10.4997 46.1 10.6997 47.1 10.2997 47.5L7.49975 49.1C7.29975 49.3 6.99975 49.4 6.79975 49.4Z" fill="#DF846A"/>
<path d="M6.79985 49.9001C6.29985 49.9001 5.79985 49.7001 5.49985 49.3001C5.19985 49.0001 5.09985 48.5001 5.19985 48.1001C5.19985 47.7001 5.49985 47.3001 5.79985 47.0001L6.39985 46.3001C5.99985 46.2001 5.69985 46.0001 5.59985 45.7001C5.49985 45.5001 5.49985 45.2001 5.59985 44.9001C5.79985 44.5001 6.39985 44.2001 7.19985 44.1001C7.79985 44.0001 9.19985 44.0001 10.3999 45.2001C10.7999 45.6001 10.9999 46.2001 10.9999 46.8001C10.9999 47.2001 10.7999 47.5001 10.4999 47.8001L7.69985 49.5001C7.59985 49.8001 7.19985 49.9001 6.79985 49.9001ZM6.99985 45.4001C7.19985 45.5001 7.39985 45.5001 7.59985 45.5001C7.79985 45.5001 7.99985 45.7001 7.99985 45.9001C8.09985 46.1001 7.99985 46.3001 7.89985 46.4001L6.59985 47.9001C6.39985 48.0001 6.39985 48.2001 6.29985 48.3001C6.29985 48.4001 6.29985 48.6001 6.39985 48.7001C6.49985 48.8001 6.59985 48.9001 6.79985 48.9001C6.89985 48.9001 6.99985 48.9001 7.09985 48.8001L9.99985 47.0001C9.99985 47.0001 9.99985 47.0001 9.99985 46.9001C9.99985 46.6001 9.89985 46.3001 9.69985 46.1001C8.99985 45.3001 8.09985 45.2001 7.59985 45.3001C7.39985 45.3001 7.09985 45.3001 6.99985 45.4001Z" fill="black"/>
</g>
<defs>
<clipPath id="clip0">
<rect width="74.7" height="98.6" fill="white"/>
</clipPath>
</defs>
</svg>
