<svg width="75" height="99" viewBox="0 0 75 99" fill="none" xmlns="http://www.w3.org/2000/svg">
<g clip-path="url(#clip0)">
<path d="M66.7001 83.3001C64.2001 83.3001 56.5001 83.0001 53.3001 82.5001C51.0001 82.2001 51.0001 80.4001 39.4001 80.4001C27.8001 80.4001 35.5001 82.2001 32.1001 82.2001C24.9001 82.3001 21.6001 82.5001 19.1001 82.5001C10.0001 82.5001 13.5001 89.1001 13.5001 89.1001C13.7001 89.3001 16.9001 87.1001 19.8001 87.1001C23.9001 87.1001 24.8001 87.0001 26.7001 87.0001L27.7001 90.4001C25.2001 90.5001 17.3001 92.2001 16.2001 92.3001C11.6001 92.7001 6.6001 97.4001 6.6001 98.0001C6.6001 98.4001 15.1001 95.4001 15.1001 95.4001C18.9001 96.0001 28.4001 95.1001 36.9001 94.3001C38.3001 94.2001 37.0001 95.6001 38.3001 95.5001C42.1001 95.2001 48.0001 93.3001 50.1001 93.3001C60.8001 93.3001 64.9001 90.7001 66.7001 90.7001C71.1001 90.7001 74.7001 89.0001 74.7001 86.9001C74.7001 84.9001 71.1001 83.3001 66.7001 83.3001Z" fill="#BABCBE"/>
<path d="M4.20021 97.7C5.30021 98.3 6.80021 98.3 9.30021 96.9C9.60021 96.7 10.0002 95.8 10.6002 95.5C11.4002 95 12.3002 95.2 12.5002 94.9C13.2002 94.3 13.6002 93.6 13.6002 93.2C13.6002 92.9 13.5002 89.6 13.2002 89.4C12.3002 88.9 10.2002 89.2 8.10021 90.1C7.70021 90.3 7.20021 93.7 6.80021 94C4.30021 95.4 3.20021 97.1 4.20021 97.7Z" fill="white"/>
<path d="M5.80029 98.6C5.10029 98.6 4.50029 98.4 4.00029 98.1C3.60029 97.9 3.30029 97.5 3.30029 97C3.30029 96 4.50029 94.7 6.50029 93.5C6.60029 93.3 6.80029 92.4 7.00029 91.9C7.40029 90.3 7.60029 89.8 8.00029 89.6C9.90029 88.7 12.4003 88.2 13.6003 88.9C14.1003 89.2 14.3003 91.4 14.3003 93.1C14.3003 93.9 13.6003 94.7 13.0003 95.2C12.8003 95.4 12.4003 95.5 12.0003 95.5C11.7003 95.6 11.3003 95.6 10.9003 95.8C10.7003 95.9 10.4003 96.3 10.3003 96.5C10.1003 96.8 9.90029 97.1 9.70029 97.2C8.10029 98.2 6.90029 98.6 5.80029 98.6ZM4.50029 97.2C5.60029 97.8 7.00029 97.5 9.00029 96.4C9.10029 96.4 9.20029 96.1 9.30029 96C9.60029 95.7 9.90029 95.2 10.3003 95C10.8003 94.7 11.4003 94.6 11.8003 94.5C12.0003 94.5 12.2003 94.4 12.2003 94.4C12.9003 93.8 13.1003 93.3 13.1003 93.1C13.1003 92.6 13.0003 90.4 12.8003 89.8C12.1003 89.5 10.3003 89.7 8.40029 90.6C8.30029 90.9 8.10029 91.7 7.90029 92.2C7.50029 93.7 7.40029 94.2 7.00029 94.5C5.00029 95.6 4.30029 96.7 4.30029 97.1C4.40029 97.1 4.40029 97.1 4.50029 97.2Z" fill="black"/>
<path d="M9.50003 88.4001C10.6 89.0001 12.4 88.9001 14.9 87.4001C15.3 87.2001 15.7 86.6001 16.2 86.2001C16.8 85.9001 17.5 85.8001 17.9 85.4001C18.7 84.7001 18.8 84.2001 18.8 83.8001C18.8 82.1001 17.2 80.3001 16.9 80.2001C15.8 79.6001 14.4 83.2001 11.9 84.6001C9.50003 86.2001 8.40003 87.8001 9.50003 88.4001Z" fill="white"/>
<path d="M10.9 89.3001C10.2 89.3001 9.7 89.2001 9.2 88.9001C8.8 88.7001 8.5 88.3001 8.5 87.8001C8.5 86.8001 9.7 85.4001 11.8 84.3001C12.9 83.7001 13.8 82.5001 14.6 81.6001C15.5 80.4001 16.4 79.4001 17.3 79.9001C17.7 80.2001 19.4 82.0001 19.4 84.0001C19.4 84.7001 19 85.4001 18.3 86.0001C18 86.3001 17.6 86.4001 17.3 86.5001C17 86.6001 16.8 86.7001 16.6 86.8001C16.4 86.9001 16.2 87.1001 16 87.3001C15.8 87.5001 15.5 87.8001 15.3 87.9001C13.6 88.8001 12.1 89.3001 10.9 89.3001ZM16.7 80.8001C16.5 80.8001 15.8 81.7001 15.4 82.2001C14.6 83.2001 13.6 84.5001 12.3 85.2001C10.3 86.3001 9.6 87.4001 9.6 87.8001C9.6 87.8001 9.6 87.9001 9.7 88.0001C10.7 88.6001 12.5 88.2001 14.6 87.0001C14.7 86.9001 14.9 86.7001 15.1 86.6001C15.3 86.4001 15.6 86.1001 15.9 85.9001C16.2 85.7001 16.6 85.6001 16.9 85.5001C17.2 85.4001 17.4 85.3001 17.6 85.2001C18.1 84.8001 18.3 84.4001 18.3 84.0001C18.3 82.5001 16.9 80.9001 16.7 80.8001Z" fill="black"/>
<path d="M2.90027 48.3002C2.80027 48.3002 2.60027 48.3002 2.50027 48.3002C1.40027 48.1002 0.600271 47.0002 0.800271 45.8002C1.30027 43.4002 4.30027 36.9002 4.30027 35.6002C4.40027 32.5002 5.00027 17.3002 5.00027 17.1002C5.00027 16.0002 5.90027 15.0002 7.00027 14.9002C8.10027 14.8002 9.10027 15.7002 9.20027 16.9002C9.20027 17.5002 8.60027 32.3002 8.60027 35.6002C8.60027 37.7002 5.40027 44.6002 5.00027 46.6002C4.80027 47.6002 3.90027 48.3002 2.90027 48.3002Z" fill="white"/>
<path d="M2.90023 48.9001C2.70023 48.9001 2.50023 48.9001 2.40023 48.8001C1.70023 48.7001 1.10023 48.3001 0.700228 47.7001C0.300228 47.1001 0.200228 46.4001 0.300228 45.7001C0.500228 44.5001 1.40023 42.3001 2.20023 40.2001C2.90023 38.3001 3.80023 36.1001 3.80023 35.6001C3.80023 33.2001 4.20023 24.0001 4.30023 19.6001C4.40023 18.2001 4.40023 17.3001 4.40023 17.2001C4.30023 15.8001 5.50023 14.5001 6.90023 14.4001C8.30023 14.3001 9.60023 15.5001 9.70023 16.9001C9.70023 17.2001 9.60023 19.1001 9.50023 22.8001C9.30023 27.4001 9.10023 33.7001 9.10023 35.6001C9.10023 37.0001 8.00023 39.8001 6.90023 42.6001C6.20023 44.3001 5.60023 46.0001 5.50023 46.7001C5.30023 48.0001 4.20023 48.9001 2.90023 48.9001ZM7.10023 15.5001C6.20023 15.5001 5.50023 16.3001 5.50023 17.1001C5.50023 17.2001 5.50023 17.2001 5.40023 19.6001C5.20023 24.0001 4.90023 33.2001 4.90023 35.6001C4.90023 36.3001 4.30023 38.0001 3.20023 40.6001C2.40023 42.6001 1.60023 44.7001 1.30023 45.9001C1.20023 46.3001 1.30023 46.7001 1.50023 47.1001C1.70023 47.4001 2.10023 47.7001 2.50023 47.8001C3.40023 48.0001 4.20023 47.4001 4.30023 46.6001C4.60023 45.6001 5.20023 44.0001 6.00023 42.2001C6.90023 39.8001 8.00023 36.7001 8.00023 35.6001C8.00023 33.6001 8.20023 27.6001 8.40023 22.7001C8.50023 19.9001 8.60023 17.2001 8.60023 16.9001C8.60023 16.1001 7.90023 15.5001 7.10023 15.5001Z" fill="black"/>
<path d="M1.60028 48.3001C1.50028 48.3001 1.40028 48.3001 1.30028 48.2001C0.700279 48.0001 0.400279 47.4001 0.600279 46.9001L1.30028 44.8001C1.40028 44.3001 2.00028 44.0001 2.60028 44.2001C3.20028 44.4001 3.50028 45.0001 3.30028 45.5001L2.60028 47.6001C2.50028 48.0001 2.00028 48.3001 1.60028 48.3001Z" fill="#DF846A"/>
<path d="M1.60021 48.9001C1.40021 48.9001 1.30021 48.9001 1.10021 48.8001C0.300207 48.5001 -0.199793 47.6001 0.100207 46.8001L0.800207 44.7001C1.10021 43.9001 2.00021 43.4001 2.80021 43.7001C3.60021 44.0001 4.10021 44.9001 3.80021 45.7001L3.10021 47.8001C2.90021 48.4001 2.30021 48.9001 1.60021 48.9001ZM2.30021 44.7001C2.20021 44.7001 2.10021 44.7001 2.10021 44.8001C2.00021 44.9001 1.90021 45.0001 1.80021 45.1001L1.10021 47.2001C1.00021 47.5001 1.20021 47.8001 1.40021 47.8001C1.70021 47.9001 2.00021 47.7001 2.00021 47.5001L2.70021 45.4001C2.80021 45.1001 2.60021 44.8001 2.40021 44.8001C2.40021 44.7001 2.30021 44.7001 2.30021 44.7001Z" fill="black"/>
<path d="M16.8004 20.5001C16.8004 22.2001 12.5004 22.6001 10.9004 22.6001C9.30039 22.6001 6.90039 17.3001 6.90039 15.6001C6.90039 13.9001 8.70039 14.4001 10.3004 14.4001C11.9004 14.4001 16.8004 18.8001 16.8004 20.5001Z" fill="#DF846A"/>
<path d="M14.7003 84.3002C13.8003 84.3002 12.9003 83.8002 12.4003 83.0002C12.2003 82.7002 8.30032 76.2002 7.00032 73.6002C5.90032 71.4002 5.30032 66.5002 4.40032 58.6002C4.20032 56.9002 4.00032 55.2002 3.80032 53.6002C3.60032 52.2002 4.60032 50.8002 6.10032 50.7002C7.50032 50.5002 8.90032 51.5002 9.00032 53.0002C9.20032 54.6002 9.40032 56.3002 9.60032 58.0002C10.2003 62.9002 11.0003 69.7002 11.7003 71.3002C12.9003 73.7002 16.8003 80.2002 16.8003 80.3002C17.6003 81.5002 17.2003 83.2002 15.9003 83.9002C15.7003 84.2002 15.2003 84.3002 14.7003 84.3002Z" fill="#111111"/>
<path d="M14.7004 84.9002C13.6004 84.9002 12.6004 84.3002 12.0004 83.4002C12.0004 83.3002 7.90039 76.6001 6.60039 73.9001C5.50039 71.6001 4.80039 66.6001 3.90039 58.8001L3.80039 58.3001C3.60039 56.8001 3.40039 55.3001 3.30039 53.8001C3.20039 53.0001 3.40039 52.1001 3.90039 51.5001C4.40039 50.8001 5.20039 50.4001 6.00039 50.3001C6.80039 50.2001 7.70039 50.4001 8.30039 50.9001C9.00039 51.4001 9.40039 52.2001 9.50039 53.0001C9.70039 54.6001 9.90039 56.3001 10.1004 58.0001C10.6004 62.6001 11.5004 69.6001 12.2004 71.1001C13.3004 73.5001 17.2004 79.8001 17.3004 80.0001C17.7004 80.7001 17.9004 81.6002 17.7004 82.4002C17.5004 83.2002 17.0004 83.9002 16.3004 84.4002C15.9004 84.7002 15.3004 84.9002 14.7004 84.9002ZM6.50039 51.2001C6.40039 51.2001 6.30039 51.2001 6.20039 51.2001C5.10039 51.3001 4.20039 52.4001 4.40039 53.5001C4.60039 54.9001 4.80039 56.5001 4.90039 58.0001L5.00039 58.6001C5.90039 66.4001 6.50039 71.2001 7.60039 73.4001C8.90039 76.1001 12.9004 82.7002 13.0004 82.8002C13.6004 83.8002 14.9004 84.1001 15.9004 83.5001C16.4004 83.2001 16.7004 82.8001 16.8004 82.2001C16.9004 81.7001 16.8004 81.1001 16.6004 80.6001C16.4004 80.3001 12.6004 74.0001 11.4004 71.6001C10.7004 70.1001 10.0004 64.6001 9.20039 58.2001C9.00039 56.4001 8.80039 54.7001 8.60039 53.1001C8.50039 52.5001 8.20039 52.1001 7.80039 51.7001C7.40039 51.4001 7.00039 51.2001 6.50039 51.2001Z" fill="black"/>
<path d="M10.8002 92.2002C10.8002 92.2002 10.8002 92.1002 10.8002 92.2002C9.30016 92.6002 8.10016 91.9002 8.20016 90.5002C8.20016 89.9002 8.50016 76.7002 9.50016 71.0002C10.5002 65.2002 14.6002 54.3002 14.7002 53.8002C15.2002 52.4002 16.7002 51.7002 18.1002 52.3002C19.5002 52.8002 20.2002 54.3002 19.6002 55.7002C19.6002 55.8002 15.5002 66.6002 14.6002 71.9002C13.7002 77.3002 13.4002 89.8002 13.4002 89.9002C13.4002 91.2002 12.3002 91.7002 10.8002 92.2002Z" fill="#111111"/>
<path d="M9.9001 92.8001C9.3001 92.8001 8.8001 92.6001 8.4001 92.3001C8.0001 92.0001 7.6001 91.4001 7.6001 90.4001C7.6001 89.0001 7.9001 76.4001 8.9001 70.8001C9.9001 64.9001 14.0001 54.0001 14.2001 53.5001C14.5001 52.7001 15.1001 52.1001 15.9001 51.7001C16.7001 51.3001 17.5001 51.3001 18.3001 51.6001C19.9001 52.2001 20.8001 54.1001 20.2001 55.7001C20.2001 55.8001 16.1001 66.6001 15.2001 71.8001C14.3001 77.0001 14.0001 88.5001 14.0001 89.8001C14.0001 91.7001 12.5001 92.3001 11.0001 92.7001H10.9001C10.5001 92.8001 10.2001 92.8001 9.9001 92.8001ZM17.1001 52.5001C16.8001 52.5001 16.5001 52.6001 16.2001 52.7001C15.7001 52.9001 15.3001 53.3001 15.1001 53.9001C15.1001 54.0001 10.9001 65.2001 9.9001 71.0001C9.0001 76.5001 8.7001 89.0001 8.7001 90.4001C8.7001 90.9001 8.8001 91.2001 9.1001 91.4001C9.4001 91.7001 10.0001 91.7001 10.6001 91.6001H10.7001C12.3001 91.1001 12.9001 90.7001 12.9001 89.8001C12.9001 88.5001 13.2001 76.9001 14.1001 71.7001C15.0001 66.3001 19.1001 55.5001 19.1001 55.4001C19.5001 54.3001 19.0001 53.1001 17.9001 52.7001C17.6001 52.6001 17.4001 52.5001 17.1001 52.5001Z" fill="black"/>
<path d="M18.4005 41.3001C22.3005 46.2001 22.7005 57.1001 22.7005 68.9001C22.7005 72.3001 15.6005 69.6001 9.90049 65.8001C5.00049 62.6001 1.50049 59.3001 1.50049 56.4001C1.50049 43.9001 6.60049 41.5001 6.60049 35.2001C6.60049 29.0001 3.70049 28.1001 3.70049 23.6001C3.70049 21.1001 4.30049 18.2001 4.70049 16.2001C5.00049 14.9001 6.50049 14.2001 7.70049 14.9001C7.70049 14.9001 6.90049 19.3001 10.3005 21.3001C13.8005 23.3001 17.3005 20.7001 17.3005 20.7001C19.2005 21.5001 20.4005 23.7001 20.4005 23.7001C19.4005 27.9001 15.8005 38.1001 18.4005 41.3001Z" fill="#AEC6F7" stroke="#111111" stroke-miterlimit="10"/>
<path d="M20.7003 71C17.9003 71 13.2003 68.7 9.50029 66.2C3.70029 62.3 0.800293 59.1 0.800293 56.3C0.800293 48.9 2.60029 44.9 4.10029 41.7C5.10029 39.5 6.00029 37.6 6.00029 35.1C6.00029 31.8 5.20029 30.1 4.40029 28.5C3.70029 27 3.10029 25.7 3.10029 23.5C3.10029 20.9 3.70029 18 4.10029 15.9C4.30029 15.1 4.80029 14.4 5.60029 14.1C6.40029 13.8 7.20029 13.8 7.90029 14.3L8.20029 14.5L8.10029 14.9C8.10029 15.1 7.40029 19 10.5003 20.7C13.6003 22.5 16.8003 20.1 16.9003 20.1L17.1003 19.9L17.4003 20C19.4003 20.8 20.8003 23.1 20.8003 23.2L20.9003 23.4V23.6C20.7003 24.5 20.4003 25.5 20.1003 26.8C18.8003 31.5 16.9003 38.6 18.8003 40.9C22.9003 46 23.2003 57 23.2003 68.8C23.2003 69.8 22.7003 70.3 22.2003 70.6C21.8003 70.9 21.3003 71 20.7003 71ZM6.60029 15C6.40029 15 6.20029 15 6.00029 15.1C5.60029 15.3 5.20029 15.7 5.10029 16.1C4.60029 18.1 4.10029 20.9 4.10029 23.4C4.10029 25.4 4.70029 26.6 5.30029 28C6.10029 29.7 7.00029 31.6 7.00029 35.1C7.00029 37.8 6.10029 39.8 5.00029 42.1C3.60029 45.2 1.80029 49.1 1.80029 56.3C1.80029 58.6 4.50029 61.7 10.0003 65.3C14.9003 68.5 20.1003 70.5 21.6003 69.7C21.8003 69.6 22.0003 69.4 22.0003 68.9C22.0003 57.3 21.7003 46.5 17.8003 41.6C15.6003 38.8 17.5003 31.7 18.9003 26.5C19.2003 25.4 19.5003 24.4 19.7003 23.6C19.4003 23.1 18.5003 21.8 17.2003 21.1C16.3003 21.7 13.1003 23.4 9.90029 21.6C6.80029 19.8 6.80029 16.3 6.90029 15.1C6.90029 15 6.70029 15 6.60029 15Z" fill="black"/>
<path d="M9.90027 47.4C9.30027 47.4 8.80027 47.2 8.30027 46.7C7.50027 45.8 7.60027 44.5 8.50027 43.7C11.6003 40.9 14.1003 38.8 15.2003 36.5C16.3003 34.3 16.4003 27.9 16.3003 24.4C16.2003 23.1999 17.1003 22.2 18.3003 22.2C19.4003 22.2 20.5003 23 20.5003 24.2C20.6003 25.2 21.0003 34.5 19.0003 38.4C17.1003 42.2 12.2003 45.9999 11.3003 46.7999C10.9003 47.2999 10.4003 47.4 9.90027 47.4Z" fill="white"/>
<path d="M9.9002 48C9.2002 48 8.4002 47.7 7.9002 47.1C7.4002 46.6 7.2002 45.9001 7.2002 45.2001C7.2002 44.5001 7.5002 43.8001 8.1002 43.4001L9.1002 42.5C11.7002 40.2 13.7002 38.4001 14.7002 36.4001C15.7002 34.4001 15.9002 28.3001 15.7002 24.6C15.6002 23.1 16.8002 21.9 18.2002 21.8C19.7002 21.8 20.9002 22.9 21.0002 24.3C21.1002 25.4 21.5002 34.7 19.4002 38.8C17.7002 42.2 13.8002 45.5001 12.1002 46.9001C11.9002 47.1001 11.7002 47.2 11.6002 47.3C11.2002 47.8 10.6002 48 9.9002 48ZM18.4002 22.8C17.5002 22.8 16.8002 23.6 16.9002 24.4C17.0002 27 17.0002 34.3 15.8002 36.8C14.7002 38.9 12.6002 40.8001 10.0002 43.2001L9.0002 44.1C8.7002 44.4 8.5002 44.8001 8.5002 45.2001C8.5002 45.6001 8.6002 46 8.9002 46.3C9.5002 46.9 10.5002 47.0001 11.1002 46.4001C11.2002 46.3001 11.4002 46.1001 11.6002 45.9001C13.1002 44.6001 17.0002 41.3 18.6002 38.1C20.5002 34.3 20.1002 25.2001 20.1002 24.2001C20.0002 23.5001 19.3002 22.8 18.4002 22.8Z" fill="black"/>
<path d="M17.2005 20.5002C17.2005 20.5002 14.9005 17.4002 14.7005 14.9002C14.4005 12.4002 15.1005 8.90023 15.3005 7.00023C15.5005 5.10023 15.9005 1.90023 11.5005 1.40023C6.90049 1.00023 5.10049 3.30023 5.00049 6.40023C5.00049 9.50023 6.30049 13.1002 7.50049 14.5002C8.70049 15.9002 11.0005 16.0002 11.0005 16.0002L17.2005 20.5002Z" fill="#DF846A"/>
<path d="M17.2004 21.0001C17.0004 21.0001 16.9004 20.9001 16.8004 20.8001C16.7004 20.7001 14.4004 17.5001 14.2004 14.9001C14.0004 13.0001 14.3004 10.7001 14.6004 8.70013C14.7004 8.00013 14.8004 7.40013 14.8004 6.80013V6.70013C15.0004 4.70013 15.2004 2.20013 11.5004 1.90013C9.50039 1.70013 8.00039 2.00013 7.00039 2.90013C6.00039 3.80013 5.60039 4.90013 5.60039 6.40013C5.50039 9.50013 6.90039 12.9001 7.90039 14.1001C8.70039 15.1001 10.4004 15.4001 11.0004 15.4001C11.3004 15.4001 11.5004 15.7001 11.5004 16.0001C11.5004 16.3001 11.2004 16.5001 10.9004 16.5001C10.8004 16.5001 8.30039 16.4001 7.00039 14.8001C5.70039 13.2001 4.40039 9.40013 4.40039 6.40013C4.40039 4.60013 5.00039 3.20013 6.10039 2.20013C7.30039 1.10013 9.10039 0.700132 11.4004 0.900132C16.2004 1.40013 15.9004 5.00013 15.7004 6.90013V7.00013C15.7004 7.50013 15.6004 8.20013 15.5004 8.90013C15.2004 10.8001 14.9004 13.1001 15.1004 14.8001C15.3004 17.1001 17.5004 20.1001 17.5004 20.1001C17.7004 20.3001 17.6004 20.7001 17.4004 20.9001C17.4004 21.0001 17.3004 21.0001 17.2004 21.0001Z" fill="black"/>
<path d="M4.70022 6.30004C6.80022 9.20004 10.4002 7.70004 10.4002 7.70004C11.5002 10.9 12.8002 22 15.1002 23.4C18.4002 25.3 20.9002 21 20.9002 21C20.9002 21 17.1002 19.3 16.8002 13.1C16.5002 6.90004 18.2002 5.00004 15.2002 1.50004C13.7002 -0.199956 10.7002 4.41968e-05 9.30022 0.300044C4.60022 1.20004 3.90022 5.20004 4.70022 6.30004Z" fill="black"/>
<path d="M24.8001 51.2001L18.6001 54.8001C17.1001 55.7001 15.1001 54.8001 14.7001 53.1001L13.8001 49.1001C13.5001 47.7001 14.1001 46.2001 15.4001 45.4001L22.1001 41.6001C23.4001 40.9001 25.0001 41.6001 25.3001 43.0001L26.3001 47.7001C26.7001 49.1001 26.0001 50.5001 24.8001 51.2001Z" fill="white"/>
<path d="M17.3002 55.7C16.9002 55.7 16.4002 55.6 16.0002 55.4C15.1002 55 14.4002 54.2 14.2002 53.2L13.3002 49.2C12.9002 47.5 13.7002 45.8 15.2002 44.9L21.9002 41.1C22.7002 40.7 23.6002 40.6 24.4002 41C25.2002 41.4 25.8002 42.1 26.0002 42.9L27.0002 47.6C27.4002 49.2 26.6002 50.9 25.2002 51.8L19.0002 55.4C18.3002 55.6 17.8002 55.7 17.3002 55.7ZM23.2002 41.8C22.9002 41.8 22.6002 41.9 22.4002 42L15.7002 45.8C14.6002 46.4 14.1002 47.7 14.3002 48.9L15.2002 52.9C15.3002 53.6 15.8002 54.1 16.4002 54.4C17.0002 54.7 17.7002 54.6 18.3002 54.3L24.5002 50.7C25.5002 50.1 26.1002 48.9 25.8002 47.7L24.8002 43C24.7002 42.5 24.3002 42.1 23.9002 41.8C23.6002 41.9 23.4002 41.8 23.2002 41.8Z" fill="black"/>
<path d="M18.6003 54.8001C17.1003 55.7001 15.1003 54.8001 14.7003 53.1001L13.8003 49.1001C13.5003 47.7001 18.6003 54.8001 18.6003 54.8001Z" fill="white"/>
<path d="M17.3004 55.7002C16.9004 55.7002 16.4004 55.6002 16.0004 55.4002C15.1004 55.0002 14.4004 54.2002 14.2004 53.2002L13.3004 49.2002C13.2004 48.6002 13.5004 48.4002 13.6004 48.4002C14.1004 48.2002 14.4004 48.0002 19.0004 54.5002L19.3004 55.0002L18.8004 55.3002C18.3004 55.6002 17.8004 55.7002 17.3004 55.7002ZM14.7004 50.5002L15.2004 53.0002C15.3004 53.7002 15.8004 54.2002 16.4004 54.5002C16.8004 54.7002 17.3004 54.7002 17.7004 54.6002C16.6004 53.1002 15.5004 51.5002 14.7004 50.5002Z" fill="black"/>
<path d="M19.6 49.5999C19.2 49.5999 18.7 49.5 18.3 49.4C16.9 48.9 15.6 47.3999 15 45.5999L16 45.2999C16.5 46.7999 17.5 48 18.7 48.4C19.5 48.7 20.3 48.5999 21.2 48.0999C23.3 46.8999 23.6 44.9999 22.3 41.5999L23.3 41.2C24.3 43.8 25.1 47.0999 21.8 49.0999C21 49.4999 20.3 49.5999 19.6 49.5999Z" fill="black"/>
<path d="M23.2999 32.1C22.3999 26.7 21.6999 22 19.8999 20.9C19.3999 20.6 18.8999 20.6 18.3999 20.8C15.3999 22 13.8999 31.5 13.3999 39.3C13.3999 39.8 14.4999 38.7 14.5999 38C15.1999 30.7 16.6999 22.6 18.7999 21.8C18.9999 21.7 19.1999 21.7 19.3999 21.8C20.7999 22.6 21.5999 27.7 22.2999 32.2C22.8999 36 23.4999 40 24.5999 42.4L25.5999 42C24.4999 39.7 23.8999 35.9 23.2999 32.1Z" fill="black"/>
<path d="M14.1001 44.6C14.1001 44 13.1001 45.2 13.1001 45.8C13.1001 46.8 13.2001 47.7001 13.2001 48.4001L14.2001 48.3C14.1001 47.3 14.1001 46.1 14.1001 44.6Z" fill="black"/>
<path d="M6.80024 49.4C6.50024 49.4 6.20024 49.3 6.00024 49C5.60024 48.5 5.70024 47.9 6.20024 47.5L7.50024 46C7.50024 46 5.90024 45.8 6.20024 45.2C6.50024 44.6 8.70024 44.1 10.1002 45.7C10.5002 46.1 10.7002 47.1 10.3002 47.5L7.50024 49.1C7.30024 49.3 7.00024 49.4 6.80024 49.4Z" fill="#DF846A"/>
<path d="M6.8001 49.9001C6.3001 49.9001 5.8001 49.7001 5.5001 49.3001C5.2001 49.0001 5.1001 48.5001 5.2001 48.1001C5.2001 47.7001 5.5001 47.3001 5.8001 47.0001L6.4001 46.3001C6.0001 46.2001 5.7001 46.0001 5.6001 45.7001C5.5001 45.5001 5.5001 45.2001 5.6001 44.9001C5.8001 44.5001 6.4001 44.2001 7.2001 44.1001C7.8001 44.0001 9.2001 44.0001 10.4001 45.2001C10.8001 45.6001 11.0001 46.2001 11.0001 46.8001C11.0001 47.2001 10.8001 47.5001 10.5001 47.8001L7.7001 49.5001C7.6001 49.8001 7.2001 49.9001 6.8001 49.9001ZM7.0001 45.4001C7.2001 45.5001 7.4001 45.5001 7.6001 45.5001C7.8001 45.5001 8.0001 45.7001 8.0001 45.9001C8.1001 46.1001 8.0001 46.3001 7.9001 46.4001L6.6001 47.9001C6.4001 48.0001 6.4001 48.2001 6.3001 48.3001C6.3001 48.4001 6.3001 48.6001 6.4001 48.7001C6.5001 48.8001 6.6001 48.9001 6.8001 48.9001C6.9001 48.9001 7.0001 48.9001 7.1001 48.8001L10.0001 47.0001C10.0001 47.0001 10.0001 47.0001 10.0001 46.9001C10.0001 46.6001 9.9001 46.3001 9.7001 46.1001C9.0001 45.3001 8.1001 45.2001 7.6001 45.3001C7.4001 45.3001 7.1001 45.3001 7.0001 45.4001Z" fill="black"/>
</g>
<defs>
<clipPath id="clip0">
<rect width="74.7" height="98.6" fill="white"/>
</clipPath>
</defs>
</svg>
