<svg width="96" height="125" viewBox="0 0 96 125" fill="none" xmlns="http://www.w3.org/2000/svg">
<path d="M84.8126 104.694C81.6829 104.694 71.8228 104.317 67.7261 103.738C64.8635 103.336 64.7617 101.085 50.0416 101.085C35.3215 101.085 45.0416 103.311 40.7668 103.386C31.6065 103.575 27.4208 103.726 24.2019 103.726C12.6752 103.726 17.1027 112.037 17.1027 112.037C17.3826 112.263 21.4284 109.485 25.1561 109.485C30.3215 109.485 31.5556 109.371 33.9475 109.371L35.1943 113.672C32.0518 113.848 21.9882 115.96 20.5887 116.061C14.7236 116.501 8.3877 122.448 8.3877 123.202C8.3877 123.705 19.2019 119.971 19.2019 119.971C24.0874 120.725 36.1612 119.594 46.8991 118.6C48.6294 118.437 47.0645 120.273 48.6803 120.134C53.5404 119.694 61.034 117.381 63.6803 117.381C77.2681 117.381 82.4971 114.137 84.8253 114.137C90.4488 114.137 95.0162 112.024 95.0162 109.409C95.0035 106.819 90.4488 104.694 84.8126 104.694Z" fill="#BABCBE"/>
<path d="M5.39753 122.825C6.74613 123.592 8.70542 123.617 11.8734 121.807C12.2805 121.58 12.8148 120.436 13.5019 120.021C14.4688 119.443 15.6138 119.581 15.97 119.254C16.8734 118.437 17.3695 117.67 17.3695 117.079C17.3695 116.752 17.2041 112.552 16.8734 112.364C15.7538 111.723 13.0693 112.075 10.3721 113.282C9.81229 113.533 9.23977 117.846 8.69269 118.16C5.52475 119.971 4.04893 122.058 5.39753 122.825Z" fill="white"/>
<path d="M7.34415 124.007C6.50446 124.007 5.7411 123.806 5.05408 123.416C4.507 123.102 4.20166 122.611 4.20166 122.02C4.20166 120.725 5.71566 119.091 8.24746 117.62C8.41286 117.318 8.66731 116.287 8.8327 115.595C9.31616 113.621 9.53245 112.905 10.0795 112.653C12.4968 111.572 15.6393 110.88 17.2169 111.773C17.8785 112.15 18.0439 114.866 18.0693 117.079C18.0821 118.085 17.1915 119.103 16.4536 119.77C16.1482 120.046 15.7284 120.122 15.2449 120.197C14.7996 120.273 14.3034 120.361 13.8709 120.612C13.6037 120.776 13.2984 121.191 13.0566 121.517C12.7767 121.895 12.5477 122.222 12.2424 122.398C10.3467 123.479 8.73092 124.007 7.34415 124.007ZM5.75382 122.234C7.10242 123.001 8.9981 122.674 11.5426 121.216C11.6062 121.165 11.7971 120.901 11.9243 120.725C12.2424 120.285 12.6368 119.745 13.1457 119.443C13.7945 119.053 14.4943 118.94 14.9905 118.852C15.194 118.814 15.4612 118.776 15.5375 118.726C16.3772 117.972 16.6699 117.368 16.6699 117.079C16.6699 116.4 16.5172 113.646 16.3391 112.867C15.3976 112.527 13.1966 112.779 10.7793 113.835C10.6139 114.175 10.3594 115.206 10.1813 115.91C9.72329 117.796 9.51973 118.475 9.03627 118.751C6.5299 120.185 5.58843 121.517 5.58843 122.02C5.60115 122.083 5.60115 122.146 5.75382 122.234Z" fill="black"/>
<path d="M12.0261 111.195C13.3747 111.962 15.7666 111.786 18.9345 109.988C19.4816 109.673 19.9778 108.919 20.6394 108.529C21.39 108.089 22.306 108.014 22.815 107.573C23.7946 106.756 23.9854 106.039 23.9854 105.549C23.9854 103.349 21.9753 101.199 21.6063 100.998C20.2577 100.231 18.4765 104.732 15.3086 106.542C12.1534 108.328 10.6775 110.415 12.0261 111.195Z" fill="white"/>
<path d="M13.8581 112.301C13.0184 112.301 12.2932 112.125 11.6825 111.786C11.1354 111.471 10.8301 110.981 10.8301 110.39C10.8301 109.082 12.3695 107.41 14.9649 105.939C16.3772 105.134 17.5476 103.676 18.5018 102.494C19.7105 100.998 20.7537 99.6899 21.9624 100.394C22.5222 100.708 24.685 103.06 24.685 105.537C24.685 106.442 24.2143 107.297 23.2728 108.089C22.8911 108.403 22.4077 108.567 21.9497 108.718C21.6189 108.831 21.2754 108.944 20.9955 109.107C20.7156 109.271 20.4611 109.535 20.1939 109.799C19.914 110.088 19.6214 110.377 19.2779 110.579C17.2805 111.71 15.3975 112.301 13.8581 112.301ZM21.2499 101.563C20.9828 101.614 20.1431 102.657 19.5833 103.349C18.5654 104.619 17.3059 106.19 15.6647 107.121C13.1583 108.554 12.2168 109.887 12.2168 110.39C12.2168 110.453 12.2168 110.516 12.3695 110.604C13.6418 111.333 15.97 110.88 18.5782 109.397C18.7563 109.296 18.9726 109.07 19.2016 108.843C19.5069 108.542 19.8504 108.19 20.283 107.938C20.6901 107.699 21.1227 107.561 21.5044 107.435C21.8606 107.322 22.1914 107.209 22.3695 107.058C22.9802 106.542 23.2983 106.027 23.2983 105.549C23.2983 103.688 21.5553 101.777 21.2499 101.563Z" fill="black"/>
<path d="M3.73085 60.7622C3.55273 60.7622 3.37461 60.7496 3.1965 60.7119C1.74611 60.4227 0.804639 59.0271 1.09726 57.5937C1.72067 54.5383 5.57563 46.4033 5.57563 44.7561C5.57563 40.8332 6.4026 21.7215 6.38988 21.5329C6.32627 20.0743 7.45858 18.8296 8.94713 18.7667C10.3848 18.7038 11.6825 19.8229 11.7461 21.294C11.7843 22.0861 10.9319 40.72 10.9319 44.7561C10.9319 47.4217 6.87334 56.0472 6.35171 58.6373C6.09726 59.8821 4.97767 60.7622 3.73085 60.7622Z" fill="white"/>
<path d="M3.73076 61.4412C3.50175 61.4412 3.28547 61.416 3.05646 61.3783C2.1786 61.2023 1.41524 60.6993 0.919055 59.9575C0.422871 59.2157 0.244754 58.323 0.422871 57.4554C0.740937 55.9088 1.80964 53.193 2.8529 50.5777C3.8071 48.1761 4.88852 45.4603 4.88852 44.7436C4.88852 41.7762 5.35926 30.1834 5.58827 24.6008C5.6646 22.8279 5.70277 21.646 5.71549 21.5203C5.61371 19.7223 7.05137 18.1632 8.90888 18.0751C10.7409 17.9871 12.344 19.4205 12.433 21.2562C12.4458 21.5831 12.3567 24.0098 12.1659 28.6369C11.9369 34.4207 11.6188 42.3294 11.6188 44.7561C11.6188 46.4661 10.2193 50.0747 8.85799 53.5576C8.01829 55.7202 7.21676 57.7697 7.0132 58.763C6.72058 60.3221 5.33381 61.4412 3.73076 61.4412ZM9.06155 19.4331C9.0361 19.4331 8.99794 19.4331 8.97249 19.4331C7.87834 19.4834 7.02592 20.4012 7.07682 21.4951C7.07682 21.558 7.07682 21.6586 6.94959 24.6637C6.72058 30.2337 6.24984 41.8139 6.24984 44.7436C6.24984 45.674 5.43559 47.7486 4.12516 51.068C3.10735 53.633 2.05137 56.2735 1.75875 57.7069C1.65697 58.2224 1.75875 58.7505 2.05137 59.178C2.34399 59.618 2.80201 59.9072 3.31091 60.0204C4.39234 60.2341 5.43559 59.5174 5.65188 58.4738C5.88089 57.3674 6.65697 55.3682 7.56028 53.0421C8.74348 49.9867 10.2193 46.1895 10.2193 44.731C10.2193 42.2791 10.5247 34.6722 10.7664 28.5489C10.9063 24.978 11.0463 21.5957 11.0336 21.294C11.0081 20.2755 10.1048 19.4331 9.06155 19.4331Z" fill="black"/>
<path d="M2.03865 60.7747C1.89871 60.7747 1.77148 60.7495 1.63153 60.7118C0.931784 60.4855 0.537382 59.7436 0.76639 59.0521L1.60608 56.4619C1.83509 55.7704 2.58573 55.3806 3.28547 55.6069C3.98522 55.8333 4.37962 56.5751 4.15061 57.2666L3.31092 59.8442C3.1328 60.41 2.61117 60.7747 2.03865 60.7747Z" fill="#DF846A"/>
<path d="M2.03888 61.4537C1.82259 61.4537 1.61903 61.416 1.41547 61.3531C0.346766 61.0136 -0.238476 59.882 0.0923131 58.8258L0.932008 56.2231C1.27552 55.1669 2.42056 54.5885 3.48926 54.9154C4.55796 55.2549 5.1432 56.3866 4.81241 57.4427L3.97272 60.0454C3.70554 60.8879 2.92946 61.4537 2.03888 61.4537ZM2.87857 56.2105C2.77679 56.2105 2.67501 56.2357 2.58595 56.286C2.43328 56.3614 2.31878 56.4997 2.26789 56.6632L1.42819 59.2533C1.32641 59.5928 1.50453 59.9449 1.84804 60.058C2.21699 60.1712 2.56051 59.97 2.66229 59.6431L3.50198 57.0529C3.61649 56.7135 3.42565 56.3614 3.08213 56.2482C3.0058 56.2231 2.94219 56.2105 2.87857 56.2105Z" fill="black"/>
<path d="M21.3898 25.7828C21.3898 27.8826 15.9191 28.4609 13.9089 28.4609C11.8987 28.4609 8.81982 21.7718 8.81982 19.6846C8.81982 17.5849 11.1608 18.201 13.171 18.201C15.1811 18.201 21.3898 23.683 21.3898 25.7828Z" fill="#DF846A"/>
<path d="M18.7566 106.014C17.6242 106.014 16.5174 105.449 15.894 104.418C15.6777 104.065 10.6522 95.8801 9.03646 92.5607C7.67514 89.7568 6.86089 83.5832 5.70313 73.7381C5.44868 71.6006 5.19423 69.4757 4.93977 67.4765C4.71076 65.6659 6.00847 64.0062 7.84054 63.7673C9.6726 63.541 11.352 64.8235 11.581 66.6467C11.8354 68.6584 12.1026 70.8085 12.3571 72.9712C13.095 79.1825 14.1001 87.6822 15.0797 89.6814C16.5555 92.7116 21.581 100.897 21.6319 100.972C22.5988 102.531 22.0899 104.568 20.4996 105.524C19.9525 105.851 19.3545 106.014 18.7566 106.014Z" fill="#111111"/>
<path d="M18.7563 106.693C17.3314 106.693 16.0337 105.977 15.2958 104.77C15.2449 104.682 10.0668 96.2573 8.41283 92.8625C7.00061 89.958 6.18636 83.7341 5.00316 73.8262L4.92682 73.1975C4.69781 71.2738 4.46881 69.3626 4.2398 67.5771C4.09985 66.521 4.39247 65.4648 5.05405 64.6224C5.71563 63.7799 6.66982 63.2393 7.73853 63.101C8.80723 62.9627 9.87593 63.2519 10.7283 63.9057C11.5808 64.5595 12.1278 65.5025 12.2678 66.5587C12.535 68.5704 12.7894 70.7331 13.0439 72.8957C13.7309 78.7424 14.7741 87.4936 15.7029 89.3922C17.1533 92.3595 22.0133 100.293 22.2169 100.633C22.7767 101.551 22.9421 102.62 22.6876 103.663C22.4332 104.707 21.7843 105.574 20.8556 106.128C20.2194 106.492 19.4943 106.693 18.7563 106.693ZM8.26015 64.4338C8.14565 64.4338 8.03115 64.4463 7.91664 64.4589C6.46626 64.6475 5.43573 65.9552 5.61384 67.4011C5.84285 69.1991 6.07186 71.1103 6.30087 73.0466L6.3772 73.6753C7.53496 83.4449 8.33649 89.5682 9.65965 92.2841C11.2881 95.6161 16.4281 103.99 16.4917 104.078C17.2296 105.273 18.9217 105.687 20.1431 104.958C20.7538 104.594 21.1736 104.015 21.3518 103.336C21.5172 102.657 21.4154 101.953 21.0464 101.35C20.8429 101.01 15.9446 93.0259 14.4688 89.9957C13.5273 88.0594 12.6495 81.2068 11.6953 73.1095C11.4408 70.9091 11.1864 68.7591 10.9192 66.7473C10.8301 66.0557 10.4739 65.4271 9.9141 64.9996C9.41792 64.6224 8.8454 64.4338 8.26015 64.4338Z" fill="black"/>
<path d="M13.7311 115.872C13.7056 115.872 13.6802 115.872 13.6675 115.872C11.7718 116.337 10.3469 115.532 10.385 113.709C10.3977 113.005 10.7413 96.3954 11.9881 89.1531C13.2476 81.8353 18.4385 68.1302 18.6675 67.5392C19.3163 65.8292 21.2502 64.9616 22.9804 65.6029C24.7107 66.2441 25.5886 68.1553 24.9397 69.8653C24.8888 70.0036 19.7489 83.5704 18.5911 90.2596C17.4207 97.0241 17.0771 112.728 17.0771 112.904C17.039 114.715 15.6776 115.331 13.7311 115.872Z" fill="#111111"/>
<path d="M12.6498 116.689C11.8864 116.689 11.2121 116.475 10.7032 116.073C10.2198 115.696 9.65996 114.979 9.68541 113.697C9.72357 111.899 10.0925 96.0938 11.3012 89.04C12.5862 81.5965 17.7897 67.8914 18.0187 67.3004C18.4004 66.3071 19.1511 65.5024 20.1307 65.0623C21.1103 64.6223 22.2172 64.5845 23.2223 64.9617C25.3088 65.7413 26.3775 68.0423 25.5887 70.1043C25.5378 70.2426 20.4233 83.7592 19.2783 90.3728C18.1714 96.7979 17.8025 111.27 17.7643 112.892C17.7134 115.256 15.8304 115.985 13.9093 116.526C13.8584 116.538 13.7948 116.551 13.7312 116.551C13.3623 116.651 12.9933 116.689 12.6498 116.689ZM21.7974 66.0808C21.4284 66.0808 21.0467 66.1562 20.7032 66.3197C20.0544 66.6089 19.5582 67.137 19.3165 67.7908C19.2656 67.9291 13.9348 81.9611 12.6752 89.2663C11.4666 96.2195 11.1103 111.936 11.0722 113.709C11.0595 114.3 11.2248 114.74 11.5684 115.004C11.9882 115.331 12.688 115.407 13.5022 115.206C13.5404 115.193 13.5913 115.193 13.6294 115.18C15.7159 114.589 16.3648 114.049 16.3902 112.879C16.4284 111.22 16.7974 96.6596 17.917 90.1339C19.0747 83.4071 24.2401 69.7397 24.291 69.6139C24.7999 68.256 24.1002 66.7472 22.7388 66.2317C22.4335 66.1311 22.1154 66.0808 21.7974 66.0808Z" fill="black"/>
<path d="M23.3745 51.9231C28.3745 58.1218 28.8198 71.7892 28.8198 86.6259C28.8198 90.8884 19.7231 87.4558 12.4712 82.6653C6.28802 78.5789 1.77148 74.4548 1.77148 70.8085C1.77148 55.1544 8.31093 52.0111 8.31093 44.1526C8.31093 36.2942 4.57047 35.2003 4.57047 29.5045C4.57047 26.3108 5.27021 22.7148 5.8809 20.1624C6.28802 18.4649 8.19642 17.6602 9.68497 18.5404C9.68497 18.5404 8.61627 24.0853 13.031 26.5623C17.4458 29.0518 21.886 25.7576 21.886 25.7576C24.2906 26.7383 25.8936 29.5296 25.8936 29.5296C24.6468 35.062 20.0921 47.8492 23.3745 51.9231Z" fill="#AEC6F7" stroke="#111111" stroke-miterlimit="10"/>
<path d="M26.3899 89.2413C22.8275 89.2413 16.8352 86.3872 12.0769 83.2438C4.67231 78.3527 1.05908 74.2914 1.05908 70.8211C1.05908 61.5042 3.36188 56.4873 5.21939 52.4512C6.49165 49.6725 7.59852 47.271 7.59852 44.1653C7.59852 40.0789 6.56799 37.9288 5.5629 35.8542C4.68504 34.0185 3.84534 32.2959 3.84534 29.5172C3.84534 26.2355 4.57053 22.5389 5.18122 20.0116C5.43567 18.9806 6.13542 18.1633 7.10234 17.7609C8.05654 17.3586 9.12524 17.434 10.0158 17.9747L10.4357 18.2136L10.3466 18.6788C10.3084 18.8925 9.43058 23.7711 13.3492 25.984C17.3186 28.2221 21.4026 25.2547 21.4535 25.2296L21.7716 24.9907L22.1405 25.1541C24.7359 26.2103 26.4153 29.0897 26.4789 29.2154L26.6062 29.4417L26.5553 29.6932C26.3135 30.7997 25.9446 32.145 25.512 33.7041C23.909 39.5885 21.4789 48.4906 23.8962 51.4957C29.0616 57.8956 29.4942 71.7642 29.4942 86.6261C29.4942 87.9211 28.8072 88.5498 28.2347 88.8516C27.7512 89.1156 27.1278 89.2413 26.3899 89.2413ZM8.3746 18.88C8.13287 18.88 7.89114 18.9303 7.66214 19.0183C7.10234 19.2572 6.69521 19.735 6.55527 20.3259C5.9573 22.7778 5.25756 26.3612 5.25756 29.5046C5.25756 31.969 5.99547 33.4904 6.83516 35.2507C7.85298 37.363 8.99801 39.752 8.99801 44.1527C8.99801 47.5601 7.84025 50.0874 6.49165 53.0045C4.69776 56.9148 2.44585 61.7934 2.44585 70.8086C2.44585 73.7382 5.94458 77.5354 12.8403 82.087C19.0235 86.1734 25.652 88.663 27.5858 87.6319C27.8275 87.5062 28.1074 87.2673 28.1074 86.6135C28.1074 72.0031 27.7003 58.3985 22.8148 52.3381C19.9649 48.8049 22.395 39.8652 24.1634 33.3395C24.5451 31.9187 24.8886 30.6739 25.1303 29.6555C24.7359 29.0519 23.54 27.3671 21.9242 26.5498C20.741 27.3042 16.7334 29.4543 12.6494 27.1659C8.6545 24.9153 8.73084 20.4894 8.89623 18.9554C8.74356 18.9177 8.56544 18.88 8.3746 18.88Z" fill="black"/>
<path d="M12.6499 59.6683C11.912 59.6683 11.1868 59.3792 10.6651 58.8008C9.67278 57.7194 9.76184 56.0346 10.856 55.0539C14.7746 51.5584 17.9552 48.9431 19.4311 46.0261C20.8433 43.2473 21.0087 35.2129 20.7924 30.8121C20.716 29.3536 21.8611 28.1088 23.3369 28.0334C24.7873 27.9831 26.0723 29.0896 26.1486 30.5481C26.2122 31.8557 26.7211 43.4737 24.2275 48.4025C21.8229 53.1553 15.5634 57.9961 14.4438 58.9894C13.9349 59.442 13.286 59.6683 12.6499 59.6683Z" fill="white"/>
<path d="M12.6497 60.3474C11.6955 60.3474 10.7795 59.945 10.1434 59.2535C9.54542 58.5996 9.22735 57.7446 9.27824 56.8519C9.32913 55.9592 9.71081 55.1419 10.3851 54.551L11.721 53.3691C14.9907 50.4771 17.5607 48.1888 18.8075 45.7369C20.0798 43.2222 20.3342 35.5272 20.1052 30.8625C20.0162 29.0267 21.4538 27.455 23.3113 27.367C25.1816 27.3167 26.7592 28.725 26.8482 30.5356C26.9118 31.8558 27.4335 43.6372 24.8508 48.7294C22.6879 52.9919 17.7006 57.1663 15.576 58.9517C15.2833 59.1906 15.0543 59.3792 14.9144 59.5175C14.291 60.0456 13.4767 60.3474 12.6497 60.3474ZM23.4258 28.7124C23.4004 28.7124 23.3749 28.7124 23.3495 28.7124C22.2681 28.7627 21.4156 29.6931 21.4665 30.7744C21.6319 33.9933 21.6828 43.0713 20.0289 46.3279C18.6676 49.0186 15.9958 51.3824 12.6243 54.3749L11.3011 55.5568C10.9067 55.9089 10.6777 56.3867 10.6523 56.9148C10.6268 57.4429 10.805 57.9458 11.1612 58.3356C11.8609 59.1152 13.1841 59.178 13.9729 58.4739C14.1256 58.3356 14.3546 58.147 14.6599 57.8829C16.5429 56.2987 21.5556 52.0991 23.5912 48.0882C26.0085 43.3102 25.5123 31.8683 25.4487 30.5733C25.3978 29.5422 24.4945 28.7124 23.4258 28.7124Z" fill="black"/>
<path d="M21.8863 25.7828C21.8863 25.7828 18.9855 21.8599 18.6547 18.7542C18.324 15.6485 19.2145 11.2352 19.4436 8.80855C19.6726 6.38186 20.1687 2.35834 14.5962 1.81768C8.76925 1.25187 6.46645 4.14378 6.39012 8.02899C6.31378 11.9142 8.05678 16.4281 9.51989 18.201C10.983 19.9738 13.9855 20.087 13.9855 20.087L21.8863 25.7828Z" fill="#DF846A"/>
<path d="M21.8863 26.4618C21.67 26.4618 21.4665 26.3612 21.3265 26.1852C21.1993 26.0217 18.3113 22.0737 17.955 18.8297C17.7006 16.491 18.1204 13.486 18.4512 11.0844C18.5657 10.2043 18.6802 9.39956 18.7438 8.74574L18.7565 8.59485C18.9983 6.09273 19.2909 2.96192 14.5199 2.50927C11.9627 2.2578 10.0288 2.69788 8.78199 3.80435C7.70057 4.75993 7.12805 6.19331 7.1026 8.05419C7.02627 11.9017 8.80744 16.2521 10.0797 17.7735C11.1102 19.0309 13.2858 19.3829 14.0364 19.4081C14.4181 19.4207 14.7107 19.7476 14.698 20.1248C14.6853 20.502 14.3545 20.7786 13.9728 20.7786C13.8329 20.766 10.6268 20.6151 8.99828 18.6411C7.35706 16.6419 5.6395 11.9017 5.71583 8.02905C5.74128 5.79096 6.47919 3.9678 7.84052 2.77332C9.39268 1.4028 11.6828 0.862144 14.6344 1.13876C20.7794 1.72972 20.3469 6.28133 20.1179 8.72059L20.1051 8.87147C20.0415 9.53787 19.927 10.3677 19.7998 11.2604C19.4817 13.5991 19.0873 16.5036 19.3163 18.6788C19.6217 21.5581 22.3952 25.3428 22.4207 25.3805C22.6497 25.6823 22.5733 26.1098 22.268 26.3361C22.1662 26.4241 22.0263 26.4618 21.8863 26.4618Z" fill="black"/>
<path d="M5.94498 7.91577C8.64218 11.4992 13.2223 9.65092 13.2223 9.65092C14.6091 13.7373 16.2249 27.631 19.2529 29.3662C23.4386 31.7677 26.5811 26.2982 26.5811 26.2982C26.5811 26.2982 21.7592 24.1482 21.3648 16.3023C20.9704 8.45643 23.0951 6.09261 19.3038 1.74218C17.3954 -0.445616 13.6422 -0.106131 11.7338 0.296222C5.7923 1.541 4.93989 6.58298 5.94498 7.91577Z" fill="black"/>
<path d="M31.5176 64.4462L23.6041 68.9601C21.6448 70.0792 19.1639 68.9978 18.6677 66.81L17.5481 61.7681C17.141 59.9449 17.9807 58.0714 19.6092 57.141L28.0824 52.3002C29.7109 51.3698 31.7847 52.2751 32.1918 54.0856L33.5023 59.9449C33.9221 61.7303 33.1079 63.5409 31.5176 64.4462Z" fill="white"/>
<path d="M21.95 70.0918C21.403 70.0918 20.8432 69.9786 20.3215 69.7523C19.1383 69.2368 18.2859 68.2183 18.006 66.961L16.8864 61.919C16.4157 59.7941 17.3699 57.644 19.2783 56.5501L27.7516 51.7093C28.7312 51.1561 29.8762 51.0932 30.8941 51.5459C31.9246 51.9985 32.6498 52.8661 32.8915 53.9474L34.2019 59.8067C34.66 61.8687 33.7312 63.9685 31.8737 65.0372L23.9729 69.5511C23.3368 69.9032 22.6498 70.0918 21.95 70.0918ZM29.4946 52.6146C29.1383 52.6146 28.7821 52.7026 28.4513 52.8912L19.9653 57.732C18.5913 58.5242 17.8915 60.0833 18.235 61.6172L19.3546 66.6592C19.5327 67.4765 20.0925 68.1429 20.8686 68.4949C21.6447 68.8344 22.5226 68.7841 23.2605 68.3692L31.174 63.8553C32.4971 63.1009 33.1714 61.5921 32.8406 60.1084L31.5302 54.2492C31.3902 53.5953 30.9449 53.0672 30.3343 52.8032C30.0671 52.6775 29.7745 52.6146 29.4946 52.6146Z" fill="black"/>
<path d="M23.6164 68.9602C21.6571 70.0792 19.1762 68.9979 18.68 66.8101L17.5604 61.7681C17.1533 59.9449 23.6164 68.9602 23.6164 68.9602Z" fill="white"/>
<path d="M21.9498 70.0918C21.4027 70.0918 20.8429 69.9787 20.3213 69.7523C19.1381 69.2368 18.2857 68.2184 18.0058 66.961L16.8862 61.919C16.7335 61.2149 17.1661 60.9634 17.306 60.9131C17.8785 60.6617 18.362 60.4605 24.189 68.5704L24.6343 69.1865L23.9727 69.5637C23.3366 69.9032 22.6495 70.0918 21.9498 70.0918ZM18.6674 63.5662L19.3544 66.6592C19.5325 67.4765 20.0923 68.1429 20.8684 68.495C21.4027 68.7339 21.9752 68.7842 22.535 68.6459C21.161 66.7473 19.7106 64.8235 18.6674 63.5662Z" fill="black"/>
<path d="M24.9014 62.4346C24.3289 62.4346 23.7564 62.334 23.1966 62.1202C21.3518 61.4413 19.736 59.6181 18.96 57.3674L20.2704 56.9274C20.9065 58.8008 22.217 60.2971 23.6801 60.8377C24.7106 61.2275 25.7666 61.1143 26.8098 60.5108C29.4943 58.9643 29.8887 56.5753 28.1584 52.2752L29.4434 51.7722C30.7793 55.1042 31.7589 59.2409 27.4969 61.6927C26.6699 62.1831 25.7793 62.4346 24.9014 62.4346Z" fill="black"/>
<path d="M29.6473 40.3679C28.5532 33.5279 27.599 27.631 25.258 26.2982C24.66 25.9587 23.9857 25.921 23.2987 26.185C19.5328 27.6435 17.5863 39.7015 16.912 49.4711C16.8611 50.1375 18.3114 48.767 18.3878 47.8114C19.1893 38.6328 21.0723 28.4734 23.7822 27.4172C24.0875 27.2915 24.3293 27.304 24.5837 27.4423C26.3649 28.4482 27.3954 34.8859 28.3114 40.5691C29.0875 45.3722 29.8763 50.3513 31.1995 53.4444L32.4336 52.9289C31.1868 49.9867 30.398 45.0956 29.6473 40.3679Z" fill="black"/>
<path d="M17.9678 56.1225C17.9805 55.4058 16.6319 56.8769 16.6446 57.6188C16.6573 58.939 16.7082 60.0329 16.7973 60.825L18.1332 60.6867C18.0059 59.5174 17.9551 57.9457 17.9678 56.1225Z" fill="black"/>
<path d="M8.64169 62.0699C8.27273 62.0447 7.9165 61.8813 7.66204 61.5795C7.20403 61.0137 7.29309 60.1713 7.87833 59.7186L9.53227 57.8829C9.53227 57.8829 7.43304 57.5937 7.85288 56.9022C8.27273 56.2106 10.9827 55.582 12.8529 57.4806C13.3745 58.0086 13.629 59.2534 13.0564 59.7186L9.54499 61.7807C9.27782 61.9945 8.95975 62.0825 8.64169 62.0699Z" fill="#DF846A"/>
<path d="M8.71817 62.7614C8.68 62.7614 8.64183 62.7614 8.61639 62.7614C8.03114 62.7362 7.49679 62.4596 7.12784 62.007C6.78432 61.5921 6.63165 61.064 6.69527 60.5233C6.75888 59.9952 7.02606 59.5174 7.4459 59.1779L8.24743 58.2852C7.78941 58.1218 7.38229 57.8703 7.20417 57.5057C7.0515 57.2039 7.07695 56.8518 7.25506 56.5501C7.56041 56.0471 8.32377 55.6699 9.27796 55.5693C9.99043 55.4813 11.8225 55.4688 13.3365 57.0027C13.8072 57.4805 14.0998 58.3229 14.0617 59.0396C14.0235 59.5551 13.8199 59.9826 13.4764 60.2467L9.90137 62.3716C9.60875 62.6105 9.17618 62.7614 8.71817 62.7614ZM8.88356 57.0404C9.11257 57.1033 9.37975 57.1662 9.62148 57.2039C9.87593 57.2416 10.0922 57.4051 10.1813 57.644C10.2703 57.8829 10.2194 58.1469 10.0413 58.3355L8.38738 60.1712C8.17109 60.3599 8.08204 60.5107 8.06931 60.6742C8.04387 60.8376 8.09476 61.0137 8.20926 61.1394C8.32377 61.2777 8.50188 61.3657 8.68 61.3783C8.80723 61.3783 8.9599 61.3657 9.11257 61.24L12.6749 59.1276C12.6367 59.1528 12.6749 59.0774 12.6749 58.939C12.7004 58.5744 12.5222 58.1218 12.3441 57.9457C11.4026 56.9902 10.2958 56.877 9.71053 56.9021C9.37975 56.9147 9.09985 56.9776 8.88356 57.0404Z" fill="black"/>
</svg>
