<svg width="83" height="98" viewBox="0 0 83 98" fill="none" xmlns="http://www.w3.org/2000/svg">
<g clip-path="url(#clip0)">
<path d="M75.1999 85.3999C73.0999 85.3999 70.5999 86.7999 70.5999 86.7999C70.5999 86.7999 67.4999 84.4999 65.5999 84.1999C63.3999 83.8999 60.9999 82.5999 52.7999 82.5999C41.4999 82.5999 44.9999 84.2999 41.6999 84.3999C34.6999 84.4999 30.7999 84.6999 28.2999 84.6999C19.4999 84.6999 22.7999 91.0999 25.6999 91.0999C28.5999 91.0999 32.4999 89.1999 35.0999 89.1999C37.6999 89.1999 38.6999 89.0999 40.4999 89.0999L41.0999 91.2999C39.9999 91.3999 38.4999 91.2999 35.8999 91.2999C34.9999 91.2999 22.2999 91.1999 21.8999 91.2999C17.3999 91.5999 19.3999 94.7999 19.3999 94.7999C19.3999 94.7999 34.5999 95.3999 44.6999 96.2999C45.9999 96.3999 50.5999 97.5999 51.8999 97.4999C55.5999 97.1999 58.3999 95.3999 60.4999 95.3999C68.0999 95.3999 70.1999 94.3999 72.1999 92.4999C72.8999 91.7999 73.7999 92.8999 76.5999 92.8999C79.3999 92.8999 83.0999 91.2999 83.0999 89.1999C82.9999 87.0999 79.4999 85.3999 75.1999 85.3999Z" fill="#BABCBE"/>
<path d="M19.5 20.1998C19.5 21.9998 20.7 23.3998 22.1 23.3998C23.6 23.3998 24.7 21.8998 24.7 20.1998C24.7 18.3998 23.5 16.9998 22.1 16.9998C20.7 16.8998 19.5 18.3998 19.5 20.1998Z" fill="#DF846A"/>
<path d="M2.3002 34.2997C3.2002 34.7997 4.7002 34.7997 5.7002 34.2997C6.2002 33.9997 6.4002 33.6997 6.4002 33.2997C6.4002 32.8997 7.4002 26.6997 7.4002 26.6997H0.700195C0.700195 26.6997 1.7002 32.9997 1.7002 33.2997C1.6002 33.6997 1.8002 33.9997 2.3002 34.2997Z" fill="#AEC6F7" stroke="#111111" stroke-miterlimit="10"/>
<path d="M2 34.7998C1.4 34.3998 1 33.8998 1 33.3998C1 33.0998 0.4 29.1998 0 26.8998C0 26.7998 0 26.5998 0.1 26.4998C0.2 26.3998 0.3 26.2998 0.5 26.2998H7.2C7.3 26.2998 7.5 26.3998 7.6 26.4998C7.7 26.5998 7.7 26.7998 7.7 26.8998C7.3 29.1998 6.7 33.0998 6.7 33.3998C6.7 33.8998 6.4 34.4998 5.7 34.7998C5.2 35.0998 4.5 35.2998 3.8 35.2998C3.2 35.1998 2.5 35.0998 2 34.7998ZM1.2 27.1998C1.5 29.0998 2.1 32.9998 2.1 33.2998C2.1 33.4998 2.3 33.6998 2.5 33.7998C3.3 34.1998 4.6 34.1998 5.3 33.7998C5.6 33.5998 5.7 33.3998 5.7 33.2998C5.7 32.9998 6.3 29.0998 6.6 27.1998H1.2Z" fill="black"/>
<path d="M1.6 28.0998C2.9 28.8998 5 28.8998 6.4 28.0998C7.7 27.2998 7.7 26.0998 6.4 25.3998C5.1 24.5998 3 24.5998 1.6 25.3998C0.3 26.0998 0.3 27.2998 1.6 28.0998Z" fill="white"/>
<path d="M1.3001 28.4999C0.500098 27.9999 0.100098 27.3999 0.100098 26.6999C0.100098 25.9999 0.500098 25.2999 1.3001 24.8999C2.8001 23.9999 5.1001 23.9999 6.6001 24.8999C7.4001 25.3999 7.8001 25.9999 7.8001 26.6999C7.8001 27.3999 7.4001 28.0999 6.6001 28.4999C5.9001 28.8999 4.9001 29.0999 4.0001 29.0999C3.0001 29.1999 2.1001 28.9999 1.3001 28.4999ZM1.8001 25.7999C1.3001 26.0999 1.1001 26.3999 1.1001 26.6999C1.1001 26.9999 1.4001 27.3999 1.8001 27.5999C2.9001 28.2999 4.9001 28.2999 6.0001 27.5999C6.5001 27.2999 6.7001 26.9999 6.7001 26.6999C6.7001 26.3999 6.4001 25.9999 6.0001 25.7999C5.4001 25.4999 4.7001 25.2999 3.9001 25.2999C3.2001 25.2999 2.4001 25.4999 1.8001 25.7999Z" fill="black"/>
<path d="M4.5 27.1999C4.8 27.1999 5 26.9999 5 26.7999C5.6 24.6999 6.6 22.2999 7.1 22.0999C7.9 21.9999 9.7 22.0999 9.8 22.0999C10.1 22.0999 10.3 21.8999 10.3 21.5999C10.3 21.2999 10.1 21.0999 9.8 21.0999C9.7 21.0999 7.8 20.9999 6.9 21.0999C6.1 21.1999 5.1 22.9999 4 26.4999C4 26.7999 4.1 26.9999 4.4 27.0999L4.5 27.1999Z" fill="black"/>
<path d="M21.3002 93.5C21.3002 93.5 20.1002 94.4 19.2002 94.2C18.2002 94 17.0002 92.7 15.9002 92.2C15.4002 92 13.9002 92 13.5002 91.7C10.9002 90.2 11.2002 88.6 12.3002 88C12.3002 88 13.5002 88.2 17.0002 88.6C17.5002 88.7 21.3002 89.2 21.6002 89.6C22.8002 90.7 22.4002 92.9 21.3002 93.5Z" fill="black"/>
<path d="M19.1 94.7C18.4 94.6 17.8 94.1 17.1 93.6C16.6 93.2 16.1 92.9 15.7 92.7C15.6 92.6 15.1 92.6 14.7 92.5C14.1 92.4 13.5 92.4 13.2 92.2C11.4 91.1 11 90 11 89.3C11 88.6 11.4 88 12 87.6L12.2 87.5H12.4C12.4 87.5 13.6 87.7 17.1 88.1C17.1 88.1 21.4 88.6 22 89.2C22.7 89.8 23 90.8 22.9 91.8C22.8 92.7 22.3 93.5 21.7 93.9C21.5 94 20.5 94.7 19.5 94.7C19.3 94.8 19.2 94.8 19.1 94.7ZM12 89.3C12 89.9 12.6 90.6 13.8 91.3C14 91.4 14.5 91.5 14.9 91.5C15.4 91.6 15.9 91.6 16.2 91.8C16.8 92.1 17.3 92.5 17.8 92.8C18.4 93.2 19 93.7 19.4 93.7C19.9 93.8 20.7 93.4 21.1 93.1C21.5 92.9 21.7 92.4 21.8 91.8C21.9 91.1 21.7 90.5 21.3 90.1C20.9 89.8 17.8 89.4 16.9 89.2C14.2 88.9 12.8 88.7 12.4 88.7C12.2 88.7 12 89 12 89.3Z" fill="black"/>
<path d="M28.0001 89.6001C27.6001 89.9001 26.5001 90.6001 25.5001 90.5001C24.6001 90.3001 23.8001 89.0001 22.7001 88.5001C22.2001 88.3001 21.8001 88.1001 21.4001 87.8001C18.8001 86.3001 18.1001 85.0001 19.2001 84.4001C20.1001 83.9001 21.9001 84.0001 23.9001 85.0001C24.3001 85.2001 28.1001 85.6001 28.5001 86.0001C29.6001 87.1001 29.0001 89.0001 28.0001 89.6001Z" fill="black"/>
<path d="M25.4 91C24.8 90.9 24.2 90.4 23.7 89.9C23.3 89.5 22.9 89.2 22.4 89C21.9 88.8 21.5 88.5 21 88.3C19.6 87.5 18 86.3 18 85.1C18 84.6 18.3 84.2 18.7 83.9C19.8 83.3 21.8 83.5 23.9 84.5C24 84.6 24.8 84.7 25.4 84.8C27.6 85.2 28.3 85.3 28.6 85.6C29.2 86.2 29.5 87.1 29.4 88C29.3 88.9 28.8 89.7 28.1 90.1L27.9 90.2C27.4 90.5 26.5 91 25.6 91C25.7 91 25.5 91 25.4 91ZM27.7 89.2C28.1 89 28.4 88.4 28.5 87.8C28.5 87.5 28.5 86.8 28 86.3C27.7 86.1 26.1 85.9 25.3 85.7C24.2 85.5 23.8 85.4 23.6 85.3C21.5 84.4 20 84.3 19.3 84.7C19.1 84.8 19.1 84.9 19.1 85C19.1 85.4 19.7 86.2 21.6 87.3C22 87.5 22.5 87.8 22.9 88C23.5 88.3 24 88.7 24.4 89.1C24.8 89.5 25.3 89.9 25.6 89.9C26.2 90 27.1 89.5 27.5 89.2H27.7Z" fill="black"/>
<path d="M24.5 38.1997C24.7 38.1997 24.9 38.1997 25.1 38.0997C25.5 37.8997 29.4 36.1997 30.9 34.5997C31.4 33.9997 32.9 32.5997 29.4 16.9997C29.2 16.1997 28.4 15.5997 27.6 15.7997C26.8 15.9997 26.2 16.7997 26.4 17.5997C27.8 23.5997 28.9 30.8997 28.6 32.4997C27.6 33.3997 25.2 34.5997 23.9 35.1997C23.1 35.4997 22.8 36.4997 23.1 37.1997C23.3 37.8997 23.9 38.1997 24.5 38.1997Z" fill="#DF846A"/>
<path d="M22.6002 37.4998C22.4002 36.9998 22.4002 36.3998 22.6002 35.8998C22.8002 35.3998 23.2002 34.9998 23.7002 34.7998C24.9002 34.2998 27.1002 33.0998 28.2002 32.2998C28.4002 30.6998 27.4002 24.1998 26.0002 17.6998C25.8002 16.5998 26.4002 15.4998 27.6002 15.1998C28.7002 14.9998 29.8002 15.6998 30.1002 16.7998C33.7002 32.5998 32.2002 34.1998 31.5002 34.8998C29.9002 36.4998 26.2002 38.1998 25.5002 38.4998C25.2002 38.5998 25.0002 38.6998 24.7002 38.6998C23.7002 38.7998 22.9002 38.2998 22.6002 37.4998ZM27.7002 16.2998C27.4002 16.3998 27.2002 16.4998 27.1002 16.7998C27.0002 16.9998 26.9002 17.2998 27.0002 17.5998C28.4002 23.5998 29.6002 30.9998 29.2002 32.7998V32.9998H28.9002C27.9002 33.8998 25.4002 35.1998 24.0002 35.7998C23.7002 35.8998 23.6002 36.0998 23.5002 36.3998C23.4002 36.6998 23.4002 36.8998 23.5002 37.1998C23.7002 37.6998 24.3002 37.9998 24.9002 37.6998C25.3002 37.4998 29.1002 35.7998 30.6002 34.2998C31.8002 33.0998 31.2002 27.2998 28.9002 17.1998C28.8002 16.6998 28.4002 16.3998 27.9002 16.3998C27.9002 16.2998 27.8002 16.2998 27.7002 16.2998Z" fill="black"/>
<path d="M26.0001 87.9C27.3001 87.9 28.4001 86.9 28.4001 85.5L28.9001 56.9C28.9001 55.6 27.9001 54.5 26.5001 54.5C25.2001 54.4 24.1001 55.5 24.1001 56.9L23.6001 85.5C23.5001 86.7 24.6001 87.8 26.0001 87.9C25.9001 87.9 25.9001 87.9 26.0001 87.9Z" fill="#AEC6F7"/>
<path d="M26.0001 87.9C27.3001 87.9 28.4001 86.9 28.4001 85.5L28.9001 56.9C28.9001 55.6 27.9001 54.5 26.5001 54.5C25.2001 54.4 24.1001 55.5 24.1001 56.9L23.6001 85.5C23.5001 86.7 24.6001 87.8 26.0001 87.9ZM26.0001 87.9C25.9001 87.9 25.9001 87.9 26.0001 87.9Z" stroke="#111111" stroke-miterlimit="10"/>
<path d="M25.9001 88.3999C25.1001 88.3999 24.4001 88.0999 23.9001 87.4999C23.4001 86.8999 23.1001 86.1999 23.1001 85.3999L23.6001 56.7999C23.6001 55.9999 24.0001 55.2999 24.5001 54.6999C25.1001 54.1999 25.8001 53.8999 26.5001 53.8999C28.1001 53.8999 29.4001 55.2999 29.4001 56.8999L28.9001 85.4999C28.8001 87.0999 27.5001 88.3999 25.9001 88.3999C25.9001 88.3999 26.0001 88.3999 25.9001 88.3999ZM25.2001 55.3999C24.8001 55.7999 24.6001 56.1999 24.6001 56.7999L24.1001 85.3999C24.1001 85.8999 24.3001 86.3999 24.6001 86.6999C25.0001 87.0999 25.4001 87.2999 25.9001 87.2999V87.7999V87.2999C26.9001 87.2999 27.8001 86.4999 27.8001 85.3999L28.3001 56.7999C28.3001 55.7999 27.5001 54.8999 26.4001 54.8999C26.4001 54.8999 26.4001 54.8999 26.3001 54.8999C26.0001 54.8999 25.5001 55.0999 25.2001 55.3999Z" fill="black"/>
<path d="M19.3999 91.5998C19.3999 91.5998 19.4999 91.5998 19.3999 91.5998C20.7999 91.4998 21.8999 90.3998 21.7999 89.0998L20.6999 58.3998C20.6999 57.0998 19.4999 55.9998 18.1999 56.0998C16.8999 56.0998 15.7999 57.2998 15.8999 58.5998L16.9999 89.2998C17.0999 90.5998 18.0999 91.5998 19.3999 91.5998Z" fill="#AEC6F7" stroke="#111111" stroke-miterlimit="10"/>
<path d="M16.4999 89.2999L15.3999 58.5999C15.3999 57.7999 15.5999 57.0999 16.1999 56.4999C16.6999 55.8999 17.3999 55.5999 18.1999 55.5999C18.8999 55.5999 19.6999 55.7999 20.2999 56.3999C20.8999 56.8999 21.1999 57.6999 21.1999 58.4999L22.2999 89.1999C22.3999 90.7999 21.0999 92.1999 19.4999 92.1999H19.3999C17.7999 92.0999 16.5999 90.8999 16.4999 89.2999ZM18.1999 56.5999C17.6999 56.5999 17.1999 56.7999 16.8999 57.1999C16.5999 57.5999 16.3999 57.9999 16.3999 58.5999L17.4999 89.2999C17.4999 90.2999 18.3999 91.0999 19.3999 91.0999V91.5999L19.4999 91.0999C20.4999 91.0999 21.3999 90.1999 21.2999 89.0999L20.1999 58.3999C20.1999 57.8999 19.9999 57.3999 19.5999 57.0999C19.1999 56.7999 18.7999 56.5999 18.1999 56.5999C18.1999 56.5999 18.2999 56.5999 18.1999 56.5999Z" fill="black"/>
<path d="M18.4001 65.3999C19.4001 64.9999 20.7001 64.2999 22.3001 63.3999C29.9001 58.9999 29.9001 56.6999 29.9001 56.6999C34.1001 41.8999 27.4001 39.2999 27.4001 34.2999C27.4001 29.2999 29.9001 27.2999 29.9001 17.2999C29.9001 15.3999 28.3001 14.8999 27.1001 15.6999L24.9001 16.9999C24.9001 16.9999 25.3001 19.2999 23.3001 20.3999C21.3001 21.5999 19.4001 20.1999 19.4001 20.1999L17.3001 21.3999C15.8001 22.2999 14.8001 23.8999 14.8001 25.6999C14.8001 30.7999 16.5001 32.5999 16.5001 36.3999C16.5001 42.9999 11.0001 42.3999 14.2001 62.0999C14.2001 62.5999 14.7001 66.8999 18.4001 65.3999Z" fill="#AEC6F7" stroke="#111111" stroke-width="0.5" stroke-miterlimit="10"/>
<path d="M15.6002 65.8999C14.6002 65.2999 13.9002 64.0999 13.6002 62.0999C11.5002 48.7999 13.2002 44.5999 14.7002 41.1999C15.4002 39.5999 15.9002 38.2999 15.9002 36.1999C15.9002 34.4999 15.5002 33.1999 15.2002 31.7999C14.8002 30.1999 14.2002 28.2999 14.2002 25.4999C14.2002 23.4999 15.2002 21.7999 16.9002 20.7999L19.3002 19.3999L19.6002 19.5999C19.6002 19.5999 21.3002 20.7999 23.0002 19.7999C24.6002 18.7999 24.4002 16.9999 24.4002 16.8999L24.3002 16.4999L26.8002 14.9999C27.6002 14.4999 28.6002 14.4999 29.3002 14.8999C30.0002 15.2999 30.4002 16.0999 30.4002 17.0999C30.4002 22.9999 29.5002 26.1999 28.8002 28.7999C28.3002 30.5999 27.9002 32.0999 27.9002 34.1999C27.9002 35.6999 28.6002 36.9999 29.3002 38.4999C31.0002 41.8999 33.3002 46.4999 30.4002 56.6999C30.3002 57.1999 29.6002 59.5999 22.6002 63.6999C21.1002 64.5999 19.8002 65.2999 18.6002 65.6999C18.0002 65.8999 17.5002 66.0999 17.0002 66.0999C16.5002 66.2999 16.0002 66.0999 15.6002 65.8999ZM29.3002 56.6999V56.5999C32.1002 46.6999 30.0002 42.3999 28.3002 38.9999C27.5002 37.3999 26.8002 35.9999 26.8002 34.1999C26.8002 31.9999 27.2002 30.3999 27.8002 28.5999C28.5002 26.0999 29.4002 22.9999 29.4002 17.1999C29.4002 16.5999 29.2002 16.0999 28.8002 15.8999C28.4002 15.6999 27.8002 15.6999 27.3002 15.9999L25.4002 17.0999C25.4002 17.8999 25.3002 19.5999 23.5002 20.6999C21.7002 21.6999 20.0002 20.9999 19.3002 20.6999L17.5002 21.7999C16.1002 22.5999 15.3002 23.9999 15.3002 25.5999C15.3002 28.1999 15.8002 29.9999 16.2002 31.5999C16.6002 33.0999 17.0002 34.3999 17.0002 36.1999C17.0002 38.4999 16.4002 39.9999 15.7002 41.5999C14.3002 44.7999 12.6002 48.7999 14.7002 61.9999C15.0002 63.8999 15.7002 64.6999 16.2002 64.9999C16.7002 65.2999 17.4002 65.2999 18.3002 64.8999C19.4002 64.4999 20.7002 63.7999 22.1002 62.8999C29.0002 58.8999 29.3002 56.6999 29.3002 56.6999Z" fill="black"/>
<path d="M12.8999 40.9999C13.5999 40.9999 14.1999 40.6999 14.6999 40.2999C16.5999 38.2999 17.8999 29.0999 18.3999 25.1999C18.4999 24.3999 17.8999 23.5999 17.0999 23.4999C16.2999 23.3999 15.4999 23.9999 15.3999 24.7999C14.7999 29.9999 13.5999 36.1999 12.7999 37.8999C11.4999 37.3999 8.49993 34.4999 5.89993 31.2999C5.39993 30.5999 4.39993 30.4999 3.69993 31.0999C2.99993 31.5999 2.89993 32.5999 3.49993 33.2999C5.39993 35.5999 10.0999 40.9999 12.9999 41.0999C12.8999 40.9999 12.8999 40.9999 12.8999 40.9999Z" fill="#DF846A"/>
<path d="M12.7998 41.4999C9.7998 41.3999 5.2998 36.3999 2.8998 33.4999C2.1998 32.5999 2.2998 31.2999 3.1998 30.5999C3.5998 30.2999 4.1998 30.0999 4.6998 30.0999C5.1998 30.1999 5.6998 30.3999 6.0998 30.7999C8.5998 33.7999 11.0998 36.1999 12.3998 36.9999C13.0998 34.9999 14.1998 29.6999 14.7998 24.5999C14.8998 24.0999 15.0998 23.5999 15.5998 23.1999C15.9998 22.8999 16.5998 22.6999 17.0998 22.7999C17.5998 22.8999 18.0998 23.0999 18.4998 23.5999C18.7998 23.9999 18.9998 24.5999 18.8998 25.0999C18.2998 29.9999 16.9998 38.4999 15.0998 40.4999C14.4998 41.0999 13.7998 41.3999 12.9998 41.3999L12.7998 41.4999ZM16.1998 24.1999C15.9998 24.3999 15.7998 24.5999 15.7998 24.8999C15.1998 29.9999 13.9998 36.2999 13.0998 38.0999L12.8998 38.4999L12.4998 38.2999C11.0998 37.6999 7.9998 34.7999 5.3998 31.5999C5.1998 31.3999 4.9998 31.2999 4.6998 31.1999C4.3998 31.1999 4.1998 31.2999 3.8998 31.3999C3.4998 31.7999 3.3998 32.3999 3.7998 32.7999C7.6998 37.4999 11.0998 40.2999 12.8998 40.3999H12.9998C13.4998 40.3999 13.9998 40.1999 14.3998 39.7999C15.6998 38.4999 16.9998 32.8999 17.8998 24.9999C17.8998 24.6999 17.8998 24.4999 17.6998 24.1999C17.4998 23.9999 17.2998 23.7999 16.9998 23.7999H16.8998C16.5998 23.8999 16.3998 23.9999 16.1998 24.1999Z" fill="black"/>
<path d="M24.8 16.8998C23 14.6998 23.5 13.1998 23.5 13.1998C23.5 13.1998 24.4 8.99985 24.1 6.49985C23.8 3.99985 21.9 1.19985 19.4 1.69985C16.9 2.29985 13.5 2.79985 13.5 6.99985C13.5 18.1998 17.9 16.8998 17.9 16.8998L19.5 20.1998C19.5 20.1998 26.6 19.1998 24.8 16.8998Z" fill="#DF846A"/>
<path d="M19.5 20.6999C19.6 20.6999 19.7 20.6999 19.7 20.5999C20 20.4999 20.1 20.1999 19.9 19.8999L18.3 16.5999C18.2 16.3999 17.9 16.2999 17.7 16.2999C17.7 16.2999 17 16.4999 16.2 15.8999C15.2 15.0999 13.9 12.8999 13.9 6.89985C13.9 3.39985 16.5 2.79985 18.9 2.19985L19.4 2.09985C20.1 1.89985 20.8 2.09985 21.4 2.49985C22.5 3.19985 23.3 4.79985 23.5 6.39985C23.9 8.99985 23 13.0999 23 13.0999C23 13.0999 22.5 14.7999 24.4 17.1999C24.6 17.3999 24.9 17.4999 25.1 17.2999C25.3 17.0999 25.4 16.7999 25.2 16.5999C23.6 14.6999 23.9 13.3999 24 13.3999C24 13.1999 25 9.09985 24.7 6.49985C24.5 4.59985 23.5 2.79985 22.2 1.89985C21.3 1.29985 20.4 1.09985 19.4 1.29985L18.9 1.39985C16.3 1.89985 13 2.69985 13 7.09985C13 12.1999 13.9 15.4999 15.7 16.8999C16.4 17.4999 17.2 17.4999 17.6 17.4999L19 20.3999C19.2 20.5999 19.3 20.6999 19.5 20.6999Z" fill="black"/>
<path d="M13.5 4.40001C13 6.90001 15.7 9.5 17 11.5C18.3 13.5 21.4 16.7 22 20.4C22.6 24.1 21.5 33.3 21.8 35.1C22.1 36.9 25.1 40.2 25.1 40.2C25.1 40.2 23.5 35 23.6 32.9C23.7 30.8 25.4 23.7 25.4 20.5C25.4 17.3 23.5 14.2 23.5 14.2C23.5 14.2 25.4 9.7 25.4 7.1C25.4 4.5 23.8 1.00001 20.5 0.600005C17.6 0.200005 13.9 2.40001 13.5 4.40001Z" fill="white"/>
<path d="M24.7001 40.4999C24.4001 40.0999 21.6001 36.9999 21.3001 35.0999C21.2001 34.2999 21.3001 32.3999 21.4001 29.8999C21.6001 26.5999 21.8001 22.4999 21.5001 20.3999C21.0001 17.6999 19.1001 15.1999 17.7001 13.2999C17.3001 12.6999 16.8001 12.1999 16.5001 11.6999C16.2001 11.2999 15.9001 10.7999 15.5001 10.2999C14.2001 8.59989 12.5001 6.39989 13.0001 4.19989C13.4001 1.99989 17.5001 -0.300107 20.5001 -0.000106525C24.2001 0.499893 25.9001 4.39989 25.9001 7.09989C25.9001 9.39989 24.4001 13.1999 24.0001 14.1999C24.5001 14.9999 25.9001 17.7999 25.9001 20.5999C25.9001 22.4999 25.3001 25.6999 24.8001 28.4999C24.5001 30.3999 24.1001 32.0999 24.1001 32.9999C24.0001 34.9999 25.6001 39.9999 25.6001 40.0999L24.7001 40.4999ZM14.0001 4.49989C13.7001 6.19989 15.1001 8.09989 16.3001 9.69989C16.7001 10.1999 17.1001 10.6999 17.4001 11.1999C17.7001 11.5999 18.1001 12.1999 18.5001 12.6999C20.0001 14.5999 22.0001 17.2999 22.5001 20.2999C22.9001 22.4999 22.6001 26.6999 22.4001 29.9999C22.3001 32.1999 22.2001 34.2999 22.3001 34.8999C22.4001 35.5999 23.0001 36.5999 23.7001 37.5999C23.4001 35.9999 23.0001 34.0999 23.0001 32.8999C23.0001 31.9999 23.4001 30.2999 23.7001 28.2999C24.2001 25.4999 24.8001 22.2999 24.8001 20.4999C24.8001 17.5999 23.0001 14.4999 22.9001 14.3999V13.8999C22.9001 13.8999 24.8001 9.39989 24.8001 6.99989C24.8001 4.69989 23.4001 1.39989 20.4001 0.999893C17.8001 0.799893 14.4001 2.89989 14.0001 4.49989Z" fill="black"/>
<path d="M4.89985 33.7001C5.29985 33.7001 5.69985 33.5 5.79985 33.1C5.99985 32.6 5.89985 30.6001 5.39985 30.1001C4.79985 29.5001 4.29985 31.1 4.09985 30.9C3.89985 30.7 3.49985 30.3001 3.29985 30.1001C2.99985 29.6001 2.29985 29.6 1.89985 29.9C1.39985 30.2 1.39985 30.9 1.69985 31.3C2.79985 32.7 4.49985 33.6 4.49985 33.6C4.59985 33.7 4.79985 33.7001 4.89985 33.7001Z" fill="#DF846A"/>
<path d="M4.2998 34.0999C4.2998 34.0999 2.4998 33.1999 1.1998 31.5999C0.899805 31.2999 0.799805 30.8999 0.899805 30.4999C0.999805 30.0999 1.1998 29.6999 1.4998 29.4999C1.7998 29.2999 2.1998 29.0999 2.5998 29.1999C2.9998 29.2999 3.3998 29.4999 3.5998 29.7999C3.6998 29.8999 3.7998 30.0999 3.9998 30.1999C4.1998 29.8999 4.5998 29.4999 4.9998 29.3999C5.1998 29.3999 5.3998 29.3999 5.6998 29.6999C6.4998 30.4999 6.4998 32.5999 6.2998 33.2999C6.0998 33.8999 5.4998 34.1999 4.8998 34.1999C4.6998 34.2999 4.4998 34.1999 4.2998 34.0999ZM4.7998 30.8999C4.5998 31.1999 4.3998 31.3999 4.0998 31.4999H3.7998L3.5998 31.2999C3.3998 31.0999 2.9998 30.6999 2.7998 30.3999C2.6998 30.2999 2.5998 30.1999 2.4998 30.1999C2.3998 30.1999 2.1998 30.1999 2.0998 30.2999C1.9998 30.3999 1.9998 30.4999 1.9998 30.6999C1.9998 30.7999 1.9998 30.9999 2.0998 31.0999C3.0998 32.3999 4.6998 33.2999 4.6998 33.2999C4.9998 33.3999 5.2998 33.2999 5.3998 32.9999C5.4998 32.6999 5.4998 31.1999 5.0998 30.5999C4.9998 30.6999 4.8998 30.7999 4.7998 30.8999Z" fill="black"/>
</g>
<defs>
<clipPath id="clip0">
<rect width="83" height="97.4" fill="white"/>
</clipPath>
</defs>
</svg>
