<svg width="69" height="148" viewBox="0 0 69 148" fill="none" xmlns="http://www.w3.org/2000/svg">
<g clip-path="url(#clip0)">
<path d="M20.5264 128.888V143.294C21.9719 144.446 26.5976 147.808 33.4398 148C40.7638 148.096 45.775 144.446 47.1241 143.294C47.1241 138.588 47.1241 133.882 47.1241 129.176L20.5264 128.888Z" fill="#111111"/>
<path d="M12.5277 87.5899L2.5054 102.956C-0.771134 108.047 -0.000184423 114.674 4.33641 118.899C10.504 124.758 20.6227 131.481 34.6926 131.289C47.7023 131.193 57.3392 125.142 63.5068 119.476C68.9034 114.481 70.0599 106.318 66.3979 99.8832L57.9174 85.0928L12.5277 87.5899Z" fill="white" stroke="#111111" stroke-miterlimit="10"/>
<path d="M20.3334 54.7437L9.82916 73.7599C7.22721 78.3699 8.38363 84.2284 12.5275 87.5899C17.5387 91.6236 25.2482 95.7534 35.4632 95.2732C45.9674 94.793 53.3878 89.6067 57.9171 85.0928C61.2901 81.7313 61.9646 76.449 59.5554 72.3193L50.0149 55.512L20.3334 54.7437Z" fill="#111111"/>
<path d="M34.6926 1.15259L17.7317 39.8573C15.5152 44.8515 16.4789 50.8061 20.3337 54.7438C24.092 58.5854 29.1996 60.8904 34.6926 61.0825C40.4747 61.2746 45.8714 59.1617 50.0152 55.416C54.4482 51.3823 55.5082 44.7554 52.9063 39.3771L34.6926 1.15259Z" fill="white" stroke="#111111" stroke-miterlimit="10"/>
<path d="M52.039 38.6758C50.6328 39.6606 52.077 43.2587 36.9512 43.1451C21.2174 43.0315 20.8373 37.994 19.6592 37.0093" stroke="#111111" stroke-miterlimit="10"/>
<path d="M48.0106 39.3196L48.5806 41.7057L45.6923 42.3117L45.1982 39.8498L48.0106 39.3196Z" fill="#111111" stroke="#020202" stroke-miterlimit="10"/>
<path d="M46.3005 40.1528C47.5178 40.1528 48.5047 39.1693 48.5047 37.9561C48.5047 36.7428 47.5178 35.7593 46.3005 35.7593C45.0831 35.7593 44.0962 36.7428 44.0962 37.9561C44.0962 39.1693 45.0831 40.1528 46.3005 40.1528Z" fill="#F2F2F2" stroke="#111111" stroke-miterlimit="10"/>
<path d="M39.8392 45.6071L39.5352 43.1831L42.4995 42.918L42.6895 45.4178L39.8392 45.6071Z" fill="#111111" stroke="#020202" stroke-miterlimit="10"/>
<path d="M41.3595 49.3567C42.5769 49.3567 43.5638 48.3732 43.5638 47.1599C43.5638 45.9467 42.5769 44.9631 41.3595 44.9631C40.1422 44.9631 39.1553 45.9467 39.1553 47.1599C39.1553 48.3732 40.1422 49.3567 41.3595 49.3567Z" fill="#C61109" stroke="#111111" stroke-miterlimit="10"/>
<path d="M35.2791 40.6455L35.2031 43.1074L32.2388 42.918L32.3908 40.4182L35.2791 40.6455Z" fill="#111111" stroke="#020202" stroke-miterlimit="10"/>
<path d="M33.987 41.062C35.2044 41.062 36.1912 40.0785 36.1912 38.8652C36.1912 37.652 35.2044 36.6685 33.987 36.6685C32.7696 36.6685 31.7827 37.652 31.7827 38.8652C31.7827 40.0785 32.7696 41.062 33.987 41.062Z" fill="#AEC6F7" stroke="#111111" stroke-miterlimit="10"/>
<path d="M23.9917 43.9404L24.4478 41.5164L27.3741 42.1981L26.766 44.6221L23.9917 43.9404Z" fill="#111111" stroke="#020202" stroke-miterlimit="10"/>
<path d="M24.9796 48.1067C26.197 48.1067 27.1839 47.1232 27.1839 45.9099C27.1839 44.6967 26.197 43.7131 24.9796 43.7131C23.7623 43.7131 22.7754 44.6967 22.7754 45.9099C22.7754 47.1232 23.7623 48.1067 24.9796 48.1067Z" fill="#F2F2F2" stroke="#111111" stroke-miterlimit="10"/>
<path d="M24.0299 38.6001L22.2817 40.3045L20.2295 38.1456L22.1297 36.4412L24.0299 38.6001Z" fill="#111111" stroke="#020202" stroke-miterlimit="10"/>
<path d="M24.3341 38.6379C25.5515 38.6379 26.5384 37.6544 26.5384 36.4412C26.5384 35.2279 25.5515 34.2444 24.3341 34.2444C23.1168 34.2444 22.1299 35.2279 22.1299 36.4412C22.1299 37.6544 23.1168 38.6379 24.3341 38.6379Z" fill="#FFB24D" stroke="#111111" stroke-miterlimit="10"/>
<path d="M65.891 99.4404C63.3567 101.36 66.2776 107.924 38.2776 108.744C9.15226 109.605 8.10129 100.304 5.85303 98.5603" stroke="#111111" stroke-miterlimit="10"/>
<path d="M58.48 100.905L59.6999 105.284L54.3976 106.602L53.3131 102.078L58.48 100.905Z" fill="#111111" stroke="#020202" stroke-miterlimit="10"/>
<path d="M55.3784 102.568C57.6309 102.486 59.3879 100.6 59.3027 98.354C59.2176 96.1082 57.3227 94.3537 55.0702 94.4353C52.8177 94.5169 51.0607 96.4036 51.1458 98.6494C51.2309 100.895 53.1259 102.65 55.3784 102.568Z" fill="#F2F2F2" stroke="#111111" stroke-miterlimit="10"/>
<path d="M43.7931 113.1L43.0628 108.633L48.5294 107.941L49.054 112.556L43.7931 113.1Z" fill="#111111" stroke="#020202" stroke-miterlimit="10"/>
<path d="M46.8644 119.936C49.1169 119.854 50.8748 117.966 50.7908 115.72C50.7068 113.474 48.8128 111.721 46.5603 111.803C44.3079 111.886 42.55 113.774 42.634 116.02C42.718 118.265 44.612 120.019 46.8644 119.936Z" fill="#C61109" stroke="#111111" stroke-miterlimit="10"/>
<path d="M35.0094 104.229L35.0392 108.791L29.5412 108.642L29.6494 104.004L35.0094 104.229Z" fill="#111111" stroke="#020202" stroke-miterlimit="10"/>
<path d="M32.6528 105.091C34.9053 105.01 36.6623 103.123 36.5772 100.877C36.4921 98.6316 34.5971 96.8772 32.3446 96.9587C30.0921 97.0403 28.3351 98.927 28.4202 101.173C28.5053 103.419 30.4003 105.173 32.6528 105.091Z" fill="#AEC6F7" stroke="#111111" stroke-miterlimit="10"/>
<path d="M14.3494 111.098L15.0255 106.58L20.4872 107.643L19.5299 112.172L14.3494 111.098Z" fill="#111111" stroke="#020202" stroke-miterlimit="10"/>
<path d="M16.4645 118.743C18.717 118.66 20.4749 116.772 20.3909 114.526C20.3069 112.281 18.4129 110.527 16.1604 110.61C13.908 110.692 12.1501 112.58 12.2341 114.826C12.3181 117.072 14.2121 118.825 16.4645 118.743Z" fill="#F2F2F2" stroke="#111111" stroke-miterlimit="10"/>
<path d="M14.0503 101.213L10.9337 104.487L6.98711 100.63L10.385 97.3459L14.0503 101.213Z" fill="#111111" stroke="#020202" stroke-miterlimit="10"/>
<path d="M14.6174 101.263C16.8698 101.18 18.6277 99.2923 18.5437 97.0465C18.4597 94.8006 16.5657 93.047 14.3133 93.1297C12.0608 93.2123 10.3029 95.0999 10.3869 97.3457C10.4709 99.5916 12.3649 101.345 14.6174 101.263Z" fill="#FFB24D" stroke="#111111" stroke-miterlimit="10"/>
</g>
<defs>
<clipPath id="clip0">
<rect width="69" height="148" fill="white"/>
</clipPath>
</defs>
</svg>
