<svg width="90" height="195" viewBox="0 0 90 195" fill="none" xmlns="http://www.w3.org/2000/svg">
<g clip-path="url(#clip0)">
<path d="M26.7437 169.829V188.837C28.5794 190.318 34.6523 194.836 43.6171 195C53.2231 195.177 59.7613 190.254 61.5215 188.837C61.5215 182.636 61.5215 176.435 61.5215 170.222L26.7437 169.829Z" fill="#111111"/>
<path d="M16.3579 115.35L3.29423 135.572C-1.01843 142.241 -0.0251351 151.075 5.70831 156.554C13.7175 164.223 26.9824 173.107 45.3018 172.917C62.3261 172.74 74.8114 164.818 82.8458 157.313C89.9246 150.708 91.3579 139.964 86.5801 131.523L75.5407 112.009L16.3579 115.35Z" fill="#AEC6F7" stroke="#111111" stroke-miterlimit="10"/>
<path d="M26.4919 72.1079L12.8247 97.152C9.48018 103.29 10.9261 110.984 16.3578 115.35C22.8959 120.602 33.0175 126.107 46.2446 125.461C59.9119 124.803 69.6436 117.931 75.5405 112.034C79.9789 107.605 80.7836 100.657 77.7031 95.1779L65.2681 73.095L26.4919 72.1079Z" fill="#111111"/>
<path d="M45.2767 1.53125L23.135 52.5307C20.2683 59.1492 21.4376 66.9826 26.4921 72.1079C31.4209 77.1192 38.0973 80.2197 45.2767 80.5107C52.7578 80.8145 59.8995 78.0177 65.2809 73.0949C71.0898 67.7672 72.4603 59.0733 69.0906 51.9359L45.2767 1.53125Z" fill="#AEC6F7" stroke="#111111" stroke-miterlimit="10"/>
</g>
<defs>
<clipPath id="clip0">
<rect width="90" height="195" fill="white"/>
</clipPath>
</defs>
</svg>
