<svg width="37" height="46" viewBox="0 0 37 46" fill="none" xmlns="http://www.w3.org/2000/svg">
<path d="M18.5 0.766602C10.8688 0.766602 4.625 6.7466 4.625 14.1066C4.625 17.0199 5.62708 19.7799 7.4 22.0799L17.8833 35.7266C18.1146 36.0333 18.6542 36.1099 18.9625 35.8799C19.0396 35.8033 19.0396 35.8033 19.1167 35.7266L29.6 22.0799C31.3729 19.7799 32.375 17.0199 32.375 14.1066C32.375 6.7466 26.1312 0.766602 18.5 0.766602ZM17.4208 19.3199C14.4917 18.7066 12.5646 15.9466 13.1813 13.0333C13.7979 10.1199 16.5729 8.20327 19.5021 8.8166C21.6604 9.2766 23.3562 10.8866 23.7417 13.0333C24.2812 15.9466 22.3542 18.7833 19.5021 19.3199C18.8083 19.4733 18.1146 19.4733 17.4208 19.3199Z" fill="#F3BC54"/>
</svg>
