<svg width="162" height="420" viewBox="0 0 162 420" fill="none" xmlns="http://www.w3.org/2000/svg">
<g clip-path="url(#clip0)">
<path d="M49.8999 328.1V361.7C53.1999 364.3 63.9999 372.3 79.8999 372.6C96.9999 372.9 108.6 364.2 111.7 361.7C111.7 350.7 111.7 339.8 111.7 328.8L49.8999 328.1Z" fill="#111111"/>
<path d="M31.4001 231.8L8.20007 267.6C0.500069 279.4 2.30007 295 12.5001 304.7C26.7001 318.2 50.3001 334 82.9001 333.6C113.2 333.3 135.4 319.3 149.7 306C162.3 294.3 164.8 275.4 156.3 260.4L136.7 226L31.4001 231.8Z" fill="#AEC6F7" stroke="#111111" stroke-miterlimit="10"/>
<path d="M49.4001 155.4L25.1001 199.6C19.2001 210.4 21.7001 224 31.4001 231.8C43.0001 241.1 61.0001 250.8 84.5001 249.7C108.8 248.5 126.1 236.4 136.6 226C144.5 218.2 145.9 205.9 140.4 196.2L118.3 157.2L49.4001 155.4Z" fill="#111111"/>
<path d="M82.8001 30.7L43.4001 120.8C38.3001 132.5 40.4001 146.3 49.4001 155.4C58.2001 164.2 70.0001 169.7 82.8001 170.2C96.1001 170.7 108.8 165.8 118.4 157.1C128.7 147.7 131.2 132.3 125.2 119.7L82.8001 30.7Z" fill="#AEC6F7" stroke="#111111" stroke-miterlimit="10"/>
<path d="M83.5002 0.699902L88.3002 10.3999C88.5002 10.7999 88.8002 10.9999 89.2002 11.0999L100 12.6999C101 12.7999 101.4 14.0999 100.7 14.7999L92.9002 22.3999C92.6002 22.6999 92.5002 23.0999 92.5002 23.4999L94.3002 34.1999C94.5002 35.1999 93.4002 35.9999 92.5002 35.4999L82.9002 30.3999C82.5002 30.1999 82.1002 30.1999 81.8002 30.3999L72.2002 35.4999C71.3002 35.9999 70.2002 35.1999 70.4002 34.1999L72.2002 23.4999C72.3002 23.0999 72.1002 22.6999 71.8002 22.3999L64.0002 14.7999C63.3002 14.0999 63.7002 12.7999 64.7002 12.6999L75.5002 11.0999C75.9002 10.9999 76.2002 10.7999 76.4002 10.3999L81.2002 0.699902C81.7002 -0.200098 83.0002 -0.200098 83.5002 0.699902Z" fill="#111111"/>
<path d="M87.1006 364.9V387.9L106.901 399.3C106.901 399.3 107.001 399.3 107.001 399.2V376.4L87.1006 364.9Z" fill="#AEC6F7" stroke="#111111" stroke-miterlimit="10"/>
<path d="M106.9 399.5H106.8L86.9004 388V364.7L107.1 376.4V399.3C107.1 399.4 107.1 399.5 107 399.5C106.9 399.4 106.9 399.5 106.9 399.5ZM87.2004 387.8L106.8 399.1V376.5L87.2004 365.2V387.8V387.8Z" fill="#15110E"/>
<path d="M126.8 364.9V387.9L107 399.3C107 399.3 106.9 399.3 106.9 399.2V376.4L126.8 364.9Z" fill="#14100D"/>
<path d="M107 399.5H106.9C106.8 399.5 106.8 399.4 106.8 399.3V376.4H106.9L127 364.8V388L107.1 399.5C107.1 399.4 107 399.5 107 399.5ZM107.1 376.5V399.1L126.7 387.8V365.2L107.1 376.5Z" fill="#15110E"/>
<path d="M128.201 361.7L106.901 374L85.6006 361.7V361.6L106.901 349.3L128.101 361.6C128.201 361.6 128.201 361.7 128.201 361.7Z" fill="#AEC6F7" stroke="#111111" stroke-miterlimit="10"/>
<path d="M128.3 363.5L107 375.8L85.7002 363.5V363.4L107 351.1L128.2 363.4C128.3 363.4 128.3 363.5 128.3 363.5Z" fill="white"/>
<path d="M106.9 374.2L85.5004 361.9C85.4004 361.9 85.4004 361.8 85.4004 361.7C85.4004 361.6 85.4004 361.6 85.5004 361.5L106.9 349.2H107L128.2 361.5C128.3 361.5 128.3 361.6 128.3 361.7C128.3 361.8 128.3 361.9 128.2 361.9L106.9 374.2ZM85.9004 361.6L106.9 373.7L127.9 361.6L106.9 349.5L85.9004 361.6Z" fill="#15110E"/>
<path d="M85.6006 361.7V368.2L107.001 380.5V374L85.6006 361.7Z" fill="#AEC6F7" stroke="#111111" stroke-miterlimit="10"/>
<path d="M107.1 380.8L85.4004 368.3V361.7C85.4004 361.6 85.4004 361.6 85.5004 361.5C85.6004 361.5 85.6004 361.5 85.7004 361.5L107.1 373.8V380.8ZM85.7004 368.1L106.7 380.2V374L85.7004 361.9V368.1Z" fill="#15110E"/>
<path d="M128.3 361.8V368.2L106.9 380.5V374L128.1 361.7C128.2 361.7 128.3 361.7 128.3 361.8Z" fill="#14100D"/>
<path d="M106.8 380.8V373.9H106.9L128.1 361.6C128.2 361.6 128.3 361.6 128.3 361.6C128.4 361.6 128.4 361.7 128.4 361.8V368.3H128.3L106.8 380.8ZM107.1 374.1V380.3L128.1 368.2V362L107.1 374.1Z" fill="#15110E"/>
<path d="M99.0006 369.5L120.501 357.2L115.401 354.3L94.1006 366.6L99.0006 369.5Z" fill="#AEC6F7" stroke="#111111" stroke-miterlimit="10"/>
<path d="M93.8003 372.9L98.7003 375.8V394.6L93.8003 391.7" fill="#AEC6F7"/>
<path d="M93.8003 372.9L98.7003 375.8V394.6L93.8003 391.7" stroke="#111111" stroke-miterlimit="10"/>
<path d="M94.5005 392.3V373.5L99.5005 376.4V395.2L94.5005 392.3Z" fill="white"/>
<path d="M94.3003 373V366.7L99.3003 369.6V375.8L94.3003 373Z" fill="white"/>
<path d="M114.8 369.5L93.4004 357.2L98.4004 354.3L119.8 366.6L114.8 369.5Z" fill="#AEC6F7" stroke="#111111" stroke-miterlimit="10"/>
<path d="M86.7999 351.2C86.7999 351.2 86.4999 358.3 94.0999 359.1C99.7999 359.7 103.5 360.8 104.5 361.2C104.7 361.3 105.7 360.6 105.8 360.5L106.1 356.8C106.1 356.8 100.8 354.4 100.6 354.4C100.3 354.4 95.9999 354.8 94.1999 353.6C92.3999 352.5 92.8999 350.6 93.6999 349.1C94.4999 347.5 93.0999 347 93.0999 347L87.7999 349.6L87.5999 349.8C87.0999 350.2 86.8999 350.7 86.7999 351.2Z" fill="#AEC6F7" stroke="#111111" stroke-miterlimit="10"/>
<path d="M89.3004 357.2L94.1004 353.6C94.1004 353.6 94.1004 353.6 94.0004 353.6C92.2004 352.5 92.7004 350.6 93.5004 349.1C94.3004 347.5 92.9004 347 92.9004 347L87.6004 349.6L87.4004 349.8C87.0004 350.2 86.8004 350.7 86.7004 351.2C86.7004 351.2 86.5004 354.9 89.3004 357.2Z" fill="#14100D"/>
<path d="M104.5 361.4C104.5 361.4 104.4 361.4 104.5 361.4C103.5 361 99.9002 359.9 94.1002 359.3C86.3002 358.5 86.6002 351.3 86.6002 351.2C86.7002 350.7 87.0002 350.1 87.4002 349.7L87.7002 349.4L93.0002 346.7H93.1002C93.1002 346.7 93.7002 346.9 94.0002 347.5C94.2002 347.9 94.1002 348.4 93.8002 349C93.0002 350.5 92.5002 352.2 94.3002 353.3C95.0002 353.8 96.7002 354.3 100.4 354.1C100.5 354.1 100.6 354.1 100.6 354.1C100.9 354.1 104.6 355.8 106.2 356.5H106.3L105.9 360.4C105.8 360.6 105.1 361 104.9 361.1C104.7 361.3 104.6 361.4 104.5 361.4ZM86.9002 351.2C86.9002 351.6 86.7002 358.1 94.1002 358.9C99.9002 359.5 103.5 360.6 104.5 361C104.7 361 105.4 360.5 105.5 360.4L105.8 356.8C103.8 355.9 100.7 354.5 100.4 354.4C100.4 354.4 100.3 354.4 100.2 354.4C96.4002 354.6 94.6002 354.1 93.9002 353.6C91.9002 352.4 92.5002 350.4 93.3002 348.8C93.5002 348.3 93.6002 347.9 93.5002 347.6C93.4002 347.2 93.0002 347 92.9002 347L87.7002 349.6L87.5002 349.8C87.3002 350.3 87.0002 350.7 86.9002 351.2Z" fill="#15110E"/>
<path d="M87.0005 350.4C89.7005 345.5 101.1 355.8 103 360.1C103.5 361.1 105 361.5 106.2 361L108.1 360.1C108.1 360.1 106.8 347.2 97.5005 345C90.6005 343.5 87.0005 350.4 87.0005 350.4Z" fill="#AEC6F7" stroke="#111111" stroke-miterlimit="10"/>
<path d="M97.6002 346.5C93.8002 345.6 91.0002 347.3 89.2002 349C93.5002 348.8 101.5 356.4 103 360C103.5 361 105 361.4 106.2 360.9L107.9 360.1C107.3 356.7 104.9 348.2 97.6002 346.5Z" fill="white"/>
<path d="M105.1 361.4C104.2 361.4 103.3 361 102.9 360.2C101.4 356.6 93.8004 349.5 89.5004 349.3C88.4004 349.2 87.6004 349.6 87.2004 350.5L86.9004 350.3C86.9004 350.2 90.6004 343.3 97.6004 344.9C106.9 347 108.3 360 108.3 360.1V360.2L106.3 361.1C105.9 361.4 105.5 361.4 105.1 361.4ZM89.3004 349C89.4004 349 89.4004 349 89.5004 349C93.8004 349.2 101.6 356.4 103.1 360.1C103.6 361 105 361.4 106.1 360.9L107.9 360.1C107.7 358.8 106 347.3 97.5004 345.3C92.6004 344.2 89.4004 347.4 88.0004 349.3C88.4004 349.1 88.8004 349 89.3004 349Z" fill="#15110E"/>
<path d="M127.1 350.7C127.1 350.7 127.4 358.1 120.2 359C114.8 359.6 111.4 360.8 110.4 361.2C110.2 361.3 109.3 360.6 109.2 360.4L108.9 356.5C108.9 356.5 113.3 354.9 113.5 354.9C113.7 354.9 118.4 354.3 120.2 353.1C121.9 351.9 121.4 350 120.7 348.3C120 346.6 121.3 346.1 121.3 346.1L126.3 348.9L126.5 349.1C126.8 349.6 127 350.2 127.1 350.7Z" fill="#130F0C"/>
<path d="M120.2 353.2C119.4 353.8 120 353.6 118.6 353.9L122.9 358.2C127.5 355.5 127.1 350.7 127.1 350.7C127 350.2 126.8 349.6 126.4 349.2L126.2 349L121.2 346.2C121.2 346.2 119.9 346.8 120.6 348.4C121.4 350.1 121.9 352 120.2 353.2Z" fill="#AEC6F7" stroke="#111111" stroke-miterlimit="10"/>
<path d="M110.4 361.4C110.3 361.4 110.3 361.4 110.2 361.3C109.9 361.2 109.2 360.7 109.1 360.5L108.8 356.5H108.9C109.9 356.1 113.3 354.9 113.6 354.9C113.8 354.9 118.5 354.3 120.2 353.2C121.9 352 121.4 350.2 120.6 348.6C120.3 348 120.3 347.4 120.5 347C120.7 346.4 121.3 346.2 121.3 346.2H121.4L126.5 349.1L126.7 349.3C127.1 349.8 127.3 350.3 127.4 350.9C127.4 351 127.6 358.5 120.3 359.4C114.7 359.8 111.3 361 110.4 361.4ZM109.4 360.4C109.5 360.5 110.2 361 110.4 361C111.3 360.6 114.7 359.5 120.2 358.8C127.1 358 127 351 127 350.7C126.9 350.2 126.7 349.7 126.3 349.3L126.1 349.1L121.2 346.4C121.1 346.5 120.8 346.7 120.7 347C120.6 347.4 120.6 347.8 120.8 348.4C121.5 350 122.1 352.1 120.2 353.4C118.4 354.6 113.7 355.2 113.4 355.2C113.2 355.2 110.6 356.1 109 356.7L109.4 360.4Z" fill="#15110E"/>
<path d="M126.9 349.9C124.4 344.8 113.5 355.5 111.8 360.1C111.3 361.2 109.9 361.6 108.8 361L107 360.1C107 360.1 108.3 346.5 117 344.3C123.5 342.6 126.9 349.9 126.9 349.9Z" fill="#AEC6F7" stroke="#111111" stroke-miterlimit="10"/>
<path d="M116.9 346.4C110.3 348.1 108 356.3 107.2 360.2L108.7 361C109.8 361.6 111.2 361.1 111.7 360.1C113.1 356.5 120 349.1 124.2 348.6C122.6 346.9 120.2 345.6 116.9 346.4Z" fill="white"/>
<path d="M109.8 361.4C109.4 361.4 109 361.3 108.7 361.1L106.8 360.1V360C106.8 359.9 108.2 346.3 116.9 344.1C123.5 342.4 127 349.7 127 349.8L126.7 349.9C126.3 349 125.5 348.6 124.5 348.6C120.6 348.8 113.3 356.3 111.9 360C111.7 360.5 111.2 360.9 110.6 361.1C110.4 361.4 110.1 361.4 109.8 361.4ZM107.1 360L108.8 360.9C109.3 361.2 109.9 361.2 110.5 361C111 360.8 111.4 360.5 111.6 360C112.9 356.4 120.2 348.5 124.5 348.3C125 348.3 125.5 348.4 125.9 348.6C124.6 346.6 121.6 343.2 116.9 344.4C108.9 346.5 107.3 358.7 107.1 360Z" fill="#15110E"/>
<path d="M104.1 360.8C104 360.6 104 360.4 104 360.2C104.1 359.5 104.5 357.7 106.8 357.7C109 357.7 109.6 359.2 109.7 359.9C109.8 360.1 109.7 360.4 109.7 360.6V360.7C109.5 361.4 108.8 362 107.9 362H105.9C105.1 362 104.3 361.5 104.1 360.8Z" fill="#AEC6F7" stroke="#111111" stroke-miterlimit="10"/>
<path d="M107.9 362C108.7 362 109.5 361.5 109.7 360.7V360.6C109.8 360.4 109.8 360.1 109.7 359.9C109.6 359.6 109.5 359.2 109.3 358.9C108.9 358.8 108.5 358.7 108 358.7C105.7 358.7 105.3 360.4 105.2 361.2C105.2 361.4 105.2 361.6 105.3 361.8C105.3 361.9 105.3 361.9 105.4 362C105.6 362 105.7 362.1 105.9 362.1H107.9V362Z" fill="white"/>
<path d="M107.9 362.2H105.9C105 362.2 104.2 361.6 104 360.9C103.9 360.7 103.9 360.5 103.9 360.3C104 359.5 104.4 357.7 106.8 357.7C109.1 357.7 109.7 359.3 109.9 360.1C110 360.4 109.9 360.6 109.9 360.9V361C109.7 361.6 108.9 362.2 107.9 362.2ZM106.9 357.9C104.7 357.9 104.3 359.5 104.3 360.2C104.3 360.4 104.3 360.5 104.3 360.7C104.5 361.4 105.2 361.8 105.9 361.8H107.9C108.7 361.8 109.3 361.3 109.5 360.7V360.6C109.6 360.4 109.6 360.2 109.5 360C109.4 359.3 108.9 357.9 106.9 357.9Z" fill="#15110E"/>
<path d="M104.1 357.6C104.1 357.6 105.9 358.1 106 360.9C106 360.9 105.8 362.2 107 362.3C107 362.3 104.4 364 102.1 362.2C101 361.3 99.9004 359.4 98.3004 359.8C96.7004 360.2 99.8004 357.4 99.8004 357.4H101.5L102.5 358L103.1 357.6H104.1Z" fill="#130F0C"/>
<path d="M104.5 363.2C103.7 363.2 102.9 363 102 362.3C101.7 362.1 101.4 361.7 101.1 361.4C100.3 360.5 99.4003 359.6 98.3003 359.9C98.2003 359.9 97.8003 360 97.7003 359.8C97.5003 359.4 98.7003 358.2 99.7003 357.2H101.5L102.5 357.7L103 357.3L104 357.4C104.1 357.4 105.9 358 106.1 360.8C106.1 360.8 106 361.3 106.3 361.7C106.4 361.9 106.7 362 107 362H107.5L107.1 362.3C107.1 362.4 105.9 363.2 104.5 363.2ZM98.7003 359.6C99.7003 359.6 100.6 360.5 101.3 361.2C101.6 361.5 101.9 361.8 102.2 362.1C103.9 363.4 105.8 362.8 106.5 362.4C106.3 362.3 106.2 362.2 106.1 362.1C105.8 361.7 105.8 361.1 105.8 361C105.7 358.5 104.2 357.9 104 357.9L103.1 357.8L102.5 358.3L101.4 357.7H99.8003C98.9003 358.5 98.0003 359.5 97.9003 359.8C97.9003 359.8 98.0003 359.8 98.1003 359.8C98.4003 359.6 98.6003 359.6 98.7003 359.6Z" fill="#15110E"/>
<path d="M104.1 357.6L100.9 356.2C99.8003 355.7 98.5003 356 97.7003 356.9C96.9003 357.8 96.2003 359.2 96.4003 361.3C96.6003 365.6 95.5003 368.3 92.7003 368.5C92.4003 368.5 92.3003 368.8 92.4003 369L94.5003 372.2C94.7003 372.6 95.1003 372.7 95.6003 372.7C97.2003 372.4 100.9 371.3 101.2 367.3C101.3 362.3 100.2 359.6 104.1 357.6Z" fill="#AEC6F7" stroke="#111111" stroke-miterlimit="10"/>
<path d="M101.501 357.7C100.401 357.2 99.1006 357.5 98.3006 358.4C97.5006 359.3 96.8006 360.7 97.0006 362.8C97.2006 367.1 96.1006 369.8 93.3006 370C93.2006 370 93.2006 370 93.1006 370.1L94.5006 372.3C94.7006 372.7 95.1006 372.8 95.6006 372.8C97.2006 372.5 100.901 371.4 101.201 367.4C101.501 362.9 100.601 360.2 103.101 358.3L101.501 357.7Z" fill="white"/>
<path d="M95.2004 373C94.8004 373 94.4004 372.8 94.2004 372.4L92.1004 369.2C92.0004 369 92.0004 368.9 92.1004 368.7C92.2004 368.5 92.3004 368.4 92.5004 368.4C95.0004 368.2 96.3004 365.7 96.0004 361.3C95.9004 359.5 96.4004 357.9 97.4004 356.8C98.2004 355.8 99.6004 355.5 100.8 356.1L104.4 357.6L104.1 357.8C101.2 359.2 101.2 361.1 101.2 364.3C101.2 365.2 101.2 366.3 101.1 367.5C100.8 371.6 97.0004 372.8 95.4004 373.1C95.4004 373 95.3004 373 95.2004 373ZM99.7004 356.2C99.0004 356.2 98.2004 356.5 97.7004 357.1C96.7004 358.2 96.3004 359.6 96.4004 361.4C96.7004 365.9 95.3004 368.5 92.6004 368.8C92.5004 368.8 92.5004 368.9 92.5004 368.9C92.5004 369 92.5004 369 92.5004 369.1L94.6004 372.3C94.8004 372.6 95.1004 372.8 95.5004 372.7C97.1004 372.4 100.7 371.3 101 367.4C101.1 366.2 101.1 365.2 101.1 364.3C101.1 361.2 101.1 359.2 103.9 357.7L101 356.4C100.4 356.2 100 356.2 99.7004 356.2Z" fill="#15110E"/>
<path d="M106.9 362.3C106.9 362.3 107 362.4 106.9 362.3C107.6 362.2 110.6 361.8 111.3 365.7C112.1 370 117.7 372.2 121.3 368.6C121.5 368.4 121.6 368.2 121.7 368L122.8 364.5C122.9 364.2 122.6 364 122.3 364.2C120.8 365.3 117.5 367.3 115.9 364.8C113.8 361.4 111.9 359.6 109.6 360.1C109.5 360 107.3 360.3 106.9 362.3Z" fill="#AEC6F7" stroke="#111111" stroke-miterlimit="10"/>
<path d="M111.4 365.7C112.2 370 117.8 372.2 121.4 368.6C121.6 368.4 121.7 368.2 121.8 368L122.5 365.7C122.5 365.4 122.2 365.2 122 365.4C120.5 366.5 117.2 368.5 115.6 366C113.5 362.6 111.6 360.8 109.3 361.3C109.3 361.3 108 361.5 107.2 362.4C107.9 362.2 110.7 361.9 111.4 365.7Z" fill="white"/>
<path d="M117.1 370.5C116.5 370.5 115.9 370.4 115.3 370.2C113.1 369.5 111.5 367.8 111.2 365.7C111 364.4 110.4 363.4 109.6 362.9C108.6 362.2 107.4 362.4 107.1 362.5C107 362.5 106.9 362.5 106.9 362.4C106.8 362.3 106.8 362.3 106.8 362.2C107.1 360.1 109.5 359.8 109.5 359.8C112.2 359.2 114.2 361.7 116 364.6C116.4 365.2 116.9 365.6 117.5 365.7C119.1 366 121 364.8 122.1 364C122.3 363.9 122.5 363.9 122.7 364C122.9 364.1 122.9 364.3 122.9 364.5L121.8 368C121.7 368.3 121.6 368.5 121.4 368.7C120.2 369.9 118.7 370.5 117.1 370.5ZM107.9 362.1C108.4 362.1 109.1 362.2 109.8 362.6C110.7 363.2 111.3 364.2 111.5 365.6C111.9 367.6 113.4 369.2 115.4 369.9C117.5 370.5 119.6 370 121.2 368.4C121.4 368.2 121.5 368 121.5 367.8L122.6 364.3C122.6 364.2 122.6 364.1 122.5 364.1C122.5 364.1 122.4 364 122.3 364.1C121.2 364.9 119.2 366.2 117.5 365.9C116.8 365.8 116.2 365.3 115.7 364.6C113.4 360.9 111.6 359.5 109.5 360C109.4 360 107.4 360.3 107 362C107.3 362.1 107.6 362.1 107.9 362.1Z" fill="#15110E"/>
<path d="M116.8 382.1L111.4 386.8L112.6 391L117.9 386.4L116.8 382.1Z" fill="#130F0C"/>
<path d="M117.901 379.7L114.601 382.5L115.301 385.1L118.601 382.2L117.901 379.7Z" fill="#130F0C"/>
<path d="M126.701 368.9V369.3L107.101 380.6V380.2" fill="#AEC6F7"/>
<path d="M27.8 373.4L1 357.8L26.5 343.1L53.4 358.7L27.8 373.4Z" fill="white" stroke="#0A0A0A" stroke-miterlimit="10"/>
<path d="M1 357.8V384.1L27.8 399.6V373.4L1 357.8Z" fill="#AEC6F7" stroke="#111111" stroke-miterlimit="10"/>
<path d="M26.7002 342.9L26.6002 342.8L0.700195 357.7V384.3L27.8002 400L53.5002 385.2L53.6002 385.1V358.5L26.7002 342.9ZM27.6002 399.2L1.3002 383.9V358.3L21.1002 369.7L27.6002 373.5V399.2ZM1.5002 357.8L26.5002 343.4L52.8002 358.6L27.8002 373L1.5002 357.8Z" fill="#15110E"/>
<path d="M40.8001 365.7L14.1001 350.1L14.5001 349.7L41.4001 365.4L40.8001 365.7Z" fill="#15110E"/>
<path d="M41.3002 392L40.7002 392.3V365.7L41.3002 365.4V392Z" fill="#AEC6F7"/>
<path d="M14.4003 391.7H13.8003V365.5L13.9003 365.4L39.8003 350.8L40.1003 351.2L14.4003 365.8V391.7Z" fill="#15110E"/>
<path d="M47.0001 353.4C46.4001 351.4 45.3001 350.1 43.6001 349.7C38.9001 348.4 31.3001 354.4 28.6001 356.7C29.0001 355.5 29.3001 353.4 28.9001 349.8C28.5001 345.9 25.2001 343.1 22.3001 342.6C20.0001 342.2 18.2001 343.1 17.2001 345.2C14.8001 350.2 25.2001 356.5 27.3001 357.8C26.7001 358.7 25.9001 358.7 24.9001 358.6C24.1001 358.5 23.3001 358.4 22.5001 358.9C20.7001 360 20.1001 362.1 20.1001 362.2L20.6001 362.3C20.6001 362.3 21.1001 360.3 22.8001 359.4C23.4001 359 24.1001 359.1 24.9001 359.2C25.9001 359.3 27.0001 359.4 27.9001 358.2H28.0001L28.1001 358.1C28.3001 358.1 28.6001 358.2 29.0001 358.3C29.7001 358.6 30.5001 359.1 30.7001 360.2C31.0001 361.4 31.7001 362.3 32.7001 362.7C33.2001 362.9 33.7001 363 34.2001 363C34.8001 363 35.3001 362.9 35.9001 362.6L35.7001 362.1C34.8001 362.5 33.8001 362.6 33.0001 362.2C32.2001 361.8 31.6001 361 31.3001 360C31.2001 359.4 30.9001 358.9 30.5001 358.6C32.8001 359 36.2001 359.6 39.3001 359.6C42.3001 359.6 45.0001 359.1 46.4001 357.7C47.3001 356.6 47.5001 355.2 47.0001 353.4ZM17.7001 345.4C18.4001 343.9 19.7001 343 21.4001 343C21.7001 343 22.0001 343 22.3001 343.1C25.0001 343.6 28.0001 346.2 28.4001 349.8C28.9001 354.6 28.1001 356.7 27.8001 357.3C26.0001 356.4 15.5001 350 17.7001 345.4ZM45.9001 357.2C42.9001 360.4 32.4001 358.4 29.0001 357.7C28.8001 357.6 28.6001 357.6 28.4001 357.6C30.3001 355.9 38.6001 348.9 43.4001 350.2C44.8001 350.6 45.8001 351.7 46.4001 353.6C46.9001 355.1 46.8001 356.3 45.9001 357.2Z" fill="#15110E"/>
<path d="M16.2004 382V375.2L6.60039 369.6V376.4C6.60039 376.4 6.70039 379.8 5.30039 380.6C3.90039 381.4 3.90039 381.4 3.90039 381.4L13.5004 387C13.5004 387 13.5004 387 14.9004 386.2C16.3004 385.4 16.2004 382 16.2004 382Z" fill="#AEC6F7" stroke="#111111" stroke-miterlimit="10"/>
<path d="M17.4001 384.1V377.3L7.8001 371.7V378.5C7.8001 378.5 7.9001 381.9 6.5001 382.7C5.1001 383.5 5.1001 383.5 5.1001 383.5L14.7001 389.1C14.7001 389.1 14.7001 389.1 16.1001 388.3C17.5001 387.5 17.4001 384.1 17.4001 384.1Z" fill="white"/>
<path d="M13.4003 387.3L3.30029 381.4L5.10029 380.4C6.20029 379.8 6.30029 377.3 6.30029 376.4V369.2L16.4003 375.1V382C16.4003 382.2 16.5003 385.6 15.0003 386.4L13.4003 387.3ZM4.40029 381.4L13.5003 386.7L14.8003 386C15.9003 385.4 16.0003 382.9 16.0003 382V375.4L6.90029 370.1V376.4C6.90029 376.5 7.00029 380 5.50029 380.8L4.40029 381.4Z" fill="#15110E"/>
<path d="M8.6002 377.6C8.5002 375.7 10.9002 376.7 11.5002 378.6C12.1002 377.4 14.5002 378.8 14.4002 380.9C14.3002 382.4 11.8002 383.5 11.5002 383.7C11.2002 383.2 8.7002 379.2 8.6002 377.6Z" fill="#AEC6F7"/>
<path d="M11.2001 382.3H11.1001L11.0001 382.1C10.5001 381.4 8.2001 377.6 8.1001 376C8.1001 375 8.7001 374.8 8.9001 374.7C9.7001 374.6 10.8001 375.3 11.3001 376.5C11.6001 376.3 11.9001 376.2 12.3001 376.3C13.3001 376.6 14.4001 377.8 14.3001 379.3C14.2001 380.8 11.9001 382 11.3001 382.3V382.4L11.2001 382.3ZM8.6001 376C8.6001 377.2 10.3001 380.1 11.3001 381.7C12.3001 381.2 13.8001 380.3 13.8001 379.3C13.8001 378 12.9001 377 12.2001 376.9C11.8001 376.8 11.6001 376.9 11.5001 377.2L11.2001 377.8L11.0001 377.2C10.6001 376 9.5001 375.3 9.0001 375.4C8.7001 375.3 8.6001 375.7 8.6001 376Z" fill="#15110E"/>
<path d="M67.1005 381.3L88.6005 368.8L68.1005 356.9L46.5005 369.4L67.1005 381.3Z" fill="white" stroke="#0A0A0A" stroke-miterlimit="10"/>
<path d="M88.6001 368.8V389.9L67.1001 402.4V381.3L88.6001 368.8Z" fill="#AEC6F7" stroke="#111111" stroke-miterlimit="10"/>
<path d="M68.0003 356.7L68.1003 356.6L88.8003 368.6V390L67.0003 402.6L46.4003 390.7L46.3003 390.6V369.2L68.0003 356.7ZM67.3003 402L88.4003 389.8V369.2L72.5003 378.4L67.3003 381.5V402ZM88.2003 368.8L68.1003 357.2L47.0003 369.4L67.1003 381L88.2003 368.8Z" fill="#15110E"/>
<path d="M56.6002 375.1L78.1002 362.6L77.8002 362.3L56.2002 374.9L56.6002 375.1Z" fill="#15110E"/>
<path d="M56.2002 396.2L56.7002 396.5V375.1L56.2002 374.8V396.2Z" fill="#AEC6F7"/>
<path d="M77.9002 396H78.3002V374.9H78.2002L57.4002 363.1L57.2002 363.5L77.9002 375.2V396Z" fill="#15110E"/>
<path d="M51.7003 365.2C52.2003 363.6 53.1003 362.5 54.4003 362.2C58.2003 361.2 64.3003 366 66.5003 367.8C66.2003 366.8 65.9003 365.1 66.2003 362.3C66.5003 359.2 69.2003 356.9 71.5003 356.5C73.3003 356.2 74.8003 356.9 75.6003 358.6C77.5003 362.6 69.2003 367.7 67.5003 368.7C68.0003 369.5 68.7003 369.4 69.5003 369.3C70.1003 369.2 70.8003 369.1 71.5003 369.5C72.9003 370.4 73.4003 372 73.4003 372.1L73.0003 372.2C73.0003 372.2 72.6003 370.6 71.3003 369.8C70.8003 369.5 70.2003 369.6 69.6003 369.6C68.8003 369.7 67.9003 369.8 67.2003 368.8H67.1003C66.9003 368.8 66.7003 368.9 66.3003 369C65.7003 369.2 65.1003 369.6 64.9003 370.5C64.7003 371.4 64.1003 372.2 63.3003 372.5C62.9003 372.7 62.5003 372.8 62.1003 372.8C61.6003 372.8 61.2003 372.7 60.7003 372.5L60.9003 372.1C61.6003 372.5 62.4003 372.5 63.1003 372.2C63.8003 371.9 64.3003 371.3 64.4003 370.5C64.5003 370 64.7003 369.6 65.0003 369.3C63.2003 369.7 60.4003 370.1 57.9003 370.1C55.5003 370.1 53.3003 369.7 52.2003 368.6C51.4003 367.8 51.2003 366.6 51.7003 365.2ZM75.2003 358.8C74.6003 357.6 73.6003 356.9 72.3003 356.9C72.1003 356.9 71.8003 356.9 71.6003 357C69.4003 357.4 67.0003 359.5 66.7003 362.4C66.3003 366.3 67.0003 368 67.2003 368.5C68.5003 367.6 77.0003 362.5 75.2003 358.8ZM52.5003 368.3C54.9003 370.8 63.4003 369.3 66.1003 368.7C66.3003 368.6 66.4003 368.6 66.6003 368.6C65.1003 367.2 58.4003 361.6 54.5003 362.7C53.3003 363 52.5003 363.9 52.1003 365.4C51.7003 366.6 51.8003 367.6 52.5003 368.3Z" fill="#15110E"/>
<path d="M76.4005 388.2V382.7L84.1005 378.2V383.7C84.1005 383.7 84.0005 386.4 85.2005 387.1C86.4005 387.8 86.4005 387.7 86.4005 387.7L78.7005 392.2C78.7005 392.2 78.7005 392.2 77.5005 391.6C76.3005 390.9 76.4005 388.2 76.4005 388.2Z" fill="#AEC6F7" stroke="#111111" stroke-miterlimit="10"/>
<path d="M75.4005 389.8V384.3L83.1005 379.8V385.3C83.1005 385.3 83.0005 388 84.2005 388.7C85.4005 389.3 85.4005 389.3 85.4005 389.3L77.7005 393.8C77.7005 393.8 77.7005 393.8 76.5005 393.2C75.3005 392.6 75.4005 389.8 75.4005 389.8Z" fill="white"/>
<path d="M78.6005 392.4L86.7005 387.7L85.2005 386.9C84.3005 386.4 84.2005 384.4 84.3005 383.7V377.9L76.2005 382.6V388.2C76.2005 388.4 76.1005 391.1 77.4005 391.8L78.6005 392.4ZM85.9005 387.7L78.6005 391.9L77.5005 391.3C76.6005 390.8 76.5005 388.8 76.6005 388.1V382.8L83.9005 378.6V383.7C83.9005 383.8 83.8005 386.6 85.1005 387.3L85.9005 387.7Z" fill="#15110E"/>
<path d="M82.5003 384.7C82.6003 383.2 80.7003 383.9 80.2003 385.5C79.7003 384.5 77.8003 385.7 77.9003 387.3C77.9003 388.5 80.0003 389.4 80.2003 389.5C80.4003 389.2 82.5003 385.9 82.5003 384.7Z" fill="#AEC6F7"/>
<path d="M80.4003 388.5H80.5003L80.6003 388.4C81.0003 387.8 82.9003 384.7 82.9003 383.5C82.9003 382.7 82.5003 382.5 82.3003 382.5C81.7003 382.4 80.8003 383 80.4003 383.9C80.2003 383.7 79.9003 383.7 79.6003 383.8C78.8003 384 77.9003 385 78.0003 386.2C78.0003 387.4 79.9003 388.4 80.4003 388.6V388.5ZM82.5003 383.4C82.5003 384.3 81.2003 386.7 80.3003 388C79.5003 387.6 78.3003 386.8 78.3003 386C78.3003 385 79.1003 384.2 79.6003 384C79.9003 383.9 80.1003 384 80.2003 384.2L80.4003 384.7L80.6003 384.2C80.9003 383.2 81.8003 382.6 82.2003 382.7C82.5003 382.8 82.5003 383.1 82.5003 383.4Z" fill="#15110E"/>
<path d="M38 393V402.7L56.6 413.4V403.7L38 393Z" fill="#AEC6F7" stroke="#111111" stroke-miterlimit="10"/>
<path d="M70.5 395.5L56.6 403.7L38 393L52 384.8L70.5 395.5Z" fill="#AEC6F7" stroke="#111111" stroke-miterlimit="10"/>
<path d="M70.5 398.9L56.6 407.1L38 396.3L52 388.2L70.5 398.9Z" fill="white"/>
<path d="M52.0001 384.4L37.6001 392.8V403L56.6001 414L71.0001 405.6V395.4L52.0001 384.4ZM56.2001 412.7L38.4001 402.4V393.6L56.2001 403.9V412.7ZM38.7001 393L51.9001 385.3L69.7001 395.6L56.5001 403.3L38.7001 393Z" fill="#15110E"/>
<path d="M56.6 413.4V418.7L39 408.5V403.3L56.6 413.4Z" fill="#AEC6F7" stroke="#111111" stroke-miterlimit="10"/>
<path d="M56.6001 413L38.6001 402.6V408.8L56.7001 419.2L69.2001 411.9V405.6L56.6001 413ZM39.4001 408.3V403.9L56.2001 413.6L56.3001 418L39.4001 408.3Z" fill="#15110E"/>
<path d="M56.3999 413.6V412.7L68.9999 405.3V406.2L56.3999 413.6Z" fill="#AEC6F7"/>
<path d="M61.8002 400.3L43.7002 389.9L44.1002 389.2L62.5002 399.8L61.8002 400.3Z" fill="#15110E"/>
<path d="M61.1999 416.5L60.3999 417L61.7999 409.6V400.3L62.4999 399.8V409.7L61.1999 416.5Z" fill="#AEC6F7"/>
<path d="M62.1003 393.6C61.9003 393.1 61.5003 392.5 60.4003 392.3C59.0003 392 57.6003 393.5 56.7003 394.7C56.7003 394.3 56.7003 394 56.7003 393.6C56.6003 392.5 55.0003 390.7 53.7003 390.6C53.3003 390.5 52.5003 390.6 52.1003 391.8C51.3003 394.1 54.6003 396 55.7003 396.6L55.6003 396.8L56.1003 396.9L56.5003 397.1V397C57.0003 397 57.8003 397.1 58.6003 397.1C59.8003 397.1 61.0003 397 61.4003 396.5C62.0003 395.6 62.4003 394.5 62.1003 393.6ZM52.8003 391.9C53.0003 391.3 53.3003 391.2 53.5003 391.2H53.6003C54.6003 391.3 55.9003 392.8 55.9003 393.5C56.0003 394.3 55.9003 395.1 55.8003 395.7C54.6003 395 52.3003 393.3 52.8003 391.9ZM60.9003 395.7C60.5003 396.1 58.6003 396.1 56.8003 396C57.5003 394.8 59.0003 392.8 60.3003 393C60.9003 393.1 61.3003 393.4 61.4003 393.8C61.6003 394.4 61.3003 395.3 60.9003 395.7Z" fill="#15110E"/>
<path d="M57.4003 399.4C57.1003 399.4 56.8003 399.3 56.4003 399.2C55.4003 398.7 55.7003 397.9 55.9003 397.4C56.0003 397.2 56.1003 396.9 56.0003 396.8C56.0003 396.7 55.8003 396.7 55.7003 396.6C55.0003 396.4 54.4003 396.4 53.9003 396.6C53.2003 397 53.0003 397.8 53.0003 397.8L52.3003 397.6C52.3003 397.6 52.6003 396.4 53.6003 395.9C54.3003 395.5 55.1003 395.5 56.0003 395.8C56.4003 395.9 56.7003 396.1 56.8003 396.4C57.0003 396.8 56.9003 397.2 56.7003 397.6C56.5003 398.2 56.5003 398.3 56.8003 398.4C57.9003 398.9 58.6003 398 58.7003 397.9L59.3003 398.4C58.9003 398.9 58.3003 399.4 57.4003 399.4Z" fill="#15110E"/>
<path d="M59.5996 384.1C59.5996 384.1 59.6996 386.5 57.0996 386.8C55.1996 387 53.8996 387.4 53.5996 387.5C53.4996 387.5 53.1996 387.3 53.1996 387.3L53.0996 386.1C53.0996 386.1 54.8996 385.3 54.9996 385.3C55.0996 385.3 56.4996 385.4 57.1996 385C57.7996 384.6 57.5996 384 57.3996 383.5C57.0996 383 57.5996 382.8 57.5996 382.8L59.3996 383.7L59.4996 383.8C59.3996 383.7 59.4996 383.9 59.5996 384.1Z" fill="#AEC6F7"/>
<path d="M53.5998 387.8C53.4998 387.8 53.3998 387.8 53.3998 387.7C53.2998 387.7 52.9998 387.5 52.8998 387.3V387.2L52.7998 385.7L52.9998 385.6C54.7998 384.8 54.8998 384.8 54.9998 384.8H55.0998C56.3998 384.9 56.8998 384.7 56.9998 384.6C57.2998 384.4 57.3998 384.2 57.0998 383.5C56.8998 383.2 56.9998 382.9 56.9998 382.8C57.0998 382.5 57.3998 382.4 57.3998 382.4L57.4998 382.3L59.4998 383.3L59.5998 383.4C59.7998 383.6 59.8998 383.8 59.8998 384C59.8998 384 59.9998 386.7 57.0998 387C55.1998 387.2 53.9998 387.6 53.6998 387.7L53.5998 387.8ZM53.4998 387C53.4998 387 53.5998 387 53.5998 387.1C53.9998 386.9 55.2998 386.6 57.0998 386.4C59.1998 386.2 59.2998 384.3 59.2998 384.1C59.2998 384 59.1998 383.9 59.0998 383.8L57.5998 383C57.5998 383 57.5998 383.1 57.5998 383.2C57.7998 383.5 58.2998 384.5 57.2998 385.1C56.8998 385.4 56.0998 385.5 54.9998 385.4C54.7998 385.5 54.0998 385.8 53.3998 386.1L53.4998 387Z" fill="#15110E"/>
<path d="M59.4998 383.8C58.5998 382.2 54.6998 385.6 54.0998 387.1C53.8998 387.4 53.3998 387.6 52.9998 387.4L52.2998 387.1C52.2998 387.1 52.7998 382.7 55.8998 382C58.2998 381.5 59.4998 383.8 59.4998 383.8Z" fill="white"/>
<path d="M53.4 387.8C53.2 387.8 53.1 387.8 52.9 387.7L52 387.3V387.1C52 386.9 52.5 382.5 55.8 381.8C58.3 381.2 59.6 383.6 59.7 383.8L59.1 384.1C59 384 58.9 383.8 58.6 383.8C57.3 383.9 54.8 386.2 54.3 387.3C54.2 387.6 53.8 387.8 53.4 387.8ZM52.7 386.9L53.1 387.1C53.4 387.2 53.7 387.1 53.7 387C54.2 385.7 56.8 383.3 58.4 383.1C57.9 382.6 57 382.1 55.9 382.4C53.5 382.9 52.8 386 52.7 386.9Z" fill="#15110E"/>
<path d="M46.0001 383.9C46.0001 383.9 45.9001 386.4 48.3001 386.7C50.1001 386.9 51.3001 387.3 51.6001 387.4C51.7001 387.4 52.0001 387.2 52.0001 387.1L52.1001 385.8C52.1001 385.8 50.6001 385.3 50.5001 385.3C50.4001 385.3 48.8001 385.1 48.3001 384.7C47.7001 384.3 47.9001 383.7 48.1001 383.1C48.4001 382.5 47.9001 382.3 47.9001 382.3L46.2001 383.2L46.1001 383.3C46.1001 383.5 46.0001 383.7 46.0001 383.9Z" fill="#AEC6F7"/>
<path d="M51.5999 387.8H51.4999C51.1999 387.7 50.0999 387.3 48.2999 387.1C46.0999 386.8 45.5999 384.9 45.6999 384C45.6999 383.8 45.7999 383.5 45.9999 383.3L46.1999 383.1L47.9999 382.1L48.0999 382.2C48.0999 382.2 48.3999 382.3 48.4999 382.6C48.5999 382.8 48.5999 383 48.4999 383.3C48.1999 384 48.2999 384.3 48.5999 384.5C49.0999 384.8 50.4999 385 50.6999 385C50.7999 385 50.7999 385 52.3999 385.6L52.5999 385.7L52.4999 387.3C52.3999 387.5 51.9999 387.7 51.9999 387.7C51.7999 387.7 51.6999 387.8 51.5999 387.8ZM46.2999 383.9C46.2999 384.1 46.2999 386.1 48.3999 386.3C50.0999 386.5 51.1999 386.8 51.6999 387C51.6999 387 51.7999 387 51.7999 386.9L51.8999 386C51.2999 385.8 50.6999 385.6 50.5999 385.6C50.5999 385.6 48.8999 385.4 48.1999 385C47.2999 384.4 47.7999 383.3 47.8999 383C47.8999 382.9 47.9999 382.8 47.8999 382.8L46.4999 383.6C46.3999 383.7 46.2999 383.8 46.2999 383.9Z" fill="#15110E"/>
<path d="M46.0996 383.6C46.9996 381.9 50.5996 385.5 51.1996 387C51.3996 387.4 51.7996 387.5 52.1996 387.3L52.7996 387C52.7996 387 52.3996 382.4 49.3996 381.7C47.1996 381.2 46.0996 383.6 46.0996 383.6Z" fill="white"/>
<path d="M51.7997 387.8C51.6997 387.8 51.5997 387.8 51.3997 387.7C51.0997 387.6 50.8997 387.4 50.7997 387.2C50.2997 386 47.9997 383.5 46.7997 383.5C46.5997 383.5 46.3997 383.6 46.2997 383.8L45.6997 383.5C46.0997 382.6 47.4997 380.9 49.3997 381.4C52.4997 382.2 52.9997 386.8 52.9997 387V387.2L52.1997 387.6C52.0997 387.7 51.9997 387.8 51.7997 387.8ZM46.9997 382.9C48.5997 383.1 50.9997 385.8 51.4997 387C51.4997 387.1 51.5997 387.1 51.6997 387.2C51.7997 387.2 51.8997 387.2 52.0997 387.2L52.4997 387C52.3997 386.1 51.6997 382.8 49.3997 382.2C48.1997 381.8 47.4997 382.3 46.9997 382.9Z" fill="#15110E"/>
<path d="M53.6998 387.2C53.6998 387.1 53.6998 387.1 53.6998 387C53.6998 386.8 53.4998 386.2 52.7998 386.2C52.0998 386.2 51.8998 386.7 51.7998 386.9C51.7998 387 51.7998 387.1 51.7998 387.1C51.8998 387.3 52.0998 387.5 52.3998 387.5H53.0998C53.3998 387.6 53.5998 387.4 53.6998 387.2Z" fill="#14100D"/>
<path d="M53.1 387.9H52.4C52 387.9 51.6 387.6 51.5 387.2C51.5 387 51.5 386.9 51.5 386.8C51.6 386.2 52.1 385.8 52.8 385.8C53.6 385.8 54 386.4 54 386.9C54 387 54 387.1 54 387.2C53.9 387.7 53.5 387.9 53.1 387.9ZM52.8 386.5C52.4 386.5 52.2 386.7 52.1 387V387.1C52.1 387.2 52.3 387.3 52.4 387.3H53.1C53.2 387.3 53.4 387.2 53.4 387.1C53.4 387.1 53.4 387.1 53.4 387C53.4 386.5 52.9 386.5 52.8 386.5Z" fill="#15110E"/>
<path d="M146.1 245.7C142.4 250 114 282.3 81.3 277.9C58.7 274.9 33.4 254.4 25.6 248.1C24.3 247 23.2 246.1 22.5 245.5" stroke="#111111" stroke-miterlimit="10"/>
<path d="M138.1 244.5L142.8 249L137.2 254.5L132.6 249.7L138.1 244.5Z" fill="#111111" stroke="#020202" stroke-miterlimit="10"/>
<path d="M132.3 249.8C135.503 249.8 138.1 247.203 138.1 244C138.1 240.796 135.503 238.2 132.3 238.2C129.097 238.2 126.5 240.796 126.5 244C126.5 247.203 129.097 249.8 132.3 249.8Z" fill="#FFB24D" stroke="#111111" stroke-miterlimit="10"/>
<path d="M126.6 270.9L123.2 265.3L130 261.5L133.3 267.3L126.6 270.9Z" fill="#111111" stroke="#020202" stroke-miterlimit="10"/>
<path d="M132 278.7C135.203 278.7 137.8 276.103 137.8 272.9C137.8 269.697 135.203 267.1 132 267.1C128.797 267.1 126.2 269.697 126.2 272.9C126.2 276.103 128.797 278.7 132 278.7Z" fill="#AEC6F7" stroke="#111111" stroke-miterlimit="10"/>
<path d="M110.4 265.8L112.7 271.9L105.2 274.4L103.2 268.1L110.4 265.8Z" fill="#111111" stroke="#020202" stroke-miterlimit="10"/>
<path d="M105.5 268.5C108.703 268.5 111.3 265.903 111.3 262.7C111.3 259.496 108.703 256.9 105.5 256.9C102.297 256.9 99.7002 259.496 99.7002 262.7C99.7002 265.903 102.297 268.5 105.5 268.5Z" fill="#F2F2F2" stroke="#111111" stroke-miterlimit="10"/>
<path d="M85.9998 285L85.2998 278.5L93.0998 277.9L93.5998 284.5L85.9998 285Z" fill="#111111" stroke="#020202" stroke-miterlimit="10"/>
<path d="M90.0998 294.9C93.3031 294.9 95.8998 292.303 95.8998 289.1C95.8998 285.896 93.3031 283.3 90.0998 283.3C86.8965 283.3 84.2998 285.896 84.2998 289.1C84.2998 292.303 86.8965 294.9 90.0998 294.9Z" fill="#C61109" stroke="#111111" stroke-miterlimit="10"/>
<path d="M72.9998 269L70.3998 275L63.2998 271.6L66.1998 265.7L72.9998 269Z" fill="#111111" stroke="#020202" stroke-miterlimit="10"/>
<path d="M71.4997 269.2C74.703 269.2 77.2997 266.603 77.2997 263.4C77.2997 260.196 74.703 257.6 71.4997 257.6C68.2965 257.6 65.6997 260.196 65.6997 263.4C65.6997 266.603 68.2965 269.2 71.4997 269.2Z" fill="#AEC6F7" stroke="#111111" stroke-miterlimit="10"/>
<path d="M47.8999 272.1L51.0999 266.5L57.7999 270.5L54.2999 276.2L47.8999 272.1Z" fill="#111111" stroke="#020202" stroke-miterlimit="10"/>
<path d="M48.6999 283.7C51.9032 283.7 54.4999 281.103 54.4999 277.9C54.4999 274.697 51.9032 272.1 48.6999 272.1C45.4966 272.1 42.8999 274.697 42.8999 277.9C42.8999 281.103 45.4966 283.7 48.6999 283.7Z" fill="#F2F2F2" stroke="#111111" stroke-miterlimit="10"/>
<path d="M42.2002 252.1L38.7002 257.6L32.2002 253.2L36.0002 247.7L42.2002 252.1Z" fill="#111111" stroke="#020202" stroke-miterlimit="10"/>
<path d="M41.7004 252.1C44.9036 252.1 47.5004 249.503 47.5004 246.3C47.5004 243.097 44.9036 240.5 41.7004 240.5C38.4971 240.5 35.9004 243.097 35.9004 246.3C35.9004 249.503 38.4971 252.1 41.7004 252.1Z" fill="#FFB24D" stroke="#111111" stroke-miterlimit="10"/>
<path d="M127.4 129.7C123.7 132.3 127.5 141.8 87.7002 141.5C46.3002 141.2 45.3002 127.9 42.2002 125.3" stroke="#111111" stroke-miterlimit="10"/>
<path d="M116.8 131.4L118.3 137.7L110.7 139.3L109.4 132.8L116.8 131.4Z" fill="#111111" stroke="#020202" stroke-miterlimit="10"/>
<path d="M112.3 133.6C115.503 133.6 118.1 131.003 118.1 127.8C118.1 124.597 115.503 122 112.3 122C109.097 122 106.5 124.597 106.5 127.8C106.5 131.003 109.097 133.6 112.3 133.6Z" fill="#F2F2F2" stroke="#111111" stroke-miterlimit="10"/>
<path d="M95.3 148L94.5 141.6L102.3 140.9L102.8 147.5L95.3 148Z" fill="#111111" stroke="#020202" stroke-miterlimit="10"/>
<path d="M99.3 157.9C102.503 157.9 105.1 155.303 105.1 152.1C105.1 148.897 102.503 146.3 99.3 146.3C96.0968 146.3 93.5 148.897 93.5 152.1C93.5 155.303 96.0968 157.9 99.3 157.9Z" fill="#C61109" stroke="#111111" stroke-miterlimit="10"/>
<path d="M83.3003 134.9L83.1003 141.4L75.3003 140.9L75.7003 134.3L83.3003 134.9Z" fill="#111111" stroke="#020202" stroke-miterlimit="10"/>
<path d="M79.9001 136C83.1034 136 85.7001 133.403 85.7001 130.2C85.7001 126.997 83.1034 124.4 79.9001 124.4C76.6968 124.4 74.1001 126.997 74.1001 130.2C74.1001 133.403 76.6968 136 79.9001 136Z" fill="#AEC6F7" stroke="#111111" stroke-miterlimit="10"/>
<path d="M53.6006 143.6L54.8006 137.2L62.5006 139L60.9006 145.4L53.6006 143.6Z" fill="#111111" stroke="#020202" stroke-miterlimit="10"/>
<path d="M56.2004 154.6C59.4036 154.6 62.0004 152.003 62.0004 148.8C62.0004 145.597 59.4036 143 56.2004 143C52.9971 143 50.4004 145.597 50.4004 148.8C50.4004 152.003 52.9971 154.6 56.2004 154.6Z" fill="#F2F2F2" stroke="#111111" stroke-miterlimit="10"/>
<path d="M53.7002 129.5L49.1002 134L43.7002 128.3L48.7002 123.8L53.7002 129.5Z" fill="#111111" stroke="#020202" stroke-miterlimit="10"/>
<path d="M54.5002 129.6C57.7034 129.6 60.3002 127.003 60.3002 123.8C60.3002 120.597 57.7034 118 54.5002 118C51.2969 118 48.7002 120.597 48.7002 123.8C48.7002 127.003 51.2969 129.6 54.5002 129.6Z" fill="#FFB24D" stroke="#111111" stroke-miterlimit="10"/>
</g>
<defs>
<clipPath id="clip0">
<rect width="161.7" height="419.6" fill="white"/>
</clipPath>
</defs>
</svg>
