<svg width="420" height="414" viewBox="0 0 420 414" fill="none" xmlns="http://www.w3.org/2000/svg">
<path d="M2.09961 252.7L173.4 172.5L418.1 312.7L244.8 385.3L2.09961 252.7Z" fill="white" stroke="#0A0A0A" stroke-miterlimit="10"/>
<path d="M244.8 412.8L2.09961 274.4V252.7L244.8 385.3V412.8Z" fill="#AEC6F7" stroke="#111111" stroke-miterlimit="10"/>
<path d="M244.8 385.3L418.1 312.7V336.4L244.8 412.8V385.3Z" fill="#111111"/>
<path d="M8.2998 251.8L10.1998 50.7002L18.8998 48.7002V257.2L8.2998 251.8Z" fill="#AEC6F7" stroke="#111111" stroke-miterlimit="10"/>
<path d="M18.8994 71.9001L32.9994 67.1001L32.1994 251.8L18.8994 257.2V71.9001Z" fill="#111111"/>
<path d="M257.199 358V171.2L269.099 176L267.699 364.1L257.199 358Z" fill="#AEC6F7" stroke="#111111" stroke-miterlimit="10"/>
<path d="M269.099 176L280.999 171.2V358L267.699 364.1L269.099 176Z" fill="#111111"/>
<path d="M269.1 153.5V176L375.9 133.6V109.9L269.1 153.5Z" fill="#111111"/>
<path d="M125.699 208.9V28.8999L136.299 35.7999V214.2L125.699 208.9Z" fill="#AEC6F7" stroke="#111111" stroke-miterlimit="10"/>
<path d="M136.3 35.8002L150.4 31.2002L149.6 208.9L136.3 214.2V35.8002Z" fill="#111111"/>
<path d="M351.199 314.6V134.6L361.799 138.2V319.8L351.199 314.6Z" fill="#AEC6F7" stroke="#111111" stroke-miterlimit="10"/>
<path d="M361.8 138.2L375.9 133.6L375.1 314.6L361.8 319.8V138.2Z" fill="#111111"/>
<path d="M269.099 153.5L158.499 53.7001L18.8994 48.7001L195.599 0.600098H292.299L405.199 102L269.099 153.5Z" fill="white" stroke="#0A0A0A" stroke-miterlimit="10"/>
<path d="M269.099 176V153.5L18.8994 48.7002V71.9002L269.099 176Z" fill="#AEC6F7" stroke="#111111" stroke-miterlimit="10"/>
<path d="M158.5 53.7001L292.3 0.600098L405.2 102L269.1 153.5L158.5 53.7001Z" fill="white" stroke="#0A0A0A" stroke-miterlimit="10"/>
<path d="M178.1 243.7L147.3 230.4V183.2L178.1 197.1V243.7Z" fill="#AEC6F7" stroke="#111111" stroke-miterlimit="10"/>
<path d="M147.3 183.2L169.8 174.2L197.7 187L178.1 197.1L147.3 183.2Z" fill="#AEC6F7" stroke="#111111" stroke-miterlimit="10"/>
<path d="M197.7 187V235.1L178.1 243.7V197.1L197.7 187Z" fill="#AEC6F7" stroke="#111111" stroke-miterlimit="10"/>
<path d="M164.331 231.673C168.307 230.015 169.894 224.746 167.876 219.903C165.857 215.061 160.998 212.478 157.022 214.136C153.046 215.793 151.459 221.062 153.477 225.905C155.495 230.747 160.355 233.33 164.331 231.673Z" fill="#050505" stroke="#111111" stroke-miterlimit="10"/>
<path d="M162.7 206.6C164.854 206.6 166.6 204.496 166.6 201.9C166.6 199.304 164.854 197.2 162.7 197.2C160.546 197.2 158.8 199.304 158.8 201.9C158.8 204.496 160.546 206.6 162.7 206.6Z" fill="#050505" stroke="#111111" stroke-miterlimit="10"/>
<path d="M321.599 312.5L290.699 299.2V252L321.599 265.9V312.5Z" fill="#AEC6F7" stroke="#111111" stroke-miterlimit="10"/>
<path d="M290.699 252L313.299 243L341.099 255.8L321.599 265.9L290.699 252Z" fill="#AEC6F7" stroke="#111111" stroke-miterlimit="10"/>
<path d="M341.1 255.8V303.9L321.6 312.5V265.9L341.1 255.8Z" fill="#AEC6F7" stroke="#111111" stroke-miterlimit="10"/>
<path d="M307.726 300.489C311.702 298.832 313.289 293.563 311.27 288.72C309.252 283.877 304.392 281.295 300.416 282.952C296.44 284.609 294.853 289.878 296.871 294.721C298.89 299.564 303.749 302.146 307.726 300.489Z" fill="#050505" stroke="#111111" stroke-miterlimit="10"/>
<path d="M306.099 275.4C308.253 275.4 309.999 273.296 309.999 270.7C309.999 268.104 308.253 266 306.099 266C303.945 266 302.199 268.104 302.199 270.7C302.199 273.296 303.945 275.4 306.099 275.4Z" fill="#050505" stroke="#111111" stroke-miterlimit="10"/>
<path d="M73.1997 194.9C77.0997 194.2 78.5997 198.2 78.5997 198.2C78.5997 198.2 82.5997 203.2 84.2997 205.3C84.6997 206.3 83.1997 207.6 83.1997 207.6C83.1997 207.6 82.1997 209.9 81.0997 209.1C79.5997 208.2 76.5997 205.3 76.5997 205.3L73.1997 199.7C73.2997 199.8 72.6997 195 73.1997 194.9Z" fill="#AEC6F7" stroke="#111111" stroke-width="0.5" stroke-miterlimit="10"/>
<path d="M65.4996 193C65.5996 194.7 64.5996 196.6 64.5996 196.6L67.3996 199.6L70.7996 200.8L72.9996 199.6L73.0996 197.7C73.0996 197.7 70.2996 193.7 70.1996 193.7C70.0996 193.7 66.6996 192.6 66.6996 192.6C66.6996 192.6 65.4996 191.8 65.4996 193Z" fill="#392518"/>
<path d="M66.5 217.9V222L72.5 222.4L77.7 219.2L79.7 218.5L79.4 214.1L74.6 212.8L66.8 216L66.5 217.9Z" fill="#111111"/>
<path d="M79.4001 257.9C79.9001 259.3 82.6001 260.9 83.7001 261.3C84.6001 261.6 84.4001 264.7 83.6001 264.8C82.2001 265.1 81.2001 264.4 79.9001 263.7C79.2001 263.3 77.5001 261.7 77.1001 261.5C76.7001 261.2 73.7001 261 73.2001 260C72.9001 259.4 73.7001 256.8 73.7001 256.8C73.7001 256.8 79.1001 257.2 79.4001 257.9Z" fill="#AEC6F7" stroke="#111111" stroke-width="0.5" stroke-miterlimit="10"/>
<path d="M72.1001 229C71.8001 230.1 75.8001 242.7 75.8001 242.7C75.8001 242.7 73.3001 247.4 73.2001 256.4C73.8001 258.6 77.6001 259.7 80.1001 257.9C79.8001 252.3 82.1001 245.5 82.0001 242.5C81.8001 238.5 82.2001 225.4 79.4001 217.7C78.7001 217.4 72.4001 227.9 72.1001 229Z" fill="#111111"/>
<path d="M63.7996 257.6C63.5996 259.5 65.2996 261.6 65.4996 262.6C65.6996 263.7 65.2996 264.4 64.7996 264.6C61.5996 265.6 60.5996 264 60.1996 263.4C59.8996 262.9 59.5996 261.1 59.2996 260.1C58.6996 259.7 58.5996 257.9 58.5996 257.9C58.5996 257 58.8996 255.8 58.8996 255.8C58.8996 255.8 64.0996 256.5 63.7996 257.6Z" fill="#AEC6F7" stroke="#111111" stroke-width="0.5" stroke-miterlimit="10"/>
<path d="M65.0996 221.4C65.0996 221.4 63.9996 223.2 63.7996 226.7C63.5996 230.3 62.8996 241.2 63.0996 242.1C59.3996 246.1 58.6996 253.9 58.5996 255.1C58.5996 260 64.5996 258.5 64.7996 256.9C65.2996 254.1 67.6996 247.1 68.9996 244.8C70.4996 242 73.0996 229.2 73.0996 229.2C73.0996 229.2 79.8996 225.2 79.2996 218C79.0996 217.3 73.5996 221.2 73.5996 221.2L65.0996 221.4Z" fill="#111111"/>
<path d="M64.4994 196.7C64.4994 196.7 68.5994 199.4 71.1994 199.2C71.5994 198.4 70.8994 196 70.8994 196L73.3994 196.7L73.8994 201.2L72.4994 202.5L65.8994 200.5L64.3994 197.7V196.7H64.4994Z" fill="#111111"/>
<path d="M71.2998 199.2L72.1998 198.1L73.2998 198.3L71.2998 199.2Z" fill="#111111"/>
<path d="M71.2996 199.2L71.0996 197.5L71.8996 197.1L72.1996 198.1L71.2996 199.2Z" fill="#111111"/>
<path d="M72.9997 201.5C72.9997 201.5 73.4997 198.2 71.6997 195.3C71.3997 195.3 73.1997 194.9 73.1997 194.9C73.1997 194.9 78.0997 198.6 78.8997 202.1C79.5997 205.5 80.3997 215.8 80.3997 215.8C80.3997 216.2 79.5997 216.5 79.5997 216.5L76.9997 214.7L73.5997 206.2L72.9997 201.5Z" fill="#AEC6F7" stroke="#111111" stroke-width="0.5" stroke-miterlimit="10"/>
<path d="M73.2998 198.3L72.1998 198.1L71.7998 197L72.5998 197.2L73.2998 198.3Z" fill="#111111"/>
<path d="M60 201.1C62.6 199 64.5 196.7 64.5 196.7C64.5 196.7 67.3 200.1 73 201.5C75.6 205 76.9 214.7 76.9 214.7L73.7 218.8C70.7 219.6 65.8 218.3 65.8 218.3C65.8 218.3 65.3 216.1 63.6 213.7C62.4 211.3 60 201.7 60 201.1Z" fill="#AEC6F7" stroke="#111111" stroke-width="0.5" stroke-miterlimit="10"/>
<path d="M65.0995 204.4C65.5995 206.8 64.5995 209 62.8995 209.4C61.1995 209.8 59.3995 208.1 58.8995 205.7C58.3995 203.3 59.3995 201.1 61.0995 200.7C62.8995 200.4 64.5995 202.1 65.0995 204.4Z" fill="#111111"/>
<path d="M75.8992 213.3C75.8992 213.6 75.7992 213.8 75.5992 213.8C75.3992 213.8 75.1992 213.6 75.1992 213.4C75.1992 213.1 75.2992 212.9 75.4992 212.9C75.6992 212.9 75.8992 213.1 75.8992 213.3Z" fill="white"/>
<path d="M75.2 211C75.2 211.3 75.1 211.5 74.9 211.5C74.7 211.5 74.5 211.3 74.5 211.1C74.5 210.8 74.6 210.6 74.8 210.6C75 210.6 75.2 210.8 75.2 211Z" fill="white"/>
<path d="M74.5994 208.7C74.5994 209 74.4994 209.2 74.2994 209.2C74.0994 209.2 73.8994 209 73.8994 208.8C73.8994 208.5 73.9994 208.3 74.1994 208.3C74.3994 208.3 74.5994 208.4 74.5994 208.7Z" fill="white"/>
<path d="M73.8992 206.4C73.8992 206.7 73.7992 206.9 73.5992 206.9C73.3992 206.9 73.1992 206.7 73.1992 206.5C73.1992 206.2 73.2992 206 73.4992 206C73.6992 205.9 73.7992 206.1 73.8992 206.4Z" fill="white"/>
<path d="M73.2 204C73.2 204.3 73.1 204.5 72.9 204.5C72.7 204.5 72.5 204.3 72.5 204.1C72.5 203.8 72.6 203.6 72.8 203.6C72.9 203.6 73.1 203.8 73.2 204Z" fill="white"/>
<path d="M73 201.5C76.4 206 76.9 214.7 76.9 214.7C76.9 214.7 75.6 206.4 73 201.5Z" fill="white"/>
<path d="M73.9994 188C74.4994 188.8 74.4994 190.4 74.4994 190.7C74.4994 191 74.1994 191.2 74.1994 191.2C74.1994 191.2 73.8994 196.6 73.3994 197.4C73.0994 197.9 72.5994 198.3 71.6994 198.2C70.3994 197.9 67.7994 196.2 67.1994 195.6C66.5994 195 66.5994 193.9 66.5994 193.9C66.5994 193.9 65.7994 193.9 65.3994 193C65.2994 192.8 64.8994 191.6 64.8994 191.6L65.0994 190.2L66.2994 187.7L69.2994 186.6H71.8994C72.0994 186.6 73.4994 187.1 73.9994 188Z" fill="#5B3A1B"/>
<path d="M65.8997 190.7C66.9997 190.7 67.1997 191.9 67.1997 191.9C67.3997 190.7 68.7997 190.3 69.4997 189.1C69.8997 189.3 72.0997 189.4 73.1997 188.8C74.4997 188.1 73.9997 187.2 73.9997 187.2C73.9997 187.2 70.5997 181.6 65.8997 185.7C63.8997 187.4 64.5997 191 64.7997 191.7C65.0997 192.5 65.3997 193.1 65.3997 193.1C65.3997 193.1 64.7997 190.7 65.8997 190.7Z" fill="#121214"/>
<path d="M73.7996 197.4L72.8996 196.1L72.5996 196.2L73.4996 197.6L73.7996 197.4Z" fill="#121214"/>
<path d="M73.5 197.4L72.6 196.2L72.5 196.3L73.3 197.7L73.5 197.4Z" fill="#333333"/>
<path d="M74.5996 198.4L73.9996 198.9L73.1996 197.9C73.0996 197.8 73.1996 197.7 73.2996 197.6C73.3996 197.5 73.5996 197.4 73.6996 197.4C73.6996 197.4 73.6996 197.4 73.7996 197.4L74.5996 198.4Z" fill="#121214"/>
<path d="M74.9 198.6L74.3 199.1L74.1 198.9C74 198.8 74.1 198.7 74.2 198.5C74.3 198.3 74.6 198.2 74.7 198.3H74.8L74.9 198.6Z" fill="#303033"/>
<path d="M74.2996 199.2C74.3996 199.2 74.6996 199.1 74.7996 199C74.8996 198.8 74.8996 198.6 74.7996 198.6C74.6996 198.6 74.3996 198.7 74.2996 198.8C74.1996 198.9 74.1996 199.1 74.2996 199.2Z" fill="#121214"/>
<path d="M80.8 216.4C80.8 216.4 81.4 217.1 81.5 217.7L82.6 225.3C82.7 226.2 82.2 226.7 81.5 226.4C80.7 226 79.9 225.5 79.8 224.6L79.7 223.8V204.9C79.7 204.4 79.4 203.7 79.1 203.2L74.8 198.7C74.8 198.7 74.7 198.6 74.5 198.8C74.3 199 74.5 199.2 74.5 199.2L77.6 203.7C77.9 204.2 78 204.7 78 205.2V225.1L78.1 226.1C78.3 228.8 80.1 229.9 82.2 230.4C85.2 231.1 87.4 228.5 87.1 225.9C87.1 225.9 86.8 219.9 87.7 217.6C87.9 216.9 88.4 216.2 88.4 216.2L80.8 216.4Z" fill="#F29F45"/>
<path d="M88.7004 214.8C88.4004 214.4 88.1004 213.9 87.5004 213.6C85.9004 212.7 83.2004 212.7 81.6004 213.6C81.0004 213.9 80.6004 214.4 80.5004 214.8H80.4004V215.3C80.4004 215.9 80.8004 216.5 81.6004 217C83.2004 217.9 85.9004 217.9 87.5004 217C88.3004 216.5 88.7004 215.9 88.7004 215.3V214.8Z" fill="#EF8934"/>
<path d="M87.5995 216.5C87.8995 215.9 87.5995 215.2 86.7995 214.8C85.5995 214.1 83.5995 214.1 82.2995 214.8C81.4995 215.3 81.1995 215.9 81.4995 216.5C79.9995 215.6 79.9995 214.1 81.5995 213.2C83.1995 212.3 85.8995 212.3 87.4995 213.2C89.0995 214.1 89.0995 215.6 87.5995 216.5Z" fill="#AE6423"/>
<path d="M77.9005 220.8L77.7005 221.2L77.0005 220.8C77.0005 220.8 76.9005 220.7 77.0005 220.6C77.0005 220.5 77.1005 220.4 77.2005 220.4L77.9005 220.8Z" fill="#AE6423"/>
<path d="M77.7006 221.1C77.8006 221.1 77.9006 221 77.9006 220.9C77.9006 220.8 77.9006 220.7 77.8006 220.7C77.7006 220.7 77.6006 220.8 77.6006 220.9C77.6006 221.1 77.7006 221.1 77.7006 221.1Z" fill="#8B521B"/>
<path d="M79.8002 221.5L79.2002 222.5L77.4002 221.4C77.3002 221.3 77.2002 221.1 77.3002 220.9C77.4002 220.6 77.6002 220.4 77.9002 220.4H78.0002L79.8002 221.5Z" fill="#EF8934"/>
<path d="M79.3006 222.5C79.5006 222.5 79.8006 222.3 79.8006 222C79.9006 221.7 79.8006 221.5 79.6006 221.5C79.4006 221.5 79.1006 221.7 79.1006 222C79.1006 222.3 79.1006 222.5 79.3006 222.5Z" fill="#AE6423"/>
<path d="M80.1 221.6L79.5 222.6L79.2 222.4C79.1 222.3 79 222.1 79.1 221.9C79.2 221.6 79.4 221.4 79.6 221.4H79.7L80.1 221.6Z" fill="#AE6423"/>
<path d="M79.5996 222.7C79.7996 222.7 80.0996 222.5 80.1996 222.2C80.2996 221.9 80.1996 221.7 79.9996 221.7C79.7996 221.7 79.4996 221.9 79.3996 222.2C79.2996 222.4 79.3996 222.7 79.5996 222.7Z" fill="#8B521B"/>
<path d="M76.2002 220L76.8002 221L76.9002 220.9C77.0002 220.8 77.1002 220.6 77.0002 220.4C76.9002 220.1 76.7002 219.9 76.5002 219.9H76.4002L76.2002 220Z" fill="#8B521B"/>
<path d="M76.7004 221C76.5004 221 76.3004 220.8 76.2004 220.5C76.1004 220.2 76.2004 220 76.4004 220C76.6004 220 76.8004 220.2 76.9004 220.5C77.0004 220.8 76.9004 221 76.7004 221Z" fill="#EF8934"/>
<path d="M77.9005 219L77.7005 219.4L77.0005 219C77.0005 219 76.9005 218.9 77.0005 218.8C77.0005 218.7 77.1005 218.6 77.2005 218.6L77.9005 219Z" fill="#AE6423"/>
<path d="M77.7006 219.4C77.8006 219.4 77.9006 219.3 77.9006 219.2C77.9006 219.1 77.9006 219 77.8006 219C77.7006 219 77.6006 219.1 77.6006 219.2C77.6006 219.3 77.7006 219.4 77.7006 219.4Z" fill="#8B521B"/>
<path d="M79.8002 219.7L79.2002 220.7L77.4002 219.6C77.3002 219.5 77.2002 219.3 77.3002 219.1C77.4002 218.8 77.6002 218.6 77.9002 218.6H78.0002L79.8002 219.7Z" fill="#EF8934"/>
<path d="M79.3006 220.8C79.5006 220.8 79.8006 220.6 79.8006 220.3C79.9006 220 79.8006 219.8 79.6006 219.8C79.4006 219.8 79.1006 220 79.1006 220.3C79.1006 220.5 79.1006 220.8 79.3006 220.8Z" fill="#AE6423"/>
<path d="M80.1 219.9L79.5 220.9L79.2 220.7C79.1 220.6 79 220.4 79.1 220.2C79.2 219.9 79.4 219.7 79.6 219.7H79.7L80.1 219.9Z" fill="#AE6423"/>
<path d="M79.5996 220.9C79.7996 220.9 80.0996 220.7 80.1996 220.4C80.2996 220.1 80.1996 219.9 79.9996 219.9C79.7996 219.9 79.4996 220.1 79.3996 220.4C79.2996 220.7 79.3996 220.9 79.5996 220.9Z" fill="#8B521B"/>
<path d="M76.2002 218.2L76.8002 219.2L76.9002 219.1C77.0002 219 77.1002 218.8 77.0002 218.6C76.9002 218.3 76.7002 218.1 76.5002 218.1H76.4002L76.2002 218.2Z" fill="#8B521B"/>
<path d="M76.7004 219.3C76.5004 219.3 76.3004 219.1 76.2004 218.8C76.1004 218.5 76.2004 218.3 76.4004 218.3C76.6004 218.3 76.8004 218.5 76.9004 218.8C77.0004 219 76.9004 219.3 76.7004 219.3Z" fill="#EF8934"/>
<path d="M77.9005 217.3L77.7005 217.7L77.0005 217.3C77.0005 217.3 76.9005 217.2 77.0005 217.1C77.0005 217 77.1005 216.9 77.2005 216.9L77.9005 217.3Z" fill="#AE6423"/>
<path d="M77.7006 217.7C77.8006 217.7 77.9006 217.6 77.9006 217.5C77.9006 217.4 77.9006 217.3 77.8006 217.3C77.7006 217.3 77.6006 217.4 77.6006 217.5C77.6006 217.6 77.7006 217.7 77.7006 217.7Z" fill="#8B521B"/>
<path d="M79.8002 218L79.2002 219L77.4002 217.9C77.3002 217.8 77.2002 217.6 77.3002 217.4C77.4002 217.1 77.6002 216.9 77.9002 216.9H78.0002L79.8002 218Z" fill="#EF8934"/>
<path d="M79.3006 219C79.5006 219 79.8006 218.8 79.8006 218.5C79.9006 218.2 79.8006 218 79.6006 218C79.4006 218 79.1006 218.2 79.1006 218.5C79.1006 218.8 79.1006 219 79.3006 219Z" fill="#AE6423"/>
<path d="M80.1 218.2L79.5 219.2L79.2 219C79.1 218.9 79 218.7 79.1 218.5C79.2 218.2 79.4 218 79.6 218H79.7L80.1 218.2Z" fill="#AE6423"/>
<path d="M79.5996 219.2C79.7996 219.2 80.0996 219 80.1996 218.7C80.2996 218.4 80.1996 218.2 79.9996 218.2C79.7996 218.2 79.4996 218.4 79.3996 218.7C79.2996 219 79.3996 219.2 79.5996 219.2Z" fill="#8B521B"/>
<path d="M76.2002 216.5L76.8002 217.5L76.9002 217.4C77.0002 217.3 77.1002 217.1 77.0002 216.9C76.9002 216.6 76.7002 216.4 76.5002 216.4H76.4002L76.2002 216.5Z" fill="#8B521B"/>
<path d="M76.7004 217.6C76.5004 217.6 76.3004 217.4 76.2004 217.1C76.1004 216.8 76.2004 216.6 76.4004 216.6C76.6004 216.6 76.8004 216.8 76.9004 217.1C77.0004 217.3 76.9004 217.6 76.7004 217.6Z" fill="#EF8934"/>
<path d="M77.9005 215.6L77.7005 216L77.0005 215.6C77.0005 215.6 76.9005 215.5 77.0005 215.4C77.0005 215.3 77.1005 215.2 77.2005 215.2L77.9005 215.6Z" fill="#AE6423"/>
<path d="M77.7006 216C77.8006 216 77.9006 215.9 77.9006 215.8C77.9006 215.7 77.9006 215.6 77.8006 215.6C77.7006 215.6 77.6006 215.7 77.6006 215.8C77.6006 215.9 77.7006 216 77.7006 216Z" fill="#8B521B"/>
<path d="M79.8002 216.3L79.2002 217.3L77.4002 216.2C77.3002 216.1 77.2002 215.9 77.3002 215.7C77.4002 215.4 77.6002 215.2 77.9002 215.2H78.0002L79.8002 216.3Z" fill="#EF8934"/>
<path d="M79.3006 217.3C79.5006 217.3 79.8006 217.1 79.8006 216.8C79.9006 216.5 79.8006 216.3 79.6006 216.3C79.4006 216.3 79.1006 216.5 79.1006 216.8C79.1006 217.1 79.1006 217.3 79.3006 217.3Z" fill="#AE6423"/>
<path d="M80.1 216.4L79.5 217.4L79.2 217.2C79.1 217.1 79 216.9 79.1 216.7C79.2 216.4 79.4 216.2 79.6 216.2H79.7L80.1 216.4Z" fill="#AE6423"/>
<path d="M79.5996 217.5C79.7996 217.5 80.0996 217.3 80.1996 217C80.2996 216.7 80.1996 216.5 79.9996 216.5C79.7996 216.5 79.4996 216.7 79.3996 217C79.2996 217.2 79.3996 217.5 79.5996 217.5Z" fill="#8B521B"/>
<path d="M76.2002 214.8L76.8002 215.8L76.9002 215.7C77.0002 215.6 77.1002 215.4 77.0002 215.2C76.9002 214.9 76.7002 214.7 76.5002 214.7H76.4002L76.2002 214.8Z" fill="#8B521B"/>
<path d="M76.7004 215.8C76.5004 215.8 76.3004 215.6 76.2004 215.3C76.1004 215 76.2004 214.8 76.4004 214.8C76.6004 214.8 76.8004 215 76.9004 215.3C77.0004 215.6 76.9004 215.8 76.7004 215.8Z" fill="#EF8934"/>
<path d="M77.9005 213.9L77.7005 214.3L77.0005 213.9C77.0005 213.9 76.9005 213.8 77.0005 213.7C77.0005 213.6 77.1005 213.5 77.2005 213.5L77.9005 213.9Z" fill="#AE6423"/>
<path d="M77.7006 214.2C77.8006 214.2 77.9006 214.1 77.9006 214C77.9006 213.9 77.9006 213.8 77.8006 213.8C77.7006 213.8 77.6006 213.9 77.6006 214C77.6006 214.2 77.7006 214.2 77.7006 214.2Z" fill="#8B521B"/>
<path d="M79.8002 214.6L79.2002 215.6L77.4002 214.5C77.3002 214.4 77.2002 214.2 77.3002 214C77.4002 213.7 77.6002 213.5 77.9002 213.5H78.0002L79.8002 214.6Z" fill="#EF8934"/>
<path d="M79.3006 215.6C79.5006 215.6 79.8006 215.4 79.8006 215.1C79.9006 214.8 79.8006 214.6 79.6006 214.6C79.4006 214.6 79.1006 214.8 79.1006 215.1C79.1006 215.4 79.1006 215.6 79.3006 215.6Z" fill="#AE6423"/>
<path d="M80.1 214.7L79.5 215.7L79.2 215.5C79.1 215.4 79 215.2 79.1 215C79.2 214.7 79.4 214.5 79.6 214.5H79.7L80.1 214.7Z" fill="#AE6423"/>
<path d="M79.5996 215.8C79.7996 215.8 80.0996 215.6 80.1996 215.3C80.2996 215 80.1996 214.8 79.9996 214.8C79.7996 214.8 79.4996 215 79.3996 215.3C79.2996 215.5 79.3996 215.8 79.5996 215.8Z" fill="#8B521B"/>
<path d="M76.2002 213.1L76.8002 214.1L76.9002 214C77.0002 213.9 77.1002 213.7 77.0002 213.5C76.9002 213.2 76.7002 213 76.5002 213H76.4002L76.2002 213.1Z" fill="#8B521B"/>
<path d="M76.7004 214.1C76.5004 214.1 76.3004 213.9 76.2004 213.6C76.1004 213.3 76.2004 213.1 76.4004 213.1C76.6004 213.1 76.8004 213.3 76.9004 213.6C77.0004 213.9 76.9004 214.1 76.7004 214.1Z" fill="#EF8934"/>
<path d="M77.9005 212.1L77.7005 212.5L77.0005 212.1C77.0005 212.1 76.9005 212 77.0005 211.9C77.0005 211.8 77.1005 211.7 77.2005 211.7L77.9005 212.1Z" fill="#AE6423"/>
<path d="M77.7006 212.5C77.8006 212.5 77.9006 212.4 77.9006 212.3C77.9006 212.2 77.9006 212.1 77.8006 212.1C77.7006 212.1 77.6006 212.2 77.6006 212.3C77.6006 212.4 77.7006 212.5 77.7006 212.5Z" fill="#8B521B"/>
<path d="M79.8002 212.8L79.2002 213.8L77.4002 212.7C77.3002 212.6 77.2002 212.4 77.3002 212.2C77.4002 211.9 77.6002 211.7 77.9002 211.7H78.0002L79.8002 212.8Z" fill="#EF8934"/>
<path d="M79.3006 213.9C79.5006 213.9 79.8006 213.7 79.8006 213.4C79.9006 213.1 79.8006 212.9 79.6006 212.9C79.4006 212.9 79.1006 213.1 79.1006 213.4C79.1006 213.6 79.1006 213.9 79.3006 213.9Z" fill="#AE6423"/>
<path d="M80.1 213L79.5 214L79.2 213.8C79.1 213.7 79 213.5 79.1 213.3C79.2 213 79.4 212.8 79.6 212.8H79.7L80.1 213Z" fill="#AE6423"/>
<path d="M79.5996 214C79.7996 214 80.0996 213.8 80.1996 213.5C80.2996 213.2 80.1996 213 79.9996 213C79.7996 213 79.4996 213.2 79.3996 213.5C79.2996 213.8 79.3996 214 79.5996 214Z" fill="#8B521B"/>
<path d="M76.2002 211.3L76.8002 212.3L76.9002 212.2C77.0002 212.1 77.1002 211.9 77.0002 211.7C76.9002 211.4 76.7002 211.2 76.5002 211.2H76.4002L76.2002 211.3Z" fill="#8B521B"/>
<path d="M76.7004 212.4C76.5004 212.4 76.3004 212.2 76.2004 211.9C76.1004 211.6 76.2004 211.4 76.4004 211.4C76.6004 211.4 76.8004 211.6 76.9004 211.9C77.0004 212.1 76.9004 212.4 76.7004 212.4Z" fill="#EF8934"/>
<path d="M77.9005 210.4L77.7005 210.8L77.0005 210.4C77.0005 210.4 76.9005 210.3 77.0005 210.2C77.0005 210.1 77.1005 210 77.2005 210L77.9005 210.4Z" fill="#AE6423"/>
<path d="M77.7006 210.8C77.8006 210.8 77.9006 210.7 77.9006 210.6C77.9006 210.5 77.9006 210.4 77.8006 210.4C77.7006 210.4 77.6006 210.5 77.6006 210.6C77.6006 210.7 77.7006 210.8 77.7006 210.8Z" fill="#8B521B"/>
<path d="M79.8002 211.1L79.2002 212.1L77.4002 211C77.3002 210.9 77.2002 210.7 77.3002 210.5C77.4002 210.2 77.6002 210 77.9002 210H78.0002L79.8002 211.1Z" fill="#EF8934"/>
<path d="M79.3006 212.1C79.5006 212.1 79.8006 211.9 79.8006 211.6C79.9006 211.3 79.8006 211.1 79.6006 211.1C79.4006 211.1 79.1006 211.3 79.1006 211.6C79.1006 211.9 79.1006 212.1 79.3006 212.1Z" fill="#AE6423"/>
<path d="M80.1 211.3L79.5 212.3L79.2 212.1C79.1 212 79 211.8 79.1 211.6C79.2 211.3 79.4 211.1 79.6 211.1H79.7L80.1 211.3Z" fill="#AE6423"/>
<path d="M79.5996 212.3C79.7996 212.3 80.0996 212.1 80.1996 211.8C80.2996 211.5 80.1996 211.3 79.9996 211.3C79.7996 211.3 79.4996 211.5 79.3996 211.8C79.2996 212.1 79.3996 212.3 79.5996 212.3Z" fill="#8B521B"/>
<path d="M76.2002 209.6L76.8002 210.6L76.9002 210.5C77.0002 210.4 77.1002 210.2 77.0002 210C76.9002 209.7 76.7002 209.5 76.5002 209.5H76.4002L76.2002 209.6Z" fill="#8B521B"/>
<path d="M76.7004 210.7C76.5004 210.7 76.3004 210.5 76.2004 210.2C76.1004 209.9 76.2004 209.7 76.4004 209.7C76.6004 209.7 76.8004 209.9 76.9004 210.2C77.0004 210.4 76.9004 210.7 76.7004 210.7Z" fill="#EF8934"/>
<path d="M67.6992 217.8C67.6992 217.8 70.9992 219.2 73.8992 219.7C74.0992 219.4 74.4992 218.7 75.6992 217.8C76.3992 217.2 76.7992 215.3 77.3992 215.5C77.9992 215.7 77.1992 217.8 77.1992 217.8L79.0992 218.6C79.0992 218.6 79.9992 216.8 80.5992 217C81.1992 217.1 81.1992 218.5 81.1992 219.5C81.0992 221.1 79.7992 221.8 78.8992 222.2C77.9992 222.6 74.0992 222.9 74.0992 222.9C72.3992 222.5 66.8992 222.4 66.8992 222.4L65.2992 221.4L65.1992 219.2L65.9992 218.4L67.6992 217.8Z" fill="#5B3A1B"/>
<path d="M61.4997 200.8C57.7997 200.6 57.8997 206.4 57.8997 206.4C57.8997 206.4 58.2997 218.1 58.6997 219.5C59.6997 222.7 66.8997 222.4 66.8997 222.4C66.8997 222.4 65.5997 220 67.6997 217.8C65.9997 217.1 64.0997 216.8 64.0997 216.8L64.5997 206.8C64.4997 206.8 65.1997 201 61.4997 200.8Z" fill="#AEC6F7" stroke="#111111" stroke-width="0.5" stroke-miterlimit="10"/>
<path d="M67.0994 217.3C65.0994 218.7 65.2994 222 66.0994 222.7C67.4994 223.1 68.0994 222.8 68.6994 222.5C68.0994 221.8 68.0994 219.1 69.2994 218.4C69.5994 218.6 68.5994 217.2 67.0994 217.3Z" fill="#111111"/>
<path d="M81.8994 209.8C81.8994 209.8 83.3994 212.6 85.6994 210.7C87.9994 208.9 85.3994 206.6 85.3994 206.6L81.8994 209.8Z" fill="#111111"/>
<path d="M82.8996 205.2C82.8996 205.2 83.7996 204.9 84.7996 205.6C85.5996 206.1 86.6996 207.6 84.6996 209.3C82.9996 210.7 81.1996 210.2 80.7996 208.9C80.3996 207.7 80.9996 207.2 80.9996 207.2L82.8996 205.2Z" fill="#111111"/>
<path d="M78.8993 203.4C78.8993 203.4 76.0993 204.8 75.6993 206.4C75.4993 207.4 77.6993 209 78.7993 208.6C79.8993 208.2 80.6993 207.1 80.6993 207.1C80.6993 207.1 80.8993 207.9 81.0993 208.5C82.2993 210.5 86.1993 207.2 83.4993 205.7C82.3993 205 80.9993 204 80.5993 203.4C79.9993 202.5 78.1993 202.5 78.1993 202.5C78.1993 202.5 79.0993 203.2 78.8993 203.4Z" fill="#5B3A1B"/>
<path d="M70.4 198.9L71.3 199.2L69.7 199.3L69.5 198.9H70.4Z" fill="#9D293D"/>
<path d="M71.3 199.2L69.5 200.7L70.4 198.9L71.3 199.2Z" fill="#111111"/>
<path d="M69.4998 200.7L70.3998 198.9L64.6998 195.4L63.7998 196.9L69.4998 200.7Z" fill="#111111"/>
<path d="M146.9 246.8C147.9 246.6 148.8 246.4 149.3 246.2C150.4 245.7 151.3 233.1 151.3 233.1L149.8 229.7C149.8 229.7 147.6 230.1 147.2 233.1C146.9 235.8 147 241.5 147 241.5C147 241.5 146.5 241.6 145.5 242L146.9 246.8Z" fill="#AEC6F7" stroke="#111111" stroke-width="0.5" stroke-miterlimit="10"/>
<path d="M145.6 242C145.6 242 142.2 243.9 139.5 244.5C138.7 245.2 141.2 246.7 142.2 246.9C143.1 246.8 145.4 246.8 146.9 246.8C146.9 246.8 148.2 243.7 145.6 242Z" fill="#E9C6B6"/>
<path d="M152.5 272.601L153.8 273.401L155.1 272.601V233.101H152.5V272.601Z" fill="#AE6423"/>
<path d="M152.5 272.601L153.8 273.401V233.801L152.5 233.101V272.601Z" fill="#EF8934"/>
<path d="M152.5 233.1L153.8 233.8L155.1 233.1L153.8 232.4L152.5 233.1Z" fill="#F29F45"/>
<path d="M154.101 234.6V236.1L167.201 243.7L167.701 241.9L154.601 234.3L154.101 234.6Z" fill="#AE6423"/>
<path d="M154.101 234.6L167.201 242.2L167.701 241.9L154.601 234.3L154.101 234.6Z" fill="#EF8934"/>
<path d="M167.2 243.7L167.7 243.4V241.9L167.2 242.2V243.7Z" fill="#F29F45"/>
<path d="M154.101 237.4V238.8L167.201 246.4L167.701 244.6L154.601 237L154.101 237.4Z" fill="#111111"/>
<path d="M154.101 237.4L167.201 244.9L167.701 244.6L154.601 237L154.101 237.4Z" fill="#EF8934"/>
<path d="M167.2 246.401L167.7 246.101V244.601L167.2 244.901V246.401Z" fill="#F29F45"/>
<path d="M154.101 240.1V241.5L167.201 249.1L167.701 247.3L154.601 239.8L154.101 240.1Z" fill="#111111"/>
<path d="M154.101 240.1L167.201 247.6L167.701 247.3L154.601 239.8L154.101 240.1Z" fill="#AEC6F7" stroke="#111111" stroke-width="0.5" stroke-miterlimit="10"/>
<path d="M167.2 249.1L167.7 248.8V247.3L167.2 247.6V249.1Z" fill="#F29F45"/>
<path d="M154.101 242.8V244.3L167.201 251.8L167.701 250L154.601 242.5L154.101 242.8Z" fill="#AE6423"/>
<path d="M154.101 242.8L167.201 250.3L167.701 250L154.601 242.5L154.101 242.8Z" fill="#AEC6F7" stroke="#111111" stroke-width="0.5" stroke-miterlimit="10"/>
<path d="M167.2 251.8L167.7 251.5V250L167.2 250.3V251.8Z" fill="#F29F45"/>
<path d="M165.601 280.201L166.901 280.901L168.201 280.201V240.601H165.601V280.201Z" fill="#111111"/>
<path d="M165.601 280.201L166.901 280.901V241.401L165.601 240.601V280.201Z" fill="#AEC6F7" stroke="#111111" stroke-width="0.5" stroke-miterlimit="10"/>
<path d="M165.601 240.6L166.901 241.4L168.201 240.6L166.901 239.9L165.601 240.6Z" fill="#F29F45"/>
<path d="M140.2 279.8L141.5 280.5L142.7 279.8V264.7H140.2V279.8Z" fill="#111111"/>
<path d="M140.2 279.8L141.5 280.5V265.4L140.2 264.7V279.8Z" fill="#AEC6F7" stroke="#111111" stroke-width="0.5" stroke-miterlimit="10"/>
<path d="M140.2 264.7L141.5 265.4L142.7 264.7L141.5 263.9L140.2 264.7Z" fill="#F29F45"/>
<path d="M153.3 287.401L154.6 288.101L155.8 287.401V272.201H153.3V287.401Z" fill="#111111"/>
<path d="M153.3 287.401L154.6 288.101V273.001L153.3 272.201V287.401Z" fill="#AEC6F7" stroke="#111111" stroke-width="0.5" stroke-miterlimit="10"/>
<path d="M153.3 272.201L154.6 273L155.8 272.201L154.6 271.5L153.3 272.201Z" fill="#F29F45"/>
<path d="M140.2 264.701L154.6 273.001L166.9 265.801V263.801L140.2 262.601V264.701Z" fill="#111111"/>
<path d="M140.2 262.6L154.6 270.9L166.9 263.8L152.5 255.5L140.2 262.6Z" fill="#AEC6F7" stroke="#111111" stroke-width="0.5" stroke-miterlimit="10"/>
<path d="M143.5 263L154.9 269.5L164.6 263.9V262.3L143.5 261.3V263Z" fill="#234663"/>
<path d="M143.5 261.3L154.9 267.9L164.6 262.3L153.2 255.7L143.5 261.3Z" fill="#4476A6"/>
<path d="M137.5 284C137.4 284.8 133 287.4 132.8 288.1C132.6 288.8 132.8 290.4 133.1 290.6C135.2 291.2 137 289.8 137 289.8L140 287.4C140 287.4 143.6 286.5 144 285.9C144.4 285.3 143.8 283.1 143.8 283.1C143.8 283.1 137.6 283.2 137.5 284Z" fill="#121214"/>
<path d="M151.5 263.6C151.5 263.6 140.2 271.1 139.3 271.2C141.6 273.7 144.4 282.2 144.2 282.9C143.1 285.7 138.7 285.6 137 284.1C137.1 281.6 132.6 271.4 132.4 270.1C132.2 268.8 140 257.6 149.1 252.1C150.4 252.4 156.3 257.2 156.3 257.2L154.6 263.3L151.5 263.6Z" fill="#111111"/>
<path d="M147.9 289.2C147.5 290.9 146 292.7 145.6 293.7C145 295.3 145.7 296.3 145.7 296.3C145.7 296.3 148.8 298.3 151.3 295.3C152.1 294.2 152.6 290.4 152.6 290.4C152.6 290.4 148.1 288.3 147.9 289.2Z" fill="#121214"/>
<path d="M162.8 253.5C162.8 253.5 164.4 259.6 162.8 262C159 267.7 154.6 271.4 153.7 271.9C155.1 278 154.2 287.9 154.1 288.8C153.4 292.5 147.6 291.1 146.8 288.2C147.3 284.8 147.6 276.6 147.1 271.5C146.9 269 152.1 259.1 152.1 259.1C152.1 259.1 149.6 256.1 149.1 252C149.7 251 155.7 250.1 155.7 250.1L162.8 253.5Z" fill="#111111"/>
<path d="M158.2 228.1C158.1 228.8 159 230 159 230L159.7 231.5L158.9 234.5L155.9 237.1H152.9L151.8 235.3L151.4 232.5L154.4 228.7L157.3 228.1C157.3 228.1 158 227.4 158.2 228.1Z" fill="#C1A497"/>
<path d="M162.3 252L162.7 253.5C162.7 253.5 158.2 259.6 148.9 252C148.9 251.5 149 250.5 149 250.5L162.3 252Z" fill="#392518"/>
<path d="M165.8 243.6C161.7 250.2 162.8 252.2 162 252.4C158 257.5 149.6 251 149 250.6C148.5 250.1 147.3 240.9 147.3 237.1C147.4 234.3 150.8 230.4 150.8 230.4L152.3 231.6C152.3 231.6 151.8 235.7 153.1 236.1C154.4 236.4 158.5 232.2 158.9 231.6C159.3 231 158.8 230.1 158.8 230.1C158.8 230.1 162.8 233.8 165.2 235.4C165.7 236.2 165.4 242.4 165.8 243.6Z" fill="#AEC6F7" stroke="#111111" stroke-width="0.5" stroke-miterlimit="10"/>
<path d="M151.7 233.2C148.3 236.5 149.7 248.2 150.5 251.6C150.4 251.7 149.4 250.8 149.4 250.8C149.2 249.4 146.6 236.2 150.6 232.7C151.1 232.4 151.8 232.8 151.7 233.2Z" fill="white"/>
<path d="M163.4 233.8C155.1 237.9 155.9 253.8 155.9 253.8L154.5 253.5C154.5 253.5 153.9 237.1 162 232.7C162.6 232.7 162.7 233.3 163.4 233.8Z" fill="white"/>
<path d="M148.4 226C148 227.7 149 228.6 149 228.6C149 228.6 148.8 229.2 149 230.1C149.2 230.9 150.1 233.1 150.4 233.7C150.7 234.3 151.5 234.6 152.4 234.5C153.3 234.4 156.3 231.9 156.6 231.4C156.8 231 156.6 230.2 156.6 230.2C156.6 230.2 158 229.7 158.1 228.4C158.2 228.1 158.3 227.7 158.3 227.7L157.9 225.8L155.7 223.8L152.2 223.5L149.4 224.1C149.3 224.2 148.5 225.4 148.4 226Z" fill="#E9C6B6"/>
<path d="M158 228.4C158 228.4 158.1 226.8 157.3 226.7C156.5 226.6 155.9 228 155.7 228.3C155.2 227 154 227.6 153.1 226.4C152.8 226.7 152.1 227.9 149 227.3C149.7 226.7 149.5 226.2 149.5 226.2C149.5 226.2 147.8 226.7 147.3 226.2C148.2 225.4 148.9 219.4 154.6 220.3C159.6 221.8 158.4 227.3 158.3 227.8C158.4 228.3 158 228.4 158 228.4Z" fill="#111111"/>
<path d="M137 243.1C137 243.1 137.4 242.1 136.8 241.7C136.2 241.3 135.8 242.4 135.8 242.4L137 243.1Z" fill="#E9C6B6"/>
<path d="M127.3 237.101L127.9 236.801C128.2 236.701 128.5 236.701 128.9 237.001L132.9 240.101L132.8 243.301L128.8 241.001C128.2 240.701 127.7 240.001 127.6 239.201L127.4 238.001L127.6 237.301L127.3 237.101Z" fill="#704D2F"/>
<path d="M148.9 246.301L147.8 245.801L150.3 244.301C150.9 244.001 151.6 243.801 152.6 244.101C154.7 244.901 155.7 247.101 156.9 247.901C158.5 248.901 160.2 246.501 164.4 249.301C170.5 253.201 170.1 261.601 170 262.401C170 263.001 169.9 267.201 167.8 268.601L164.9 270.201L164.2 268.601L164.4 268.401C164.1 268.301 163.9 268.101 163.6 268.001C159.3 265.401 157.9 261.101 156.3 260.101C155.1 259.401 154 260.101 151.9 258.401C147.7 254.201 148.3 248.901 148.3 248.901C148.3 248.901 148.4 247.501 148.9 246.301Z" fill="#8B521B"/>
<path d="M153.9 261.3C152.7 260.6 151.6 261.4 149.5 259.7C145.3 255.5 145.9 250.5 145.9 250.5C145.9 250.5 145.6 244.8 149.8 245.9C151.9 246.7 152.8 249 154 249.7C155.6 250.7 157.3 248.2 161.6 250.9C167.7 254.8 167.1 263 167.1 263.7C167.1 264.5 167.2 273 161.1 269.2C156.9 266.7 155.5 262.3 153.9 261.3Z" fill="#E3D9B4"/>
<path d="M148.901 245.5C149.201 245.5 149.501 245.5 149.901 245.6C152.001 246.4 153.001 248.6 154.201 249.4C154.501 249.6 154.901 249.7 155.201 249.7C155.901 249.7 156.701 249.4 157.701 249.4C158.701 249.4 160.001 249.7 161.701 250.8C167.801 254.7 167.401 263.1 167.301 263.9C167.301 264.6 167.201 270.5 163.701 270.5C163.001 270.5 162.001 270.2 161.001 269.6C156.701 267 155.301 262.701 153.701 261.701C152.501 261.001 151.401 261.7 149.301 260C145.101 255.8 145.701 250.5 145.701 250.5C145.701 250.5 145.701 245.5 148.901 245.5Z" fill="#734314"/>
<path d="M128.399 242.4V242L128.599 241.9L128.499 241.4L128.699 241.3L128.899 241.4L128.999 242C129.199 242.1 129.399 242.4 129.399 242.7C129.399 242.9 129.399 243 129.299 243H128.999V242.9C128.799 242.8 128.599 242.6 128.599 242.3L128.399 242.4Z" fill="#929497"/>
<path d="M128.3 242.3C128.3 242 128.4 241.9 128.6 241.9L128.5 241.3L128.7 241.4L128.8 242C129 242.1 129.2 242.4 129.2 242.7C129.2 243 129.1 243.1 128.8 243C128.5 242.9 128.3 242.6 128.3 242.3Z" fill="#BBBDBF"/>
<path d="M150.6 253.3C150.7 251.6 151.9 251 153.4 251.9C154.9 252.8 156 255 155.9 256.7C155.8 258.4 154.6 259 153.1 258.1C151.6 257.1 150.5 255 150.6 253.3Z" fill="#704D2F"/>
<path d="M152.301 252.3V252.4L152.101 252.5L132.601 240.7L133.101 240.3L146.101 248.1L146.001 248.6L152.301 252.3Z" fill="#704D2F"/>
<path d="M152.1 252.4L152 256.2L132.5 243.4L132.6 240.7" fill="#5B3A1B"/>
<path d="M151.3 253.8C151.4 252.6 152.3 252.1 153.3 252.8C154.4 253.5 155.2 255 155.1 256.3C155 257.5 154.1 258 153.1 257.3C152 256.5 151.2 255 151.3 253.8Z" fill="#1F1F1F"/>
<path d="M128.7 236.2C128.7 236.2 128.8 236.2 128.7 236.2V236.1L128.8 236C128.9 235.9 129 236 129.2 236.1C129.4 236.3 129.6 236.6 129.5 236.9C129.5 237 129.4 237 129.4 237.1L129.3 237.2V237.1H129.2L129.1 237.6L128.9 237.7L129 237C128.8 236.7 128.7 236.4 128.7 236.2Z" fill="#929497"/>
<path d="M128.8 237C128.6 236.8 128.5 236.5 128.6 236.3C128.7 236.1 128.9 236 129.1 236.2C129.3 236.4 129.5 236.7 129.4 237C129.4 237.2 129.2 237.3 129 237.2L128.9 237.7L128.7 237.6L128.8 237Z" fill="#BBBDBF"/>
<path d="M130.2 237.401C130.2 237.301 130.2 237.301 130.2 237.401V237.301L130.3 237.201C130.4 237.101 130.5 237.201 130.7 237.301C130.9 237.501 131.1 237.801 131 238.101C131 238.201 130.9 238.201 130.9 238.301L130.8 238.401V238.301H130.7L130.6 238.801L130.4 238.901L130.5 238.201C130.3 237.901 130.2 237.601 130.2 237.401Z" fill="#929497"/>
<path d="M130.3 238.201C130.1 238.001 130 237.701 130.1 237.501C130.2 237.301 130.4 237.201 130.6 237.401C130.8 237.601 131 237.901 130.9 238.201C130.9 238.401 130.7 238.501 130.5 238.401L130.4 238.901L130.2 238.801L130.3 238.201Z" fill="#BBBDBF"/>
<path d="M131.601 238.401V238.301L131.701 238.201C131.801 238.101 131.901 238.201 132.101 238.301C132.301 238.501 132.501 238.801 132.401 239.101C132.401 239.201 132.301 239.201 132.301 239.301L132.201 239.401V239.301H132.101L132.001 239.801L131.801 239.901L131.901 239.201C131.601 238.901 131.501 238.701 131.601 238.401Z" fill="#929497"/>
<path d="M131.601 239.201C131.401 239.001 131.301 238.701 131.401 238.501C131.501 238.301 131.701 238.201 131.901 238.401C132.101 238.601 132.301 238.901 132.201 239.201C132.201 239.401 132.001 239.501 131.801 239.301L131.701 239.801L131.501 239.701L131.601 239.201Z" fill="#BBBDBF"/>
<path d="M129.899 243.1V242.7L130.099 242.6L129.999 242.1L130.199 242L130.399 242.1L130.499 242.7C130.699 242.8 130.899 243.1 130.899 243.4C130.899 243.6 130.899 243.7 130.799 243.7L130.599 243.8V243.7C130.399 243.6 130.199 243.4 130.199 243.1H129.899Z" fill="#929497"/>
<path d="M129.8 243C129.8 242.7 129.9 242.6 130.1 242.6L130 242L130.2 242.1L130.3 242.7C130.5 242.8 130.7 243.1 130.7 243.4C130.7 243.7 130.6 243.8 130.3 243.7C130 243.6 129.8 243.3 129.8 243Z" fill="#BBBDBF"/>
<path d="M131.3 243.8V243.4L131.5 243.3L131.4 242.8L131.6 242.7L131.8 242.8L131.9 243.4C132.1 243.5 132.3 243.8 132.3 244.1C132.3 244.3 132.3 244.4 132.2 244.4L132 244.5V244.4C131.8 244.3 131.6 244.1 131.6 243.8H131.3Z" fill="#929497"/>
<path d="M131.2 243.7C131.2 243.4 131.3 243.3 131.5 243.3L131.4 242.7L131.6 242.8L131.7 243.4C131.9 243.5 132.1 243.8 132.1 244.1C132.1 244.4 132 244.5 131.7 244.4C131.4 244.3 131.2 244 131.2 243.7Z" fill="#BBBDBF"/>
<path d="M131.4 240L128.1 237.7L127.5 238L127.8 238.9L131.4 241V240Z" fill="#392518"/>
<path d="M131.301 241.4L128.101 239.5L127.601 239.9L127.901 240.7L131.301 242.6V241.4Z" fill="#392518"/>
<path d="M126.9 239.501L126.7 238.301L127 237.401C127.2 236.801 127.7 236.801 128.3 237.201L132.3 240.301L132.2 243.101L128.2 241.201C127.5 241.001 127 240.301 126.9 239.501Z" fill="#5B3A1B"/>
<path d="M133.401 241.3L133.301 243.8L133.101 243.7L133.201 241.2L133.401 241.3Z" fill="#B9B9B9"/>
<path d="M136.801 243.4L136.701 246L136.601 245.9L136.701 243.4H136.801Z" fill="#B9B9B9"/>
<path d="M140.301 245.6L140.201 248.2L140.101 248.1L140.201 245.5L140.301 245.6Z" fill="#B9B9B9"/>
<path d="M143.801 247.8L143.701 250.3H143.601L143.701 247.7L143.801 247.8Z" fill="#B9B9B9"/>
<path d="M147.3 250L147.2 252.5L147 252.4L147.1 249.9L147.3 250Z" fill="#B9B9B9"/>
<path d="M150.7 252.201L150.6 254.701L150.5 254.601L150.6 252.101L150.7 252.201Z" fill="#B9B9B9"/>
<path d="M132.601 240.7L132.501 243.4L132.101 243.2L132.201 240.4L132.601 240.7Z" fill="#392518"/>
<path d="M132.6 240.701L133.1 240.301L132.8 240.101L132.2 240.401L132.6 240.701Z" fill="#392518"/>
<path d="M161.701 259.1V259.2L132.601 240.9V240.8L161.701 259.1Z" fill="white"/>
<path d="M161.701 259.6V259.7L132.601 241.4V241.3L161.701 259.6Z" fill="white"/>
<path d="M161.7 260V260.1L132.5 241.9V241.8L161.7 260Z" fill="white"/>
<path d="M161.7 260.5V260.6L132.5 242.3V242.2L161.7 260.5Z" fill="white"/>
<path d="M161.7 260.9V261L132.5 242.8V242.7L161.7 260.9Z" fill="white"/>
<path d="M161.7 261.401V261.501L132.5 243.201V243.101L161.7 261.401Z" fill="white"/>
<path d="M161.9 258.4L161.8 263L161.4 262.7L161.6 258.2L161.9 258.4Z" fill="#704D2F"/>
<path d="M165.8 247.7C165.8 247.7 160.6 250.1 159.3 250.3C159.3 250.3 157.6 250 156.8 250.6C156 251.1 153.9 253.6 153.9 254.2C153.9 254.9 154.3 255.5 154.7 255.8C155.1 256.1 156.7 256.6 158.2 255.8C158.8 255.4 160.5 253 160.5 253C163 252.4 166.4 252.5 169.2 251.9C169.7 251.5 169.2 249.7 169.2 249.7L165.8 247.7Z" fill="#E9C6B6"/>
<path d="M162.2 235.9C165.6 233.1 168.6 238.8 168.6 238.8C168.6 238.8 175.1 246.5 175 248C174.5 250.6 169.2 252.1 169.2 252.1C169.2 252.1 165.6 251.7 165.8 247.8C166.4 247.5 167.6 246.8 167.6 246.8L162.2 241.6C162.2 241.5 159.1 238.4 162.2 235.9Z" fill="#AEC6F7" stroke="#111111" stroke-width="0.5" stroke-miterlimit="10"/>
<path d="M137.4 246.6C137.2 245.8 136.8 245.4 136.8 245.4C136.8 245.4 137.3 245.1 137.3 244.8C137.3 244.5 137.2 244.3 137 244.1C136.8 243.8 135.2 242.7 134.7 242.7C133.6 242.6 133.2 243.6 133.2 244.5C133.2 245.4 135.4 247 136.1 247.3C136.7 247.7 137.9 248.1 138.4 248.2C139 248.3 139.6 248 139.6 248L137.4 246.6Z" fill="#E9C6B6"/>
<path d="M19 48.7002C20.1 53.1002 28.2 82.3002 59 107.5C91 133.7 121.4 134.2 125.5 134.2" stroke="#111111" stroke-miterlimit="10"/>
<path d="M28.3994 55.2002L22.3994 57.6002L25.4994 64.8002L31.5994 62.1002L28.3994 55.2002Z" fill="#111111" stroke="#020202" stroke-miterlimit="10"/>
<path d="M33.9992 62.6C37.2025 62.6 39.7992 60.0033 39.7992 56.8C39.7992 53.5967 37.2025 51 33.9992 51C30.796 51 28.1992 53.5967 28.1992 56.8C28.1992 60.0033 30.796 62.6 33.9992 62.6Z" fill="#FFB24D" stroke="#111111" stroke-miterlimit="10"/>
<path d="M26.2994 81.0001L31.9994 77.9001L28.0994 71.1001L22.3994 74.5001L26.2994 81.0001Z" fill="#111111" stroke="#020202" stroke-miterlimit="10"/>
<path d="M20.5998 85.8002C23.8031 85.8002 26.3998 83.2035 26.3998 80.0002C26.3998 76.7969 23.8031 74.2002 20.5998 74.2002C17.3966 74.2002 14.7998 76.7969 14.7998 80.0002C14.7998 83.2035 17.3966 85.8002 20.5998 85.8002Z" fill="#AEC6F7" stroke="#111111" stroke-miterlimit="10"/>
<path d="M43.0994 81.1001L37.8994 85.0001L42.7994 91.2001L47.8994 87.0001L43.0994 81.1001Z" fill="#111111" stroke="#020202" stroke-miterlimit="10"/>
<path d="M48.8996 87.1C52.1029 87.1 54.6996 84.5033 54.6996 81.3C54.6996 78.0968 52.1029 75.5 48.8996 75.5C45.6964 75.5 43.0996 78.0968 43.0996 81.3C43.0996 84.5033 45.6964 87.1 48.8996 87.1Z" fill="#F2F2F2" stroke="#111111" stroke-miterlimit="10"/>
<path d="M49.0996 107.7L53.7996 103.2L48.1996 97.7002L43.5996 102.5L49.0996 107.7Z" fill="#111111" stroke="#020202" stroke-miterlimit="10"/>
<path d="M43.3 114.1C46.5033 114.1 49.1 111.503 49.1 108.3C49.1 105.097 46.5033 102.5 43.3 102.5C40.0967 102.5 37.5 105.097 37.5 108.3C37.5 111.503 40.0967 114.1 43.3 114.1Z" fill="#C61109" stroke="#111111" stroke-miterlimit="10"/>
<path d="M66.6002 105.3L62.7002 110.4L69.0002 115L72.8002 109.6L66.6002 105.3Z" fill="#111111" stroke="#020202" stroke-miterlimit="10"/>
<path d="M72.3 109.7C75.5033 109.7 78.1 107.103 78.1 103.9C78.1 100.697 75.5033 98.1001 72.3 98.1001C69.0968 98.1001 66.5 100.697 66.5 103.9C66.5 107.103 69.0968 109.7 72.3 109.7Z" fill="#AEC6F7" stroke="#111111" stroke-miterlimit="10"/>
<path d="M83.8996 130.9L87.0996 125.2L80.0996 121.7L77.0996 127.6L83.8996 130.9Z" fill="#111111" stroke="#020202" stroke-miterlimit="10"/>
<path d="M78.5998 139C81.8031 139 84.3998 136.404 84.3998 133.2C84.3998 129.997 81.8031 127.4 78.5998 127.4C75.3965 127.4 72.7998 129.997 72.7998 133.2C72.7998 136.404 75.3965 139 78.5998 139Z" fill="#F2F2F2" stroke="#111111" stroke-miterlimit="10"/>
<path d="M97.1996 122L95.0996 128.1L102.5 130.5L104.5 124.1L97.1996 122Z" fill="#111111" stroke="#020202" stroke-miterlimit="10"/>
<path d="M102.1 124.7C105.303 124.7 107.9 122.103 107.9 118.9C107.9 115.697 105.303 113.1 102.1 113.1C98.8965 113.1 96.2998 115.697 96.2998 118.9C96.2998 122.103 98.8965 124.7 102.1 124.7Z" fill="#FFB24D" stroke="#111111" stroke-miterlimit="10"/>
<path d="M125.5 134.1C128.9 137.1 151.8 157 191.4 160.9C232.6 165 258.2 148.5 261.5 146.2" stroke="#111111" stroke-miterlimit="10"/>
<path d="M136.9 134.3L133.3 139.7L139.9 143.9L143.4 138.3L136.9 134.3Z" fill="#111111" stroke="#020202" stroke-miterlimit="10"/>
<path d="M142.4 138.4C145.603 138.4 148.2 135.803 148.2 132.6C148.2 129.397 145.603 126.8 142.4 126.8C139.196 126.8 136.6 129.397 136.6 132.6C136.6 135.803 139.196 138.4 142.4 138.4Z" fill="#FFB24D" stroke="#111111" stroke-miterlimit="10"/>
<path d="M149.501 156.9L152.501 151.2L145.501 147.7L142.601 153.7L149.501 156.9Z" fill="#111111" stroke="#020202" stroke-miterlimit="10"/>
<path d="M144.2 165.1C147.404 165.1 150 162.503 150 159.3C150 156.096 147.404 153.5 144.2 153.5C140.997 153.5 138.4 156.096 138.4 159.3C138.4 162.503 140.997 165.1 144.2 165.1Z" fill="#AEC6F7" stroke="#111111" stroke-miterlimit="10"/>
<path d="M163.6 147.8L161.4 153.8L168.8 156.3L170.8 149.9L163.6 147.8Z" fill="#111111" stroke="#020202" stroke-miterlimit="10"/>
<path d="M168.5 150.4C171.703 150.4 174.3 147.803 174.3 144.6C174.3 141.397 171.703 138.8 168.5 138.8C165.297 138.8 162.7 141.397 162.7 144.6C162.7 147.803 165.297 150.4 168.5 150.4Z" fill="#F2F2F2" stroke="#111111" stroke-miterlimit="10"/>
<path d="M183.2 166.6L184.7 160.2L177 158.7L175.8 165.3L183.2 166.6Z" fill="#111111" stroke="#020202" stroke-miterlimit="10"/>
<path d="M178.8 176C182.003 176 184.6 173.403 184.6 170.2C184.6 166.997 182.003 164.4 178.8 164.4C175.597 164.4 173 166.997 173 170.2C173 173.403 175.597 176 178.8 176Z" fill="#C61109" stroke="#111111" stroke-miterlimit="10"/>
<path d="M196.5 154.8L196 161.3L203.9 161.6L204.1 155L196.5 154.8Z" fill="#111111" stroke="#020202" stroke-miterlimit="10"/>
<path d="M200.4 156.3C203.603 156.3 206.2 153.703 206.2 150.5C206.2 147.296 203.603 144.7 200.4 144.7C197.196 144.7 194.6 147.296 194.6 150.5C194.6 153.703 197.196 156.3 200.4 156.3Z" fill="#AEC6F7" stroke="#111111" stroke-miterlimit="10"/>
<path d="M225.1 166.5L224.6 160.1L216.8 161L217.7 167.6L225.1 166.5Z" fill="#111111" stroke="#020202" stroke-miterlimit="10"/>
<path d="M222 177.2C225.203 177.2 227.8 174.603 227.8 171.4C227.8 168.196 225.203 165.6 222 165.6C218.797 165.6 216.2 168.196 216.2 171.4C216.2 174.603 218.797 177.2 222 177.2Z" fill="#F2F2F2" stroke="#111111" stroke-miterlimit="10"/>
<path d="M231.2 151.7L232.8 158L240.4 155.9L238.5 149.5L231.2 151.7Z" fill="#111111" stroke="#020202" stroke-miterlimit="10"/>
<path d="M233.6 152.2C236.803 152.2 239.4 149.603 239.4 146.4C239.4 143.196 236.803 140.6 233.6 140.6C230.397 140.6 227.8 143.196 227.8 146.4C227.8 149.603 230.397 152.2 233.6 152.2Z" fill="#FFB24D" stroke="#111111" stroke-miterlimit="10"/>
<path d="M389 112.1C386.4 115.8 368.2 140.1 330.4 152.5C291.1 165.3 262.5 154.8 258.8 153.3" stroke="#111111" stroke-miterlimit="10"/>
<path d="M377.899 114.8L382.599 119.2L377.099 124.8L372.499 120L377.899 114.8Z" fill="#111111" stroke="#020202" stroke-miterlimit="10"/>
<path d="M372.199 120C375.403 120 377.999 117.403 377.999 114.2C377.999 110.997 375.403 108.4 372.199 108.4C368.996 108.4 366.399 110.997 366.399 114.2C366.399 117.403 368.996 120 372.199 120Z" fill="#FFB24D" stroke="#111111" stroke-miterlimit="10"/>
<path d="M370.5 139.6L366.3 134.6L372.4 129.7L376.5 134.9L370.5 139.6Z" fill="#111111" stroke="#020202" stroke-miterlimit="10"/>
<path d="M376.199 146.5C379.403 146.5 381.999 143.903 381.999 140.7C381.999 137.497 379.403 134.9 376.199 134.9C372.996 134.9 370.399 137.497 370.399 140.7C370.399 143.903 372.996 146.5 376.199 146.5Z" fill="#AEC6F7" stroke="#111111" stroke-miterlimit="10"/>
<path d="M354.8 133.6L358.2 139.1L351.5 143.1L348.2 137.3L354.8 133.6Z" fill="#111111" stroke="#020202" stroke-miterlimit="10"/>
<path d="M349.3 137.4C352.503 137.4 355.1 134.803 355.1 131.6C355.1 128.397 352.503 125.8 349.3 125.8C346.097 125.8 343.5 128.397 343.5 131.6C343.5 134.803 346.097 137.4 349.3 137.4Z" fill="#F2F2F2" stroke="#111111" stroke-miterlimit="10"/>
<path d="M339.599 156.2L336.899 150.4L344.099 147.2L346.599 153.4L339.599 156.2Z" fill="#111111" stroke="#020202" stroke-miterlimit="10"/>
<path d="M344.799 164.7C348.002 164.7 350.599 162.103 350.599 158.9C350.599 155.696 348.002 153.1 344.799 153.1C341.596 153.1 338.999 155.696 338.999 158.9C338.999 162.103 341.596 164.7 344.799 164.7Z" fill="#C61109" stroke="#111111" stroke-miterlimit="10"/>
<path d="M324.1 147.6L326 153.8L318.4 155.9L316.8 149.4L324.1 147.6Z" fill="#111111" stroke="#020202" stroke-miterlimit="10"/>
<path d="M319.4 150.1C322.603 150.1 325.2 147.503 325.2 144.3C325.2 141.097 322.603 138.5 319.4 138.5C316.196 138.5 313.6 141.097 313.6 144.3C313.6 147.503 316.196 150.1 319.4 150.1Z" fill="#AEC6F7" stroke="#111111" stroke-miterlimit="10"/>
<path d="M298.7 165.2L297.9 158.8L305.7 158L306.2 164.6L298.7 165.2Z" fill="#111111" stroke="#020202" stroke-miterlimit="10"/>
<path d="M302.8 175.1C306.003 175.1 308.6 172.503 308.6 169.3C308.6 166.097 306.003 163.5 302.8 163.5C299.597 163.5 297 166.097 297 169.3C297 172.503 299.597 175.1 302.8 175.1Z" fill="#F2F2F2" stroke="#111111" stroke-miterlimit="10"/>
<path d="M289.599 152.1L289.399 158.6L281.499 158.1L281.999 151.5L289.599 152.1Z" fill="#111111" stroke="#020202" stroke-miterlimit="10"/>
<path d="M286.199 153.2C289.403 153.2 291.999 150.603 291.999 147.4C291.999 144.197 289.403 141.6 286.199 141.6C282.996 141.6 280.399 144.197 280.399 147.4C280.399 150.603 282.996 153.2 286.199 153.2Z" fill="#FFB24D" stroke="#111111" stroke-miterlimit="10"/>
<path d="M250.5 4.7666C242.869 4.7666 236.625 10.7466 236.625 18.1066C236.625 21.0199 237.627 23.7799 239.4 26.0799L249.883 39.7266C250.115 40.0333 250.654 40.1099 250.962 39.8799C251.04 39.8033 251.04 39.8033 251.117 39.7266L261.6 26.0799C263.373 23.7799 264.375 21.0199 264.375 18.1066C264.375 10.7466 258.131 4.7666 250.5 4.7666ZM249.421 23.3199C246.492 22.7066 244.565 19.9466 245.181 17.0333C245.798 14.1199 248.573 12.2033 251.502 12.8166C253.66 13.2766 255.356 14.8866 255.742 17.0333C256.281 19.9466 254.354 22.7833 251.502 23.3199C250.808 23.4733 250.115 23.4733 249.421 23.3199Z" fill="#F3BC54"/>
<rect x="232" y="52" width="94" height="35" fill="#F3BC54"/>
<path d="M249.056 75.252C251.756 75.252 254.312 73.92 254.582 70.914L251.36 70.392L250.982 70.644C251.162 71.238 251.234 71.742 251.234 72.21C251.234 73.776 250.316 74.478 249.182 74.478C247.184 74.478 246.266 72.174 246.266 68.628C246.266 65.028 247.166 62.886 249.182 62.886C250.298 62.886 251.162 63.48 251.162 64.92C251.162 65.352 251.09 65.838 250.91 66.396L251.306 66.648L254.42 66.144C253.88 63.21 251.612 62.112 249.056 62.112C245.168 62.112 242.846 64.722 242.846 68.61C242.846 72.516 245.204 75.252 249.056 75.252ZM260.853 75.234C263.859 75.234 265.785 73.2 265.785 70.23C265.785 67.368 263.859 65.388 260.835 65.388C257.811 65.388 255.885 67.368 255.885 70.23C255.885 73.2 257.811 75.234 260.853 75.234ZM260.853 74.568C259.683 74.568 258.999 73.236 258.999 70.23C258.999 67.332 259.683 66.054 260.835 66.054C261.987 66.054 262.671 67.296 262.671 70.14C262.671 73.218 261.987 74.568 260.853 74.568ZM276.981 69.528C276.963 66.648 275.649 65.388 273.633 65.388C271.905 65.388 270.789 66.342 270.339 68.034L268.755 65.658H267.729C267.855 68.808 267.837 71.85 267.747 75C268.755 74.91 269.763 74.91 270.771 75C270.753 73.29 270.735 71.544 270.735 70.392C270.735 67.944 271.419 66.684 272.517 66.684C273.705 66.666 273.957 67.908 273.993 69.492C274.047 71.508 274.083 73.092 274.029 75C275.019 74.91 276.027 74.91 277.017 75C277.017 73.164 276.999 71.454 276.981 69.528ZM283.739 75.234C286.115 75.234 287.969 73.974 288.329 71.85L285.287 71.364L284.963 71.49C285.143 72.012 285.197 72.462 285.197 72.876C285.197 74.118 284.513 74.586 283.883 74.586C282.659 74.586 281.903 73.2 281.903 70.23C281.903 67.35 282.641 66.036 283.919 66.036C284.567 66.036 285.143 66.468 285.143 67.494C285.143 67.89 285.071 68.322 284.909 68.898L285.251 69.024L288.221 68.538C287.861 66.666 286.169 65.388 283.739 65.388C280.697 65.388 278.789 67.368 278.789 70.266C278.789 73.182 280.697 75.234 283.739 75.234ZM296.297 71.904L295.973 72.048C296.027 72.318 296.045 72.534 296.045 72.84C296.045 74.136 295.415 74.622 294.641 74.622C293.165 74.622 292.661 73.2 292.661 70.464V70.356H298.529L298.889 70.14C298.961 67.224 297.485 65.388 294.443 65.388C291.437 65.388 289.547 67.35 289.547 70.266C289.547 73.236 291.419 75.27 294.587 75.27C296.873 75.27 298.583 74.208 298.943 72.3L296.297 71.904ZM294.551 66.036C295.541 66.036 295.955 66.792 295.955 68.088C295.955 68.664 295.919 69.222 295.811 69.6H292.679C292.805 67.08 293.489 66.036 294.551 66.036ZM300.917 75C301.925 74.91 302.933 74.91 303.941 75C303.905 73.254 303.905 71.49 303.923 69.888C303.923 67.98 304.391 66.684 305.399 66.684C306.191 66.684 306.551 67.62 306.137 69.366L306.335 69.402L308.873 68.646C308.927 68.358 308.945 68.07 308.945 67.8C308.945 66.126 307.883 65.388 306.623 65.388C304.877 65.388 303.923 66.54 303.509 67.962L301.925 65.658H300.899C301.007 68.808 301.007 71.85 300.917 75ZM315.143 72.75C315.179 72.876 315.215 73.02 315.215 73.164C315.215 73.704 314.945 74.208 314.495 74.208C313.865 74.208 313.721 73.452 313.685 72.264C313.667 70.968 313.613 68.754 313.649 66.504L316.043 66.558C316.007 66.198 316.025 66.036 316.061 65.658L313.649 65.712C313.667 64.83 313.703 63.966 313.739 63.156C312.929 63.246 312.227 63.228 311.471 63.138L310.895 65.694C310.535 65.676 310.157 65.676 309.761 65.658C309.797 66.036 309.797 66.198 309.761 66.558C310.103 66.54 310.427 66.54 310.733 66.522C310.823 68.682 310.787 70.788 310.787 72.246C310.769 74.514 312.011 75.234 313.559 75.234C315.161 75.234 316.097 74.478 316.097 72.912C315.773 72.93 315.449 72.876 315.143 72.75Z" fill="black"/>
</svg>
