<svg width="371" height="353" viewBox="0 0 371 353" fill="none" xmlns="http://www.w3.org/2000/svg">
<path d="M244.7 199.9H244.6L132.8 199.4L124.6 204.1L236.4 204.7L106.1 279.9L110.8 282.6L15.9998 282.1L7.7998 286.9L119.2 287.5L175.1 319.7L135.2 342.7H200.9L208 338.6L223.9 347.8L128.7 347.3L120.4 352L232.3 352.6L370.9 272.6L244.7 199.9Z" fill="#BABCBE"/>
<path d="M96.8994 297.1C95.2994 298 91.4994 298.5 87.1994 295.2C83.8994 292.6 83.3994 291.6 83.3994 289.8C83.3994 286.3 89.3994 285.8 91.3994 289.5C93.2994 292.9 99.9994 295.3 96.8994 297.1Z" fill="white"/>
<path d="M86.7998 295.7C83.3998 293 82.7998 291.8 82.7998 289.8C82.7998 288.2 83.8998 286.9 85.6998 286.5C87.8998 286 90.6998 286.7 92.0998 289.2C92.7998 290.4 94.2998 291.6 95.5998 292.6C97.1998 293.9 98.4998 294.9 98.4998 296.1C98.4998 296.7 98.0998 297.2 97.3998 297.6C96.6998 298 95.4998 298.4 93.9998 298.4C91.8998 298.4 89.3998 297.7 86.7998 295.7ZM96.5998 296.5C96.8998 296.3 97.0998 296.2 97.0998 296C97.0998 295.5 95.7998 294.4 94.6998 293.6C93.2998 292.5 91.6998 291.2 90.8998 289.8C89.8998 287.9 87.5998 287.3 85.9998 287.7C85.3998 287.8 84.0998 288.3 84.0998 289.8C84.0998 291.3 84.3998 292.2 87.5998 294.7C91.6998 297.9 95.2998 297.3 96.5998 296.5Z" fill="black"/>
<path d="M73.8993 300.3C72.4993 301.4 69.3992 301.2 65.8992 298.9C63.1992 297.1 60.7992 292 61.8992 290.7C65.4992 286.6 69.1992 289 70.1992 293.1C71.5992 297.9 76.6993 298 73.8993 300.3Z" fill="white"/>
<path d="M65.5995 299.4C63.2995 297.9 61.3995 294.4 61.0995 292.2C60.9995 291.3 61.0995 290.6 61.4995 290.2C63.5995 287.8 65.4995 287.7 66.6995 288C68.5995 288.4 70.1995 290.3 70.8995 292.9C71.4995 295 72.7995 296.2 73.8995 297.1C74.6995 297.8 75.3995 298.4 75.3995 299.2C75.3995 299.9 74.7995 300.5 74.2995 300.9C73.6995 301.4 72.7995 301.7 71.5995 301.7C69.9995 301.6 67.8995 300.9 65.5995 299.4ZM62.4995 291.1C62.4995 291.2 62.2995 291.4 62.3995 292.1C62.5995 294 64.3995 297.1 66.2995 298.4C69.4995 300.5 72.3995 300.8 73.4995 299.9C74.0995 299.4 74.0995 299.2 74.0995 299.2C74.0995 299 73.4995 298.5 73.0995 298.1C71.9995 297.2 70.3995 295.8 69.6995 293.3C69.0995 291.2 67.8995 289.7 66.3995 289.4C66.1995 289.4 65.9995 289.3 65.7995 289.3C64.6995 289.2 63.5995 289.8 62.4995 291.1Z" fill="black"/>
<path d="M74.2998 213.8C74.2998 213.8 76.6998 207.9 76.4998 205.4C76.1998 202.9 76.4998 194 78.8998 192.5C83.2998 189.8 89.3998 192.9 89.3998 196.8C89.3998 201.5 88.1998 207.9 86.0998 208.7C83.8998 209.5 82.3998 220.6 82.3998 220.6L74.2998 213.8Z" fill="#DF846A"/>
<path d="M95.0989 232.8C98.8989 232.8 104.399 232.2 109.999 229.5C111.299 228.9 111.799 227.3 111.199 226.1C110.599 224.8 108.999 224.3 107.799 224.9C101.599 227.9 95.5989 227.8 92.6989 227.6L90.7989 210.2C90.5989 208.8 89.1989 207 87.7989 207.2C87.7989 207.2 85.4989 209.4 85.5989 210.8L87.7989 230.2C87.8989 231.3 88.6989 232.2 89.7989 232.4C90.0989 232.4 92.0989 232.8 95.0989 232.8Z" fill="white"/>
<path d="M89.6991 233C88.2991 232.7 87.2991 231.6 87.0991 230.2L84.8991 210.8C84.6991 209.1 86.7991 207 87.2991 206.6L87.4991 206.4H87.6991C89.5991 206.2 91.1991 208.2 91.3991 210L93.2991 226.8C96.3991 227 101.799 226.8 107.399 224.1C108.199 223.7 109.099 223.7 109.899 224C110.699 224.3 111.399 224.9 111.799 225.7C112.199 226.5 112.199 227.4 111.899 228.2C111.599 229 110.999 229.7 110.199 230.1C104.299 232.9 98.6991 233.5 94.9991 233.5C91.8991 233.4 89.7991 233 89.6991 233ZM108.099 225.4C101.799 228.4 95.6991 228.4 92.6991 228.2L92.0991 228.1L90.0991 210.2C89.9991 209.2 88.9991 207.9 88.0991 207.8C87.2991 208.6 86.2991 210 86.2991 210.6L88.4991 230C88.5991 230.8 89.1991 231.5 89.9991 231.6C89.9991 231.6 91.9991 232 95.0991 232C98.6991 232 104.099 231.4 109.699 228.8C110.199 228.6 110.499 228.2 110.699 227.7C110.899 227.2 110.799 226.7 110.599 226.3C110.399 225.8 109.999 225.5 109.499 225.3C109.299 225.2 109.099 225.2 108.899 225.2C108.699 225.2 108.399 225.3 108.099 225.4Z" fill="black"/>
<path d="M74.2986 213.8C74.2986 213.8 69.5986 218.2 69.3986 219.6C69.2986 221 66.7986 246 69.8986 247.8C72.9986 249.6 80.4986 246.2 84.7986 243.3C88.0986 241.1 88.6986 237.3 87.9986 234.4C85.2986 222.5 89.3986 208 89.3986 208C89.3986 208 88.9986 207.2 87.5986 207.1C86.6986 207.1 87.7986 207.7 86.0986 208.6C86.0986 208.6 83.8986 208.7 83.8986 209.3C83.9986 210.5 83.6986 212.7 81.4986 214C78.2986 216.1 74.2986 213.8 74.2986 213.8Z" fill="#AEC6F7" stroke="#111111" stroke-miterlimit="10"/>
<path d="M72.1991 249.2C71.1991 249.2 70.1991 249 69.3991 248.6C68.4991 248.1 65.8991 246.6 68.3991 220.1L68.4991 219.5C68.5991 217.9 71.7991 214.8 73.6991 213.1L74.8991 213C74.8991 213 78.3991 215 81.0991 213.3C82.7991 212.2 83.0991 210.6 82.9991 209.5L83.2991 208.6C83.7991 208.1 84.8991 207.9 85.7991 207.8C86.1991 207.5 86.1991 207.4 86.1991 207.3C86.2991 206.6 86.8991 206.2 87.6991 206.2C89.4991 206.3 90.1991 207.5 90.2991 207.6L90.3991 208.3C90.3991 208.4 86.4991 222.7 89.0991 234.2C89.7991 237.2 89.1991 241.6 85.4991 244.1C82.8991 245.7 76.6991 249.2 72.1991 249.2ZM74.4991 215C72.5991 216.8 70.5991 219 70.4991 219.7L70.3991 220.3C68.5991 239.9 69.5991 246.2 70.4991 246.9C72.8991 248.3 79.4991 245.7 84.2991 242.5C87.1991 240.5 87.6991 237.2 87.0991 234.6C84.6991 223.8 87.5991 211.1 88.2991 208.3C88.1991 208.3 88.0991 208.2 87.9991 208.2C87.7991 208.6 87.3991 209.1 86.5991 209.5L86.0991 209.6C85.6991 209.6 85.1991 209.7 84.8991 209.7C84.8991 211.1 84.3991 213.3 82.0991 214.8C79.1991 216.7 75.8991 215.6 74.4991 215Z" fill="black"/>
<path d="M69.6992 248.2C68.8992 247.7 66.3992 246.3 68.7992 220.1L68.8992 219.5C68.9992 218 72.7992 214.4 73.9992 213.3L74.2992 213L74.6992 213.2C74.6992 213.2 78.3992 215.3 81.2992 213.5C83.0992 212.3 83.3992 210.6 83.3992 209.5C83.3992 209.2 85.4992 209.1 86.3992 208.4C87.3992 207.6 87.2992 206.4 87.8992 206.5C88.0992 206.5 88.2992 206.6 88.4992 206.6C89.5992 206.9 89.9992 207.6 89.9992 207.7L90.0992 207.9L89.9992 208.2C89.9992 208.3 86.0992 222.6 88.6992 234.2C89.3992 237.1 88.7992 241.4 85.1992 243.8C81.6992 246.1 76.1992 248.9 72.1992 248.9C71.2992 248.8 70.3992 248.7 69.6992 248.2ZM88.5992 208.1C87.6992 206.7 86.7992 208.4 85.9992 208.9C85.9992 209.1 84.5992 209 84.5992 209.2C84.6992 210.8 84.1992 213.1 81.8992 214.6C78.9992 216.4 75.5992 215.1 74.3992 214.6C72.2992 216.6 70.0992 219 70.0992 219.6L69.9992 220.3C67.7992 244.5 69.7992 246.9 70.1992 247.2C72.6992 248.7 79.4992 246 84.3992 242.8C87.4992 240.7 87.8992 237.2 87.2992 234.6C85.3992 226 86.8992 216.2 87.8992 211.2C88.1992 210.5 88.8992 208.6 88.5992 208.1Z" fill="black"/>
<path d="M64.1996 288.3C64.2996 288.2 70.5996 277.8 70.9996 268.7C71.4996 258.7 68.0996 255.4 68.3996 248.9C68.5996 243.4 77.2996 246.3 83.2996 243C85.1996 242 87.7996 239.5 87.7996 239.5C88.5996 243.2 92.3996 261.8 91.7996 267.2C91.3996 271.2 91.6996 283.3 91.7996 287.7C91.8996 289.8 90.1996 291.6 87.9996 291.7H87.8996C85.7996 291.7 84.0996 290 83.9996 287.9C83.9996 287.2 83.5996 271.8 84.0996 266.5C84.2996 264.4 82.7996 254.8 82.3996 252.7C81.9996 250.6 78.8996 252.2 78.8996 254.3C78.8996 256.3 79.0996 263.2 78.7996 269.2C78.2996 280.4 71.1996 292 70.8996 292.5C70.1996 293.7 68.8996 294.3 67.5996 294.3C66.8996 294.3 66.1996 294.1 65.5996 293.7C63.6996 292.5 63.0996 290.1 64.1996 288.3Z" fill="black"/>
<path d="M65.2 294.1C63.1 292.8 62.4 290 63.7 287.9C63.8 287.8 70 277.5 70.4 268.6C70.7 263.2 69.7 259.7 68.9 256.6C68.2 254.1 67.6 251.7 67.7 248.8C67.9 245 71.4 244.6 75.2 244.2C77.7 243.9 80.6 243.6 82.9 242.3C84.7 241.3 87.3 238.9 87.3 238.9L88.1 238.1L88.3 239.2C89.4 244.4 92.9 261.8 92.3 267.1C91.9 271 92.2 283.1 92.3 287.5C92.4 290 90.4 292.1 87.8 292.2C85.3 292.2 83.3 290.3 83.3 287.8C83.3 286.1 82.9 271.4 83.4 266.3C83.6 264.3 82.1 254.8 81.7 252.7C81.6 252.3 81.4 252.2 81.1 252.2C80.4 252.3 79.4 253.1 79.4 254.1C79.4 254.5 79.4 255.1 79.4 255.8C79.4 258.7 79.5 264.2 79.3 269C78.8 280.3 71.6 292.1 71.3 292.6C70.5 293.9 69 294.8 67.4 294.8C66.7 294.8 65.9 294.6 65.2 294.1ZM83.1 252.4C83.5 254.3 85 264.2 84.8 266.4C84.3 271.4 84.7 286.1 84.7 287.7C84.7 289.5 86.2 290.8 88 290.8C89.8 290.7 91.2 289.3 91.1 287.5C91 283.1 90.7 271 91.1 267C91.6 262.1 88.4 245.9 87.3 240.6C86.3 241.4 84.8 242.7 83.5 243.4C80.9 244.8 77.9 245.1 75.3 245.4C71.3 245.8 69.1 246.2 69 248.7C68.9 251.5 69.4 253.7 70.1 256.2C70.9 259.4 71.9 262.9 71.6 268.6C71.2 277.8 65 288.1 64.7 288.5C63.8 290 64.2 292 65.8 293C66.3 293.3 66.9 293.5 67.5 293.5C68.6 293.5 69.7 292.9 70.3 292C70.6 291.5 77.6 280 78.1 269C78.3 264.2 78.3 258.8 78.2 255.9C78.2 255.2 78.2 254.6 78.2 254.2C78.2 252.5 79.7 251.2 81 251C81.1 251 81.2 251 81.2 251C82.2 250.9 82.9 251.5 83.1 252.4Z" fill="black"/>
<path d="M74.2992 214.4C74.5992 214.4 74.7992 214.2 74.8992 214C74.9992 213.8 77.3992 207.9 77.0992 205.3C76.7992 202.2 77.2992 194.2 79.1992 193C81.5992 191.5 84.2992 192 86.0992 193C87.7992 193.9 88.6992 195.3 88.6992 196.8C88.6992 202.2 87.2992 207.5 85.7992 208.1C83.6992 208.8 81.8992 209.3 81.7992 209.3C81.4992 209.4 81.1992 209.7 81.2992 210.1C81.3992 210.4 81.6992 210.7 82.0992 210.6C82.1992 210.6 83.9992 210.2 86.1992 209.4C88.8992 208.4 89.9992 201.2 89.9992 196.9C89.9992 195 88.7992 193.2 86.6992 192C84.5992 190.9 81.3992 190.3 78.4992 192.1C75.3992 194 75.5992 204.2 75.7992 205.6C75.9992 207.5 74.2992 212.1 73.6992 213.7C73.5992 214 73.6992 214.4 74.0992 214.5C74.1992 214.4 74.2992 214.4 74.2992 214.4Z" fill="black"/>
<path d="M108.9 236.3L113.6 221.4H104.2L108.9 236.3Z" fill="#DF846A"/>
<path d="M108.3 236.5L103.6 221.7C103.5 221.5 103.6 221.3 103.7 221.1C103.8 220.9 104 220.8 104.2 220.8H113.6C113.8 220.8 114 220.9 114.1 221.1C114.2 221.3 114.3 221.5 114.2 221.7L109.5 236.5C109.4 236.8 109.2 236.9 108.9 236.9C108.6 236.9 108.4 236.7 108.3 236.5ZM105.1 222.1L108.9 234.2L112.7 222.1H105.1Z" fill="black"/>
<path d="M105.5 222.9C107.4 224 110.4 224 112.3 222.9C114.2 221.8 114.2 220.1 112.3 219C111.4 218.5 110.1 213 108.9 213C107.7 213 106.5 218.4 105.5 219C103.7 220 103.7 221.8 105.5 222.9Z" fill="white"/>
<path d="M105.2 223.4C104.1 222.8 103.5 221.9 103.5 220.9C103.5 219.9 104.1 219 105.2 218.4C105.5 218.2 106 216.9 106.3 216.1C107.2 213.8 107.8 212.3 108.9 212.3C110 212.3 110.6 213.7 111.5 216.1C111.8 216.9 112.3 218.2 112.6 218.4C113.7 219 114.3 219.9 114.3 220.9C114.3 221.9 113.7 222.8 112.6 223.4C111.6 224 110.2 224.3 108.9 224.3C107.6 224.3 106.3 224 105.2 223.4ZM107.5 216.6C106.8 218.3 106.4 219.2 105.9 219.5C105.2 219.9 104.8 220.4 104.8 220.9C104.8 221.4 105.2 221.9 105.9 222.3C107.6 223.3 110.4 223.3 112 222.3C112.7 221.9 113.1 221.4 113.1 220.9C113.1 220.4 112.7 219.9 112 219.5C111.4 219.2 111 218.2 110.4 216.6C110 215.6 109.3 213.8 109 213.6C108.6 213.8 107.9 215.6 107.5 216.6Z" fill="black"/>
<path d="M72.3994 267.6C72.3994 267.6 75.2994 269.8 82.4994 265.6C89.6994 261.4 92.5994 255.9 92.5994 255.9C92.5994 255.9 91.1994 234.3 88.9994 236.3C87.2994 237.9 84.9994 239.6 82.4994 241.1C76.8994 244.3 72.3994 244.4 72.3994 244.4V267.6Z" fill="#AEC6F7" stroke="#111111" stroke-miterlimit="10"/>
<path d="M71.9992 268.1C71.7992 268 71.6992 267.8 71.6992 267.6V244.4C71.6992 244.1 71.9992 243.8 72.2992 243.8C72.2992 243.8 76.6992 243.7 82.0992 240.6C84.0992 239.4 86.2992 237.8 88.3992 235.9C88.6992 235.6 89.0992 235.5 89.4992 235.7C91.4992 236.5 92.5992 248.7 93.0992 255.9C93.0992 256 93.0992 256.1 92.9992 256.2C92.8992 256.4 89.8992 261.9 82.6992 266.1C79.0992 268.2 76.4992 268.7 74.6992 268.7C72.9992 268.8 72.0992 268.2 71.9992 268.1ZM89.1992 237C86.9992 238.9 84.8992 240.5 82.7992 241.7C78.2992 244.3 74.4992 244.9 72.9992 245V267.2C73.7992 267.5 76.5992 268.2 82.0992 265C88.3992 261.4 91.3992 256.6 91.8992 255.7C91.3992 247.6 90.1992 238.4 89.1992 237Z" fill="#AEC6F7" stroke="#111111" stroke-miterlimit="10"/>
<path d="M73.2991 259.6C73.5991 259.6 73.9991 259.5 74.2991 259.4C75.5991 258.9 76.2991 257.3 75.6991 256C75.6991 255.9 72.1991 247.3 71.7991 241.7C71.5991 238.3 72.5991 231.5 73.4991 226.5C73.8991 224.5 72.3991 220.8 71.1991 217.9C70.6991 216.6 69.6991 219 69.3991 220.4C69.2991 221 66.1991 235.6 66.5991 242C67.0991 248.5 70.7991 257.6 70.8991 257.9C71.2991 259 72.2991 259.6 73.2991 259.6Z" fill="white"/>
<path d="M70.2992 258.3C69.8992 257.3 66.3992 248.6 65.8992 242.1C65.3992 235.5 68.6992 220.4 68.6992 220.3C68.6992 220.2 69.3992 217 70.7992 216.8C70.9992 216.7 71.5992 216.8 71.8992 217.6L72.1992 218.4C73.2992 221.2 74.4992 224.5 74.1992 226.5C73.4992 230.6 72.1992 238 72.4992 241.5C72.8992 247 76.3992 255.5 76.3992 255.6C77.0992 257.3 76.2992 259.2 74.5992 259.9C74.1992 260.1 73.7992 260.1 73.3992 260.1C71.9992 260.3 70.7992 259.5 70.2992 258.3ZM70.0992 220.6C70.0992 220.8 66.8992 235.6 67.2992 242C67.6992 248.3 71.3992 257.3 71.5992 257.7C71.9992 258.6 73.0992 259.1 74.0992 258.7C75.0992 258.3 75.4992 257.2 75.0992 256.2C74.9992 255.8 71.4992 247.4 71.0992 241.7C70.7992 238 72.0992 230.5 72.7992 226.3C73.0992 224.6 71.8992 221.5 70.8992 218.9L70.7992 218.5C70.4992 219.1 70.2992 219.9 70.0992 220.6Z" fill="black"/>
<path d="M73.9993 260.7C74.1993 260.7 74.3993 260.7 74.5993 260.6C75.5993 260.3 76.1993 259.2 75.7993 258.1L75.1993 256.4C74.8993 255.4 73.7993 254.8 72.6993 255.2C71.6993 255.5 71.0993 256.6 71.4993 257.7L72.0993 259.4C72.3993 260.2 73.1993 260.7 73.9993 260.7Z" fill="#AEC6F7" stroke="#111111" stroke-miterlimit="10"/>
<path d="M71.4995 259.6L70.8995 257.9C70.3995 256.5 71.1995 255.1 72.4995 254.6C73.1995 254.4 73.8995 254.4 74.4995 254.7C75.0995 255 75.5995 255.5 75.7995 256.2L76.3995 257.9C76.5995 258.6 76.5995 259.3 76.2995 259.9C75.9995 260.5 75.4995 261 74.7995 261.2C74.4995 261.3 74.2995 261.3 73.9995 261.3C72.8995 261.3 71.8995 260.6 71.4995 259.6ZM72.9995 255.8C72.6995 255.9 72.3995 256.1 72.2995 256.4C72.0995 256.7 72.0995 257.1 72.1995 257.4L72.7995 259.1C72.9995 259.8 73.7995 260.1 74.3995 259.9C74.6995 259.8 74.9995 259.6 75.0995 259.3C75.2995 259 75.2995 258.6 75.1995 258.3L74.5995 256.6C74.4995 256.3 74.2995 256 73.9995 255.9C73.7995 255.8 73.5995 255.8 73.3995 255.8C73.2995 255.7 73.0995 255.8 72.9995 255.8Z" fill="#AEC6F7" stroke="#111111" stroke-miterlimit="10"/>
<path d="M75.8999 244.3C76.1999 244.3 76.4999 244.1 76.4999 243.7C76.4999 243.4 79.2999 216.4 72.4999 215C72.0999 214.9 71.7999 215.2 71.7999 215.5C71.6999 215.8 71.9999 216.2 72.2999 216.2C76.4999 217 76.2999 234.4 75.2999 243.5C75.2999 243.9 75.4999 244.2 75.8999 244.3Z" fill="black"/>
<path d="M85.7993 239.4C86.1993 239.3 86.4993 239 86.3993 238.7C86.3993 238.5 83.6993 217.1 87.3993 208C87.4993 207.7 87.3993 207.3 87.0993 207.2C87.0993 207.2 86.8993 207.8 86.7993 208.1C86.6993 208.4 85.9993 208.3 85.8993 208.7C82.5993 218.6 85.0993 238.1 85.1993 238.9C85.1993 239.2 85.3993 239.4 85.7993 239.4Z" fill="black"/>
<path d="M77.0002 205.8C77.7002 205.7 77.8002 205.1 78.0002 203.2C78.1002 202.5 78.1002 201.7 78.3002 200.8C78.4002 200.3 78.7002 198.9 79.7002 198.9C80.4002 198.9 80.9002 199.5 81.3002 200C81.5002 200.2 81.8002 200.5 81.9002 200.6C82.0002 200.5 82.0002 200.5 82.4002 199.8C82.6002 199.4 82.9002 198.9 83.4002 198.1C84.8002 195.9 86.2002 194.8 87.6002 194.8C87.8002 194.8 88.0002 194.8 88.2002 194.9C87.0002 191.7 84.8002 191.2 82.8002 191.2C81.9002 191.2 81.0002 191.3 80.1002 191.4C77.0002 191.8 74.7002 197.2 74.2002 200.1C74.0002 201.5 74.6002 203.6 75.7002 204.9C76.1002 205.4 76.6002 205.8 77.0002 205.8Z" fill="white"/>
<path d="M82.7997 191.9C84.5997 191.9 86.0997 192.3 87.0997 194.1C85.5997 194.3 84.1997 195.5 82.7997 197.7C82.2997 198.4 81.9997 199 81.7997 199.4C81.2997 198.8 80.5997 198.1 79.6997 198.1C78.5997 198.1 77.8997 198.9 77.5997 200.6C77.3997 201.5 77.3997 202.3 77.2997 203C77.2997 203.7 77.1997 204.8 76.9997 205C76.8997 205 76.4997 204.9 76.0997 204.3C75.1997 203.2 74.5997 201.4 74.7997 200.2C75.1997 197.6 77.4997 192.5 80.0997 192.1C80.8997 192.1 81.8997 191.9 82.7997 191.9ZM82.7997 190.5C81.8997 190.5 80.8997 190.6 79.9997 190.7C76.2997 191.2 73.8997 197.3 73.4997 199.9C73.0997 202.5 75.1997 206.3 76.9997 206.3C77.0997 206.3 77.0997 206.3 77.1997 206.3C79.0997 206 78.4997 203.5 78.9997 200.8C79.1997 199.8 79.4997 199.4 79.7997 199.4C80.4997 199.4 81.2997 201.1 81.8997 201.1C81.8997 201.1 81.8997 201.1 81.9997 201.1C82.8997 200.9 82.6997 200.5 84.0997 198.4C85.5997 196.1 86.7997 195.4 87.6997 195.4C88.8997 195.4 89.5997 196.6 89.5997 196.6C88.3997 191.7 85.7997 190.5 82.7997 190.5Z" fill="black"/>
<path d="M135.4 298.7L91.9004 273.7L205.2 208.2L248.7 233.2L135.4 298.7Z" fill="white"/>
<path d="M135.4 299.7C135.2 299.7 135.1 299.7 134.9 299.6L91.4004 274.6C91.1004 274.4 90.9004 274.1 90.9004 273.7C90.9004 273.3 91.1004 273 91.4004 272.8L204.7 207.3C205 207.1 205.4 207.1 205.7 207.3L249.2 232.3C249.5 232.5 249.7 232.8 249.7 233.2C249.7 233.6 249.5 233.9 249.2 234.1L135.9 299.6C135.7 299.6 135.6 299.7 135.4 299.7ZM93.9004 273.6L135.4 297.5L246.8 233.1L205.3 209.2L93.9004 273.6Z" fill="black"/>
<path d="M135.7 342.6L134.2 341.7V298.7L134.7 297.8L248.2 232.3L249.7 233.2V276.2L249.2 277.1L135.7 342.6ZM136.2 299.3V340L247.7 275.6V234.9L136.2 299.3Z" fill="black"/>
<path d="M135.3 342.7C135.1 342.7 135 342.7 134.8 342.6L91.4004 317.6C91.1004 317.4 90.9004 317.1 90.9004 316.7V273.7C90.9004 273.3 91.1004 273 91.4004 272.8C91.7004 272.6 92.1004 272.6 92.4004 272.8L135.8 297.8C136.1 298 136.3 298.3 136.3 298.7V341.7C136.3 342.1 136.1 342.4 135.8 342.6C135.6 342.7 135.4 342.7 135.3 342.7ZM92.9004 316.1L134.3 340V299.3L92.9004 275.4V316.1Z" fill="black"/>
<path d="M214.5 245.4L228.7 237.2L209.2 226L195 234.2L214.5 245.4Z" fill="#AEC6F7" stroke="#111111" stroke-miterlimit="10"/>
<path d="M216.2 240.599L210.8 237.199V204.899L216.2 208.299V240.599Z" fill="#DF846A"/>
<path d="M215.6 241.4L210.2 238L209.7 237.2V204.9L211.2 204.1L216.6 207.5L217.1 208.3V240.6L215.6 241.4Z" fill="#AEC6F7" stroke="#111111" stroke-miterlimit="10"/>
<path d="M216.2 240.6L221.5 237.2V204.9L216.2 208.3V240.6Z" fill="#111111"/>
<path d="M216.2 241.6C216 241.6 215.9 241.6 215.7 241.5C215.4 241.3 215.2 241 215.2 240.6V208.3C215.2 208 215.4 207.6 215.7 207.5L221.1 204.1C221.4 203.9 221.8 203.9 222.1 204.1C222.4 204.3 222.6 204.6 222.6 205V237.3C222.6 237.6 222.4 238 222.1 238.1L216.7 241.5C216.5 241.5 216.4 241.6 216.2 241.6ZM217.2 208.8V238.7L220.6 236.6V206.7L217.2 208.8Z" fill="black"/>
<path d="M201.8 228.5C201.5 228.5 201.2 228.4 200.9 228.3C200.1 227.9 199.7 227.1 199.9 226.2C199.9 226.1 200.1 224.8 201.2 220.9C202.5 216 211.4 213.9 213.1 213.5C214 213.3 214.9 213.7 215.3 214.5C215.7 215.3 215.6 216.3 214.9 216.9L203.2 228.1C202.8 228.3 202.3 228.5 201.8 228.5Z" fill="black"/>
<path d="M205.3 220.6C204.2 220.6 203.3 219.7 203.3 218.6V211.5C203.3 210.4 204.2 209.5 205.3 209.5C206.4 209.5 207.3 210.4 207.3 211.5V218.6C207.3 219.7 206.4 220.6 205.3 220.6Z" fill="black"/>
<path d="M221.8 205L216 201.6L210.6 204.8L216.3 208.1L221.8 205Z" fill="#111111"/>
<path d="M216.8 209H215.8L210 205.7V204L215.5 200.8H216.5L222.3 204.1V205.8L216.8 209ZM212.5 204.8L216.3 207L219.8 205L216 202.8L212.5 204.8Z" fill="#111111"/>
<path d="M266.799 152L121.199 236.1V198.5L193.999 132.1L266.799 114.4V152Z" fill="#AEC6F7" stroke="#111111" stroke-miterlimit="10"/>
<path d="M121.6 236.9L120.1 236V198.4L120.4 197.7L193.7 131.1L266.5 113.3L267.7 114.3V152L267.2 152.9L121.6 236.9ZM122.1 198.9V234.4L265.8 151.5V115.6L194.5 133L122.1 198.9Z" fill="#AEC6F7" stroke="#111111" stroke-miterlimit="10"/>
<path d="M266.8 114.4L194 132.1L121.2 198.5V207.6L194 141.3L266.8 123.5V114.4Z" fill="#AEC6F7" stroke="#111111" stroke-miterlimit="10"/>
<path d="M122.101 198.9V205.4L193.301 140.6C193.401 140.5 193.601 140.4 193.701 140.4L265.801 122.8V115.7L194.501 133L122.101 198.9Z" fill="#AEC6F7" stroke="#111111" stroke-miterlimit="10"/>
<path d="M127.999 347.6L121.199 351.5V243.2L127.999 239.3V347.6Z" fill="#111111"/>
<path d="M121.6 352.3L120.1 351.4V243.2L120.6 242.3L127.4 238.4L128.9 239.3V347.6L128.4 348.5L121.6 352.3ZM122.1 243.8V349.8L126.9 347V241L122.1 243.8Z" fill="#111111"/>
<path d="M114.301 347.6L121.201 351.5V243.2L114.301 239.3V347.6Z" fill="white"/>
<path d="M121.2 352.5C121 352.5 120.9 352.5 120.7 352.4L113.9 348.5C113.6 348.3 113.4 348 113.4 347.6V239.3C113.4 238.9 113.6 238.6 113.9 238.4C114.2 238.2 114.6 238.2 114.9 238.4L121.7 242.3C122 242.5 122.2 242.8 122.2 243.2V351.5C122.2 351.9 122 352.2 121.7 352.4C121.5 352.4 121.3 352.5 121.2 352.5ZM115.3 347L120.1 349.8V243.8L115.3 241V347Z" fill="black"/>
<path d="M14.5998 282.4L7.7998 286.3V178L14.5998 174.1V282.4Z" fill="#111111"/>
<path d="M8.7998 178.6V284.6L13.5998 281.8V175.8L8.7998 178.6Z" fill="#111111"/>
<path d="M1 282.4L7.8 286.3V178L1 174.1V282.4Z" fill="white"/>
<path d="M7.8 287.3C7.6 287.3 7.5 287.3 7.3 287.2L0.5 283.3C0.2 283.1 0 282.8 0 282.4V174.1C0 173.7 0.2 173.4 0.5 173.2C0.8 173 1.2 173 1.5 173.2L8.3 177.1C8.6 177.3 8.8 177.6 8.8 178V286.3C8.8 286.7 8.6 287 8.3 287.2C8.1 287.2 8 287.3 7.8 287.3ZM2 281.8L6.8 284.6V178.6L2 175.8V281.8Z" fill="black"/>
<path d="M266.8 267.6L260 271.5V163.2L266.8 159.3V267.6Z" fill="#111111"/>
<path d="M260.5 272.4L259 271.5V163.2L259.5 162.3L266.3 158.4L267.8 159.3V267.6L267.3 268.5L260.5 272.4ZM261 163.8V269.8L265.8 267V161L261 163.8Z" fill="#111111"/>
<path d="M253.2 267.6L260 271.5V163.2L253.2 167.1V267.6Z" fill="white"/>
<path d="M260 272.5C259.8 272.5 259.7 272.5 259.5 272.4L252.7 268.5C252.4 268.3 252.2 268 252.2 267.6V167.1C252.2 166.7 252.4 166.4 252.7 166.2L259.5 162.3C259.8 162.1 260.2 162.1 260.5 162.3C260.8 162.5 261 162.8 261 163.2V271.5C261 271.9 260.8 272.2 260.5 272.4C260.3 272.5 260.2 272.5 260 272.5ZM254.2 267L259 269.8V165L254.2 167.7V267Z" fill="black"/>
<path d="M266.8 159.3L121.2 243.4V236.1L266.8 152V159.3Z" fill="#AEC6F7" stroke="#111111" stroke-miterlimit="10"/>
<path d="M121.2 244.4C121 244.4 120.9 244.4 120.7 244.3C120.4 244.1 120.2 243.8 120.2 243.4V236.1C120.2 235.7 120.4 235.4 120.7 235.2L266.3 151.1C266.6 150.9 267 150.9 267.3 151.1C267.6 151.3 267.8 151.6 267.8 152V159.3C267.8 159.7 267.6 160 267.3 160.2L121.7 244.3C121.5 244.4 121.3 244.4 121.2 244.4ZM122.1 236.7V241.7L265.8 158.7V153.7L122.1 236.7Z" fill="black"/>
<path d="M1 174L121.2 243.4V198.5L1 129.1V174Z" fill="#111111"/>
<path d="M121.2 244.4C121 244.4 120.9 244.4 120.7 244.3L0.5 174.9C0.2 174.7 0 174.4 0 174V129.1C0 128.7 0.2 128.4 0.5 128.2C0.8 128 1.2 128 1.5 128.2L121.7 197.6C122 197.8 122.2 198.1 122.2 198.5V243.4C122.2 243.8 122 244.1 121.7 244.3C121.5 244.4 121.3 244.4 121.2 244.4ZM2 173.4L120.2 241.6V199L2 130.8V173.4Z" fill="#111111"/>
<path d="M1 174L121.2 243.4V236.1L1 166.8V174Z" fill="#AEC6F7" stroke="#111111" stroke-miterlimit="10"/>
<path d="M1 138.2L121.2 207.6V198.5L1 129.1V138.2Z" fill="#AEC6F7" stroke="#111111" stroke-miterlimit="10"/>
<path d="M194 132.1L73.8 62.7002L1 129.1L121.2 198.5L194 132.1Z" fill="white"/>
<path d="M121.2 199.5C121 199.5 120.9 199.5 120.7 199.4L0.5 129.9C0.2 129.7 0 129.5 0 129.1C0 128.8 0.0999992 128.5 0.299999 128.3L73.1 62.0001C73.4 61.7001 73.9 61.7001 74.3 61.9001L194.5 131.3C194.8 131.5 195 131.7 195 132.1C195 132.4 194.9 132.7 194.7 132.9L121.9 199.2C121.6 199.4 121.4 199.5 121.2 199.5ZM2.6 128.9L121 197.2L192.3 132.3L73.9 64.0001L2.6 128.9Z" fill="black"/>
<path d="M194 133.1C193.8 133.1 193.7 133.1 193.5 133L73.2998 63.5999C72.8998 63.3999 72.7998 62.9999 72.7998 62.5999C72.8998 62.1999 73.1998 61.8999 73.4998 61.7999L146.4 43.9999C146.6 43.8999 146.9 43.9999 147.1 44.0999L267.3 113.5C267.7 113.7 267.8 114.1 267.8 114.5C267.7 114.9 267.4 115.2 267.1 115.3L194.3 133.1C194.1 133.1 194.1 133.1 194 133.1ZM76.3998 63.0999L194.1 131L264.1 113.9L146.5 46.0999L76.3998 63.0999Z" fill="black"/>
<path d="M159.1 273.7C157.7 272.9 155.8 272.5 153.9 272.4H140V281.1H154C155.9 281.1 157.8 280.7 159.2 279.8C162.1 278.2 162.1 275.4 159.1 273.7Z" fill="#BABCBE"/>
<path d="M180.5 248.8C179.1 248 177.2 247.6 175.3 247.5H161.4V256.2H175.3C177.2 256.2 179.1 255.8 180.5 254.9C183.4 253.2 183.4 250.5 180.5 248.8Z" fill="#BABCBE"/>
<path d="M192.4 238.6C191 237.8 189.1 237.4 187.2 237.3H173.3V246H187.2C189.1 246 191 245.6 192.4 244.7C195.4 243.1 195.4 240.3 192.4 238.6Z" fill="#BABCBE"/>
<path d="M135.1 257.4C137.8 255.8 142.3 255.8 145 257.4C146.4 258.2 147.1 259.2 147.1 260.3C147.1 261.4 146.4 262.4 145 263.2C142.3 264.8 137.8 264.8 135.1 263.2C133.7 262.4 133 261.4 133 260.3C133 259.2 133.7 258.2 135.1 257.4Z" fill="white"/>
<path d="M140 265.3C138 265.3 136.1 264.9 134.5 264C132.9 263.1 132 261.7 132 260.3C132 258.8 132.9 257.5 134.5 256.6C137.6 254.8 142.4 254.8 145.4 256.6C147 257.5 147.9 258.9 147.9 260.3C147.9 261.8 147 263.1 145.4 264C143.9 264.9 142 265.3 140 265.3ZM135.6 258.2C134.6 258.8 134 259.5 134 260.2C134 260.9 134.6 261.6 135.6 262.2C138 263.6 142.1 263.6 144.5 262.2C145.5 261.6 146.1 260.9 146.1 260.2C146.1 259.5 145.5 258.8 144.5 258.2C142.1 256.9 138 256.8 135.6 258.2Z" fill="black"/>
<path d="M135.1 265.7C137.8 267.3 142.3 267.3 145 265.7C147.7 264.1 147.7 261.6 145 260C142.3 258.4 137.8 258.4 135.1 260C132.3 261.6 132.3 264.2 135.1 265.7Z" fill="#AEC6F7" stroke="#111111" stroke-miterlimit="10"/>
<path d="M135.6 264.9C138 266.3 142.1 266.3 144.5 264.9C145.5 264.3 146.1 263.6 146.1 262.9C146.1 262.2 145.5 261.5 144.5 260.9C142.1 259.5 138 259.5 135.6 260.9C134.6 261.5 134 262.2 134 262.9C134 263.6 134.6 264.3 135.6 264.9Z" fill="#AEC6F7" stroke="#111111" stroke-miterlimit="10"/>
<path d="M135.1 263.1C137.8 264.7 142.3 264.7 145 263.1C146.4 262.3 147.1 261.3 147.1 260.2V276.2C147.1 277.2 146.4 278.3 145 279.1C142.3 280.7 137.8 280.7 135.1 279.1C133.7 278.3 133 277.3 133 276.2V260.2C133 261.3 133.7 262.3 135.1 263.1Z" fill="black"/>
<path d="M140 281.3C138 281.3 136.1 280.9 134.5 280C132.9 279.1 132 277.7 132 276.3V260.3H134C134 261 134.6 261.7 135.6 262.3C138 263.7 142.1 263.7 144.5 262.3C145.5 261.7 146.1 261 146.1 260.3H148.1V276.3C148.1 277.8 147.2 279.1 145.6 280C143.9 280.9 142 281.3 140 281.3ZM134 263.6V276.3C134 277 134.6 277.7 135.6 278.3C138 279.7 142.1 279.7 144.5 278.3C145.5 277.7 146.1 277 146.1 276.3V263.6C145.9 263.7 145.7 263.8 145.5 264C142.4 265.8 137.6 265.8 134.6 264C134.4 263.9 134.2 263.7 134 263.6Z" fill="black"/>
<path d="M168.3 222.3C171 220.7 175.5 220.7 178.2 222.3C179.6 223.1 180.3 224.1 180.3 225.2C180.3 226.3 179.6 227.3 178.2 228.1C175.5 229.7 171 229.7 168.3 228.1C166.9 227.3 166.2 226.3 166.2 225.2C166.2 224.1 167 223 168.3 222.3Z" fill="white"/>
<path d="M173.3 230.2C171.3 230.2 169.4 229.8 167.8 228.9C166.2 228 165.2 226.6 165.2 225.2C165.2 223.8 166.1 222.4 167.8 221.5C170.9 219.7 175.7 219.7 178.7 221.5C180.3 222.4 181.3 223.8 181.3 225.2C181.3 226.6 180.4 228 178.7 228.9C177.2 229.7 175.3 230.2 173.3 230.2ZM173.3 222.1C171.7 222.1 170 222.4 168.8 223.1C167.8 223.7 167.2 224.4 167.2 225.1C167.2 225.8 167.8 226.5 168.8 227.1C171.2 228.5 175.3 228.5 177.7 227.1C178.7 226.5 179.3 225.8 179.3 225.1C179.3 224.4 178.7 223.7 177.7 223.1C176.6 222.4 174.9 222.1 173.3 222.1Z" fill="black"/>
<path d="M168.3 228C171 229.6 175.5 229.6 178.2 228C179.6 227.2 180.3 226.2 180.3 225.1V241.1C180.3 242.1 179.6 243.2 178.2 244C175.5 245.6 171 245.6 168.3 244C166.9 243.2 166.2 242.2 166.2 241.1V225.1C166.3 226.2 167 227.2 168.3 228Z" fill="#AEC6F7" stroke="#111111" stroke-miterlimit="10"/>
<path d="M173.3 246.2C171.3 246.2 169.4 245.8 167.8 244.9C166.2 244 165.2 242.6 165.2 241.2V225.2H167.2C167.2 225.9 167.8 226.6 168.8 227.2C171.2 228.6 175.3 228.6 177.7 227.2C178.7 226.6 179.3 225.9 179.3 225.2H181.3V241.2C181.3 242.7 180.4 244 178.7 244.9C177.2 245.7 175.3 246.2 173.3 246.2ZM167.3 228.5V241.2C167.3 241.9 167.9 242.6 168.9 243.2C171.3 244.6 175.4 244.6 177.8 243.2C178.8 242.6 179.4 241.9 179.4 241.2V228.5C179.2 228.6 179 228.7 178.8 228.9C175.7 230.7 170.9 230.7 167.9 228.9C167.6 228.7 167.5 228.6 167.3 228.5Z" fill="black"/>
<path d="M156.8 232.5C159.5 230.9 164 230.9 166.7 232.5C168.1 233.3 168.8 234.3 168.8 235.4C168.8 236.4 168.1 237.5 166.7 238.3C164 239.9 159.5 239.9 156.8 238.3C155.4 237.5 154.7 236.5 154.7 235.4C154.8 234.4 155.4 233.3 156.8 232.5Z" fill="white"/>
<path d="M161.8 240.4C159.8 240.4 157.9 240 156.3 239.1C154.7 238.2 153.7 236.8 153.7 235.4C153.7 233.9 154.6 232.6 156.3 231.7C159.4 229.9 164.2 229.9 167.2 231.7C168.8 232.6 169.8 234 169.8 235.4C169.8 236.9 168.9 238.2 167.2 239.1C165.7 240 163.7 240.4 161.8 240.4ZM161.8 232.3C160.2 232.3 158.5 232.6 157.3 233.3C156.3 233.9 155.7 234.6 155.7 235.3C155.7 236 156.3 236.7 157.3 237.3C159.7 238.7 163.8 238.7 166.2 237.3C167.2 236.7 167.8 236 167.8 235.3C167.8 234.6 167.2 233.9 166.2 233.3C165 232.7 163.4 232.3 161.8 232.3Z" fill="black"/>
<path d="M161.8 242C165.666 242 168.8 240.209 168.8 238C168.8 235.791 165.666 234 161.8 234C157.934 234 154.8 235.791 154.8 238C154.8 240.209 157.934 242 161.8 242Z" fill="#DF846A"/>
<path d="M161.8 235C160.2 235 158.5 235.3 157.3 236C156.3 236.6 155.7 237.3 155.7 238C155.7 238.7 156.3 239.4 157.3 240C159.7 241.4 163.8 241.4 166.2 240C167.2 239.4 167.8 238.7 167.8 238C167.8 237.3 167.2 236.6 166.2 236C165 235.3 163.4 235 161.8 235Z" fill="#AEC6F7" stroke="#111111" stroke-miterlimit="10"/>
<path d="M156.8 238.3C159.5 239.9 164 239.9 166.7 238.3C168.1 237.5 168.8 236.5 168.8 235.4V251.4C168.8 252.4 168.1 253.5 166.7 254.3C164 255.9 159.5 255.9 156.8 254.3C155.4 253.5 154.7 252.5 154.7 251.4V235.4C154.8 236.4 155.4 237.5 156.8 238.3Z" fill="#AEC6F7" stroke="#111111" stroke-miterlimit="10"/>
<path d="M161.8 256.5C159.8 256.5 157.9 256.1 156.3 255.2C154.7 254.3 153.7 252.9 153.7 251.5V235.5H155.7C155.7 236.2 156.3 236.9 157.3 237.5C159.7 238.9 163.8 238.9 166.2 237.5C167.2 236.9 167.8 236.2 167.8 235.5H169.8V251.5C169.8 253 168.9 254.3 167.2 255.2C165.7 256 163.7 256.5 161.8 256.5ZM155.7 238.8V251.5C155.7 252.2 156.3 252.9 157.3 253.5C159.7 254.9 163.8 254.9 166.2 253.5C167.2 252.9 167.8 252.2 167.8 251.5V238.8C167.6 238.9 167.4 239 167.2 239.2C164.1 241 159.3 241 156.3 239.2C156.1 239 155.9 238.9 155.7 238.8Z" fill="black"/>
<path d="M171.2 181.1L169.4 182.1L171.7 188.4L173.5 187.4L175.8 178.4L174.1 179.4L172.6 185.4L171.2 181.1Z" fill="black"/>
<path d="M177.1 177.7L177 179L178 178.5V183.5L177.1 184V185.4L180.7 183.3V182L179.7 182.5V177.5L180.6 177V175.6L177.1 177.7Z" fill="black"/>
<path d="M184.7 173.3L182.7 174.5V182.1L184.2 181.3V175.9L186.8 179.8L188.4 178.8V171.2L186.9 172.1V176.5L184.7 173.3Z" fill="black"/>
<path d="M197.2 166C196.2 166.6 195.4 167.4 194.8 168.5C194.2 169.6 193.9 170.7 193.9 171.9C193.9 173.2 194.2 174 194.8 174.3C195.4 174.7 196.2 174.5 197.2 174C197.5 173.8 197.8 173.7 198 173.5C198.2 173.4 198.4 173.2 198.6 173C198.8 172.9 198.9 172.7 199.1 172.5C199.3 172.3 199.4 172.2 199.5 172V170.2L199.3 170.3C199.2 170.4 199.1 170.6 199 170.8C198.9 171 198.8 171.2 198.6 171.3C198.5 171.5 198.3 171.7 198.1 171.9C197.9 172.1 197.7 172.2 197.5 172.4C197.3 172.5 197.1 172.6 196.9 172.6C196.7 172.6 196.5 172.6 196.3 172.5C196.1 172.4 196 172.2 195.9 172C195.8 171.7 195.7 171.4 195.7 170.9C195.7 170.4 195.8 170 195.9 169.6C196 169.2 196.1 168.9 196.3 168.6C196.5 168.3 196.7 168 196.9 167.8C197.1 167.6 197.3 167.4 197.6 167.3C197.8 167.2 198 167.1 198.2 167.1C198.4 167.1 198.6 167.1 198.7 167.1C198.9 167.1 199 167.2 199.1 167.2C199.2 167.2 199.3 167.3 199.4 167.3L199.6 167.2V165.4C199.5 165.4 199.3 165.4 199.2 165.4C199 165.4 198.9 165.4 198.7 165.5C198.5 165.5 198.3 165.6 198.1 165.7C197.7 165.7 197.4 165.8 197.2 166Z" fill="black"/>
<path d="M201.301 163.7V171.4L203.001 170.4V167L205.301 165.7V169.1L207.001 168.2V160.5L205.301 161.4V164.3L203.001 165.6V162.8L201.301 163.7Z" fill="black"/>
<path d="M211.001 162.9L211.701 160L212.401 162.1L211.001 162.9ZM210.801 158.3L208.601 167.3L210.301 166.3L210.701 164.5L212.801 163.3L213.201 164.6L214.901 163.6L212.601 157.2L210.801 158.3Z" fill="black"/>
<path d="M218.1 154.1L216.4 155.1V160C216.4 161 216.6 161.5 217.1 161.8C217.6 162 218.3 161.9 219.2 161.4C220.1 160.9 220.8 160.2 221.3 159.4C221.8 158.6 222 157.8 222 156.8V151.9L220.3 152.9V157.7C220.3 158.3 220.2 158.7 220 159.1C219.8 159.5 219.5 159.7 219.2 160C218.8 160.2 218.5 160.3 218.3 160.1C218.1 159.9 218 159.6 218 159.1L218.1 154.1Z" fill="black"/>
<path d="M225.9 155.9V151.1C226.3 150.9 226.5 150.7 226.8 150.6C227 150.5 227.3 150.4 227.5 150.4C227.8 150.4 228.1 150.6 228.2 150.8C228.4 151.1 228.4 151.5 228.4 152C228.4 152.5 228.3 153 228.2 153.4C228.1 153.8 227.8 154.2 227.6 154.6C227.4 154.9 227.1 155.1 226.9 155.3C226.6 155.4 226.3 155.6 225.9 155.9ZM224.2 150.6V158.3L226.3 157.1C226.8 156.8 227.2 156.5 227.6 156.2C228 155.9 228.4 155.5 228.7 155C229.1 154.5 229.5 153.8 229.7 153.1C230 152.4 230.1 151.7 230.1 150.9C230.1 150.2 230 149.6 229.7 149.2C229.4 148.8 229.1 148.6 228.7 148.5C228.3 148.4 228 148.5 227.5 148.7C227.1 148.9 226.7 149.1 226.2 149.4L224.2 150.6Z" fill="black"/>
<path d="M267.8 332.1C265.7 332.1 263.2 333.5 263.2 333.5C263.2 333.5 260.1 331.2 258.2 330.9C256 330.6 253.6 329.3 245.4 329.3C234.1 329.3 237.6 331 234.3 331.1C227.3 331.2 223.4 331.4 220.9 331.4C212.1 331.4 215.4 337.8 218.3 337.8C221.2 337.8 225.1 335.9 227.7 335.9C230.3 335.9 231.3 335.8 233.1 335.8L233.7 338C232.6 338.1 231.1 338 228.5 338C227.6 338 214.9 337.9 214.5 338C210 338.3 212 341.5 212 341.5C212 341.5 227.2 342.1 237.3 343C238.6 343.1 243.2 344.3 244.5 344.2C248.2 343.9 251 342.1 253.1 342.1C260.7 342.1 262.8 341.1 264.8 339.2C265.5 338.5 266.4 339.6 269.2 339.6C272 339.6 275.7 338 275.7 335.9C275.6 333.7 272.1 332.1 267.8 332.1Z" fill="#BABCBE"/>
<path d="M212.1 266.9C212.1 268.7 213.3 270.1 214.7 270.1C216.2 270.1 217.3 268.6 217.3 266.9C217.3 265.1 216.1 263.7 214.7 263.7C213.3 263.6 212.1 265.1 212.1 266.9Z" fill="#DF846A"/>
<path d="M194.9 281C195.8 281.5 197.3 281.5 198.3 281C198.8 280.7 199 280.4 199 280C199 279.6 200 273.4 200 273.4H193.3C193.3 273.4 194.3 279.7 194.3 280C194.2 280.4 194.4 280.7 194.9 281Z" fill="#AEC6F7" stroke="#111111" stroke-miterlimit="10"/>
<path d="M194.6 281.4C194 281 193.6 280.5 193.6 280C193.6 279.7 193 275.8 192.6 273.5C192.6 273.4 192.6 273.2 192.7 273.1C192.8 273 192.9 272.9 193.1 272.9H199.8C199.9 272.9 200.1 273 200.2 273.1C200.3 273.2 200.3 273.4 200.3 273.5C199.9 275.8 199.3 279.7 199.3 280C199.3 280.5 199 281.1 198.3 281.4C197.8 281.7 197.1 281.9 196.4 281.9C195.9 281.9 195.2 281.7 194.6 281.4ZM193.8 273.9C194.1 275.8 194.7 279.7 194.7 280C194.7 280.2 194.9 280.4 195.1 280.5C195.9 280.9 197.2 280.9 197.9 280.5C198.2 280.3 198.3 280.1 198.3 280C198.3 279.7 198.9 275.8 199.2 273.9H193.8Z" fill="black"/>
<path d="M194.2 274.8C195.5 275.6 197.6 275.6 199 274.8C200.3 274 200.3 272.8 199 272.1C197.7 271.3 195.6 271.3 194.2 272.1C192.9 272.8 192.9 274 194.2 274.8Z" fill="white"/>
<path d="M193.899 275.2C193.099 274.7 192.699 274.1 192.699 273.4C192.699 272.7 193.099 272 193.899 271.6C195.399 270.7 197.699 270.7 199.199 271.6C199.999 272.1 200.399 272.7 200.399 273.4C200.399 274.1 199.999 274.8 199.199 275.2C198.499 275.6 197.499 275.8 196.599 275.8C195.599 275.9 194.699 275.6 193.899 275.2ZM194.399 272.5C193.899 272.8 193.699 273.1 193.699 273.4C193.699 273.7 193.999 274.1 194.399 274.3C195.499 275 197.499 275 198.599 274.3C199.099 274 199.299 273.7 199.299 273.4C199.299 273.1 198.999 272.7 198.599 272.5C197.999 272.2 197.299 272 196.499 272C195.799 272 194.999 272.1 194.399 272.5Z" fill="black"/>
<path d="M197.199 273.8C197.399 273.8 197.599 273.7 197.699 273.4C198.299 271.3 199.299 268.9 199.799 268.7C200.599 268.6 202.399 268.7 202.499 268.7C202.799 268.7 202.999 268.5 202.999 268.2C202.999 267.9 202.799 267.7 202.499 267.7C202.399 267.7 200.499 267.6 199.599 267.7C198.799 267.8 197.799 269.6 196.699 273.1C196.599 273.4 196.799 273.7 196.999 273.7C197.099 273.8 197.099 273.8 197.199 273.8Z" fill="black"/>
<path d="M214 340.2C214 340.2 212.8 341.1 211.9 340.9C210.9 340.7 209.7 339.4 208.6 338.9C208.1 338.7 206.6 338.7 206.2 338.4C203.6 336.9 203.9 335.3 205 334.7C205 334.7 206.2 334.9 209.7 335.3C210.2 335.4 214 335.9 214.3 336.3C215.4 337.4 215 339.6 214 340.2Z" fill="black"/>
<path d="M211.8 341.4C211.1 341.3 210.5 340.8 209.8 340.3C209.3 339.9 208.8 339.6 208.4 339.4C208.3 339.3 207.8 339.3 207.4 339.2C206.8 339.1 206.2 339.1 205.9 338.9C204 337.8 203.6 336.7 203.6 336C203.6 335.3 204 334.7 204.6 334.3L204.8 334.2H205C205 334.2 206.2 334.4 209.7 334.8C209.7 334.8 214 335.3 214.6 335.9C215.3 336.5 215.6 337.5 215.5 338.5C215.4 339.4 214.9 340.2 214.3 340.6C214.1 340.7 213.1 341.4 212.1 341.4C211.9 341.4 211.8 341.4 211.8 341.4ZM204.6 336C204.6 336.6 205.2 337.3 206.4 338C206.6 338.1 207.1 338.2 207.5 338.2C208 338.3 208.5 338.3 208.8 338.5C209.4 338.8 209.9 339.2 210.4 339.5C211 339.9 211.6 340.4 212 340.4C212.5 340.5 213.3 340.1 213.7 339.8C214.1 339.6 214.3 339.1 214.4 338.5C214.5 337.8 214.3 337.2 213.9 336.8C213.5 336.5 210.4 336.1 209.5 335.9C206.8 335.6 205.4 335.4 205 335.4C204.8 335.4 204.6 335.6 204.6 336Z" fill="black"/>
<path d="M220.599 336.3C220.199 336.6 219.099 337.3 218.099 337.2C217.199 337 216.399 335.7 215.299 335.2C214.799 335 214.399 334.8 213.999 334.5C211.399 333 210.699 331.7 211.799 331.1C212.699 330.6 214.499 330.7 216.499 331.7C216.899 331.9 220.699 332.3 221.099 332.7C222.199 333.8 221.699 335.7 220.599 336.3Z" fill="black"/>
<path d="M218 337.7C217.4 337.6 216.8 337.1 216.3 336.6C215.9 336.2 215.5 335.9 215 335.7C214.5 335.5 214.1 335.2 213.6 335C212.2 334.2 210.6 333 210.6 331.8C210.6 331.3 210.9 330.9 211.3 330.6C212.4 330 214.4 330.2 216.5 331.2C216.6 331.3 217.4 331.4 218 331.5C220.2 331.9 220.9 332 221.2 332.3C221.8 332.9 222.1 333.8 222 334.7C221.9 335.6 221.4 336.4 220.7 336.8L220.5 336.9C220 337.2 219.1 337.7 218.2 337.7C218.3 337.7 218.2 337.7 218 337.7ZM220.4 335.9C220.8 335.7 221.1 335.1 221.2 334.5C221.2 334.2 221.2 333.5 220.7 333C220.4 332.8 218.8 332.6 218 332.4C216.9 332.2 216.5 332.1 216.3 332C214.2 331.1 212.7 331 212 331.4C211.8 331.5 211.8 331.6 211.8 331.7C211.8 332.1 212.4 332.9 214.3 334C214.7 334.2 215.2 334.5 215.6 334.7C216.2 335 216.7 335.4 217.1 335.8C217.5 336.2 218 336.6 218.3 336.6C218.9 336.7 219.8 336.2 220.2 335.9H220.4Z" fill="black"/>
<path d="M217.1 284.9C217.3 284.9 217.5 284.9 217.7 284.8C218.1 284.6 222 282.9 223.5 281.3C224 280.7 225.5 279.3 222 263.7C221.8 262.9 221 262.3 220.2 262.5C219.4 262.7 218.8 263.5 219 264.3C220.4 270.3 221.5 277.6 221.2 279.2C220.2 280.1 217.8 281.3 216.5 281.9C215.7 282.2 215.4 283.2 215.7 283.9C216 284.6 216.5 284.9 217.1 284.9Z" fill="#DF846A"/>
<path d="M215.2 284.2C215 283.7 215 283.1 215.2 282.6C215.4 282.1 215.8 281.7 216.3 281.5C217.5 281 219.7 279.8 220.8 279C221 277.4 220 270.9 218.6 264.4C218.4 263.3 219 262.2 220.2 261.9C221.3 261.7 222.4 262.4 222.7 263.5C226.3 279.3 224.8 280.9 224.1 281.6C222.5 283.2 218.8 284.9 218.1 285.2C217.8 285.3 217.6 285.4 217.3 285.4C216.3 285.4 215.6 284.9 215.2 284.2ZM220.3 263C220 263.1 219.8 263.2 219.7 263.5C219.6 263.7 219.5 264 219.6 264.3C221 270.3 222.2 277.7 221.8 279.5V279.7L221.7 279.8C220.7 280.7 218.2 282 216.8 282.6C216.5 282.7 216.4 282.9 216.3 283.2C216.2 283.5 216.2 283.7 216.3 284C216.5 284.5 217.1 284.8 217.7 284.5C218.1 284.3 221.9 282.6 223.4 281.1C224.6 279.9 224 274.1 221.7 264C221.6 263.5 221.2 263.2 220.7 263.2C220.5 262.9 220.4 263 220.3 263Z" fill="black"/>
<path d="M218.599 334.5C219.899 334.5 220.999 333.5 220.999 332.1L221.499 303.5C221.499 302.2 220.499 301.1 219.099 301.1C217.799 301 216.699 302.1 216.699 303.5L216.199 332.1C216.199 333.4 217.199 334.5 218.599 334.5C218.499 334.5 218.599 334.5 218.599 334.5Z" fill="#AEC6F7"/>
<path d="M218.599 334.5C219.899 334.5 220.999 333.5 220.999 332.1L221.499 303.5C221.499 302.2 220.499 301.1 219.099 301.1C217.799 301 216.699 302.1 216.699 303.5L216.199 332.1C216.199 333.4 217.199 334.5 218.599 334.5ZM218.599 334.5C218.499 334.5 218.599 334.5 218.599 334.5Z" stroke="#111111" stroke-miterlimit="10"/>
<path d="M218.499 335C217.699 335 216.999 334.7 216.499 334.1C215.999 333.5 215.699 332.8 215.699 332L216.199 303.4C216.199 302.6 216.599 301.9 217.099 301.3C217.699 300.8 218.399 300.5 219.099 300.5C220.699 300.5 221.999 301.9 221.999 303.5L221.499 332.1C221.499 333.8 220.199 335 218.499 335C218.599 335 218.499 335 218.499 335ZM217.799 302.1C217.399 302.5 217.199 302.9 217.199 303.5L216.699 332.1C216.699 332.6 216.899 333.1 217.199 333.4C217.599 333.8 217.999 334 218.499 334V334.5V334C219.499 334 220.399 333.2 220.399 332.1L220.899 303.5C220.899 302.5 220.099 301.6 218.999 301.6C218.999 301.6 218.999 301.6 218.899 301.6C218.599 301.6 218.199 301.8 217.799 302.1Z" fill="black"/>
<path d="M212 338.3C212.1 338.3 212.1 338.3 212 338.3C213.4 338.2 214.5 337.1 214.4 335.8L213.3 305.1C213.3 303.8 212.1 302.7 210.8 302.8C209.5 302.8 208.4 304 208.5 305.3L209.6 336C209.7 337.3 210.7 338.3 212 338.3Z" fill="#AEC6F7" stroke="#111111" stroke-miterlimit="10"/>
<path d="M209.1 336L208 305.3C208 304.5 208.2 303.8 208.8 303.2C209.3 302.6 210 302.3 210.8 302.3C211.5 302.3 212.3 302.5 212.9 303.1C213.5 303.6 213.8 304.4 213.8 305.2L214.9 335.9C215 337.5 213.7 338.9 212.1 338.9H212C210.5 338.8 209.2 337.6 209.1 336ZM210.8 303.3C210.3 303.3 209.8 303.5 209.5 303.9C209.2 304.3 209 304.7 209 305.3L210.1 336C210.1 337 211 337.8 212 337.8V338.3L212.1 337.8C213.1 337.8 214 336.9 213.9 335.8L212.8 305.1C212.8 304.6 212.6 304.1 212.2 303.8C211.8 303.5 211.4 303.3 210.8 303.3C210.9 303.3 210.9 303.3 210.8 303.3Z" fill="black"/>
<path d="M210.999 312.1C211.999 311.7 213.299 311 214.899 310.1C222.499 305.7 222.499 303.4 222.499 303.4C226.699 288.6 219.999 286 219.999 281C219.999 276 222.499 274 222.499 264C222.499 262.1 220.899 261.6 219.699 262.4L217.499 263.7C217.499 263.7 217.899 266 215.899 267.1C213.899 268.3 211.999 266.9 211.999 266.9L209.899 268.1C208.399 269 207.399 270.6 207.399 272.4C207.399 277.5 209.099 279.3 209.099 283.1C209.099 289.7 203.599 289.1 206.799 308.8C206.799 309.3 207.299 313.6 210.999 312.1Z" fill="#AEC6F7" stroke="#111111" stroke-miterlimit="10"/>
<path d="M208.199 312.6C207.199 312 206.499 310.8 206.199 308.8C204.099 295.5 205.799 291.3 207.299 287.9C207.999 286.3 208.499 285 208.499 282.9C208.499 281.2 208.099 279.9 207.799 278.5C207.399 276.9 206.799 275 206.799 272.2C206.799 270.2 207.799 268.5 209.499 267.5L211.899 266.1L212.199 266.3C212.199 266.3 213.899 267.5 215.599 266.5C217.199 265.5 216.999 263.7 216.999 263.6L216.899 263.2L219.399 261.7C220.199 261.2 221.199 261.2 221.899 261.6C222.599 262 222.999 262.8 222.999 263.8C222.999 269.7 222.099 272.9 221.399 275.5C220.899 277.3 220.499 278.8 220.499 280.9C220.499 282.4 221.199 283.7 221.899 285.2C223.599 288.6 225.899 293.2 222.999 303.4C222.899 303.9 222.199 306.3 215.199 310.4C213.699 311.3 212.399 312 211.199 312.4C210.599 312.6 210.099 312.8 209.599 312.8C209.099 312.9 208.599 312.8 208.199 312.6ZM221.899 303.4V303.3C224.699 293.4 222.599 289.1 220.899 285.7C220.099 284.1 219.399 282.7 219.399 280.9C219.399 278.7 219.799 277.1 220.399 275.3C221.099 272.8 221.999 269.7 221.999 263.9C221.999 263.3 221.799 262.8 221.399 262.6C220.999 262.4 220.399 262.4 219.899 262.7L217.999 263.8C217.999 264.6 217.899 266.3 216.099 267.4C214.299 268.4 212.599 267.7 211.899 267.4L210.099 268.5C208.699 269.3 207.899 270.7 207.899 272.3C207.899 274.9 208.399 276.7 208.799 278.3C209.199 279.8 209.599 281.1 209.599 282.9C209.599 285.2 208.999 286.7 208.299 288.3C206.899 291.5 205.199 295.5 207.299 308.7C207.599 310.6 208.299 311.4 208.799 311.7C209.299 312 209.999 312 210.899 311.6C211.999 311.2 213.299 310.5 214.699 309.6C221.599 305.6 221.899 303.4 221.899 303.4Z" fill="black"/>
<path d="M205.6 287.7C206.3 287.7 206.9 287.4 207.4 287C209.3 285 210.6 275.8 211.1 271.9C211.2 271.1 210.6 270.3 209.8 270.2C209 270.1 208.2 270.7 208.1 271.5C207.5 276.7 206.3 282.9 205.5 284.6C204.2 284.1 201.2 281.2 198.6 278C198.1 277.3 197.1 277.2 196.4 277.8C195.7 278.3 195.6 279.3 196.2 280C198.1 282.3 202.8 287.7 205.7 287.8C205.5 287.7 205.5 287.7 205.6 287.7Z" fill="#DF846A"/>
<path d="M205.399 288.2C202.399 288.1 197.899 283.1 195.499 280.2C194.799 279.3 194.899 278 195.799 277.3C196.199 277 196.799 276.8 197.299 276.8C197.799 276.9 198.299 277.1 198.699 277.5C201.199 280.5 203.699 282.9 204.999 283.7C205.699 281.7 206.799 276.4 207.399 271.3C207.499 270.8 207.699 270.3 208.199 269.9C208.599 269.6 209.199 269.4 209.699 269.5C210.199 269.6 210.699 269.8 211.099 270.3C211.399 270.7 211.599 271.3 211.499 271.8C210.899 276.7 209.599 285.2 207.699 287.2C207.099 287.8 206.399 288.1 205.599 288.1L205.399 288.2ZM208.799 270.8C208.599 271 208.399 271.2 208.399 271.5C207.799 276.6 206.599 283 205.699 284.7L205.499 285.1L205.099 284.9C203.699 284.3 200.599 281.4 197.999 278.2C197.799 278 197.599 277.9 197.299 277.8C196.999 277.8 196.799 277.9 196.499 278C196.099 278.4 195.999 279 196.399 279.4C200.299 284.1 203.699 286.9 205.499 287H205.599C206.099 287 206.599 286.8 206.999 286.4C208.299 285.1 209.599 279.5 210.499 271.6C210.499 271.3 210.499 271.1 210.299 270.8C210.099 270.6 209.899 270.4 209.599 270.4H209.499C209.199 270.6 208.999 270.7 208.799 270.8Z" fill="black"/>
<path d="M217.4 263.6C215.6 261.4 216.1 259.9 216.1 259.9C216.1 259.9 217 255.7 216.7 253.2C216.4 250.7 214.5 247.9 212 248.4C209.5 249 206.1 249.5 206.1 253.7C206.1 264.9 210.5 263.6 210.5 263.6L212.1 266.9C212.1 266.9 219.2 265.8 217.4 263.6Z" fill="#DF846A"/>
<path d="M212.1 267.4C212.2 267.4 212.3 267.4 212.3 267.3C212.6 267.2 212.7 266.9 212.5 266.6L210.9 263.3C210.8 263.1 210.5 263 210.3 263C210.3 263 209.6 263.2 208.8 262.6C207.8 261.8 206.5 259.6 206.5 253.6C206.5 250.1 209.1 249.5 211.5 248.9L212 248.8C212.7 248.6 213.4 248.8 214 249.2C215.1 249.9 215.9 251.5 216.1 253.1C216.4 255.5 215.5 259.6 215.5 259.6C215.5 259.6 215 261.3 216.9 263.7C217.1 263.9 217.4 264 217.6 263.8C217.8 263.6 217.9 263.3 217.7 263.1C216.1 261.2 216.4 259.9 216.5 259.9C216.5 259.7 217.5 255.6 217.2 253C217 251.1 216 249.3 214.7 248.4C213.8 247.8 212.9 247.6 211.9 247.8L211.4 247.9C208.9 248.4 205.6 249.2 205.6 253.6C205.6 258.7 206.5 262 208.3 263.4C209 264 209.8 264 210.2 264L211.6 266.9C211.8 267.3 212 267.4 212.1 267.4Z" fill="black"/>
<path d="M206.099 251C205.599 253.5 208.299 256.1 209.599 258.1C210.899 260.1 213.999 263.3 214.599 267C215.199 270.7 214.099 279.9 214.399 281.7C214.699 283.5 217.699 286.8 217.699 286.8C217.699 286.8 216.099 281.6 216.199 279.5C216.299 277.4 217.999 270.3 217.999 267.1C217.999 263.9 216.099 260.8 216.099 260.8C216.099 260.8 217.999 256.3 217.999 253.7C217.999 251.1 216.399 247.6 213.099 247.2C210.199 246.9 206.499 249.1 206.099 251Z" fill="white"/>
<path d="M217.299 287.2C216.999 286.8 214.199 283.7 213.899 281.8C213.799 281 213.899 279.1 213.999 276.6C214.199 273.3 214.399 269.2 214.099 267.1C213.599 264.4 211.699 261.9 210.299 260C209.899 259.4 209.399 258.9 209.099 258.4C208.799 258 208.499 257.5 208.099 257C206.799 255.3 205.099 253.1 205.599 250.9C206.099 248.6 210.199 246.3 213.199 246.7C216.899 247.2 218.599 251.1 218.599 253.8C218.599 256.1 217.099 259.9 216.699 260.9C217.199 261.7 218.599 264.5 218.599 267.3C218.599 269.2 217.999 272.4 217.499 275.2C217.199 277.1 216.799 278.8 216.799 279.7C216.699 281.7 218.299 286.7 218.299 286.8L217.299 287.2ZM206.599 251.1C206.299 252.8 207.699 254.7 208.899 256.3C209.299 256.8 209.699 257.3 209.999 257.8C210.299 258.2 210.699 258.8 211.099 259.3C212.599 261.2 214.599 263.9 215.099 266.9C215.499 269.1 215.199 273.3 214.999 276.6C214.899 278.8 214.799 280.9 214.899 281.5C214.999 282.2 215.599 283.2 216.299 284.2C215.899 282.6 215.499 280.6 215.499 279.4C215.499 278.5 215.899 276.8 216.199 274.8C216.699 272 217.299 268.8 217.299 267C217.299 264.1 215.499 261 215.399 260.9V260.4C215.399 260.4 217.299 255.9 217.299 253.5C217.299 251.2 215.899 247.9 212.899 247.5C210.399 247.5 206.999 249.6 206.599 251.1Z" fill="black"/>
<path d="M197.499 280.4C197.899 280.4 198.299 280.2 198.399 279.8C198.599 279.3 198.499 277.3 197.999 276.8C197.399 276.2 196.899 277.8 196.699 277.6C196.499 277.4 196.099 277 195.899 276.8C195.599 276.3 194.899 276.3 194.499 276.6C193.999 276.9 193.999 277.6 194.299 278C195.399 279.4 197.099 280.3 197.099 280.3C197.199 280.4 197.399 280.4 197.499 280.4Z" fill="#DF846A"/>
<path d="M196.899 280.8C196.899 280.8 195.099 279.9 193.799 278.3C193.499 278 193.399 277.6 193.499 277.2C193.599 276.8 193.799 276.4 194.099 276.2C194.399 276 194.799 275.8 195.199 275.9C195.599 276 195.999 276.2 196.199 276.5C196.299 276.6 196.399 276.8 196.599 276.9C196.799 276.6 197.199 276.2 197.599 276.1C197.799 276.1 197.999 276.1 198.299 276.4C199.099 277.2 199.099 279.3 198.899 280C198.699 280.6 198.099 280.9 197.499 280.9C197.299 280.9 197.099 280.9 196.899 280.8ZM197.399 277.6C197.199 277.9 196.999 278.1 196.699 278.2H196.399L196.199 278C195.999 277.8 195.599 277.4 195.399 277.1C195.299 277 195.199 276.9 195.099 276.9C194.999 276.9 194.799 276.9 194.699 277C194.599 277.1 194.499 277.2 194.499 277.3C194.499 277.4 194.499 277.6 194.599 277.7C195.599 279 197.199 279.9 197.199 279.9C197.499 280 197.799 279.9 197.899 279.6C197.999 279.3 197.999 277.8 197.599 277.2C197.599 277.3 197.499 277.5 197.399 277.6Z" fill="black"/>
<path d="M117.3 225.7C112.8 225.7 82.3996 225.5 50.0996 202.3C16.4996 178.2 8.09961 148.9 7.09961 145" stroke="#111111" stroke-miterlimit="10"/>
<path d="M108.6 218.4L107.8 224.8L100.1 223.6L101.2 217.1L108.6 218.4Z" fill="#111111" stroke="#020202" stroke-miterlimit="10"/>
<path d="M105.6 219.2C108.803 219.2 111.4 216.603 111.4 213.4C111.4 210.197 108.803 207.6 105.6 207.6C102.397 207.6 99.7998 210.197 99.7998 213.4C99.7998 216.603 102.397 219.2 105.6 219.2Z" fill="#FFB24D" stroke="#111111" stroke-miterlimit="10"/>
<path d="M84.2998 227L85.6998 220.7L93.2998 222.8L91.4998 229.2L84.2998 227Z" fill="#111111" stroke="#020202" stroke-miterlimit="10"/>
<path d="M86.6994 238.1C89.9027 238.1 92.4994 235.503 92.4994 232.3C92.4994 229.097 89.9027 226.5 86.6994 226.5C83.4962 226.5 80.8994 229.097 80.8994 232.3C80.8994 235.503 83.4962 238.1 86.6994 238.1Z" fill="#AEC6F7" stroke="#111111" stroke-miterlimit="10"/>
<path d="M79.6992 210.9L77.3992 216.9L70.1992 213.8L72.8992 207.7L79.6992 210.9Z" fill="#111111" stroke="#020202" stroke-miterlimit="10"/>
<path d="M78.0988 211.1C81.3021 211.1 83.8988 208.503 83.8988 205.3C83.8988 202.097 81.3021 199.5 78.0988 199.5C74.8956 199.5 72.2988 202.097 72.2988 205.3C72.2988 208.503 74.8956 211.1 78.0988 211.1Z" fill="#F2F2F2" stroke="#111111" stroke-miterlimit="10"/>
<path d="M52.499 212L55.599 206.3L62.399 210.3L58.999 216L52.499 212Z" fill="#111111" stroke="#020202" stroke-miterlimit="10"/>
<path d="M53.4992 223.5C56.7025 223.5 59.2992 220.903 59.2992 217.7C59.2992 214.497 56.7025 211.9 53.4992 211.9C50.296 211.9 47.6992 214.497 47.6992 217.7C47.6992 220.903 50.296 223.5 53.4992 223.5Z" fill="#C61109" stroke="#111111" stroke-miterlimit="10"/>
<path d="M50.2998 194.4L46.3998 199.6L40.2998 194.7L44.4998 189.5L50.2998 194.4Z" fill="#111111" stroke="#020202" stroke-miterlimit="10"/>
<path d="M50.1994 194.4C53.4027 194.4 55.9994 191.803 55.9994 188.6C55.9994 185.397 53.4027 182.8 50.1994 182.8C46.9962 182.8 44.3994 185.397 44.3994 188.6C44.3994 191.803 46.9962 194.4 50.1994 194.4Z" fill="#AEC6F7" stroke="#111111" stroke-miterlimit="10"/>
<path d="M21.0996 184.3L25.7996 179.8L30.9996 185.7L25.9996 190.1L21.0996 184.3Z" fill="#111111" stroke="#020202" stroke-miterlimit="10"/>
<path d="M20.1994 195.9C23.4027 195.9 25.9994 193.303 25.9994 190.1C25.9994 186.897 23.4027 184.3 20.1994 184.3C16.9962 184.3 14.3994 186.897 14.3994 190.1C14.3994 193.303 16.9962 195.9 20.1994 195.9Z" fill="#F2F2F2" stroke="#111111" stroke-miterlimit="10"/>
<path d="M26.2992 169.2L20.8992 172.9L16.6992 166.3L22.2992 162.7L26.2992 169.2Z" fill="#111111" stroke="#020202" stroke-miterlimit="10"/>
<path d="M27.9992 169.5C31.2025 169.5 33.7992 166.903 33.7992 163.7C33.7992 160.497 31.2025 157.9 27.9992 157.9C24.796 157.9 22.1992 160.497 22.1992 163.7C22.1992 166.903 24.796 169.5 27.9992 169.5Z" fill="#FFB24D" stroke="#111111" stroke-miterlimit="10"/>
<path d="M38.5 0.766602C30.8688 0.766602 24.625 6.7466 24.625 14.1066C24.625 17.0199 25.6271 19.7799 27.4 22.0799L37.8833 35.7266C38.1146 36.0333 38.6542 36.1099 38.9625 35.8799C39.0396 35.8033 39.0396 35.8033 39.1167 35.7266L49.6 22.0799C51.3729 19.7799 52.375 17.0199 52.375 14.1066C52.375 6.7466 46.1312 0.766602 38.5 0.766602ZM37.4208 19.3199C34.4917 18.7066 32.5646 15.9466 33.1812 13.0333C33.7979 10.1199 36.5729 8.20327 39.5021 8.8166C41.6604 9.2766 43.3562 10.8866 43.7417 13.0333C44.2812 15.9466 42.3542 18.7833 39.5021 19.3199C38.8083 19.4733 38.1146 19.4733 37.4208 19.3199Z" fill="#F3BC54"/>
<rect x="20" y="48" width="112" height="35" fill="#F3BC54"/>
<path d="M40.386 58.4C39.486 61.946 38.37 65.384 37.092 69.164C35.994 65.978 34.644 61.55 33.744 58.4C32.268 58.22 31.44 58.22 30.18 58.4C32.016 62.828 33.42 66.788 34.824 71C35.922 71.18 36.57 71.18 37.668 71C39.306 66.806 41.124 62 42.636 58.4C41.898 58.22 41.124 58.22 40.386 58.4ZM45.6066 60.398C46.5786 60.398 47.2086 59.75 47.2086 58.976C47.2086 58.166 46.5786 57.518 45.6066 57.518C44.6346 57.518 44.0046 58.166 44.0046 58.976C44.0046 59.75 44.6346 60.398 45.6066 60.398ZM44.0766 71C45.0666 70.91 46.0746 70.91 47.0826 71C46.9926 67.868 46.9926 64.79 47.0826 61.658C46.0746 61.748 45.0666 61.748 44.0766 61.658C44.1486 64.79 44.1486 67.868 44.0766 71ZM58.9695 65.528C58.9515 62.648 57.6375 61.388 55.6215 61.388C53.8935 61.388 52.7775 62.342 52.3275 64.034L50.7435 61.658H49.7175C49.8435 64.808 49.8255 67.85 49.7355 71C50.7435 70.91 51.7515 70.91 52.7595 71C52.7415 69.29 52.7235 67.544 52.7235 66.392C52.7235 63.944 53.4075 62.684 54.5055 62.684C55.6935 62.666 55.9455 63.908 55.9815 65.492C56.0355 67.508 56.0715 69.092 56.0175 71C57.0075 70.91 58.0155 70.91 59.0055 71C59.0055 69.164 58.9875 67.454 58.9695 65.528ZM69.5418 71.234C71.9178 71.234 73.7718 69.974 74.1318 67.85L71.0898 67.364L70.7658 67.49C70.9458 68.012 70.9998 68.462 70.9998 68.876C70.9998 70.118 70.3158 70.586 69.6858 70.586C68.4618 70.586 67.7058 69.2 67.7058 66.23C67.7058 63.35 68.4438 62.036 69.7218 62.036C70.3698 62.036 70.9458 62.468 70.9458 63.494C70.9458 63.89 70.8738 64.322 70.7118 64.898L71.0538 65.024L74.0238 64.538C73.6638 62.666 71.9718 61.388 69.5418 61.388C66.4998 61.388 64.5918 63.368 64.5918 66.266C64.5918 69.182 66.4998 71.234 69.5418 71.234ZM85.2676 65.528C85.3576 62.396 83.6836 61.388 82.0276 61.388C80.4616 61.388 79.2736 62.234 78.8056 63.728C78.8416 61.604 78.9136 59.066 79.0036 57.86C78.0496 57.68 77.0056 57.68 76.0336 57.86C76.1956 61.244 76.1236 67.508 76.0336 71C77.0416 70.91 78.0496 70.91 79.0396 71C79.0396 69.218 79.0216 67.526 79.0396 65.816C79.0576 63.908 79.7236 62.684 80.8756 62.684C81.7936 62.684 82.2616 63.602 82.2796 65.06C82.3156 67.04 82.3516 69.002 82.2976 71C83.2876 70.91 84.3136 70.91 85.3036 71C85.2676 69.164 85.2676 67.364 85.2676 65.528ZM91.8082 61.388C89.3602 61.388 87.7402 62.54 87.3982 64.07L90.3682 64.934L90.6742 64.754C90.4042 64.412 90.2782 64.016 90.2782 63.602C90.2782 62.774 90.7822 62 91.7182 62C93.0862 62 93.2302 63.674 93.2482 65.348C89.7382 65.51 87.1282 66.788 87.1282 68.966C87.1282 70.37 88.1902 71.27 89.9002 71.27C92.2222 71.27 93.1942 69.362 93.4822 68.264L94.8502 71H96.0922V65.402C96.0922 62.648 94.4182 61.388 91.8082 61.388ZM91.1782 69.884C90.5482 69.866 90.0982 69.434 90.0982 68.552C90.0982 67.274 91.0522 66.158 93.2482 65.96C93.1762 68.21 92.3842 69.884 91.1782 69.884ZM107.247 71C107.121 67.85 107.139 64.808 107.229 61.658C106.221 61.748 105.213 61.748 104.205 61.658C104.241 63.368 104.241 63.044 104.241 66.518C104.241 68.678 103.539 69.92 102.477 69.938C101.703 69.956 101.325 69.308 101.307 67.49C101.289 65.204 101.271 66.032 101.289 61.658C100.281 61.748 99.2733 61.748 98.2833 61.658C98.3193 63.512 98.3013 65.24 98.3193 67.328C98.3193 70.316 99.7413 71.234 101.487 71.234C103.071 71.234 104.259 70.118 104.637 68.606L106.221 71H107.247ZM112.846 71.27C114.394 71.252 115.51 70.334 116.032 68.786L117.58 71H118.606C118.48 67.508 118.498 61.262 118.606 57.86C117.652 57.68 116.572 57.68 115.618 57.86C115.726 59.498 115.744 61.352 115.798 62.972C115.276 62 114.268 61.388 113.008 61.388C110.542 61.388 109.012 63.314 109.012 66.374C109.012 69.524 110.596 71.306 112.846 71.27ZM113.818 69.974C112.684 69.974 112.054 68.606 112.054 66.266C112.054 63.908 112.702 62.54 113.818 62.54C114.988 62.54 115.672 63.98 115.654 66.266C115.654 68.66 114.952 69.974 113.818 69.974Z" fill="black"/>
</svg>
