<svg width="310" height="336" viewBox="0 0 310 336" fill="none" xmlns="http://www.w3.org/2000/svg">
<g clip-path="url(#clip0)">
<path d="M183.3 155.9L71.5 155.4L63.2 160.1L175.1 160.7L44.7 235.9L49.4 238.6L-45.3 238.1L-53.5 242.9L57.8 243.5L113.8 275.7L73.9 298.7H139.6L146.7 294.6L162.6 303.8L67.3 303.3L59.1 308L171 308.6L309.6 228.6L183.3 155.9Z" fill="#BABCBE"/>
<path d="M74.0998 254.7L30.4998 229.7L143.9 164.2L187.4 189.2L74.0998 254.7Z" fill="white"/>
<path d="M74.0999 255.7C73.8999 255.7 73.7999 255.7 73.5999 255.6L30.0999 230.6C29.7999 230.4 29.5999 230.1 29.5999 229.7C29.5999 229.3 29.7999 229 30.0999 228.8L143.4 163.3C143.7 163.1 144.1 163.1 144.4 163.3L187.9 188.3C188.2 188.5 188.4 188.8 188.4 189.2C188.4 189.6 188.2 189.9 187.9 190.1L74.5999 255.6C74.3999 255.6 74.1999 255.7 74.0999 255.7ZM32.4999 229.6L73.9999 253.5L185.4 189.1L143.9 165.2L32.4999 229.6Z" fill="black"/>
<path d="M74.3999 298.6L72.8999 297.7V254.7L73.3999 253.8L186.9 188.3L188.4 189.2V232.2L187.9 233.1L74.3999 298.6ZM74.8999 255.3V296L186.4 231.6V190.9L74.8999 255.3Z" fill="black"/>
<path d="M73.9 298.7C73.7 298.7 73.6 298.7 73.4 298.6L30 273.6C29.7 273.4 29.5 273.1 29.5 272.7V229.7C29.5 229.3 29.7 229 30 228.8C30.3 228.6 30.7 228.6 31 228.8L74.4 253.8C74.7 254 74.9 254.3 74.9 254.7V297.7C74.9 298.1 74.7 298.4 74.4 298.6C74.3 298.7 74.1 298.7 73.9 298.7ZM31.5 272.1L72.9 296V255.3L31.5 231.4V272.1Z" fill="black"/>
<path d="M205.5 108L59.8 192.1V154.5L132.6 88.0999L205.5 70.3999V108Z" fill="#AEC6F7" stroke="#111111" stroke-miterlimit="10"/>
<path d="M60.3 192.9L58.8 192V154.4L59.1001 153.7L132.4 87.0998L205.2 69.2998L206.4 70.2998V108L205.9 108.9L60.3 192.9ZM60.8 154.9V190.4L204.5 107.5V71.5998L133.1 88.9998L60.8 154.9Z" fill="#AEC6F7" stroke="#111111" stroke-miterlimit="10"/>
<path d="M205.5 70.3999L132.6 88.0999L59.8 154.5V163.6L132.6 97.2999L205.5 79.4999V70.3999Z" fill="#AEC6F7" stroke="#111111" stroke-miterlimit="10"/>
<path d="M60.8 154.9V161.4L132 96.4999C132.1 96.3999 132.3 96.2999 132.4 96.2999L204.5 78.6999V71.5999L133.1 88.9999L60.8 154.9Z" fill="#AEC6F7" stroke="#111111" stroke-miterlimit="10"/>
<path d="M66.6001 303.6L59.8 307.5V199.2L66.6001 195.3V303.6Z" fill="#111111"/>
<path d="M60.3 308.3L58.8 307.4V199.2L59.3 198.3L66.1001 194.4L67.6001 195.3V303.6L67.1001 304.5L60.3 308.3ZM60.8 199.8V305.8L65.6001 303V197L60.8 199.8Z" fill="#111111"/>
<path d="M53 303.6L59.8 307.5V199.2L53 195.3V303.6Z" fill="white"/>
<path d="M59.8 308.5C59.6 308.5 59.5 308.5 59.3 308.4L52.5 304.5C52.2 304.3 52 304 52 303.6V195.3C52 194.9 52.2 194.6 52.5 194.4C52.8 194.2 53.2 194.2 53.5 194.4L60.3 198.3C60.6 198.5 60.8 198.8 60.8 199.2V307.5C60.8 307.9 60.6 308.2 60.3 308.4C60.2 308.4 60 308.5 59.8 308.5ZM54 303L58.8 305.8V199.8L54 197V303Z" fill="black"/>
<path d="M205.5 223.6L198.7 227.5V119.2L205.5 115.3V223.6Z" fill="#111111"/>
<path d="M199.2 228.4L197.7 227.5V119.2L198.2 118.3L205 114.4L206.5 115.3V223.6L206 224.5L199.2 228.4ZM199.7 119.8V225.8L204.5 223V117L199.7 119.8Z" fill="#111111"/>
<path d="M191.9 223.6L198.7 227.5V119.2L191.9 123.1V223.6Z" fill="white"/>
<path d="M198.7 228.5C198.5 228.5 198.4 228.5 198.2 228.4L191.4 224.5C191.1 224.3 190.9 224 190.9 223.6V123.1C190.9 122.7 191.1 122.4 191.4 122.2L198.2 118.3C198.5 118.1 198.9 118.1 199.2 118.3C199.5 118.5 199.7 118.8 199.7 119.2V227.5C199.7 227.9 199.5 228.2 199.2 228.4C199 228.5 198.8 228.5 198.7 228.5ZM192.8 223L197.6 225.8V121L192.8 123.7V223Z" fill="black"/>
<path d="M205.5 115.3L59.8 199.4V192.1L205.5 108V115.3Z" fill="#AEC6F7" stroke="#111111" stroke-miterlimit="10"/>
<path d="M59.8 200.4C59.6 200.4 59.5 200.4 59.3 200.3C59 200.1 58.8 199.8 58.8 199.4V192.1C58.8 191.7 59 191.4 59.3 191.2L205 107.1C205.3 106.9 205.7 106.9 206 107.1C206.3 107.3 206.5 107.6 206.5 108V115.3C206.5 115.7 206.3 116 206 116.2L60.4 200.3C60.2 200.4 60 200.4 59.8 200.4ZM60.8 192.7V197.7L204.5 114.7V109.7L60.8 192.7Z" fill="black"/>
<path d="M-60.4001 130L59.7999 199.4V154.5L-60.4001 85.0999V130Z" fill="#111111"/>
<path d="M59.8 200.4C59.6 200.4 59.5 200.4 59.3 200.3L-60.8 130.9C-61.1 130.7 -61.3 130.4 -61.3 130V85.0998C-61.3 84.6998 -61.1 84.3998 -60.8 84.1998C-60.5 83.9998 -60.1 83.9998 -59.8 84.1998L60.3999 153.6C60.6999 153.8 60.8999 154.1 60.8999 154.5V199.4C60.8999 199.8 60.6999 200.1 60.3999 200.3C60.1999 200.4 60 200.4 59.8 200.4ZM-59.4 129.4L58.8 197.6V155L-59.4 86.7998V129.4Z" fill="#111111"/>
<path d="M-60.4001 130L59.7999 199.4V192.1L-60.4001 122.8V130Z" fill="#AEC6F7" stroke="#111111" stroke-miterlimit="10"/>
<path d="M-60.4001 94.1999L59.7999 163.6V154.5L-60.4001 85.0999V94.1999Z" fill="#AEC6F7" stroke="#111111" stroke-miterlimit="10"/>
<path d="M132.6 88.0999L12.4999 18.7L-60.4001 85.0999L59.7999 154.5L132.6 88.0999Z" fill="white"/>
<path d="M59.8 155.5C59.6 155.5 59.5 155.5 59.3 155.4L-60.8 85.8999C-61.1 85.6999 -61.3 85.4999 -61.3 85.0999C-61.3 84.7999 -61.2 84.4999 -61 84.2999L11.8 17.9999C12.1 17.6999 12.6 17.6999 13 17.8999L133.2 87.2999C133.5 87.4999 133.7 87.6999 133.7 88.0999C133.7 88.3999 133.6 88.6999 133.4 88.8999L60.6 155.2C60.3 155.4 60.1 155.5 59.8 155.5ZM-58.7 84.8999L59.7 153.2L131 88.2999L12.6 19.9999L-58.7 84.8999Z" fill="black"/>
<path d="M132.6 89.0999C132.4 89.0999 132.3 89.0999 132.1 88.9999L12 19.5999C11.6 19.3999 11.5 18.9999 11.5 18.5999C11.6 18.1999 11.9 17.8999 12.2 17.7999L85.1 -8.25487e-05C85.3 -0.100083 85.6 -8.2545e-05 85.8 0.0999175L206 69.4999C206.4 69.6999 206.5 70.0999 206.5 70.4999C206.4 70.8999 206.1 71.1999 205.8 71.2999L133 89.0999C132.8 89.0999 132.7 89.0999 132.6 89.0999ZM15.1 19.0999L132.8 86.9999L202.8 69.8999L85.1 2.09992L15.1 19.0999Z" fill="black"/>
<path d="M104 138L96.7 142.2V154.6L104 150.4V148L99.3999 150.7V147.6L103.7 145.1V142.7L99.3999 145.2V143L104 140.3V138ZM102.9 134L100.5 135.4L99 139.6L100.7 138.6L102.9 134Z" fill="black"/>
<path d="M110.5 134C108.9 134.9 107.6 136.3 106.6 138C105.6 139.7 105.2 141.6 105.2 143.5C105.2 145.5 105.7 146.9 106.7 147.4C107.7 148 108.9 147.8 110.6 146.9C111.1 146.6 111.5 146.3 111.8 146.1C112.1 145.9 112.4 145.6 112.8 145.3C113.1 145 113.3 144.8 113.6 144.5C113.9 144.2 114.1 144 114.3 143.7V140.8L114 141C113.9 141.2 113.7 141.5 113.5 141.8C113.3 142.1 113.1 142.4 112.9 142.7C112.7 143 112.4 143.3 112.1 143.6C111.8 143.9 111.4 144.2 111.1 144.4C110.8 144.6 110.4 144.7 110.1 144.8C109.8 144.9 109.4 144.8 109.2 144.7C108.9 144.5 108.7 144.3 108.5 143.8C108.3 143.4 108.2 142.8 108.2 142C108.2 141.3 108.3 140.6 108.4 139.9C108.6 139.3 108.8 138.7 109.1 138.2C109.4 137.7 109.7 137.3 110 136.9C110.3 136.6 110.7 136.3 111.1 136.1C111.4 135.9 111.7 135.8 112.1 135.7C112.4 135.7 112.7 135.6 112.9 135.7C113.2 135.7 113.4 135.8 113.6 135.9C113.8 136 114 136 114.1 136.1L114.4 135.9V132.9C114.2 132.9 114 132.9 113.7 132.9C113.4 132.9 113.1 133 112.9 133C112.6 133.1 112.3 133.2 111.9 133.3C111.4 133.6 111 133.8 110.5 134Z" fill="black"/>
<path d="M118.5 135.3V132L119.4 131.5C119.7 131.3 120 131.2 120.2 131.1C120.4 131 120.6 130.9 120.8 130.9C121 130.9 121.2 131 121.3 131.1C121.4 131.3 121.5 131.5 121.5 131.8C121.5 132.2 121.5 132.5 121.4 132.7C121.3 133 121.2 133.2 121 133.5C120.8 133.8 120.6 134 120.3 134.2C120 134.4 119.7 134.6 119.3 134.8L118.5 135.3ZM120.2 128.7L115.8 131.2V143.6L118.5 142V137.4L119.5 136.8L122.5 139.6L125.8 137.7L122.1 134.5C122.7 133.8 123.2 133 123.6 132.2C124 131.4 124.2 130.5 124.2 129.5C124.2 128.8 124.1 128.3 123.9 128C123.7 127.7 123.4 127.5 123 127.5C122.6 127.4 122.2 127.5 121.8 127.7C121.3 128.1 120.8 128.4 120.2 128.7Z" fill="black"/>
<path d="M132 121.9L126.2 125.2V127.4L127.7 126.5L127.8 134.6L126.2 135.5V137.7L132.1 134.3L132 132.2L130.5 133V125L132 124.1V121.9Z" fill="black"/>
<path d="M142.9 115.6L140.1 117.2L137.8 127L135.4 119.9L132.6 121.5L136.3 131.8L139.2 130.2L142.9 115.6Z" fill="black"/>
<path d="M146.7 121L147.8 116.3L148.9 119.8L146.7 121ZM149.3 111.9L146.3 113.6L142.7 128.2L145.4 126.6L146.1 123.7L149.5 121.7L150.2 123.8L153 122.2L149.3 111.9Z" fill="black"/>
<path d="M159.5 106L153.6 109.4V111.6L155.2 110.7V118.8L153.7 119.7V121.8L159.5 118.5V116.3L157.9 117.2V109.1L159.5 108.2V106Z" fill="black"/>
<path d="M170.6 99.5999L168.1 101.1V108.2L164.6 103.1L161.3 105V117.4L163.8 116V107.3L168 113.6L170.6 112.1V99.5999Z" fill="black"/>
<path d="M126.4 180.69V190.39L145 201.09V191.39L126.4 180.69Z" fill="#AEC6F7" stroke="#111111" stroke-miterlimit="10"/>
<path d="M158.9 183.19L145 191.39L126.4 180.69L140.4 172.49L158.9 183.19Z" fill="#AEC6F7" stroke="#111111" stroke-miterlimit="10"/>
<path d="M158.9 186.59L145 194.79L126.4 183.99L140.4 175.89L158.9 186.59Z" fill="white"/>
<path d="M140.4 172.09L126 180.49V190.69L145 201.69L159.4 193.29V183.09L140.4 172.09ZM144.6 200.39L126.8 190.09V181.29L144.6 191.59V200.39ZM127.1 180.69L140.3 172.99L158.1 183.29L144.9 190.99L127.1 180.69Z" fill="#15110E"/>
<path d="M145 201.09V206.39L127.4 196.19V190.99L145 201.09Z" fill="#AEC6F7" stroke="#111111" stroke-miterlimit="10"/>
<path d="M145 200.69L127 190.29V196.49L145.1 206.89L157.6 199.59V193.29L145 200.69ZM127.8 195.99V191.59L144.6 201.29L144.7 205.69L127.8 195.99Z" fill="#15110E"/>
<path d="M144.8 201.29V200.39L157.4 192.99V193.89L144.8 201.29Z" fill="#AEC6F7"/>
<path d="M150.2 187.99L132.1 177.59L132.5 176.89L150.9 187.49L150.2 187.99Z" fill="#15110E"/>
<path d="M149.6 204.19L148.8 204.69L150.2 197.29V187.99L150.9 187.49V197.39L149.6 204.19Z" fill="#AEC6F7"/>
<path d="M150.5 181.29C150.3 180.79 149.9 180.19 148.8 179.99C147.4 179.69 146 181.19 145.1 182.39C145.1 181.99 145.1 181.69 145.1 181.29C145 180.19 143.4 178.39 142.1 178.29C141.7 178.19 140.9 178.29 140.5 179.49C139.7 181.79 143 183.69 144.1 184.29L144 184.49L144.5 184.59L144.9 184.79V184.69C145.4 184.69 146.2 184.79 147 184.79C148.2 184.79 149.4 184.69 149.8 184.19C150.4 183.29 150.8 182.19 150.5 181.29ZM141.2 179.59C141.4 178.99 141.7 178.89 141.9 178.89H142C143 178.99 144.3 180.49 144.3 181.19C144.4 181.99 144.3 182.79 144.2 183.39C143 182.69 140.7 180.99 141.2 179.59ZM149.3 183.39C148.9 183.79 147 183.79 145.2 183.69C145.9 182.49 147.4 180.49 148.7 180.69C149.3 180.79 149.7 181.09 149.8 181.49C150 182.09 149.7 182.99 149.3 183.39Z" fill="#15110E"/>
<path d="M145.8 187.09C145.5 187.09 145.2 186.99 144.8 186.89C143.8 186.39 144.1 185.59 144.3 185.09C144.4 184.89 144.5 184.59 144.4 184.49C144.4 184.39 144.2 184.39 144.1 184.29C143.4 184.09 142.8 184.09 142.3 184.29C141.6 184.69 141.4 185.49 141.4 185.49L140.7 185.29C140.7 185.29 141 184.09 142 183.59C142.7 183.19 143.5 183.19 144.4 183.49C144.8 183.59 145.1 183.79 145.2 184.09C145.4 184.49 145.3 184.89 145.1 185.29C144.9 185.89 144.9 185.99 145.2 186.09C146.3 186.59 147 185.69 147.1 185.59L147.7 186.09C147.3 186.59 146.7 187.09 145.8 187.09Z" fill="#15110E"/>
<path d="M148 171.79C148 171.79 148.1 174.19 145.5 174.49C143.6 174.69 142.3 175.09 142 175.19C141.9 175.19 141.6 174.99 141.6 174.99L141.5 173.79C141.5 173.79 143.3 172.99 143.4 172.99C143.5 172.99 144.9 173.09 145.6 172.69C146.2 172.29 146 171.69 145.8 171.19C145.5 170.69 146 170.49 146 170.49L147.8 171.39L147.9 171.49C147.8 171.39 147.9 171.59 148 171.79Z" fill="#AEC6F7"/>
<path d="M142 175.49C141.9 175.49 141.8 175.49 141.8 175.39C141.7 175.39 141.4 175.19 141.3 174.99V174.89L141.2 173.39L141.4 173.29C143.2 172.49 143.3 172.49 143.4 172.49H143.5C144.8 172.59 145.3 172.39 145.4 172.29C145.7 172.09 145.8 171.89 145.5 171.19C145.3 170.89 145.4 170.59 145.4 170.49C145.5 170.19 145.8 170.09 145.8 170.09L145.9 169.99L147.9 170.99L148 171.09C148.2 171.29 148.3 171.49 148.3 171.69C148.3 171.69 148.4 174.39 145.5 174.69C143.6 174.89 142.4 175.29 142.1 175.39L142 175.49ZM141.9 174.69C141.9 174.69 142 174.69 142 174.79C142.4 174.59 143.7 174.29 145.5 174.09C147.6 173.89 147.7 171.99 147.7 171.79C147.7 171.69 147.6 171.59 147.5 171.49L146 170.69C146 170.69 146 170.79 146 170.89C146.2 171.19 146.7 172.19 145.7 172.79C145.3 173.09 144.5 173.19 143.4 173.09C143.2 173.19 142.5 173.49 141.8 173.79L141.9 174.69Z" fill="#15110E"/>
<path d="M147.9 171.49C147 169.89 143.1 173.29 142.5 174.79C142.3 175.09 141.8 175.29 141.4 175.09L140.7 174.79C140.7 174.79 141.2 170.39 144.3 169.69C146.7 169.19 147.9 171.49 147.9 171.49Z" fill="white"/>
<path d="M141.8 175.49C141.6 175.49 141.5 175.49 141.3 175.39L140.4 174.99V174.79C140.4 174.59 140.9 170.19 144.2 169.49C146.7 168.89 148 171.29 148.1 171.49L147.5 171.79C147.4 171.69 147.3 171.49 147 171.49C145.7 171.59 143.2 173.89 142.7 174.99C142.6 175.29 142.2 175.49 141.8 175.49ZM141.1 174.59L141.5 174.79C141.8 174.89 142.1 174.79 142.1 174.69C142.6 173.39 145.2 170.99 146.8 170.79C146.3 170.29 145.4 169.79 144.3 170.09C141.9 170.59 141.2 173.69 141.1 174.59Z" fill="#15110E"/>
<path d="M134.4 171.59C134.4 171.59 134.3 174.09 136.7 174.39C138.5 174.59 139.7 174.99 140 175.09C140.1 175.09 140.4 174.89 140.4 174.79L140.5 173.49C140.5 173.49 139 172.99 138.9 172.99C138.8 172.99 137.2 172.79 136.7 172.39C136.1 171.99 136.3 171.39 136.5 170.79C136.8 170.19 136.3 169.99 136.3 169.99L134.6 170.89L134.5 170.99C134.5 171.19 134.4 171.39 134.4 171.59Z" fill="#AEC6F7"/>
<path d="M140 175.49H139.9C139.6 175.39 138.5 174.99 136.7 174.79C134.5 174.49 134 172.59 134.1 171.69C134.1 171.49 134.2 171.19 134.4 170.99L134.6 170.79L136.4 169.79L136.5 169.89C136.5 169.89 136.8 169.99 136.9 170.29C137 170.49 137 170.69 136.9 170.99C136.6 171.69 136.7 171.99 137 172.19C137.5 172.49 138.9 172.69 139.1 172.69C139.2 172.69 139.2 172.69 140.8 173.29L141 173.39L140.9 174.99C140.8 175.19 140.4 175.39 140.4 175.39C140.2 175.39 140.1 175.49 140 175.49ZM134.7 171.59C134.7 171.79 134.7 173.79 136.8 173.99C138.5 174.19 139.6 174.49 140.1 174.69C140.1 174.69 140.2 174.69 140.2 174.59L140.3 173.69C139.7 173.49 139.1 173.29 139 173.29C139 173.29 137.3 173.09 136.6 172.69C135.7 172.09 136.2 170.99 136.3 170.69C136.3 170.59 136.4 170.49 136.3 170.49L134.9 171.29C134.8 171.39 134.7 171.49 134.7 171.59Z" fill="#15110E"/>
<path d="M134.5 171.29C135.4 169.59 139 173.19 139.6 174.69C139.8 175.09 140.2 175.19 140.6 174.99L141.2 174.69C141.2 174.69 140.8 170.09 137.8 169.39C135.6 168.89 134.5 171.29 134.5 171.29Z" fill="white"/>
<path d="M140.2 175.49C140.1 175.49 140 175.49 139.8 175.39C139.5 175.29 139.3 175.09 139.2 174.89C138.7 173.69 136.4 171.19 135.2 171.19C135 171.19 134.8 171.29 134.7 171.49L134.1 171.19C134.5 170.29 135.9 168.59 137.8 169.09C140.9 169.89 141.4 174.49 141.4 174.69V174.89L140.6 175.29C140.5 175.39 140.4 175.49 140.2 175.49ZM135.4 170.59C137 170.79 139.4 173.49 139.9 174.69C139.9 174.79 140 174.79 140.1 174.89C140.2 174.89 140.3 174.89 140.5 174.89L140.9 174.69C140.8 173.79 140.1 170.49 137.8 169.89C136.6 169.49 135.9 169.99 135.4 170.59Z" fill="#15110E"/>
<path d="M142.1 174.89C142.1 174.79 142.1 174.79 142.1 174.69C142.1 174.49 141.9 173.89 141.2 173.89C140.5 173.89 140.3 174.39 140.2 174.59C140.2 174.69 140.2 174.79 140.2 174.79C140.3 174.99 140.5 175.19 140.8 175.19H141.5C141.8 175.29 142 175.09 142.1 174.89Z" fill="#14100D"/>
<path d="M141.5 175.59H140.8C140.4 175.59 140 175.29 139.9 174.89C139.9 174.69 139.9 174.59 139.9 174.49C140 173.89 140.5 173.49 141.2 173.49C142 173.49 142.4 174.09 142.4 174.59C142.4 174.69 142.4 174.79 142.4 174.89C142.3 175.39 141.9 175.59 141.5 175.59ZM141.2 174.19C140.8 174.19 140.6 174.39 140.5 174.69V174.79C140.5 174.89 140.7 174.99 140.8 174.99H141.5C141.6 174.99 141.8 174.89 141.8 174.79C141.8 174.79 141.8 174.79 141.8 174.69C141.8 174.19 141.3 174.19 141.2 174.19Z" fill="#15110E"/>
</g>
<defs>
<clipPath id="clip0">
<rect width="386.6" height="335.9" fill="white" transform="translate(-77)"/>
</clipPath>
</defs>
</svg>
