<svg width="372" height="351" viewBox="0 0 372 351" fill="none" xmlns="http://www.w3.org/2000/svg">
<path d="M245.3 197.9L133.5 197.4L125.2 202.1L237.1 202.7L106.7 277.9L111.4 280.6L16.7 280.1L8.5 284.9L119.8 285.5L175.8 317.7L135.9 340.7H201.6L208.7 336.6L224.6 345.8L129.3 345.3L121.1 350L233 350.6L371.6 270.6L245.3 197.9Z" fill="#BABCBE"/>
<path d="M136.101 296.7L92.501 271.7L205.901 206.2L249.401 231.2L136.101 296.7Z" fill="white"/>
<path d="M136.101 297.7C135.901 297.7 135.801 297.7 135.601 297.6L92.1006 272.6C91.8006 272.4 91.6006 272.1 91.6006 271.7C91.6006 271.3 91.8006 271 92.1006 270.8L205.401 205.3C205.701 205.1 206.101 205.1 206.401 205.3L249.901 230.3C250.201 230.5 250.401 230.8 250.401 231.2C250.401 231.6 250.201 231.9 249.901 232.1L136.601 297.6C136.401 297.6 136.201 297.7 136.101 297.7ZM94.5006 271.6L136.001 295.5L247.401 231.1L205.901 207.2L94.5006 271.6Z" fill="black"/>
<path d="M136.4 340.6L134.9 339.7V296.7L135.4 295.8L248.9 230.3L250.4 231.2V274.2L249.9 275.1L136.4 340.6ZM136.9 297.3V338L248.4 273.6V232.9L136.9 297.3Z" fill="black"/>
<path d="M135.9 340.7C135.7 340.7 135.6 340.7 135.4 340.6L92 315.6C91.7 315.4 91.5 315.1 91.5 314.7V271.7C91.5 271.3 91.7 271 92 270.8C92.3 270.6 92.7 270.6 93 270.8L136.4 295.8C136.7 296 136.9 296.3 136.9 296.7V339.7C136.9 340.1 136.7 340.4 136.4 340.6C136.3 340.7 136.1 340.7 135.9 340.7ZM93.5 314.1L134.9 338V297.3L93.5 273.4V314.1Z" fill="black"/>
<path d="M267.5 150L121.8 234.1V196.5L194.6 130.1L267.5 112.4V150Z" fill="#AEC6F7" stroke="#111111" stroke-miterlimit="10"/>
<path d="M122.3 234.9L120.8 234V196.4L121.1 195.7L194.4 129.1L267.2 111.3L268.4 112.3V150L267.9 150.9L122.3 234.9ZM122.8 196.9V232.4L266.5 149.5V113.6L195.1 131L122.8 196.9Z" fill="#AEC6F7" stroke="#111111" stroke-miterlimit="10"/>
<path d="M267.5 112.4L194.6 130.1L121.8 196.5V205.6L194.6 139.3L267.5 121.5V112.4Z" fill="#AEC6F7" stroke="#111111" stroke-miterlimit="10"/>
<path d="M122.8 196.9V203.4L194 138.5C194.1 138.4 194.3 138.3 194.4 138.3L266.5 120.7V113.6L195.1 131L122.8 196.9Z" fill="#AEC6F7" stroke="#111111" stroke-miterlimit="10"/>
<path d="M128.6 345.6L121.8 349.5V241.2L128.6 237.3V345.6Z" fill="#111111"/>
<path d="M122.3 350.3L120.8 349.4V241.2L121.3 240.3L128.1 236.4L129.6 237.3V345.6L129.1 346.5L122.3 350.3ZM122.8 241.8V347.8L127.6 345V239L122.8 241.8Z" fill="#111111"/>
<path d="M115 345.6L121.8 349.5V241.2L115 237.3V345.6Z" fill="white"/>
<path d="M121.8 350.5C121.6 350.5 121.5 350.5 121.3 350.4L114.5 346.5C114.2 346.3 114 346 114 345.6V237.3C114 236.9 114.2 236.6 114.5 236.4C114.8 236.2 115.2 236.2 115.5 236.4L122.3 240.3C122.6 240.5 122.8 240.8 122.8 241.2V349.5C122.8 349.9 122.6 350.2 122.3 350.4C122.2 350.4 122 350.5 121.8 350.5ZM116 345L120.8 347.8V241.8L116 239V345Z" fill="black"/>
<path d="M15.3 280.4L8.5 284.3V176L15.3 172.1V280.4Z" fill="#111111"/>
<path d="M9.40039 176.6V282.6L14.2004 279.8V173.8L9.40039 176.6Z" fill="#111111"/>
<path d="M1.60059 280.4L8.50059 284.3V176L1.60059 172.1V280.4Z" fill="white"/>
<path d="M8.5002 285.3C8.3002 285.3 8.2002 285.3 8.0002 285.2L1.2002 281.3C0.900196 281.1 0.700195 280.8 0.700195 280.4V172.1C0.700195 171.7 0.900196 171.4 1.2002 171.2C1.5002 171 1.9002 171 2.2002 171.2L9.0002 175.1C9.3002 175.3 9.5002 175.6 9.5002 176V284.3C9.5002 284.7 9.3002 285 9.0002 285.2C8.8002 285.2 8.6002 285.3 8.5002 285.3ZM2.6002 279.8L7.4002 282.6V176.6L2.6002 173.8V279.8Z" fill="black"/>
<path d="M267.5 265.6L260.7 269.5V161.2L267.5 157.3V265.6Z" fill="#111111"/>
<path d="M261.2 270.4L259.7 269.5V161.2L260.2 160.3L267 156.4L268.5 157.3V265.6L268 266.5L261.2 270.4ZM261.7 161.8V267.8L266.5 265V159L261.7 161.8Z" fill="#111111"/>
<path d="M253.9 265.6L260.7 269.5V161.2L253.9 165.1V265.6Z" fill="white"/>
<path d="M260.7 270.5C260.5 270.5 260.4 270.5 260.2 270.4L253.4 266.5C253.1 266.3 252.9 266 252.9 265.6V165.1C252.9 164.7 253.1 164.4 253.4 164.2L260.2 160.3C260.5 160.1 260.9 160.1 261.2 160.3C261.5 160.5 261.7 160.8 261.7 161.2V269.5C261.7 269.9 261.5 270.2 261.2 270.4C261 270.5 260.8 270.5 260.7 270.5ZM254.8 265L259.6 267.8V163L254.8 165.7V265Z" fill="black"/>
<path d="M267.5 157.3L121.8 241.4V234.1L267.5 150V157.3Z" fill="#AEC6F7" stroke="#111111" stroke-miterlimit="10"/>
<path d="M121.8 242.4C121.6 242.4 121.5 242.4 121.3 242.3C121 242.1 120.8 241.8 120.8 241.4V234.1C120.8 233.7 121 233.4 121.3 233.2L267 149.1C267.3 148.9 267.7 148.9 268 149.1C268.3 149.3 268.5 149.6 268.5 150V157.3C268.5 157.7 268.3 158 268 158.2L122.4 242.3C122.2 242.4 122 242.4 121.8 242.4ZM122.8 234.7V239.7L266.5 156.7V151.7L122.8 234.7Z" fill="black"/>
<path d="M1.60059 172L121.801 241.4V196.5L1.60059 127.1V172Z" fill="#111111"/>
<path d="M121.8 242.4C121.6 242.4 121.5 242.4 121.3 242.3L1.2002 172.9C0.900196 172.7 0.700195 172.4 0.700195 172V127.1C0.700195 126.7 0.900196 126.4 1.2002 126.2C1.5002 126 1.9002 126 2.2002 126.2L122.4 195.6C122.7 195.8 122.9 196.1 122.9 196.5V241.4C122.9 241.8 122.7 242.1 122.4 242.3C122.2 242.4 122 242.4 121.8 242.4ZM2.6002 171.4L120.8 239.6V197L2.6002 128.8V171.4Z" fill="#111111"/>
<path d="M1.60059 172L121.801 241.4V234.1L1.60059 164.8V172Z" fill="#AEC6F7" stroke="#111111" stroke-miterlimit="10"/>
<path d="M1.60059 136.2L121.801 205.6V196.5L1.60059 127.1V136.2Z" fill="#AEC6F7" stroke="#111111" stroke-miterlimit="10"/>
<path d="M194.601 130.1L74.5006 60.7002L1.60059 127.1L121.801 196.5L194.601 130.1Z" fill="white"/>
<path d="M121.8 197.5C121.6 197.5 121.5 197.5 121.3 197.4L1.2002 127.9C0.900196 127.7 0.700195 127.5 0.700195 127.1C0.700195 126.8 0.800196 126.5 1.0002 126.3L73.8002 60.0001C74.1002 59.7001 74.6002 59.7001 75.0002 59.9001L195.2 129.3C195.5 129.5 195.7 129.7 195.7 130.1C195.7 130.4 195.6 130.7 195.4 130.9L122.6 197.2C122.3 197.4 122.1 197.5 121.8 197.5ZM3.30019 126.9L121.7 195.2L193 130.3L74.6002 62.0001L3.30019 126.9Z" fill="black"/>
<path d="M194.6 131.1C194.4 131.1 194.3 131.1 194.1 131L74 61.5999C73.6 61.3999 73.5 60.9999 73.5 60.5999C73.6 60.1999 73.9 59.8999 74.2 59.7999L147.1 41.9999C147.3 41.8999 147.6 41.9999 147.8 42.0999L268 111.5C268.4 111.7 268.5 112.1 268.5 112.5C268.4 112.9 268.1 113.2 267.8 113.3L195 131.1C194.8 131.1 194.7 131.1 194.6 131.1ZM77.1 61.0999L194.8 129L264.8 111.9L147.1 44.0999L77.1 61.0999Z" fill="black"/>
<path d="M159.2 182.4C157.6 183.3 156.3 184.7 155.3 186.4C154.3 188.1 153.9 190 153.9 191.9C153.9 193.9 154.4 195.3 155.3 195.8C156.3 196.4 157.6 196.2 159.2 195.3C159.7 195 160.1 194.7 160.4 194.5C160.7 194.3 161 194 161.4 193.7C161.7 193.4 161.9 193.2 162.2 192.9C162.5 192.6 162.7 192.4 162.9 192.1V189.2L162.7 189.3C162.6 189.5 162.4 189.8 162.2 190.1C162 190.4 161.8 190.7 161.6 191C161.4 191.3 161.1 191.6 160.8 191.9C160.5 192.2 160.1 192.5 159.8 192.7C159.5 192.9 159.1 193 158.8 193.1C158.4 193.2 158.1 193.1 157.9 193C157.6 192.8 157.4 192.6 157.2 192.1C157 191.7 156.9 191.1 156.9 190.3C156.9 189.6 157 188.9 157.2 188.2C157.4 187.6 157.6 187 157.9 186.5C158.2 186 158.5 185.5 158.8 185.2C159.1 184.9 159.5 184.6 159.9 184.4C160.2 184.2 160.5 184.1 160.8 184C161.1 183.9 161.4 183.9 161.6 184C161.8 184 162.1 184.1 162.3 184.2C162.5 184.3 162.7 184.3 162.8 184.4L163.1 184.2V181.2C162.9 181.2 162.7 181.2 162.4 181.2C162.1 181.2 161.8 181.3 161.6 181.3C161.3 181.4 161 181.5 160.6 181.6C160.1 182 159.7 182.2 159.2 182.4Z" fill="black"/>
<path d="M167.2 183.7V180.3L168.1 179.8C168.4 179.6 168.7 179.5 168.9 179.4C169.1 179.3 169.3 179.2 169.5 179.2C169.7 179.2 169.9 179.3 170 179.4C170.1 179.6 170.2 179.8 170.2 180.1C170.2 180.5 170.2 180.8 170.1 181C170 181.3 169.9 181.5 169.7 181.8C169.5 182.1 169.3 182.3 169 182.5C168.7 182.7 168.4 182.9 168 183.1L167.2 183.7ZM168.9 177.1L164.5 179.6V192L167.2 190.4V185.8L168.2 185.2L171.2 188L174.5 186.1L170.8 182.9C171.4 182.2 171.9 181.4 172.3 180.6C172.7 179.8 172.9 178.9 172.9 178C172.9 177.3 172.8 176.8 172.6 176.5C172.4 176.2 172.1 176 171.7 176C171.3 175.9 170.9 176 170.5 176.2C170 176.5 169.5 176.8 168.9 177.1Z" fill="black"/>
<path d="M182.7 169.2L175.4 173.4V185.8L182.7 181.6V179.2L178.1 181.9V178.8L182.4 176.3V173.9L178.1 176.4V174.2L182.7 171.5V169.2ZM181.5 165.1L179.1 166.5L177.6 170.7L179.3 169.7L181.5 165.1Z" fill="black"/>
<path d="M187.3 174.1L188.4 169.4L189.5 172.9L187.3 174.1ZM190 164.9L187 166.6L183.4 181.2L186.1 179.6L186.8 176.7L190.2 174.7L190.9 176.8L193.7 175.2L190 164.9Z" fill="black"/>
<path d="M202.701 157.6L193.601 162.9V165.2L196.801 163.4V173.5L199.501 171.9V161.8L202.701 160V157.6Z" fill="black"/>
<path d="M211.101 152.7L203.801 156.9V169.4L211.201 165.2V162.8L206.501 165.5V162.3L210.801 159.9V157.5L206.501 159.9V157.8L211.101 155.1V152.7Z" fill="black"/>
<path d="M221.9 146.5L219.2 148.1V155.9C219.2 156.8 219.1 157.5 218.8 158.1C218.5 158.7 218 159.1 217.4 159.5C216.8 159.9 216.3 159.9 216 159.7C215.7 159.4 215.6 158.9 215.6 158V150.2L212.9 151.8V159.7C212.9 161.3 213.3 162.2 214.1 162.6C214.9 163 216 162.7 217.5 161.9C219 161 220.1 160 220.9 158.7C221.7 157.4 222 156 222 154.5L221.9 146.5Z" fill="black"/>
<path d="M226.7 149.4V146L227.6 145.5C227.9 145.3 228.2 145.2 228.4 145.1C228.6 145 228.8 144.9 229 144.9C229.2 144.9 229.4 145 229.5 145.1C229.6 145.3 229.7 145.5 229.7 145.8C229.7 146.2 229.7 146.5 229.6 146.7C229.5 147 229.4 147.2 229.2 147.5C229 147.8 228.8 148 228.5 148.2C228.2 148.4 227.9 148.6 227.5 148.8L226.7 149.4ZM228.3 142.8L223.9 145.3V157.7L226.6 156.1V151.5L227.6 150.9L230.6 153.7L233.9 151.8L230.2 148.6C230.8 147.9 231.3 147.1 231.7 146.3C232.1 145.5 232.3 144.6 232.3 143.7C232.3 143 232.2 142.5 232 142.2C231.8 141.9 231.5 141.7 231.1 141.7C230.7 141.6 230.3 141.7 229.9 141.9C229.5 142.2 228.9 142.4 228.3 142.8Z" fill="black"/>
<path d="M193.4 212.69V222.39L212 233.09V223.39L193.4 212.69Z" fill="#AEC6F7" stroke="#111111" stroke-miterlimit="10"/>
<path d="M225.9 215.19L212 223.39L193.4 212.69L207.4 204.49L225.9 215.19Z" fill="#AEC6F7" stroke="#111111" stroke-miterlimit="10"/>
<path d="M225.9 218.59L212 226.79L193.4 215.99L207.4 207.89L225.9 218.59Z" fill="white"/>
<path d="M207.4 204.09L193 212.49V222.69L212 233.69L226.4 225.29V215.09L207.4 204.09ZM211.6 232.39L193.8 222.09V213.29L211.6 223.59V232.39ZM194.1 212.69L207.3 204.99L225.1 215.29L211.9 222.99L194.1 212.69Z" fill="#15110E"/>
<path d="M212 233.09V238.39L194.4 228.19V222.99L212 233.09Z" fill="#AEC6F7" stroke="#111111" stroke-miterlimit="10"/>
<path d="M212 232.691L194 222.291V228.491L212.1 238.891L224.6 231.591V225.291L212 232.691ZM194.8 227.991V223.591L211.6 233.291L211.7 237.691L194.8 227.991Z" fill="#15110E"/>
<path d="M211.8 233.29V232.39L224.4 224.99V225.89L211.8 233.29Z" fill="#AEC6F7"/>
<path d="M217.2 219.99L199.1 209.59L199.5 208.89L217.9 219.49L217.2 219.99Z" fill="#15110E"/>
<path d="M216.6 236.19L215.8 236.69L217.2 229.29V219.99L217.9 219.49V229.39L216.6 236.19Z" fill="#AEC6F7"/>
<path d="M217.5 213.291C217.3 212.791 216.9 212.191 215.8 211.991C214.4 211.691 213 213.191 212.1 214.391C212.1 213.991 212.1 213.691 212.1 213.291C212 212.191 210.4 210.391 209.1 210.291C208.7 210.191 207.9 210.291 207.5 211.491C206.7 213.791 210 215.691 211.1 216.291L211 216.491L211.5 216.591L211.9 216.791V216.691C212.4 216.691 213.2 216.791 214 216.791C215.2 216.791 216.4 216.691 216.8 216.191C217.4 215.291 217.8 214.191 217.5 213.291ZM208.2 211.591C208.4 210.991 208.7 210.891 208.9 210.891H209C210 210.991 211.3 212.491 211.3 213.191C211.4 213.991 211.3 214.791 211.2 215.391C210 214.691 207.7 212.991 208.2 211.591ZM216.3 215.391C215.9 215.791 214 215.791 212.2 215.691C212.9 214.491 214.4 212.491 215.7 212.691C216.3 212.791 216.7 213.091 216.8 213.491C217 214.091 216.7 214.991 216.3 215.391Z" fill="#15110E"/>
<path d="M212.8 219.09C212.5 219.09 212.2 218.99 211.8 218.89C210.8 218.39 211.1 217.59 211.3 217.09C211.4 216.89 211.5 216.59 211.4 216.49C211.4 216.39 211.2 216.39 211.1 216.29C210.4 216.09 209.8 216.09 209.3 216.29C208.6 216.69 208.4 217.49 208.4 217.49L207.7 217.29C207.7 217.29 208 216.09 209 215.59C209.7 215.19 210.5 215.19 211.4 215.49C211.8 215.59 212.1 215.79 212.2 216.09C212.4 216.49 212.3 216.89 212.1 217.29C211.9 217.89 211.9 217.99 212.2 218.09C213.3 218.59 214 217.69 214.1 217.59L214.7 218.09C214.3 218.59 213.7 219.09 212.8 219.09Z" fill="#15110E"/>
<path d="M214.999 203.79C214.999 203.79 215.099 206.19 212.499 206.49C210.599 206.69 209.299 207.09 208.999 207.19C208.899 207.19 208.599 206.99 208.599 206.99L208.499 205.79C208.499 205.79 210.299 204.99 210.399 204.99C210.499 204.99 211.899 205.09 212.599 204.69C213.199 204.29 212.999 203.69 212.799 203.19C212.499 202.69 212.999 202.49 212.999 202.49L214.799 203.39L214.899 203.49C214.799 203.39 214.899 203.59 214.999 203.79Z" fill="#AEC6F7"/>
<path d="M208.999 207.49C208.899 207.49 208.799 207.49 208.799 207.39C208.699 207.39 208.399 207.19 208.299 206.99V206.89L208.199 205.39L208.399 205.29C210.199 204.49 210.299 204.49 210.399 204.49H210.499C211.799 204.59 212.299 204.39 212.399 204.29C212.699 204.09 212.799 203.89 212.499 203.19C212.299 202.89 212.399 202.59 212.399 202.49C212.499 202.19 212.799 202.09 212.799 202.09L212.899 201.99L214.899 202.99L214.999 203.09C215.199 203.29 215.299 203.49 215.299 203.69C215.299 203.69 215.399 206.39 212.499 206.69C210.599 206.89 209.399 207.29 209.099 207.39L208.999 207.49ZM208.899 206.69C208.899 206.69 208.999 206.69 208.999 206.79C209.399 206.59 210.699 206.29 212.499 206.09C214.599 205.89 214.699 203.99 214.699 203.79C214.699 203.69 214.599 203.59 214.499 203.49L212.999 202.69C212.999 202.69 212.999 202.79 212.999 202.89C213.199 203.19 213.699 204.19 212.699 204.79C212.299 205.09 211.499 205.19 210.399 205.09C210.199 205.19 209.499 205.49 208.799 205.79L208.899 206.69Z" fill="#15110E"/>
<path d="M214.899 203.49C213.999 201.89 210.099 205.29 209.499 206.79C209.299 207.09 208.799 207.29 208.399 207.09L207.699 206.79C207.699 206.79 208.199 202.39 211.299 201.69C213.699 201.19 214.899 203.49 214.899 203.49Z" fill="white"/>
<path d="M208.799 207.49C208.599 207.49 208.499 207.49 208.299 207.39L207.399 206.99V206.79C207.399 206.59 207.899 202.19 211.199 201.49C213.699 200.89 214.999 203.29 215.099 203.49L214.499 203.79C214.399 203.69 214.299 203.49 213.999 203.49C212.699 203.59 210.199 205.89 209.699 206.99C209.599 207.29 209.199 207.49 208.799 207.49ZM208.099 206.59L208.499 206.79C208.799 206.89 209.099 206.79 209.099 206.69C209.599 205.39 212.199 202.99 213.799 202.79C213.299 202.29 212.399 201.79 211.299 202.09C208.899 202.59 208.199 205.69 208.099 206.59Z" fill="#15110E"/>
<path d="M201.4 203.59C201.4 203.59 201.3 206.09 203.7 206.39C205.5 206.59 206.7 206.99 207 207.09C207.1 207.09 207.4 206.89 207.4 206.79L207.5 205.49C207.5 205.49 206 204.99 205.9 204.99C205.8 204.99 204.2 204.79 203.7 204.39C203.1 203.99 203.3 203.39 203.5 202.79C203.8 202.19 203.3 201.99 203.3 201.99L201.6 202.89L201.5 202.99C201.5 203.19 201.4 203.39 201.4 203.59Z" fill="#AEC6F7"/>
<path d="M207 207.49H206.9C206.6 207.39 205.5 206.99 203.7 206.79C201.5 206.49 201 204.59 201.1 203.69C201.1 203.49 201.2 203.19 201.4 202.99L201.6 202.79L203.4 201.79L203.5 201.89C203.5 201.89 203.8 201.99 203.9 202.29C204 202.49 204 202.69 203.9 202.99C203.6 203.69 203.7 203.99 204 204.19C204.5 204.49 205.9 204.69 206.1 204.69C206.2 204.69 206.2 204.69 207.8 205.29L208 205.39L207.9 206.99C207.8 207.19 207.4 207.39 207.4 207.39C207.2 207.39 207.1 207.49 207 207.49ZM201.7 203.59C201.7 203.79 201.7 205.79 203.8 205.99C205.5 206.19 206.6 206.49 207.1 206.69C207.1 206.69 207.2 206.69 207.2 206.59L207.3 205.69C206.7 205.49 206.1 205.29 206 205.29C206 205.29 204.3 205.09 203.6 204.69C202.7 204.09 203.2 202.99 203.3 202.69C203.3 202.59 203.4 202.49 203.3 202.49L201.9 203.29C201.8 203.39 201.7 203.49 201.7 203.59Z" fill="#15110E"/>
<path d="M201.5 203.29C202.4 201.59 206 205.19 206.6 206.69C206.8 207.09 207.2 207.19 207.6 206.99L208.2 206.69C208.2 206.69 207.8 202.09 204.8 201.39C202.6 200.89 201.5 203.29 201.5 203.29Z" fill="white"/>
<path d="M207.2 207.49C207.1 207.49 207 207.49 206.8 207.39C206.5 207.29 206.3 207.09 206.2 206.89C205.7 205.69 203.4 203.19 202.2 203.19C202 203.19 201.8 203.29 201.7 203.49L201.1 203.19C201.5 202.29 202.9 200.59 204.8 201.09C207.9 201.89 208.4 206.49 208.4 206.69V206.89L207.6 207.29C207.5 207.39 207.4 207.49 207.2 207.49ZM202.4 202.59C204 202.79 206.4 205.49 206.9 206.69C206.9 206.79 207 206.79 207.1 206.89C207.2 206.89 207.3 206.89 207.5 206.89L207.9 206.69C207.8 205.79 207.1 202.49 204.8 201.89C203.6 201.49 202.9 201.99 202.4 202.59Z" fill="#15110E"/>
<path d="M209.099 206.89C209.099 206.79 209.099 206.79 209.099 206.69C209.099 206.49 208.899 205.89 208.199 205.89C207.499 205.89 207.299 206.39 207.199 206.59C207.199 206.69 207.199 206.79 207.199 206.79C207.299 206.99 207.499 207.19 207.799 207.19H208.499C208.799 207.29 208.999 207.09 209.099 206.89Z" fill="#14100D"/>
<path d="M208.499 207.59H207.799C207.399 207.59 206.999 207.29 206.899 206.89C206.899 206.69 206.899 206.59 206.899 206.49C206.999 205.89 207.499 205.49 208.199 205.49C208.999 205.49 209.399 206.09 209.399 206.59C209.399 206.69 209.399 206.79 209.399 206.89C209.299 207.39 208.899 207.59 208.499 207.59ZM208.199 206.19C207.799 206.19 207.599 206.39 207.499 206.69V206.79C207.499 206.89 207.699 206.99 207.799 206.99H208.499C208.599 206.99 208.799 206.89 208.799 206.79C208.799 206.79 208.799 206.79 208.799 206.69C208.799 206.19 208.299 206.19 208.199 206.19Z" fill="#15110E"/>
<path d="M30.5 0.766602C22.8688 0.766602 16.625 6.7466 16.625 14.1066C16.625 17.0199 17.6271 19.7799 19.4 22.0799L29.8833 35.7266C30.1146 36.0333 30.6542 36.1099 30.9625 35.8799C31.0396 35.8033 31.0396 35.8033 31.1167 35.7266L41.6 22.0799C43.3729 19.7799 44.375 17.0199 44.375 14.1066C44.375 6.7466 38.1312 0.766602 30.5 0.766602ZM29.4208 19.3199C26.4917 18.7066 24.5646 15.9466 25.1812 13.0333C25.7979 10.1199 28.5729 8.20327 31.5021 8.8166C33.6604 9.2766 35.3562 10.8866 35.7417 13.0333C36.2812 15.9466 34.3542 18.7833 31.5021 19.3199C30.8083 19.4733 30.1146 19.4733 29.4208 19.3199Z" fill="#F3BC54"/>
<rect x="12" y="48" width="160" height="35" fill="#F3BC54"/>
<path d="M28.066 71.198C30.928 71.198 33.286 70.1 33.286 67.904C33.286 66.23 31.864 65.222 29.596 63.674C27.436 62.18 26.41 61.406 26.41 60.272C26.41 59.444 26.914 58.886 28.192 58.886C29.776 58.886 31.072 59.714 31.468 62.198L31.72 62.27L33.214 59.426C32.638 58.832 30.424 58.112 28.084 58.112C25.078 58.112 23.404 59.246 23.404 61.208C23.404 62.918 24.772 63.944 26.716 65.312C28.786 66.734 30.154 67.58 30.154 68.876C30.154 69.83 29.416 70.424 28.246 70.424C26.266 70.424 24.664 68.75 24.304 66.446L24.052 66.392L22.828 69.794C23.692 70.514 25.852 71.198 28.066 71.198ZM40.1233 68.75C40.1593 68.876 40.1953 69.02 40.1953 69.164C40.1953 69.704 39.9253 70.208 39.4753 70.208C38.8453 70.208 38.7013 69.452 38.6653 68.264C38.6473 66.968 38.5933 64.754 38.6293 62.504L41.0233 62.558C40.9873 62.198 41.0053 62.036 41.0413 61.658L38.6293 61.712C38.6473 60.83 38.6833 59.966 38.7193 59.156C37.9093 59.246 37.2073 59.228 36.4513 59.138L35.8753 61.694C35.5153 61.676 35.1373 61.676 34.7413 61.658C34.7773 62.036 34.7773 62.198 34.7413 62.558C35.0833 62.54 35.4073 62.54 35.7133 62.522C35.8033 64.682 35.7673 66.788 35.7673 68.246C35.7493 70.514 36.9913 71.234 38.5393 71.234C40.1413 71.234 41.0773 70.478 41.0773 68.912C40.7533 68.93 40.4293 68.876 40.1233 68.75ZM47.0348 61.388C44.5868 61.388 42.9668 62.54 42.6248 64.07L45.5948 64.934L45.9008 64.754C45.6308 64.412 45.5048 64.016 45.5048 63.602C45.5048 62.774 46.0088 62 46.9448 62C48.3128 62 48.4568 63.674 48.4748 65.348C44.9648 65.51 42.3548 66.788 42.3548 68.966C42.3548 70.37 43.4168 71.27 45.1268 71.27C47.4488 71.27 48.4208 69.362 48.7088 68.264L50.0768 71H51.3188V65.402C51.3188 62.648 49.6448 61.388 47.0348 61.388ZM46.4048 69.884C45.7748 69.866 45.3248 69.434 45.3248 68.552C45.3248 67.274 46.2788 66.158 48.4748 65.96C48.4028 68.21 47.6108 69.884 46.4048 69.884ZM62.8698 65.528C62.8518 62.648 61.5378 61.388 59.5218 61.388C57.7938 61.388 56.6778 62.342 56.2278 64.034L54.6438 61.658H53.6178C53.7438 64.808 53.7258 67.85 53.6358 71C54.6438 70.91 55.6518 70.91 56.6598 71C56.6418 69.29 56.6238 67.544 56.6238 66.392C56.6238 63.944 57.3078 62.684 58.4058 62.684C59.5938 62.666 59.8458 63.908 59.8818 65.492C59.9358 67.508 59.9718 69.092 59.9178 71C60.9078 70.91 61.9158 70.91 62.9058 71C62.9058 69.164 62.8878 67.454 62.8698 65.528ZM68.5117 71.27C70.0597 71.252 71.1757 70.334 71.6977 68.786L73.2457 71H74.2717C74.1457 67.508 74.1637 61.262 74.2717 57.86C73.3177 57.68 72.2377 57.68 71.2837 57.86C71.3917 59.498 71.4097 61.352 71.4637 62.972C70.9417 62 69.9337 61.388 68.6737 61.388C66.2077 61.388 64.6777 63.314 64.6777 66.374C64.6777 69.524 66.2617 71.306 68.5117 71.27ZM69.4837 69.974C68.3497 69.974 67.7197 68.606 67.7197 66.266C67.7197 63.908 68.3677 62.54 69.4837 62.54C70.6537 62.54 71.3377 63.98 71.3197 66.266C71.3197 68.66 70.6177 69.974 69.4837 69.974ZM85.0965 71.234C87.4725 71.234 89.3265 69.974 89.6865 67.85L86.6445 67.364L86.3205 67.49C86.5005 68.012 86.5545 68.462 86.5545 68.876C86.5545 70.118 85.8705 70.586 85.2405 70.586C84.0165 70.586 83.2605 69.2 83.2605 66.23C83.2605 63.35 83.9985 62.036 85.2765 62.036C85.9245 62.036 86.5005 62.468 86.5005 63.494C86.5005 63.89 86.4285 64.322 86.2665 64.898L86.6085 65.024L89.5785 64.538C89.2185 62.666 87.5265 61.388 85.0965 61.388C82.0545 61.388 80.1465 63.368 80.1465 66.266C80.1465 69.182 82.0545 71.234 85.0965 71.234ZM91.5343 71C92.5423 70.91 93.5503 70.91 94.5583 71C94.5223 69.254 94.5223 67.49 94.5403 65.888C94.5403 63.98 95.0083 62.684 96.0163 62.684C96.8083 62.684 97.1683 63.62 96.7543 65.366L96.9523 65.402L99.4903 64.646C99.5443 64.358 99.5623 64.07 99.5623 63.8C99.5623 62.126 98.5003 61.388 97.2403 61.388C95.4943 61.388 94.5403 62.54 94.1263 63.962L92.5423 61.658H91.5163C91.6243 64.808 91.6243 67.85 91.5343 71ZM108.244 58.724C107.938 58.022 107.254 57.194 106.768 56.834L103.492 60.164L104.086 60.65L108.244 58.724ZM107.164 67.904L106.84 68.048C106.894 68.318 106.912 68.534 106.912 68.84C106.912 70.136 106.282 70.622 105.508 70.622C104.032 70.622 103.528 69.2 103.528 66.464V66.356H109.396L109.756 66.14C109.828 63.224 108.352 61.388 105.31 61.388C102.304 61.388 100.414 63.35 100.414 66.266C100.414 69.236 102.286 71.27 105.454 71.27C107.74 71.27 109.45 70.208 109.81 68.3L107.164 67.904ZM105.418 62.036C106.408 62.036 106.822 62.792 106.822 64.088C106.822 64.664 106.786 65.222 106.678 65.6H103.546C103.672 63.08 104.356 62.036 105.418 62.036ZM115.888 61.388C113.44 61.388 111.82 62.54 111.478 64.07L114.448 64.934L114.754 64.754C114.484 64.412 114.358 64.016 114.358 63.602C114.358 62.774 114.862 62 115.798 62C117.166 62 117.31 63.674 117.328 65.348C113.818 65.51 111.208 66.788 111.208 68.966C111.208 70.37 112.27 71.27 113.98 71.27C116.302 71.27 117.274 69.362 117.562 68.264L118.93 71H120.172V65.402C120.172 62.648 118.498 61.388 115.888 61.388ZM115.258 69.884C114.628 69.866 114.178 69.434 114.178 68.552C114.178 67.274 115.132 66.158 117.328 65.96C117.256 68.21 116.464 69.884 115.258 69.884ZM127.205 68.75C127.241 68.876 127.277 69.02 127.277 69.164C127.277 69.704 127.007 70.208 126.557 70.208C125.927 70.208 125.783 69.452 125.747 68.264C125.729 66.968 125.675 64.754 125.711 62.504L128.105 62.558C128.069 62.198 128.087 62.036 128.123 61.658L125.711 61.712C125.729 60.83 125.765 59.966 125.801 59.156C124.991 59.246 124.289 59.228 123.533 59.138L122.957 61.694C122.597 61.676 122.219 61.676 121.823 61.658C121.859 62.036 121.859 62.198 121.823 62.558C122.165 62.54 122.489 62.54 122.795 62.522C122.885 64.682 122.849 66.788 122.849 68.246C122.831 70.514 124.073 71.234 125.621 71.234C127.223 71.234 128.159 70.478 128.159 68.912C127.835 68.93 127.511 68.876 127.205 68.75ZM136.133 67.904L135.809 68.048C135.863 68.318 135.881 68.534 135.881 68.84C135.881 70.136 135.251 70.622 134.477 70.622C133.001 70.622 132.497 69.2 132.497 66.464V66.356H138.365L138.725 66.14C138.797 63.224 137.321 61.388 134.279 61.388C131.273 61.388 129.383 63.35 129.383 66.266C129.383 69.236 131.255 71.27 134.423 71.27C136.709 71.27 138.419 70.208 138.779 68.3L136.133 67.904ZM134.387 62.036C135.377 62.036 135.791 62.792 135.791 64.088C135.791 64.664 135.755 65.222 135.647 65.6H132.515C132.641 63.08 133.325 62.036 134.387 62.036ZM149.591 71C149.465 67.85 149.483 64.808 149.573 61.658C148.565 61.748 147.557 61.748 146.549 61.658C146.585 63.368 146.585 63.044 146.585 66.518C146.585 68.678 145.883 69.92 144.821 69.938C144.047 69.956 143.669 69.308 143.651 67.49C143.633 65.204 143.615 66.032 143.633 61.658C142.625 61.748 141.617 61.748 140.627 61.658C140.663 63.512 140.645 65.24 140.663 67.328C140.663 70.316 142.085 71.234 143.831 71.234C145.415 71.234 146.603 70.118 146.981 68.606L148.565 71H149.591ZM151.985 71C152.993 70.91 154.001 70.91 155.009 71C154.973 69.254 154.973 67.49 154.991 65.888C154.991 63.98 155.459 62.684 156.467 62.684C157.259 62.684 157.619 63.62 157.205 65.366L157.403 65.402L159.941 64.646C159.995 64.358 160.013 64.07 160.013 63.8C160.013 62.126 158.951 61.388 157.691 61.388C155.945 61.388 154.991 62.54 154.577 63.962L152.993 61.658H151.967C152.075 64.808 152.075 67.85 151.985 71Z" fill="black"/>
</svg>
