<svg width="387" height="336" viewBox="0 0 387 336" fill="none" xmlns="http://www.w3.org/2000/svg">
<g clip-path="url(#clip0)">
<path d="M260.3 155.9L148.5 155.4L140.2 160.1L252.1 160.7L121.7 235.9L126.4 238.6L31.7 238.1L23.5 242.9L134.8 243.5L190.8 275.7L150.9 298.7H216.6L223.7 294.6L239.6 303.8L144.3 303.3L136.1 308L248 308.6L386.6 228.6L260.3 155.9Z" fill="#BABCBE"/>
<path d="M151.1 254.7L107.5 229.7L220.9 164.2L264.4 189.2L151.1 254.7Z" fill="white"/>
<path d="M151.1 255.7C150.9 255.7 150.8 255.7 150.6 255.6L107.1 230.6C106.8 230.4 106.6 230.1 106.6 229.7C106.6 229.3 106.8 229 107.1 228.8L220.4 163.3C220.7 163.1 221.1 163.1 221.4 163.3L264.9 188.3C265.2 188.5 265.4 188.8 265.4 189.2C265.4 189.6 265.2 189.9 264.9 190.1L151.6 255.6C151.4 255.6 151.2 255.7 151.1 255.7ZM109.5 229.6L151 253.5L262.4 189.1L220.9 165.2L109.5 229.6Z" fill="black"/>
<path d="M151.4 298.6L149.9 297.7V254.7L150.4 253.8L263.9 188.3L265.4 189.2V232.2L264.9 233.1L151.4 298.6ZM151.9 255.3V296L263.4 231.6V190.9L151.9 255.3Z" fill="black"/>
<path d="M150.9 298.7C150.7 298.7 150.6 298.7 150.4 298.6L107 273.6C106.7 273.4 106.5 273.1 106.5 272.7V229.7C106.5 229.3 106.7 229 107 228.8C107.3 228.6 107.7 228.6 108 228.8L151.4 253.8C151.7 254 151.9 254.3 151.9 254.7V297.7C151.9 298.1 151.7 298.4 151.4 298.6C151.3 298.7 151.1 298.7 150.9 298.7ZM108.5 272.1L149.9 296V255.3L108.5 231.4V272.1Z" fill="black"/>
<path d="M282.5 108L136.8 192.1V154.5L209.6 88.0999L282.5 70.3999V108Z" fill="#AEC6F7" stroke="#111111" stroke-miterlimit="10"/>
<path d="M137.3 192.9L135.8 192V154.4L136.1 153.7L209.4 87.0998L282.2 69.2998L283.4 70.2998V108L282.9 108.9L137.3 192.9ZM137.8 154.9V190.4L281.5 107.5V71.5998L210.1 88.9998L137.8 154.9Z" fill="#AEC6F7" stroke="#111111" stroke-miterlimit="10"/>
<path d="M282.5 70.3999L209.6 88.0999L136.8 154.5V163.6L209.6 97.2999L282.5 79.4999V70.3999Z" fill="#AEC6F7" stroke="#111111" stroke-miterlimit="10"/>
<path d="M137.8 154.9V161.4L209 96.4999C209.1 96.3999 209.3 96.2999 209.4 96.2999L281.5 78.6999V71.5999L210.1 88.9999L137.8 154.9Z" fill="#AEC6F7" stroke="#111111" stroke-miterlimit="10"/>
<path d="M143.6 303.6L136.8 307.5V199.2L143.6 195.3V303.6Z" fill="#111111"/>
<path d="M137.3 308.3L135.8 307.4V199.2L136.3 198.3L143.1 194.4L144.6 195.3V303.6L144.1 304.5L137.3 308.3ZM137.8 199.8V305.8L142.6 303V197L137.8 199.8Z" fill="#111111"/>
<path d="M130 303.6L136.8 307.5V199.2L130 195.3V303.6Z" fill="white"/>
<path d="M136.8 308.5C136.6 308.5 136.5 308.5 136.3 308.4L129.5 304.5C129.2 304.3 129 304 129 303.6V195.3C129 194.9 129.2 194.6 129.5 194.4C129.8 194.2 130.2 194.2 130.5 194.4L137.3 198.3C137.6 198.5 137.8 198.8 137.8 199.2V307.5C137.8 307.9 137.6 308.2 137.3 308.4C137.2 308.4 137 308.5 136.8 308.5ZM131 303L135.8 305.8V199.8L131 197V303Z" fill="black"/>
<path d="M30.3 238.4L23.5 242.3V134L30.3 130.1V238.4Z" fill="#111111"/>
<path d="M24.3999 134.6V240.6L29.1999 237.8V131.8L24.3999 134.6Z" fill="#111111"/>
<path d="M16.5999 238.4L23.4999 242.3V134L16.5999 130.1V238.4Z" fill="white"/>
<path d="M23.5 243.3C23.3 243.3 23.2 243.3 23 243.2L16.2 239.3C15.9 239.1 15.7 238.8 15.7 238.4V130.1C15.7 129.7 15.9 129.4 16.2 129.2C16.5 129 16.9 129 17.2 129.2L24 133.1C24.3 133.3 24.5 133.6 24.5 134V242.3C24.5 242.7 24.3 243 24 243.2C23.8 243.2 23.6 243.3 23.5 243.3ZM17.6 237.8L22.4 240.6V134.6L17.6 131.8V237.8Z" fill="black"/>
<path d="M282.5 223.6L275.7 227.5V119.2L282.5 115.3V223.6Z" fill="#111111"/>
<path d="M276.2 228.4L274.7 227.5V119.2L275.2 118.3L282 114.4L283.5 115.3V223.6L283 224.5L276.2 228.4ZM276.7 119.8V225.8L281.5 223V117L276.7 119.8Z" fill="#111111"/>
<path d="M268.9 223.6L275.7 227.5V119.2L268.9 123.1V223.6Z" fill="white"/>
<path d="M275.7 228.5C275.5 228.5 275.4 228.5 275.2 228.4L268.4 224.5C268.1 224.3 267.9 224 267.9 223.6V123.1C267.9 122.7 268.1 122.4 268.4 122.2L275.2 118.3C275.5 118.1 275.9 118.1 276.2 118.3C276.5 118.5 276.7 118.8 276.7 119.2V227.5C276.7 227.9 276.5 228.2 276.2 228.4C276 228.5 275.8 228.5 275.7 228.5ZM269.8 223L274.6 225.8V121L269.8 123.7V223Z" fill="black"/>
<path d="M282.5 115.3L136.8 199.4V192.1L282.5 108V115.3Z" fill="#AEC6F7" stroke="#111111" stroke-miterlimit="10"/>
<path d="M136.8 200.4C136.6 200.4 136.5 200.4 136.3 200.3C136 200.1 135.8 199.8 135.8 199.4V192.1C135.8 191.7 136 191.4 136.3 191.2L282 107.1C282.3 106.9 282.7 106.9 283 107.1C283.3 107.3 283.5 107.6 283.5 108V115.3C283.5 115.7 283.3 116 283 116.2L137.4 200.3C137.2 200.4 137 200.4 136.8 200.4ZM137.8 192.7V197.7L281.5 114.7V109.7L137.8 192.7Z" fill="black"/>
<path d="M16.5999 130L136.8 199.4V154.5L16.5999 85.0999V130Z" fill="#111111"/>
<path d="M136.8 200.4C136.6 200.4 136.5 200.4 136.3 200.3L16.2 130.9C15.9 130.7 15.7 130.4 15.7 130V85.0998C15.7 84.6998 15.9 84.3998 16.2 84.1998C16.5 83.9998 16.9 83.9998 17.2 84.1998L137.4 153.6C137.7 153.8 137.9 154.1 137.9 154.5V199.4C137.9 199.8 137.7 200.1 137.4 200.3C137.2 200.4 137 200.4 136.8 200.4ZM17.6 129.4L135.8 197.6V155L17.6 86.7998V129.4Z" fill="#111111"/>
<path d="M16.5999 130L136.8 199.4V192.1L16.5999 122.8V130Z" fill="#AEC6F7" stroke="#111111" stroke-miterlimit="10"/>
<path d="M16.5999 94.1999L136.8 163.6V154.5L16.5999 85.0999V94.1999Z" fill="#AEC6F7" stroke="#111111" stroke-miterlimit="10"/>
<path d="M209.6 88.0999L89.4999 18.7L16.5999 85.0999L136.8 154.5L209.6 88.0999Z" fill="white"/>
<path d="M136.8 155.5C136.6 155.5 136.5 155.5 136.3 155.4L16.2 85.8999C15.9 85.6999 15.7 85.4999 15.7 85.0999C15.7 84.7999 15.8 84.4999 16 84.2999L88.8 17.9999C89.1 17.6999 89.6 17.6999 90 17.8999L210.2 87.2999C210.5 87.4999 210.7 87.6999 210.7 88.0999C210.7 88.3999 210.6 88.6999 210.4 88.8999L137.6 155.2C137.3 155.4 137.1 155.5 136.8 155.5ZM18.3 84.8999L136.7 153.2L208 88.2999L89.6 19.9999L18.3 84.8999Z" fill="black"/>
<path d="M209.6 89.0999C209.4 89.0999 209.3 89.0999 209.1 88.9999L89 19.5999C88.6 19.3999 88.5 18.9999 88.5 18.5999C88.6 18.1999 88.9 17.8999 89.2 17.7999L162.1 -8.25487e-05C162.3 -0.100083 162.6 -8.2545e-05 162.8 0.0999175L283 69.4999C283.4 69.6999 283.5 70.0999 283.5 70.4999C283.4 70.8999 283.1 71.1999 282.8 71.2999L210 89.0999C209.8 89.0999 209.7 89.0999 209.6 89.0999ZM92.1 19.0999L209.8 86.9999L279.8 69.8999L162.1 2.09992L92.1 19.0999Z" fill="black"/>
<path d="M174.2 140.4C172.6 141.3 171.3 142.7 170.3 144.4C169.3 146.1 168.9 148 168.9 149.9C168.9 151.9 169.4 153.3 170.3 153.8C171.3 154.4 172.6 154.2 174.2 153.3C174.7 153 175.1 152.7 175.4 152.5C175.7 152.3 176 152 176.4 151.7C176.7 151.4 176.9 151.2 177.2 150.9C177.5 150.6 177.7 150.4 177.9 150.1V147.2L177.7 147.3C177.6 147.5 177.4 147.8 177.2 148.1C177 148.4 176.8 148.7 176.6 149C176.4 149.3 176.1 149.6 175.8 149.9C175.5 150.2 175.1 150.5 174.8 150.7C174.5 150.9 174.1 151 173.8 151.1C173.4 151.2 173.1 151.1 172.9 151C172.6 150.8 172.4 150.6 172.2 150.1C172 149.7 171.9 149.1 171.9 148.3C171.9 147.6 172 146.9 172.2 146.2C172.4 145.6 172.6 145 172.9 144.5C173.2 144 173.5 143.5 173.8 143.2C174.1 142.9 174.5 142.6 174.9 142.4C175.2 142.2 175.5 142.1 175.8 142C176.1 141.9 176.4 141.9 176.6 142C176.8 142 177.1 142.1 177.3 142.2C177.5 142.3 177.7 142.3 177.8 142.4L178.1 142.2V139.2C177.9 139.2 177.7 139.2 177.4 139.2C177.1 139.2 176.8 139.3 176.6 139.3C176.3 139.4 176 139.5 175.6 139.6C175.1 140 174.7 140.2 174.2 140.4Z" fill="black"/>
<path d="M182.2 141.7V138.3L183.1 137.8C183.4 137.6 183.7 137.5 183.9 137.4C184.1 137.3 184.3 137.2 184.5 137.2C184.7 137.2 184.9 137.3 185 137.4C185.1 137.6 185.2 137.8 185.2 138.1C185.2 138.5 185.2 138.8 185.1 139C185 139.3 184.9 139.5 184.7 139.8C184.5 140.1 184.3 140.3 184 140.5C183.7 140.7 183.4 140.9 183 141.1L182.2 141.7ZM183.9 135.1L179.5 137.6V150L182.2 148.4V143.8L183.2 143.2L186.2 146L189.5 144.1L185.8 140.9C186.4 140.2 186.9 139.4 187.3 138.6C187.7 137.8 187.9 136.9 187.9 136C187.9 135.3 187.8 134.8 187.6 134.5C187.4 134.2 187.1 134 186.7 134C186.3 133.9 185.9 134 185.5 134.2C185 134.5 184.5 134.8 183.9 135.1Z" fill="black"/>
<path d="M197.7 127.2L190.4 131.4V143.8L197.7 139.6V137.2L193.1 139.9V136.8L197.4 134.3V131.9L193.1 134.4V132.2L197.7 129.5V127.2ZM196.5 123.1L194.1 124.5L192.6 128.7L194.3 127.7L196.5 123.1Z" fill="black"/>
<path d="M202.3 132.1L203.4 127.4L204.5 130.9L202.3 132.1ZM205 122.9L202 124.6L198.4 139.2L201.1 137.6L201.8 134.7L205.2 132.7L205.9 134.8L208.7 133.2L205 122.9Z" fill="black"/>
<path d="M217.7 115.6L208.6 120.9V123.2L211.8 121.4V131.5L214.5 129.9V119.8L217.7 118V115.6Z" fill="black"/>
<path d="M226.1 110.7L218.8 114.9V127.4L226.2 123.2V120.8L221.5 123.5V120.3L225.8 117.9V115.5L221.5 117.9V115.8L226.1 113.1V110.7Z" fill="black"/>
<path d="M236.9 104.5L234.2 106.1V113.9C234.2 114.8 234.1 115.5 233.8 116.1C233.5 116.7 233 117.1 232.4 117.5C231.8 117.9 231.3 117.9 231 117.7C230.7 117.4 230.6 116.9 230.6 116V108.2L227.9 109.8V117.7C227.9 119.3 228.3 120.2 229.1 120.6C229.9 121 231 120.7 232.5 119.9C234 119 235.1 118 235.9 116.7C236.7 115.4 237 114 237 112.5L236.9 104.5Z" fill="black"/>
<path d="M241.7 107.4V104L242.6 103.5C242.9 103.3 243.2 103.2 243.4 103.1C243.6 103 243.8 102.9 244 102.9C244.2 102.9 244.4 103 244.5 103.1C244.6 103.3 244.7 103.5 244.7 103.8C244.7 104.2 244.7 104.5 244.6 104.7C244.5 105 244.4 105.2 244.2 105.5C244 105.8 243.8 106 243.5 106.2C243.2 106.4 242.9 106.6 242.5 106.8L241.7 107.4ZM243.3 100.8L238.9 103.3V115.7L241.6 114.1V109.5L242.6 108.9L245.6 111.7L248.9 109.8L245.2 106.6C245.8 105.9 246.3 105.1 246.7 104.3C247.1 103.5 247.3 102.6 247.3 101.7C247.3 101 247.2 100.5 247 100.2C246.8 99.8999 246.5 99.6999 246.1 99.6999C245.7 99.5999 245.3 99.6999 244.9 99.8999C244.5 100.2 243.9 100.4 243.3 100.8Z" fill="black"/>
<path d="M208.4 170.69V180.39L227 191.09V181.39L208.4 170.69Z" fill="#AEC6F7" stroke="#111111" stroke-miterlimit="10"/>
<path d="M240.9 173.19L227 181.39L208.4 170.69L222.4 162.49L240.9 173.19Z" fill="#AEC6F7" stroke="#111111" stroke-miterlimit="10"/>
<path d="M240.9 176.59L227 184.79L208.4 173.99L222.4 165.89L240.9 176.59Z" fill="white"/>
<path d="M222.4 162.09L208 170.49V180.69L227 191.69L241.4 183.29V173.09L222.4 162.09ZM226.6 190.39L208.8 180.09V171.29L226.6 181.59V190.39ZM209.1 170.69L222.3 162.99L240.1 173.29L226.9 180.99L209.1 170.69Z" fill="#15110E"/>
<path d="M227 191.09V196.39L209.4 186.19V180.99L227 191.09Z" fill="#AEC6F7" stroke="#111111" stroke-miterlimit="10"/>
<path d="M227 190.69L209 180.29V186.49L227.1 196.89L239.6 189.59V183.29L227 190.69ZM209.8 185.99V181.59L226.6 191.29L226.7 195.69L209.8 185.99Z" fill="#15110E"/>
<path d="M226.8 191.29V190.39L239.4 182.99V183.89L226.8 191.29Z" fill="#AEC6F7"/>
<path d="M232.2 177.99L214.1 167.59L214.5 166.89L232.9 177.49L232.2 177.99Z" fill="#15110E"/>
<path d="M231.6 194.19L230.8 194.69L232.2 187.29V177.99L232.9 177.49V187.39L231.6 194.19Z" fill="#AEC6F7"/>
<path d="M232.5 171.29C232.3 170.79 231.9 170.19 230.8 169.99C229.4 169.69 228 171.19 227.1 172.39C227.1 171.99 227.1 171.69 227.1 171.29C227 170.19 225.4 168.39 224.1 168.29C223.7 168.19 222.9 168.29 222.5 169.49C221.7 171.79 225 173.69 226.1 174.29L226 174.49L226.5 174.59L226.9 174.79V174.69C227.4 174.69 228.2 174.79 229 174.79C230.2 174.79 231.4 174.69 231.8 174.19C232.4 173.29 232.8 172.19 232.5 171.29ZM223.2 169.59C223.4 168.99 223.7 168.89 223.9 168.89H224C225 168.99 226.3 170.49 226.3 171.19C226.4 171.99 226.3 172.79 226.2 173.39C225 172.69 222.7 170.99 223.2 169.59ZM231.3 173.39C230.9 173.79 229 173.79 227.2 173.69C227.9 172.49 229.4 170.49 230.7 170.69C231.3 170.79 231.7 171.09 231.8 171.49C232 172.09 231.7 172.99 231.3 173.39Z" fill="#15110E"/>
<path d="M227.8 177.09C227.5 177.09 227.2 176.99 226.8 176.89C225.8 176.39 226.1 175.59 226.3 175.09C226.4 174.89 226.5 174.59 226.4 174.49C226.4 174.39 226.2 174.39 226.1 174.29C225.4 174.09 224.8 174.09 224.3 174.29C223.6 174.69 223.4 175.49 223.4 175.49L222.7 175.29C222.7 175.29 223 174.09 224 173.59C224.7 173.19 225.5 173.19 226.4 173.49C226.8 173.59 227.1 173.79 227.2 174.09C227.4 174.49 227.3 174.89 227.1 175.29C226.9 175.89 226.9 175.99 227.2 176.09C228.3 176.59 229 175.69 229.1 175.59L229.7 176.09C229.3 176.59 228.7 177.09 227.8 177.09Z" fill="#15110E"/>
<path d="M230 161.79C230 161.79 230.1 164.19 227.5 164.49C225.6 164.69 224.3 165.09 224 165.19C223.9 165.19 223.6 164.99 223.6 164.99L223.5 163.79C223.5 163.79 225.3 162.99 225.4 162.99C225.5 162.99 226.9 163.09 227.6 162.69C228.2 162.29 228 161.69 227.8 161.19C227.5 160.69 228 160.49 228 160.49L229.8 161.39L229.9 161.49C229.8 161.39 229.9 161.59 230 161.79Z" fill="#AEC6F7"/>
<path d="M224 165.49C223.9 165.49 223.8 165.49 223.8 165.39C223.7 165.39 223.4 165.19 223.3 164.99V164.89L223.2 163.39L223.4 163.29C225.2 162.49 225.3 162.49 225.4 162.49H225.5C226.8 162.59 227.3 162.39 227.4 162.29C227.7 162.09 227.8 161.89 227.5 161.19C227.3 160.89 227.4 160.59 227.4 160.49C227.5 160.19 227.8 160.09 227.8 160.09L227.9 159.99L229.9 160.99L230 161.09C230.2 161.29 230.3 161.49 230.3 161.69C230.3 161.69 230.4 164.39 227.5 164.69C225.6 164.89 224.4 165.29 224.1 165.39L224 165.49ZM223.9 164.69C223.9 164.69 224 164.69 224 164.79C224.4 164.59 225.7 164.29 227.5 164.09C229.6 163.89 229.7 161.99 229.7 161.79C229.7 161.69 229.6 161.59 229.5 161.49L228 160.69C228 160.69 228 160.79 228 160.89C228.2 161.19 228.7 162.19 227.7 162.79C227.3 163.09 226.5 163.19 225.4 163.09C225.2 163.19 224.5 163.49 223.8 163.79L223.9 164.69Z" fill="#15110E"/>
<path d="M229.9 161.49C229 159.89 225.1 163.29 224.5 164.79C224.3 165.09 223.8 165.29 223.4 165.09L222.7 164.79C222.7 164.79 223.2 160.39 226.3 159.69C228.7 159.19 229.9 161.49 229.9 161.49Z" fill="white"/>
<path d="M223.8 165.49C223.6 165.49 223.5 165.49 223.3 165.39L222.4 164.99V164.79C222.4 164.59 222.9 160.19 226.2 159.49C228.7 158.89 230 161.29 230.1 161.49L229.5 161.79C229.4 161.69 229.3 161.49 229 161.49C227.7 161.59 225.2 163.89 224.7 164.99C224.6 165.29 224.2 165.49 223.8 165.49ZM223.1 164.59L223.5 164.79C223.8 164.89 224.1 164.79 224.1 164.69C224.6 163.39 227.2 160.99 228.8 160.79C228.3 160.29 227.4 159.79 226.3 160.09C223.9 160.59 223.2 163.69 223.1 164.59Z" fill="#15110E"/>
<path d="M216.4 161.59C216.4 161.59 216.3 164.09 218.7 164.39C220.5 164.59 221.7 164.99 222 165.09C222.1 165.09 222.4 164.89 222.4 164.79L222.5 163.49C222.5 163.49 221 162.99 220.9 162.99C220.8 162.99 219.2 162.79 218.7 162.39C218.1 161.99 218.3 161.39 218.5 160.79C218.8 160.19 218.3 159.99 218.3 159.99L216.6 160.89L216.5 160.99C216.5 161.19 216.4 161.39 216.4 161.59Z" fill="#AEC6F7"/>
<path d="M222 165.49H221.9C221.6 165.39 220.5 164.99 218.7 164.79C216.5 164.49 216 162.59 216.1 161.69C216.1 161.49 216.2 161.19 216.4 160.99L216.6 160.79L218.4 159.79L218.5 159.89C218.5 159.89 218.8 159.99 218.9 160.29C219 160.49 219 160.69 218.9 160.99C218.6 161.69 218.7 161.99 219 162.19C219.5 162.49 220.9 162.69 221.1 162.69C221.2 162.69 221.2 162.69 222.8 163.29L223 163.39L222.9 164.99C222.8 165.19 222.4 165.39 222.4 165.39C222.2 165.39 222.1 165.49 222 165.49ZM216.7 161.59C216.7 161.79 216.7 163.79 218.8 163.99C220.5 164.19 221.6 164.49 222.1 164.69C222.1 164.69 222.2 164.69 222.2 164.59L222.3 163.69C221.7 163.49 221.1 163.29 221 163.29C221 163.29 219.3 163.09 218.6 162.69C217.7 162.09 218.2 160.99 218.3 160.69C218.3 160.59 218.4 160.49 218.3 160.49L216.9 161.29C216.8 161.39 216.7 161.49 216.7 161.59Z" fill="#15110E"/>
<path d="M216.5 161.29C217.4 159.59 221 163.19 221.6 164.69C221.8 165.09 222.2 165.19 222.6 164.99L223.2 164.69C223.2 164.69 222.8 160.09 219.8 159.39C217.6 158.89 216.5 161.29 216.5 161.29Z" fill="white"/>
<path d="M222.2 165.49C222.1 165.49 222 165.49 221.8 165.39C221.5 165.29 221.3 165.09 221.2 164.89C220.7 163.69 218.4 161.19 217.2 161.19C217 161.19 216.8 161.29 216.7 161.49L216.1 161.19C216.5 160.29 217.9 158.59 219.8 159.09C222.9 159.89 223.4 164.49 223.4 164.69V164.89L222.6 165.29C222.5 165.39 222.4 165.49 222.2 165.49ZM217.4 160.59C219 160.79 221.4 163.49 221.9 164.69C221.9 164.79 222 164.79 222.1 164.89C222.2 164.89 222.3 164.89 222.5 164.89L222.9 164.69C222.8 163.79 222.1 160.49 219.8 159.89C218.6 159.49 217.9 159.99 217.4 160.59Z" fill="#15110E"/>
<path d="M224.1 164.89C224.1 164.79 224.1 164.79 224.1 164.69C224.1 164.49 223.9 163.89 223.2 163.89C222.5 163.89 222.3 164.39 222.2 164.59C222.2 164.69 222.2 164.79 222.2 164.79C222.3 164.99 222.5 165.19 222.8 165.19H223.5C223.8 165.29 224 165.09 224.1 164.89Z" fill="#14100D"/>
<path d="M223.5 165.59H222.8C222.4 165.59 222 165.29 221.9 164.89C221.9 164.69 221.9 164.59 221.9 164.49C222 163.89 222.5 163.49 223.2 163.49C224 163.49 224.4 164.09 224.4 164.59C224.4 164.69 224.4 164.79 224.4 164.89C224.3 165.39 223.9 165.59 223.5 165.59ZM223.2 164.19C222.8 164.19 222.6 164.39 222.5 164.69V164.79C222.5 164.89 222.7 164.99 222.8 164.99H223.5C223.6 164.99 223.8 164.89 223.8 164.79C223.8 164.79 223.8 164.79 223.8 164.69C223.8 164.19 223.3 164.19 223.2 164.19Z" fill="#15110E"/>
</g>
<defs>
<clipPath id="clip0">
<rect width="386.6" height="335.9" fill="white"/>
</clipPath>
</defs>
</svg>
