<svg width="395" height="347" viewBox="0 0 395 347" fill="none" xmlns="http://www.w3.org/2000/svg">
<g clip-path="url(#clip0)">
<path d="M126.2 155.9H126.3L238.1 155.4L246.3 160.1L134.5 160.7L264.8 235.9L260.1 238.6L354.9 238.1L363.1 242.9L251.7 243.5L195.8 275.7L235.6 298.7H169.9L162.8 294.6L147 303.8L242.2 303.3L250.4 308L138.6 308.6L0 228.6L126.2 155.9Z" fill="#BABCBE"/>
<path d="M235.5 254.7L279 229.7L165.7 164.2L122.2 189.2L235.5 254.7Z" fill="white"/>
<path d="M235.5 255.7C235.7 255.7 235.8 255.7 236 255.6L279.5 230.6C279.8 230.4 280 230.1 280 229.7C280 229.3 279.8 229 279.5 228.8L166.2 163.3C165.9 163.1 165.5 163.1 165.2 163.3L121.7 188.3C121.4 188.5 121.2 188.8 121.2 189.2C121.2 189.6 121.4 189.9 121.7 190.1L235 255.6C235.2 255.6 235.3 255.7 235.5 255.7ZM277 229.6L235.5 253.5L124.1 189.1L165.6 165.2L277 229.6Z" fill="black"/>
<path d="M235.1 298.6L236.6 297.7V254.7L236.1 253.8L122.6 188.3L121.1 189.2V232.2L121.6 233.1L235.1 298.6ZM234.6 255.3V296L123.1 231.6V190.9L234.6 255.3Z" fill="black"/>
<path d="M235.6 298.7C235.8 298.7 235.9 298.7 236.1 298.6L279.5 273.6C279.8 273.4 280 273.1 280 272.7V229.7C280 229.3 279.8 229 279.5 228.8C279.2 228.6 278.8 228.6 278.5 228.8L235.1 253.8C234.8 254 234.6 254.3 234.6 254.7V297.7C234.6 298.1 234.8 298.4 235.1 298.6C235.3 298.7 235.5 298.7 235.6 298.7ZM278 272.1L236.6 296V255.3L278 231.4V272.1Z" fill="black"/>
<path d="M104.1 108L249.7 192.1V154.5L176.9 88.0999L104.1 70.3999V108Z" fill="#AEC6F7" stroke="#111111" stroke-miterlimit="10"/>
<path d="M249.2 192.9L250.7 192V154.4L250.4 153.7L177.1 87.0998L104.3 69.2998L103.1 70.2998V108L103.6 108.9L249.2 192.9ZM248.7 154.9V190.4L105 107.5V71.5998L176.4 88.9998L248.7 154.9Z" fill="#AEC6F7" stroke="#111111" stroke-miterlimit="10"/>
<path d="M104.1 70.3999L176.9 88.0999L249.7 154.5V163.6L176.9 97.2999L104.1 79.4999V70.3999Z" fill="#AEC6F7" stroke="#111111" stroke-miterlimit="10"/>
<path d="M248.7 154.9V161.4L177.5 96.6C177.4 96.5 177.2 96.4 177.1 96.4L105 78.8V71.7L176.4 89L248.7 154.9Z" fill="#AEC6F7" stroke="#111111" stroke-miterlimit="10"/>
<path d="M242.9 303.6L249.7 307.5V199.2L242.9 195.3V303.6Z" fill="#111111"/>
<path d="M249.2 308.3L250.7 307.4V199.2L250.2 198.3L243.4 194.4L241.9 195.3V303.6L242.4 304.5L249.2 308.3ZM248.7 199.8V305.8L243.9 303V197L248.7 199.8Z" fill="#111111"/>
<path d="M256.5 303.6L249.7 307.5V199.2L256.5 195.3V303.6Z" fill="white"/>
<path d="M249.7 308.5C249.9 308.5 250 308.5 250.2 308.4L257 304.5C257.3 304.3 257.5 304 257.5 303.6V195.3C257.5 194.9 257.3 194.6 257 194.4C256.7 194.2 256.3 194.2 256 194.4L249.2 198.3C248.9 198.5 248.7 198.8 248.7 199.2V307.5C248.7 307.9 248.9 308.2 249.2 308.4C249.4 308.4 249.6 308.5 249.7 308.5ZM255.5 303L250.7 305.8V199.8L255.5 197V303Z" fill="black"/>
<path d="M356.3 238.4L363.1 242.3V134L356.3 130.1V238.4Z" fill="#111111"/>
<path d="M362.1 134.6V240.6L357.3 237.8V131.8L362.1 134.6Z" fill="#111111"/>
<path d="M369.9 238.4L363.1 242.3V134L369.9 130.1V238.4Z" fill="white"/>
<path d="M363.1 243.3C363.3 243.3 363.4 243.3 363.6 243.2L370.4 239.3C370.7 239.1 370.9 238.8 370.9 238.4V130.1C370.9 129.7 370.7 129.4 370.4 129.2C370.1 129 369.7 129 369.4 129.2L362.6 133.1C362.3 133.3 362.1 133.6 362.1 134V242.3C362.1 242.7 362.3 243 362.6 243.2C362.8 243.2 362.9 243.3 363.1 243.3ZM368.9 237.8L364.1 240.6V134.6L368.9 131.8V237.8Z" fill="black"/>
<path d="M104.1 223.6L110.9 227.5V119.2L104.1 115.3V223.6Z" fill="#111111"/>
<path d="M110.4 228.4L111.9 227.5V119.2L111.4 118.3L104.6 114.4L103.1 115.3V223.6L103.6 224.5L110.4 228.4ZM109.9 119.8V225.8L105.1 223V117L109.9 119.8Z" fill="#111111"/>
<path d="M117.7 223.6L110.9 227.5V119.2L117.7 123.1V223.6Z" fill="white"/>
<path d="M110.9 228.5C111.1 228.5 111.2 228.5 111.4 228.4L118.2 224.5C118.5 224.3 118.7 224 118.7 223.6V123.1C118.7 122.7 118.5 122.4 118.2 122.2L111.4 118.3C111.1 118.1 110.7 118.1 110.4 118.3C110.1 118.5 109.9 118.8 109.9 119.2V227.5C109.9 227.9 110.1 228.2 110.4 228.4C110.6 228.5 110.7 228.5 110.9 228.5ZM116.7 223L111.9 225.8V121L116.7 123.7V223Z" fill="black"/>
<path d="M104.1 115.3L249.7 199.4V192.1L104.1 108V115.3Z" fill="#AEC6F7" stroke="#111111" stroke-miterlimit="10"/>
<path d="M249.7 200.4C249.9 200.4 250 200.4 250.2 200.3C250.5 200.1 250.7 199.8 250.7 199.4V192.1C250.7 191.7 250.5 191.4 250.2 191.2L104.6 107.1C104.3 106.9 103.9 106.9 103.6 107.1C103.3 107.3 103.1 107.6 103.1 108V115.3C103.1 115.7 103.3 116 103.6 116.2L249.2 200.3C249.4 200.4 249.6 200.4 249.7 200.4ZM248.7 192.7V197.7L105 114.7V109.7L248.7 192.7Z" fill="black"/>
<path d="M369.9 130L249.7 199.4V154.5L369.9 85.0999V130Z" fill="#111111"/>
<path d="M249.7 200.4C249.9 200.4 250 200.4 250.2 200.3L370.4 130.9C370.7 130.7 370.9 130.4 370.9 130V85.0998C370.9 84.6998 370.7 84.3998 370.4 84.1998C370.1 83.9998 369.7 83.9998 369.4 84.1998L249.2 153.6C248.9 153.8 248.7 154.1 248.7 154.5V199.4C248.7 199.8 248.9 200.1 249.2 200.3C249.4 200.4 249.6 200.4 249.7 200.4ZM368.9 129.4L250.7 197.6V155L368.9 86.7998V129.4Z" fill="#111111"/>
<path d="M369.9 130L249.7 199.4V192.1L369.9 122.8V130Z" fill="#AEC6F7" stroke="#111111" stroke-miterlimit="10"/>
<path d="M369.9 94.1999L249.7 163.6V154.5L369.9 85.0999V94.1999Z" fill="#AEC6F7" stroke="#111111" stroke-miterlimit="10"/>
<path d="M176.9 88.0999L297.1 18.7L369.9 85.0999L249.7 154.5L176.9 88.0999Z" fill="white"/>
<path d="M249.7 155.5C249.9 155.5 250 155.5 250.2 155.4L370.4 85.9999C370.7 85.7999 370.9 85.5999 370.9 85.1999C370.9 84.8999 370.8 84.5999 370.6 84.3999L297.8 17.9999C297.5 17.6999 297 17.6999 296.6 17.8999L176.4 87.2999C176.1 87.4999 175.9 87.6999 175.9 88.0999C175.9 88.3999 176 88.6999 176.2 88.8999L249 155.2C249.3 155.4 249.5 155.5 249.7 155.5ZM368.2 84.8999L249.8 153.2L178.5 88.2999L297 19.9999L368.2 84.8999Z" fill="black"/>
<path d="M176.9 89.0999C177.1 89.0999 177.2 89.0999 177.4 88.9999L297.6 19.5999C298 19.3999 298.1 18.9999 298.1 18.5999C298 18.1999 297.7 17.8999 297.4 17.7999L224.5 -8.25487e-05C224.3 -0.100083 224 -8.2545e-05 223.8 0.0999175L103.6 69.4999C103.2 69.6999 103.1 70.0999 103.1 70.4999C103.2 70.8999 103.5 71.1999 103.8 71.2999L176.6 89.0999C176.8 89.0999 176.8 89.0999 176.9 89.0999ZM294.4 19.0999L176.8 87.0999L106.8 69.9999L224.4 2.09992L294.4 19.0999Z" fill="black"/>
<path d="M165.8 185.868L187.3 173.368L166.8 161.468L145.2 173.968L165.8 185.868Z" fill="white" stroke="#0A0A0A" stroke-miterlimit="10"/>
<path d="M187.3 173.367V194.467L165.8 206.967V185.867L187.3 173.367Z" fill="#AEC6F7" stroke="#111111" stroke-miterlimit="10"/>
<path d="M166.7 161.267L166.8 161.167L187.5 173.167V194.567L165.7 207.167L145.1 195.267L145 195.167V173.767L166.7 161.267ZM166 206.567L187.1 194.367V173.767L171.2 182.967L166 186.067V206.567ZM186.9 173.367L166.8 161.767L145.7 173.967L165.8 185.567L186.9 173.367Z" fill="#15110E"/>
<path d="M155.3 179.667L176.8 167.167L176.5 166.867L154.9 179.467L155.3 179.667Z" fill="#15110E"/>
<path d="M154.9 200.767L155.4 201.067V179.667L154.9 179.367V200.767Z" fill="#AEC6F7"/>
<path d="M176.6 200.567H177V179.467H176.9L156.1 167.667L155.9 168.067L176.6 179.767V200.567Z" fill="#15110E"/>
<path d="M150.4 169.768C150.9 168.168 151.8 167.068 153.1 166.768C156.9 165.768 163 170.567 165.2 172.367C164.9 171.367 164.6 169.667 164.9 166.867C165.2 163.767 167.9 161.467 170.2 161.067C172 160.767 173.5 161.468 174.3 163.168C176.2 167.168 167.9 172.268 166.2 173.268C166.7 174.068 167.4 173.967 168.2 173.867C168.8 173.767 169.5 173.667 170.2 174.067C171.6 174.967 172.1 176.568 172.1 176.668L171.7 176.768C171.7 176.768 171.3 175.167 170 174.367C169.5 174.067 168.9 174.168 168.3 174.168C167.5 174.268 166.6 174.367 165.9 173.367H165.8C165.6 173.367 165.4 173.467 165 173.567C164.4 173.767 163.8 174.167 163.6 175.067C163.4 175.967 162.8 176.767 162 177.067C161.6 177.267 161.2 177.367 160.8 177.367C160.3 177.367 159.9 177.267 159.4 177.067L159.6 176.668C160.3 177.068 161.1 177.068 161.8 176.768C162.5 176.468 163 175.867 163.1 175.067C163.2 174.567 163.4 174.167 163.7 173.867C161.9 174.267 159.1 174.668 156.6 174.668C154.2 174.668 152 174.268 150.9 173.168C150.1 172.368 149.9 171.168 150.4 169.768ZM173.9 163.367C173.3 162.167 172.3 161.467 171 161.467C170.8 161.467 170.5 161.467 170.3 161.567C168.1 161.967 165.7 164.067 165.4 166.967C165 170.867 165.7 172.567 165.9 173.067C167.2 172.167 175.7 167.067 173.9 163.367ZM151.2 172.867C153.6 175.367 162.1 173.868 164.8 173.268C165 173.168 165.1 173.168 165.3 173.168C163.8 171.768 157.1 166.168 153.2 167.268C152 167.568 151.2 168.467 150.8 169.967C150.4 171.167 150.5 172.167 151.2 172.867Z" fill="#15110E"/>
<path d="M175.1 192.768V187.268L182.8 182.768V188.268C182.8 188.268 182.7 190.968 183.9 191.668C185.1 192.368 185.1 192.268 185.1 192.268L177.4 196.768C177.4 196.768 177.4 196.768 176.2 196.168C175 195.468 175.1 192.768 175.1 192.768Z" fill="#AEC6F7" stroke="#111111" stroke-miterlimit="10"/>
<path d="M174.1 194.367V188.867L181.8 184.367V189.867C181.8 189.867 181.7 192.567 182.9 193.267C184.1 193.867 184.1 193.867 184.1 193.867L176.4 198.367C176.4 198.367 176.4 198.367 175.2 197.767C174 197.167 174.1 194.367 174.1 194.367Z" fill="white"/>
<path d="M177.3 196.968L185.4 192.268L183.9 191.468C183 190.968 182.9 188.968 183 188.268V182.468L174.9 187.168V192.768C174.9 192.968 174.8 195.668 176.1 196.368L177.3 196.968ZM184.6 192.268L177.3 196.468L176.2 195.868C175.3 195.368 175.2 193.368 175.3 192.668V187.368L182.6 183.168V188.268C182.6 188.368 182.5 191.168 183.8 191.868L184.6 192.268Z" fill="#15110E"/>
<path d="M181.2 189.268C181.3 187.768 179.4 188.468 178.9 190.068C178.4 189.068 176.5 190.268 176.6 191.868C176.6 193.068 178.7 193.968 178.9 194.068C179.1 193.768 181.2 190.468 181.2 189.268Z" fill="#AEC6F7"/>
<path d="M179.1 193.068H179.2L179.3 192.967C179.7 192.367 181.6 189.268 181.6 188.068C181.6 187.268 181.2 187.068 181 187.068C180.4 186.968 179.5 187.567 179.1 188.467C178.9 188.267 178.6 188.267 178.3 188.367C177.5 188.567 176.6 189.568 176.7 190.768C176.7 191.968 178.6 192.968 179.1 193.168V193.068ZM181.2 187.967C181.2 188.867 179.9 191.268 179 192.568C178.2 192.168 177 191.368 177 190.568C177 189.568 177.8 188.768 178.3 188.568C178.6 188.468 178.8 188.568 178.9 188.768L179.1 189.268L179.3 188.768C179.6 187.768 180.5 187.168 180.9 187.268C181.2 187.368 181.2 187.667 181.2 187.967Z" fill="#15110E"/>
<path d="M148.3 103.4L141 99.2V111.7L148.3 115.9V113.5L143.7 110.8V107.7L147.9 110.2V107.8L143.7 105.3V103.1L148.3 105.8V103.4Z" fill="black"/>
<path d="M154.8 107C153.2 106.1 151.9 105.9 150.9 106.5C149.9 107.1 149.5 108.4 149.5 110.4C149.5 112.4 150 114.3 150.9 116C151.8 117.7 153.1 119 154.8 119.9C155.3 120.2 155.7 120.4 156 120.5C156.3 120.6 156.6 120.7 157 120.8C157.3 120.9 157.5 120.9 157.8 120.9C158.1 120.9 158.3 120.9 158.5 120.9V118L158.3 117.9C158.2 118 158 118 157.8 118.1C157.6 118.2 157.4 118.2 157.2 118.3C157 118.3 156.7 118.3 156.4 118.3C156.1 118.2 155.7 118.1 155.4 117.9C155.1 117.7 154.7 117.4 154.4 117.1C154.1 116.8 153.7 116.4 153.5 115.9C153.2 115.4 153 114.8 152.8 114.2C152.6 113.6 152.5 112.9 152.5 112.1C152.5 111.4 152.6 110.8 152.8 110.3C153 109.9 153.2 109.6 153.5 109.4C153.8 109.2 154.1 109.1 154.4 109.2C154.7 109.3 155.1 109.4 155.5 109.6C155.8 109.8 156.2 110 156.5 110.3C156.8 110.6 157.1 110.9 157.3 111.2C157.5 111.5 157.8 111.8 158 112.1C158.2 112.4 158.4 112.7 158.5 112.9L158.8 113.1V110.1C158.6 109.9 158.4 109.6 158.1 109.3C157.8 109 157.5 108.7 157.3 108.5C157 108.2 156.7 108 156.3 107.7C155.6 107.5 155.3 107.2 154.8 107Z" fill="black"/>
<path d="M162.8 117.4V114L163.7 114.5C164 114.7 164.3 114.8 164.5 115C164.7 115.1 164.9 115.3 165.1 115.5C165.3 115.8 165.5 116 165.6 116.3C165.7 116.6 165.8 116.9 165.8 117.2C165.8 117.5 165.8 117.8 165.7 118C165.6 118.2 165.5 118.3 165.3 118.3C165.1 118.4 164.9 118.4 164.6 118.3C164.3 118.2 164 118 163.6 117.8L162.8 117.4ZM164.4 112.8L160 110.3V122.7L162.7 124.3V119.7L163.7 120.3L166.7 126.6L170 128.5L166.4 121.1C167 121.1 167.5 120.9 167.9 120.6C168.3 120.2 168.5 119.6 168.5 118.6C168.5 117.9 168.4 117.3 168.2 116.7C168 116.1 167.7 115.6 167.3 115.1C166.9 114.6 166.5 114.2 166.1 113.9C165.6 113.5 165.1 113.1 164.4 112.8Z" fill="black"/>
<path d="M176.3 119.6L170.5 116.2V118.4L172 119.3V127.4L170.4 126.5V128.7L176.3 132V129.9L174.7 129V120.9L176.3 121.8V119.6Z" fill="black"/>
<path d="M187.2 125.9L184.4 124.3L182 131.4L179.7 121.6L176.9 119.9L180.6 134.5L183.4 136.2L187.2 125.9Z" fill="black"/>
<path d="M191 135.7L192.1 132.2L193.2 136.9L191 135.7ZM193.6 129.6L190.6 127.9L186.9 138.2L189.6 139.8L190.3 137.7L193.7 139.7L194.4 142.6L197.2 144.2L193.6 129.6Z" fill="black"/>
<path d="M203.8 135.4L197.9 132.1V134.3L199.5 135.2V143.3L197.9 142.4V144.5L203.7 147.9V145.7L202.2 144.8V136.7L203.8 137.6V135.4Z" fill="black"/>
<path d="M214.8 141.9L212.4 140.4L212.3 147.5L208.9 138.4L205.6 136.5L205.5 148.9L208 150.4V141.7L212.2 152.8L214.8 154.3V141.9Z" fill="black"/>
</g>
<defs>
<clipPath id="clip0">
<rect width="394.9" height="346.3" fill="white"/>
</clipPath>
</defs>
</svg>
