<svg width="162" height="420" viewBox="0 0 162 420" fill="none" xmlns="http://www.w3.org/2000/svg">
<g clip-path="url(#clip0)">
<path d="M49.9004 328.1V361.7C53.2004 364.3 64.0004 372.3 79.9004 372.6C97.0004 372.9 108.6 364.2 111.7 361.7C111.7 350.7 111.7 339.8 111.7 328.8L49.9004 328.1Z" fill="#111111"/>
<path d="M31.4001 231.8L8.20007 267.6C0.500069 279.4 2.30007 295 12.5001 304.7C26.7001 318.2 50.3001 334 82.9001 333.6C113.2 333.3 135.4 319.3 149.7 306C162.3 294.3 164.8 275.4 156.3 260.4L136.7 226L31.4001 231.8Z" fill="#AEC6F7" stroke="#111111" stroke-miterlimit="10"/>
<path d="M49.4006 155.4L25.1005 199.6C19.2005 210.4 21.7005 224 31.4005 231.8C43.0005 241.1 61.0005 250.8 84.5005 249.7C108.801 248.5 126.101 236.4 136.601 226C144.501 218.2 145.901 205.9 140.401 196.2L118.301 157.2L49.4006 155.4Z" fill="#111111"/>
<path d="M82.7996 30.6997L43.3996 120.8C38.2996 132.5 40.3996 146.3 49.3996 155.4C58.1996 164.2 69.9996 169.7 82.7996 170.2C96.0996 170.7 108.8 165.8 118.4 157.1C128.7 147.7 131.2 132.3 125.2 119.7L82.7996 30.6997Z" fill="#AEC6F7" stroke="#111111" stroke-miterlimit="10"/>
<path d="M83.4997 0.699902L88.2997 10.3999C88.4997 10.7999 88.7997 10.9999 89.1997 11.0999L99.9997 12.6999C101 12.7999 101.4 14.0999 100.7 14.7999L92.8997 22.3999C92.5997 22.6999 92.4997 23.0999 92.4997 23.4999L94.2997 34.1999C94.4997 35.1999 93.3997 35.9999 92.4997 35.4999L82.8997 30.3999C82.4997 30.1999 82.0997 30.1999 81.7997 30.3999L72.1997 35.4999C71.2997 35.9999 70.1997 35.1999 70.3997 34.1999L72.1997 23.4999C72.2997 23.0999 72.0997 22.6999 71.7997 22.3999L63.9997 14.7999C63.2997 14.0999 63.6997 12.7999 64.6997 12.6999L75.4997 11.0999C75.8997 10.9999 76.1997 10.7999 76.3997 10.3999L81.1997 0.699902C81.6997 -0.200098 82.9997 -0.200098 83.4997 0.699902Z" fill="#111111"/>
<path d="M87.1006 364.9V387.9L106.901 399.3C106.901 399.3 107.001 399.3 107.001 399.2V376.4L87.1006 364.9Z" fill="#AEC6F7" stroke="#111111" stroke-miterlimit="10"/>
<path d="M106.9 399.5H106.8L86.9004 388V364.7L107.1 376.4V399.3C107.1 399.4 107.1 399.5 107 399.5C106.9 399.4 106.9 399.5 106.9 399.5ZM87.2004 387.8L106.8 399.1V376.5L87.2004 365.2V387.8Z" fill="#15110E"/>
<path d="M126.8 364.9V387.9L107 399.3C107 399.3 106.9 399.3 106.9 399.2V376.4L126.8 364.9Z" fill="#14100D"/>
<path d="M107.001 399.5H106.901C106.801 399.5 106.801 399.4 106.801 399.3V376.4H106.901L127.001 364.8V388L107.101 399.5C107.101 399.4 107.001 399.5 107.001 399.5ZM107.101 376.5V399.1L126.701 387.8V365.2L107.101 376.5Z" fill="#15110E"/>
<path d="M128.201 361.7L106.901 374L85.6006 361.7V361.6L106.901 349.3L128.101 361.6C128.201 361.6 128.201 361.7 128.201 361.7Z" fill="#AEC6F7" stroke="#111111" stroke-miterlimit="10"/>
<path d="M128.3 363.5L107 375.8L85.7002 363.5V363.4L107 351.1L128.2 363.4C128.3 363.4 128.3 363.5 128.3 363.5Z" fill="white"/>
<path d="M106.9 374.2L85.5004 361.9C85.4004 361.9 85.4004 361.8 85.4004 361.7C85.4004 361.6 85.4004 361.6 85.5004 361.5L106.9 349.2H107L128.2 361.5C128.3 361.5 128.3 361.6 128.3 361.7C128.3 361.8 128.3 361.9 128.2 361.9L106.9 374.2ZM85.9004 361.6L106.9 373.7L127.9 361.6L106.9 349.5L85.9004 361.6Z" fill="#15110E"/>
<path d="M85.6006 361.7V368.2L107.001 380.5V374L85.6006 361.7Z" fill="#AEC6F7" stroke="#111111" stroke-miterlimit="10"/>
<path d="M107.1 380.799L85.4004 368.299V361.7C85.4004 361.6 85.4004 361.6 85.5004 361.5C85.6004 361.5 85.6004 361.5 85.7004 361.5L107.1 373.799V380.799ZM85.7004 368.1L106.7 380.2V374L85.7004 361.9V368.1Z" fill="#15110E"/>
<path d="M128.3 361.8V368.2L106.9 380.5V374L128.1 361.7C128.2 361.7 128.3 361.7 128.3 361.8Z" fill="#14100D"/>
<path d="M106.801 380.8V373.9H106.901L128.101 361.6C128.201 361.6 128.301 361.6 128.301 361.6C128.401 361.6 128.401 361.7 128.401 361.8V368.3H128.301L106.801 380.8ZM107.101 374.1V380.3L128.101 368.2V362L107.101 374.1Z" fill="#15110E"/>
<path d="M99.0006 369.5L120.501 357.2L115.401 354.3L94.1006 366.6L99.0006 369.5Z" fill="#AEC6F7" stroke="#111111" stroke-miterlimit="10"/>
<path d="M93.8008 372.9L98.7008 375.8V394.6L93.8008 391.7" fill="#AEC6F7"/>
<path d="M93.8008 372.9L98.7008 375.8V394.6L93.8008 391.7" stroke="#111111" stroke-miterlimit="10"/>
<path d="M94.501 392.3V373.5L99.501 376.4V395.2L94.501 392.3Z" fill="white"/>
<path d="M94.3008 373V366.7L99.3008 369.6V375.8L94.3008 373Z" fill="white"/>
<path d="M114.8 369.5L93.4004 357.2L98.4004 354.3L119.8 366.6L114.8 369.5Z" fill="#AEC6F7" stroke="#111111" stroke-miterlimit="10"/>
<path d="M86.8004 351.2C86.8004 351.2 86.5004 358.3 94.1004 359.1C99.8004 359.7 103.5 360.8 104.5 361.2C104.7 361.3 105.7 360.6 105.8 360.5L106.1 356.799C106.1 356.799 100.8 354.4 100.6 354.4C100.3 354.4 96.0004 354.8 94.2004 353.6C92.4004 352.5 92.9004 350.6 93.7004 349.1C94.5004 347.5 93.1004 347 93.1004 347L87.8004 349.6L87.6004 349.799C87.1004 350.199 86.9004 350.7 86.8004 351.2Z" fill="#AEC6F7" stroke="#111111" stroke-miterlimit="10"/>
<path d="M89.3004 357.2L94.1004 353.6C94.1004 353.6 94.1004 353.6 94.0004 353.6C92.2004 352.5 92.7004 350.6 93.5004 349.1C94.3004 347.5 92.9004 347 92.9004 347L87.6004 349.6L87.4004 349.799C87.0004 350.199 86.8004 350.7 86.7004 351.2C86.7004 351.2 86.5004 354.9 89.3004 357.2Z" fill="#14100D"/>
<path d="M104.5 361.4C104.5 361.4 104.4 361.4 104.5 361.4C103.5 361 99.9002 359.9 94.1002 359.3C86.3002 358.5 86.6002 351.3 86.6002 351.2C86.7002 350.7 87.0002 350.1 87.4002 349.7L87.7002 349.4L93.0002 346.7H93.1002C93.1002 346.7 93.7002 346.9 94.0002 347.5C94.2002 347.9 94.1002 348.4 93.8002 349C93.0002 350.5 92.5002 352.2 94.3002 353.3C95.0002 353.8 96.7002 354.3 100.4 354.1C100.5 354.1 100.6 354.1 100.6 354.1C100.9 354.1 104.6 355.8 106.2 356.5H106.3L105.9 360.4C105.8 360.6 105.1 361 104.9 361.1C104.7 361.3 104.6 361.4 104.5 361.4ZM86.9002 351.2C86.9002 351.6 86.7002 358.1 94.1002 358.9C99.9002 359.5 103.5 360.6 104.5 361C104.7 361 105.4 360.5 105.5 360.4L105.8 356.8C103.8 355.9 100.7 354.5 100.4 354.4C100.4 354.4 100.3 354.4 100.2 354.4C96.4002 354.6 94.6002 354.1 93.9002 353.6C91.9002 352.4 92.5002 350.4 93.3002 348.8C93.5002 348.3 93.6002 347.9 93.5002 347.6C93.4002 347.2 93.0002 347 92.9002 347L87.7002 349.6L87.5002 349.8C87.3002 350.3 87.0002 350.7 86.9002 351.2Z" fill="#15110E"/>
<path d="M87 350.4C89.7 345.5 101.1 355.8 103 360.1C103.5 361.1 105 361.5 106.2 361L108.1 360.1C108.1 360.1 106.8 347.2 97.5 345C90.6 343.5 87 350.4 87 350.4Z" fill="#AEC6F7" stroke="#111111" stroke-miterlimit="10"/>
<path d="M97.6002 346.5C93.8002 345.6 91.0002 347.3 89.2002 349C93.5002 348.8 101.5 356.4 103 360C103.5 361 105 361.4 106.2 360.9L107.9 360.1C107.3 356.7 104.9 348.2 97.6002 346.5Z" fill="white"/>
<path d="M105.1 361.4C104.2 361.4 103.3 361 102.9 360.2C101.4 356.6 93.8004 349.5 89.5004 349.3C88.4004 349.2 87.6004 349.6 87.2004 350.5L86.9004 350.3C86.9004 350.2 90.6004 343.3 97.6004 344.9C106.9 347 108.3 360 108.3 360.1V360.2L106.3 361.1C105.9 361.4 105.5 361.4 105.1 361.4ZM89.3004 349C89.4004 349 89.4004 349 89.5004 349C93.8004 349.2 101.6 356.4 103.1 360.1C103.6 361 105 361.4 106.1 360.9L107.9 360.1C107.7 358.8 106 347.3 97.5004 345.3C92.6004 344.2 89.4004 347.4 88.0004 349.3C88.4004 349.1 88.8004 349 89.3004 349Z" fill="#15110E"/>
<path d="M127.1 350.7C127.1 350.7 127.4 358.1 120.2 359C114.8 359.6 111.4 360.8 110.4 361.2C110.2 361.3 109.3 360.6 109.2 360.4L108.9 356.5C108.9 356.5 113.3 354.9 113.5 354.9C113.7 354.9 118.4 354.3 120.2 353.1C121.9 351.9 121.4 350 120.7 348.3C120 346.6 121.3 346.1 121.3 346.1L126.3 348.9L126.5 349.1C126.8 349.6 127 350.2 127.1 350.7Z" fill="#130F0C"/>
<path d="M120.201 353.2C119.401 353.8 120.001 353.6 118.601 353.9L122.901 358.2C127.501 355.5 127.101 350.7 127.101 350.7C127.001 350.2 126.801 349.6 126.401 349.2L126.201 349L121.201 346.2C121.201 346.2 119.901 346.8 120.601 348.4C121.401 350.1 121.901 352 120.201 353.2Z" fill="#AEC6F7" stroke="#111111" stroke-miterlimit="10"/>
<path d="M110.401 361.4C110.301 361.4 110.301 361.4 110.201 361.3C109.901 361.2 109.201 360.7 109.101 360.5L108.801 356.5H108.901C109.901 356.1 113.301 354.9 113.601 354.9C113.801 354.9 118.501 354.3 120.201 353.2C121.901 352 121.401 350.2 120.601 348.6C120.301 348 120.301 347.4 120.501 347C120.701 346.4 121.301 346.2 121.301 346.2H121.401L126.501 349.1L126.701 349.3C127.101 349.8 127.301 350.3 127.401 350.9C127.401 351 127.601 358.5 120.301 359.4C114.701 359.8 111.301 361 110.401 361.4ZM109.401 360.4C109.501 360.5 110.201 361 110.401 361C111.301 360.6 114.701 359.5 120.201 358.8C127.101 358 127.001 351 127.001 350.7C126.901 350.2 126.701 349.7 126.301 349.3L126.101 349.1L121.201 346.4C121.101 346.5 120.801 346.7 120.701 347C120.601 347.4 120.601 347.8 120.801 348.4C121.501 350 122.101 352.1 120.201 353.4C118.401 354.6 113.701 355.2 113.401 355.2C113.201 355.2 110.601 356.1 109.001 356.7L109.401 360.4Z" fill="#15110E"/>
<path d="M126.901 349.9C124.401 344.8 113.501 355.5 111.801 360.1C111.301 361.2 109.901 361.6 108.801 361L107.001 360.1C107.001 360.1 108.301 346.5 117.001 344.3C123.501 342.6 126.901 349.9 126.901 349.9Z" fill="#AEC6F7" stroke="#111111" stroke-miterlimit="10"/>
<path d="M116.901 346.4C110.301 348.1 108.001 356.3 107.201 360.2L108.701 361C109.801 361.6 111.201 361.1 111.701 360.1C113.101 356.5 120.001 349.1 124.201 348.6C122.601 346.9 120.201 345.6 116.901 346.4Z" fill="white"/>
<path d="M109.801 361.4C109.401 361.4 109.001 361.3 108.701 361.1L106.801 360.1V360C106.801 359.9 108.201 346.3 116.901 344.1C123.501 342.4 127.001 349.7 127.001 349.8L126.701 349.9C126.301 349 125.501 348.6 124.501 348.6C120.601 348.8 113.301 356.3 111.901 360C111.701 360.5 111.201 360.9 110.601 361.1C110.401 361.4 110.101 361.4 109.801 361.4ZM107.101 360L108.801 360.9C109.301 361.2 109.901 361.2 110.501 361C111.001 360.8 111.401 360.5 111.601 360C112.901 356.4 120.201 348.5 124.501 348.3C125.001 348.3 125.501 348.4 125.901 348.6C124.601 346.6 121.601 343.2 116.901 344.4C108.901 346.5 107.301 358.7 107.101 360Z" fill="#15110E"/>
<path d="M104.1 360.8C104 360.6 104 360.4 104 360.2C104.1 359.5 104.5 357.7 106.8 357.7C109 357.7 109.6 359.2 109.7 359.9C109.8 360.1 109.7 360.4 109.7 360.6V360.7C109.5 361.4 108.8 362 107.9 362H105.9C105.1 362 104.3 361.5 104.1 360.8Z" fill="#AEC6F7" stroke="#111111" stroke-miterlimit="10"/>
<path d="M107.9 362C108.7 362 109.5 361.5 109.7 360.7V360.6C109.8 360.4 109.8 360.1 109.7 359.9C109.6 359.6 109.5 359.2 109.3 358.9C108.9 358.8 108.5 358.7 108 358.7C105.7 358.7 105.3 360.4 105.2 361.2C105.2 361.4 105.2 361.6 105.3 361.8C105.3 361.9 105.3 361.9 105.4 362C105.6 362 105.7 362.1 105.9 362.1H107.9V362Z" fill="white"/>
<path d="M107.9 362.2H105.9C105 362.2 104.2 361.6 104 360.9C103.9 360.7 103.9 360.5 103.9 360.3C104 359.5 104.4 357.7 106.8 357.7C109.1 357.7 109.7 359.3 109.9 360.1C110 360.4 109.9 360.6 109.9 360.9V361C109.7 361.6 108.9 362.2 107.9 362.2ZM106.9 357.9C104.7 357.9 104.3 359.5 104.3 360.2C104.3 360.4 104.3 360.5 104.3 360.7C104.5 361.4 105.2 361.8 105.9 361.8H107.9C108.7 361.8 109.3 361.3 109.5 360.7V360.6C109.6 360.4 109.6 360.2 109.5 360C109.4 359.3 108.9 357.9 106.9 357.9Z" fill="#15110E"/>
<path d="M104.1 357.6C104.1 357.6 105.9 358.1 106 360.9C106 360.9 105.8 362.2 107 362.3C107 362.3 104.4 364 102.1 362.2C101 361.3 99.9004 359.4 98.3004 359.8C96.7004 360.2 99.8004 357.4 99.8004 357.4H101.5L102.5 358L103.1 357.6H104.1Z" fill="#130F0C"/>
<path d="M104.501 363.2C103.701 363.2 102.901 363 102.001 362.3C101.701 362.1 101.401 361.7 101.101 361.4C100.301 360.5 99.4008 359.6 98.3008 359.9C98.2008 359.9 97.8008 360 97.7008 359.8C97.5008 359.4 98.7008 358.2 99.7008 357.2H101.501L102.501 357.7L103.001 357.3L104.001 357.4C104.101 357.4 105.901 358 106.101 360.8C106.101 360.8 106.001 361.3 106.301 361.7C106.401 361.9 106.701 362 107.001 362H107.501L107.101 362.3C107.101 362.4 105.901 363.2 104.501 363.2ZM98.7008 359.6C99.7008 359.6 100.601 360.5 101.301 361.2C101.601 361.5 101.901 361.8 102.201 362.1C103.901 363.4 105.801 362.8 106.501 362.4C106.301 362.3 106.201 362.2 106.101 362.1C105.801 361.7 105.801 361.1 105.801 361C105.701 358.5 104.201 357.9 104.001 357.9L103.101 357.8L102.501 358.3L101.401 357.7H99.8008C98.9008 358.5 98.0008 359.5 97.9008 359.8C97.9008 359.8 98.0008 359.8 98.1008 359.8C98.4008 359.6 98.6008 359.6 98.7008 359.6Z" fill="#15110E"/>
<path d="M104.101 357.6L100.901 356.2C99.8008 355.7 98.5008 356 97.7008 356.9C96.9008 357.8 96.2008 359.2 96.4008 361.3C96.6008 365.6 95.5008 368.3 92.7008 368.5C92.4008 368.5 92.3008 368.8 92.4008 369L94.5008 372.2C94.7008 372.6 95.1008 372.7 95.6008 372.7C97.2008 372.4 100.901 371.3 101.201 367.3C101.301 362.3 100.201 359.6 104.101 357.6Z" fill="#AEC6F7" stroke="#111111" stroke-miterlimit="10"/>
<path d="M101.501 357.7C100.401 357.2 99.1006 357.5 98.3006 358.4C97.5006 359.3 96.8006 360.7 97.0006 362.8C97.2006 367.1 96.1006 369.8 93.3006 370C93.2006 370 93.2006 370 93.1006 370.1L94.5006 372.3C94.7006 372.7 95.1006 372.8 95.6006 372.8C97.2006 372.5 100.901 371.4 101.201 367.4C101.501 362.9 100.601 360.2 103.101 358.3L101.501 357.7Z" fill="white"/>
<path d="M95.2004 373C94.8004 373 94.4004 372.8 94.2004 372.4L92.1004 369.2C92.0004 369 92.0004 368.9 92.1004 368.7C92.2004 368.5 92.3004 368.4 92.5004 368.4C95.0004 368.2 96.3004 365.7 96.0004 361.3C95.9004 359.5 96.4004 357.9 97.4004 356.8C98.2004 355.8 99.6004 355.5 100.8 356.1L104.4 357.6L104.1 357.8C101.2 359.2 101.2 361.1 101.2 364.3C101.2 365.2 101.2 366.3 101.1 367.5C100.8 371.6 97.0004 372.8 95.4004 373.1C95.4004 373 95.3004 373 95.2004 373ZM99.7004 356.2C99.0004 356.2 98.2004 356.5 97.7004 357.1C96.7004 358.2 96.3004 359.6 96.4004 361.4C96.7004 365.9 95.3004 368.5 92.6004 368.8C92.5004 368.8 92.5004 368.9 92.5004 368.9C92.5004 369 92.5004 369 92.5004 369.1L94.6004 372.3C94.8004 372.6 95.1004 372.8 95.5004 372.7C97.1004 372.4 100.7 371.3 101 367.4C101.1 366.2 101.1 365.2 101.1 364.3C101.1 361.2 101.1 359.2 103.9 357.7L101 356.4C100.4 356.2 100 356.2 99.7004 356.2Z" fill="#15110E"/>
<path d="M106.9 362.3C106.9 362.3 107 362.4 106.9 362.3C107.6 362.2 110.6 361.8 111.3 365.7C112.1 370 117.7 372.2 121.3 368.6C121.5 368.4 121.6 368.2 121.7 368L122.8 364.5C122.9 364.2 122.6 364 122.3 364.2C120.8 365.3 117.5 367.3 115.9 364.8C113.8 361.4 111.9 359.6 109.6 360.1C109.5 360 107.3 360.3 106.9 362.3Z" fill="#AEC6F7" stroke="#111111" stroke-miterlimit="10"/>
<path d="M111.401 365.7C112.201 370 117.801 372.2 121.401 368.6C121.601 368.4 121.701 368.2 121.801 368L122.501 365.7C122.501 365.4 122.201 365.2 122.001 365.4C120.501 366.5 117.201 368.5 115.601 366C113.501 362.6 111.601 360.8 109.301 361.3C109.301 361.3 108.001 361.5 107.201 362.4C107.901 362.2 110.701 361.9 111.401 365.7Z" fill="white"/>
<path d="M117.101 370.5C116.501 370.5 115.901 370.4 115.301 370.2C113.101 369.5 111.501 367.8 111.201 365.7C111.001 364.4 110.401 363.4 109.601 362.9C108.601 362.2 107.401 362.4 107.101 362.5C107.001 362.5 106.901 362.5 106.901 362.4C106.801 362.3 106.801 362.3 106.801 362.2C107.101 360.1 109.501 359.8 109.501 359.8C112.201 359.2 114.201 361.7 116.001 364.6C116.401 365.2 116.901 365.6 117.501 365.7C119.101 366 121.001 364.8 122.101 364C122.301 363.9 122.501 363.9 122.701 364C122.901 364.1 122.901 364.3 122.901 364.5L121.801 368C121.701 368.3 121.601 368.5 121.401 368.7C120.201 369.9 118.701 370.5 117.101 370.5ZM107.901 362.1C108.401 362.1 109.101 362.2 109.801 362.6C110.701 363.2 111.301 364.2 111.501 365.6C111.901 367.6 113.401 369.2 115.401 369.9C117.501 370.5 119.601 370 121.201 368.4C121.401 368.2 121.501 368 121.501 367.8L122.601 364.3C122.601 364.2 122.601 364.1 122.501 364.1C122.501 364.1 122.401 364 122.301 364.1C121.201 364.9 119.201 366.2 117.501 365.9C116.801 365.8 116.201 365.3 115.701 364.6C113.401 360.9 111.601 359.5 109.501 360C109.401 360 107.401 360.3 107.001 362C107.301 362.1 107.601 362.1 107.901 362.1Z" fill="#15110E"/>
<path d="M116.8 382.1L111.4 386.8L112.6 391L117.9 386.4L116.8 382.1Z" fill="#130F0C"/>
<path d="M117.901 379.7L114.601 382.5L115.301 385.1L118.601 382.2L117.901 379.7Z" fill="#130F0C"/>
<path d="M126.701 368.9V369.3L107.101 380.6V380.2" fill="#AEC6F7"/>
<path d="M27.8 373.4L1 357.8L26.5 343.1L53.4 358.7L27.8 373.4Z" fill="white" stroke="#0A0A0A" stroke-miterlimit="10"/>
<path d="M1 357.8V384.1L27.8 399.6V373.4L1 357.8Z" fill="#AEC6F7" stroke="#111111" stroke-miterlimit="10"/>
<path d="M26.7002 342.9L26.6002 342.8L0.700195 357.7V384.3L27.8002 400L53.5002 385.2L53.6002 385.1V358.5L26.7002 342.9ZM27.6002 399.2L1.3002 383.9V358.3L21.1002 369.7L27.6002 373.5V399.2ZM1.5002 357.8L26.5002 343.4L52.8002 358.6L27.8002 373L1.5002 357.8Z" fill="#15110E"/>
<path d="M40.8006 365.7L14.1006 350.1L14.5006 349.7L41.4006 365.4L40.8006 365.7Z" fill="#15110E"/>
<path d="M41.3002 392L40.7002 392.3V365.7L41.3002 365.4V392Z" fill="#AEC6F7"/>
<path d="M14.3998 391.7H13.7998V365.5L13.8998 365.4L39.7998 350.8L40.0998 351.2L14.3998 365.8V391.7Z" fill="#15110E"/>
<path d="M47.0001 353.4C46.4001 351.4 45.3001 350.1 43.6001 349.7C38.9001 348.4 31.3001 354.4 28.6001 356.7C29.0001 355.5 29.3001 353.4 28.9001 349.8C28.5001 345.9 25.2001 343.1 22.3001 342.6C20.0001 342.2 18.2001 343.1 17.2001 345.2C14.8001 350.2 25.2001 356.5 27.3001 357.8C26.7001 358.7 25.9001 358.7 24.9001 358.6C24.1001 358.5 23.3001 358.4 22.5001 358.9C20.7001 360 20.1001 362.1 20.1001 362.2L20.6001 362.3C20.6001 362.3 21.1001 360.3 22.8001 359.4C23.4001 359 24.1001 359.1 24.9001 359.2C25.9001 359.3 27.0001 359.4 27.9001 358.2H28.0001L28.1001 358.1C28.3001 358.1 28.6001 358.2 29.0001 358.3C29.7001 358.6 30.5001 359.1 30.7001 360.2C31.0001 361.4 31.7001 362.3 32.7001 362.7C33.2001 362.9 33.7001 363 34.2001 363C34.8001 363 35.3001 362.9 35.9001 362.6L35.7001 362.1C34.8001 362.5 33.8001 362.6 33.0001 362.2C32.2001 361.8 31.6001 361 31.3001 360C31.2001 359.4 30.9001 358.9 30.5001 358.6C32.8001 359 36.2001 359.6 39.3001 359.6C42.3001 359.6 45.0001 359.1 46.4001 357.7C47.3001 356.6 47.5001 355.2 47.0001 353.4ZM17.7001 345.4C18.4001 343.9 19.7001 343 21.4001 343C21.7001 343 22.0001 343 22.3001 343.1C25.0001 343.6 28.0001 346.2 28.4001 349.8C28.9001 354.6 28.1001 356.7 27.8001 357.3C26.0001 356.4 15.5001 350 17.7001 345.4ZM45.9001 357.2C42.9001 360.4 32.4001 358.4 29.0001 357.7C28.8001 357.6 28.6001 357.6 28.4001 357.6C30.3001 355.9 38.6001 348.9 43.4001 350.2C44.8001 350.6 45.8001 351.7 46.4001 353.6C46.9001 355.1 46.8001 356.3 45.9001 357.2Z" fill="#15110E"/>
<path d="M16.1994 382V375.2L6.59941 369.6V376.4C6.59941 376.4 6.69941 379.8 5.29941 380.6C3.89941 381.4 3.89941 381.4 3.89941 381.4L13.4994 387C13.4994 387 13.4994 387 14.8994 386.2C16.2994 385.4 16.1994 382 16.1994 382Z" fill="#AEC6F7" stroke="#111111" stroke-miterlimit="10"/>
<path d="M17.3996 384.1V377.3L7.79961 371.7V378.5C7.79961 378.5 7.89961 381.9 6.49961 382.7C5.09961 383.5 5.09961 383.5 5.09961 383.5L14.6996 389.1C14.6996 389.1 14.6996 389.1 16.0996 388.3C17.4996 387.5 17.3996 384.1 17.3996 384.1Z" fill="white"/>
<path d="M13.3998 387.3L3.2998 381.4L5.0998 380.4C6.1998 379.8 6.2998 377.3 6.2998 376.4V369.2L16.3998 375.1V382C16.3998 382.2 16.4998 385.6 14.9998 386.4L13.3998 387.3ZM4.3998 381.4L13.4998 386.7L14.7998 386C15.8998 385.4 15.9998 382.9 15.9998 382V375.4L6.8998 370.1V376.4C6.8998 376.5 6.9998 380 5.4998 380.8L4.3998 381.4Z" fill="#15110E"/>
<path d="M8.59972 377.601C8.49972 375.701 10.8997 376.701 11.4997 378.601C12.0997 377.401 14.4997 378.801 14.3997 380.901C14.2997 382.401 11.7997 383.501 11.4997 383.701C11.1997 383.201 8.69972 379.201 8.59972 377.601Z" fill="#AEC6F7"/>
<path d="M11.1996 382.3H11.0996L10.9996 382.1C10.4996 381.4 8.19961 377.6 8.09961 376C8.09961 375 8.69961 374.8 8.89961 374.7C9.69961 374.6 10.7996 375.3 11.2996 376.5C11.5996 376.3 11.8996 376.2 12.2996 376.3C13.2996 376.6 14.3996 377.8 14.2996 379.3C14.1996 380.8 11.8996 382 11.2996 382.3V382.4L11.1996 382.3ZM8.59961 376C8.59961 377.2 10.2996 380.1 11.2996 381.7C12.2996 381.2 13.7996 380.3 13.7996 379.3C13.7996 378 12.8996 377 12.1996 376.9C11.7996 376.8 11.5996 376.9 11.4996 377.2L11.1996 377.8L10.9996 377.2C10.5996 376 9.49961 375.3 8.99961 375.4C8.69961 375.3 8.59961 375.7 8.59961 376Z" fill="#15110E"/>
<path d="M67.1 381.3L88.6 368.8L68.1 356.9L46.5 369.4L67.1 381.3Z" fill="white" stroke="#0A0A0A" stroke-miterlimit="10"/>
<path d="M88.5996 368.8V389.9L67.0996 402.4V381.3L88.5996 368.8Z" fill="#AEC6F7" stroke="#111111" stroke-miterlimit="10"/>
<path d="M67.9998 356.7L68.0998 356.6L88.7998 368.6V390L66.9998 402.6L46.3998 390.7L46.2998 390.6V369.2L67.9998 356.7ZM67.2998 402L88.3998 389.8V369.2L72.4998 378.4L67.2998 381.5V402ZM88.1998 368.8L68.0998 357.2L46.9998 369.4L67.0998 381L88.1998 368.8Z" fill="#15110E"/>
<path d="M56.6002 375.1L78.1002 362.6L77.8002 362.3L56.2002 374.9L56.6002 375.1Z" fill="#15110E"/>
<path d="M56.2002 396.2L56.7002 396.5V375.1L56.2002 374.8V396.2Z" fill="#AEC6F7"/>
<path d="M77.9002 396H78.3002V374.9H78.2002L57.4002 363.1L57.2002 363.5L77.9002 375.2V396Z" fill="#15110E"/>
<path d="M51.6994 365.2C52.1994 363.6 53.0994 362.5 54.3994 362.2C58.1994 361.2 64.2994 366 66.4994 367.8C66.1994 366.8 65.8994 365.1 66.1994 362.3C66.4994 359.2 69.1994 356.9 71.4994 356.5C73.2994 356.2 74.7994 356.9 75.5994 358.6C77.4994 362.6 69.1994 367.7 67.4994 368.7C67.9994 369.5 68.6994 369.4 69.4994 369.3C70.0994 369.2 70.7994 369.1 71.4994 369.5C72.8994 370.4 73.3994 372 73.3994 372.1L72.9994 372.2C72.9994 372.2 72.5994 370.6 71.2994 369.8C70.7994 369.5 70.1994 369.6 69.5994 369.6C68.7994 369.7 67.8994 369.8 67.1994 368.8H67.0994C66.8994 368.8 66.6994 368.9 66.2994 369C65.6994 369.2 65.0994 369.6 64.8994 370.5C64.6994 371.4 64.0994 372.2 63.2994 372.5C62.8994 372.7 62.4994 372.8 62.0994 372.8C61.5994 372.8 61.1994 372.7 60.6994 372.5L60.8994 372.1C61.5994 372.5 62.3994 372.5 63.0994 372.2C63.7994 371.9 64.2994 371.3 64.3994 370.5C64.4994 370 64.6994 369.6 64.9994 369.3C63.1994 369.7 60.3994 370.1 57.8994 370.1C55.4994 370.1 53.2994 369.7 52.1994 368.6C51.3994 367.8 51.1994 366.6 51.6994 365.2ZM75.1994 358.8C74.5993 357.6 73.5994 356.9 72.2994 356.9C72.0994 356.9 71.7994 356.9 71.5994 357C69.3994 357.4 66.9994 359.5 66.6994 362.4C66.2994 366.3 66.9994 368 67.1994 368.5C68.4993 367.6 76.9993 362.5 75.1994 358.8ZM52.4994 368.3C54.8994 370.8 63.3994 369.3 66.0994 368.7C66.2994 368.6 66.3994 368.6 66.5994 368.6C65.0994 367.2 58.3994 361.6 54.4994 362.7C53.2994 363 52.4994 363.9 52.0994 365.4C51.6994 366.6 51.7994 367.6 52.4994 368.3Z" fill="#15110E"/>
<path d="M76.3995 388.2V382.7L84.0995 378.2V383.7C84.0995 383.7 83.9995 386.4 85.1995 387.1C86.3995 387.8 86.3995 387.7 86.3995 387.7L78.6995 392.2C78.6995 392.2 78.6995 392.2 77.4995 391.6C76.2995 390.9 76.3995 388.2 76.3995 388.2Z" fill="#AEC6F7" stroke="#111111" stroke-miterlimit="10"/>
<path d="M75.3995 389.8V384.3L83.0995 379.8V385.3C83.0995 385.3 82.9995 388 84.1995 388.7C85.3995 389.3 85.3995 389.3 85.3995 389.3L77.6995 393.8C77.6995 393.8 77.6995 393.8 76.4995 393.2C75.2995 392.6 75.3995 389.8 75.3995 389.8Z" fill="white"/>
<path d="M78.599 392.4L86.699 387.7L85.199 386.9C84.299 386.4 84.199 384.4 84.299 383.7V377.9L76.199 382.6V388.2C76.199 388.4 76.099 391.1 77.399 391.8L78.599 392.4ZM85.899 387.7L78.599 391.9L77.499 391.3C76.599 390.8 76.499 388.8 76.599 388.1V382.8L83.899 378.6V383.7C83.899 383.8 83.799 386.6 85.099 387.3L85.899 387.7Z" fill="#15110E"/>
<path d="M82.4993 384.7C82.5993 383.2 80.6993 383.9 80.1993 385.5C79.6993 384.5 77.7993 385.7 77.8993 387.3C77.8993 388.5 79.9993 389.4 80.1993 389.5C80.3993 389.2 82.4993 385.9 82.4993 384.7Z" fill="#AEC6F7"/>
<path d="M80.3989 388.5H80.4989L80.5989 388.4C80.9989 387.8 82.8989 384.7 82.8989 383.5C82.8989 382.7 82.4989 382.5 82.2989 382.5C81.6989 382.4 80.7989 383 80.3989 383.9C80.1989 383.7 79.8989 383.7 79.5989 383.8C78.7989 384 77.8989 385 77.9989 386.2C77.9989 387.4 79.8989 388.4 80.3989 388.6V388.5ZM82.4989 383.4C82.4989 384.3 81.1989 386.7 80.2989 388C79.4989 387.6 78.2989 386.8 78.2989 386C78.2989 385 79.0989 384.2 79.5989 384C79.8989 383.9 80.0989 384 80.1989 384.2L80.3989 384.7L80.5989 384.2C80.8989 383.2 81.7989 382.6 82.1989 382.7C82.4989 382.8 82.4989 383.1 82.4989 383.4Z" fill="#15110E"/>
<path d="M38.001 393V402.7L56.601 413.4V403.7L38.001 393Z" fill="#AEC6F7" stroke="#111111" stroke-miterlimit="10"/>
<path d="M70.501 395.5L56.601 403.7L38.001 393L52.001 384.8L70.501 395.5Z" fill="#AEC6F7" stroke="#111111" stroke-miterlimit="10"/>
<path d="M70.501 398.9L56.601 407.1L38.001 396.3L52.001 388.2L70.501 398.9Z" fill="white"/>
<path d="M52.0006 384.4L37.6006 392.8V403L56.6006 414L71.0006 405.6V395.4L52.0006 384.4ZM56.2006 412.7L38.4006 402.4V393.6L56.2006 403.9V412.7ZM38.7006 393L51.9006 385.3L69.7006 395.6L56.5006 403.3L38.7006 393Z" fill="#15110E"/>
<path d="M56.601 413.4V418.7L39.001 408.5V403.3L56.601 413.4Z" fill="#AEC6F7" stroke="#111111" stroke-miterlimit="10"/>
<path d="M56.6006 413L38.6006 402.6V408.8L56.7006 419.2L69.2006 411.9V405.6L56.6006 413ZM39.4006 408.3V403.9L56.2006 413.6L56.3006 418L39.4006 408.3Z" fill="#15110E"/>
<path d="M56.4004 413.6V412.7L69.0004 405.3V406.2L56.4004 413.6Z" fill="#AEC6F7"/>
<path d="M61.8002 400.3L43.7002 389.9L44.1002 389.2L62.5002 399.8L61.8002 400.3Z" fill="#15110E"/>
<path d="M61.2004 416.5L60.4004 417L61.8004 409.6V400.3L62.5004 399.8V409.7L61.2004 416.5Z" fill="#AEC6F7"/>
<path d="M62.1003 393.6C61.9003 393.1 61.5003 392.5 60.4003 392.3C59.0003 392 57.6003 393.5 56.7003 394.7C56.7003 394.3 56.7003 394 56.7003 393.6C56.6003 392.5 55.0003 390.7 53.7003 390.6C53.3003 390.5 52.5003 390.6 52.1003 391.8C51.3003 394.1 54.6003 396 55.7003 396.6L55.6003 396.8L56.1003 396.9L56.5003 397.1V397C57.0003 397 57.8003 397.1 58.6003 397.1C59.8003 397.1 61.0003 397 61.4003 396.5C62.0003 395.6 62.4003 394.5 62.1003 393.6ZM52.8003 391.9C53.0003 391.3 53.3003 391.2 53.5003 391.2H53.6003C54.6003 391.3 55.9003 392.8 55.9003 393.5C56.0003 394.3 55.9003 395.1 55.8003 395.7C54.6003 395 52.3003 393.3 52.8003 391.9ZM60.9003 395.7C60.5003 396.1 58.6003 396.1 56.8003 396C57.5003 394.8 59.0003 392.8 60.3003 393C60.9003 393.1 61.3003 393.4 61.4003 393.8C61.6003 394.4 61.3003 395.3 60.9003 395.7Z" fill="#15110E"/>
<path d="M57.4008 399.4C57.1008 399.4 56.8008 399.3 56.4008 399.2C55.4008 398.7 55.7008 397.9 55.9008 397.4C56.0008 397.2 56.1008 396.9 56.0008 396.8C56.0008 396.7 55.8008 396.7 55.7008 396.6C55.0008 396.4 54.4008 396.4 53.9008 396.6C53.2008 397 53.0008 397.8 53.0008 397.8L52.3008 397.6C52.3008 397.6 52.6008 396.4 53.6008 395.9C54.3008 395.5 55.1008 395.5 56.0008 395.8C56.4008 395.9 56.7008 396.1 56.8008 396.4C57.0008 396.8 56.9008 397.2 56.7008 397.6C56.5008 398.2 56.5008 398.3 56.8008 398.4C57.9008 398.9 58.6008 398 58.7008 397.9L59.3008 398.4C58.9008 398.9 58.3008 399.4 57.4008 399.4Z" fill="#15110E"/>
<path d="M59.5996 384.1C59.5996 384.1 59.6996 386.5 57.0996 386.8C55.1996 387 53.8996 387.4 53.5996 387.5C53.4996 387.5 53.1996 387.3 53.1996 387.3L53.0996 386.1C53.0996 386.1 54.8996 385.3 54.9996 385.3C55.0996 385.3 56.4996 385.4 57.1996 385C57.7996 384.6 57.5996 384 57.3996 383.5C57.0996 383 57.5996 382.8 57.5996 382.8L59.3996 383.7L59.4996 383.8C59.3996 383.7 59.4996 383.9 59.5996 384.1Z" fill="#AEC6F7"/>
<path d="M53.5998 387.8C53.4998 387.8 53.3998 387.8 53.3998 387.7C53.2998 387.7 52.9998 387.5 52.8998 387.3V387.2L52.7998 385.7L52.9998 385.6C54.7998 384.8 54.8998 384.8 54.9998 384.8H55.0998C56.3998 384.9 56.8998 384.7 56.9998 384.6C57.2998 384.4 57.3998 384.2 57.0998 383.5C56.8998 383.2 56.9998 382.9 56.9998 382.8C57.0998 382.5 57.3998 382.4 57.3998 382.4L57.4998 382.3L59.4998 383.3L59.5998 383.4C59.7998 383.6 59.8998 383.8 59.8998 384C59.8998 384 59.9998 386.7 57.0998 387C55.1998 387.2 53.9998 387.6 53.6998 387.7L53.5998 387.8ZM53.4998 387C53.4998 387 53.5998 387 53.5998 387.1C53.9998 386.9 55.2998 386.6 57.0998 386.4C59.1998 386.2 59.2998 384.3 59.2998 384.1C59.2998 384 59.1998 383.9 59.0998 383.8L57.5998 383C57.5998 383 57.5998 383.1 57.5998 383.2C57.7998 383.5 58.2998 384.5 57.2998 385.1C56.8998 385.4 56.0998 385.5 54.9998 385.4C54.7998 385.5 54.0998 385.8 53.3998 386.1L53.4998 387Z" fill="#15110E"/>
<path d="M59.4998 383.8C58.5998 382.2 54.6998 385.6 54.0998 387.1C53.8998 387.4 53.3998 387.6 52.9998 387.4L52.2998 387.1C52.2998 387.1 52.7998 382.7 55.8998 382C58.2998 381.5 59.4998 383.8 59.4998 383.8Z" fill="white"/>
<path d="M53.4 387.8C53.2 387.8 53.1 387.8 52.9 387.7L52 387.3V387.1C52 386.9 52.5 382.5 55.8 381.8C58.3 381.2 59.6 383.6 59.7 383.8L59.1 384.1C59 384 58.9 383.8 58.6 383.8C57.3 383.9 54.8 386.2 54.3 387.3C54.2 387.6 53.8 387.8 53.4 387.8ZM52.7 386.9L53.1 387.1C53.4 387.2 53.7 387.1 53.7 387C54.2 385.7 56.8 383.3 58.4 383.1C57.9 382.6 57 382.1 55.9 382.4C53.5 382.9 52.8 386 52.7 386.9Z" fill="#15110E"/>
<path d="M46.0006 383.9C46.0006 383.9 45.9006 386.4 48.3006 386.7C50.1006 386.9 51.3006 387.3 51.6006 387.4C51.7006 387.4 52.0006 387.2 52.0006 387.1L52.1006 385.8C52.1006 385.8 50.6006 385.3 50.5006 385.3C50.4006 385.3 48.8006 385.1 48.3006 384.7C47.7006 384.3 47.9006 383.7 48.1006 383.1C48.4006 382.5 47.9006 382.3 47.9006 382.3L46.2006 383.2L46.1006 383.3C46.1006 383.5 46.0006 383.7 46.0006 383.9Z" fill="#AEC6F7"/>
<path d="M51.6004 387.8H51.5004C51.2004 387.7 50.1004 387.3 48.3004 387.1C46.1004 386.8 45.6004 384.9 45.7004 384C45.7004 383.8 45.8004 383.5 46.0004 383.3L46.2004 383.1L48.0004 382.1L48.1004 382.2C48.1004 382.2 48.4004 382.3 48.5004 382.6C48.6004 382.8 48.6004 383 48.5004 383.3C48.2004 384 48.3004 384.3 48.6004 384.5C49.1004 384.8 50.5004 385 50.7004 385C50.8004 385 50.8004 385 52.4004 385.6L52.6004 385.7L52.5004 387.3C52.4004 387.5 52.0004 387.7 52.0004 387.7C51.8004 387.7 51.7004 387.8 51.6004 387.8ZM46.3004 383.9C46.3004 384.1 46.3004 386.1 48.4004 386.3C50.1004 386.5 51.2004 386.8 51.7004 387C51.7004 387 51.8004 387 51.8004 386.9L51.9004 386C51.3004 385.8 50.7004 385.6 50.6004 385.6C50.6004 385.6 48.9004 385.4 48.2004 385C47.3004 384.4 47.8004 383.3 47.9004 383C47.9004 382.9 48.0004 382.8 47.9004 382.8L46.5004 383.6C46.4004 383.7 46.3004 383.8 46.3004 383.9Z" fill="#15110E"/>
<path d="M46.1006 383.6C47.0006 381.9 50.6006 385.5 51.2006 387C51.4006 387.4 51.8006 387.5 52.2006 387.3L52.8006 387C52.8006 387 52.4006 382.4 49.4006 381.7C47.2006 381.2 46.1006 383.6 46.1006 383.6Z" fill="white"/>
<path d="M51.8002 387.8C51.7002 387.8 51.6002 387.8 51.4002 387.7C51.1002 387.6 50.9002 387.4 50.8002 387.2C50.3002 386 48.0002 383.5 46.8002 383.5C46.6002 383.5 46.4002 383.6 46.3002 383.8L45.7002 383.5C46.1002 382.6 47.5002 380.9 49.4002 381.4C52.5002 382.2 53.0002 386.8 53.0002 387V387.2L52.2002 387.6C52.1002 387.7 52.0002 387.8 51.8002 387.8ZM47.0002 382.9C48.6002 383.1 51.0002 385.8 51.5002 387C51.5002 387.1 51.6002 387.1 51.7002 387.2C51.8002 387.2 51.9002 387.2 52.1002 387.2L52.5002 387C52.4002 386.1 51.7002 382.8 49.4002 382.2C48.2002 381.8 47.5002 382.3 47.0002 382.9Z" fill="#15110E"/>
<path d="M53.6998 387.2C53.6998 387.1 53.6998 387.1 53.6998 387C53.6998 386.8 53.4998 386.2 52.7998 386.2C52.0998 386.2 51.8998 386.7 51.7998 386.9C51.7998 387 51.7998 387.1 51.7998 387.1C51.8998 387.3 52.0998 387.5 52.3998 387.5H53.0998C53.3998 387.6 53.5998 387.4 53.6998 387.2Z" fill="#14100D"/>
<path d="M53.1 387.9H52.4C52 387.9 51.6 387.6 51.5 387.2C51.5 387 51.5 386.9 51.5 386.8C51.6 386.2 52.1 385.8 52.8 385.8C53.6 385.8 54 386.4 54 386.9C54 387 54 387.1 54 387.2C53.9 387.7 53.5 387.9 53.1 387.9ZM52.8 386.5C52.4 386.5 52.2 386.7 52.1 387V387.1C52.1 387.2 52.3 387.3 52.4 387.3H53.1C53.2 387.3 53.4 387.2 53.4 387.1C53.4 387.1 53.4 387.1 53.4 387C53.4 386.5 52.9 386.5 52.8 386.5Z" fill="#15110E"/>
<path d="M146.1 245.7C142.4 250 114 282.3 81.3 277.9C58.7 274.9 33.4 254.4 25.6 248.1C24.3 247 23.2 246.1 22.5 245.5" stroke="#111111" stroke-miterlimit="10"/>
<path d="M138.1 244.5L142.8 249L137.2 254.5L132.6 249.7L138.1 244.5Z" fill="#111111" stroke="#020202" stroke-miterlimit="10"/>
<path d="M132.3 249.8C135.503 249.8 138.1 247.203 138.1 244C138.1 240.796 135.503 238.2 132.3 238.2C129.097 238.2 126.5 240.796 126.5 244C126.5 247.203 129.097 249.8 132.3 249.8Z" fill="#FFB24D" stroke="#111111" stroke-miterlimit="10"/>
<path d="M126.6 270.9L123.2 265.299L130 261.5L133.3 267.299L126.6 270.9Z" fill="#111111" stroke="#020202" stroke-miterlimit="10"/>
<path d="M132 278.7C135.203 278.7 137.8 276.103 137.8 272.9C137.8 269.696 135.203 267.1 132 267.1C128.797 267.1 126.2 269.696 126.2 272.9C126.2 276.103 128.797 278.7 132 278.7Z" fill="#AEC6F7" stroke="#111111" stroke-miterlimit="10"/>
<path d="M110.4 265.8L112.7 271.9L105.2 274.4L103.2 268.1L110.4 265.8Z" fill="#111111" stroke="#020202" stroke-miterlimit="10"/>
<path d="M105.5 268.5C108.703 268.5 111.3 265.903 111.3 262.7C111.3 259.497 108.703 256.9 105.5 256.9C102.297 256.9 99.7002 259.497 99.7002 262.7C99.7002 265.903 102.297 268.5 105.5 268.5Z" fill="#F2F2F2" stroke="#111111" stroke-miterlimit="10"/>
<path d="M85.9998 285L85.2998 278.5L93.0998 277.9L93.5998 284.5L85.9998 285Z" fill="#111111" stroke="#020202" stroke-miterlimit="10"/>
<path d="M90.0998 294.9C93.3031 294.9 95.8998 292.303 95.8998 289.1C95.8998 285.897 93.3031 283.3 90.0998 283.3C86.8965 283.3 84.2998 285.897 84.2998 289.1C84.2998 292.303 86.8965 294.9 90.0998 294.9Z" fill="#C61109" stroke="#111111" stroke-miterlimit="10"/>
<path d="M72.9998 269L70.3998 275L63.2998 271.6L66.1998 265.7L72.9998 269Z" fill="#111111" stroke="#020202" stroke-miterlimit="10"/>
<path d="M71.5002 269.2C74.7035 269.2 77.3002 266.603 77.3002 263.4C77.3002 260.196 74.7035 257.6 71.5002 257.6C68.2969 257.6 65.7002 260.196 65.7002 263.4C65.7002 266.603 68.2969 269.2 71.5002 269.2Z" fill="#AEC6F7" stroke="#111111" stroke-miterlimit="10"/>
<path d="M47.9004 272.1L51.1004 266.5L57.8004 270.5L54.3004 276.2L47.9004 272.1Z" fill="#111111" stroke="#020202" stroke-miterlimit="10"/>
<path d="M48.7004 283.7C51.9036 283.7 54.5004 281.103 54.5004 277.9C54.5004 274.696 51.9036 272.1 48.7004 272.1C45.4971 272.1 42.9004 274.696 42.9004 277.9C42.9004 281.103 45.4971 283.7 48.7004 283.7Z" fill="#F2F2F2" stroke="#111111" stroke-miterlimit="10"/>
<path d="M42.2002 252.1L38.7002 257.6L32.2002 253.2L36.0002 247.7L42.2002 252.1Z" fill="#111111" stroke="#020202" stroke-miterlimit="10"/>
<path d="M41.7004 252.1C44.9036 252.1 47.5004 249.503 47.5004 246.3C47.5004 243.096 44.9036 240.5 41.7004 240.5C38.4971 240.5 35.9004 243.096 35.9004 246.3C35.9004 249.503 38.4971 252.1 41.7004 252.1Z" fill="#FFB24D" stroke="#111111" stroke-miterlimit="10"/>
<path d="M127.4 129.7C123.7 132.3 127.5 141.8 87.7002 141.5C46.3002 141.2 45.3002 127.9 42.2002 125.3" stroke="#111111" stroke-miterlimit="10"/>
<path d="M116.8 131.4L118.3 137.7L110.7 139.3L109.4 132.8L116.8 131.4Z" fill="#111111" stroke="#020202" stroke-miterlimit="10"/>
<path d="M112.3 133.6C115.503 133.6 118.1 131.003 118.1 127.8C118.1 124.597 115.503 122 112.3 122C109.097 122 106.5 124.597 106.5 127.8C106.5 131.003 109.097 133.6 112.3 133.6Z" fill="#F2F2F2" stroke="#111111" stroke-miterlimit="10"/>
<path d="M95.3 148L94.5 141.6L102.3 140.9L102.8 147.5L95.3 148Z" fill="#111111" stroke="#020202" stroke-miterlimit="10"/>
<path d="M99.3 157.9C102.503 157.9 105.1 155.303 105.1 152.1C105.1 148.897 102.503 146.3 99.3 146.3C96.0968 146.3 93.5 148.897 93.5 152.1C93.5 155.303 96.0968 157.9 99.3 157.9Z" fill="#C61109" stroke="#111111" stroke-miterlimit="10"/>
<path d="M83.3008 134.9L83.1008 141.4L75.3008 140.9L75.7008 134.3L83.3008 134.9Z" fill="#111111" stroke="#020202" stroke-miterlimit="10"/>
<path d="M79.9006 136C83.1038 136 85.7006 133.403 85.7006 130.2C85.7006 126.997 83.1038 124.4 79.9006 124.4C76.6973 124.4 74.1006 126.997 74.1006 130.2C74.1006 133.403 76.6973 136 79.9006 136Z" fill="#AEC6F7" stroke="#111111" stroke-miterlimit="10"/>
<path d="M53.6006 143.6L54.8006 137.2L62.5006 139L60.9006 145.4L53.6006 143.6Z" fill="#111111" stroke="#020202" stroke-miterlimit="10"/>
<path d="M56.2004 154.6C59.4036 154.6 62.0004 152.003 62.0004 148.8C62.0004 145.597 59.4036 143 56.2004 143C52.9971 143 50.4004 145.597 50.4004 148.8C50.4004 152.003 52.9971 154.6 56.2004 154.6Z" fill="#F2F2F2" stroke="#111111" stroke-miterlimit="10"/>
<path d="M53.7002 129.5L49.1002 134L43.7002 128.3L48.7002 123.8L53.7002 129.5Z" fill="#111111" stroke="#020202" stroke-miterlimit="10"/>
<path d="M54.5002 129.6C57.7034 129.6 60.3002 127.003 60.3002 123.8C60.3002 120.597 57.7034 118 54.5002 118C51.2969 118 48.7002 120.597 48.7002 123.8C48.7002 127.003 51.2969 129.6 54.5002 129.6Z" fill="#FFB24D" stroke="#111111" stroke-miterlimit="10"/>
</g>
<path d="M31.5 26.7666C23.8688 26.7666 17.625 32.7466 17.625 40.1066C17.625 43.0199 18.6271 45.7799 20.4 48.0799L30.8833 61.7266C31.1146 62.0333 31.6542 62.1099 31.9625 61.8799C32.0396 61.8033 32.0396 61.8033 32.1167 61.7266L42.6 48.0799C44.3729 45.7799 45.375 43.0199 45.375 40.1066C45.375 32.7466 39.1312 26.7666 31.5 26.7666ZM30.4208 45.3199C27.4917 44.7066 25.5646 41.9466 26.1812 39.0333C26.7979 36.1199 29.5729 34.2033 32.5021 34.8166C34.6604 35.2766 36.3562 36.8866 36.7417 39.0333C37.2812 41.9466 35.3542 44.7833 32.5021 45.3199C31.8083 45.4733 31.1146 45.4733 30.4208 45.3199Z" fill="#F3BC54"/>
<rect x="13" y="74" width="147" height="35" fill="#F3BC54"/>
<path d="M32.342 81.826C32.018 81.142 31.352 80.296 30.866 79.954L27.572 82.906L28.166 83.374L32.342 81.826ZM33.8 94.804C32.18 95.236 29.408 95.92 27.626 96.082C27.59 94.498 27.554 92.752 27.554 90.988L33.044 91.564C33.152 90.862 33.152 90.304 33.044 89.602L27.554 90.124C27.572 88.468 27.59 86.83 27.626 85.336C29.408 85.66 32.018 86.218 33.584 86.596C33.764 85.858 33.854 85.048 33.764 84.31C30.326 84.436 26.186 84.418 24.548 84.4C24.638 88.594 24.638 92.806 24.548 97C26.312 97 30.416 97 33.98 97.09C34.16 96.334 34.124 95.506 33.8 94.804ZM40.4988 97.234C42.8748 97.234 44.7288 95.974 45.0888 93.85L42.0468 93.364L41.7228 93.49C41.9028 94.012 41.9568 94.462 41.9568 94.876C41.9568 96.118 41.2728 96.586 40.6428 96.586C39.4188 96.586 38.6628 95.2 38.6628 92.23C38.6628 89.35 39.4008 88.036 40.6788 88.036C41.3268 88.036 41.9028 88.468 41.9028 89.494C41.9028 89.89 41.8308 90.322 41.6688 90.898L42.0108 91.024L44.9808 90.538C44.6208 88.666 42.9288 87.388 40.4988 87.388C37.4568 87.388 35.5488 89.368 35.5488 92.266C35.5488 95.182 37.4568 97.234 40.4988 97.234ZM56.2246 91.528C56.3146 88.396 54.6406 87.388 52.9846 87.388C51.4186 87.388 50.2306 88.234 49.7626 89.728C49.7986 87.604 49.8706 85.066 49.9606 83.86C49.0066 83.68 47.9626 83.68 46.9906 83.86C47.1526 87.244 47.0806 93.508 46.9906 97C47.9986 96.91 49.0066 96.91 49.9966 97C49.9966 95.218 49.9786 93.526 49.9966 91.816C50.0146 89.908 50.6806 88.684 51.8326 88.684C52.7506 88.684 53.2186 89.602 53.2366 91.06C53.2726 93.04 53.3086 95.002 53.2546 97C54.2446 96.91 55.2706 96.91 56.2606 97C56.2246 95.164 56.2246 93.364 56.2246 91.528ZM62.7652 87.388C60.3172 87.388 58.6972 88.54 58.3552 90.07L61.3252 90.934L61.6312 90.754C61.3612 90.412 61.2352 90.016 61.2352 89.602C61.2352 88.774 61.7392 88 62.6752 88C64.0432 88 64.1872 89.674 64.2052 91.348C60.6952 91.51 58.0852 92.788 58.0852 94.966C58.0852 96.37 59.1472 97.27 60.8572 97.27C63.1792 97.27 64.1512 95.362 64.4392 94.264L65.8072 97H67.0492V91.402C67.0492 88.648 65.3752 87.388 62.7652 87.388ZM62.1352 95.884C61.5052 95.866 61.0552 95.434 61.0552 94.552C61.0552 93.274 62.0092 92.158 64.2052 91.96C64.1332 94.21 63.3412 95.884 62.1352 95.884ZM78.6003 91.528C78.5823 88.648 77.2683 87.388 75.2523 87.388C73.5243 87.388 72.4083 88.342 71.9583 90.034L70.3743 87.658H69.3483C69.4743 90.808 69.4563 93.85 69.3663 97C70.3743 96.91 71.3823 96.91 72.3903 97C72.3723 95.29 72.3543 93.544 72.3543 92.392C72.3543 89.944 73.0383 88.684 74.1363 88.684C75.3243 88.666 75.5763 89.908 75.6123 91.492C75.6663 93.508 75.7023 95.092 75.6483 97C76.6383 96.91 77.6463 96.91 78.6363 97C78.6363 95.164 78.6183 93.454 78.6003 91.528ZM87.6982 97.09C86.7622 96.982 85.1242 96.838 84.1162 96.73C83.3782 96.622 82.8562 96.424 82.8562 95.956C82.8562 95.524 83.1622 95.128 83.6302 94.894C84.1342 95.038 84.7102 95.11 85.3402 95.11C88.2922 95.11 90.0202 93.382 90.0202 91.294C90.0202 89.89 89.2462 88.63 87.8242 87.964C88.7602 87.784 89.7682 87.262 90.1282 86.452C90.2902 86.056 90.3442 85.408 90.3082 85.012C89.4262 85.102 88.7242 85.102 87.8602 85.012C88.0402 85.426 88.1302 85.786 88.1302 86.182C88.1302 86.776 87.8422 87.496 87.0862 87.694C86.5642 87.55 85.9882 87.46 85.3402 87.46C82.3702 87.46 80.6422 89.206 80.6422 91.294C80.6422 92.752 81.4882 94.03 83.0002 94.678C81.9382 94.858 80.6242 95.56 80.6242 96.892C80.6242 98.098 81.5602 98.764 82.9102 98.998C84.0082 99.214 85.3942 99.358 86.9422 99.484C87.6442 99.574 87.9682 99.844 87.9682 100.42C87.9682 100.672 87.8602 100.906 87.5542 101.086L87.9322 101.428C89.2642 101.158 90.2182 100.258 90.2182 99.232C90.2182 97.864 89.0302 97.252 87.6982 97.09ZM85.3582 88.126C86.3662 88.126 86.9422 88.99 86.9422 91.276C86.9422 93.634 86.3122 94.444 85.3582 94.444C84.4042 94.444 83.7202 93.652 83.7202 91.312C83.7202 88.972 84.4042 88.126 85.3582 88.126ZM98.1094 93.904L97.7854 94.048C97.8394 94.318 97.8574 94.534 97.8574 94.84C97.8574 96.136 97.2274 96.622 96.4534 96.622C94.9774 96.622 94.4734 95.2 94.4734 92.464V92.356H100.341L100.701 92.14C100.773 89.224 99.2974 87.388 96.2554 87.388C93.2494 87.388 91.3594 89.35 91.3594 92.266C91.3594 95.236 93.2314 97.27 96.3994 97.27C98.6854 97.27 100.395 96.208 100.755 94.3L98.1094 93.904ZM96.3634 88.036C97.3534 88.036 97.7674 88.792 97.7674 90.088C97.7674 90.664 97.7314 91.222 97.6234 91.6H94.4914C94.6174 89.08 95.3014 88.036 96.3634 88.036ZM109.298 97.252C110.846 97.252 111.782 96.352 111.782 94.858C111.512 94.858 111.152 94.768 110.9 94.678C110.936 94.84 110.954 95.002 110.954 95.164C110.954 95.74 110.702 96.172 110.234 96.172C109.622 96.172 109.424 95.506 109.424 94.228C109.424 90.898 109.46 86.488 109.514 83.86C108.506 83.68 107.48 83.68 106.49 83.86C106.58 86.488 106.562 90.88 106.544 94.228C106.526 96.586 107.912 97.252 109.298 97.252ZM114.878 86.398C115.85 86.398 116.48 85.75 116.48 84.976C116.48 84.166 115.85 83.518 114.878 83.518C113.906 83.518 113.276 84.166 113.276 84.976C113.276 85.75 113.906 86.398 114.878 86.398ZM113.348 97C114.338 96.91 115.346 96.91 116.354 97C116.264 93.868 116.264 90.79 116.354 87.658C115.346 87.748 114.338 87.748 113.348 87.658C113.42 90.79 113.42 93.868 113.348 97ZM125.451 87.658C124.947 89.674 124.263 92.788 123.507 95.38C122.679 92.68 121.833 89.818 121.239 87.658C120.159 87.784 118.917 87.784 117.855 87.658C118.935 90.142 120.537 94.372 121.419 97C122.247 96.91 123.075 96.91 123.867 97C124.911 94.084 126.531 89.962 127.575 87.658C126.873 87.748 126.153 87.748 125.451 87.658ZM129.009 97C130.017 96.91 131.025 96.91 132.033 97C131.997 95.254 131.997 93.49 132.015 91.888C132.015 89.98 132.483 88.684 133.491 88.684C134.283 88.684 134.643 89.62 134.229 91.366L134.427 91.402L136.965 90.646C137.019 90.358 137.037 90.07 137.037 89.8C137.037 88.126 135.975 87.388 134.715 87.388C132.969 87.388 132.015 88.54 131.601 89.962L130.017 87.658H128.991C129.099 90.808 129.099 93.85 129.009 97ZM144.639 93.904L144.315 94.048C144.369 94.318 144.387 94.534 144.387 94.84C144.387 96.136 143.757 96.622 142.983 96.622C141.507 96.622 141.003 95.2 141.003 92.464V92.356H146.871L147.231 92.14C147.303 89.224 145.827 87.388 142.785 87.388C139.779 87.388 137.889 89.35 137.889 92.266C137.889 95.236 139.761 97.27 142.929 97.27C145.215 97.27 146.925 96.208 147.285 94.3L144.639 93.904ZM142.893 88.036C143.883 88.036 144.297 88.792 144.297 90.088C144.297 90.664 144.261 91.222 144.153 91.6H141.021C141.147 89.08 141.831 88.036 142.893 88.036Z" fill="black"/>
<defs>
<clipPath id="clip0">
<rect width="161.7" height="419.6" fill="white"/>
</clipPath>
</defs>
</svg>
