<svg width="474" height="337" viewBox="0 0 474 337" fill="none" xmlns="http://www.w3.org/2000/svg">
<path d="M126.2 156.9H126.3L238.1 156.4L246.3 161.1L134.5 161.7L264.8 236.9L260.1 239.6L354.9 239.1L363.1 243.9L251.7 244.5L195.8 276.7L235.6 299.7H169.9L162.8 295.6L147 304.8L242.2 304.3L250.4 309L138.6 309.6L0 229.6L126.2 156.9Z" fill="#BABCBE"/>
<path d="M235.499 255.7L278.999 230.7L165.699 165.2L122.199 190.2L235.499 255.7Z" fill="white"/>
<path d="M235.499 256.7C235.699 256.7 235.799 256.7 235.999 256.6L279.499 231.6C279.799 231.4 279.999 231.1 279.999 230.7C279.999 230.3 279.799 230 279.499 229.8L166.199 164.3C165.899 164.1 165.499 164.1 165.199 164.3L121.699 189.3C121.399 189.5 121.199 189.8 121.199 190.2C121.199 190.6 121.399 190.9 121.699 191.1L234.999 256.6C235.199 256.6 235.299 256.7 235.499 256.7ZM276.999 230.6L235.499 254.5L124.099 190.1L165.599 166.2L276.999 230.6Z" fill="black"/>
<path d="M235.1 299.6L236.6 298.7V255.7L236.1 254.8L122.6 189.3L121.1 190.2V233.2L121.6 234.1L235.1 299.6ZM234.6 256.3V297L123.1 232.6V191.9L234.6 256.3Z" fill="black"/>
<path d="M235.6 299.7C235.8 299.7 235.9 299.7 236.1 299.6L279.5 274.6C279.8 274.4 280 274.1 280 273.7V230.7C280 230.3 279.8 230 279.5 229.8C279.2 229.6 278.8 229.6 278.5 229.8L235.1 254.8C234.8 255 234.6 255.3 234.6 255.7V298.7C234.6 299.1 234.8 299.4 235.1 299.6C235.3 299.7 235.5 299.7 235.6 299.7ZM278 273.1L236.6 297V256.3L278 232.4V273.1Z" fill="black"/>
<path d="M104.1 109L249.7 193.1V155.5L176.9 89.0999L104.1 71.3999V109Z" fill="#AEC6F7" stroke="#111111" stroke-miterlimit="10"/>
<path d="M249.2 193.9L250.7 193V155.4L250.4 154.7L177.1 88.0998L104.3 70.2998L103.1 71.2998V109L103.6 109.9L249.2 193.9ZM248.7 155.9V191.4L105 108.5V72.5998L176.4 89.9998L248.7 155.9Z" fill="#AEC6F7" stroke="#111111" stroke-miterlimit="10"/>
<path d="M104.1 71.3999L176.9 89.0999L249.7 155.5V164.6L176.9 98.2999L104.1 80.4999V71.3999Z" fill="#AEC6F7" stroke="#111111" stroke-miterlimit="10"/>
<path d="M248.7 155.9V162.4L177.5 97.5997C177.4 97.4997 177.2 97.3997 177.1 97.3997L105 79.7997V72.6997L176.4 89.9997L248.7 155.9Z" fill="#AEC6F7" stroke="#111111" stroke-miterlimit="10"/>
<path d="M242.899 304.6L249.699 308.5V200.2L242.899 196.3V304.6Z" fill="#111111"/>
<path d="M249.199 309.3L250.699 308.4V200.2L250.199 199.3L243.399 195.4L241.899 196.3V304.6L242.399 305.5L249.199 309.3ZM248.699 200.8V306.8L243.899 304V198L248.699 200.8Z" fill="#111111"/>
<path d="M256.499 304.6L249.699 308.5V200.2L256.499 196.3V304.6Z" fill="white"/>
<path d="M249.699 309.5C249.899 309.5 249.999 309.5 250.199 309.4L256.999 305.5C257.299 305.3 257.499 305 257.499 304.6V196.3C257.499 195.9 257.299 195.6 256.999 195.4C256.699 195.2 256.299 195.2 255.999 195.4L249.199 199.3C248.899 199.5 248.699 199.8 248.699 200.2V308.5C248.699 308.9 248.899 309.2 249.199 309.4C249.399 309.4 249.599 309.5 249.699 309.5ZM255.499 304L250.699 306.8V200.8L255.499 198V304Z" fill="black"/>
<path d="M356.3 239.4L363.1 243.3V135L356.3 131.1V239.4Z" fill="#111111"/>
<path d="M362.1 135.6V241.6L357.3 238.8V132.8L362.1 135.6Z" fill="#111111"/>
<path d="M369.9 239.4L363.1 243.3V135L369.9 131.1V239.4Z" fill="white"/>
<path d="M363.1 244.3C363.3 244.3 363.4 244.3 363.6 244.2L370.4 240.3C370.7 240.1 370.9 239.8 370.9 239.4V131.1C370.9 130.7 370.7 130.4 370.4 130.2C370.1 130 369.7 130 369.4 130.2L362.6 134.1C362.3 134.3 362.1 134.6 362.1 135V243.3C362.1 243.7 362.3 244 362.6 244.2C362.8 244.2 362.9 244.3 363.1 244.3ZM368.9 238.8L364.1 241.6V135.6L368.9 132.8V238.8Z" fill="black"/>
<path d="M104.1 224.6L110.9 228.5V120.2L104.1 116.3V224.6Z" fill="#111111"/>
<path d="M110.4 229.4L111.9 228.5V120.2L111.4 119.3L104.6 115.4L103.1 116.3V224.6L103.6 225.5L110.4 229.4ZM109.9 120.8V226.8L105.1 224V118L109.9 120.8Z" fill="#111111"/>
<path d="M117.699 224.6L110.899 228.5V120.2L117.699 124.1V224.6Z" fill="white"/>
<path d="M110.899 229.5C111.099 229.5 111.199 229.5 111.399 229.4L118.199 225.5C118.499 225.3 118.699 225 118.699 224.6V124.1C118.699 123.7 118.499 123.4 118.199 123.2L111.399 119.3C111.099 119.1 110.699 119.1 110.399 119.3C110.099 119.5 109.899 119.8 109.899 120.2V228.5C109.899 228.9 110.099 229.2 110.399 229.4C110.599 229.5 110.699 229.5 110.899 229.5ZM116.699 224L111.899 226.8V122L116.699 124.7V224Z" fill="black"/>
<path d="M104.1 116.3L249.7 200.4V193.1L104.1 109V116.3Z" fill="#AEC6F7" stroke="#111111" stroke-miterlimit="10"/>
<path d="M249.7 201.4C249.9 201.4 250 201.4 250.2 201.3C250.5 201.1 250.7 200.8 250.7 200.4V193.1C250.7 192.7 250.5 192.4 250.2 192.2L104.6 108.1C104.3 107.9 103.9 107.9 103.6 108.1C103.3 108.3 103.1 108.6 103.1 109V116.3C103.1 116.7 103.3 117 103.6 117.2L249.2 201.3C249.4 201.4 249.6 201.4 249.7 201.4ZM248.7 193.7V198.7L105 115.7V110.7L248.7 193.7Z" fill="black"/>
<path d="M369.899 131L249.699 200.4V155.5L369.899 86.0996V131Z" fill="#111111"/>
<path d="M249.699 201.4C249.899 201.4 249.999 201.4 250.199 201.3L370.399 131.9C370.699 131.7 370.899 131.4 370.899 131V86.0998C370.899 85.6998 370.699 85.3998 370.399 85.1998C370.099 84.9998 369.699 84.9998 369.399 85.1998L249.199 154.6C248.899 154.8 248.699 155.1 248.699 155.5V200.4C248.699 200.8 248.899 201.1 249.199 201.3C249.399 201.4 249.599 201.4 249.699 201.4ZM368.899 130.4L250.699 198.6V156L368.899 87.7998V130.4Z" fill="#111111"/>
<path d="M369.899 131L249.699 200.4V193.1L369.899 123.8V131Z" fill="#AEC6F7" stroke="#111111" stroke-miterlimit="10"/>
<path d="M369.899 95.2001L249.699 164.6V155.5L369.899 86.1001V95.2001Z" fill="#AEC6F7" stroke="#111111" stroke-miterlimit="10"/>
<path d="M176.899 89.1002L297.099 19.7002L369.899 86.1002L249.699 155.5L176.899 89.1002Z" fill="white"/>
<path d="M249.699 156.5C249.899 156.5 249.999 156.5 250.199 156.4L370.399 87.0001C370.699 86.8001 370.899 86.6001 370.899 86.2001C370.899 85.9001 370.799 85.6001 370.599 85.4001L297.799 19.0001C297.499 18.7001 296.999 18.7001 296.599 18.9001L176.399 88.3001C176.099 88.5001 175.899 88.7001 175.899 89.1001C175.899 89.4001 175.999 89.7001 176.199 89.9001L248.999 156.2C249.299 156.4 249.499 156.5 249.699 156.5ZM368.199 85.9001L249.799 154.2L178.499 89.3001L296.999 21.0001L368.199 85.9001Z" fill="black"/>
<path d="M176.9 90.0999C177.1 90.0999 177.2 90.0999 177.4 89.9999L297.6 20.5999C298 20.3999 298.1 19.9999 298.1 19.5999C298 19.1999 297.7 18.8999 297.4 18.7999L224.5 0.999917C224.3 0.899917 224 0.999917 223.8 1.09992L103.6 70.4999C103.2 70.6999 103.1 71.0999 103.1 71.4999C103.2 71.8999 103.5 72.1999 103.8 72.2999L176.6 90.0999C176.8 90.0999 176.8 90.0999 176.9 90.0999ZM294.4 20.0999L176.8 88.0999L106.8 70.9999L224.4 3.09992L294.4 20.0999Z" fill="black"/>
<path d="M165.8 186.867L187.3 174.367L166.8 162.467L145.2 174.967L165.8 186.867Z" fill="white" stroke="#0A0A0A" stroke-miterlimit="10"/>
<path d="M187.3 174.368V195.468L165.8 207.968V186.868L187.3 174.368Z" fill="#AEC6F7" stroke="#111111" stroke-miterlimit="10"/>
<path d="M166.7 162.267L166.8 162.167L187.5 174.167V195.567L165.7 208.167L145.1 196.267L145 196.167V174.767L166.7 162.267ZM166 207.567L187.1 195.367V174.767L171.2 183.967L166 187.067V207.567ZM186.9 174.367L166.8 162.767L145.7 174.967L165.8 186.567L186.9 174.367Z" fill="#15110E"/>
<path d="M155.3 180.668L176.8 168.168L176.5 167.868L154.9 180.468L155.3 180.668Z" fill="#15110E"/>
<path d="M154.9 201.768L155.4 202.068V180.668L154.9 180.368V201.768Z" fill="#AEC6F7"/>
<path d="M176.6 201.567H177V180.467H176.9L156.1 168.667L155.9 169.067L176.6 180.767V201.567Z" fill="#15110E"/>
<path d="M150.4 170.768C150.9 169.168 151.8 168.068 153.1 167.768C156.9 166.768 163 171.567 165.2 173.367C164.9 172.367 164.6 170.667 164.9 167.867C165.2 164.767 167.9 162.467 170.2 162.067C172 161.767 173.5 162.468 174.3 164.168C176.2 168.168 167.9 173.268 166.2 174.268C166.7 175.068 167.4 174.967 168.2 174.867C168.8 174.767 169.5 174.667 170.2 175.067C171.6 175.967 172.1 177.568 172.1 177.668L171.7 177.768C171.7 177.768 171.3 176.167 170 175.367C169.5 175.067 168.9 175.168 168.3 175.168C167.5 175.268 166.6 175.367 165.9 174.367H165.8C165.6 174.367 165.4 174.467 165 174.567C164.4 174.767 163.8 175.167 163.6 176.067C163.4 176.967 162.8 177.767 162 178.067C161.6 178.267 161.2 178.367 160.8 178.367C160.3 178.367 159.9 178.267 159.4 178.067L159.6 177.668C160.3 178.068 161.1 178.068 161.8 177.768C162.5 177.468 163 176.867 163.1 176.067C163.2 175.567 163.4 175.167 163.7 174.867C161.9 175.267 159.1 175.668 156.6 175.668C154.2 175.668 152 175.268 150.9 174.168C150.1 173.368 149.9 172.168 150.4 170.768ZM173.9 164.367C173.3 163.167 172.3 162.467 171 162.467C170.8 162.467 170.5 162.467 170.3 162.567C168.1 162.967 165.7 165.067 165.4 167.967C165 171.867 165.7 173.567 165.9 174.067C167.2 173.167 175.7 168.067 173.9 164.367ZM151.2 173.867C153.6 176.367 162.1 174.868 164.8 174.268C165 174.168 165.1 174.168 165.3 174.168C163.8 172.768 157.1 167.168 153.2 168.268C152 168.568 151.2 169.467 150.8 170.967C150.4 172.167 150.5 173.167 151.2 173.867Z" fill="#15110E"/>
<path d="M175.1 193.767V188.267L182.8 183.767V189.267C182.8 189.267 182.7 191.967 183.9 192.667C185.1 193.367 185.1 193.267 185.1 193.267L177.4 197.767C177.4 197.767 177.4 197.767 176.2 197.167C175 196.467 175.1 193.767 175.1 193.767Z" fill="#AEC6F7" stroke="#111111" stroke-miterlimit="10"/>
<path d="M174.1 195.367V189.867L181.8 185.367V190.867C181.8 190.867 181.7 193.567 182.9 194.267C184.1 194.867 184.1 194.867 184.1 194.867L176.4 199.367C176.4 199.367 176.4 199.367 175.2 198.767C174 198.167 174.1 195.367 174.1 195.367Z" fill="white"/>
<path d="M177.299 197.967L185.399 193.267L183.899 192.467C182.999 191.967 182.899 189.967 182.999 189.267V183.467L174.899 188.167V193.767C174.899 193.967 174.799 196.667 176.099 197.367L177.299 197.967ZM184.599 193.267L177.299 197.467L176.199 196.867C175.299 196.367 175.199 194.367 175.299 193.667V188.367L182.599 184.167V189.267C182.599 189.367 182.499 192.167 183.799 192.867L184.599 193.267Z" fill="#15110E"/>
<path d="M181.2 190.267C181.3 188.767 179.4 189.467 178.9 191.067C178.4 190.067 176.5 191.267 176.6 192.867C176.6 194.067 178.7 194.967 178.9 195.067C179.1 194.767 181.2 191.467 181.2 190.267Z" fill="#AEC6F7"/>
<path d="M179.099 194.068H179.199L179.299 193.967C179.699 193.367 181.599 190.268 181.599 189.068C181.599 188.268 181.199 188.068 180.999 188.068C180.399 187.968 179.499 188.567 179.099 189.467C178.899 189.267 178.599 189.267 178.299 189.367C177.499 189.567 176.599 190.568 176.699 191.768C176.699 192.968 178.599 193.968 179.099 194.168V194.068ZM181.199 188.967C181.199 189.867 179.899 192.268 178.999 193.568C178.199 193.168 176.999 192.368 176.999 191.568C176.999 190.568 177.799 189.768 178.299 189.568C178.599 189.468 178.799 189.568 178.899 189.768L179.099 190.268L179.299 189.768C179.599 188.768 180.499 188.168 180.899 188.268C181.199 188.368 181.199 188.667 181.199 188.967Z" fill="#15110E"/>
<path d="M148.3 104.4L141 100.2V112.7L148.3 116.9V114.5L143.7 111.8V108.7L147.9 111.2V108.8L143.7 106.3V104.1L148.3 106.8V104.4Z" fill="black"/>
<path d="M154.8 108C153.2 107.1 151.9 106.9 150.9 107.5C149.9 108.1 149.5 109.4 149.5 111.4C149.5 113.4 150 115.3 150.9 117C151.8 118.7 153.1 120 154.8 120.9C155.3 121.2 155.7 121.4 156 121.5C156.3 121.6 156.6 121.7 157 121.8C157.3 121.9 157.5 121.9 157.8 121.9C158.1 121.9 158.3 121.9 158.5 121.9V119L158.3 118.9C158.2 119 158 119 157.8 119.1C157.6 119.2 157.4 119.2 157.2 119.3C157 119.3 156.7 119.3 156.4 119.3C156.1 119.2 155.7 119.1 155.4 118.9C155.1 118.7 154.7 118.4 154.4 118.1C154.1 117.8 153.7 117.4 153.5 116.9C153.2 116.4 153 115.8 152.8 115.2C152.6 114.6 152.5 113.9 152.5 113.1C152.5 112.4 152.6 111.8 152.8 111.3C153 110.9 153.2 110.6 153.5 110.4C153.8 110.2 154.1 110.1 154.4 110.2C154.7 110.3 155.1 110.4 155.5 110.6C155.8 110.8 156.2 111 156.5 111.3C156.8 111.6 157.1 111.9 157.3 112.2C157.5 112.5 157.8 112.8 158 113.1C158.2 113.4 158.4 113.7 158.5 113.9L158.8 114.1V111.1C158.6 110.9 158.4 110.6 158.1 110.3C157.8 110 157.5 109.7 157.3 109.5C157 109.2 156.7 109 156.3 108.7C155.6 108.5 155.3 108.2 154.8 108Z" fill="black"/>
<path d="M162.8 118.4V115L163.7 115.5C164 115.7 164.3 115.8 164.5 116C164.7 116.1 164.9 116.3 165.1 116.5C165.3 116.8 165.5 117 165.6 117.3C165.7 117.6 165.8 117.9 165.8 118.2C165.8 118.5 165.8 118.8 165.7 119C165.6 119.2 165.5 119.3 165.3 119.3C165.1 119.4 164.9 119.4 164.6 119.3C164.3 119.2 164 119 163.6 118.8L162.8 118.4ZM164.4 113.8L160 111.3V123.7L162.7 125.3V120.7L163.7 121.3L166.7 127.6L170 129.5L166.4 122.1C167 122.1 167.5 121.9 167.9 121.6C168.3 121.2 168.5 120.6 168.5 119.6C168.5 118.9 168.4 118.3 168.2 117.7C168 117.1 167.7 116.6 167.3 116.1C166.9 115.6 166.5 115.2 166.1 114.9C165.6 114.5 165.1 114.1 164.4 113.8Z" fill="black"/>
<path d="M176.3 120.6L170.5 117.2V119.4L172 120.3V128.4L170.4 127.5V129.7L176.3 133V130.9L174.7 130V121.9L176.3 122.8V120.6Z" fill="black"/>
<path d="M187.2 126.9L184.4 125.3L182 132.4L179.7 122.6L176.9 120.9L180.6 135.5L183.4 137.2L187.2 126.9Z" fill="black"/>
<path d="M191 136.7L192.1 133.2L193.2 137.9L191 136.7ZM193.6 130.6L190.6 128.9L186.9 139.2L189.6 140.8L190.3 138.7L193.7 140.7L194.4 143.6L197.2 145.2L193.6 130.6Z" fill="black"/>
<path d="M203.8 136.4L197.9 133.1V135.3L199.5 136.2V144.3L197.9 143.4V145.5L203.7 148.9V146.7L202.2 145.8V137.7L203.8 138.6V136.4Z" fill="black"/>
<path d="M214.8 142.9L212.4 141.4L212.3 148.5L208.9 139.4L205.6 137.5L205.5 149.9L208 151.4V142.7L212.2 153.8L214.8 155.3V142.9Z" fill="black"/>
<path d="M336.5 254.767C328.869 254.767 322.625 260.747 322.625 268.107C322.625 271.02 323.627 273.78 325.4 276.08L335.883 289.727C336.115 290.033 336.654 290.11 336.962 289.88C337.04 289.803 337.04 289.803 337.117 289.727L347.6 276.08C349.373 273.78 350.375 271.02 350.375 268.107C350.375 260.747 344.131 254.767 336.5 254.767ZM335.421 273.32C332.492 272.707 330.565 269.947 331.181 267.033C331.798 264.12 334.573 262.203 337.502 262.817C339.66 263.277 341.356 264.887 341.742 267.033C342.281 269.947 340.354 272.783 337.502 273.32C336.808 273.473 336.115 273.473 335.421 273.32Z" fill="#F3BC54"/>
<rect x="318" y="302" width="156" height="35" fill="#F3BC54"/>
<path d="M334.066 325.198C336.928 325.198 339.286 324.1 339.286 321.904C339.286 320.23 337.864 319.222 335.596 317.674C333.436 316.18 332.41 315.406 332.41 314.272C332.41 313.444 332.914 312.886 334.192 312.886C335.776 312.886 337.072 313.714 337.468 316.198L337.72 316.27L339.214 313.426C338.638 312.832 336.424 312.112 334.084 312.112C331.078 312.112 329.404 313.246 329.404 315.208C329.404 316.918 330.772 317.944 332.716 319.312C334.786 320.734 336.154 321.58 336.154 322.876C336.154 323.83 335.416 324.424 334.246 324.424C332.266 324.424 330.664 322.75 330.304 320.446L330.052 320.392L328.828 323.794C329.692 324.514 331.852 325.198 334.066 325.198ZM346.123 322.75C346.159 322.876 346.195 323.02 346.195 323.164C346.195 323.704 345.925 324.208 345.475 324.208C344.845 324.208 344.701 323.452 344.665 322.264C344.647 320.968 344.593 318.754 344.629 316.504L347.023 316.558C346.987 316.198 347.005 316.036 347.041 315.658L344.629 315.712C344.647 314.83 344.683 313.966 344.719 313.156C343.909 313.246 343.207 313.228 342.451 313.138L341.875 315.694C341.515 315.676 341.137 315.676 340.741 315.658C340.777 316.036 340.777 316.198 340.741 316.558C341.083 316.54 341.407 316.54 341.713 316.522C341.803 318.682 341.767 320.788 341.767 322.246C341.749 324.514 342.991 325.234 344.539 325.234C346.141 325.234 347.077 324.478 347.077 322.912C346.753 322.93 346.429 322.876 346.123 322.75ZM353.035 315.388C350.587 315.388 348.967 316.54 348.625 318.07L351.595 318.934L351.901 318.754C351.631 318.412 351.505 318.016 351.505 317.602C351.505 316.774 352.009 316 352.945 316C354.313 316 354.457 317.674 354.475 319.348C350.965 319.51 348.355 320.788 348.355 322.966C348.355 324.37 349.417 325.27 351.127 325.27C353.449 325.27 354.421 323.362 354.709 322.264L356.077 325H357.319V319.402C357.319 316.648 355.645 315.388 353.035 315.388ZM352.405 323.884C351.775 323.866 351.325 323.434 351.325 322.552C351.325 321.274 352.279 320.158 354.475 319.96C354.403 322.21 353.611 323.884 352.405 323.884ZM368.87 319.528C368.852 316.648 367.538 315.388 365.522 315.388C363.794 315.388 362.678 316.342 362.228 318.034L360.644 315.658H359.618C359.744 318.808 359.726 321.85 359.636 325C360.644 324.91 361.652 324.91 362.66 325C362.642 323.29 362.624 321.544 362.624 320.392C362.624 317.944 363.308 316.684 364.406 316.684C365.594 316.666 365.846 317.908 365.882 319.492C365.936 321.508 365.972 323.092 365.918 325C366.908 324.91 367.916 324.91 368.906 325C368.906 323.164 368.888 321.454 368.87 319.528ZM374.512 325.27C376.06 325.252 377.176 324.334 377.698 322.786L379.246 325H380.272C380.146 321.508 380.164 315.262 380.272 311.86C379.318 311.68 378.238 311.68 377.284 311.86C377.392 313.498 377.41 315.352 377.464 316.972C376.942 316 375.934 315.388 374.674 315.388C372.208 315.388 370.678 317.314 370.678 320.374C370.678 323.524 372.262 325.306 374.512 325.27ZM375.484 323.974C374.35 323.974 373.72 322.606 373.72 320.266C373.72 317.908 374.368 316.54 375.484 316.54C376.654 316.54 377.338 317.98 377.32 320.266C377.32 322.66 376.618 323.974 375.484 323.974ZM393.976 312.724C393.67 312.022 392.986 311.194 392.5 310.834L389.224 314.164L389.818 314.65L393.976 312.724ZM392.896 321.904L392.572 322.048C392.626 322.318 392.644 322.534 392.644 322.84C392.644 324.136 392.014 324.622 391.24 324.622C389.764 324.622 389.26 323.2 389.26 320.464V320.356H395.128L395.488 320.14C395.56 317.224 394.084 315.388 391.042 315.388C388.036 315.388 386.146 317.35 386.146 320.266C386.146 323.236 388.018 325.27 391.186 325.27C393.472 325.27 395.182 324.208 395.542 322.3L392.896 321.904ZM391.15 316.036C392.14 316.036 392.554 316.792 392.554 318.088C392.554 318.664 392.518 319.222 392.41 319.6H389.278C389.404 317.08 390.088 316.036 391.15 316.036ZM401.837 325.234C404.213 325.234 406.067 323.974 406.427 321.85L403.385 321.364L403.061 321.49C403.241 322.012 403.295 322.462 403.295 322.876C403.295 324.118 402.611 324.586 401.981 324.586C400.757 324.586 400.001 323.2 400.001 320.23C400.001 317.35 400.739 316.036 402.017 316.036C402.665 316.036 403.241 316.468 403.241 317.494C403.241 317.89 403.169 318.322 403.007 318.898L403.349 319.024L406.319 318.538C405.959 316.666 404.267 315.388 401.837 315.388C398.795 315.388 396.887 317.368 396.887 320.266C396.887 323.182 398.795 325.234 401.837 325.234ZM408.275 325C409.283 324.91 410.291 324.91 411.299 325C411.263 323.254 411.263 321.49 411.281 319.888C411.281 317.98 411.749 316.684 412.757 316.684C413.549 316.684 413.909 317.62 413.495 319.366L413.693 319.402L416.231 318.646C416.285 318.358 416.303 318.07 416.303 317.8C416.303 316.126 415.241 315.388 413.981 315.388C412.235 315.388 411.281 316.54 410.867 317.962L409.283 315.658H408.257C408.365 318.808 408.365 321.85 408.275 325ZM419.368 314.398C420.34 314.398 420.97 313.75 420.97 312.976C420.97 312.166 420.34 311.518 419.368 311.518C418.396 311.518 417.766 312.166 417.766 312.976C417.766 313.75 418.396 314.398 419.368 314.398ZM417.838 325C418.828 324.91 419.836 324.91 420.844 325C420.754 321.868 420.754 318.79 420.844 315.658C419.836 315.748 418.828 315.748 417.838 315.658C417.91 318.79 417.91 321.868 417.838 325ZM429.941 315.658C429.437 317.674 428.753 320.788 427.997 323.38C427.169 320.68 426.323 317.818 425.729 315.658C424.649 315.784 423.407 315.784 422.345 315.658C423.425 318.142 425.027 322.372 425.909 325C426.737 324.91 427.565 324.91 428.357 325C429.401 322.084 431.021 317.962 432.065 315.658C431.363 315.748 430.643 315.748 429.941 315.658ZM437.375 315.388C434.927 315.388 433.307 316.54 432.965 318.07L435.935 318.934L436.241 318.754C435.971 318.412 435.845 318.016 435.845 317.602C435.845 316.774 436.349 316 437.285 316C438.653 316 438.797 317.674 438.815 319.348C435.305 319.51 432.695 320.788 432.695 322.966C432.695 324.37 433.757 325.27 435.467 325.27C437.789 325.27 438.761 323.362 439.049 322.264L440.417 325H441.659V319.402C441.659 316.648 439.985 315.388 437.375 315.388ZM436.745 323.884C436.115 323.866 435.665 323.434 435.665 322.552C435.665 321.274 436.619 320.158 438.815 319.96C438.743 322.21 437.951 323.884 436.745 323.884ZM445.56 314.398C446.532 314.398 447.162 313.75 447.162 312.976C447.162 312.166 446.532 311.518 445.56 311.518C444.588 311.518 443.958 312.166 443.958 312.976C443.958 313.75 444.588 314.398 445.56 314.398ZM444.03 325C445.02 324.91 446.028 324.91 447.036 325C446.946 321.868 446.946 318.79 447.036 315.658C446.028 315.748 445.02 315.748 444.03 315.658C444.102 318.79 444.102 321.868 444.03 325ZM458.923 319.528C458.905 316.648 457.591 315.388 455.575 315.388C453.847 315.388 452.731 316.342 452.281 318.034L450.697 315.658H449.671C449.797 318.808 449.779 321.85 449.689 325C450.697 324.91 451.705 324.91 452.713 325C452.695 323.29 452.677 321.544 452.677 320.392C452.677 317.944 453.361 316.684 454.459 316.684C455.647 316.666 455.899 317.908 455.935 319.492C455.989 321.508 456.025 323.092 455.971 325C456.961 324.91 457.969 324.91 458.959 325C458.959 323.164 458.941 321.454 458.923 319.528Z" fill="black"/>
</svg>
