<svg width="372" height="325" viewBox="0 0 372 325" fill="none" xmlns="http://www.w3.org/2000/svg">
<path d="M245.3 171.9L133.5 171.4L125.2 176.1L237.1 176.7L106.7 251.9L111.4 254.6L16.7 254.1L8.5 258.9L119.8 259.5L175.8 291.7L135.9 314.7H201.6L208.7 310.6L224.6 319.8L129.3 319.3L121.1 324L233 324.6L371.6 244.6L245.3 171.9Z" fill="#BABCBE"/>
<path d="M136.101 270.7L92.501 245.7L205.901 180.2L249.401 205.2L136.101 270.7Z" fill="white"/>
<path d="M136.101 271.7C135.901 271.7 135.801 271.7 135.601 271.6L92.1006 246.6C91.8006 246.4 91.6006 246.1 91.6006 245.7C91.6006 245.3 91.8006 245 92.1006 244.8L205.401 179.3C205.701 179.1 206.101 179.1 206.401 179.3L249.901 204.3C250.201 204.5 250.401 204.8 250.401 205.2C250.401 205.6 250.201 205.9 249.901 206.1L136.601 271.6C136.401 271.6 136.201 271.7 136.101 271.7ZM94.5006 245.6L136.001 269.5L247.401 205.1L205.901 181.2L94.5006 245.6Z" fill="black"/>
<path d="M136.4 314.6L134.9 313.7V270.7L135.4 269.8L248.9 204.3L250.4 205.2V248.2L249.9 249.1L136.4 314.6ZM136.9 271.3V312L248.4 247.6V206.9L136.9 271.3Z" fill="black"/>
<path d="M135.9 314.7C135.7 314.7 135.6 314.7 135.4 314.6L92 289.6C91.7 289.4 91.5 289.1 91.5 288.7V245.7C91.5 245.3 91.7 245 92 244.8C92.3 244.6 92.7 244.6 93 244.8L136.4 269.8C136.7 270 136.9 270.3 136.9 270.7V313.7C136.9 314.1 136.7 314.4 136.4 314.6C136.3 314.7 136.1 314.7 135.9 314.7ZM93.5 288.1L134.9 312V271.3L93.5 247.4V288.1Z" fill="black"/>
<path d="M267.5 124L121.8 208.1V170.5L194.6 104.1L267.5 86.3999V124Z" fill="#AEC6F7" stroke="#111111" stroke-miterlimit="10"/>
<path d="M122.3 208.9L120.8 208V170.4L121.1 169.7L194.4 103.1L267.2 85.2998L268.4 86.2998V124L267.9 124.9L122.3 208.9ZM122.8 170.9V206.4L266.5 123.5V87.5998L195.1 105L122.8 170.9Z" fill="#AEC6F7" stroke="#111111" stroke-miterlimit="10"/>
<path d="M267.5 86.3999L194.6 104.1L121.8 170.5V179.6L194.6 113.3L267.5 95.4999V86.3999Z" fill="#AEC6F7" stroke="#111111" stroke-miterlimit="10"/>
<path d="M122.8 170.9V177.4L194 112.5C194.1 112.4 194.3 112.3 194.4 112.3L266.5 94.7001V87.6001L195.1 105L122.8 170.9Z" fill="#AEC6F7" stroke="#111111" stroke-miterlimit="10"/>
<path d="M128.6 319.6L121.8 323.5V215.2L128.6 211.3V319.6Z" fill="#111111"/>
<path d="M122.3 324.3L120.8 323.4V215.2L121.3 214.3L128.1 210.4L129.6 211.3V319.6L129.1 320.5L122.3 324.3ZM122.8 215.8V321.8L127.6 319V213L122.8 215.8Z" fill="#111111"/>
<path d="M115 319.6L121.8 323.5V215.2L115 211.3V319.6Z" fill="white"/>
<path d="M121.8 324.5C121.6 324.5 121.5 324.5 121.3 324.4L114.5 320.5C114.2 320.3 114 320 114 319.6V211.3C114 210.9 114.2 210.6 114.5 210.4C114.8 210.2 115.2 210.2 115.5 210.4L122.3 214.3C122.6 214.5 122.8 214.8 122.8 215.2V323.5C122.8 323.9 122.6 324.2 122.3 324.4C122.2 324.4 122 324.5 121.8 324.5ZM116 319L120.8 321.8V215.8L116 213V319Z" fill="black"/>
<path d="M15.3 254.4L8.5 258.3V150L15.3 146.1V254.4Z" fill="#111111"/>
<path d="M9.40039 150.6V256.6L14.2004 253.8V147.8L9.40039 150.6Z" fill="#111111"/>
<path d="M1.60059 254.4L8.50059 258.3V150L1.60059 146.1V254.4Z" fill="white"/>
<path d="M8.5002 259.3C8.3002 259.3 8.2002 259.3 8.0002 259.2L1.2002 255.3C0.900196 255.1 0.700195 254.8 0.700195 254.4V146.1C0.700195 145.7 0.900196 145.4 1.2002 145.2C1.5002 145 1.9002 145 2.2002 145.2L9.0002 149.1C9.3002 149.3 9.5002 149.6 9.5002 150V258.3C9.5002 258.7 9.3002 259 9.0002 259.2C8.8002 259.2 8.6002 259.3 8.5002 259.3ZM2.6002 253.8L7.4002 256.6V150.6L2.6002 147.8V253.8Z" fill="black"/>
<path d="M267.5 239.6L260.7 243.5V135.2L267.5 131.3V239.6Z" fill="#111111"/>
<path d="M261.2 244.4L259.7 243.5V135.2L260.2 134.3L267 130.4L268.5 131.3V239.6L268 240.5L261.2 244.4ZM261.7 135.8V241.8L266.5 239V133L261.7 135.8Z" fill="#111111"/>
<path d="M253.9 239.6L260.7 243.5V135.2L253.9 139.1V239.6Z" fill="white"/>
<path d="M260.7 244.5C260.5 244.5 260.4 244.5 260.2 244.4L253.4 240.5C253.1 240.3 252.9 240 252.9 239.6V139.1C252.9 138.7 253.1 138.4 253.4 138.2L260.2 134.3C260.5 134.1 260.9 134.1 261.2 134.3C261.5 134.5 261.7 134.8 261.7 135.2V243.5C261.7 243.9 261.5 244.2 261.2 244.4C261 244.5 260.8 244.5 260.7 244.5ZM254.8 239L259.6 241.8V137L254.8 139.7V239Z" fill="black"/>
<path d="M267.5 131.3L121.8 215.4V208.1L267.5 124V131.3Z" fill="#AEC6F7" stroke="#111111" stroke-miterlimit="10"/>
<path d="M121.8 216.4C121.6 216.4 121.5 216.4 121.3 216.3C121 216.1 120.8 215.8 120.8 215.4V208.1C120.8 207.7 121 207.4 121.3 207.2L267 123.1C267.3 122.9 267.7 122.9 268 123.1C268.3 123.3 268.5 123.6 268.5 124V131.3C268.5 131.7 268.3 132 268 132.2L122.4 216.3C122.2 216.4 122 216.4 121.8 216.4ZM122.8 208.7V213.7L266.5 130.7V125.7L122.8 208.7Z" fill="black"/>
<path d="M1.60059 146L121.801 215.4V170.5L1.60059 101.1V146Z" fill="#111111"/>
<path d="M121.8 216.4C121.6 216.4 121.5 216.4 121.3 216.3L1.2002 146.9C0.900196 146.7 0.700195 146.4 0.700195 146V101.1C0.700195 100.7 0.900196 100.4 1.2002 100.2C1.5002 99.9998 1.9002 99.9998 2.2002 100.2L122.4 169.6C122.7 169.8 122.9 170.1 122.9 170.5V215.4C122.9 215.8 122.7 216.1 122.4 216.3C122.2 216.4 122 216.4 121.8 216.4ZM2.6002 145.4L120.8 213.6V171L2.6002 102.8V145.4Z" fill="#111111"/>
<path d="M1.60059 146L121.801 215.4V208.1L1.60059 138.8V146Z" fill="#AEC6F7" stroke="#111111" stroke-miterlimit="10"/>
<path d="M1.60059 110.2L121.801 179.6V170.5L1.60059 101.1V110.2Z" fill="#AEC6F7" stroke="#111111" stroke-miterlimit="10"/>
<path d="M194.601 104.1L74.5006 34.7002L1.60059 101.1L121.801 170.5L194.601 104.1Z" fill="white"/>
<path d="M121.8 171.5C121.6 171.5 121.5 171.5 121.3 171.4L1.2002 101.9C0.900196 101.7 0.700195 101.5 0.700195 101.1C0.700195 100.8 0.800196 100.5 1.0002 100.3L73.8002 34.0001C74.1002 33.7001 74.6002 33.7001 75.0002 33.9001L195.2 103.3C195.5 103.5 195.7 103.7 195.7 104.1C195.7 104.4 195.6 104.7 195.4 104.9L122.6 171.2C122.3 171.4 122.1 171.5 121.8 171.5ZM3.30019 100.9L121.7 169.2L193 104.3L74.6002 36.0001L3.30019 100.9Z" fill="black"/>
<path d="M194.6 105.1C194.4 105.1 194.3 105.1 194.1 105L74 35.5999C73.6 35.3999 73.5 34.9999 73.5 34.5999C73.6 34.1999 73.9 33.8999 74.2 33.7999L147.1 15.9999C147.3 15.8999 147.6 15.9999 147.8 16.0999L268 85.4999C268.4 85.6999 268.5 86.0999 268.5 86.4999C268.4 86.8999 268.1 87.1999 267.8 87.2999L195 105.1C194.8 105.1 194.7 105.1 194.6 105.1ZM77.1 35.0999L194.8 103L264.8 85.8999L147.1 18.0999L77.1 35.0999Z" fill="black"/>
<path d="M166 154L158.7 158.2V170.6L166 166.4V164L161.4 166.7V163.6L165.7 161.1V158.7L161.4 161.2V159L166 156.3V154ZM164.9 150L162.5 151.4L161 155.6L162.7 154.6L164.9 150Z" fill="black"/>
<path d="M172.5 150C170.9 150.9 169.6 152.3 168.6 154C167.6 155.7 167.2 157.6 167.2 159.5C167.2 161.5 167.7 162.9 168.7 163.4C169.7 164 170.9 163.8 172.6 162.9C173.1 162.6 173.5 162.3 173.8 162.1C174.1 161.9 174.4 161.6 174.8 161.3C175.1 161 175.3 160.8 175.6 160.5C175.9 160.2 176.1 160 176.3 159.7V156.8L176 157C175.9 157.2 175.7 157.5 175.5 157.8C175.3 158.1 175.1 158.4 174.9 158.7C174.7 159 174.4 159.3 174.1 159.6C173.8 159.9 173.4 160.2 173.1 160.4C172.8 160.6 172.4 160.7 172.1 160.8C171.8 160.9 171.4 160.8 171.2 160.7C170.9 160.5 170.7 160.3 170.5 159.8C170.3 159.4 170.2 158.8 170.2 158C170.2 157.3 170.3 156.6 170.4 155.9C170.6 155.3 170.8 154.7 171.1 154.2C171.4 153.7 171.7 153.3 172 152.9C172.3 152.6 172.7 152.3 173.1 152.1C173.4 151.9 173.7 151.8 174.1 151.7C174.4 151.7 174.7 151.6 174.9 151.7C175.2 151.7 175.4 151.8 175.6 151.9C175.8 152 176 152 176.1 152.1L176.4 151.9V148.9C176.2 148.9 176 148.9 175.7 148.9C175.4 148.9 175.1 149 174.9 149C174.6 149.1 174.3 149.2 173.9 149.3C173.4 149.6 173 149.8 172.5 150Z" fill="black"/>
<path d="M180.5 151.3V148L181.4 147.5C181.7 147.3 182 147.2 182.2 147.1C182.4 147 182.6 146.9 182.8 146.9C183 146.9 183.2 147 183.3 147.1C183.4 147.3 183.5 147.5 183.5 147.8C183.5 148.2 183.5 148.5 183.4 148.7C183.3 149 183.2 149.2 183 149.5C182.8 149.8 182.6 150 182.3 150.2C182 150.4 181.7 150.6 181.3 150.8L180.5 151.3ZM182.2 144.7L177.8 147.2V159.6L180.5 158V153.4L181.5 152.8L184.5 155.6L187.8 153.7L184.1 150.5C184.7 149.8 185.2 149 185.6 148.2C186 147.4 186.2 146.5 186.2 145.5C186.2 144.8 186.1 144.3 185.9 144C185.7 143.7 185.4 143.5 185 143.5C184.6 143.4 184.2 143.5 183.8 143.7C183.3 144.1 182.8 144.4 182.2 144.7Z" fill="black"/>
<path d="M194 137.9L188.2 141.2V143.4L189.7 142.5L189.8 150.6L188.2 151.5V153.7L194.1 150.3L194 148.2L192.5 149V141L194 140.1V137.9Z" fill="black"/>
<path d="M204.901 131.6L202.101 133.2L199.801 143L197.401 135.9L194.601 137.5L198.301 147.8L201.201 146.2L204.901 131.6Z" fill="black"/>
<path d="M208.7 137L209.8 132.3L210.9 135.8L208.7 137ZM211.3 127.9L208.3 129.6L204.7 144.2L207.4 142.6L208.1 139.7L211.5 137.7L212.2 139.8L215 138.2L211.3 127.9Z" fill="black"/>
<path d="M221.501 122L215.601 125.4V127.6L217.201 126.7V134.8L215.701 135.7V137.8L221.501 134.5V132.3L219.901 133.2V125.1L221.501 124.2V122Z" fill="black"/>
<path d="M232.6 115.6L230.1 117.1V124.2L226.6 119.1L223.3 121V133.4L225.8 132V123.3L230 129.6L232.6 128.1V115.6Z" fill="black"/>
<path d="M188.4 196.69V206.39L207 217.09V207.39L188.4 196.69Z" fill="#AEC6F7" stroke="#111111" stroke-miterlimit="10"/>
<path d="M220.9 199.19L207 207.39L188.4 196.69L202.4 188.49L220.9 199.19Z" fill="#AEC6F7" stroke="#111111" stroke-miterlimit="10"/>
<path d="M220.9 202.59L207 210.79L188.4 199.99L202.4 191.89L220.9 202.59Z" fill="white"/>
<path d="M202.4 188.09L188 196.49V206.69L207 217.69L221.4 209.29V199.09L202.4 188.09ZM206.6 216.39L188.8 206.09V197.29L206.6 207.59V216.39ZM189.1 196.69L202.3 188.99L220.1 199.29L206.9 206.99L189.1 196.69Z" fill="#15110E"/>
<path d="M207 217.09V222.39L189.4 212.19V206.99L207 217.09Z" fill="#AEC6F7" stroke="#111111" stroke-miterlimit="10"/>
<path d="M207 216.691L189 206.291V212.491L207.1 222.891L219.6 215.591V209.291L207 216.691ZM189.8 211.991V207.591L206.6 217.291L206.7 221.691L189.8 211.991Z" fill="#15110E"/>
<path d="M206.8 217.29V216.39L219.4 208.99V209.89L206.8 217.29Z" fill="#AEC6F7"/>
<path d="M212.2 203.99L194.1 193.59L194.5 192.89L212.9 203.49L212.2 203.99Z" fill="#15110E"/>
<path d="M211.6 220.19L210.8 220.69L212.2 213.29V203.99L212.9 203.49V213.39L211.6 220.19Z" fill="#AEC6F7"/>
<path d="M212.5 197.291C212.3 196.791 211.9 196.191 210.8 195.991C209.4 195.691 208 197.191 207.1 198.391C207.1 197.991 207.1 197.691 207.1 197.291C207 196.191 205.4 194.391 204.1 194.291C203.7 194.191 202.9 194.291 202.5 195.491C201.7 197.791 205 199.691 206.1 200.291L206 200.491L206.5 200.591L206.9 200.791V200.691C207.4 200.691 208.2 200.791 209 200.791C210.2 200.791 211.4 200.691 211.8 200.191C212.4 199.291 212.8 198.191 212.5 197.291ZM203.2 195.591C203.4 194.991 203.7 194.891 203.9 194.891H204C205 194.991 206.3 196.491 206.3 197.191C206.4 197.991 206.3 198.791 206.2 199.391C205 198.691 202.7 196.991 203.2 195.591ZM211.3 199.391C210.9 199.791 209 199.791 207.2 199.691C207.9 198.491 209.4 196.491 210.7 196.691C211.3 196.791 211.7 197.091 211.8 197.491C212 198.091 211.7 198.991 211.3 199.391Z" fill="#15110E"/>
<path d="M207.8 203.09C207.5 203.09 207.2 202.99 206.8 202.89C205.8 202.39 206.1 201.59 206.3 201.09C206.4 200.89 206.5 200.59 206.4 200.49C206.4 200.39 206.2 200.39 206.1 200.29C205.4 200.09 204.8 200.09 204.3 200.29C203.6 200.69 203.4 201.49 203.4 201.49L202.7 201.29C202.7 201.29 203 200.09 204 199.59C204.7 199.19 205.5 199.19 206.4 199.49C206.8 199.59 207.1 199.79 207.2 200.09C207.4 200.49 207.3 200.89 207.1 201.29C206.9 201.89 206.9 201.99 207.2 202.09C208.3 202.59 209 201.69 209.1 201.59L209.7 202.09C209.3 202.59 208.7 203.09 207.8 203.09Z" fill="#15110E"/>
<path d="M209.999 187.79C209.999 187.79 210.099 190.19 207.499 190.49C205.599 190.69 204.299 191.09 203.999 191.19C203.899 191.19 203.599 190.99 203.599 190.99L203.499 189.79C203.499 189.79 205.299 188.99 205.399 188.99C205.499 188.99 206.899 189.09 207.599 188.69C208.199 188.29 207.999 187.69 207.799 187.19C207.499 186.69 207.999 186.49 207.999 186.49L209.799 187.39L209.899 187.49C209.799 187.39 209.899 187.59 209.999 187.79Z" fill="#AEC6F7"/>
<path d="M203.999 191.49C203.899 191.49 203.799 191.49 203.799 191.39C203.699 191.39 203.399 191.19 203.299 190.99V190.89L203.199 189.39L203.399 189.29C205.199 188.49 205.299 188.49 205.399 188.49H205.499C206.799 188.59 207.299 188.39 207.399 188.29C207.699 188.09 207.799 187.89 207.499 187.19C207.299 186.89 207.399 186.59 207.399 186.49C207.499 186.19 207.799 186.09 207.799 186.09L207.899 185.99L209.899 186.99L209.999 187.09C210.199 187.29 210.299 187.49 210.299 187.69C210.299 187.69 210.399 190.39 207.499 190.69C205.599 190.89 204.399 191.29 204.099 191.39L203.999 191.49ZM203.899 190.69C203.899 190.69 203.999 190.69 203.999 190.79C204.399 190.59 205.699 190.29 207.499 190.09C209.599 189.89 209.699 187.99 209.699 187.79C209.699 187.69 209.599 187.59 209.499 187.49L207.999 186.69C207.999 186.69 207.999 186.79 207.999 186.89C208.199 187.19 208.699 188.19 207.699 188.79C207.299 189.09 206.499 189.19 205.399 189.09C205.199 189.19 204.499 189.49 203.799 189.79L203.899 190.69Z" fill="#15110E"/>
<path d="M209.899 187.49C208.999 185.89 205.099 189.29 204.499 190.79C204.299 191.09 203.799 191.29 203.399 191.09L202.699 190.79C202.699 190.79 203.199 186.39 206.299 185.69C208.699 185.19 209.899 187.49 209.899 187.49Z" fill="white"/>
<path d="M203.799 191.49C203.599 191.49 203.499 191.49 203.299 191.39L202.399 190.99V190.79C202.399 190.59 202.899 186.19 206.199 185.49C208.699 184.89 209.999 187.29 210.099 187.49L209.499 187.79C209.399 187.69 209.299 187.49 208.999 187.49C207.699 187.59 205.199 189.89 204.699 190.99C204.599 191.29 204.199 191.49 203.799 191.49ZM203.099 190.59L203.499 190.79C203.799 190.89 204.099 190.79 204.099 190.69C204.599 189.39 207.199 186.99 208.799 186.79C208.299 186.29 207.399 185.79 206.299 186.09C203.899 186.59 203.199 189.69 203.099 190.59Z" fill="#15110E"/>
<path d="M196.4 187.59C196.4 187.59 196.3 190.09 198.7 190.39C200.5 190.59 201.7 190.99 202 191.09C202.1 191.09 202.4 190.89 202.4 190.79L202.5 189.49C202.5 189.49 201 188.99 200.9 188.99C200.8 188.99 199.2 188.79 198.7 188.39C198.1 187.99 198.3 187.39 198.5 186.79C198.8 186.19 198.3 185.99 198.3 185.99L196.6 186.89L196.5 186.99C196.5 187.19 196.4 187.39 196.4 187.59Z" fill="#AEC6F7"/>
<path d="M202 191.49H201.9C201.6 191.39 200.5 190.99 198.7 190.79C196.5 190.49 196 188.59 196.1 187.69C196.1 187.49 196.2 187.19 196.4 186.99L196.6 186.79L198.4 185.79L198.5 185.89C198.5 185.89 198.8 185.99 198.9 186.29C199 186.49 199 186.69 198.9 186.99C198.6 187.69 198.7 187.99 199 188.19C199.5 188.49 200.9 188.69 201.1 188.69C201.2 188.69 201.2 188.69 202.8 189.29L203 189.39L202.9 190.99C202.8 191.19 202.4 191.39 202.4 191.39C202.2 191.39 202.1 191.49 202 191.49ZM196.7 187.59C196.7 187.79 196.7 189.79 198.8 189.99C200.5 190.19 201.6 190.49 202.1 190.69C202.1 190.69 202.2 190.69 202.2 190.59L202.3 189.69C201.7 189.49 201.1 189.29 201 189.29C201 189.29 199.3 189.09 198.6 188.69C197.7 188.09 198.2 186.99 198.3 186.69C198.3 186.59 198.4 186.49 198.3 186.49L196.9 187.29C196.8 187.39 196.7 187.49 196.7 187.59Z" fill="#15110E"/>
<path d="M196.5 187.29C197.4 185.59 201 189.19 201.6 190.69C201.8 191.09 202.2 191.19 202.6 190.99L203.2 190.69C203.2 190.69 202.8 186.09 199.8 185.39C197.6 184.89 196.5 187.29 196.5 187.29Z" fill="white"/>
<path d="M202.2 191.49C202.1 191.49 202 191.49 201.8 191.39C201.5 191.29 201.3 191.09 201.2 190.89C200.7 189.69 198.4 187.19 197.2 187.19C197 187.19 196.8 187.29 196.7 187.49L196.1 187.19C196.5 186.29 197.9 184.59 199.8 185.09C202.9 185.89 203.4 190.49 203.4 190.69V190.89L202.6 191.29C202.5 191.39 202.4 191.49 202.2 191.49ZM197.4 186.59C199 186.79 201.4 189.49 201.9 190.69C201.9 190.79 202 190.79 202.1 190.89C202.2 190.89 202.3 190.89 202.5 190.89L202.9 190.69C202.8 189.79 202.1 186.49 199.8 185.89C198.6 185.49 197.9 185.99 197.4 186.59Z" fill="#15110E"/>
<path d="M204.099 190.89C204.099 190.79 204.099 190.79 204.099 190.69C204.099 190.49 203.899 189.89 203.199 189.89C202.499 189.89 202.299 190.39 202.199 190.59C202.199 190.69 202.199 190.79 202.199 190.79C202.299 190.99 202.499 191.19 202.799 191.19H203.499C203.799 191.29 203.999 191.09 204.099 190.89Z" fill="#14100D"/>
<path d="M203.499 191.59H202.799C202.399 191.59 201.999 191.29 201.899 190.89C201.899 190.69 201.899 190.59 201.899 190.49C201.999 189.89 202.499 189.49 203.199 189.49C203.999 189.49 204.399 190.09 204.399 190.59C204.399 190.69 204.399 190.79 204.399 190.89C204.299 191.39 203.899 191.59 203.499 191.59ZM203.199 190.19C202.799 190.19 202.599 190.39 202.499 190.69V190.79C202.499 190.89 202.699 190.99 202.799 190.99H203.499C203.599 190.99 203.799 190.89 203.799 190.79C203.799 190.79 203.799 190.79 203.799 190.69C203.799 190.19 203.299 190.19 203.199 190.19Z" fill="#15110E"/>
<path d="M115.5 0.766602C107.869 0.766602 101.625 6.7466 101.625 14.1066C101.625 17.0199 102.627 19.7799 104.4 22.0799L114.883 35.7266C115.115 36.0333 115.654 36.1099 115.962 35.8799C116.04 35.8033 116.04 35.8033 116.117 35.7266L126.6 22.0799C128.373 19.7799 129.375 17.0199 129.375 14.1066C129.375 6.7466 123.131 0.766602 115.5 0.766602ZM114.421 19.3199C111.492 18.7066 109.565 15.9466 110.181 13.0333C110.798 10.1199 113.573 8.20327 116.502 8.8166C118.66 9.2766 120.356 10.8866 120.742 13.0333C121.281 15.9466 119.354 18.7833 116.502 19.3199C115.808 19.4733 115.115 19.4733 114.421 19.3199Z" fill="#F3BC54"/>
<rect x="97" y="48" width="154" height="35" fill="#F3BC54"/>
<path d="M113.066 71.198C115.928 71.198 118.286 70.1 118.286 67.904C118.286 66.23 116.864 65.222 114.596 63.674C112.436 62.18 111.41 61.406 111.41 60.272C111.41 59.444 111.914 58.886 113.192 58.886C114.776 58.886 116.072 59.714 116.468 62.198L116.72 62.27L118.214 59.426C117.638 58.832 115.424 58.112 113.084 58.112C110.078 58.112 108.404 59.246 108.404 61.208C108.404 62.918 109.772 63.944 111.716 65.312C113.786 66.734 115.154 67.58 115.154 68.876C115.154 69.83 114.416 70.424 113.246 70.424C111.266 70.424 109.664 68.75 109.304 66.446L109.052 66.392L107.828 69.794C108.692 70.514 110.852 71.198 113.066 71.198ZM125.123 68.75C125.159 68.876 125.195 69.02 125.195 69.164C125.195 69.704 124.925 70.208 124.475 70.208C123.845 70.208 123.701 69.452 123.665 68.264C123.647 66.968 123.593 64.754 123.629 62.504L126.023 62.558C125.987 62.198 126.005 62.036 126.041 61.658L123.629 61.712C123.647 60.83 123.683 59.966 123.719 59.156C122.909 59.246 122.207 59.228 121.451 59.138L120.875 61.694C120.515 61.676 120.137 61.676 119.741 61.658C119.777 62.036 119.777 62.198 119.741 62.558C120.083 62.54 120.407 62.54 120.713 62.522C120.803 64.682 120.767 66.788 120.767 68.246C120.749 70.514 121.991 71.234 123.539 71.234C125.141 71.234 126.077 70.478 126.077 68.912C125.753 68.93 125.429 68.876 125.123 68.75ZM132.035 61.388C129.587 61.388 127.967 62.54 127.625 64.07L130.595 64.934L130.901 64.754C130.631 64.412 130.505 64.016 130.505 63.602C130.505 62.774 131.009 62 131.945 62C133.313 62 133.457 63.674 133.475 65.348C129.965 65.51 127.355 66.788 127.355 68.966C127.355 70.37 128.417 71.27 130.127 71.27C132.449 71.27 133.421 69.362 133.709 68.264L135.077 71H136.319V65.402C136.319 62.648 134.645 61.388 132.035 61.388ZM131.405 69.884C130.775 69.866 130.325 69.434 130.325 68.552C130.325 67.274 131.279 66.158 133.475 65.96C133.403 68.21 132.611 69.884 131.405 69.884ZM147.87 65.528C147.852 62.648 146.538 61.388 144.522 61.388C142.794 61.388 141.678 62.342 141.228 64.034L139.644 61.658H138.618C138.744 64.808 138.726 67.85 138.636 71C139.644 70.91 140.652 70.91 141.66 71C141.642 69.29 141.624 67.544 141.624 66.392C141.624 63.944 142.308 62.684 143.406 62.684C144.594 62.666 144.846 63.908 144.882 65.492C144.936 67.508 144.972 69.092 144.918 71C145.908 70.91 146.916 70.91 147.906 71C147.906 69.164 147.888 67.454 147.87 65.528ZM153.512 71.27C155.06 71.252 156.176 70.334 156.698 68.786L158.246 71H159.272C159.146 67.508 159.164 61.262 159.272 57.86C158.318 57.68 157.238 57.68 156.284 57.86C156.392 59.498 156.41 61.352 156.464 62.972C155.942 62 154.934 61.388 153.674 61.388C151.208 61.388 149.678 63.314 149.678 66.374C149.678 69.524 151.262 71.306 153.512 71.27ZM154.484 69.974C153.35 69.974 152.72 68.606 152.72 66.266C152.72 63.908 153.368 62.54 154.484 62.54C155.654 62.54 156.338 63.98 156.32 66.266C156.32 68.66 155.618 69.974 154.484 69.974ZM172.976 58.724C172.67 58.022 171.986 57.194 171.5 56.834L168.224 60.164L168.818 60.65L172.976 58.724ZM171.896 67.904L171.572 68.048C171.626 68.318 171.644 68.534 171.644 68.84C171.644 70.136 171.014 70.622 170.24 70.622C168.764 70.622 168.26 69.2 168.26 66.464V66.356H174.128L174.488 66.14C174.56 63.224 173.084 61.388 170.042 61.388C167.036 61.388 165.146 63.35 165.146 66.266C165.146 69.236 167.018 71.27 170.186 71.27C172.472 71.27 174.182 70.208 174.542 68.3L171.896 67.904ZM170.15 62.036C171.14 62.036 171.554 62.792 171.554 64.088C171.554 64.664 171.518 65.222 171.41 65.6H168.278C168.404 63.08 169.088 62.036 170.15 62.036ZM180.837 71.234C183.213 71.234 185.067 69.974 185.427 67.85L182.385 67.364L182.061 67.49C182.241 68.012 182.295 68.462 182.295 68.876C182.295 70.118 181.611 70.586 180.981 70.586C179.757 70.586 179.001 69.2 179.001 66.23C179.001 63.35 179.739 62.036 181.017 62.036C181.665 62.036 182.241 62.468 182.241 63.494C182.241 63.89 182.169 64.322 182.007 64.898L182.349 65.024L185.319 64.538C184.959 62.666 183.267 61.388 180.837 61.388C177.795 61.388 175.887 63.368 175.887 66.266C175.887 69.182 177.795 71.234 180.837 71.234ZM187.275 71C188.283 70.91 189.291 70.91 190.299 71C190.263 69.254 190.263 67.49 190.281 65.888C190.281 63.98 190.749 62.684 191.757 62.684C192.549 62.684 192.909 63.62 192.495 65.366L192.693 65.402L195.231 64.646C195.285 64.358 195.303 64.07 195.303 63.8C195.303 62.126 194.241 61.388 192.981 61.388C191.235 61.388 190.281 62.54 189.867 63.962L188.283 61.658H187.257C187.365 64.808 187.365 67.85 187.275 71ZM198.368 60.398C199.34 60.398 199.97 59.75 199.97 58.976C199.97 58.166 199.34 57.518 198.368 57.518C197.396 57.518 196.766 58.166 196.766 58.976C196.766 59.75 197.396 60.398 198.368 60.398ZM196.838 71C197.828 70.91 198.836 70.91 199.844 71C199.754 67.868 199.754 64.79 199.844 61.658C198.836 61.748 197.828 61.748 196.838 61.658C196.91 64.79 196.91 67.868 196.838 71ZM208.941 61.658C208.437 63.674 207.753 66.788 206.997 69.38C206.169 66.68 205.323 63.818 204.729 61.658C203.649 61.784 202.407 61.784 201.345 61.658C202.425 64.142 204.027 68.372 204.909 71C205.737 70.91 206.565 70.91 207.357 71C208.401 68.084 210.021 63.962 211.065 61.658C210.363 61.748 209.643 61.748 208.941 61.658ZM216.375 61.388C213.927 61.388 212.307 62.54 211.965 64.07L214.935 64.934L215.241 64.754C214.971 64.412 214.845 64.016 214.845 63.602C214.845 62.774 215.349 62 216.285 62C217.653 62 217.797 63.674 217.815 65.348C214.305 65.51 211.695 66.788 211.695 68.966C211.695 70.37 212.757 71.27 214.467 71.27C216.789 71.27 217.761 69.362 218.049 68.264L219.417 71H220.659V65.402C220.659 62.648 218.985 61.388 216.375 61.388ZM215.745 69.884C215.115 69.866 214.665 69.434 214.665 68.552C214.665 67.274 215.619 66.158 217.815 65.96C217.743 68.21 216.951 69.884 215.745 69.884ZM224.56 60.398C225.532 60.398 226.162 59.75 226.162 58.976C226.162 58.166 225.532 57.518 224.56 57.518C223.588 57.518 222.958 58.166 222.958 58.976C222.958 59.75 223.588 60.398 224.56 60.398ZM223.03 71C224.02 70.91 225.028 70.91 226.036 71C225.946 67.868 225.946 64.79 226.036 61.658C225.028 61.748 224.02 61.748 223.03 61.658C223.102 64.79 223.102 67.868 223.03 71ZM237.923 65.528C237.905 62.648 236.591 61.388 234.575 61.388C232.847 61.388 231.731 62.342 231.281 64.034L229.697 61.658H228.671C228.797 64.808 228.779 67.85 228.689 71C229.697 70.91 230.705 70.91 231.713 71C231.695 69.29 231.677 67.544 231.677 66.392C231.677 63.944 232.361 62.684 233.459 62.684C234.647 62.666 234.899 63.908 234.935 65.492C234.989 67.508 235.025 69.092 234.971 71C235.961 70.91 236.969 70.91 237.959 71C237.959 69.164 237.941 67.454 237.923 65.528Z" fill="black"/>
</svg>
