<svg width="275" height="250" viewBox="0 0 275 250" fill="none" xmlns="http://www.w3.org/2000/svg">
<g clip-path="url(#clip0)">
<path d="M-9.15527e-05 198.4L61.3999 163.1H140.3L231.3 215.5H245.8L254.9 220.7H237.9L201.9 241.4L210.3 246.2H193.5L187.6 249.6L139.1 249.7C123.3 249.7 107.4 248.7 93.1999 245.6L88.3999 248.4L-9.15527e-05 198.4Z" fill="#BABCBE"/>
<path d="M201.9 240.7L210.3 245.6V233.9L201.9 229.1V240.7Z" fill="#AEC6F7" stroke="#111111" stroke-miterlimit="10"/>
<path d="M218.7 240.7L210.3 245.6V233.9L218.7 229.1V240.7Z" fill="#AEC6F7" stroke="#111111" stroke-miterlimit="10"/>
<path d="M111.5 188.5L120 193.4V181.8L111.5 176.9V188.5Z" fill="#AEC6F7" stroke="#111111" stroke-miterlimit="10"/>
<path d="M128.4 188.5L120 193.4V181.8L128.4 176.9V188.5Z" fill="#AEC6F7" stroke="#111111" stroke-miterlimit="10"/>
<path d="M246.6 215.2L255 220.1V208.5L246.6 203.6V215.2Z" fill="#AEC6F7" stroke="#111111" stroke-miterlimit="10"/>
<path d="M263.4 215.2L255 220.1V208.5L263.4 203.6V215.2Z" fill="#AEC6F7" stroke="#111111" stroke-miterlimit="10"/>
<path d="M142.3 189.4L162.9 222.9C162.9 222.9 168.3 219.7 170.8 218.2C173.4 216.8 174.9 213.6 174.9 209.1C174.9 200.2 168.7 189.4 161 184.9C157.1 182.7 153.7 182.5 151.1 183.9C148.6 185.5 142.3 189.4 142.3 189.4Z" fill="#AEC6F7" stroke="#111111" stroke-miterlimit="10"/>
<path d="M139.1 197.8C139.1 206.7 145.3 217.5 153 222C160.7 226.4 166.9 222.8 166.9 213.9C166.9 205 160.7 194.2 153 189.7C145.3 185.2 139.1 188.9 139.1 197.8Z" fill="black"/>
<path d="M159.3 225.5C160.9 225.5 162.4 225.1 163.8 224.3C167 222.5 168.7 218.7 168.7 213.8C168.7 204.4 162.1 192.9 153.9 188.2C149.6 185.7 145.5 185.4 142.4 187.2C139.2 189 137.5 192.8 137.5 197.7C137.5 207.1 144.1 218.6 152.3 223.3C154.7 224.8 157.1 225.5 159.3 225.5ZM146.8 189.5C148.4 189.5 150.3 190.1 152.2 191.2C159.4 195.4 165.3 205.6 165.3 213.9C165.3 217.6 164.1 220.3 162 221.5C159.9 222.7 157 222.4 153.8 220.5C146.6 216.3 140.7 206.1 140.7 197.8C140.7 194.1 141.9 191.4 144 190.2C144.9 189.7 145.8 189.5 146.8 189.5Z" fill="black"/>
<path d="M145.2 201.3C145.2 206.3 148.7 212.5 153.1 215C157.5 217.5 161 215.5 161 210.4C161 205.3 157.5 199.2 153.1 196.7C148.7 194.2 145.2 196.2 145.2 201.3Z" fill="white"/>
<path d="M156.6 216.9C157.5 216.9 158.3 216.7 159.1 216.3C160.9 215.3 161.8 213.2 161.8 210.5C161.8 205.2 158.1 198.7 153.5 196.1C151.1 194.7 148.8 194.5 147.1 195.5C145.3 196.5 144.4 198.6 144.4 201.3C144.4 206.6 148.1 213.1 152.7 215.7C154 216.5 155.4 216.9 156.6 216.9ZM149.5 196.5C150.4 196.5 151.5 196.8 152.6 197.5C156.7 199.9 160.1 205.7 160.1 210.5C160.1 212.6 159.4 214.2 158.2 214.9C157 215.6 155.3 215.4 153.4 214.3C149.3 211.9 145.9 206.1 145.9 201.3C145.9 199.2 146.6 197.6 147.8 196.9C148.4 196.6 148.9 196.5 149.5 196.5Z" fill="black"/>
<path d="M148.6 203.2C148.6 206.1 150.6 209.6 153.1 211C155.6 212.4 157.6 211.3 157.6 208.4C157.6 205.5 155.6 202 153.1 200.6C150.6 199.2 148.6 200.4 148.6 203.2Z" fill="#AEC6F7" stroke="#111111" stroke-miterlimit="10"/>
<path d="M133.1 57.2L234.8 115.8C219.1 128.4 209.3 153.4 207 174.6L105.4 115.9C107 91.8 118.8 66.9 133.1 57.2Z" fill="#AEC6F7" stroke="#111111" stroke-miterlimit="10"/>
<path d="M206.6 175.3L207.8 174.7C210 154.9 219.3 129.3 235.3 116.4L235.2 115L133.5 56.3999H132.6C117.9 66.2999 106.1 91.2999 104.5 115.8L104.9 116.6L206.6 175.3ZM233.3 115.9C217.8 129 208.7 153.7 206.3 173.2L106.3 115.4C108 92.1999 119.4 67.6999 133.2 58.0999L233.3 115.9Z" fill="black"/>
<path d="M101.5 118C101.6 116.7 101.6 115.3 101.8 114V113.8C103.8 91.1001 114.6 66.2 129.6 55.1H129.7C130.6 54.4 131.5 53.8 132.4 53.3L133.1 52.8L216.6 100.9C216.6 100.9 216.6 100.9 216.5 100.9L241.9 115.5L266.6 129.8C248.9 140 236 169.7 235.1 195.2L126.3 132.4L101.5 118ZM181.7 159.9C184 138.8 193.7 113.8 209.4 101.2L157.8 71.5C143.5 81.2 131.7 106.1 130.1 130.2L181.7 159.9ZM212.9 103.2C198 114.5 187.2 139.4 185.3 162L207 174.5C209.3 153.3 219 128.3 234.8 115.7L212.9 103.2ZM105.4 115.8L126.5 128C128.5 105.3 139.3 80.5001 154.2 69.3001L133.1 57.1C118.8 66.8 107 91.7001 105.4 115.8ZM259.5 130.1L238.3 117.9C223.3 129.1 212.5 154 210.6 176.7L231.7 188.9C234 167.7 243.8 142.7 259.5 130.1Z" fill="white"/>
<path d="M235.1 196C235.2 196 235.4 196 235.5 195.9C235.8 195.8 235.9 195.5 235.9 195.2C236.9 168.4 250.6 140 267 130.5C267.3 130.4 267.4 130.1 267.4 129.8C267.4 129.5 267.2 129.2 267 129.1L242.4 114.9L242.3 114.8L217.2 100.3C217.1 100.2 217.1 100.1 217 100.1L133.5 52C133.2 51.8 132.9 51.9 132.6 52L131.9 52.5C130.9 53.1 130 53.7 129.2 54.3C129.2 54.3 129.2 54.3 129.1 54.3C114.7 65 103.1 89.4 101 113.5V113.6V113.8C100.9 115.2 100.8 116.5 100.7 117.9C100.7 118.2 100.8 118.5 101.1 118.7L234.7 195.9C234.8 195.9 234.9 196 235.1 196ZM265 129.8C247.2 141.1 235.6 170.5 234.3 193.7L102.4 117.5C102.5 116.3 102.5 115.2 102.6 114V113.8C102.6 113.8 102.6 113.8 102.6 113.7C104.7 90 116 66.1 130.1 55.6C130.1 55.6 130.1 55.6 130.2 55.5C131.1 54.9 131.9 54.3 132.8 53.7L133.1 53.5L215.8 101.2C215.9 101.3 215.9 101.4 216 101.4L241.3 116.1L241.4 116.2L265 129.8ZM231.7 189.7C231.8 189.7 232 189.7 232.1 189.6C232.4 189.5 232.5 189.2 232.6 188.9C234.7 169.2 244 143.5 260.1 130.7C260.3 130.5 260.4 130.3 260.4 130C260.4 129.7 260.2 129.5 260 129.3L238.8 117.1C238.5 116.9 238.1 117 237.9 117.2C223.5 128 211.9 152.4 209.8 176.6C209.8 176.9 209.9 177.2 210.2 177.4L231.3 189.6C231.4 189.6 231.6 189.7 231.7 189.7ZM258 130.2C242.5 143.3 233.4 168 231 187.5L211.4 176.2C213.6 152.9 224.5 129.5 238.3 118.9L258 130.2ZM207 175.4C207.1 175.4 207.3 175.4 207.4 175.3C207.7 175.2 207.8 174.9 207.9 174.6C210 155 219.3 129.3 235.3 116.4C235.5 116.2 235.6 116 235.6 115.7C235.6 115.4 235.4 115.2 235.2 115L213.4 102.4C213.1 102.2 212.7 102.3 212.5 102.5C198.1 113.3 186.6 137.8 184.5 161.9C184.5 162.2 184.6 162.5 184.9 162.7L206.6 175.2C206.7 175.4 206.9 175.4 207 175.4ZM233.3 115.9C217.8 129 208.7 153.7 206.3 173.2L186.1 161.6C188.3 138.3 199.3 114.9 213 104.2L233.3 115.9ZM181.7 160.7C181.8 160.7 182 160.7 182.1 160.6C182.4 160.5 182.5 160.2 182.6 159.9C184.7 140.2 194 114.6 210 101.7C210.2 101.5 210.3 101.3 210.3 101C210.3 100.7 210.1 100.5 209.9 100.3L158.3 70.7C158 70.5 157.7 70.6 157.4 70.7C142.8 80.6 131 105.5 129.3 130C129.3 130.3 129.4 130.6 129.7 130.8L181.3 160.6C181.4 160.7 181.5 160.7 181.7 160.7ZM207.9 101.3C192.4 114.4 183.3 139.1 181 158.5L131 129.6C132.7 106 143.9 82.1 157.9 72.4L207.9 101.3ZM126.5 128.9C126.6 128.9 126.8 128.9 126.9 128.8C127.2 128.7 127.3 128.4 127.3 128.1C129.4 104.4 140.7 80.5 154.7 70C154.9 69.8 155 69.6 155 69.3C155 69 154.8 68.8 154.6 68.6L133.5 56.4C133.2 56.2 132.9 56.3 132.6 56.4C118 66.3 106.2 91.2 104.5 115.7C104.5 116 104.6 116.3 104.9 116.5L126 128.7C126.2 128.8 126.4 128.9 126.5 128.9ZM152.8 69.4C139.1 80.3 128.2 103.5 125.8 126.6L106.3 115.3C108 91.7 119.2 67.8 133.2 58.1L152.8 69.4Z" fill="black"/>
<path d="M241.9 115.5C260.3 104.8 273.5 97.2998 273.5 97.2998V197.6L210.3 234.1C210.3 234.1 210.3 210 210.3 183.9C210.3 157.8 223.4 126.2 241.9 115.5Z" fill="#111111"/>
<path d="M210.7 234.8L273.9 198.3L274.3 197.6V97.2999L273 96.5999L241.4 114.8C223.8 125 209.4 156 209.4 183.9V234.1L210.7 234.8ZM272.6 197.1L211.1 232.6V183.9C211.1 156.5 225.1 126.1 242.3 116.2L272.6 98.6999V197.1Z" fill="#111111"/>
<path d="M241.9 115.5L133 52.7L164.6 34.5L273.5 97.3L241.9 115.5Z" fill="white"/>
<path d="M241.9 116.3C242 116.3 242.2 116.3 242.3 116.2L273.9 97.9999C274.1 97.8999 274.3 97.5999 274.3 97.2999C274.3 96.9999 274.1 96.6999 273.9 96.5999L165.1 33.7999C164.8 33.5999 164.5 33.5999 164.3 33.7999L132.7 51.9999C132.4 52.0999 132.3 52.3999 132.3 52.6999C132.3 52.9999 132.5 53.2999 132.7 53.3999L241.5 116.2C241.6 116.3 241.7 116.3 241.9 116.3ZM271.8 97.2999L241.9 114.5L134.7 52.5999L164.6 35.3999L271.8 97.2999Z" fill="black"/>
<path d="M210 133.7L101.1 70.7997L132.7 52.6997L241.6 115.5L210 133.7Z" fill="white"/>
<path d="M210 134.5C210.1 134.5 210.3 134.5 210.4 134.4L242 116.2C242.3 116.1 242.4 115.8 242.4 115.5C242.4 115.2 242.2 114.9 242 114.8L133.2 51.9998C132.9 51.8998 132.6 51.8998 132.4 51.9998L100.8 70.1998C100.5 70.2998 100.4 70.5998 100.4 70.8998C100.4 71.1998 100.6 71.4998 100.8 71.5998L209.6 134.4C209.7 134.5 209.8 134.5 210 134.5ZM239.9 115.5L210 132.7L102.8 70.7998L132.7 53.5998L239.9 115.5Z" fill="black"/>
<path d="M210 133.7L101.1 70.7998L94.4 80.3998L203.2 143.3L210 133.7Z" fill="white"/>
<path d="M203.3 144.1C203.6 144.1 203.8 144 204 143.7L210.7 134.1C210.8 133.9 210.9 133.7 210.8 133.4C210.7 133.2 210.6 133 210.4 132.9L101.6 70.0999C101.2 69.8999 100.7 69.9999 100.5 70.2999L93.7999 79.8999C93.6999 80.0999 93.5999 80.2999 93.6999 80.5999C93.7999 80.7999 93.8999 80.9999 94.0999 81.0999L202.8 144C203 144.1 203.1 144.1 203.3 144.1ZM208.8 133.9L203 142.1L95.5999 80.0999L101.4 71.8999L208.8 133.9Z" fill="black"/>
<path d="M101.4 118L210.3 180.9V234.1L176.9 214.8L168.3 195.3L143.4 180.9L134.8 190.5L101.4 171.2V118Z" fill="#AEC6F7" stroke="#111111" stroke-miterlimit="10"/>
<path d="M132.2 52.2L241.9 115.5H213.8L118.1 60.2L132.2 52.2Z" fill="#111111"/>
<path d="M250.8 110.5L258.1 106.5V64.0999L250.8 68.1999V110.5Z" fill="#AEC6F7" stroke="#111111" stroke-miterlimit="10"/>
<path d="M141.1 47.9999L148.4 43.8999V1.59985L141.1 5.59985V47.9999Z" fill="#AEC6F7" stroke="#111111" stroke-miterlimit="10"/>
<path d="M141.1 37.1999L250.8 100.5V68.1999L141.1 4.8999V37.1999Z" fill="#AEC6F7" stroke="#111111" stroke-miterlimit="10"/>
<path d="M250 68.6998V98.9998L142 36.6998V6.2998L250 68.6998Z" fill="#AEC6F7" stroke="#111111" stroke-miterlimit="10"/>
<path d="M141.1 4.8998L250.8 68.1998L258.1 64.0998L148.4 0.799805L141.1 4.8998Z" fill="white"/>
<path d="M250.8 68.9999C250.9 68.9999 251.1 68.9999 251.2 68.8999L258.5 64.8999C258.8 64.7999 258.9 64.4999 258.9 64.1999C258.9 63.8999 258.7 63.5999 258.5 63.4999L148.8 0.0999023C148.5 -9.76548e-05 148.2 -9.76548e-05 148 0.0999023L140.7 4.0999C140.4 4.1999 140.3 4.4999 140.3 4.7999C140.3 5.0999 140.5 5.3999 140.7 5.4999L250.4 68.8999C250.5 68.9999 250.7 68.9999 250.8 68.9999ZM256.4 64.0999L250.8 67.1999L142.8 4.8999L148.4 1.7999L256.4 64.0999Z" fill="black"/>
<path d="M226.3 65.8L224 72.1999L222.3 71.1999L220 62.2L221.7 63.0999L223.1 69.1999L224.6 64.8L226.3 65.8Z" fill="black"/>
<path d="M218.7 61.3999V62.7999L217.8 62.1999L217.7 67.1999L218.7 67.7999V69.0999L215.1 66.9999V65.6999L216.1 66.1999V61.1999L215.1 60.6999V59.3999L218.7 61.3999Z" fill="black"/>
<path d="M213.1 58.1999V65.8999L211.5 64.9999L211.6 59.5999L209 63.4999L207.4 62.5999V54.8999L208.9 55.7999V60.1999L211 56.9999L213.1 58.1999Z" fill="black"/>
<path d="M198.6 49.7C199.6 50.3 200.4 51.1 201 52.2C201.6 53.3 201.9 54.3999 201.9 55.5999C201.9 56.8999 201.6 57.7 201 58C200.4 58.4 199.6 58.2 198.6 57.7C198.3 57.5 198 57.3 197.8 57.2C197.6 57.1 197.4 56.9 197.2 56.7C197 56.5 196.9 56.4 196.7 56.2C196.5 56 196.4 55.9 196.3 55.7V53.9L196.5 54C196.6 54.1 196.7 54.3 196.8 54.5C196.9 54.7 197 54.8999 197.2 55.0999C197.3 55.2999 197.5 55.5 197.7 55.7C197.9 55.9 198.1 56.1 198.3 56.2C198.5 56.3 198.7 56.4 198.9 56.4C199.1 56.4 199.3 56.3999 199.5 56.2999C199.7 56.1999 199.8 55.9999 199.9 55.7999C200 55.4999 200.1 55.2 200.1 54.7C200.1 54.2 200.1 53.8 199.9 53.4C199.8 53 199.7 52.7 199.5 52.4C199.3 52.1 199.1 51.7999 198.9 51.5999C198.7 51.3999 198.5 51.1999 198.2 51.0999C198 50.9999 197.8 50.9 197.6 50.9C197.4 50.9 197.2 50.9 197.1 50.9C196.9 50.9 196.8 51 196.7 51C196.6 51 196.5 51.0999 196.4 51.0999L196.2 51V49.2C196.3 49.2 196.5 49.2 196.6 49.2C196.8 49.2 196.9 49.1999 197.1 49.2999C197.3 49.3999 197.5 49.4 197.7 49.5C198.1 49.4 198.3 49.5 198.6 49.7Z" fill="black"/>
<path d="M192.8 46.5L194.4 47.5V55.0999L192.8 54.2V50.7999L190.5 49.4V52.7999L188.8 51.9V44.2L190.5 45.2V48L192.8 49.2999V46.5Z" fill="black"/>
<path d="M184.8 46.5999L184.1 43.6999L183.4 45.7999L184.8 46.5999ZM183.1 40.8999L185 41.9999L187.2 50.9999L185.5 49.9999L185.1 48.1999L183 46.9999L182.6 48.2999L180.9 47.2999L183.1 40.8999Z" fill="black"/>
<path d="M177.7 37.7999L179.4 38.7999V43.6999C179.4 44.6999 179.2 45.2999 178.7 45.4999C178.2 45.6999 177.5 45.5999 176.6 45.0999C175.7 44.5999 175 43.8999 174.5 43.0999C174 42.2999 173.8 41.4999 173.8 40.4999V35.5999L175.5 36.5999V41.3999C175.5 41.9999 175.6 42.3999 175.8 42.7999C176 43.1999 176.3 43.3999 176.6 43.6999C177 43.8999 177.3 43.9999 177.5 43.7999C177.7 43.5999 177.8 43.2999 177.8 42.7999L177.7 37.7999Z" fill="black"/>
<path d="M169.9 39.6V34.8C169.6 34.6 169.3 34.4 169 34.3C168.8 34.2 168.5 34.1 168.3 34.1C168 34.1 167.8 34.3 167.6 34.5C167.5 34.8 167.4 35.2 167.4 35.7C167.4 36.2 167.5 36.7 167.6 37.1C167.7 37.5 167.9 37.9 168.2 38.3C168.4 38.6 168.7 38.8 168.9 39C169.2 39.1 169.5 39.3 169.9 39.6ZM169.5 33.1L171.6 34.3V42L169.5 40.8C169 40.5 168.6 40.2 168.2 39.9C167.8 39.6 167.4 39.2 167.1 38.8C166.7 38.3 166.3 37.6 166.1 36.9C165.8 36.2 165.7 35.5 165.7 34.7C165.7 34 165.8 33.4 166.1 33C166.4 32.6 166.7 32.4 167.1 32.3C167.5 32.2 167.8 32.3 168.3 32.5C168.6 32.6 169.1 32.8 169.5 33.1Z" fill="black"/>
</g>
<defs>
<clipPath id="clip0">
<rect width="274.3" height="249.8" fill="white" transform="matrix(-1 0 0 1 274.3 0)"/>
</clipPath>
</defs>
</svg>
