<svg width="242" height="206" viewBox="0 0 242 206" fill="none" xmlns="http://www.w3.org/2000/svg">
<g clip-path="url(#clip0)">
<g opacity="0.2">
<path opacity="0.2" d="M27.9999 104.8C14.5999 112.5 14.5999 125 27.7999 132.8L142.1 199.4C155.4 207.1 177 207.1 190.4 199.4L219.8 182.4C233.2 174.7 233.2 162.2 220 154.4L105.6 87.7999C92.2999 80.0999 70.6999 80.0999 57.2999 87.7999L27.9999 104.8Z" fill="black"/>
</g>
<path d="M214.5 141.8C214.3 141.6 88.2 68.7 81.5 64.9C80.9 64.6 80.4 64.6 80.1 64.8C78.2 65.9 76.2 67 74.3 68.2C74.7 68 75.2 68 75.7 68.3C82.3 72.1 208.4 145 208.7 145.2C212.6 147.4 220.8 151.2 226.2 148.1C228.1 147 230.1 145.9 232 144.7C226.7 147.8 218.5 144 214.5 141.8Z" fill="#111111"/>
<path d="M214.4 113.3C215 112.1 215.8 111.1 216.7 110.6L210.9 114C202.7 118.8 213.6 137.8 219.8 134.2C221.7 133.1 223.7 131.6 225.6 130.5C220.4 133.5 211.3 120.3 214.4 113.3Z" fill="#111111"/>
<path d="M225.2 116.8C224.2 116.2 224.5 116.3 218.1 120C219.7 119.1 223 123.5 224.1 128.4C225 132.5 225.8 136.4 222.5 138.3C228.8 134.7 229.5 134.6 230.5 132.4C232.9 127 227.6 118.2 225.2 116.8Z" fill="white" stroke="#0A0A0A" stroke-miterlimit="10"/>
<path d="M224.4 107C220.5 104.8 216.8 104.4 214.1 106L208.3 109.4C217.5 104.1 232.8 120.6 234.5 137.1C235.2 144.2 233.3 150.1 228.9 152.7C235 149.2 238.1 148.2 239.9 142C243.3 130.2 234.5 112.8 224.4 107Z" fill="white" stroke="#0A0A0A" stroke-miterlimit="10"/>
<path d="M218.6 110.4C238 121.6 242.5 160.3 217.4 153.3C211.3 151.6 219.2 155.7 75.7 72.9C74.6 72.3 73.7 70.7 73.7 69.5C73.7 68.2 74.6 67.7 75.7 68.4C82.3 72.2 208.4 145.1 208.7 145.3C213.8 148.2 226.1 153.7 230.2 143.2C233.7 134.1 226.7 119.5 218.6 114.8C214.4 112.3 210.3 112.9 208.6 116.8C206 122.7 212.3 133.9 217.8 134.4C222.4 134.8 222.6 128.3 218.6 124.1C216.7 122.1 217.3 119.2 219.3 120.4C221.8 121.8 227 130.5 224.6 136.1C223.6 138.4 221.7 139.5 219.3 139.3C210.7 138.5 201.3 122.1 205.1 113.3C207.4 107.9 212.9 107.1 218.6 110.4Z" fill="white" stroke="#0A0A0A" stroke-miterlimit="10"/>
<path d="M161 106.5C161 106.5 186.2 120.2 195.9 119.5C199.1 119.3 217.5 118.3 208.7 92.9999C207.6 89.7999 202.3 88.2999 204.5 95.1999C206 100.2 210.3 115.2 197.6 116.3C189 117 183.7 111.5 167.5 102L160.6 104L161 106.5Z" fill="white" stroke="#0A0A0A" stroke-miterlimit="10"/>
<path opacity="0.27" d="M210.6 100.1C212.3 116.5 198.3 117.2 195.6 117.4C186 118.1 160.7 104.4 160.7 104.4L160.6 104L161 106.6C161 106.6 186.2 120.3 195.8 119.6C198.7 119.3 213.9 118.5 210.6 100.1Z" fill="#221F20"/>
<path d="M187.7 119.7L133.9 160.8L114.8 162.4L14 104.5C0.299995 97.1 -5.2 75.5 13.8 64.5C32.8 53.5 67.8 50.7 87 61.7L187.7 119.7Z" fill="#111111"/>
<path d="M106.4 157.5C106.4 157.5 136 172.5 132.5 139.9L208.5 96.2C208.5 96.2 216.6 117.1 204.7 126C192.2 135.4 158.3 157.8 130.6 169.2C126.6 170.9 112.5 162.1 106.4 157.5Z" fill="#AEC6F7" stroke="#111111" stroke-miterlimit="10"/>
<path d="M133.1 139.4L132.4 139.8C135.9 172.5 106.3 157.4 106.3 157.4C112.2 161.9 125.7 170.3 130.2 169.3C133.7 167.2 138 160.6 133.1 139.4Z" fill="#AEC6F7" stroke="#111111" stroke-miterlimit="10"/>
<path d="M96.6999 23.5C75.9999 11.6 42.4999 11.6 21.8999 23.5C11.6999 29.5 6.5999 37.2 6.4999 45C6.4999 59.7 6.3999 74.4 6.3999 89.1C6.3999 81.3 11.4999 73.4999 21.6999 67.5999C42.2999 55.6999 75.7999 55.6999 96.4999 67.5999L163.2 106L169 95.1L155.9 69.3L96.6999 23.5Z" fill="#AEC6F7" stroke="#111111" stroke-miterlimit="10"/>
<path d="M78.6999 57.6L100.3 45.1L79.8 33.3L58.2 45.8L78.6999 57.6Z" fill="white" stroke="#0A0A0A" stroke-miterlimit="10"/>
<path d="M100.3 45.1001V66.2001L78.7 78.7001V57.6001L100.3 45.1001Z" fill="#AEC6F7" stroke="#111111" stroke-miterlimit="10"/>
<path d="M79.7 33.1L79.8 33L100.5 45V66.4L78.7 79L58.1 67.1L58 67V45.6L79.7 33.1ZM79 78.3L100.1 66.1V45.5L84.2 54.7L79 57.7V78.3ZM99.9 45.1L79.8 33.5L58.6 45.8L78.7 57.4L99.9 45.1Z" fill="#15110E"/>
<path d="M68.2999 51.5001L89.7999 38.9001L89.4999 38.6001L67.8999 51.2001L68.2999 51.5001Z" fill="#15110E"/>
<path d="M67.8999 72.5999L68.3999 72.8V51.4L67.8999 51.2V72.5999Z" fill="#AEC6F7"/>
<path d="M89.5999 72.2999H89.9999V51.2999L89.8999 51.1999L69.0999 39.3999L68.8999 39.7999L89.5999 51.4999V72.2999Z" fill="#15110E"/>
<path d="M63.3001 41.4999C63.8001 39.8999 64.7001 38.7999 66.0001 38.4999C69.8001 37.4999 75.9001 42.2999 78.1001 44.0999C77.8001 43.0999 77.5001 41.3999 77.8001 38.5999C78.1001 35.4999 80.8001 33.1999 83.1001 32.7999C84.9001 32.4999 86.4001 33.1999 87.2001 34.8999C89.1001 38.8999 80.8001 43.9999 79.1001 44.9999C79.6001 45.7999 80.3001 45.6999 81.1001 45.5999C81.7001 45.4999 82.4001 45.3999 83.1001 45.7999C84.5001 46.6999 85.0001 48.2999 85.0001 48.3999L84.6001 48.4999C84.6001 48.4999 84.2001 46.8999 82.9001 46.0999C82.4001 45.7999 81.8001 45.8999 81.2001 45.8999C80.4001 45.9999 79.5001 46.0999 78.8001 45.0999H78.7001C78.5001 45.0999 78.3001 45.1999 77.9001 45.2999C77.3001 45.4999 76.7001 45.8999 76.5001 46.7999C76.3001 47.6999 75.7001 48.4999 74.9001 48.7999C74.5001 48.9999 74.1001 49.0999 73.7001 49.0999C73.2001 49.0999 72.8001 48.9999 72.3001 48.7999L72.5001 48.3999C73.2001 48.7999 74.0001 48.7999 74.7001 48.4999C75.4001 48.1999 75.9001 47.5999 76.0001 46.7999C76.1001 46.2999 76.3001 45.8999 76.6001 45.5999C74.8001 45.9999 72.0001 46.3999 69.5001 46.3999C67.1001 46.3999 64.9001 45.9999 63.8001 44.8999C63.1001 44.0999 62.9001 42.9999 63.3001 41.4999ZM86.9001 35.0999C86.3001 33.8999 85.3001 33.1999 84.0001 33.1999C83.8001 33.1999 83.5001 33.1999 83.3001 33.2999C81.1001 33.6999 78.7001 35.7999 78.4001 38.6999C78.0001 42.5999 78.7001 44.2999 78.9001 44.7999C80.2001 43.8999 88.6001 38.7999 86.9001 35.0999ZM64.2001 44.5999C66.6001 47.0999 75.1001 45.5999 77.8001 44.9999C78.0001 44.8999 78.1001 44.8999 78.3001 44.8999C76.8001 43.4999 70.1001 37.8999 66.2001 38.9999C65.0001 39.2999 64.2001 40.1999 63.8001 41.6999C63.4001 42.8999 63.5001 43.8999 64.2001 44.5999Z" fill="#15110E"/>
<path d="M88.0999 64.4998V58.9998L95.7999 54.4998V59.9998C95.7999 59.9998 95.6999 62.6998 96.8999 63.3998C98.0999 64.0998 98.0999 63.9998 98.0999 63.9998L90.3999 68.4998C90.3999 68.4998 90.3999 68.4998 89.1999 67.8998C87.9999 67.2998 88.0999 64.4998 88.0999 64.4998Z" fill="#AEC6F7" stroke="#111111" stroke-miterlimit="10"/>
<path d="M87.0999 66.1997V60.6997L94.7999 56.1997V61.6997C94.7999 61.6997 94.6999 64.3997 95.8999 65.0997C97.0999 65.6997 97.0999 65.6997 97.0999 65.6997L89.3999 70.1997C89.3999 70.1997 89.3999 70.1997 88.1999 69.5997C86.9999 68.8997 87.0999 66.1997 87.0999 66.1997Z" fill="white"/>
<path d="M90.2998 68.7998L98.3998 64.0998L96.9998 63.2998C96.0998 62.7998 95.9998 60.7998 96.0998 60.0998V54.2998L87.9998 58.9998V64.5998C87.9998 64.7998 87.8998 67.4998 89.1998 68.1998L90.2998 68.7998ZM97.5998 64.0998L90.2998 68.2998L89.1998 67.6998C88.2998 67.1998 88.1998 65.1998 88.2998 64.4998V59.1998L95.5998 54.9998V59.9998C95.5998 60.0998 95.4998 62.8998 96.7998 63.5998L97.5998 64.0998Z" fill="#15110E"/>
<path d="M94.2 61C94.3 59.5 92.4 60.2 91.9 61.8C91.4 60.8 89.5 62 89.6 63.6C89.6 64.8 91.7 65.7 91.9 65.8C92.1 65.5 94.2 62.2 94.2 61Z" fill="#AEC6F7"/>
<path d="M92.1 64.7999H92.2L92.3 64.6999C92.7 64.0999 94.6 60.9999 94.6 59.7999C94.6 58.9999 94.2 58.7999 94 58.7999C93.4 58.6999 92.5 59.2999 92.1 60.1999C91.9 59.9999 91.6 59.9999 91.3 60.0999C90.5 60.2999 89.6 61.2999 89.7 62.4999C89.7 63.6999 91.6 64.6999 92.1 64.8999V64.7999ZM94.2 59.6999C94.2 60.5999 92.9 62.9999 92 64.2999C91.2 63.8999 90 63.0999 90 62.2999C90 61.2999 90.8 60.4999 91.3 60.2999C91.6 60.1999 91.8 60.2999 91.9 60.4999L92.1 60.9999L92.3 60.4999C92.6 59.4999 93.5 58.8999 93.9 58.9999C94.2 59.0999 94.2 59.4999 94.2 59.6999Z" fill="#15110E"/>
<path d="M42.3 70.1L15.5 54.6L41 39.8L67.8 55.4001L42.3 70.1Z" fill="white" stroke="#0A0A0A" stroke-miterlimit="10"/>
<path d="M15.5 54.6001V80.8001L42.3 96.4001V70.1001L15.5 54.6001Z" fill="#AEC6F7" stroke="#111111" stroke-miterlimit="10"/>
<path d="M41.0999 39.6L41 39.5L15.2 54.4V81L42.2999 96.7L68 81.9L68.0999 81.8V55.2L41.0999 39.6ZM42 95.9L15.7 80.7V55.1L35.5 66.5L42 70.3V95.9ZM16 54.6L41 40.2L67.3 55.4L42.2999 69.8L16 54.6Z" fill="white" stroke="#0A0A0A" stroke-miterlimit="10"/>
<path d="M55.2999 62.5L28.5999 46.9L28.9999 46.5L55.7999 62.2L55.2999 62.5Z" fill="#15110E"/>
<path d="M55.7999 88.7001L55.2 89.0001V62.4001L55.7999 62.1001V88.7001Z" fill="#AEC6F7"/>
<path d="M28.8 88.4H28.3V62.3L28.4 62.2L54.3 47.5L54.6 48L28.8 62.6V88.4Z" fill="#15110E"/>
<path d="M61.5001 50.0999C60.9001 48.0999 59.8001 46.8 58.1001 46.4C53.4001 45.1 45.8001 51.1 43.1001 53.4C43.5001 52.2 43.8001 50.1 43.4001 46.5C43.0001 42.6 39.7001 39.8 36.8001 39.3C34.5001 38.9 32.7001 39.8 31.7001 41.9C29.3001 46.9 39.7001 53.2 41.8001 54.5C41.2001 55.4 40.4001 55.3999 39.4001 55.2999C38.6001 55.1999 37.8001 55.0999 37.0001 55.5999C35.2001 56.6999 34.6001 58.8 34.6001 58.9L35.1001 59C35.1001 59 35.6001 56.9999 37.3001 56.0999C37.9001 55.6999 38.6001 55.8 39.4001 55.9C40.4001 56 41.5001 56.1 42.4001 54.9H42.5001L42.6001 54.8C42.8001 54.8 43.1001 54.9 43.5001 55C44.2001 55.3 45.0001 55.8 45.2001 56.9C45.5001 58.1 46.2001 59 47.2001 59.4C47.7001 59.6 48.2001 59.7 48.7001 59.7C49.3001 59.7 49.8001 59.5999 50.4001 59.2999L50.0001 58.7999C49.1001 59.1999 48.1001 59.3 47.3001 58.9C46.5001 58.5 45.9001 57.7 45.6001 56.7C45.5001 56.1 45.2001 55.5999 44.8001 55.2999C47.1001 55.6999 50.5001 56.2999 53.6001 56.2999C56.6001 56.2999 59.3001 55.8 60.7001 54.4C61.8001 53.3 62.0001 51.8999 61.5001 50.0999ZM32.2001 42.2C32.9001 40.7 34.2001 39.8 35.9001 39.8C36.2001 39.8 36.5001 39.8 36.8001 39.9C39.5001 40.4 42.5001 42.9999 42.9001 46.5999C43.4001 51.3999 42.6001 53.4999 42.3001 54.0999C40.5001 53.0999 30.0001 46.7 32.2001 42.2ZM60.4001 54C57.4001 57.2 46.9001 55.2 43.5001 54.5C43.3001 54.4 43.1001 54.4 42.9001 54.4C44.8001 52.7 53.1001 45.7 57.9001 47C59.3001 47.4 60.3001 48.5 60.9001 50.4C61.4001 51.9 61.2001 53.1 60.4001 54Z" fill="#15110E"/>
<path d="M117.9 76.9001L139.5 64.4001L118.9 52.6001L97.3999 65.1001L117.9 76.9001Z" fill="white" stroke="#0A0A0A" stroke-miterlimit="10"/>
<path d="M139.5 64.4001V85.5001L117.9 98.0001V76.9001L139.5 64.4001Z" fill="#AEC6F7" stroke="#111111" stroke-miterlimit="10"/>
<path d="M118.8 52.4001L118.9 52.3L139.6 64.3001V85.7L117.8 98.3001L97.3 86.4001L97.2 86.3001V64.9001L118.8 52.4001ZM118.1 97.6L139.2 85.4001V64.8001L123.3 74L118.1 77.1V97.6ZM139 64.4001L118.9 52.8L97.8 65.1L117.9 76.7L139 64.4001Z" fill="#15110E"/>
<path d="M107.5 70.8001L129 58.2001L128.6 57.9001L107 70.5001L107.5 70.8001Z" fill="#15110E"/>
<path d="M107.1 91.9L107.5 92.1V70.7L107.1 70.5V91.9Z" fill="#AEC6F7"/>
<path d="M128.7 91.5999H129.2V70.5999L129.1 70.5L108.2 58.7L108 59.0999L128.7 70.8V91.5999Z" fill="#15110E"/>
<path d="M102.5 60.8C103 59.2 103.9 58.1 105.2 57.8C109 56.8 115.1 61.6 117.3 63.4C117 62.4 116.7 60.7 117 57.9C117.3 54.8 120 52.5 122.3 52.1C124.1 51.8 125.6 52.5 126.4 54.2C128.3 58.2 120 63.3 118.3 64.3C118.8 65.1 119.5 65 120.3 64.9C120.9 64.8 121.6 64.7 122.3 65.1C123.7 66 124.2 67.6 124.2 67.7L123.8 67.8C123.8 67.8 123.4 66.2 122.1 65.4C121.6 65.1 121 65.2 120.4 65.2C119.6 65.3 118.7 65.4 118 64.4H117.9C117.7 64.4 117.5 64.5 117.1 64.6C116.5 64.8 115.9 65.2 115.7 66.1C115.5 67 114.9 67.8 114.1 68.1C113.7 68.3 113.3 68.4 112.9 68.4C112.4 68.4 112 68.3 111.5 68.1L111.7 67.7C112.4 68.1 113.2 68.1 113.9 67.8C114.6 67.5 115.1 66.9 115.2 66.1C115.3 65.6 115.5 65.2 115.8 64.9C114 65.3 111.2 65.7 108.7 65.7C106.3 65.7 104.1 65.3 103 64.2C102.2 63.4 102.1 62.3 102.5 60.8ZM126 54.4C125.4 53.2 124.4 52.5 123.1 52.5C122.9 52.5 122.6 52.5 122.4 52.6C120.2 53 117.8 55.1 117.5 58C117.1 61.9 117.8 63.6 118 64.1C119.3 63.2 127.8 58.1 126 54.4ZM103.4 63.9C105.8 66.4 114.3 64.9 117 64.3C117.2 64.2 117.3 64.2 117.5 64.2C116 62.8 109.3 57.2 105.4 58.3C104.2 58.6 103.4 59.5 103 61C102.5 62.2 102.7 63.2 103.4 63.9Z" fill="#15110E"/>
<path d="M127.3 83.7998V78.2998L135 73.7998V79.2998C135 79.2998 134.9 81.9998 136.1 82.6998C137.3 83.2998 137.3 83.2998 137.3 83.2998L129.6 87.7998C129.6 87.7998 129.6 87.7998 128.4 87.1998C127.1 86.5998 127.3 83.7998 127.3 83.7998Z" fill="#AEC6F7" stroke="#111111" stroke-miterlimit="10"/>
<path d="M126.3 85.4998V79.9998L134 75.4998V80.9998C134 80.9998 133.9 83.6998 135.1 84.3998C136.3 85.0998 136.3 84.9998 136.3 84.9998L128.6 89.4998C128.6 89.4998 128.6 89.4998 127.4 88.8998C126.2 88.1998 126.3 85.4998 126.3 85.4998Z" fill="white"/>
<path d="M129.5 88.0999L137.6 83.3999L136.1 82.5999C135.2 82.0999 135.1 80.0999 135.2 79.3999V73.5999L127.1 78.2999V83.8999C127.1 84.0999 127 86.7999 128.3 87.4999L129.5 88.0999ZM136.8 83.3999L129.5 87.5999L128.4 86.9999C127.5 86.4999 127.4 84.4999 127.5 83.7999V78.4999L134.8 74.2999V79.3999C134.8 79.4999 134.7 82.2999 136 82.9999L136.8 83.3999Z" fill="#15110E"/>
<path d="M133.3 80.2998C133.4 78.7998 131.5 79.4998 131 81.0998C130.5 80.0998 128.6 81.2998 128.7 82.8998C128.7 84.0998 130.8 84.9998 131 85.0998C131.3 84.7998 133.3 81.4998 133.3 80.2998Z" fill="#AEC6F7"/>
<path d="M131.2 84.0997H131.3L131.4 83.9997C131.8 83.3997 133.7 80.2997 133.7 79.0997C133.7 78.2997 133.3 78.0997 133.1 78.0997C132.5 77.9997 131.6 78.5997 131.2 79.4997C131 79.2997 130.7 79.2997 130.4 79.3997C129.6 79.5997 128.7 80.5997 128.8 81.7997C128.8 82.9997 130.7 83.9997 131.2 84.1997V84.0997ZM133.3 78.9997C133.3 79.8997 132 82.2997 131.1 83.5997C130.3 83.1997 129.1 82.3997 129.1 81.5997C129.1 80.5997 129.9 79.7997 130.4 79.5997C130.7 79.4997 130.9 79.5997 131 79.7997L131.2 80.2997L131.4 79.7997C131.7 78.7997 132.6 78.1997 133 78.2997C133.3 78.3997 133.4 78.7997 133.3 78.9997Z" fill="#15110E"/>
<path d="M81.4999 89.4001L54.5999 73.9001L80.1999 59.1001L107 74.7001L81.4999 89.4001Z" fill="white" stroke="#0A0A0A" stroke-miterlimit="10"/>
<path d="M54.5999 73.9001V100.1L81.4999 115.7V89.4001L54.5999 73.9001Z" fill="#AEC6F7" stroke="#111111" stroke-miterlimit="10"/>
<path d="M80.2999 58.9001L80.1999 58.8L54.3999 73.7V100.3L81.4999 116L107.2 101.2L107.3 101.1V74.5L80.2999 58.9001ZM81.1999 115.2L54.8999 100V74.4001L74.6999 85.8001L81.1999 89.6V115.2ZM55.1999 73.9001L80.1999 59.5L106.5 74.7L81.4999 89.1L55.1999 73.9001Z" fill="white" stroke="#0A0A0A" stroke-miterlimit="10"/>
<path d="M94.4 81.8L67.7 66.2L68.1 65.8L95 81.5L94.4 81.8Z" fill="#15110E"/>
<path d="M94.8999 108L94.3999 108.3V81.7001L94.8999 81.4001V108Z" fill="#AEC6F7"/>
<path d="M67.9999 107.7H67.3999V81.6L67.5999 81.5L93.4999 66.8L93.6999 67.3L67.9999 81.9V107.7Z" fill="#15110E"/>
<path d="M100.6 69.4C99.9999 67.4 98.8999 66.1 97.1999 65.7C92.4999 64.4 84.8999 70.4 82.1999 72.7C82.5999 71.5 82.8999 69.4 82.4999 65.8C82.0999 61.9 78.7999 59.1 75.8999 58.6C73.5999 58.2 71.7999 59.1 70.7999 61.2C68.3999 66.2 78.7999 72.5 80.8999 73.8C80.2999 74.7 79.4999 74.7 78.4999 74.6C77.6999 74.5 76.8999 74.4 76.0999 74.9C74.2999 76 73.6999 78.1 73.6999 78.2L74.1999 78.3C74.1999 78.3 74.6999 76.3 76.3999 75.4C76.9999 75 77.6999 75.1 78.4999 75.2C79.4999 75.3 80.5999 75.4 81.4999 74.2H81.5999L81.6999 74.1C81.8999 74.1 82.1999 74.2 82.5999 74.3C83.2999 74.6 84.0999 75.1 84.2999 76.2C84.5999 77.4 85.2999 78.3 86.2999 78.7C86.7999 78.9 87.2999 79 87.7999 79C88.3999 79 88.8999 78.9 89.4999 78.6L89.2999 78.1C88.3999 78.5 87.3999 78.6 86.5999 78.2C85.5999 77.8 84.9999 77 84.7999 76C84.6999 75.4 84.3999 74.9 83.9999 74.6C86.2999 75 89.6999 75.6 92.7999 75.6C95.7999 75.6 98.4999 75.1 99.8999 73.7C100.9 72.6 101.2 71.2 100.6 69.4ZM71.2999 61.5C71.9999 60 73.2999 59.1 74.9999 59.1C75.2999 59.1 75.5999 59.1 75.8999 59.2C78.5999 59.7 81.5999 62.3 81.9999 65.9C82.4999 70.7 81.6999 72.8 81.3999 73.4C79.6999 72.4 69.0999 66 71.2999 61.5ZM99.4999 73.3C96.4999 76.5 85.9999 74.5 82.5999 73.8C82.3999 73.7 82.1999 73.7 81.9999 73.7C83.8999 72 92.1999 65 96.9999 66.3C98.3999 66.7 99.3999 67.8 99.9999 69.7C100.6 71.2 100.4 72.4 99.4999 73.3Z" fill="#15110E"/>
<path d="M85.0999 151.1C85.0999 151.1 110.3 164.8 119.9 164.1C123.1 163.9 141.5 162.9 132.7 137.6C131.6 134.4 126.3 132.9 128.5 139.8C130 144.8 134.3 159.8 121.6 160.9C113 161.6 106 157.5 89.7999 148L84.5999 148.6L85.0999 151.1Z" fill="white" stroke="#0A0A0A" stroke-miterlimit="10"/>
<path opacity="0.27" d="M134.7 144.6C136.4 161 122.4 161.7 119.7 161.9C110.1 162.6 84.8998 148.9 84.8998 148.9L84.7998 148.5L85.1998 151.1C85.1998 151.1 110.4 164.8 120 164.1C122.8 163.9 138 163.1 134.7 144.6Z" fill="#221F20"/>
<path d="M171.8 87.8C169.8 84.7 161.9 87.8999 163.1 71.1999C163.2 69.7999 162.1 68.6 160.7 67.4L141.8 53.5C128.9 43.8 112.2 31.3 102.4 24.2C102.9 25.8 103.1 27.3 102.8 28.6C120.4 41.6 151.2 65.7 155.4 69C156.6 70.6 157.7 73.1 157.9 76.5C158.3 82.6 162.1 89.8999 166.4 91.0999C170.5 92.2999 163.2 105.8 163.2 105.8L168.9 102.7C167.3 96.5 173.6 90.7 171.8 87.8Z" fill="white" stroke="#0A0A0A" stroke-miterlimit="10"/>
<path d="M141.2 190.7C141 190.5 14.9 117.6 8.2 113.8C7.6 113.5 7.1 113.4 6.8 113.7C4.9 114.8 2.9 115.9 1 117.1C1.4 116.9 1.9 116.9 2.4 117.2C9 121 135.1 193.9 135.4 194.1C139.3 196.3 147.5 200.1 152.9 197C154.8 195.9 156.8 194.8 158.7 193.6C153.4 196.7 145.2 192.9 141.2 190.7Z" fill="#111111"/>
<path d="M141.1 162.1C141.7 160.9 142.5 160 143.4 159.4L137.6 162.8C129.4 167.6 140.3 186.6 146.5 183C148.4 181.9 150.4 180.4 152.3 179.3C147.1 182.3 138 169.1 141.1 162.1Z" fill="#111111"/>
<path d="M151.9 165.7C150.9 165.1 151.2 165.2 144.8 168.9C146.4 168 149.7 172.4 150.8 177.3C151.7 181.4 152.5 185.3 149.2 187.2C155.5 183.6 156.2 183.5 157.1 181.3C159.6 175.9 154.3 167.1 151.9 165.7Z" fill="#111111"/>
<path d="M151.1 155.9C147.2 153.7 143.5 153.3 140.8 154.9L135 158.3C144.2 153 159.5 169.5 161.2 186C161.9 193.1 160 199.1 155.7 201.6C161.8 198.1 164.9 197.1 166.7 190.9C170 179.1 161.2 161.7 151.1 155.9Z" fill="white" stroke="#0A0A0A" stroke-miterlimit="10"/>
<path d="M145.3 159.2C164.7 170.4 169.2 209.1 144.1 202.1C138 200.4 145.9 204.5 2.3999 121.7C1.2999 121.1 0.399902 119.5 0.399902 118.3C0.399902 117 1.2999 116.5 2.3999 117.2C8.9999 121 135.1 193.9 135.4 194.1C140.5 197 152.8 202.5 156.9 192C160.4 182.9 153.4 168.3 145.3 163.6C141.1 161.1 137 161.7 135.3 165.6C132.7 171.5 139 182.7 144.5 183.2C149.1 183.6 149.3 177.1 145.3 172.9C143.4 170.9 144 168 146 169.2C148.5 170.6 153.7 179.3 151.3 184.9C150.3 187.2 148.4 188.3 146 188.1C137.4 187.3 128 170.9 131.8 162.1C134.1 156.7 139.6 155.9 145.3 159.2Z" fill="white" stroke="#0A0A0A" stroke-miterlimit="10"/>
<path d="M24.5999 128.4L28.0999 126.4V118.7L24.5999 116.8V128.4Z" fill="#111111"/>
<path d="M18.0998 113.1C14.8998 111.2 12.0998 109.2 9.7998 107.1V119.8L24.5998 128.4V116.8L18.0998 113.1Z" fill="#AEC6F7" stroke="#111111" stroke-miterlimit="10"/>
<path d="M76.2998 158.1L79.6998 156.1L79.7998 148L76.2998 146.1V158.1Z" fill="#111111"/>
<path d="M61.4998 137.7V149.6L76.2998 158.1V146.1L61.4998 137.7Z" fill="#AEC6F7" stroke="#111111" stroke-miterlimit="10"/>
<path d="M208.6 95.3999C209.1 95.0999 209.6 95.2999 209.6 95.9999C209.6 96.4999 209.4 99.0999 209 97.8999C208.9 97.5999 208.8 97.5999 208.6 97.6999L131.6 142.1C131.1 142.4 130.6 142.2 130.6 141.5C130.6 140.9 131 140.1 131.6 139.8L208.6 95.3999Z" fill="white" stroke="#0A0A0A" stroke-miterlimit="10"/>
<path d="M18.2999 69.1C6.7999 62.4 0.999902 53.7 0.999902 45C0.999902 59.7 0.899902 74.4 0.899902 89C0.899902 97.7 6.5999 106.4 18.0999 113.1L85.0999 151.1L90.2999 139.7L84.8999 127.5L82.5999 117.4L18.2999 69.1Z" fill="#AEC6F7" stroke="#111111" stroke-miterlimit="10"/>
<path d="M92.8999 133.3C90.8999 130.2 82.9999 133.4 84.1999 116.7C84.2999 115.3 83.1999 114.1 81.7999 112.9L22.0999 66.9C3.19994 56 2.09994 38.8 17.5999 26.8C17.3999 25.7 16.7999 24.4 16.4999 23.6C16.3999 23.3 16.0999 22.1 16.0999 22C-4.60006 35.3 -3.90006 56.3 18.1999 69.1L75.5999 113.5C77.0999 115.1 78.5999 117.7 78.8999 122C79.2999 128.1 83.0999 135.4 87.3999 136.6C91.4999 137.8 85.0999 151 85.0999 151L89.9999 148.2C88.3999 141.9 94.7999 136.1 92.8999 133.3Z" fill="white" stroke="#0A0A0A" stroke-miterlimit="10"/>
<path d="M62.3999 63.5002V73.2002L80.9999 84.0002V74.2002L62.3999 63.5002Z" fill="#AEC6F7" stroke="#111111" stroke-miterlimit="10"/>
<path d="M94.8999 66.1001L80.9999 74.2001L62.3999 63.5001L76.2999 55.4001L94.8999 66.1001Z" fill="#AEC6F7" stroke="#111111" stroke-miterlimit="10"/>
<path d="M94.8999 69.4002L80.9999 77.6002L62.3999 66.9002L76.2999 58.7002L94.8999 69.4002Z" fill="white"/>
<path d="M76.3 54.9001L62 63.3001V73.5001L81 84.5001L95.3 76.0001V65.9001L76.3 54.9001ZM80.6 83.3001L62.7 73.0001V64.2001L80.5 74.5001V83.3001H80.6ZM63.1 63.5001L76.3 55.8001L94.1 66.1001L81 73.8001L63.1 63.5001Z" fill="#15110E"/>
<path d="M80.9999 84V89.3L63.3999 79.1V73.8L80.9999 84Z" fill="#AEC6F7" stroke="#111111" stroke-miterlimit="10"/>
<path d="M81 83.5001L63 73.1001V79.3001L81 89.7001L93.5 82.4001V76.1001L81 83.5001ZM63.8 78.9001V74.5001L80.6 84.2001L80.7 88.6001L63.8 78.9001Z" fill="#15110E"/>
<path d="M80.8 84.1001V83.2001L93.4 75.9001V76.8001L80.8 84.1001Z" fill="#AEC6F7"/>
<path d="M86.1001 70.8002L68.1001 60.4002L68.5001 59.7002L86.9001 70.4002L86.1001 70.8002Z" fill="#15110E"/>
<path d="M85.6 87.1001L84.8 87.6001L86.2 80.2001L86.1 70.8001L86.9 70.4001V80.2001L85.6 87.1001Z" fill="#AEC6F7"/>
<path d="M86.4999 64.1001C86.2999 63.6001 85.8999 63.0001 84.7999 62.8001C83.3999 62.5001 81.9999 64.0001 81.0999 65.2001C81.0999 64.8001 81.0999 64.5001 81.0999 64.1001C80.9999 63.0001 79.3999 61.2001 78.0999 61.1001C77.6999 61.0001 76.8999 61.1001 76.4999 62.3001C75.6999 64.6001 78.9999 66.5001 80.0999 67.1001H79.9999L80.4999 67.2001L80.8999 67.4001V67.3001C81.3999 67.3001 82.1999 67.4001 82.9999 67.4001C84.1999 67.4001 85.3999 67.3001 85.7999 66.8001C86.3999 66.2001 86.7999 65.0001 86.4999 64.1001ZM77.1999 62.4001C77.3999 61.8001 77.6999 61.7001 77.8999 61.7001H77.9999C78.9999 61.8001 80.2999 63.3001 80.2999 64.0001C80.3999 64.8001 80.2999 65.6001 80.1999 66.2001C78.9999 65.5001 76.6999 63.9001 77.1999 62.4001ZM85.2999 66.2001C84.8999 66.6001 82.9999 66.6001 81.1999 66.5001C81.8999 65.3001 83.3999 63.3001 84.6999 63.5001C85.2999 63.6001 85.6999 63.9001 85.7999 64.3001C85.9999 65.0001 85.6999 65.8001 85.2999 66.2001Z" fill="#15110E"/>
<path d="M81.8 69.9003C81.5 69.9003 81.2 69.8003 80.8 69.7003C79.8 69.2003 80.1 68.4003 80.3 67.9003C80.4 67.7003 80.5 67.4003 80.4 67.3003C80.4 67.2003 80.2 67.2003 80.1 67.1003C79.4 66.9003 78.8 66.9003 78.3 67.1003C77.6 67.5003 77.4 68.3003 77.4 68.3003L76.7 68.1003C76.7 68.1003 77 66.9003 78 66.4003C78.7 66.0003 79.5 66.0003 80.4 66.3003C80.8 66.4003 81.1 66.6003 81.2 66.9003C81.4 67.3003 81.3 67.7003 81.1 68.1003C80.9 68.7003 80.9 68.8003 81.2 68.9003C82.3 69.4003 83 68.5003 83.1 68.4003L83.7 68.9003C83.3 69.4003 82.6 69.9003 81.8 69.9003Z" fill="#15110E"/>
<path d="M83.9001 54.6C83.9001 54.6 84.0001 57 81.4001 57.3C79.5001 57.5 78.2001 57.9 77.9001 58C77.8001 58 77.5001 57.8 77.5001 57.8L77.4001 56.6C77.4001 56.6 79.2001 55.8 79.3001 55.8C79.4001 55.8 80.8001 55.9 81.5001 55.5C82.1001 55.1 81.9001 54.5 81.7001 54C81.4001 53.5 81.9001 53.3 81.9001 53.3L83.7001 54.2001L83.8001 54.3C83.8001 54.3 83.9001 54.4 83.9001 54.6Z" fill="#AEC6F7"/>
<path d="M78.0002 58.3C77.9002 58.3 77.8002 58.3001 77.8002 58.2001C77.7002 58.2001 77.4002 58 77.3002 57.8V57.7001L77.2002 56.2001L77.4002 56.1C79.2002 55.3 79.3002 55.3 79.4002 55.3H79.5002C80.8002 55.4 81.3002 55.2 81.4002 55.1C81.7002 54.9 81.8002 54.7 81.5002 54C81.3002 53.7 81.4002 53.4 81.4002 53.3C81.5002 53 81.8002 52.9001 81.8002 52.9001L81.9002 52.8L83.9002 53.8L84.0002 53.9001C84.2002 54.1001 84.3002 54.3 84.3002 54.5C84.3002 54.5 84.4002 57.2 81.5002 57.5C79.6002 57.7 78.4002 58.1001 78.1002 58.2001C78.1002 58.3001 78.0002 58.3 78.0002 58.3ZM77.9002 57.6C77.9002 57.6 78.0002 57.6001 78.0002 57.7001C78.4002 57.5001 79.7002 57.2 81.5002 57C83.6002 56.8 83.7002 54.9001 83.7002 54.7001C83.7002 54.6001 83.6002 54.5001 83.5002 54.4001L82.0002 53.6C82.0002 53.6 82.0002 53.7 82.0002 53.8C82.2002 54.1 82.7002 55.1001 81.7002 55.7001C81.3002 56.0001 80.5002 56.1 79.4002 56C79.2002 56.1 78.5002 56.4001 77.8002 56.7001L77.9002 57.6Z" fill="#15110E"/>
<path d="M83.9002 54.3001C83.0002 52.7001 79.1002 56.1001 78.5002 57.6001C78.3002 57.9001 77.8002 58.1001 77.4002 57.9001L76.7002 57.6001C76.7002 57.6001 77.2002 53.2001 80.3002 52.5001C82.7002 52.0001 83.9002 54.3001 83.9002 54.3001Z" fill="white"/>
<path d="M77.8001 58.3001C77.6001 58.3001 77.5001 58.3001 77.3001 58.2001L76.4001 57.8001V57.6001C76.4001 57.4001 76.9001 53.0001 80.2001 52.3001C82.7001 51.7001 84.0001 54.1001 84.1001 54.3001L83.5001 54.6001C83.4001 54.5001 83.3001 54.3001 83.0001 54.3001C81.7001 54.4001 79.2001 56.7001 78.7001 57.8001C78.6001 58.1001 78.2001 58.3001 77.8001 58.3001ZM77.1001 57.4001L77.5001 57.6001C77.8001 57.7001 78.1001 57.6001 78.1001 57.5001C78.6001 56.2001 81.2001 53.8001 82.8001 53.6001C82.3001 53.1001 81.4001 52.6001 80.3001 52.9001C77.9001 53.4001 77.2001 56.6001 77.1001 57.4001Z" fill="#15110E"/>
<path d="M70.4 54.4001C70.4 54.4001 70.3 56.9001 72.7 57.2001C74.5 57.4001 75.7 57.8001 76 57.9001C76.1 57.9001 76.4 57.7 76.4 57.6L76.5 56.3C76.5 56.3 75 55.8 74.9 55.8C74.8 55.8 73.2 55.6001 72.7 55.2001C72.1 54.8001 72.3 54.2 72.5 53.6C72.8 53 72.3 52.8 72.3 52.8L70.6 53.7001L70.5 53.8C70.5 54.1 70.4 54.3001 70.4 54.4001Z" fill="#AEC6F7"/>
<path d="M76.0001 58.3001H75.9001C75.6001 58.2001 74.5001 57.8001 72.7001 57.6001C70.5001 57.3001 70.0001 55.4001 70.1001 54.5001C70.1001 54.3001 70.2001 54.0001 70.4001 53.8001L70.6001 53.6001L72.4001 52.6001L72.5001 52.7001C72.5001 52.7001 72.8001 52.8001 72.9001 53.1001C73.0001 53.3001 73.0001 53.5001 72.9001 53.8001C72.6001 54.5001 72.7001 54.8001 73.0001 55.0001C73.5001 55.3001 74.9001 55.5001 75.1001 55.5001C75.2001 55.5001 75.2001 55.5001 76.8001 56.1001L77.0001 56.2001L76.9001 57.8001C76.8001 58.0001 76.4001 58.2001 76.4001 58.2001C76.2001 58.3001 76.1001 58.3001 76.0001 58.3001ZM70.7001 54.5001C70.7001 54.7001 70.7001 56.7001 72.8001 56.9001C74.5001 57.1001 75.6001 57.4001 76.1001 57.6001C76.1001 57.6001 76.2001 57.6001 76.2001 57.5001L76.3001 56.6001C75.7001 56.4001 75.1001 56.2001 75.0001 56.2001C75.0001 56.2001 73.3001 56.0001 72.6001 55.6001C71.7001 55.0001 72.2001 53.9001 72.3001 53.6001C72.3001 53.5001 72.4001 53.4001 72.3001 53.4001L70.9001 54.2001C70.8001 54.2001 70.7001 54.4001 70.7001 54.5001Z" fill="#15110E"/>
<path d="M70.3999 54.2C71.2999 52.5 74.8999 56.1 75.4999 57.6C75.6999 58 76.0999 58.1 76.4999 57.9L77.0999 57.6C77.0999 57.6 76.6999 53 73.6999 52.3C71.5999 51.7 70.3999 54.2 70.3999 54.2Z" fill="white"/>
<path d="M76.2 58.3001C76.1 58.3001 76 58.3001 75.8 58.2001C75.5 58.1001 75.3 57.9001 75.2 57.7001C74.7 56.5001 72.4 54.0001 71.2 54.0001C71 54.0001 70.8 54.1001 70.7 54.3001L70.2 54.0001C70.6 53.1001 72 51.4001 73.9 51.9001C77 52.7001 77.5 57.3001 77.5 57.5001V57.7001L76.7 58.1C76.5 58.3 76.4 58.3001 76.2 58.3001ZM71.4 53.4001C73 53.6001 75.4 56.3001 75.9 57.5001C75.9 57.6001 76 57.6001 76.1 57.7001C76.2 57.7001 76.3 57.7001 76.5 57.7001L76.9 57.5001C76.8 56.6001 76.1 53.3001 73.8 52.7001C72.6 52.3001 71.9 52.9001 71.4 53.4001Z" fill="#15110E"/>
<path d="M78.1002 57.7002C78.1002 57.6002 78.1002 57.6002 78.1002 57.5002C78.1002 57.3002 77.9002 56.7002 77.2002 56.7002C76.5002 56.7002 76.3002 57.2002 76.2002 57.4002C76.2002 57.5002 76.2002 57.6002 76.2002 57.6002C76.3002 57.8002 76.5002 58.0002 76.8002 58.0002H77.5002C77.8002 58.1002 78.0002 58.0002 78.1002 57.7002Z" fill="#14100D"/>
<path d="M77.5001 58.5001H76.8001C76.4001 58.5001 76.0001 58.2001 75.9001 57.8001C75.9001 57.6001 75.9001 57.5001 75.9001 57.4001C76.0001 56.8001 76.5001 56.4001 77.2001 56.4001C78.0001 56.4001 78.4001 57.0001 78.4001 57.5001C78.4001 57.6001 78.4001 57.7001 78.4001 57.8001C78.3001 58.2001 77.9001 58.5001 77.5001 58.5001ZM77.2001 57.0001C76.8001 57.0001 76.6001 57.2001 76.5001 57.5001V57.6001C76.5001 57.7001 76.7001 57.8001 76.8001 57.8001H77.5001C77.6001 57.8001 77.8001 57.7001 77.8001 57.6001C77.8001 57.6001 77.8001 57.6001 77.8001 57.5001C77.7001 57.0001 77.3001 57.0001 77.2001 57.0001Z" fill="#15110E"/>
<path d="M14.2 25.6001V50.9001L36 63.4001C36.1 63.4001 36.0999 63.4001 36.0999 63.3001V38.2001L14.2 25.6001Z" fill="#AEC6F7" stroke="#111111" stroke-miterlimit="10"/>
<path d="M36 63.6002H35.9L14 50.9002V25.2002L36.3 38.0002V63.2002C36.3 63.3002 36.3 63.4002 36.2 63.4002C36.1 63.6002 36.1 63.6002 36 63.6002ZM14.4 50.7002L35.9 63.1002V38.3002L14.4 25.9002V50.7002Z" fill="#15110E"/>
<path d="M58.0001 25.6001V50.9001L36.2001 63.4001C36.1001 63.4001 36.1001 63.4001 36.1001 63.3001V38.2001L58.0001 25.6001Z" fill="#14100D"/>
<path d="M36.2 63.6002H36.1C36 63.6002 36 63.5002 36 63.4002V38.1002V38.0002L58.2 25.2002V50.9002L36.3 63.6002H36.2ZM36.3 38.3002V63.1002L57.8 50.7002V25.9002L36.3 38.3002Z" fill="#15110E"/>
<path d="M59.5 22.0001L36.0999 35.5001L12.7 22.0001V21.9001L36.0999 8.40015L59.5 21.9001C59.6 21.9001 59.6 22.0001 59.5 22.0001Z" fill="#AEC6F7" stroke="#111111" stroke-miterlimit="10"/>
<path d="M59.6 24.1001L36.2001 37.6001L12.8 24.0001V23.9001L36.2001 10.4001L59.6 23.9001C59.7 23.9001 59.7 24.0001 59.6 24.1001Z" fill="white"/>
<path d="M36.1 35.7002L12.6 22.2002C12.5 22.2002 12.5 22.1002 12.5 22.0002C12.5 21.9002 12.5 21.8002 12.6 21.8002L36.1 8.2002L36.2 8.3002L59.6 21.8002C59.7 21.8002 59.7 21.9002 59.7 22.0002C59.7 22.1002 59.6 22.2002 59.6 22.2002L36.1 35.7002ZM13 22.0002L36.1 35.4002L59.3 22.0002L36.1 8.6002L13 22.0002Z" fill="#15110E"/>
<path d="M12.5999 22.0002V29.1002L36.0999 42.7002V35.5002L12.5999 22.0002Z" fill="#AEC6F7" stroke="#111111" stroke-miterlimit="10"/>
<path d="M36.2999 43.0003L12.3999 29.3003V22.0003C12.3999 21.9003 12.3999 21.8003 12.4999 21.8003C12.5999 21.8003 12.6999 21.8003 12.6999 21.8003L36.1999 35.4003V43.0003H36.2999ZM12.7999 29.1003L35.8999 42.5003V35.7003L12.7999 22.3003V29.1003Z" fill="#15110E"/>
<path d="M59.5999 22.1002V29.2002L36.0999 42.7002V35.5002L59.4999 22.0002C59.5999 22.0002 59.5999 22.0002 59.5999 22.1002Z" fill="#14100D"/>
<path d="M35.8999 43.0003V35.4003L35.9999 35.3003L59.3999 21.8003C59.4999 21.8003 59.5999 21.8003 59.6999 21.8003C59.7999 21.8003 59.7999 21.9003 59.7999 22.0003V29.2003L59.6999 29.3003L35.8999 43.0003ZM36.2999 35.6003V42.4003L59.3999 29.0003V22.2003L36.2999 35.6003Z" fill="#15110E"/>
<path d="M27.4 30.6L51 17L45.5 13.8L22 27.4L27.4 30.6Z" fill="#AEC6F7" stroke="#111111" stroke-miterlimit="10"/>
<path d="M21.5999 34.4001L27.0999 37.5001V58.2001L21.5999 55.1001" fill="#AEC6F7"/>
<path d="M21.5999 34.4001L27.0999 37.5001V58.2001L21.5999 55.1001" stroke="#111111" stroke-miterlimit="10"/>
<path d="M22.4998 55.8002V35.0002L27.8998 38.2002V58.9002L22.4998 55.8002Z" fill="white"/>
<path d="M22.2 34.4V27.5L27.7 30.7V37.6L22.2 34.4Z" fill="white"/>
<path d="M44.7999 30.7001L21.2 17.1001L26.7 13.9001L50.2 27.5001L44.7999 30.7001Z" fill="#AEC6F7" stroke="#111111" stroke-miterlimit="10"/>
<path d="M13.8999 10.5002C13.8999 10.5002 13.4999 18.3002 21.9999 19.2002C28.1999 19.9002 32.2999 21.1002 33.3999 21.5002C33.5999 21.6002 34.6999 20.9002 34.7999 20.7002L35.1999 16.6002C35.1999 16.6002 29.3999 13.9002 29.0999 13.9002C28.7999 13.9002 24.0999 14.3002 21.9999 13.0002C19.9999 11.7002 20.5999 9.7002 21.3999 8.0002C22.2999 6.2002 20.6999 5.7002 20.6999 5.7002L14.8999 8.6002L14.6999 8.9002C14.2999 9.4002 13.9999 9.9002 13.8999 10.5002Z" fill="#AEC6F7" stroke="#111111" stroke-miterlimit="10"/>
<path d="M16.7 17.1L22 13.1C22 13.1 22 13.1 21.9 13.1C19.9 11.8 20.5 9.80005 21.3 8.10005C22.2 6.30005 20.6 5.80005 20.6 5.80005L14.8 8.70005L14.6 9.00005C14.2 9.50005 13.9 10 13.8 10.6C13.8 10.5 13.6 14.5 16.7 17.1Z" fill="#14100D"/>
<path d="M33.3999 21.7001H33.2999C32.2999 21.3001 28.2999 20.1001 21.9999 19.4001C13.4999 18.5001 13.6999 10.6001 13.6999 10.5001C13.7999 9.9001 14.0999 9.3001 14.4999 8.8001L14.7999 8.5001L20.6999 5.6001H20.7999C20.7999 5.6001 21.4999 5.9001 21.6999 6.5001C21.8999 7.0001 21.7999 7.5001 21.4999 8.2001C20.6999 9.9001 20.0999 11.8001 21.9999 13.0001C22.7999 13.5001 24.5999 14.1001 28.7999 13.9001C28.8999 13.9001 28.9999 13.9001 28.9999 13.9001C29.2999 13.9001 33.3999 15.8001 35.1999 16.6001L35.2999 16.7001L34.8999 21.0001C34.7999 21.2001 33.9999 21.7001 33.6999 21.8001C33.5999 21.6001 33.4999 21.7001 33.3999 21.7001ZM14.0999 10.5001C14.0999 11.0001 13.8999 18.1001 21.9999 19.0001C28.3999 19.7001 32.3999 20.9001 33.3999 21.3001C33.5999 21.3001 34.3999 20.8001 34.5999 20.6001L34.9999 16.7001C32.7999 15.7001 29.3999 14.2001 29.0999 14.1001C29.0999 14.1001 28.9999 14.1001 28.8999 14.1001C24.6999 14.3001 22.7999 13.7001 21.8999 13.2001C19.6999 11.8001 20.3999 9.7001 21.2999 8.0001C21.5999 7.5001 21.5999 7.0001 21.4999 6.6001C21.2999 6.2001 20.9999 6.0001 20.7999 5.9001L14.9999 8.8001L14.7999 9.0001C14.4999 9.4001 14.1999 10.0001 14.0999 10.5001Z" fill="#15110E"/>
<path d="M14.1997 9.60006C17.1997 4.20006 29.7997 15.5001 31.7997 20.3001C32.3997 21.4001 33.9997 21.9001 35.2997 21.3001L37.3997 20.3001C37.3997 20.3001 35.8997 6.10006 25.6997 3.70006C18.0997 2.00006 14.1997 9.60006 14.1997 9.60006Z" fill="#AEC6F7" stroke="#111111" stroke-miterlimit="10"/>
<path d="M25.7999 5.29999C21.5999 4.29999 18.4999 6.19999 16.5999 8.09999C21.2999 7.89999 30.1999 16.3 31.7999 20.2C32.3999 21.3 33.9999 21.8 35.2999 21.2L37.1999 20.3C36.4999 16.5 33.8999 7.09999 25.7999 5.29999Z" fill="white"/>
<path d="M34.0998 21.7C33.0998 21.7 32.0998 21.2 31.6998 20.4C29.9998 16.4 21.5998 8.6 16.9998 8.4C15.7998 8.3 14.9998 8.8 14.3998 9.7L13.9998 9.5C13.9998 9.4 18.0998 1.8 25.7998 3.5C35.9998 5.9 37.5998 20.1 37.5998 20.3V20.4L35.2998 21.4C34.9998 21.7 34.4998 21.7 34.0998 21.7ZM16.6998 8C16.7998 8 16.8998 8 16.8998 8C21.5998 8.2 30.1998 16.2 31.8998 20.2C32.3998 21.2 33.9998 21.7 35.1998 21.1L37.1998 20.2C36.9998 18.8 35.0998 6.1 25.6998 3.9C20.2998 2.7 16.7998 6.2 15.1998 8.3C15.6998 8.1 16.1998 8 16.6998 8Z" fill="#15110E"/>
<path d="M58.3 9.9002C58.3 9.9002 58.7001 18.1002 50.7001 19.0002C44.8001 19.7002 41.0001 20.9002 39.9001 21.4002C39.7001 21.5002 38.7 20.7002 38.6 20.6002L38.3 16.3002C38.3 16.3002 43.1001 14.5002 43.4001 14.5002C43.7001 14.5002 48.8001 13.9002 50.7001 12.5002C52.6001 11.1002 52.1001 9.1002 51.2001 7.2002C50.4001 5.4002 51.8 4.7002 51.8 4.7002L57.4001 8.0002L57.6 8.3002C58 8.7002 58.2 9.3002 58.3 9.9002Z" fill="#130F0C"/>
<path d="M50.6999 12.7002C49.7999 13.3002 50.3999 13.2002 48.8999 13.5002L53.5999 18.2002C58.6999 15.2002 58.1999 9.90024 58.1999 9.90024C58.0999 9.30024 57.7999 8.70024 57.3999 8.20024V8.00024L51.8999 5.00024C51.8999 5.00024 50.4999 5.60024 51.2999 7.50024C52.0999 9.30024 52.5999 11.4002 50.6999 12.7002Z" fill="#AEC6F7" stroke="#111111" stroke-miterlimit="10"/>
<path d="M39.9 21.7001C39.8 21.7001 39.7 21.7001 39.6 21.6001C39.3 21.5001 38.5 20.9001 38.4 20.7001L38 16.3001H38.1C39.2 15.9001 43 14.5001 43.2 14.5001C43.5 14.5001 48.5 13.9001 50.4 12.6001C52.2 11.3001 51.7 9.30015 50.9 7.60015C50.6 6.90015 50.6 6.30015 50.8 5.80015C51.1 5.10015 51.6 4.90015 51.7 4.90015H51.8L57.4 8.00015L57.6 8.30015C58 8.80015 58.3 9.40015 58.4 10.1001C58.4 10.2001 58.7 18.5001 50.6 19.4001C44.6 20.1001 40.8 21.4001 39.9 21.8001C40 21.7001 39.9 21.7001 39.9 21.7001ZM38.8 20.6001C38.9 20.7001 39.7 21.3001 39.9 21.3001C40.9 20.9001 44.7 19.6001 50.7 18.9001C58.3 18.0001 58.2 10.3001 58.2 10.0001C58.1 9.40015 57.9 8.90015 57.5 8.40015L57.3 8.20015L51.9 5.20015C51.8 5.30015 51.5 5.50015 51.3 5.90015C51.1 6.30015 51.2 6.80015 51.4 7.40015C52.2 9.20015 52.9 11.4001 50.8 12.9001C48.9 14.2001 43.6 14.9001 43.4 14.9001C43.2 14.9001 40.3 15.9001 38.5 16.6001L38.8 20.6001Z" fill="#15110E"/>
<path d="M58.0001 9.00021C55.2001 3.40021 43.3001 15.2002 41.4001 20.2002C40.9001 21.4002 39.3001 21.8002 38.1001 21.2002L36.1001 20.2002C36.1001 20.2002 37.5001 5.20021 47.1001 2.80021C54.4001 1.00021 58.0001 9.00021 58.0001 9.00021Z" fill="#AEC6F7" stroke="#111111" stroke-miterlimit="10"/>
<path d="M47.0999 5.20008C39.7999 7.00008 37.2999 16.1001 36.3999 20.3001L38.0999 21.2001C39.2999 21.8001 40.8999 21.4001 41.3999 20.2001C42.8999 16.2001 50.5999 8.10008 55.0999 7.50008C53.3999 5.80008 50.6999 4.30008 47.0999 5.20008Z" fill="white"/>
<path d="M39.3 21.7001C38.9 21.7001 38.4 21.6001 38.1 21.4001L36 20.3001V20.2001C36 20.0001 37.5 5.10011 47.1 2.60011C54.4 0.700111 58.2 8.80011 58.2 8.90011L57.9 9.10011C57.4 8.10011 56.6 7.70011 55.5 7.70011C51.2 7.90011 43.2 16.2001 41.6 20.3001C41.3 20.9001 40.8 21.3001 40.2 21.5001C39.9 21.7001 39.6 21.7001 39.3 21.7001ZM36.3 20.1001L38.2 21.1001C38.8 21.4001 39.4 21.4001 40.1 21.2001C40.6 21.0001 41.1 20.6001 41.3 20.2001C42.8 16.3001 50.8 7.60011 55.5 7.30011C56.1 7.30011 56.6 7.40011 57 7.60011C55.5 5.40011 52.2 1.70011 47.1 3.00011C38.2 5.30011 36.5 18.7001 36.3 20.1001Z" fill="#15110E"/>
<path d="M32.9999 21.1C32.8999 20.9 32.8999 20.7 32.8999 20.5C32.9999 19.7 33.3999 17.8 35.8999 17.8C38.2999 17.8 38.9999 19.4001 39.0999 20.2001C39.1999 20.5001 39.0999 20.7 39.0999 21V21.1C38.8999 21.9 38.0999 22.5 37.0999 22.5H34.9999C34.0999 22.4 33.2999 21.8 32.9999 21.1Z" fill="#AEC6F7" stroke="#111111" stroke-miterlimit="10"/>
<path d="M37.1997 22.4C38.0997 22.4 38.8997 21.8 39.1997 21V20.9C39.2997 20.6 39.2997 20.4 39.1997 20.1C39.0997 19.8 38.9997 19.4 38.6997 19C38.2997 18.8 37.7997 18.7 37.1997 18.8C34.6997 18.8 34.1997 20.7 34.1997 21.5C34.1997 21.7 34.1997 21.9 34.2997 22.1C34.2997 22.2 34.2997 22.2 34.3997 22.3C34.5997 22.3 34.7997 22.4 34.9997 22.4H37.1997Z" fill="white"/>
<path d="M37.1998 22.6H34.9998C33.9998 22.6 33.0998 22 32.8998 21.1C32.7998 20.9 32.7998 20.6 32.7998 20.4C32.8998 19.5 33.3998 17.5 35.9998 17.5C38.4998 17.5 39.1998 19.3 39.3998 20.1C39.4998 20.4 39.4998 20.7 39.3998 20.9V21C39.0998 22 38.2998 22.6 37.1998 22.6ZM36.0998 17.9C35.9998 17.9 35.9998 17.9 36.0998 17.9C33.6998 17.9 33.2998 19.7 33.1998 20.5C33.1998 20.7 33.1998 20.9 33.2998 21.1C33.4998 21.8 34.1998 22.3 35.0998 22.3H37.3998C38.2998 22.3 38.9998 21.8 39.1998 21V20.9C39.2998 20.7 39.2998 20.4 39.1998 20.2C38.8998 19.3 38.1998 17.9 36.0998 17.9Z" fill="#15110E"/>
<path d="M32.9 17.6001C32.9 17.6001 34.9 18.2001 35 21.2001C35 21.2001 34.8 22.6001 36.1 22.7001C36.1 22.7001 33.2 24.6001 30.7 22.6001C29.5 21.6001 28.2 19.5001 26.5 20.0001C24.7 20.5001 28.2 17.4001 28.2 17.4001H30L31.1 18.0001L31.7 17.5001L32.9 17.6001Z" fill="#130F0C"/>
<path d="M33.3999 23.7002C32.4999 23.7002 31.5999 23.5002 30.6999 22.7002C30.3999 22.4002 29.9999 22.1002 29.6999 21.7002C28.7999 20.7002 27.7999 19.7002 26.6999 20.1002C26.4999 20.1002 26.1999 20.2002 25.9999 20.0002C25.6999 19.5002 27.0999 18.2002 28.1999 17.2002H28.2999H30.2999L31.3999 17.8002L31.9999 17.4002L33.1999 17.5002C33.2999 17.5002 35.2999 18.1002 35.4999 21.3002C35.4999 21.3002 35.3999 21.9002 35.6999 22.3002C35.8999 22.5002 36.0999 22.6002 36.3999 22.6002H36.8999L36.3999 22.9002C36.2999 22.8002 34.9999 23.7002 33.3999 23.7002ZM27.0999 19.7002C28.1999 19.7002 29.0999 20.7002 29.9999 21.5002C30.2999 21.9002 30.6999 22.2002 30.9999 22.4002C32.7999 23.9002 34.8999 23.1002 35.7999 22.7002C35.5999 22.6002 35.3999 22.5002 35.2999 22.3002C34.8999 21.8002 34.9999 21.2002 34.9999 21.1002C34.8999 18.4002 33.1999 17.7002 32.9999 17.7002L31.9999 17.6002L31.2999 18.1002L30.0999 17.4002H28.3999C27.3999 18.3002 26.3999 19.4002 26.2999 19.7002C26.2999 19.7002 26.3999 19.7002 26.5999 19.7002C26.6999 19.7002 26.8999 19.7002 27.0999 19.7002Z" fill="#15110E"/>
<path d="M32.8998 17.6L29.3998 16C28.1998 15.5 26.6998 15.8 25.7998 16.8C24.9998 17.8 24.1998 19.3 24.2998 21.7C24.5998 26.4 23.2998 29.4 20.1998 29.7C19.8998 29.7 19.7998 30.1 19.8998 30.3L22.1998 33.8C22.4998 34.2 22.8998 34.4 23.3998 34.3C25.1998 34 29.2998 32.8 29.5998 28.3C29.8998 22.7 28.5998 19.7 32.8998 17.6Z" fill="#AEC6F7" stroke="#111111" stroke-miterlimit="10"/>
<path d="M30.1 17.6999C28.9 17.1999 27.4 17.4999 26.5 18.4999C25.7 19.4999 24.9 20.9999 25 23.3999C25.3 28.0999 23.9999 31.0999 20.9 31.3999C20.8 31.3999 20.7 31.3999 20.7 31.4999L22.2999 33.9999C22.5999 34.3999 23 34.5999 23.5 34.4999C25.3 34.1999 29.4 32.9999 29.7 28.4999C30 23.4999 28.9999 20.5999 31.7999 18.4999L30.1 17.6999Z" fill="white"/>
<path d="M23.1999 34.5C22.7999 34.5 22.2999 34.3 22.0999 33.9L19.7999 30.4C19.6999 30.2 19.6999 30 19.7999 29.8C19.8999 29.6 20.0999 29.5 20.1999 29.5C22.9999 29.2 24.3999 26.5 24.0999 21.7C23.9999 19.7 24.4999 18 25.5999 16.7C26.4999 15.6 27.9999 15.3 29.3999 15.9L33.2999 17.6L32.9999 17.7C29.7999 19.3 29.7999 21.4 29.7999 24.8C29.7999 25.8 29.7999 27 29.6999 28.3C29.3999 32.8 25.1999 34.1 23.3999 34.4C23.3999 34.5 23.2999 34.5 23.1999 34.5ZM28.0999 15.9C27.2999 15.9 26.4999 16.2 25.8999 16.9C24.7999 18.1 24.3999 19.7 24.4999 21.6C24.7999 26.6 23.2999 29.5 20.2999 29.7C20.1999 29.7 20.1999 29.8 20.0999 29.8C20.0999 29.9 20.0999 29.9 20.0999 30L22.3999 33.5C22.5999 33.8 22.9999 34 23.3999 33.9C25.0999 33.6 29.0999 32.4 29.3999 28.1C29.4999 26.8 29.4999 25.7 29.4999 24.7C29.4999 21.3 29.4999 19.1 32.4999 17.4L29.2999 16C28.8999 16 28.4999 15.9 28.0999 15.9Z" fill="#15110E"/>
<path d="M36.0999 22.7001C36.0999 22.7001 36.1999 22.8001 36.0999 22.7001C36.7999 22.6001 40.0999 22.1001 40.8999 26.4001C41.6999 31.1001 47.9999 33.5001 51.8999 29.6001C52.0999 29.4001 52.1999 29.2001 52.2999 28.9001L53.4999 25.1001C53.5999 24.8001 53.1999 24.5001 52.9999 24.7001C51.2999 25.9001 47.6999 28.1001 45.9999 25.3001C43.6999 21.6001 41.5999 19.5001 38.9999 20.1001C38.9999 20.2001 36.4999 20.5001 36.0999 22.7001Z" fill="#AEC6F7" stroke="#111111" stroke-miterlimit="10"/>
<path d="M40.9998 26.4002C41.7998 31.1002 48.0998 33.5002 51.9998 29.6002C52.1998 29.4002 52.2998 29.2002 52.3998 28.9002L53.1998 26.4002C53.2998 26.1002 52.8998 25.9002 52.5998 26.1002C50.8998 27.3002 47.2998 29.5002 45.5998 26.7002C43.2998 23.0002 41.1998 20.9002 38.5998 21.5002C38.5998 21.5002 37.1998 21.7002 36.2998 22.7002C37.1998 22.6002 40.2998 22.3002 40.9998 26.4002Z" fill="white"/>
<path d="M47.2999 31.7002C46.5999 31.7002 45.9999 31.6002 45.2999 31.4002C42.8999 30.7002 41.1999 28.7002 40.6999 26.4002C40.3999 24.9002 39.8999 23.9002 38.9999 23.3002C37.8999 22.6002 36.5999 22.8002 36.1999 22.9002C36.0999 22.9002 35.9999 22.9002 35.9999 22.8002C35.8999 22.7002 35.8999 22.7002 35.8999 22.6002C36.2999 20.3002 38.8999 19.9002 38.8999 19.9002C41.8999 19.2002 44.0999 22.0002 46.0999 25.1002C46.4999 25.8002 47.0999 26.2002 47.7999 26.3002C49.4999 26.6002 51.6999 25.3002 52.7999 24.4002C52.9999 24.3002 53.1999 24.3002 53.3999 24.4002C53.5999 24.5002 53.6999 24.8002 53.5999 25.0002L52.4999 29.0002C52.3999 29.3002 52.1999 29.6002 51.9999 29.8002C50.6999 31.0002 48.9999 31.7002 47.2999 31.7002ZM37.0999 22.5002C37.6999 22.5002 38.4999 22.6002 39.1999 23.1002C40.1999 23.7002 40.7999 24.9002 41.0999 26.4002C41.4999 28.6002 43.0999 30.4002 45.3999 31.1002C47.6999 31.8002 50.0999 31.2002 51.7999 29.5002C51.9999 29.3002 52.0999 29.1002 52.1999 28.9002L53.3999 25.1002C53.3999 25.0002 53.3999 24.9002 53.2999 24.9002C53.2999 24.9002 53.1999 24.8002 53.0999 24.9002C51.8999 25.8002 49.5999 27.2002 47.7999 26.9002C46.9999 26.7002 46.2999 26.3002 45.8999 25.5002C43.3999 21.4002 41.3999 19.9002 39.0999 20.4002C38.9999 20.4002 36.7999 20.7002 36.3999 22.6002C36.4999 22.5002 36.7999 22.5002 37.0999 22.5002Z" fill="#15110E"/>
<path d="M46.9999 44.5L41.0999 49.6L42.2999 54.3L48.0999 49.2L46.9999 44.5Z" fill="#130F0C"/>
<path d="M48.1999 41.8L44.5999 44.9001L45.3999 47.8L48.8999 44.6L48.1999 41.8Z" fill="#130F0C"/>
<path d="M57.7998 30V30.4L36.2998 42.8V42.4" fill="#AEC6F7"/>
<path d="M61.2 22.5L62 45.4L82.1999 56.1C82.1999 56.1 82.3 56.1 82.3 56L81.5 33.2L61.2 22.5Z" fill="#AEC6F7" stroke="#111111" stroke-miterlimit="10"/>
<path d="M82.3 56.3H82.2L61.9 45.6L61 22.3L81.6 33.2001L82.4 56.1C82.4 56.2 82.4 56.3 82.3 56.3C82.4 56.3 82.3 56.3 82.3 56.3ZM62.2 45.4001L82.2 56L81.4 33.4001L61.4 22.8L62.2 45.4001Z" fill="#15110E"/>
<path d="M101 21.0999L101.8 43.9999L82.4 56.0999C82.4 56.0999 82.3 56.0999 82.3 55.9999L81.5 33.1999L101 21.0999Z" fill="white" stroke="#0A0A0A" stroke-miterlimit="10"/>
<path d="M82.3999 56.2999H82.2999C82.1999 56.2999 82.1999 56.1999 82.1999 56.0999L81.3999 33.2L81.4999 33.0999L101.2 20.7L102.1 44L82.4999 56.2999C82.4999 56.2999 82.4999 56.2999 82.3999 56.2999ZM81.6999 33.4L82.4999 56L101.6 44L100.8 21.4L81.6999 33.4Z" fill="#15110E"/>
<path d="M102.2 17.8L81.4 30.7999L59.7 19.4V19.3L80.5 6.19995L102.2 17.7V17.8Z" fill="#AEC6F7" stroke="#111111" stroke-miterlimit="10"/>
<path d="M102.4 19.7001L81.5999 32.7001L59.8999 21.2001V21.1001L80.6999 8.1001L102.4 19.6001C102.4 19.6001 102.4 19.6001 102.4 19.7001Z" fill="white"/>
<path d="M81.4 31.1L59.6 19.5C59.5 19.5 59.5 19.4 59.5 19.3C59.5 19.2 59.5 19.2 59.6 19.1L80.5 6H80.6L102.3 17.5C102.4 17.5 102.4 17.6 102.4 17.7C102.4 17.8 102.4 17.9 102.3 17.9L81.4 31.1ZM59.9 19.3L81.4 30.7L102 17.8L80.5 6.4L59.9 19.3Z" fill="#15110E"/>
<path d="M59.6001 19.3999L59.8001 25.8999L81.6001 37.3999L81.4001 30.8999L59.6001 19.3999C59.6001 19.3999 59.7001 19.2999 59.6001 19.3999Z" fill="#AEC6F7"/>
<path d="M59.6001 19.3999L59.8001 25.8999L81.6001 37.3999L81.4001 30.8999L59.6001 19.3999ZM59.6001 19.3999C59.7001 19.2999 59.6001 19.3999 59.6001 19.3999Z" stroke="#111111" stroke-miterlimit="10"/>
<path d="M81.8 37.7L59.7 26L59.5 19.4C59.5 19.3 59.5 19.3 59.6 19.2C59.7 19.2 59.7 19.2 59.8 19.2L81.6 30.7999L81.8 37.7ZM60 25.7999L81.5 37.2L81.3 31L59.8 19.6L60 25.7999Z" fill="#15110E"/>
<path d="M102.3 17.9L102.5 24.3L81.7 37.4L81.5 30.9L102.3 17.9C102.3 17.8 102.2 17.8 102.3 17.9Z" fill="#14100D"/>
<path d="M81.5 37.7L81.2 30.7999L81.3 30.7L102.1 17.7C102.2 17.7 102.3 17.7 102.3 17.7C102.4 17.7 102.4 17.8 102.4 17.9L102.6 24.4L102.5 24.5L81.5 37.7Z" fill="white" stroke="#0A0A0A" stroke-miterlimit="10"/>
<path d="M73.3 26.6999L94.3 13.5999L89.2 10.8999L68.3 23.9999L73.3 26.6999Z" fill="#AEC6F7" stroke="#111111" stroke-miterlimit="10"/>
<path d="M68.2 30.2998L73.3 32.9998L74 51.7998L68.9 49.0998" fill="#AEC6F7"/>
<path d="M68.2 30.2998L73.3 32.9998L74 51.7998L68.9 49.0998" stroke="#111111" stroke-miterlimit="10"/>
<path d="M69.7 49.6999L69 30.8999L74 33.4999L74.7 52.2999L69.7 49.6999Z" fill="white"/>
<path d="M68.8 30.3L68.5 24L73.6 26.7L73.8 33L68.8 30.3Z" fill="white"/>
<path d="M89.1 26.1L67.2 14.6L72.2 11.5L94 23.1L89.1 26.1Z" fill="#AEC6F7" stroke="#111111" stroke-miterlimit="10"/>
<path d="M60.4 8.8998C60.4 8.8998 60.3 15.9998 68 16.4998C73.7 16.8998 77.4 17.7998 78.4 18.1998C78.6 18.2998 79.6 17.5998 79.6 17.3998L79.8 13.6998C79.8 13.6998 74.5 11.4998 74.2 11.4998C73.9 11.4998 69.6 11.9998 67.8 10.8998C66 9.8998 66.4 7.9998 67.2 6.3998C67.9 4.7998 66.5 4.2998 66.5 4.2998L61.3 7.0998L61.1 7.2998C60.7 7.7998 60.5 8.2998 60.4 8.8998Z" fill="#AEC6F7" stroke="#111111" stroke-miterlimit="10"/>
<path d="M63.2001 14.7999L67.9001 10.9999C67.9001 10.9999 67.9001 10.9999 67.8001 10.9999C65.9001 9.8999 66.4 8.0999 67.1 6.4999C67.8 4.8999 66.4001 4.3999 66.4001 4.3999L61.2001 7.1999L61 7.3999C60.6 7.7999 60.4 8.2999 60.3 8.8999C60.4 8.8999 60.3001 12.4999 63.2001 14.7999Z" fill="#14100D"/>
<path d="M78.5 18.3999C78.5 18.3999 78.4 18.3999 78.5 18.3999C77.5 18.0999 73.8 17.0999 68 16.6999C60.2 16.0999 60.2 8.99985 60.2 8.89985C60.3 8.29985 60.5 7.79985 60.9 7.29985L61.2 6.99985L66.4 4.09985H66.5C66.5 4.09985 67.1 4.29985 67.4 4.89985C67.6 5.29985 67.6 5.79985 67.3 6.39985C66.6 7.99985 66.1 9.69985 67.9 10.6999C68.7 11.0999 70.2999 11.5999 74.0999 11.2999C74.1999 11.2999 74.3 11.2999 74.3 11.2999C74.6 11.2999 78.4 12.8999 80 13.4999H80.0999L79.9 17.3999C79.8 17.5999 79.1 18.0999 78.9 18.1999C78.7 18.2999 78.6 18.3999 78.5 18.3999ZM60.5999 8.89985C60.5999 9.29985 60.6999 15.7999 68.0999 16.3999C73.8999 16.7999 77.6 17.7999 78.5 18.0999C78.7 18.0999 79.4 17.5999 79.5 17.3999L79.6999 13.7999C77.6999 12.9999 74.5 11.6999 74.3 11.5999C74.3 11.5999 74.1999 11.5999 74.0999 11.5999C70.2999 11.8999 68.4999 11.4999 67.6999 10.9999C65.6999 9.79985 66.2 7.89985 66.9 6.29985C67.1 5.79985 67.2 5.39985 67 5.09985C66.8 4.69985 66.5 4.59985 66.4 4.49985L61.2999 7.29985L61.0999 7.49985C60.8999 7.89985 60.6999 8.39985 60.5999 8.89985Z" fill="#15110E"/>
<path d="M60.7 8.09985C63.2 3.09985 75 12.8998 77 17.1998C77.5 18.1998 79.0999 18.4998 80.1999 17.9998L82.0999 16.9998C82.0999 16.9998 80.3 4.09985 71 2.29985C63.9 0.999845 60.7 8.09985 60.7 8.09985Z" fill="#AEC6F7" stroke="#111111" stroke-miterlimit="10"/>
<path d="M71 3.69973C67.1 2.99973 64.4 4.79973 62.7 6.49973C67 6.19973 75.3 13.4997 76.9 16.9997C77.4 17.9997 78.9999 18.2997 80.0999 17.7997L81.8 16.8997C81.1 13.5997 78.5 5.09973 71 3.69973Z" fill="white"/>
<path d="M79.1 18.3998C78.2 18.3998 77.3 17.9998 76.9 17.2998C75.2 13.6998 67.4 6.89984 63.1 6.89984C62 6.89984 61.3 7.29984 60.8 8.19984L60.5 7.99984C60.5 7.89984 63.9 0.799841 71 2.19984C80.3 3.99984 82.3 16.7998 82.3 16.9998V17.0998L80.3 18.0998C79.9 18.2998 79.5 18.3998 79.1 18.3998ZM62.9 6.49984C63 6.49984 63 6.49984 63.1 6.49984C67.4 6.59984 75.5 13.4998 77.1 17.0998C77.6 17.9998 79 18.2998 80.1 17.7998L81.9 16.8998C81.7 15.5998 79.5 4.09984 70.9 2.49984C65.9 1.59984 62.9 4.89984 61.5 6.79984C62 6.59984 62.4 6.49984 62.9 6.49984Z" fill="#15110E"/>
<path d="M100.7 6.89976C100.7 6.89976 101.3 14.2998 94.1 15.3998C88.8 16.1998 85.3 17.4998 84.4 17.9998C84.2 18.0998 83.2 17.3998 83.2 17.2998L82.7 13.3998C82.7 13.3998 87 11.5998 87.2 11.5998C87.4 11.5998 92.1 10.8998 93.8 9.59976C95.5 8.29976 94.9 6.49976 94.1 4.79976C93.3 3.19976 94.6 2.49976 94.6 2.49976L99.7 5.09976L99.9 5.29976C100.4 5.79976 100.6 6.29976 100.7 6.89976Z" fill="#130F0C"/>
<path d="M93.8998 9.59985C93.0998 10.1999 93.6998 10.0999 92.2998 10.3999L96.7998 14.4999C101.3 11.5999 100.7 6.89985 100.7 6.89985C100.6 6.39985 100.3 5.79985 99.9998 5.39985L99.7998 5.19985L94.6998 2.59985C94.6998 2.59985 93.3998 3.19985 94.1998 4.89985C94.9998 6.49985 95.5998 8.39985 93.8998 9.59985Z" fill="#AEC6F7" stroke="#111111" stroke-miterlimit="10"/>
<path d="M84.3999 18.0998C84.2999 18.0998 84.2999 18.0998 84.1999 17.9998C83.8999 17.8998 83.1999 17.3998 83.0999 17.1998L82.5999 13.1998H82.6999C83.6999 12.7998 86.9999 11.3998 87.2999 11.3998C87.4999 11.3998 92.0999 10.6998 93.7999 9.3998C95.3999 8.1998 94.7999 6.3998 94.0999 4.7998C93.7999 4.1998 93.6999 3.6998 93.8999 3.1998C94.0999 2.5998 94.5999 2.2998 94.6999 2.2998H94.7999L99.8999 4.9998L100.1 5.1998C100.5 5.6998 100.8 6.1998 100.9 6.7998C100.9 6.8998 101.4 14.3998 94.0999 15.4998C88.6999 16.3998 85.2999 17.6998 84.3999 18.0998C84.3999 18.0998 84.4999 18.0998 84.3999 18.0998ZM83.3999 17.1998C83.4999 17.2998 84.1999 17.7998 84.3999 17.7998C85.2999 17.3998 88.6999 16.0998 94.0999 15.1998C101 14.0998 100.6 7.0998 100.6 6.7998C100.5 6.2998 100.2 5.7998 99.8999 5.3998L99.6999 5.1998L94.6999 2.6998C94.5999 2.7998 94.2999 2.9998 94.1999 3.2998C94.0999 3.6998 94.0999 4.0998 94.3999 4.5998C95.1999 6.1998 95.8999 8.1998 93.9999 9.5998C92.2999 10.8998 87.5999 11.5998 87.2999 11.5998C87.0999 11.5998 84.4999 12.5998 82.8999 13.2998L83.3999 17.1998Z" fill="#15110E"/>
<path d="M100.4 6.10001C97.6999 1.10001 87.2999 12.2 85.6999 16.8C85.2999 17.9 83.8999 18.4 82.6999 17.8L80.8999 17C80.8999 17 81.6999 3.40001 90.2999 0.800014C96.7999 -1.09999 100.4 6.10001 100.4 6.10001Z" fill="#AEC6F7" stroke="#111111" stroke-miterlimit="10"/>
<path d="M90.4 2.9999C83.9 4.8999 81.8 13.1999 81.2 17.0999L82.7 17.7999C83.8 18.2999 85.2 17.7999 85.7 16.7999C86.9 13.1999 93.6 5.4999 97.7 4.7999C96.1 3.2999 93.6 1.9999 90.4 2.9999Z" fill="white"/>
<path d="M83.8 18.1999C83.4 18.1999 83 18.0999 82.7 17.9999L80.7 17.0999V16.9999C80.7 16.8999 81.6 3.19989 90.2 0.699894C96.8 -1.20011 100.5 5.89989 100.5 5.99989L100.2 6.19989C99.7 5.29989 99 4.89989 98 4.99989C94.1 5.29989 87.1 13.0999 85.8 16.8999C85.6 17.3999 85.1 17.7999 84.6 18.0999C84.4 18.1999 84.1 18.1999 83.8 18.1999ZM81.1 16.8999L82.9 17.6999C83.4 17.8999 84 17.9999 84.6 17.7999C85.1 17.5999 85.5 17.2999 85.6 16.7999C86.8 13.1999 93.8 4.99989 98.1 4.59989C98.6 4.59989 99.1 4.59989 99.5 4.79989C98.1 2.89989 95 -0.400106 90.4 0.899894C82.3 3.29989 81.2 15.5999 81.1 16.8999Z" fill="#15110E"/>
<path d="M78.1 17.8C78 17.6 78 17.4 78 17.2C78 16.5 78.4 14.7 80.7 14.6C82.9 14.5 83.5 16 83.7 16.7C83.8 16.9 83.8 17.2 83.7 17.4V17.5C83.5 18.2 82.8 18.8 82 18.8L80 18.9C79.1 19 78.4 18.5 78.1 17.8Z" fill="#AEC6F7" stroke="#111111" stroke-miterlimit="10"/>
<path d="M82 18.9001C82.8 18.9001 83.6 18.3001 83.7 17.6001V17.5001C83.8 17.3001 83.8 17.0001 83.7 16.8001C83.6 16.5001 83.5 16.2001 83.2 15.8001C82.8 15.7001 82.4 15.6001 81.9 15.6001C79.6 15.7001 79.3 17.4001 79.2 18.2001C79.2 18.4001 79.2 18.6001 79.3 18.8001C79.3 18.9001 79.3 18.9001 79.4 19.0001C79.6 19.0001 79.7 19.1001 79.9 19.0001L82 18.9001Z" fill="white"/>
<path d="M81.9999 19.0999L79.9999 19.1999C79.0999 19.1999 78.2999 18.6999 77.9999 17.8999C77.8999 17.6999 77.8999 17.4999 77.8999 17.2999C77.9999 16.4999 78.2999 14.6999 80.6999 14.5999C82.9999 14.4999 83.6999 16.0999 83.8999 16.7999C83.9999 17.0999 83.9999 17.2999 83.8999 17.5999V17.6999C83.6999 18.3999 82.8999 18.9999 81.9999 19.0999ZM80.7999 14.7999C80.7999 14.7999 80.6999 14.8999 80.7999 14.7999C78.5999 14.8999 78.2999 16.4999 78.1999 17.1999C78.1999 17.3999 78.1999 17.4999 78.2999 17.6999C78.4999 18.2999 79.1999 18.7999 79.9999 18.6999L81.9999 18.5999C82.7999 18.5999 83.3999 18.0999 83.5999 17.3999V17.2999C83.5999 17.0999 83.5999 16.8999 83.5999 16.6999C83.3999 16.0999 82.7999 14.7999 80.7999 14.7999Z" fill="#15110E"/>
<path d="M77.9001 14.5999C77.9001 14.5999 79.7001 14.9999 80.0001 17.7999C80.0001 17.7999 79.9001 19.0999 81.1001 19.0999C81.1001 19.0999 78.5001 20.8999 76.2001 19.1999C75.1001 18.3999 73.9001 16.4999 72.3001 16.8999C70.7001 17.3999 73.7001 14.4999 73.7001 14.4999L75.4001 14.3999L76.4001 14.8999L77.0001 14.4999L77.9001 14.5999Z" fill="#130F0C"/>
<path d="M78.6001 20.1999C77.8001 20.1999 76.9001 19.9999 76.1001 19.3999C75.8001 19.1999 75.5001 18.8999 75.2001 18.5999C74.3001 17.7999 73.4001 16.8999 72.4001 17.1999C72.3001 17.1999 71.9001 17.3999 71.8001 17.0999C71.6001 16.6999 72.7001 15.3999 73.7001 14.4999L75.5001 14.3999L76.5001 14.8999L77.0001 14.4999L78.1001 14.5999C78.2001 14.5999 80.0001 15.0999 80.3001 17.9999C80.3001 17.9999 80.3001 18.4999 80.5001 18.8999C80.7001 19.0999 80.9001 19.1999 81.2001 19.1999H81.7001L81.3001 19.4999C81.2001 19.2999 80.0001 20.0999 78.6001 20.1999ZM72.7001 16.7999C73.7001 16.7999 74.6001 17.5999 75.4001 18.3999C75.7001 18.6999 76.0001 18.9999 76.3001 19.1999C78.0001 20.4999 79.9001 19.6999 80.6001 19.2999C80.4001 19.1999 80.3001 19.0999 80.1001 18.9999C79.7001 18.5999 79.8001 17.9999 79.8001 17.8999C79.6001 15.3999 78.1001 14.8999 77.9001 14.8999H77.0001L76.4001 15.3999L75.3001 14.7999L73.7001 14.8999C72.8001 15.6999 71.9001 16.7999 71.9001 17.0999C71.9001 17.0999 72.0001 17.0999 72.1001 17.0999C72.4001 16.7999 72.5001 16.7999 72.7001 16.7999Z" fill="#15110E"/>
<path d="M77.9001 14.5998L74.6001 13.2998C73.5001 12.8998 72.2001 13.1998 71.4001 14.0998C70.7001 14.9998 70.0001 16.3998 70.2001 18.5998C70.6001 22.7998 69.5001 25.5998 66.8001 25.9998C66.5001 25.9998 66.4001 26.2998 66.6001 26.4998L68.8001 29.5998C69.0001 29.8998 69.5001 30.0998 69.9001 29.9998C71.5001 29.6998 75.2001 28.3998 75.3001 24.3998C75.4001 19.3998 74.1001 16.6998 77.9001 14.5998Z" fill="#AEC6F7" stroke="#111111" stroke-miterlimit="10"/>
<path d="M75.3 14.7998C74.2 14.3998 72.9 14.6998 72.1 15.5998C71.4 16.4998 70.7 17.8998 70.9 20.0998C71.3 24.2998 70.2 27.0998 67.5 27.4998C67.4 27.4998 67.4 27.4998 67.3 27.5998L68.8 29.7998C69 30.0998 69.5 30.2998 69.9 30.1998C71.5 29.8998 75.2 28.5998 75.3 24.5998C75.4 20.0998 74.4 17.3998 76.9 15.3998L75.3 14.7998Z" fill="white"/>
<path d="M69.7 30.2999C69.3 30.2999 68.9 30.0999 68.7 29.7999L66.5 26.6999C66.4 26.4999 66.4 26.3999 66.5 26.1999C66.6 25.9999 66.7001 25.8999 66.9001 25.8999C69.4001 25.5999 70.6 22.9999 70.2 18.6999C70 16.8999 70.4001 15.2999 71.4001 14.0999C72.2001 13.0999 73.6001 12.6999 74.8001 13.1999L78.4001 14.5999L78 14.7999C75.1 16.2999 75.2001 18.1999 75.3001 21.3999C75.3001 22.2999 75.4001 23.3999 75.4001 24.5999C75.3001 28.6999 71.5001 29.9999 69.9001 30.3999C69.8001 30.2999 69.8 30.2999 69.7 30.2999ZM73.5 13.2999C72.8 13.2999 72 13.6999 71.6 14.2999C70.7 15.3999 70.3 16.8999 70.5 18.5999C70.9 23.0999 69.7001 25.7999 66.9001 26.0999C66.8001 26.0999 66.8001 26.1999 66.8001 26.1999C66.8001 26.2999 66.8001 26.2999 66.8001 26.3999L69 29.4999C69.2 29.7999 69.6001 29.8999 69.9001 29.8999C71.4001 29.5999 75.1 28.3999 75.2 24.4999C75.2 23.2999 75.2 22.2999 75.1 21.3999C75 18.2999 74.9 16.2999 77.6 14.6999L74.6 13.5999C74.2 13.3999 73.9 13.2999 73.5 13.2999Z" fill="#15110E"/>
<path d="M81 19.1999C81 19.1999 81 19.2999 81 19.1999C81.7 19.0999 84.6 18.4999 85.5 22.3999C86.4 26.5999 92.2 28.5999 95.6 24.8999C95.8 24.6999 95.9 24.4999 96 24.2999L96.9 20.7999C97 20.4999 96.6 20.2999 96.4 20.4999C94.9 21.6999 91.7 23.7999 90.1 21.2999C87.9 17.9999 86 16.1999 83.6 16.7999C83.5 16.7999 81.2 17.1999 81 19.1999Z" fill="#AEC6F7" stroke="#111111" stroke-miterlimit="10"/>
<path d="M85.6001 22.4999C86.5001 26.6999 92.3001 28.6999 95.7001 24.9999C95.9001 24.7999 96.0001 24.5999 96.1001 24.3999L96.7001 22.0999C96.7001 21.7999 96.4001 21.5999 96.2001 21.7999C94.7001 22.9999 91.5001 25.0999 89.9001 22.5999C87.7001 19.2999 85.8001 17.4999 83.4001 18.0999C83.4001 18.0999 82.1001 18.2999 81.4001 19.2999C82.0001 19.0999 84.8001 18.6999 85.6001 22.4999Z" fill="white"/>
<path d="M91.4 26.9999C90.8 26.9999 90.2 26.9999 89.6 26.7999C87.4 26.1999 85.8 24.4999 85.3 22.3999C85 21.0999 84.5 20.1999 83.6 19.6999C82.6 19.0999 81.4 19.2999 81.1 19.3999C81 19.3999 80.9 19.3999 80.9 19.3999C80.8 19.2999 80.8 19.2999 80.8 19.1999C81.1 17.0999 83.4 16.6999 83.5 16.6999C86.2 15.9999 88.3 18.3999 90.2 21.1999C90.6 21.7999 91.1 22.1999 91.8 22.2999C93.4 22.4999 95.3 21.1999 96.3 20.3999C96.5 20.2999 96.7 20.2999 96.9 20.3999C97.1 20.4999 97.2 20.6999 97.1 20.8999L96.2 24.3999C96.1 24.6999 96 24.8999 95.8 25.0999C94.5 26.2999 93 26.9999 91.4 26.9999ZM81.9 18.9999C82.4 18.9999 83.1 19.0999 83.8 19.4999C84.7 19.9999 85.3 20.9999 85.6 22.3999C86 24.3999 87.6 25.9999 89.7 26.4999C91.8 27.0999 93.9 26.3999 95.4 24.7999C95.6 24.5999 95.7 24.3999 95.7 24.1999L96.6 20.6999C96.6 20.5999 96.6 20.4999 96.5 20.4999C96.5 20.4999 96.4 20.3999 96.3 20.4999C95.2 21.2999 93.2 22.6999 91.5 22.4999C90.8 22.3999 90.2 21.9999 89.7 21.2999C87.3 17.5999 85.4 16.3999 83.4 16.8999C83.3 16.8999 81.3 17.2999 81 18.9999C81.3 18.9999 81.6 18.9999 81.9 18.9999Z" fill="#15110E"/>
<path d="M100.9 25.0999V25.4999L81.8 37.4999V37.0999" fill="#AEC6F7"/>
</g>
<defs>
<clipPath id="clip0">
<rect width="241.2" height="205.1" fill="white"/>
</clipPath>
</defs>
</svg>
